G04 (created by PCBNEW-RS274X (2011-11-30 BZR 3250)-stable) date Mon 09 Jan 2012 02:26:34 AM UTC*
G01*
G70*
G90*
%MOIN*%
G04 Gerber Fmt 3.4, Leading zero omitted, Abs format*
%FSLAX34Y34*%
G04 APERTURE LIST*
%ADD10C,0.006000*%
%ADD11R,0.060000X0.009800*%
%ADD12O,0.060000X0.009800*%
%ADD13O,0.009800X0.060000*%
%ADD14R,0.055000X0.055000*%
%ADD15C,0.055000*%
%ADD16C,0.060000*%
%ADD17C,0.160000*%
%ADD18C,0.035000*%
%ADD19C,0.016000*%
%ADD20C,0.008000*%
%ADD21C,0.010000*%
G04 APERTURE END LIST*
G54D10*
G54D11*
X68185Y-43831D03*
G54D12*
X68185Y-44028D03*
X68185Y-44225D03*
X68185Y-44422D03*
X68185Y-44619D03*
X68185Y-44815D03*
X68185Y-45012D03*
X68185Y-45209D03*
X68185Y-45406D03*
X68185Y-45603D03*
X68185Y-45800D03*
X68185Y-45996D03*
X68185Y-46193D03*
X68185Y-46390D03*
X68185Y-46587D03*
X68185Y-46784D03*
G54D13*
X69020Y-47682D03*
X69217Y-47682D03*
X69414Y-47682D03*
X69611Y-47682D03*
X69808Y-47682D03*
X70004Y-47682D03*
X70201Y-47682D03*
X70398Y-47682D03*
X70595Y-47682D03*
X70792Y-47682D03*
X70989Y-47682D03*
X71185Y-47682D03*
X71382Y-47682D03*
X71579Y-47682D03*
X71776Y-47682D03*
X71973Y-47682D03*
G54D12*
X72871Y-46784D03*
X72871Y-46587D03*
X72871Y-46390D03*
X72871Y-46193D03*
X72871Y-45996D03*
X72871Y-45800D03*
X72871Y-45603D03*
X72871Y-45406D03*
X72871Y-45209D03*
X72871Y-45012D03*
X72871Y-44815D03*
X72871Y-44619D03*
X72871Y-44422D03*
X72871Y-44225D03*
X72871Y-44028D03*
X72871Y-43831D03*
G54D13*
X71973Y-42996D03*
X71776Y-42996D03*
X71382Y-42996D03*
X71579Y-42989D03*
X71185Y-42996D03*
X70989Y-42996D03*
X70792Y-42996D03*
X70595Y-42996D03*
X70398Y-42996D03*
X70201Y-42996D03*
X70007Y-42996D03*
X69810Y-42996D03*
X69613Y-42996D03*
X69416Y-42996D03*
X69220Y-42996D03*
X69023Y-42996D03*
G54D14*
X78500Y-45500D03*
G54D15*
X78500Y-46500D03*
X78500Y-47500D03*
X78500Y-48500D03*
X78500Y-49500D03*
X78500Y-50500D03*
X78500Y-51500D03*
X78500Y-52500D03*
G54D14*
X78500Y-35500D03*
G54D15*
X78500Y-36500D03*
X78500Y-37500D03*
X78500Y-38500D03*
X78500Y-39500D03*
X78500Y-40500D03*
X78500Y-41500D03*
X78500Y-42500D03*
G54D14*
X35000Y-48500D03*
G54D15*
X35000Y-49500D03*
X35000Y-50500D03*
X35000Y-51500D03*
X35000Y-52500D03*
X35000Y-53500D03*
X35000Y-54500D03*
X35000Y-55500D03*
G54D14*
X35000Y-32500D03*
G54D15*
X35000Y-33500D03*
X35000Y-34500D03*
X35000Y-35500D03*
X35000Y-36500D03*
X35000Y-37500D03*
X35000Y-38500D03*
X35000Y-39500D03*
G54D14*
X75594Y-31031D03*
G54D15*
X76594Y-31031D03*
X77594Y-31031D03*
X78594Y-31031D03*
G54D16*
X68106Y-32902D03*
X72106Y-32902D03*
G54D15*
X46000Y-43000D03*
X45000Y-43000D03*
X46000Y-31000D03*
X45000Y-31000D03*
X46000Y-33000D03*
X45000Y-33000D03*
X46000Y-35000D03*
X45000Y-35000D03*
X46000Y-45000D03*
X45000Y-45000D03*
X46000Y-47000D03*
X45000Y-47000D03*
X46000Y-49000D03*
X45000Y-49000D03*
X46000Y-51000D03*
X45000Y-51000D03*
X46000Y-37000D03*
X45000Y-37000D03*
X46000Y-39000D03*
X45000Y-39000D03*
X46000Y-41000D03*
X45000Y-41000D03*
X39000Y-55000D03*
X38000Y-55000D03*
X46000Y-53000D03*
X45000Y-53000D03*
X46000Y-55000D03*
X45000Y-55000D03*
X46000Y-57000D03*
X45000Y-57000D03*
X46000Y-29000D03*
X45000Y-29000D03*
X39000Y-59000D03*
X38000Y-59000D03*
X39000Y-57000D03*
X38000Y-57000D03*
X55000Y-29000D03*
X55000Y-30000D03*
X39000Y-53000D03*
X38000Y-53000D03*
X39000Y-43000D03*
X38000Y-43000D03*
X39000Y-41000D03*
X38000Y-41000D03*
X39000Y-39000D03*
X38000Y-39000D03*
X39000Y-37000D03*
X38000Y-37000D03*
X39000Y-51000D03*
X38000Y-51000D03*
X39000Y-49000D03*
X38000Y-49000D03*
X39000Y-47000D03*
X38000Y-47000D03*
X39000Y-45000D03*
X38000Y-45000D03*
X39000Y-35000D03*
X38000Y-35000D03*
X59000Y-36000D03*
X59000Y-37000D03*
X59000Y-28000D03*
X59000Y-29000D03*
X61000Y-32000D03*
X61000Y-31000D03*
X59000Y-32000D03*
X59000Y-33000D03*
X61000Y-36000D03*
X61000Y-35000D03*
X59000Y-44000D03*
X59000Y-45000D03*
X61000Y-48000D03*
X61000Y-47000D03*
X59000Y-48000D03*
X59000Y-49000D03*
X61000Y-52000D03*
X61000Y-51000D03*
X57000Y-59000D03*
X57000Y-58000D03*
X61000Y-40000D03*
X61000Y-39000D03*
X59000Y-40000D03*
X59000Y-41000D03*
X61000Y-44000D03*
X61000Y-43000D03*
X59000Y-52000D03*
X59000Y-53000D03*
X61000Y-56000D03*
X61000Y-55000D03*
X59000Y-56000D03*
X59000Y-57000D03*
X61000Y-60000D03*
X61000Y-59000D03*
X46000Y-59000D03*
X45000Y-59000D03*
X55000Y-57000D03*
X55000Y-58000D03*
X57000Y-55000D03*
X57000Y-54000D03*
X55000Y-53000D03*
X55000Y-54000D03*
X57000Y-43000D03*
X57000Y-42000D03*
X55000Y-41000D03*
X55000Y-42000D03*
X57000Y-39000D03*
X57000Y-38000D03*
X55000Y-37000D03*
X55000Y-38000D03*
X57000Y-51000D03*
X57000Y-50000D03*
X55000Y-49000D03*
X55000Y-50000D03*
X57000Y-47000D03*
X57000Y-46000D03*
X55000Y-45000D03*
X55000Y-46000D03*
X57000Y-35000D03*
X57000Y-34000D03*
X55000Y-33000D03*
X55000Y-34000D03*
X57000Y-31000D03*
X57000Y-30000D03*
X39000Y-29000D03*
X38000Y-29000D03*
X39000Y-31000D03*
X38000Y-31000D03*
X39000Y-33000D03*
X38000Y-33000D03*
G54D14*
X73000Y-50000D03*
G54D15*
X74000Y-50000D03*
X50000Y-39000D03*
X50000Y-38000D03*
X50000Y-31000D03*
X50000Y-30000D03*
X48000Y-33000D03*
X48000Y-34000D03*
X50000Y-35000D03*
X50000Y-34000D03*
X48000Y-45000D03*
X48000Y-46000D03*
X50000Y-47000D03*
X50000Y-46000D03*
X48000Y-49000D03*
X48000Y-50000D03*
X50000Y-51000D03*
X50000Y-50000D03*
X48000Y-37000D03*
X48000Y-38000D03*
X41000Y-57000D03*
X41000Y-58000D03*
X48000Y-41000D03*
X48000Y-42000D03*
X50000Y-43000D03*
X50000Y-42000D03*
X48000Y-53000D03*
X48000Y-54000D03*
X50000Y-55000D03*
X50000Y-54000D03*
X48000Y-57000D03*
X48000Y-58000D03*
X48000Y-29000D03*
X48000Y-30000D03*
X43000Y-59000D03*
X43000Y-58000D03*
X43000Y-31000D03*
X43000Y-30000D03*
X43000Y-55000D03*
X43000Y-54000D03*
X41000Y-53000D03*
X41000Y-54000D03*
X43000Y-43000D03*
X43000Y-42000D03*
X41000Y-41000D03*
X41000Y-42000D03*
X43000Y-39000D03*
X43000Y-38000D03*
X41000Y-37000D03*
X41000Y-38000D03*
X43000Y-51000D03*
X43000Y-50000D03*
X41000Y-49000D03*
X41000Y-50000D03*
X43000Y-47000D03*
X43000Y-46000D03*
X41000Y-45000D03*
X41000Y-46000D03*
X43000Y-35000D03*
X43000Y-34000D03*
X41000Y-33000D03*
X41000Y-34000D03*
X52000Y-57000D03*
X53000Y-57000D03*
X41000Y-29000D03*
X41000Y-30000D03*
X74000Y-43000D03*
X75000Y-43000D03*
X74000Y-42000D03*
X75000Y-42000D03*
X68087Y-34949D03*
X69087Y-34949D03*
X74000Y-54000D03*
X73000Y-54000D03*
X72000Y-52000D03*
X73000Y-52000D03*
X72000Y-38000D03*
X73000Y-38000D03*
X72000Y-56000D03*
X73000Y-56000D03*
X72000Y-36000D03*
X73000Y-36000D03*
X69000Y-50000D03*
X70000Y-50000D03*
X71000Y-39000D03*
X72000Y-39000D03*
X69000Y-52000D03*
X70000Y-52000D03*
X71000Y-37000D03*
X72000Y-37000D03*
X52000Y-59000D03*
X53000Y-59000D03*
X50000Y-59000D03*
X50000Y-58000D03*
X52000Y-55000D03*
X53000Y-55000D03*
X52000Y-53000D03*
X53000Y-53000D03*
X52000Y-43000D03*
X53000Y-43000D03*
X52000Y-41000D03*
X53000Y-41000D03*
X52000Y-39000D03*
X53000Y-39000D03*
X52000Y-37000D03*
X53000Y-37000D03*
X52000Y-51000D03*
X53000Y-51000D03*
X52000Y-49000D03*
X53000Y-49000D03*
X52000Y-47000D03*
X53000Y-47000D03*
X52000Y-45000D03*
X53000Y-45000D03*
X52000Y-35000D03*
X53000Y-35000D03*
X52000Y-33000D03*
X53000Y-33000D03*
X52000Y-31000D03*
X53000Y-31000D03*
X52000Y-29000D03*
X53000Y-29000D03*
G54D17*
X78000Y-59000D03*
X35500Y-59000D03*
X35500Y-29000D03*
X78063Y-29051D03*
G54D18*
X69330Y-48662D03*
X71115Y-49530D03*
X72350Y-48000D03*
X70625Y-40479D03*
X70569Y-39933D03*
X72200Y-42376D03*
X72745Y-41466D03*
X74600Y-48350D03*
X72228Y-45189D03*
X73350Y-47100D03*
X75811Y-42866D03*
X76756Y-43811D03*
X74400Y-41000D03*
X73600Y-41000D03*
X74800Y-34900D03*
X76866Y-34890D03*
X77000Y-32750D03*
X74835Y-32752D03*
X69960Y-35520D03*
X69290Y-36190D03*
X74750Y-33750D03*
X77000Y-33750D03*
X75600Y-44650D03*
X76300Y-44650D03*
G54D19*
X76364Y-38372D02*
X74000Y-40736D01*
X74000Y-42000D02*
X74000Y-40736D01*
X76364Y-32261D02*
X77594Y-31031D01*
X74000Y-42000D02*
X74000Y-43000D01*
G54D20*
X72871Y-43831D02*
X73169Y-43831D01*
X73169Y-43831D02*
X74000Y-43000D01*
X71776Y-42996D02*
X71776Y-42335D01*
X71776Y-42335D02*
X72068Y-42043D01*
X72068Y-42043D02*
X73043Y-42043D01*
X73043Y-42043D02*
X74000Y-43000D01*
G54D19*
X76364Y-38372D02*
X76364Y-32261D01*
X59000Y-56000D02*
X58997Y-55997D01*
G54D20*
X70004Y-44649D02*
X70004Y-43813D01*
G54D19*
X61000Y-56000D02*
X59000Y-56000D01*
G54D20*
X70595Y-43986D02*
X70595Y-43988D01*
X70595Y-42996D02*
X70595Y-43986D01*
X69414Y-45453D02*
X69414Y-47682D01*
G54D19*
X61000Y-52000D02*
X59000Y-52000D01*
X59000Y-52000D02*
X58987Y-51987D01*
X61000Y-40000D02*
X59000Y-40000D01*
X61000Y-36000D02*
X59000Y-36000D01*
X59000Y-36000D02*
X58963Y-36037D01*
X59000Y-32000D02*
X61000Y-32000D01*
G54D20*
X70007Y-43810D02*
X70007Y-42996D01*
X70004Y-43813D02*
X70007Y-43810D01*
X70004Y-45194D02*
X70004Y-44649D01*
X70004Y-47682D02*
X70004Y-45194D01*
X70595Y-44272D02*
X69414Y-45453D01*
G54D19*
X72157Y-35157D02*
X73000Y-36000D01*
G54D20*
X70595Y-43986D02*
X70595Y-44058D01*
X70595Y-44058D02*
X70595Y-44272D01*
X69808Y-45390D02*
X70004Y-45194D01*
X69808Y-47682D02*
X69808Y-45426D01*
X69808Y-45426D02*
X69808Y-45390D01*
X70595Y-42996D02*
X70595Y-41118D01*
X69414Y-49586D02*
X69000Y-50000D01*
X69808Y-49192D02*
X69000Y-50000D01*
X69808Y-47682D02*
X69808Y-49192D01*
X70004Y-48996D02*
X69000Y-50000D01*
X70004Y-47682D02*
X70004Y-48996D01*
X70007Y-39993D02*
X71000Y-39000D01*
X70007Y-42996D02*
X70007Y-39993D01*
X70595Y-39405D02*
X71000Y-39000D01*
X70595Y-41118D02*
X71000Y-40713D01*
X71000Y-40713D02*
X71000Y-39000D01*
G54D19*
X59000Y-28000D02*
X72492Y-28000D01*
G54D20*
X69000Y-48516D02*
X69000Y-50000D01*
X69414Y-48102D02*
X69000Y-48516D01*
X69414Y-47682D02*
X69414Y-48102D01*
G54D19*
X73000Y-38000D02*
X73000Y-36000D01*
X71000Y-39000D02*
X71000Y-37000D01*
X73000Y-39127D02*
X70830Y-41297D01*
X71350Y-35157D02*
X72157Y-35157D01*
X71000Y-35507D02*
X71350Y-35157D01*
X71000Y-37000D02*
X71000Y-35507D01*
X69000Y-50000D02*
X69000Y-52000D01*
X73000Y-36000D02*
X74288Y-36000D01*
X56569Y-48000D02*
X56232Y-48337D01*
X59000Y-48000D02*
X56569Y-48000D01*
X56494Y-44000D02*
X56144Y-44350D01*
X59000Y-44000D02*
X56494Y-44000D01*
X56311Y-40000D02*
X56144Y-40167D01*
X59000Y-40000D02*
X56311Y-40000D01*
X56462Y-36000D02*
X56144Y-36318D01*
X59000Y-36000D02*
X56462Y-36000D01*
X56526Y-32000D02*
X56144Y-32382D01*
X59000Y-32000D02*
X56526Y-32000D01*
X75230Y-35058D02*
X74288Y-36000D01*
X59000Y-52000D02*
X56634Y-52000D01*
X75230Y-31395D02*
X75594Y-31031D01*
X75230Y-35058D02*
X75230Y-31395D01*
X74983Y-36041D02*
X75594Y-35430D01*
X75594Y-35430D02*
X75594Y-31031D01*
G54D20*
X70989Y-42996D02*
X70989Y-41618D01*
X70989Y-41618D02*
X71020Y-41587D01*
G54D19*
X74983Y-37625D02*
X71020Y-41587D01*
X74983Y-37625D02*
X74983Y-36041D01*
X75523Y-31031D02*
X72492Y-28000D01*
X75594Y-31031D02*
X75523Y-31031D01*
X56144Y-52490D02*
X56144Y-56515D01*
X59000Y-48000D02*
X58997Y-47997D01*
X61000Y-48000D02*
X59000Y-48000D01*
X61000Y-44000D02*
X59000Y-44000D01*
G54D20*
X70792Y-41335D02*
X70830Y-41297D01*
G54D19*
X73000Y-39127D02*
X73000Y-38000D01*
G54D20*
X70792Y-42996D02*
X70792Y-41335D01*
G54D19*
X56144Y-59862D02*
X56282Y-60000D01*
X56144Y-56515D02*
X56144Y-59862D01*
X56282Y-60000D02*
X61000Y-60000D01*
X61000Y-60000D02*
X69000Y-52000D01*
X56144Y-44350D02*
X56144Y-52490D01*
X56144Y-40167D02*
X56144Y-44350D01*
X56144Y-36318D02*
X56144Y-40167D01*
X56144Y-32382D02*
X56144Y-36318D01*
X57140Y-28000D02*
X56144Y-28996D01*
X56144Y-28996D02*
X56144Y-32382D01*
X59000Y-28000D02*
X57140Y-28000D01*
X56659Y-56000D02*
X56144Y-56515D01*
X59000Y-56000D02*
X56659Y-56000D01*
X56634Y-52000D02*
X56144Y-52490D01*
G54D20*
X69611Y-47682D02*
X69611Y-48381D01*
X69611Y-48381D02*
X69330Y-48662D01*
X70595Y-49010D02*
X71115Y-49530D01*
X70595Y-47682D02*
X70595Y-49010D01*
G54D19*
X75990Y-37036D02*
X71230Y-41796D01*
G54D20*
X71185Y-41841D02*
X71230Y-41796D01*
X71185Y-42996D02*
X71185Y-41841D01*
G54D19*
X75990Y-31635D02*
X76594Y-31031D01*
X75990Y-37036D02*
X75990Y-31635D01*
G54D20*
X70398Y-42996D02*
X70398Y-40706D01*
X72032Y-47682D02*
X72350Y-48000D01*
X71973Y-47682D02*
X72032Y-47682D01*
X70398Y-40706D02*
X70625Y-40479D01*
X70201Y-49799D02*
X70000Y-50000D01*
X70201Y-47682D02*
X70201Y-49799D01*
X70201Y-40301D02*
X70569Y-39933D01*
X70201Y-42996D02*
X70201Y-40301D01*
X71973Y-42603D02*
X72200Y-42376D01*
X71973Y-42996D02*
X71973Y-42603D01*
X71579Y-42989D02*
X71579Y-42227D01*
X72340Y-41466D02*
X72745Y-41466D01*
X71579Y-42227D02*
X72340Y-41466D01*
X72248Y-45209D02*
X72228Y-45189D01*
X72871Y-45209D02*
X72248Y-45209D01*
X71776Y-48026D02*
X72100Y-48350D01*
X72100Y-48350D02*
X74600Y-48350D01*
X71776Y-48026D02*
X71776Y-47682D01*
X73034Y-46784D02*
X73350Y-47100D01*
X73034Y-46784D02*
X72871Y-46784D01*
X41000Y-49000D02*
X45000Y-49000D01*
X39000Y-49000D02*
X41000Y-49000D01*
X48000Y-49000D02*
X52000Y-49000D01*
X46000Y-49000D02*
X48000Y-49000D01*
X59000Y-49000D02*
X62350Y-49000D01*
X62350Y-49000D02*
X62370Y-49020D01*
X62279Y-49000D02*
X62370Y-49000D01*
X62370Y-49020D02*
X62370Y-49000D01*
X62279Y-49000D02*
X62295Y-49016D01*
X63689Y-49000D02*
X62370Y-49000D01*
X53000Y-49000D02*
X55000Y-49000D01*
X66889Y-45800D02*
X63689Y-49000D01*
X68185Y-45800D02*
X66889Y-45800D01*
X35000Y-54500D02*
X35500Y-54500D01*
X35500Y-54500D02*
X38000Y-57000D01*
X35000Y-51500D02*
X37500Y-51500D01*
X37500Y-51500D02*
X38000Y-51000D01*
X35000Y-49500D02*
X35500Y-49500D01*
X35500Y-49500D02*
X38000Y-47000D01*
X62150Y-47000D02*
X62989Y-46161D01*
X66032Y-46161D02*
X66036Y-46161D01*
X62989Y-46161D02*
X66032Y-46161D01*
X61000Y-47000D02*
X62150Y-47000D01*
X66590Y-45603D02*
X66032Y-46161D01*
X68185Y-45603D02*
X66590Y-45603D01*
X57000Y-47000D02*
X61000Y-47000D01*
X43000Y-47000D02*
X45000Y-47000D01*
X39000Y-47000D02*
X43000Y-47000D01*
X50000Y-47000D02*
X52000Y-47000D01*
X46000Y-47000D02*
X50000Y-47000D01*
X50000Y-47000D02*
X50102Y-47102D01*
X35000Y-53500D02*
X36500Y-53500D01*
X36500Y-53500D02*
X38000Y-55000D01*
X35000Y-55500D02*
X35000Y-56000D01*
X35000Y-56000D02*
X38000Y-59000D01*
X46000Y-57000D02*
X48000Y-57000D01*
X48000Y-57000D02*
X52000Y-57000D01*
X72871Y-45603D02*
X75603Y-45603D01*
X75603Y-45603D02*
X78500Y-48500D01*
X72871Y-45406D02*
X76406Y-45406D01*
X76406Y-45406D02*
X78500Y-47500D01*
X74709Y-44028D02*
X74722Y-44028D01*
X74600Y-44028D02*
X74623Y-44028D01*
X72871Y-44028D02*
X74600Y-44028D01*
X74600Y-44028D02*
X74709Y-44028D01*
X74709Y-43968D02*
X75811Y-42866D01*
X74709Y-44028D02*
X74709Y-43968D01*
X78445Y-45500D02*
X78500Y-45500D01*
X76756Y-43811D02*
X78445Y-45500D01*
X71382Y-42996D02*
X71382Y-42118D01*
X74900Y-41000D02*
X77400Y-38500D01*
X74400Y-41000D02*
X74900Y-41000D01*
X72500Y-41000D02*
X73600Y-41000D01*
X77400Y-38500D02*
X78500Y-38500D01*
X71382Y-42118D02*
X72500Y-41000D01*
X69810Y-36190D02*
X71100Y-34900D01*
X71100Y-34900D02*
X74800Y-34900D01*
X77906Y-36379D02*
X77906Y-36906D01*
X69810Y-36200D02*
X69810Y-36190D01*
X69810Y-36800D02*
X69810Y-36200D01*
X69810Y-36200D02*
X69810Y-36210D01*
X69810Y-42996D02*
X69810Y-36800D01*
X76866Y-34890D02*
X76871Y-34890D01*
X76866Y-34905D02*
X77244Y-35283D01*
X77244Y-35283D02*
X77244Y-35717D01*
X77244Y-35717D02*
X77906Y-36379D01*
X77906Y-36906D02*
X78500Y-37500D01*
X76866Y-34890D02*
X76866Y-34905D01*
X70398Y-47682D02*
X70398Y-49165D01*
X70398Y-49165D02*
X70614Y-49381D01*
X70614Y-49381D02*
X70614Y-54614D01*
X70614Y-54614D02*
X72000Y-56000D01*
X71185Y-47682D02*
X71185Y-48213D01*
X73240Y-49240D02*
X74000Y-50000D01*
X72212Y-49240D02*
X73240Y-49240D01*
X71185Y-48213D02*
X72212Y-49240D01*
X74341Y-32258D02*
X74835Y-32752D01*
X68087Y-34948D02*
X68087Y-34949D01*
X68750Y-32258D02*
X74341Y-32258D01*
X78500Y-34250D02*
X77000Y-32750D01*
X69220Y-42996D02*
X69220Y-42319D01*
X69220Y-42319D02*
X68087Y-41186D01*
X68087Y-41186D02*
X68087Y-34949D01*
X78500Y-34250D02*
X78500Y-35500D01*
X68106Y-32902D02*
X68750Y-32258D01*
X68087Y-32921D02*
X68106Y-32902D01*
X68087Y-34949D02*
X68087Y-32921D01*
X69087Y-34949D02*
X70059Y-34949D01*
X70059Y-34949D02*
X72106Y-32902D01*
X69613Y-42996D02*
X69613Y-35475D01*
X69613Y-35475D02*
X69087Y-34949D01*
X48000Y-45000D02*
X52000Y-45000D01*
X46000Y-45000D02*
X48000Y-45000D01*
X41000Y-45000D02*
X45000Y-45000D01*
X39000Y-45000D02*
X41000Y-45000D01*
X62010Y-45000D02*
X59000Y-45000D01*
X62010Y-45000D02*
X62989Y-45979D01*
X62989Y-45979D02*
X65937Y-45979D01*
X68185Y-45406D02*
X66510Y-45406D01*
X53000Y-45000D02*
X55000Y-45000D01*
X66510Y-45406D02*
X65937Y-45979D01*
X70792Y-47682D02*
X70792Y-48678D01*
X72000Y-49886D02*
X72000Y-52000D01*
X70792Y-48678D02*
X72000Y-49886D01*
X74697Y-49974D02*
X74697Y-53303D01*
X71579Y-48102D02*
X72060Y-48583D01*
X72060Y-48583D02*
X73306Y-48583D01*
X73306Y-48583D02*
X74697Y-49974D01*
X74697Y-53303D02*
X74000Y-54000D01*
X71579Y-47682D02*
X71579Y-48102D01*
X35000Y-48500D02*
X35000Y-48000D01*
X35000Y-48000D02*
X38000Y-45000D01*
X35000Y-50500D02*
X36500Y-50500D01*
X36500Y-50500D02*
X38000Y-49000D01*
X48000Y-29000D02*
X46000Y-29000D01*
X52000Y-29000D02*
X48000Y-29000D01*
X45000Y-29000D02*
X41000Y-29000D01*
X41000Y-29000D02*
X39000Y-29000D01*
X68185Y-43831D02*
X67642Y-43831D01*
X63245Y-29001D02*
X67221Y-32977D01*
X67221Y-32977D02*
X67221Y-43410D01*
X67642Y-43831D02*
X67221Y-43410D01*
X63245Y-29000D02*
X63245Y-29001D01*
X63043Y-29000D02*
X63245Y-29000D01*
X62949Y-29000D02*
X63043Y-29000D01*
X63043Y-29000D02*
X59000Y-29000D01*
X55000Y-29000D02*
X53000Y-29000D01*
X35000Y-35500D02*
X37500Y-35500D01*
X37500Y-35500D02*
X38000Y-35000D01*
X35000Y-36500D02*
X37500Y-36500D01*
X37500Y-36500D02*
X38000Y-37000D01*
X36500Y-37500D02*
X38000Y-39000D01*
X35000Y-37500D02*
X36500Y-37500D01*
X66232Y-37205D02*
X66232Y-37213D01*
X64012Y-35000D02*
X61000Y-35000D01*
X66225Y-37213D02*
X64012Y-35000D01*
X66232Y-37213D02*
X66225Y-37213D01*
X67347Y-44422D02*
X66232Y-43307D01*
X66232Y-43307D02*
X66232Y-37213D01*
X68185Y-44422D02*
X67347Y-44422D01*
X57000Y-35000D02*
X61000Y-35000D01*
X35000Y-33500D02*
X35500Y-33500D01*
X35500Y-33500D02*
X38000Y-31000D01*
X43000Y-35000D02*
X45000Y-35000D01*
X39000Y-35000D02*
X43000Y-35000D01*
X50000Y-35000D02*
X52000Y-35000D01*
X46000Y-35000D02*
X50000Y-35000D01*
X35000Y-38500D02*
X35500Y-38500D01*
X35500Y-38500D02*
X38000Y-41000D01*
X57000Y-31000D02*
X61000Y-31000D01*
X67035Y-33051D02*
X64984Y-31000D01*
X67035Y-43484D02*
X67035Y-33051D01*
X67579Y-44028D02*
X67035Y-43484D01*
X64984Y-31000D02*
X64662Y-31000D01*
X64662Y-31000D02*
X61000Y-31000D01*
X68185Y-44028D02*
X67579Y-44028D01*
X43000Y-31000D02*
X45000Y-31000D01*
X39000Y-31000D02*
X43000Y-31000D01*
X50000Y-31000D02*
X52000Y-31000D01*
X46000Y-31000D02*
X50000Y-31000D01*
X78500Y-39500D02*
X77771Y-39500D01*
X74936Y-44225D02*
X72871Y-44225D01*
X76315Y-42846D02*
X74936Y-44225D01*
X76315Y-40956D02*
X76315Y-42846D01*
X77771Y-39500D02*
X76315Y-40956D01*
X72871Y-46193D02*
X74193Y-46193D01*
X74193Y-46193D02*
X78500Y-50500D01*
X77551Y-40500D02*
X78500Y-40500D01*
X76615Y-42831D02*
X76615Y-41436D01*
X75024Y-44422D02*
X76615Y-42831D01*
X76615Y-41436D02*
X77551Y-40500D01*
X72871Y-44422D02*
X75024Y-44422D01*
X77680Y-50680D02*
X78500Y-51500D01*
X77680Y-50267D02*
X77680Y-50680D01*
X73803Y-46390D02*
X77680Y-50267D01*
X72871Y-46390D02*
X73803Y-46390D01*
X72871Y-44619D02*
X75172Y-44619D01*
X77661Y-41500D02*
X78500Y-41500D01*
X76930Y-42231D02*
X77661Y-41500D01*
X76930Y-42861D02*
X76930Y-42231D01*
X75172Y-44619D02*
X76930Y-42861D01*
X72871Y-46587D02*
X73300Y-46587D01*
X73300Y-46587D02*
X77340Y-50627D01*
X77340Y-50627D02*
X77340Y-51340D01*
X77340Y-51340D02*
X78500Y-52500D01*
X72871Y-45800D02*
X74800Y-45800D01*
X74800Y-45800D02*
X78500Y-49500D01*
X35000Y-39500D02*
X35000Y-40000D01*
X35000Y-40000D02*
X38000Y-43000D01*
X72871Y-45012D02*
X75714Y-45012D01*
X75935Y-44791D02*
X75935Y-44152D01*
X75714Y-45012D02*
X75935Y-44791D01*
X75935Y-44152D02*
X77587Y-42500D01*
X77587Y-42500D02*
X78500Y-42500D01*
X57000Y-39000D02*
X61000Y-39000D01*
X68185Y-44815D02*
X67150Y-44815D01*
X63885Y-41550D02*
X65248Y-42913D01*
X63885Y-39469D02*
X63885Y-41550D01*
X63416Y-39000D02*
X63885Y-39469D01*
X61000Y-39000D02*
X63416Y-39000D01*
X67150Y-44815D02*
X65248Y-42913D01*
X35000Y-52500D02*
X37500Y-52500D01*
X37500Y-52500D02*
X38000Y-53000D01*
X48000Y-33000D02*
X52000Y-33000D01*
X46000Y-33000D02*
X48000Y-33000D01*
X39000Y-33000D02*
X41000Y-33000D01*
X41000Y-33000D02*
X45000Y-33000D01*
X53000Y-41000D02*
X55000Y-41000D01*
X68185Y-45012D02*
X66719Y-45012D01*
X66719Y-45012D02*
X66195Y-44488D01*
X59777Y-41000D02*
X59000Y-41000D01*
X59777Y-41000D02*
X63265Y-44488D01*
X63265Y-44488D02*
X66195Y-44488D01*
X48000Y-41000D02*
X52000Y-41000D01*
X46000Y-41000D02*
X48000Y-41000D01*
X60576Y-33000D02*
X59000Y-33000D01*
X66414Y-37129D02*
X66414Y-43194D01*
X60576Y-33000D02*
X62320Y-34744D01*
X62320Y-34744D02*
X64029Y-34744D01*
X64029Y-34744D02*
X66414Y-37129D01*
X67445Y-44225D02*
X66414Y-43194D01*
X68185Y-44225D02*
X67445Y-44225D01*
X53000Y-33000D02*
X55000Y-33000D01*
X35000Y-34500D02*
X36500Y-34500D01*
X36500Y-34500D02*
X38000Y-33000D01*
X38000Y-29000D02*
X38000Y-29500D01*
X38000Y-29500D02*
X35000Y-32500D01*
X50000Y-39000D02*
X52000Y-39000D01*
X46000Y-39000D02*
X50000Y-39000D01*
X43000Y-39000D02*
X45000Y-39000D01*
X39000Y-39000D02*
X43000Y-39000D01*
X67249Y-44619D02*
X65445Y-42815D01*
X59000Y-37000D02*
X61696Y-37000D01*
X61696Y-37000D02*
X61740Y-37044D01*
X61696Y-37000D02*
X61740Y-37044D01*
X61740Y-37044D02*
X61740Y-37063D01*
X61740Y-37063D02*
X61740Y-37044D01*
X64067Y-39371D02*
X61740Y-37044D01*
X53000Y-37000D02*
X55000Y-37000D01*
X68185Y-44619D02*
X67249Y-44619D01*
X64067Y-39371D02*
X64067Y-41437D01*
X64067Y-41437D02*
X65445Y-42815D01*
X48000Y-37000D02*
X52000Y-37000D01*
X46000Y-37000D02*
X48000Y-37000D01*
X45000Y-37000D02*
X41000Y-37000D01*
X39000Y-37000D02*
X41000Y-37000D01*
X41000Y-41000D02*
X45000Y-41000D01*
X39000Y-41000D02*
X41000Y-41000D01*
X50000Y-43000D02*
X52000Y-43000D01*
X46000Y-43000D02*
X50000Y-43000D01*
X43000Y-43000D02*
X45000Y-43000D01*
X39000Y-43000D02*
X43000Y-43000D01*
X57000Y-43000D02*
X61000Y-43000D01*
X68185Y-45209D02*
X66508Y-45209D01*
X66508Y-45209D02*
X65984Y-44685D01*
X65984Y-44685D02*
X63182Y-44685D01*
X61497Y-43000D02*
X61000Y-43000D01*
X61497Y-43000D02*
X63182Y-44685D01*
X68850Y-41039D02*
X68850Y-37000D01*
X69416Y-42996D02*
X69416Y-41605D01*
X68850Y-37000D02*
X68850Y-36630D01*
X69416Y-41605D02*
X68850Y-41039D01*
X78500Y-36492D02*
X77567Y-35559D01*
X68850Y-36630D02*
X69290Y-36190D01*
X69960Y-35520D02*
X69970Y-35520D01*
X71730Y-33750D02*
X69960Y-35520D01*
X78500Y-36500D02*
X78500Y-36492D01*
X77567Y-34630D02*
X77000Y-33750D01*
X77567Y-35559D02*
X77567Y-34630D01*
X74750Y-33750D02*
X71730Y-33750D01*
X78100Y-46500D02*
X78500Y-46500D01*
X76750Y-44650D02*
X77750Y-45650D01*
X75435Y-44815D02*
X75600Y-44650D01*
X72871Y-44815D02*
X75150Y-44815D01*
X75150Y-44815D02*
X75435Y-44815D01*
X77750Y-45750D02*
X77750Y-46150D01*
X77750Y-45650D02*
X77750Y-45750D01*
X76300Y-44650D02*
X76750Y-44650D01*
X77750Y-46150D02*
X78100Y-46500D01*
X41000Y-57000D02*
X45000Y-57000D01*
X39000Y-57000D02*
X41000Y-57000D01*
X67133Y-47146D02*
X67133Y-46934D01*
X67133Y-46909D02*
X67455Y-46587D01*
X67455Y-46587D02*
X68185Y-46587D01*
X63909Y-54921D02*
X67133Y-51697D01*
X67133Y-51697D02*
X67133Y-47146D01*
X61879Y-56912D02*
X63870Y-54921D01*
X61791Y-57000D02*
X61879Y-56912D01*
X63870Y-54921D02*
X63909Y-54921D01*
X53000Y-57000D02*
X55000Y-57000D01*
X59000Y-57000D02*
X61829Y-57000D01*
X61829Y-57000D02*
X61879Y-56950D01*
X61879Y-56950D02*
X61879Y-56912D01*
X67133Y-46934D02*
X67133Y-46909D01*
X64165Y-54921D02*
X64166Y-54921D01*
X67315Y-47147D02*
X67315Y-47146D01*
X67315Y-46987D02*
X67518Y-46784D01*
X67518Y-46784D02*
X68185Y-46784D01*
X67315Y-47147D02*
X67315Y-46987D01*
X61000Y-58086D02*
X64165Y-54921D01*
X67315Y-51772D02*
X67315Y-47147D01*
X64166Y-54921D02*
X67315Y-51772D01*
X61000Y-59000D02*
X61000Y-58086D01*
X57000Y-59000D02*
X61000Y-59000D01*
X50000Y-59000D02*
X52000Y-59000D01*
X46000Y-59000D02*
X50000Y-59000D01*
X43000Y-59000D02*
X45000Y-59000D01*
X39000Y-59000D02*
X43000Y-59000D01*
X48000Y-53000D02*
X52000Y-53000D01*
X46000Y-53000D02*
X48000Y-53000D01*
X53000Y-53000D02*
X55000Y-53000D01*
X66232Y-47244D02*
X66232Y-47217D01*
X66232Y-47217D02*
X67256Y-46193D01*
X67256Y-46193D02*
X68185Y-46193D01*
X59000Y-53000D02*
X61952Y-53000D01*
X66232Y-48720D02*
X66232Y-47539D01*
X61952Y-53000D02*
X66232Y-48720D01*
X66232Y-47539D02*
X66232Y-47244D01*
X61012Y-54988D02*
X61000Y-55000D01*
X61000Y-54248D02*
X61012Y-54236D01*
X61012Y-54236D02*
X61012Y-54988D01*
X66429Y-47287D02*
X67326Y-46390D01*
X66429Y-48819D02*
X66429Y-47299D01*
X68185Y-46390D02*
X67326Y-46390D01*
X66429Y-47299D02*
X66429Y-47287D01*
X57000Y-55000D02*
X61000Y-55000D01*
X66429Y-48819D02*
X61012Y-54236D01*
X41000Y-53000D02*
X45000Y-53000D01*
X39000Y-53000D02*
X41000Y-53000D01*
X50000Y-55000D02*
X52000Y-55000D01*
X46000Y-55000D02*
X50000Y-55000D01*
X39000Y-55000D02*
X43000Y-55000D01*
X43000Y-55000D02*
X45000Y-55000D01*
X57000Y-51000D02*
X61000Y-51000D01*
X68185Y-45996D02*
X66989Y-45996D01*
X66989Y-45996D02*
X63772Y-49213D01*
X62787Y-49213D02*
X61000Y-51000D01*
X62787Y-49213D02*
X63772Y-49213D01*
X50000Y-51000D02*
X52000Y-51000D01*
X46000Y-51000D02*
X50000Y-51000D01*
X43000Y-51000D02*
X45000Y-51000D01*
X39000Y-51000D02*
X43000Y-51000D01*
G54D10*
G36*
X70600Y-46679D02*
X70151Y-47128D01*
X70143Y-47128D01*
X70097Y-47146D01*
X70074Y-47140D01*
X70054Y-47164D01*
X70035Y-47172D01*
X70005Y-47201D01*
X69967Y-47166D01*
X69951Y-47161D01*
X69934Y-47140D01*
X69906Y-47148D01*
X69878Y-47140D01*
X69860Y-47161D01*
X69845Y-47166D01*
X69805Y-47201D01*
X69777Y-47173D01*
X69758Y-47165D01*
X69738Y-47140D01*
X69714Y-47146D01*
X69670Y-47128D01*
X69553Y-47128D01*
X69507Y-47146D01*
X69484Y-47140D01*
X69464Y-47164D01*
X69445Y-47172D01*
X69413Y-47203D01*
X69383Y-47173D01*
X69364Y-47165D01*
X69344Y-47140D01*
X69320Y-47146D01*
X69276Y-47128D01*
X69159Y-47128D01*
X69118Y-47144D01*
X69079Y-47128D01*
X68962Y-47128D01*
X68854Y-47172D01*
X68772Y-47255D01*
X68727Y-47362D01*
X68727Y-47479D01*
X68727Y-48001D01*
X68771Y-48109D01*
X68854Y-48191D01*
X68961Y-48236D01*
X69078Y-48236D01*
X69118Y-48219D01*
X69158Y-48236D01*
X69275Y-48236D01*
X69314Y-48219D01*
X69314Y-48232D01*
X69321Y-48232D01*
X69321Y-48237D01*
X69246Y-48237D01*
X69090Y-48301D01*
X68970Y-48421D01*
X68905Y-48577D01*
X68905Y-48746D01*
X68969Y-48902D01*
X69089Y-49022D01*
X69245Y-49087D01*
X69414Y-49087D01*
X69570Y-49023D01*
X69690Y-48903D01*
X69755Y-48747D01*
X69755Y-48647D01*
X69816Y-48586D01*
X69879Y-48492D01*
X69901Y-48381D01*
X69901Y-48232D01*
X69904Y-48232D01*
X69908Y-48232D01*
X69911Y-48232D01*
X69911Y-49118D01*
X69450Y-49579D01*
X69450Y-49732D01*
X69361Y-49710D01*
X69290Y-49781D01*
X69290Y-49639D01*
X69267Y-49548D01*
X69074Y-49481D01*
X68870Y-49492D01*
X68733Y-49548D01*
X68710Y-49639D01*
X69000Y-49929D01*
X69290Y-49639D01*
X69290Y-49781D01*
X69071Y-50000D01*
X69361Y-50290D01*
X69450Y-50267D01*
X69450Y-50400D01*
X69280Y-50400D01*
X69290Y-50361D01*
X69000Y-50071D01*
X68710Y-50361D01*
X68719Y-50400D01*
X68550Y-50400D01*
X68550Y-50267D01*
X68639Y-50290D01*
X68929Y-50000D01*
X68639Y-49710D01*
X68550Y-49732D01*
X68550Y-47271D01*
X69150Y-46671D01*
X69150Y-43545D01*
X69161Y-43550D01*
X69278Y-43550D01*
X69318Y-43533D01*
X69357Y-43550D01*
X69474Y-43550D01*
X69514Y-43533D01*
X69554Y-43550D01*
X69671Y-43550D01*
X69711Y-43533D01*
X69751Y-43550D01*
X69868Y-43550D01*
X69913Y-43531D01*
X69937Y-43538D01*
X69956Y-43513D01*
X69976Y-43506D01*
X70005Y-43475D01*
X70035Y-43505D01*
X70057Y-43514D01*
X70077Y-43538D01*
X70098Y-43531D01*
X70142Y-43550D01*
X70259Y-43550D01*
X70299Y-43533D01*
X70339Y-43550D01*
X70456Y-43550D01*
X70501Y-43531D01*
X70525Y-43538D01*
X70544Y-43513D01*
X70564Y-43506D01*
X70593Y-43476D01*
X70600Y-43481D01*
X70600Y-46679D01*
X70600Y-46679D01*
G37*
G54D21*
X70600Y-46679D02*
X70151Y-47128D01*
X70143Y-47128D01*
X70097Y-47146D01*
X70074Y-47140D01*
X70054Y-47164D01*
X70035Y-47172D01*
X70005Y-47201D01*
X69967Y-47166D01*
X69951Y-47161D01*
X69934Y-47140D01*
X69906Y-47148D01*
X69878Y-47140D01*
X69860Y-47161D01*
X69845Y-47166D01*
X69805Y-47201D01*
X69777Y-47173D01*
X69758Y-47165D01*
X69738Y-47140D01*
X69714Y-47146D01*
X69670Y-47128D01*
X69553Y-47128D01*
X69507Y-47146D01*
X69484Y-47140D01*
X69464Y-47164D01*
X69445Y-47172D01*
X69413Y-47203D01*
X69383Y-47173D01*
X69364Y-47165D01*
X69344Y-47140D01*
X69320Y-47146D01*
X69276Y-47128D01*
X69159Y-47128D01*
X69118Y-47144D01*
X69079Y-47128D01*
X68962Y-47128D01*
X68854Y-47172D01*
X68772Y-47255D01*
X68727Y-47362D01*
X68727Y-47479D01*
X68727Y-48001D01*
X68771Y-48109D01*
X68854Y-48191D01*
X68961Y-48236D01*
X69078Y-48236D01*
X69118Y-48219D01*
X69158Y-48236D01*
X69275Y-48236D01*
X69314Y-48219D01*
X69314Y-48232D01*
X69321Y-48232D01*
X69321Y-48237D01*
X69246Y-48237D01*
X69090Y-48301D01*
X68970Y-48421D01*
X68905Y-48577D01*
X68905Y-48746D01*
X68969Y-48902D01*
X69089Y-49022D01*
X69245Y-49087D01*
X69414Y-49087D01*
X69570Y-49023D01*
X69690Y-48903D01*
X69755Y-48747D01*
X69755Y-48647D01*
X69816Y-48586D01*
X69879Y-48492D01*
X69901Y-48381D01*
X69901Y-48232D01*
X69904Y-48232D01*
X69908Y-48232D01*
X69911Y-48232D01*
X69911Y-49118D01*
X69450Y-49579D01*
X69450Y-49732D01*
X69361Y-49710D01*
X69290Y-49781D01*
X69290Y-49639D01*
X69267Y-49548D01*
X69074Y-49481D01*
X68870Y-49492D01*
X68733Y-49548D01*
X68710Y-49639D01*
X69000Y-49929D01*
X69290Y-49639D01*
X69290Y-49781D01*
X69071Y-50000D01*
X69361Y-50290D01*
X69450Y-50267D01*
X69450Y-50400D01*
X69280Y-50400D01*
X69290Y-50361D01*
X69000Y-50071D01*
X68710Y-50361D01*
X68719Y-50400D01*
X68550Y-50400D01*
X68550Y-50267D01*
X68639Y-50290D01*
X68929Y-50000D01*
X68639Y-49710D01*
X68550Y-49732D01*
X68550Y-47271D01*
X69150Y-46671D01*
X69150Y-43545D01*
X69161Y-43550D01*
X69278Y-43550D01*
X69318Y-43533D01*
X69357Y-43550D01*
X69474Y-43550D01*
X69514Y-43533D01*
X69554Y-43550D01*
X69671Y-43550D01*
X69711Y-43533D01*
X69751Y-43550D01*
X69868Y-43550D01*
X69913Y-43531D01*
X69937Y-43538D01*
X69956Y-43513D01*
X69976Y-43506D01*
X70005Y-43475D01*
X70035Y-43505D01*
X70057Y-43514D01*
X70077Y-43538D01*
X70098Y-43531D01*
X70142Y-43550D01*
X70259Y-43550D01*
X70299Y-43533D01*
X70339Y-43550D01*
X70456Y-43550D01*
X70501Y-43531D01*
X70525Y-43538D01*
X70544Y-43513D01*
X70564Y-43506D01*
X70593Y-43476D01*
X70600Y-43481D01*
X70600Y-46679D01*
G54D10*
G36*
X76200Y-30682D02*
X76149Y-30733D01*
X76118Y-30805D01*
X76118Y-30706D01*
X76080Y-30615D01*
X76010Y-30545D01*
X75918Y-30507D01*
X75706Y-30506D01*
X75644Y-30568D01*
X75644Y-30931D01*
X75644Y-30981D01*
X75644Y-31081D01*
X75644Y-31131D01*
X75644Y-31494D01*
X75680Y-31530D01*
X75660Y-31635D01*
X75660Y-31700D01*
X75544Y-31700D01*
X75544Y-31494D01*
X75544Y-31081D01*
X75544Y-30981D01*
X75544Y-30568D01*
X75482Y-30506D01*
X75270Y-30507D01*
X75178Y-30545D01*
X75108Y-30615D01*
X75070Y-30706D01*
X75070Y-30805D01*
X75069Y-30919D01*
X75131Y-30981D01*
X75544Y-30981D01*
X75544Y-31081D01*
X75131Y-31081D01*
X75069Y-31143D01*
X75070Y-31257D01*
X75070Y-31356D01*
X75108Y-31447D01*
X75178Y-31517D01*
X75270Y-31555D01*
X75482Y-31556D01*
X75544Y-31494D01*
X75544Y-31700D01*
X66354Y-31700D01*
X63452Y-28798D01*
X63450Y-28796D01*
X63450Y-28795D01*
X63356Y-28732D01*
X63245Y-28710D01*
X63043Y-28710D01*
X62949Y-28710D01*
X59519Y-28710D01*
X59519Y-28074D01*
X59508Y-27870D01*
X59452Y-27733D01*
X59361Y-27710D01*
X59290Y-27781D01*
X59290Y-27639D01*
X59267Y-27548D01*
X59074Y-27481D01*
X58870Y-27492D01*
X58733Y-27548D01*
X58710Y-27639D01*
X59000Y-27929D01*
X59290Y-27639D01*
X59290Y-27781D01*
X59071Y-28000D01*
X59361Y-28290D01*
X59452Y-28267D01*
X59519Y-28074D01*
X59519Y-28710D01*
X59447Y-28710D01*
X59445Y-28703D01*
X59298Y-28555D01*
X59157Y-28496D01*
X59267Y-28452D01*
X59290Y-28361D01*
X59000Y-28071D01*
X58929Y-28142D01*
X58929Y-28000D01*
X58639Y-27710D01*
X58548Y-27733D01*
X58481Y-27926D01*
X58492Y-28130D01*
X58548Y-28267D01*
X58639Y-28290D01*
X58929Y-28000D01*
X58929Y-28142D01*
X58710Y-28361D01*
X58733Y-28452D01*
X58851Y-28493D01*
X58703Y-28555D01*
X58555Y-28702D01*
X58475Y-28895D01*
X58475Y-29104D01*
X58555Y-29297D01*
X58702Y-29445D01*
X58895Y-29525D01*
X59104Y-29525D01*
X59297Y-29445D01*
X59445Y-29298D01*
X59448Y-29290D01*
X62949Y-29290D01*
X63043Y-29290D01*
X63124Y-29290D01*
X64544Y-30710D01*
X61447Y-30710D01*
X61445Y-30703D01*
X61298Y-30555D01*
X61105Y-30475D01*
X60896Y-30475D01*
X60703Y-30555D01*
X60555Y-30702D01*
X60551Y-30710D01*
X57447Y-30710D01*
X57445Y-30703D01*
X57298Y-30555D01*
X57164Y-30499D01*
X57297Y-30445D01*
X57445Y-30298D01*
X57525Y-30105D01*
X57525Y-29896D01*
X57445Y-29703D01*
X57298Y-29555D01*
X57105Y-29475D01*
X56896Y-29475D01*
X56703Y-29555D01*
X56555Y-29702D01*
X56475Y-29895D01*
X56475Y-30104D01*
X56555Y-30297D01*
X56702Y-30445D01*
X56835Y-30500D01*
X56703Y-30555D01*
X56555Y-30702D01*
X56475Y-30895D01*
X56475Y-31104D01*
X56555Y-31297D01*
X56702Y-31445D01*
X56895Y-31525D01*
X57104Y-31525D01*
X57297Y-31445D01*
X57445Y-31298D01*
X57448Y-31290D01*
X60552Y-31290D01*
X60555Y-31297D01*
X60702Y-31445D01*
X60842Y-31503D01*
X60733Y-31548D01*
X60710Y-31639D01*
X61000Y-31929D01*
X61290Y-31639D01*
X61267Y-31548D01*
X61148Y-31506D01*
X61297Y-31445D01*
X61445Y-31298D01*
X61448Y-31290D01*
X64662Y-31290D01*
X64864Y-31290D01*
X65274Y-31700D01*
X62950Y-31700D01*
X62950Y-34454D01*
X62440Y-34454D01*
X61519Y-33533D01*
X61519Y-32074D01*
X61508Y-31870D01*
X61452Y-31733D01*
X61361Y-31710D01*
X61071Y-32000D01*
X61361Y-32290D01*
X61452Y-32267D01*
X61519Y-32074D01*
X61519Y-33533D01*
X61290Y-33304D01*
X61290Y-32361D01*
X61000Y-32071D01*
X60929Y-32142D01*
X60929Y-32000D01*
X60639Y-31710D01*
X60548Y-31733D01*
X60481Y-31926D01*
X60492Y-32130D01*
X60548Y-32267D01*
X60639Y-32290D01*
X60929Y-32000D01*
X60929Y-32142D01*
X60710Y-32361D01*
X60733Y-32452D01*
X60926Y-32519D01*
X61130Y-32508D01*
X61267Y-32452D01*
X61290Y-32361D01*
X61290Y-33304D01*
X60781Y-32795D01*
X60687Y-32732D01*
X60576Y-32710D01*
X59519Y-32710D01*
X59519Y-32074D01*
X59508Y-31870D01*
X59452Y-31733D01*
X59361Y-31710D01*
X59290Y-31781D01*
X59290Y-31639D01*
X59267Y-31548D01*
X59074Y-31481D01*
X58870Y-31492D01*
X58733Y-31548D01*
X58710Y-31639D01*
X59000Y-31929D01*
X59290Y-31639D01*
X59290Y-31781D01*
X59071Y-32000D01*
X59361Y-32290D01*
X59452Y-32267D01*
X59519Y-32074D01*
X59519Y-32710D01*
X59447Y-32710D01*
X59445Y-32703D01*
X59298Y-32555D01*
X59157Y-32496D01*
X59267Y-32452D01*
X59290Y-32361D01*
X59000Y-32071D01*
X58929Y-32142D01*
X58929Y-32000D01*
X58639Y-31710D01*
X58548Y-31733D01*
X58481Y-31926D01*
X58492Y-32130D01*
X58548Y-32267D01*
X58639Y-32290D01*
X58929Y-32000D01*
X58929Y-32142D01*
X58710Y-32361D01*
X58733Y-32452D01*
X58851Y-32493D01*
X58703Y-32555D01*
X58555Y-32702D01*
X58475Y-32895D01*
X58475Y-33104D01*
X58555Y-33297D01*
X58702Y-33445D01*
X58895Y-33525D01*
X59104Y-33525D01*
X59297Y-33445D01*
X59445Y-33298D01*
X59448Y-33290D01*
X60456Y-33290D01*
X61876Y-34710D01*
X61447Y-34710D01*
X61445Y-34703D01*
X61298Y-34555D01*
X61105Y-34475D01*
X60896Y-34475D01*
X60703Y-34555D01*
X60555Y-34702D01*
X60551Y-34710D01*
X57447Y-34710D01*
X57445Y-34703D01*
X57298Y-34555D01*
X57164Y-34499D01*
X57297Y-34445D01*
X57445Y-34298D01*
X57525Y-34105D01*
X57525Y-33896D01*
X57445Y-33703D01*
X57298Y-33555D01*
X57105Y-33475D01*
X56896Y-33475D01*
X56703Y-33555D01*
X56555Y-33702D01*
X56475Y-33895D01*
X56475Y-34104D01*
X56555Y-34297D01*
X56702Y-34445D01*
X56835Y-34500D01*
X56703Y-34555D01*
X56555Y-34702D01*
X56475Y-34895D01*
X56475Y-35104D01*
X56555Y-35297D01*
X56702Y-35445D01*
X56895Y-35525D01*
X57104Y-35525D01*
X57297Y-35445D01*
X57445Y-35298D01*
X57448Y-35290D01*
X60552Y-35290D01*
X60555Y-35297D01*
X60702Y-35445D01*
X60842Y-35503D01*
X60733Y-35548D01*
X60710Y-35639D01*
X61000Y-35929D01*
X61290Y-35639D01*
X61267Y-35548D01*
X61148Y-35506D01*
X61297Y-35445D01*
X61445Y-35298D01*
X61448Y-35290D01*
X62950Y-35290D01*
X62950Y-37844D01*
X61945Y-36839D01*
X61901Y-36795D01*
X61807Y-36732D01*
X61696Y-36710D01*
X61519Y-36710D01*
X61519Y-36074D01*
X61508Y-35870D01*
X61452Y-35733D01*
X61361Y-35710D01*
X61071Y-36000D01*
X61361Y-36290D01*
X61452Y-36267D01*
X61519Y-36074D01*
X61519Y-36710D01*
X61290Y-36710D01*
X61290Y-36361D01*
X61000Y-36071D01*
X60929Y-36142D01*
X60929Y-36000D01*
X60639Y-35710D01*
X60548Y-35733D01*
X60481Y-35926D01*
X60492Y-36130D01*
X60548Y-36267D01*
X60639Y-36290D01*
X60929Y-36000D01*
X60929Y-36142D01*
X60710Y-36361D01*
X60733Y-36452D01*
X60926Y-36519D01*
X61130Y-36508D01*
X61267Y-36452D01*
X61290Y-36361D01*
X61290Y-36710D01*
X59519Y-36710D01*
X59519Y-36074D01*
X59508Y-35870D01*
X59452Y-35733D01*
X59361Y-35710D01*
X59290Y-35781D01*
X59290Y-35639D01*
X59267Y-35548D01*
X59074Y-35481D01*
X58870Y-35492D01*
X58733Y-35548D01*
X58710Y-35639D01*
X59000Y-35929D01*
X59290Y-35639D01*
X59290Y-35781D01*
X59071Y-36000D01*
X59361Y-36290D01*
X59452Y-36267D01*
X59519Y-36074D01*
X59519Y-36710D01*
X59447Y-36710D01*
X59445Y-36703D01*
X59298Y-36555D01*
X59157Y-36496D01*
X59267Y-36452D01*
X59290Y-36361D01*
X59000Y-36071D01*
X58929Y-36142D01*
X58929Y-36000D01*
X58639Y-35710D01*
X58548Y-35733D01*
X58481Y-35926D01*
X58492Y-36130D01*
X58548Y-36267D01*
X58639Y-36290D01*
X58929Y-36000D01*
X58929Y-36142D01*
X58710Y-36361D01*
X58733Y-36452D01*
X58851Y-36493D01*
X58703Y-36555D01*
X58555Y-36702D01*
X58475Y-36895D01*
X58475Y-37104D01*
X58555Y-37297D01*
X58702Y-37445D01*
X58895Y-37525D01*
X59104Y-37525D01*
X59297Y-37445D01*
X59445Y-37298D01*
X59448Y-37290D01*
X61567Y-37290D01*
X61592Y-37306D01*
X62950Y-38664D01*
X62950Y-38710D01*
X61447Y-38710D01*
X61445Y-38703D01*
X61298Y-38555D01*
X61105Y-38475D01*
X60896Y-38475D01*
X60703Y-38555D01*
X60555Y-38702D01*
X60551Y-38710D01*
X57447Y-38710D01*
X57445Y-38703D01*
X57298Y-38555D01*
X57164Y-38499D01*
X57297Y-38445D01*
X57445Y-38298D01*
X57525Y-38105D01*
X57525Y-37896D01*
X57445Y-37703D01*
X57298Y-37555D01*
X57105Y-37475D01*
X56896Y-37475D01*
X56703Y-37555D01*
X56555Y-37702D01*
X56475Y-37895D01*
X56475Y-38104D01*
X56555Y-38297D01*
X56702Y-38445D01*
X56835Y-38500D01*
X56703Y-38555D01*
X56555Y-38702D01*
X56475Y-38895D01*
X56475Y-39104D01*
X56555Y-39297D01*
X56702Y-39445D01*
X56895Y-39525D01*
X57104Y-39525D01*
X57297Y-39445D01*
X57445Y-39298D01*
X57448Y-39290D01*
X60552Y-39290D01*
X60555Y-39297D01*
X60702Y-39445D01*
X60842Y-39503D01*
X60733Y-39548D01*
X60710Y-39639D01*
X61000Y-39929D01*
X61290Y-39639D01*
X61267Y-39548D01*
X61148Y-39506D01*
X61297Y-39445D01*
X61445Y-39298D01*
X61448Y-39290D01*
X62950Y-39290D01*
X62950Y-43762D01*
X61519Y-42331D01*
X61519Y-40074D01*
X61508Y-39870D01*
X61452Y-39733D01*
X61361Y-39710D01*
X61071Y-40000D01*
X61361Y-40290D01*
X61452Y-40267D01*
X61519Y-40074D01*
X61519Y-42331D01*
X61290Y-42102D01*
X61290Y-40361D01*
X61000Y-40071D01*
X60929Y-40142D01*
X60929Y-40000D01*
X60639Y-39710D01*
X60548Y-39733D01*
X60481Y-39926D01*
X60492Y-40130D01*
X60548Y-40267D01*
X60639Y-40290D01*
X60929Y-40000D01*
X60929Y-40142D01*
X60710Y-40361D01*
X60733Y-40452D01*
X60926Y-40519D01*
X61130Y-40508D01*
X61267Y-40452D01*
X61290Y-40361D01*
X61290Y-42102D01*
X59982Y-40795D01*
X59888Y-40732D01*
X59777Y-40710D01*
X59519Y-40710D01*
X59519Y-40074D01*
X59508Y-39870D01*
X59452Y-39733D01*
X59361Y-39710D01*
X59290Y-39781D01*
X59290Y-39639D01*
X59267Y-39548D01*
X59074Y-39481D01*
X58870Y-39492D01*
X58733Y-39548D01*
X58710Y-39639D01*
X59000Y-39929D01*
X59290Y-39639D01*
X59290Y-39781D01*
X59071Y-40000D01*
X59361Y-40290D01*
X59452Y-40267D01*
X59519Y-40074D01*
X59519Y-40710D01*
X59447Y-40710D01*
X59445Y-40703D01*
X59298Y-40555D01*
X59157Y-40496D01*
X59267Y-40452D01*
X59290Y-40361D01*
X59000Y-40071D01*
X58929Y-40142D01*
X58929Y-40000D01*
X58639Y-39710D01*
X58548Y-39733D01*
X58481Y-39926D01*
X58492Y-40130D01*
X58548Y-40267D01*
X58639Y-40290D01*
X58929Y-40000D01*
X58929Y-40142D01*
X58710Y-40361D01*
X58733Y-40452D01*
X58851Y-40493D01*
X58703Y-40555D01*
X58555Y-40702D01*
X58475Y-40895D01*
X58475Y-41104D01*
X58555Y-41297D01*
X58702Y-41445D01*
X58895Y-41525D01*
X59104Y-41525D01*
X59297Y-41445D01*
X59445Y-41298D01*
X59448Y-41290D01*
X59656Y-41290D01*
X60857Y-42490D01*
X60703Y-42555D01*
X60555Y-42702D01*
X60551Y-42710D01*
X57447Y-42710D01*
X57445Y-42703D01*
X57298Y-42555D01*
X57164Y-42499D01*
X57297Y-42445D01*
X57445Y-42298D01*
X57525Y-42105D01*
X57525Y-41896D01*
X57445Y-41703D01*
X57298Y-41555D01*
X57105Y-41475D01*
X56896Y-41475D01*
X56703Y-41555D01*
X56555Y-41702D01*
X56475Y-41895D01*
X56475Y-42104D01*
X56555Y-42297D01*
X56702Y-42445D01*
X56835Y-42500D01*
X56703Y-42555D01*
X56555Y-42702D01*
X56475Y-42895D01*
X56475Y-43104D01*
X56555Y-43297D01*
X56702Y-43445D01*
X56895Y-43525D01*
X57104Y-43525D01*
X57297Y-43445D01*
X57445Y-43298D01*
X57448Y-43290D01*
X60552Y-43290D01*
X60555Y-43297D01*
X60702Y-43445D01*
X60842Y-43503D01*
X60733Y-43548D01*
X60710Y-43639D01*
X61000Y-43929D01*
X61290Y-43639D01*
X61267Y-43548D01*
X61148Y-43506D01*
X61297Y-43445D01*
X61414Y-43327D01*
X62950Y-44863D01*
X62950Y-45530D01*
X62215Y-44795D01*
X62121Y-44732D01*
X62010Y-44710D01*
X61519Y-44710D01*
X61519Y-44074D01*
X61508Y-43870D01*
X61452Y-43733D01*
X61361Y-43710D01*
X61071Y-44000D01*
X61361Y-44290D01*
X61452Y-44267D01*
X61519Y-44074D01*
X61519Y-44710D01*
X61290Y-44710D01*
X61290Y-44361D01*
X61000Y-44071D01*
X60929Y-44142D01*
X60929Y-44000D01*
X60639Y-43710D01*
X60548Y-43733D01*
X60481Y-43926D01*
X60492Y-44130D01*
X60548Y-44267D01*
X60639Y-44290D01*
X60929Y-44000D01*
X60929Y-44142D01*
X60710Y-44361D01*
X60733Y-44452D01*
X60926Y-44519D01*
X61130Y-44508D01*
X61267Y-44452D01*
X61290Y-44361D01*
X61290Y-44710D01*
X59519Y-44710D01*
X59519Y-44074D01*
X59508Y-43870D01*
X59452Y-43733D01*
X59361Y-43710D01*
X59290Y-43781D01*
X59290Y-43639D01*
X59267Y-43548D01*
X59074Y-43481D01*
X58870Y-43492D01*
X58733Y-43548D01*
X58710Y-43639D01*
X59000Y-43929D01*
X59290Y-43639D01*
X59290Y-43781D01*
X59071Y-44000D01*
X59361Y-44290D01*
X59452Y-44267D01*
X59519Y-44074D01*
X59519Y-44710D01*
X59447Y-44710D01*
X59445Y-44703D01*
X59298Y-44555D01*
X59157Y-44496D01*
X59267Y-44452D01*
X59290Y-44361D01*
X59000Y-44071D01*
X58929Y-44142D01*
X58929Y-44000D01*
X58639Y-43710D01*
X58548Y-43733D01*
X58481Y-43926D01*
X58492Y-44130D01*
X58548Y-44267D01*
X58639Y-44290D01*
X58929Y-44000D01*
X58929Y-44142D01*
X58710Y-44361D01*
X58733Y-44452D01*
X58851Y-44493D01*
X58703Y-44555D01*
X58555Y-44702D01*
X58475Y-44895D01*
X58475Y-45104D01*
X58555Y-45297D01*
X58702Y-45445D01*
X58895Y-45525D01*
X59104Y-45525D01*
X59297Y-45445D01*
X59445Y-45298D01*
X59448Y-45290D01*
X61890Y-45290D01*
X62670Y-46070D01*
X62030Y-46710D01*
X61447Y-46710D01*
X61445Y-46703D01*
X61298Y-46555D01*
X61105Y-46475D01*
X60896Y-46475D01*
X60703Y-46555D01*
X60555Y-46702D01*
X60551Y-46710D01*
X57447Y-46710D01*
X57445Y-46703D01*
X57298Y-46555D01*
X57164Y-46499D01*
X57297Y-46445D01*
X57445Y-46298D01*
X57525Y-46105D01*
X57525Y-45896D01*
X57445Y-45703D01*
X57298Y-45555D01*
X57105Y-45475D01*
X56896Y-45475D01*
X56703Y-45555D01*
X56555Y-45702D01*
X56475Y-45895D01*
X56475Y-46104D01*
X56555Y-46297D01*
X56702Y-46445D01*
X56835Y-46500D01*
X56703Y-46555D01*
X56555Y-46702D01*
X56475Y-46895D01*
X56475Y-47104D01*
X56555Y-47297D01*
X56702Y-47445D01*
X56895Y-47525D01*
X57104Y-47525D01*
X57297Y-47445D01*
X57445Y-47298D01*
X57448Y-47290D01*
X60552Y-47290D01*
X60555Y-47297D01*
X60702Y-47445D01*
X60842Y-47503D01*
X60733Y-47548D01*
X60710Y-47639D01*
X61000Y-47929D01*
X61290Y-47639D01*
X61267Y-47548D01*
X61148Y-47506D01*
X61297Y-47445D01*
X61445Y-47298D01*
X61448Y-47290D01*
X62150Y-47290D01*
X62261Y-47268D01*
X62355Y-47205D01*
X62950Y-46610D01*
X62950Y-48710D01*
X62370Y-48710D01*
X62350Y-48710D01*
X62279Y-48710D01*
X61519Y-48710D01*
X61519Y-48074D01*
X61508Y-47870D01*
X61452Y-47733D01*
X61361Y-47710D01*
X61071Y-48000D01*
X61361Y-48290D01*
X61452Y-48267D01*
X61519Y-48074D01*
X61519Y-48710D01*
X61290Y-48710D01*
X61290Y-48361D01*
X61000Y-48071D01*
X60929Y-48142D01*
X60929Y-48000D01*
X60639Y-47710D01*
X60548Y-47733D01*
X60481Y-47926D01*
X60492Y-48130D01*
X60548Y-48267D01*
X60639Y-48290D01*
X60929Y-48000D01*
X60929Y-48142D01*
X60710Y-48361D01*
X60733Y-48452D01*
X60926Y-48519D01*
X61130Y-48508D01*
X61267Y-48452D01*
X61290Y-48361D01*
X61290Y-48710D01*
X59519Y-48710D01*
X59519Y-48074D01*
X59508Y-47870D01*
X59452Y-47733D01*
X59361Y-47710D01*
X59290Y-47781D01*
X59290Y-47639D01*
X59267Y-47548D01*
X59074Y-47481D01*
X58870Y-47492D01*
X58733Y-47548D01*
X58710Y-47639D01*
X59000Y-47929D01*
X59290Y-47639D01*
X59290Y-47781D01*
X59071Y-48000D01*
X59361Y-48290D01*
X59452Y-48267D01*
X59519Y-48074D01*
X59519Y-48710D01*
X59447Y-48710D01*
X59445Y-48703D01*
X59298Y-48555D01*
X59157Y-48496D01*
X59267Y-48452D01*
X59290Y-48361D01*
X59000Y-48071D01*
X58929Y-48142D01*
X58929Y-48000D01*
X58639Y-47710D01*
X58548Y-47733D01*
X58481Y-47926D01*
X58492Y-48130D01*
X58548Y-48267D01*
X58639Y-48290D01*
X58929Y-48000D01*
X58929Y-48142D01*
X58710Y-48361D01*
X58733Y-48452D01*
X58851Y-48493D01*
X58703Y-48555D01*
X58555Y-48702D01*
X58475Y-48895D01*
X58475Y-49104D01*
X58555Y-49297D01*
X58702Y-49445D01*
X58895Y-49525D01*
X59104Y-49525D01*
X59297Y-49445D01*
X59445Y-49298D01*
X59448Y-49290D01*
X62215Y-49290D01*
X62286Y-49303D01*
X61112Y-50477D01*
X61105Y-50475D01*
X60896Y-50475D01*
X60703Y-50555D01*
X60555Y-50702D01*
X60551Y-50710D01*
X57447Y-50710D01*
X57445Y-50703D01*
X57298Y-50555D01*
X57164Y-50499D01*
X57297Y-50445D01*
X57445Y-50298D01*
X57525Y-50105D01*
X57525Y-49896D01*
X57445Y-49703D01*
X57298Y-49555D01*
X57105Y-49475D01*
X56896Y-49475D01*
X56703Y-49555D01*
X56555Y-49702D01*
X56475Y-49895D01*
X56475Y-50104D01*
X56555Y-50297D01*
X56702Y-50445D01*
X56835Y-50500D01*
X56703Y-50555D01*
X56555Y-50702D01*
X56475Y-50895D01*
X56475Y-51104D01*
X56555Y-51297D01*
X56702Y-51445D01*
X56895Y-51525D01*
X57104Y-51525D01*
X57297Y-51445D01*
X57445Y-51298D01*
X57448Y-51290D01*
X60552Y-51290D01*
X60555Y-51297D01*
X60702Y-51445D01*
X60842Y-51503D01*
X60733Y-51548D01*
X60710Y-51639D01*
X61000Y-51929D01*
X61290Y-51639D01*
X61267Y-51548D01*
X61148Y-51506D01*
X61297Y-51445D01*
X61445Y-51298D01*
X61525Y-51105D01*
X61525Y-50896D01*
X61521Y-50888D01*
X62907Y-49503D01*
X62950Y-49503D01*
X62950Y-51592D01*
X61832Y-52710D01*
X61519Y-52710D01*
X61519Y-52074D01*
X61508Y-51870D01*
X61452Y-51733D01*
X61361Y-51710D01*
X61071Y-52000D01*
X61361Y-52290D01*
X61452Y-52267D01*
X61519Y-52074D01*
X61519Y-52710D01*
X61290Y-52710D01*
X61290Y-52361D01*
X61000Y-52071D01*
X60929Y-52142D01*
X60929Y-52000D01*
X60639Y-51710D01*
X60548Y-51733D01*
X60481Y-51926D01*
X60492Y-52130D01*
X60548Y-52267D01*
X60639Y-52290D01*
X60929Y-52000D01*
X60929Y-52142D01*
X60710Y-52361D01*
X60733Y-52452D01*
X60926Y-52519D01*
X61130Y-52508D01*
X61267Y-52452D01*
X61290Y-52361D01*
X61290Y-52710D01*
X59519Y-52710D01*
X59519Y-52074D01*
X59508Y-51870D01*
X59452Y-51733D01*
X59361Y-51710D01*
X59290Y-51781D01*
X59290Y-51639D01*
X59267Y-51548D01*
X59074Y-51481D01*
X58870Y-51492D01*
X58733Y-51548D01*
X58710Y-51639D01*
X59000Y-51929D01*
X59290Y-51639D01*
X59290Y-51781D01*
X59071Y-52000D01*
X59361Y-52290D01*
X59452Y-52267D01*
X59519Y-52074D01*
X59519Y-52710D01*
X59447Y-52710D01*
X59445Y-52703D01*
X59298Y-52555D01*
X59157Y-52496D01*
X59267Y-52452D01*
X59290Y-52361D01*
X59000Y-52071D01*
X58929Y-52142D01*
X58929Y-52000D01*
X58639Y-51710D01*
X58548Y-51733D01*
X58481Y-51926D01*
X58492Y-52130D01*
X58548Y-52267D01*
X58639Y-52290D01*
X58929Y-52000D01*
X58929Y-52142D01*
X58710Y-52361D01*
X58733Y-52452D01*
X58851Y-52493D01*
X58703Y-52555D01*
X58555Y-52702D01*
X58475Y-52895D01*
X58475Y-53104D01*
X58555Y-53297D01*
X58702Y-53445D01*
X58895Y-53525D01*
X59104Y-53525D01*
X59297Y-53445D01*
X59445Y-53298D01*
X59448Y-53290D01*
X61548Y-53290D01*
X60807Y-54031D01*
X60806Y-54031D01*
X60806Y-54032D01*
X60795Y-54043D01*
X60732Y-54137D01*
X60710Y-54248D01*
X60722Y-54308D01*
X60722Y-54547D01*
X60703Y-54555D01*
X60555Y-54702D01*
X60551Y-54710D01*
X57447Y-54710D01*
X57445Y-54703D01*
X57298Y-54555D01*
X57164Y-54499D01*
X57297Y-54445D01*
X57445Y-54298D01*
X57525Y-54105D01*
X57525Y-53896D01*
X57445Y-53703D01*
X57298Y-53555D01*
X57105Y-53475D01*
X56896Y-53475D01*
X56703Y-53555D01*
X56555Y-53702D01*
X56475Y-53895D01*
X56475Y-54104D01*
X56555Y-54297D01*
X56702Y-54445D01*
X56835Y-54500D01*
X56703Y-54555D01*
X56555Y-54702D01*
X56475Y-54895D01*
X56475Y-55104D01*
X56555Y-55297D01*
X56702Y-55445D01*
X56895Y-55525D01*
X57104Y-55525D01*
X57297Y-55445D01*
X57445Y-55298D01*
X57448Y-55290D01*
X60552Y-55290D01*
X60555Y-55297D01*
X60702Y-55445D01*
X60842Y-55503D01*
X60733Y-55548D01*
X60710Y-55639D01*
X61000Y-55929D01*
X61290Y-55639D01*
X61267Y-55548D01*
X61148Y-55506D01*
X61297Y-55445D01*
X61445Y-55298D01*
X61525Y-55105D01*
X61525Y-54896D01*
X61445Y-54703D01*
X61302Y-54559D01*
X61302Y-54356D01*
X62950Y-52708D01*
X62950Y-55430D01*
X61674Y-56707D01*
X61671Y-56710D01*
X61519Y-56710D01*
X61519Y-56074D01*
X61508Y-55870D01*
X61452Y-55733D01*
X61361Y-55710D01*
X61071Y-56000D01*
X61361Y-56290D01*
X61452Y-56267D01*
X61519Y-56074D01*
X61519Y-56710D01*
X61290Y-56710D01*
X61290Y-56361D01*
X61000Y-56071D01*
X60929Y-56142D01*
X60929Y-56000D01*
X60639Y-55710D01*
X60548Y-55733D01*
X60481Y-55926D01*
X60492Y-56130D01*
X60548Y-56267D01*
X60639Y-56290D01*
X60929Y-56000D01*
X60929Y-56142D01*
X60710Y-56361D01*
X60733Y-56452D01*
X60926Y-56519D01*
X61130Y-56508D01*
X61267Y-56452D01*
X61290Y-56361D01*
X61290Y-56710D01*
X59519Y-56710D01*
X59519Y-56074D01*
X59508Y-55870D01*
X59452Y-55733D01*
X59361Y-55710D01*
X59290Y-55781D01*
X59290Y-55639D01*
X59267Y-55548D01*
X59074Y-55481D01*
X58870Y-55492D01*
X58733Y-55548D01*
X58710Y-55639D01*
X59000Y-55929D01*
X59290Y-55639D01*
X59290Y-55781D01*
X59071Y-56000D01*
X59361Y-56290D01*
X59452Y-56267D01*
X59519Y-56074D01*
X59519Y-56710D01*
X59447Y-56710D01*
X59445Y-56703D01*
X59298Y-56555D01*
X59157Y-56496D01*
X59267Y-56452D01*
X59290Y-56361D01*
X59000Y-56071D01*
X58929Y-56142D01*
X58929Y-56000D01*
X58639Y-55710D01*
X58548Y-55733D01*
X58481Y-55926D01*
X58492Y-56130D01*
X58548Y-56267D01*
X58639Y-56290D01*
X58929Y-56000D01*
X58929Y-56142D01*
X58710Y-56361D01*
X58733Y-56452D01*
X58851Y-56493D01*
X58703Y-56555D01*
X58555Y-56702D01*
X58475Y-56895D01*
X58475Y-57104D01*
X58555Y-57297D01*
X58702Y-57445D01*
X58895Y-57525D01*
X59104Y-57525D01*
X59297Y-57445D01*
X59445Y-57298D01*
X59448Y-57290D01*
X61386Y-57290D01*
X60795Y-57881D01*
X60732Y-57975D01*
X60710Y-58086D01*
X60710Y-58552D01*
X60703Y-58555D01*
X60555Y-58702D01*
X60551Y-58710D01*
X57447Y-58710D01*
X57445Y-58703D01*
X57298Y-58555D01*
X57164Y-58499D01*
X57297Y-58445D01*
X57445Y-58298D01*
X57525Y-58105D01*
X57525Y-57896D01*
X57445Y-57703D01*
X57298Y-57555D01*
X57105Y-57475D01*
X56896Y-57475D01*
X56703Y-57555D01*
X56555Y-57702D01*
X56475Y-57895D01*
X56475Y-58104D01*
X56555Y-58297D01*
X56702Y-58445D01*
X56835Y-58500D01*
X56703Y-58555D01*
X56555Y-58702D01*
X56475Y-58895D01*
X56475Y-59104D01*
X56555Y-59297D01*
X56702Y-59445D01*
X56895Y-59525D01*
X57104Y-59525D01*
X57297Y-59445D01*
X57445Y-59298D01*
X57448Y-59290D01*
X60552Y-59290D01*
X60555Y-59297D01*
X60702Y-59445D01*
X60842Y-59503D01*
X60733Y-59548D01*
X60710Y-59639D01*
X61000Y-59929D01*
X61290Y-59639D01*
X61267Y-59548D01*
X61148Y-59506D01*
X61297Y-59445D01*
X61445Y-59298D01*
X61525Y-59105D01*
X61525Y-58896D01*
X61445Y-58703D01*
X61298Y-58555D01*
X61290Y-58551D01*
X61290Y-58206D01*
X62950Y-56546D01*
X62950Y-60675D01*
X61519Y-60675D01*
X61519Y-60074D01*
X61508Y-59870D01*
X61452Y-59733D01*
X61361Y-59710D01*
X61071Y-60000D01*
X61361Y-60290D01*
X61452Y-60267D01*
X61519Y-60074D01*
X61519Y-60675D01*
X61290Y-60675D01*
X61290Y-60361D01*
X61000Y-60071D01*
X60929Y-60142D01*
X60929Y-60000D01*
X60639Y-59710D01*
X60548Y-59733D01*
X60481Y-59926D01*
X60492Y-60130D01*
X60548Y-60267D01*
X60639Y-60290D01*
X60929Y-60000D01*
X60929Y-60142D01*
X60710Y-60361D01*
X60733Y-60452D01*
X60926Y-60519D01*
X61130Y-60508D01*
X61267Y-60452D01*
X61290Y-60361D01*
X61290Y-60675D01*
X52550Y-60675D01*
X52550Y-59284D01*
X52555Y-59297D01*
X52702Y-59445D01*
X52895Y-59525D01*
X53104Y-59525D01*
X53297Y-59445D01*
X53445Y-59298D01*
X53525Y-59105D01*
X53525Y-58896D01*
X53445Y-58703D01*
X53298Y-58555D01*
X53105Y-58475D01*
X52896Y-58475D01*
X52703Y-58555D01*
X52555Y-58702D01*
X52550Y-58714D01*
X52550Y-57284D01*
X52555Y-57297D01*
X52702Y-57445D01*
X52895Y-57525D01*
X53104Y-57525D01*
X53297Y-57445D01*
X53445Y-57298D01*
X53448Y-57290D01*
X54552Y-57290D01*
X54555Y-57297D01*
X54702Y-57445D01*
X54835Y-57500D01*
X54703Y-57555D01*
X54555Y-57702D01*
X54475Y-57895D01*
X54475Y-58104D01*
X54555Y-58297D01*
X54702Y-58445D01*
X54895Y-58525D01*
X55104Y-58525D01*
X55297Y-58445D01*
X55445Y-58298D01*
X55525Y-58105D01*
X55525Y-57896D01*
X55445Y-57703D01*
X55298Y-57555D01*
X55164Y-57499D01*
X55297Y-57445D01*
X55445Y-57298D01*
X55525Y-57105D01*
X55525Y-56896D01*
X55445Y-56703D01*
X55298Y-56555D01*
X55105Y-56475D01*
X54896Y-56475D01*
X54703Y-56555D01*
X54555Y-56702D01*
X54551Y-56710D01*
X53447Y-56710D01*
X53445Y-56703D01*
X53298Y-56555D01*
X53105Y-56475D01*
X52896Y-56475D01*
X52703Y-56555D01*
X52555Y-56702D01*
X52550Y-56714D01*
X52550Y-55284D01*
X52555Y-55297D01*
X52702Y-55445D01*
X52895Y-55525D01*
X53104Y-55525D01*
X53297Y-55445D01*
X53445Y-55298D01*
X53525Y-55105D01*
X53525Y-54896D01*
X53445Y-54703D01*
X53298Y-54555D01*
X53105Y-54475D01*
X52896Y-54475D01*
X52703Y-54555D01*
X52555Y-54702D01*
X52550Y-54714D01*
X52550Y-53284D01*
X52555Y-53297D01*
X52702Y-53445D01*
X52895Y-53525D01*
X53104Y-53525D01*
X53297Y-53445D01*
X53445Y-53298D01*
X53448Y-53290D01*
X54552Y-53290D01*
X54555Y-53297D01*
X54702Y-53445D01*
X54835Y-53500D01*
X54703Y-53555D01*
X54555Y-53702D01*
X54475Y-53895D01*
X54475Y-54104D01*
X54555Y-54297D01*
X54702Y-54445D01*
X54895Y-54525D01*
X55104Y-54525D01*
X55297Y-54445D01*
X55445Y-54298D01*
X55525Y-54105D01*
X55525Y-53896D01*
X55445Y-53703D01*
X55298Y-53555D01*
X55164Y-53499D01*
X55297Y-53445D01*
X55445Y-53298D01*
X55525Y-53105D01*
X55525Y-52896D01*
X55445Y-52703D01*
X55298Y-52555D01*
X55105Y-52475D01*
X54896Y-52475D01*
X54703Y-52555D01*
X54555Y-52702D01*
X54551Y-52710D01*
X53447Y-52710D01*
X53445Y-52703D01*
X53298Y-52555D01*
X53105Y-52475D01*
X52896Y-52475D01*
X52703Y-52555D01*
X52555Y-52702D01*
X52550Y-52714D01*
X52550Y-51284D01*
X52555Y-51297D01*
X52702Y-51445D01*
X52895Y-51525D01*
X53104Y-51525D01*
X53297Y-51445D01*
X53445Y-51298D01*
X53525Y-51105D01*
X53525Y-50896D01*
X53445Y-50703D01*
X53298Y-50555D01*
X53105Y-50475D01*
X52896Y-50475D01*
X52703Y-50555D01*
X52555Y-50702D01*
X52550Y-50714D01*
X52550Y-49284D01*
X52555Y-49297D01*
X52702Y-49445D01*
X52895Y-49525D01*
X53104Y-49525D01*
X53297Y-49445D01*
X53445Y-49298D01*
X53448Y-49290D01*
X54552Y-49290D01*
X54555Y-49297D01*
X54702Y-49445D01*
X54835Y-49500D01*
X54703Y-49555D01*
X54555Y-49702D01*
X54475Y-49895D01*
X54475Y-50104D01*
X54555Y-50297D01*
X54702Y-50445D01*
X54895Y-50525D01*
X55104Y-50525D01*
X55297Y-50445D01*
X55445Y-50298D01*
X55525Y-50105D01*
X55525Y-49896D01*
X55445Y-49703D01*
X55298Y-49555D01*
X55164Y-49499D01*
X55297Y-49445D01*
X55445Y-49298D01*
X55525Y-49105D01*
X55525Y-48896D01*
X55445Y-48703D01*
X55298Y-48555D01*
X55105Y-48475D01*
X54896Y-48475D01*
X54703Y-48555D01*
X54555Y-48702D01*
X54551Y-48710D01*
X53447Y-48710D01*
X53445Y-48703D01*
X53298Y-48555D01*
X53105Y-48475D01*
X52896Y-48475D01*
X52703Y-48555D01*
X52555Y-48702D01*
X52550Y-48714D01*
X52550Y-47284D01*
X52555Y-47297D01*
X52702Y-47445D01*
X52895Y-47525D01*
X53104Y-47525D01*
X53297Y-47445D01*
X53445Y-47298D01*
X53525Y-47105D01*
X53525Y-46896D01*
X53445Y-46703D01*
X53298Y-46555D01*
X53105Y-46475D01*
X52896Y-46475D01*
X52703Y-46555D01*
X52555Y-46702D01*
X52550Y-46714D01*
X52550Y-45284D01*
X52555Y-45297D01*
X52702Y-45445D01*
X52895Y-45525D01*
X53104Y-45525D01*
X53297Y-45445D01*
X53445Y-45298D01*
X53448Y-45290D01*
X54552Y-45290D01*
X54555Y-45297D01*
X54702Y-45445D01*
X54835Y-45500D01*
X54703Y-45555D01*
X54555Y-45702D01*
X54475Y-45895D01*
X54475Y-46104D01*
X54555Y-46297D01*
X54702Y-46445D01*
X54895Y-46525D01*
X55104Y-46525D01*
X55297Y-46445D01*
X55445Y-46298D01*
X55525Y-46105D01*
X55525Y-45896D01*
X55445Y-45703D01*
X55298Y-45555D01*
X55164Y-45499D01*
X55297Y-45445D01*
X55445Y-45298D01*
X55525Y-45105D01*
X55525Y-44896D01*
X55445Y-44703D01*
X55298Y-44555D01*
X55105Y-44475D01*
X54896Y-44475D01*
X54703Y-44555D01*
X54555Y-44702D01*
X54551Y-44710D01*
X53447Y-44710D01*
X53445Y-44703D01*
X53298Y-44555D01*
X53105Y-44475D01*
X52896Y-44475D01*
X52703Y-44555D01*
X52555Y-44702D01*
X52550Y-44714D01*
X52550Y-43284D01*
X52555Y-43297D01*
X52702Y-43445D01*
X52895Y-43525D01*
X53104Y-43525D01*
X53297Y-43445D01*
X53445Y-43298D01*
X53525Y-43105D01*
X53525Y-42896D01*
X53445Y-42703D01*
X53298Y-42555D01*
X53105Y-42475D01*
X52896Y-42475D01*
X52703Y-42555D01*
X52555Y-42702D01*
X52550Y-42714D01*
X52550Y-41284D01*
X52555Y-41297D01*
X52702Y-41445D01*
X52895Y-41525D01*
X53104Y-41525D01*
X53297Y-41445D01*
X53445Y-41298D01*
X53448Y-41290D01*
X54552Y-41290D01*
X54555Y-41297D01*
X54702Y-41445D01*
X54835Y-41500D01*
X54703Y-41555D01*
X54555Y-41702D01*
X54475Y-41895D01*
X54475Y-42104D01*
X54555Y-42297D01*
X54702Y-42445D01*
X54895Y-42525D01*
X55104Y-42525D01*
X55297Y-42445D01*
X55445Y-42298D01*
X55525Y-42105D01*
X55525Y-41896D01*
X55445Y-41703D01*
X55298Y-41555D01*
X55164Y-41499D01*
X55297Y-41445D01*
X55445Y-41298D01*
X55525Y-41105D01*
X55525Y-40896D01*
X55445Y-40703D01*
X55298Y-40555D01*
X55105Y-40475D01*
X54896Y-40475D01*
X54703Y-40555D01*
X54555Y-40702D01*
X54551Y-40710D01*
X53447Y-40710D01*
X53445Y-40703D01*
X53298Y-40555D01*
X53105Y-40475D01*
X52896Y-40475D01*
X52703Y-40555D01*
X52555Y-40702D01*
X52550Y-40714D01*
X52550Y-39284D01*
X52555Y-39297D01*
X52702Y-39445D01*
X52895Y-39525D01*
X53104Y-39525D01*
X53297Y-39445D01*
X53445Y-39298D01*
X53525Y-39105D01*
X53525Y-38896D01*
X53445Y-38703D01*
X53298Y-38555D01*
X53105Y-38475D01*
X52896Y-38475D01*
X52703Y-38555D01*
X52555Y-38702D01*
X52550Y-38714D01*
X52550Y-37284D01*
X52555Y-37297D01*
X52702Y-37445D01*
X52895Y-37525D01*
X53104Y-37525D01*
X53297Y-37445D01*
X53445Y-37298D01*
X53448Y-37290D01*
X54552Y-37290D01*
X54555Y-37297D01*
X54702Y-37445D01*
X54835Y-37500D01*
X54703Y-37555D01*
X54555Y-37702D01*
X54475Y-37895D01*
X54475Y-38104D01*
X54555Y-38297D01*
X54702Y-38445D01*
X54895Y-38525D01*
X55104Y-38525D01*
X55297Y-38445D01*
X55445Y-38298D01*
X55525Y-38105D01*
X55525Y-37896D01*
X55445Y-37703D01*
X55298Y-37555D01*
X55164Y-37499D01*
X55297Y-37445D01*
X55445Y-37298D01*
X55525Y-37105D01*
X55525Y-36896D01*
X55445Y-36703D01*
X55298Y-36555D01*
X55105Y-36475D01*
X54896Y-36475D01*
X54703Y-36555D01*
X54555Y-36702D01*
X54551Y-36710D01*
X53447Y-36710D01*
X53445Y-36703D01*
X53298Y-36555D01*
X53105Y-36475D01*
X52896Y-36475D01*
X52703Y-36555D01*
X52555Y-36702D01*
X52550Y-36714D01*
X52550Y-35284D01*
X52555Y-35297D01*
X52702Y-35445D01*
X52895Y-35525D01*
X53104Y-35525D01*
X53297Y-35445D01*
X53445Y-35298D01*
X53525Y-35105D01*
X53525Y-34896D01*
X53445Y-34703D01*
X53298Y-34555D01*
X53105Y-34475D01*
X52896Y-34475D01*
X52703Y-34555D01*
X52555Y-34702D01*
X52550Y-34714D01*
X52550Y-33284D01*
X52555Y-33297D01*
X52702Y-33445D01*
X52895Y-33525D01*
X53104Y-33525D01*
X53297Y-33445D01*
X53445Y-33298D01*
X53448Y-33290D01*
X54552Y-33290D01*
X54555Y-33297D01*
X54702Y-33445D01*
X54835Y-33500D01*
X54703Y-33555D01*
X54555Y-33702D01*
X54475Y-33895D01*
X54475Y-34104D01*
X54555Y-34297D01*
X54702Y-34445D01*
X54895Y-34525D01*
X55104Y-34525D01*
X55297Y-34445D01*
X55445Y-34298D01*
X55525Y-34105D01*
X55525Y-33896D01*
X55445Y-33703D01*
X55298Y-33555D01*
X55164Y-33499D01*
X55297Y-33445D01*
X55445Y-33298D01*
X55525Y-33105D01*
X55525Y-32896D01*
X55445Y-32703D01*
X55298Y-32555D01*
X55105Y-32475D01*
X54896Y-32475D01*
X54703Y-32555D01*
X54555Y-32702D01*
X54551Y-32710D01*
X53447Y-32710D01*
X53445Y-32703D01*
X53298Y-32555D01*
X53105Y-32475D01*
X52896Y-32475D01*
X52703Y-32555D01*
X52555Y-32702D01*
X52550Y-32714D01*
X52550Y-31284D01*
X52555Y-31297D01*
X52702Y-31445D01*
X52895Y-31525D01*
X53104Y-31525D01*
X53297Y-31445D01*
X53445Y-31298D01*
X53525Y-31105D01*
X53525Y-30896D01*
X53445Y-30703D01*
X53298Y-30555D01*
X53105Y-30475D01*
X52896Y-30475D01*
X52703Y-30555D01*
X52555Y-30702D01*
X52550Y-30714D01*
X52550Y-29284D01*
X52555Y-29297D01*
X52702Y-29445D01*
X52895Y-29525D01*
X53104Y-29525D01*
X53297Y-29445D01*
X53445Y-29298D01*
X53448Y-29290D01*
X54552Y-29290D01*
X54555Y-29297D01*
X54702Y-29445D01*
X54835Y-29500D01*
X54703Y-29555D01*
X54555Y-29702D01*
X54475Y-29895D01*
X54475Y-30104D01*
X54555Y-30297D01*
X54702Y-30445D01*
X54895Y-30525D01*
X55104Y-30525D01*
X55297Y-30445D01*
X55445Y-30298D01*
X55525Y-30105D01*
X55525Y-29896D01*
X55445Y-29703D01*
X55298Y-29555D01*
X55164Y-29499D01*
X55297Y-29445D01*
X55445Y-29298D01*
X55525Y-29105D01*
X55525Y-28896D01*
X55445Y-28703D01*
X55298Y-28555D01*
X55105Y-28475D01*
X54896Y-28475D01*
X54703Y-28555D01*
X54555Y-28702D01*
X54551Y-28710D01*
X53447Y-28710D01*
X53445Y-28703D01*
X53298Y-28555D01*
X53105Y-28475D01*
X52896Y-28475D01*
X52703Y-28555D01*
X52555Y-28702D01*
X52550Y-28714D01*
X52550Y-27325D01*
X76200Y-27325D01*
X76200Y-30682D01*
X76200Y-30682D01*
G37*
G54D21*
X76200Y-30682D02*
X76149Y-30733D01*
X76118Y-30805D01*
X76118Y-30706D01*
X76080Y-30615D01*
X76010Y-30545D01*
X75918Y-30507D01*
X75706Y-30506D01*
X75644Y-30568D01*
X75644Y-30931D01*
X75644Y-30981D01*
X75644Y-31081D01*
X75644Y-31131D01*
X75644Y-31494D01*
X75680Y-31530D01*
X75660Y-31635D01*
X75660Y-31700D01*
X75544Y-31700D01*
X75544Y-31494D01*
X75544Y-31081D01*
X75544Y-30981D01*
X75544Y-30568D01*
X75482Y-30506D01*
X75270Y-30507D01*
X75178Y-30545D01*
X75108Y-30615D01*
X75070Y-30706D01*
X75070Y-30805D01*
X75069Y-30919D01*
X75131Y-30981D01*
X75544Y-30981D01*
X75544Y-31081D01*
X75131Y-31081D01*
X75069Y-31143D01*
X75070Y-31257D01*
X75070Y-31356D01*
X75108Y-31447D01*
X75178Y-31517D01*
X75270Y-31555D01*
X75482Y-31556D01*
X75544Y-31494D01*
X75544Y-31700D01*
X66354Y-31700D01*
X63452Y-28798D01*
X63450Y-28796D01*
X63450Y-28795D01*
X63356Y-28732D01*
X63245Y-28710D01*
X63043Y-28710D01*
X62949Y-28710D01*
X59519Y-28710D01*
X59519Y-28074D01*
X59508Y-27870D01*
X59452Y-27733D01*
X59361Y-27710D01*
X59290Y-27781D01*
X59290Y-27639D01*
X59267Y-27548D01*
X59074Y-27481D01*
X58870Y-27492D01*
X58733Y-27548D01*
X58710Y-27639D01*
X59000Y-27929D01*
X59290Y-27639D01*
X59290Y-27781D01*
X59071Y-28000D01*
X59361Y-28290D01*
X59452Y-28267D01*
X59519Y-28074D01*
X59519Y-28710D01*
X59447Y-28710D01*
X59445Y-28703D01*
X59298Y-28555D01*
X59157Y-28496D01*
X59267Y-28452D01*
X59290Y-28361D01*
X59000Y-28071D01*
X58929Y-28142D01*
X58929Y-28000D01*
X58639Y-27710D01*
X58548Y-27733D01*
X58481Y-27926D01*
X58492Y-28130D01*
X58548Y-28267D01*
X58639Y-28290D01*
X58929Y-28000D01*
X58929Y-28142D01*
X58710Y-28361D01*
X58733Y-28452D01*
X58851Y-28493D01*
X58703Y-28555D01*
X58555Y-28702D01*
X58475Y-28895D01*
X58475Y-29104D01*
X58555Y-29297D01*
X58702Y-29445D01*
X58895Y-29525D01*
X59104Y-29525D01*
X59297Y-29445D01*
X59445Y-29298D01*
X59448Y-29290D01*
X62949Y-29290D01*
X63043Y-29290D01*
X63124Y-29290D01*
X64544Y-30710D01*
X61447Y-30710D01*
X61445Y-30703D01*
X61298Y-30555D01*
X61105Y-30475D01*
X60896Y-30475D01*
X60703Y-30555D01*
X60555Y-30702D01*
X60551Y-30710D01*
X57447Y-30710D01*
X57445Y-30703D01*
X57298Y-30555D01*
X57164Y-30499D01*
X57297Y-30445D01*
X57445Y-30298D01*
X57525Y-30105D01*
X57525Y-29896D01*
X57445Y-29703D01*
X57298Y-29555D01*
X57105Y-29475D01*
X56896Y-29475D01*
X56703Y-29555D01*
X56555Y-29702D01*
X56475Y-29895D01*
X56475Y-30104D01*
X56555Y-30297D01*
X56702Y-30445D01*
X56835Y-30500D01*
X56703Y-30555D01*
X56555Y-30702D01*
X56475Y-30895D01*
X56475Y-31104D01*
X56555Y-31297D01*
X56702Y-31445D01*
X56895Y-31525D01*
X57104Y-31525D01*
X57297Y-31445D01*
X57445Y-31298D01*
X57448Y-31290D01*
X60552Y-31290D01*
X60555Y-31297D01*
X60702Y-31445D01*
X60842Y-31503D01*
X60733Y-31548D01*
X60710Y-31639D01*
X61000Y-31929D01*
X61290Y-31639D01*
X61267Y-31548D01*
X61148Y-31506D01*
X61297Y-31445D01*
X61445Y-31298D01*
X61448Y-31290D01*
X64662Y-31290D01*
X64864Y-31290D01*
X65274Y-31700D01*
X62950Y-31700D01*
X62950Y-34454D01*
X62440Y-34454D01*
X61519Y-33533D01*
X61519Y-32074D01*
X61508Y-31870D01*
X61452Y-31733D01*
X61361Y-31710D01*
X61071Y-32000D01*
X61361Y-32290D01*
X61452Y-32267D01*
X61519Y-32074D01*
X61519Y-33533D01*
X61290Y-33304D01*
X61290Y-32361D01*
X61000Y-32071D01*
X60929Y-32142D01*
X60929Y-32000D01*
X60639Y-31710D01*
X60548Y-31733D01*
X60481Y-31926D01*
X60492Y-32130D01*
X60548Y-32267D01*
X60639Y-32290D01*
X60929Y-32000D01*
X60929Y-32142D01*
X60710Y-32361D01*
X60733Y-32452D01*
X60926Y-32519D01*
X61130Y-32508D01*
X61267Y-32452D01*
X61290Y-32361D01*
X61290Y-33304D01*
X60781Y-32795D01*
X60687Y-32732D01*
X60576Y-32710D01*
X59519Y-32710D01*
X59519Y-32074D01*
X59508Y-31870D01*
X59452Y-31733D01*
X59361Y-31710D01*
X59290Y-31781D01*
X59290Y-31639D01*
X59267Y-31548D01*
X59074Y-31481D01*
X58870Y-31492D01*
X58733Y-31548D01*
X58710Y-31639D01*
X59000Y-31929D01*
X59290Y-31639D01*
X59290Y-31781D01*
X59071Y-32000D01*
X59361Y-32290D01*
X59452Y-32267D01*
X59519Y-32074D01*
X59519Y-32710D01*
X59447Y-32710D01*
X59445Y-32703D01*
X59298Y-32555D01*
X59157Y-32496D01*
X59267Y-32452D01*
X59290Y-32361D01*
X59000Y-32071D01*
X58929Y-32142D01*
X58929Y-32000D01*
X58639Y-31710D01*
X58548Y-31733D01*
X58481Y-31926D01*
X58492Y-32130D01*
X58548Y-32267D01*
X58639Y-32290D01*
X58929Y-32000D01*
X58929Y-32142D01*
X58710Y-32361D01*
X58733Y-32452D01*
X58851Y-32493D01*
X58703Y-32555D01*
X58555Y-32702D01*
X58475Y-32895D01*
X58475Y-33104D01*
X58555Y-33297D01*
X58702Y-33445D01*
X58895Y-33525D01*
X59104Y-33525D01*
X59297Y-33445D01*
X59445Y-33298D01*
X59448Y-33290D01*
X60456Y-33290D01*
X61876Y-34710D01*
X61447Y-34710D01*
X61445Y-34703D01*
X61298Y-34555D01*
X61105Y-34475D01*
X60896Y-34475D01*
X60703Y-34555D01*
X60555Y-34702D01*
X60551Y-34710D01*
X57447Y-34710D01*
X57445Y-34703D01*
X57298Y-34555D01*
X57164Y-34499D01*
X57297Y-34445D01*
X57445Y-34298D01*
X57525Y-34105D01*
X57525Y-33896D01*
X57445Y-33703D01*
X57298Y-33555D01*
X57105Y-33475D01*
X56896Y-33475D01*
X56703Y-33555D01*
X56555Y-33702D01*
X56475Y-33895D01*
X56475Y-34104D01*
X56555Y-34297D01*
X56702Y-34445D01*
X56835Y-34500D01*
X56703Y-34555D01*
X56555Y-34702D01*
X56475Y-34895D01*
X56475Y-35104D01*
X56555Y-35297D01*
X56702Y-35445D01*
X56895Y-35525D01*
X57104Y-35525D01*
X57297Y-35445D01*
X57445Y-35298D01*
X57448Y-35290D01*
X60552Y-35290D01*
X60555Y-35297D01*
X60702Y-35445D01*
X60842Y-35503D01*
X60733Y-35548D01*
X60710Y-35639D01*
X61000Y-35929D01*
X61290Y-35639D01*
X61267Y-35548D01*
X61148Y-35506D01*
X61297Y-35445D01*
X61445Y-35298D01*
X61448Y-35290D01*
X62950Y-35290D01*
X62950Y-37844D01*
X61945Y-36839D01*
X61901Y-36795D01*
X61807Y-36732D01*
X61696Y-36710D01*
X61519Y-36710D01*
X61519Y-36074D01*
X61508Y-35870D01*
X61452Y-35733D01*
X61361Y-35710D01*
X61071Y-36000D01*
X61361Y-36290D01*
X61452Y-36267D01*
X61519Y-36074D01*
X61519Y-36710D01*
X61290Y-36710D01*
X61290Y-36361D01*
X61000Y-36071D01*
X60929Y-36142D01*
X60929Y-36000D01*
X60639Y-35710D01*
X60548Y-35733D01*
X60481Y-35926D01*
X60492Y-36130D01*
X60548Y-36267D01*
X60639Y-36290D01*
X60929Y-36000D01*
X60929Y-36142D01*
X60710Y-36361D01*
X60733Y-36452D01*
X60926Y-36519D01*
X61130Y-36508D01*
X61267Y-36452D01*
X61290Y-36361D01*
X61290Y-36710D01*
X59519Y-36710D01*
X59519Y-36074D01*
X59508Y-35870D01*
X59452Y-35733D01*
X59361Y-35710D01*
X59290Y-35781D01*
X59290Y-35639D01*
X59267Y-35548D01*
X59074Y-35481D01*
X58870Y-35492D01*
X58733Y-35548D01*
X58710Y-35639D01*
X59000Y-35929D01*
X59290Y-35639D01*
X59290Y-35781D01*
X59071Y-36000D01*
X59361Y-36290D01*
X59452Y-36267D01*
X59519Y-36074D01*
X59519Y-36710D01*
X59447Y-36710D01*
X59445Y-36703D01*
X59298Y-36555D01*
X59157Y-36496D01*
X59267Y-36452D01*
X59290Y-36361D01*
X59000Y-36071D01*
X58929Y-36142D01*
X58929Y-36000D01*
X58639Y-35710D01*
X58548Y-35733D01*
X58481Y-35926D01*
X58492Y-36130D01*
X58548Y-36267D01*
X58639Y-36290D01*
X58929Y-36000D01*
X58929Y-36142D01*
X58710Y-36361D01*
X58733Y-36452D01*
X58851Y-36493D01*
X58703Y-36555D01*
X58555Y-36702D01*
X58475Y-36895D01*
X58475Y-37104D01*
X58555Y-37297D01*
X58702Y-37445D01*
X58895Y-37525D01*
X59104Y-37525D01*
X59297Y-37445D01*
X59445Y-37298D01*
X59448Y-37290D01*
X61567Y-37290D01*
X61592Y-37306D01*
X62950Y-38664D01*
X62950Y-38710D01*
X61447Y-38710D01*
X61445Y-38703D01*
X61298Y-38555D01*
X61105Y-38475D01*
X60896Y-38475D01*
X60703Y-38555D01*
X60555Y-38702D01*
X60551Y-38710D01*
X57447Y-38710D01*
X57445Y-38703D01*
X57298Y-38555D01*
X57164Y-38499D01*
X57297Y-38445D01*
X57445Y-38298D01*
X57525Y-38105D01*
X57525Y-37896D01*
X57445Y-37703D01*
X57298Y-37555D01*
X57105Y-37475D01*
X56896Y-37475D01*
X56703Y-37555D01*
X56555Y-37702D01*
X56475Y-37895D01*
X56475Y-38104D01*
X56555Y-38297D01*
X56702Y-38445D01*
X56835Y-38500D01*
X56703Y-38555D01*
X56555Y-38702D01*
X56475Y-38895D01*
X56475Y-39104D01*
X56555Y-39297D01*
X56702Y-39445D01*
X56895Y-39525D01*
X57104Y-39525D01*
X57297Y-39445D01*
X57445Y-39298D01*
X57448Y-39290D01*
X60552Y-39290D01*
X60555Y-39297D01*
X60702Y-39445D01*
X60842Y-39503D01*
X60733Y-39548D01*
X60710Y-39639D01*
X61000Y-39929D01*
X61290Y-39639D01*
X61267Y-39548D01*
X61148Y-39506D01*
X61297Y-39445D01*
X61445Y-39298D01*
X61448Y-39290D01*
X62950Y-39290D01*
X62950Y-43762D01*
X61519Y-42331D01*
X61519Y-40074D01*
X61508Y-39870D01*
X61452Y-39733D01*
X61361Y-39710D01*
X61071Y-40000D01*
X61361Y-40290D01*
X61452Y-40267D01*
X61519Y-40074D01*
X61519Y-42331D01*
X61290Y-42102D01*
X61290Y-40361D01*
X61000Y-40071D01*
X60929Y-40142D01*
X60929Y-40000D01*
X60639Y-39710D01*
X60548Y-39733D01*
X60481Y-39926D01*
X60492Y-40130D01*
X60548Y-40267D01*
X60639Y-40290D01*
X60929Y-40000D01*
X60929Y-40142D01*
X60710Y-40361D01*
X60733Y-40452D01*
X60926Y-40519D01*
X61130Y-40508D01*
X61267Y-40452D01*
X61290Y-40361D01*
X61290Y-42102D01*
X59982Y-40795D01*
X59888Y-40732D01*
X59777Y-40710D01*
X59519Y-40710D01*
X59519Y-40074D01*
X59508Y-39870D01*
X59452Y-39733D01*
X59361Y-39710D01*
X59290Y-39781D01*
X59290Y-39639D01*
X59267Y-39548D01*
X59074Y-39481D01*
X58870Y-39492D01*
X58733Y-39548D01*
X58710Y-39639D01*
X59000Y-39929D01*
X59290Y-39639D01*
X59290Y-39781D01*
X59071Y-40000D01*
X59361Y-40290D01*
X59452Y-40267D01*
X59519Y-40074D01*
X59519Y-40710D01*
X59447Y-40710D01*
X59445Y-40703D01*
X59298Y-40555D01*
X59157Y-40496D01*
X59267Y-40452D01*
X59290Y-40361D01*
X59000Y-40071D01*
X58929Y-40142D01*
X58929Y-40000D01*
X58639Y-39710D01*
X58548Y-39733D01*
X58481Y-39926D01*
X58492Y-40130D01*
X58548Y-40267D01*
X58639Y-40290D01*
X58929Y-40000D01*
X58929Y-40142D01*
X58710Y-40361D01*
X58733Y-40452D01*
X58851Y-40493D01*
X58703Y-40555D01*
X58555Y-40702D01*
X58475Y-40895D01*
X58475Y-41104D01*
X58555Y-41297D01*
X58702Y-41445D01*
X58895Y-41525D01*
X59104Y-41525D01*
X59297Y-41445D01*
X59445Y-41298D01*
X59448Y-41290D01*
X59656Y-41290D01*
X60857Y-42490D01*
X60703Y-42555D01*
X60555Y-42702D01*
X60551Y-42710D01*
X57447Y-42710D01*
X57445Y-42703D01*
X57298Y-42555D01*
X57164Y-42499D01*
X57297Y-42445D01*
X57445Y-42298D01*
X57525Y-42105D01*
X57525Y-41896D01*
X57445Y-41703D01*
X57298Y-41555D01*
X57105Y-41475D01*
X56896Y-41475D01*
X56703Y-41555D01*
X56555Y-41702D01*
X56475Y-41895D01*
X56475Y-42104D01*
X56555Y-42297D01*
X56702Y-42445D01*
X56835Y-42500D01*
X56703Y-42555D01*
X56555Y-42702D01*
X56475Y-42895D01*
X56475Y-43104D01*
X56555Y-43297D01*
X56702Y-43445D01*
X56895Y-43525D01*
X57104Y-43525D01*
X57297Y-43445D01*
X57445Y-43298D01*
X57448Y-43290D01*
X60552Y-43290D01*
X60555Y-43297D01*
X60702Y-43445D01*
X60842Y-43503D01*
X60733Y-43548D01*
X60710Y-43639D01*
X61000Y-43929D01*
X61290Y-43639D01*
X61267Y-43548D01*
X61148Y-43506D01*
X61297Y-43445D01*
X61414Y-43327D01*
X62950Y-44863D01*
X62950Y-45530D01*
X62215Y-44795D01*
X62121Y-44732D01*
X62010Y-44710D01*
X61519Y-44710D01*
X61519Y-44074D01*
X61508Y-43870D01*
X61452Y-43733D01*
X61361Y-43710D01*
X61071Y-44000D01*
X61361Y-44290D01*
X61452Y-44267D01*
X61519Y-44074D01*
X61519Y-44710D01*
X61290Y-44710D01*
X61290Y-44361D01*
X61000Y-44071D01*
X60929Y-44142D01*
X60929Y-44000D01*
X60639Y-43710D01*
X60548Y-43733D01*
X60481Y-43926D01*
X60492Y-44130D01*
X60548Y-44267D01*
X60639Y-44290D01*
X60929Y-44000D01*
X60929Y-44142D01*
X60710Y-44361D01*
X60733Y-44452D01*
X60926Y-44519D01*
X61130Y-44508D01*
X61267Y-44452D01*
X61290Y-44361D01*
X61290Y-44710D01*
X59519Y-44710D01*
X59519Y-44074D01*
X59508Y-43870D01*
X59452Y-43733D01*
X59361Y-43710D01*
X59290Y-43781D01*
X59290Y-43639D01*
X59267Y-43548D01*
X59074Y-43481D01*
X58870Y-43492D01*
X58733Y-43548D01*
X58710Y-43639D01*
X59000Y-43929D01*
X59290Y-43639D01*
X59290Y-43781D01*
X59071Y-44000D01*
X59361Y-44290D01*
X59452Y-44267D01*
X59519Y-44074D01*
X59519Y-44710D01*
X59447Y-44710D01*
X59445Y-44703D01*
X59298Y-44555D01*
X59157Y-44496D01*
X59267Y-44452D01*
X59290Y-44361D01*
X59000Y-44071D01*
X58929Y-44142D01*
X58929Y-44000D01*
X58639Y-43710D01*
X58548Y-43733D01*
X58481Y-43926D01*
X58492Y-44130D01*
X58548Y-44267D01*
X58639Y-44290D01*
X58929Y-44000D01*
X58929Y-44142D01*
X58710Y-44361D01*
X58733Y-44452D01*
X58851Y-44493D01*
X58703Y-44555D01*
X58555Y-44702D01*
X58475Y-44895D01*
X58475Y-45104D01*
X58555Y-45297D01*
X58702Y-45445D01*
X58895Y-45525D01*
X59104Y-45525D01*
X59297Y-45445D01*
X59445Y-45298D01*
X59448Y-45290D01*
X61890Y-45290D01*
X62670Y-46070D01*
X62030Y-46710D01*
X61447Y-46710D01*
X61445Y-46703D01*
X61298Y-46555D01*
X61105Y-46475D01*
X60896Y-46475D01*
X60703Y-46555D01*
X60555Y-46702D01*
X60551Y-46710D01*
X57447Y-46710D01*
X57445Y-46703D01*
X57298Y-46555D01*
X57164Y-46499D01*
X57297Y-46445D01*
X57445Y-46298D01*
X57525Y-46105D01*
X57525Y-45896D01*
X57445Y-45703D01*
X57298Y-45555D01*
X57105Y-45475D01*
X56896Y-45475D01*
X56703Y-45555D01*
X56555Y-45702D01*
X56475Y-45895D01*
X56475Y-46104D01*
X56555Y-46297D01*
X56702Y-46445D01*
X56835Y-46500D01*
X56703Y-46555D01*
X56555Y-46702D01*
X56475Y-46895D01*
X56475Y-47104D01*
X56555Y-47297D01*
X56702Y-47445D01*
X56895Y-47525D01*
X57104Y-47525D01*
X57297Y-47445D01*
X57445Y-47298D01*
X57448Y-47290D01*
X60552Y-47290D01*
X60555Y-47297D01*
X60702Y-47445D01*
X60842Y-47503D01*
X60733Y-47548D01*
X60710Y-47639D01*
X61000Y-47929D01*
X61290Y-47639D01*
X61267Y-47548D01*
X61148Y-47506D01*
X61297Y-47445D01*
X61445Y-47298D01*
X61448Y-47290D01*
X62150Y-47290D01*
X62261Y-47268D01*
X62355Y-47205D01*
X62950Y-46610D01*
X62950Y-48710D01*
X62370Y-48710D01*
X62350Y-48710D01*
X62279Y-48710D01*
X61519Y-48710D01*
X61519Y-48074D01*
X61508Y-47870D01*
X61452Y-47733D01*
X61361Y-47710D01*
X61071Y-48000D01*
X61361Y-48290D01*
X61452Y-48267D01*
X61519Y-48074D01*
X61519Y-48710D01*
X61290Y-48710D01*
X61290Y-48361D01*
X61000Y-48071D01*
X60929Y-48142D01*
X60929Y-48000D01*
X60639Y-47710D01*
X60548Y-47733D01*
X60481Y-47926D01*
X60492Y-48130D01*
X60548Y-48267D01*
X60639Y-48290D01*
X60929Y-48000D01*
X60929Y-48142D01*
X60710Y-48361D01*
X60733Y-48452D01*
X60926Y-48519D01*
X61130Y-48508D01*
X61267Y-48452D01*
X61290Y-48361D01*
X61290Y-48710D01*
X59519Y-48710D01*
X59519Y-48074D01*
X59508Y-47870D01*
X59452Y-47733D01*
X59361Y-47710D01*
X59290Y-47781D01*
X59290Y-47639D01*
X59267Y-47548D01*
X59074Y-47481D01*
X58870Y-47492D01*
X58733Y-47548D01*
X58710Y-47639D01*
X59000Y-47929D01*
X59290Y-47639D01*
X59290Y-47781D01*
X59071Y-48000D01*
X59361Y-48290D01*
X59452Y-48267D01*
X59519Y-48074D01*
X59519Y-48710D01*
X59447Y-48710D01*
X59445Y-48703D01*
X59298Y-48555D01*
X59157Y-48496D01*
X59267Y-48452D01*
X59290Y-48361D01*
X59000Y-48071D01*
X58929Y-48142D01*
X58929Y-48000D01*
X58639Y-47710D01*
X58548Y-47733D01*
X58481Y-47926D01*
X58492Y-48130D01*
X58548Y-48267D01*
X58639Y-48290D01*
X58929Y-48000D01*
X58929Y-48142D01*
X58710Y-48361D01*
X58733Y-48452D01*
X58851Y-48493D01*
X58703Y-48555D01*
X58555Y-48702D01*
X58475Y-48895D01*
X58475Y-49104D01*
X58555Y-49297D01*
X58702Y-49445D01*
X58895Y-49525D01*
X59104Y-49525D01*
X59297Y-49445D01*
X59445Y-49298D01*
X59448Y-49290D01*
X62215Y-49290D01*
X62286Y-49303D01*
X61112Y-50477D01*
X61105Y-50475D01*
X60896Y-50475D01*
X60703Y-50555D01*
X60555Y-50702D01*
X60551Y-50710D01*
X57447Y-50710D01*
X57445Y-50703D01*
X57298Y-50555D01*
X57164Y-50499D01*
X57297Y-50445D01*
X57445Y-50298D01*
X57525Y-50105D01*
X57525Y-49896D01*
X57445Y-49703D01*
X57298Y-49555D01*
X57105Y-49475D01*
X56896Y-49475D01*
X56703Y-49555D01*
X56555Y-49702D01*
X56475Y-49895D01*
X56475Y-50104D01*
X56555Y-50297D01*
X56702Y-50445D01*
X56835Y-50500D01*
X56703Y-50555D01*
X56555Y-50702D01*
X56475Y-50895D01*
X56475Y-51104D01*
X56555Y-51297D01*
X56702Y-51445D01*
X56895Y-51525D01*
X57104Y-51525D01*
X57297Y-51445D01*
X57445Y-51298D01*
X57448Y-51290D01*
X60552Y-51290D01*
X60555Y-51297D01*
X60702Y-51445D01*
X60842Y-51503D01*
X60733Y-51548D01*
X60710Y-51639D01*
X61000Y-51929D01*
X61290Y-51639D01*
X61267Y-51548D01*
X61148Y-51506D01*
X61297Y-51445D01*
X61445Y-51298D01*
X61525Y-51105D01*
X61525Y-50896D01*
X61521Y-50888D01*
X62907Y-49503D01*
X62950Y-49503D01*
X62950Y-51592D01*
X61832Y-52710D01*
X61519Y-52710D01*
X61519Y-52074D01*
X61508Y-51870D01*
X61452Y-51733D01*
X61361Y-51710D01*
X61071Y-52000D01*
X61361Y-52290D01*
X61452Y-52267D01*
X61519Y-52074D01*
X61519Y-52710D01*
X61290Y-52710D01*
X61290Y-52361D01*
X61000Y-52071D01*
X60929Y-52142D01*
X60929Y-52000D01*
X60639Y-51710D01*
X60548Y-51733D01*
X60481Y-51926D01*
X60492Y-52130D01*
X60548Y-52267D01*
X60639Y-52290D01*
X60929Y-52000D01*
X60929Y-52142D01*
X60710Y-52361D01*
X60733Y-52452D01*
X60926Y-52519D01*
X61130Y-52508D01*
X61267Y-52452D01*
X61290Y-52361D01*
X61290Y-52710D01*
X59519Y-52710D01*
X59519Y-52074D01*
X59508Y-51870D01*
X59452Y-51733D01*
X59361Y-51710D01*
X59290Y-51781D01*
X59290Y-51639D01*
X59267Y-51548D01*
X59074Y-51481D01*
X58870Y-51492D01*
X58733Y-51548D01*
X58710Y-51639D01*
X59000Y-51929D01*
X59290Y-51639D01*
X59290Y-51781D01*
X59071Y-52000D01*
X59361Y-52290D01*
X59452Y-52267D01*
X59519Y-52074D01*
X59519Y-52710D01*
X59447Y-52710D01*
X59445Y-52703D01*
X59298Y-52555D01*
X59157Y-52496D01*
X59267Y-52452D01*
X59290Y-52361D01*
X59000Y-52071D01*
X58929Y-52142D01*
X58929Y-52000D01*
X58639Y-51710D01*
X58548Y-51733D01*
X58481Y-51926D01*
X58492Y-52130D01*
X58548Y-52267D01*
X58639Y-52290D01*
X58929Y-52000D01*
X58929Y-52142D01*
X58710Y-52361D01*
X58733Y-52452D01*
X58851Y-52493D01*
X58703Y-52555D01*
X58555Y-52702D01*
X58475Y-52895D01*
X58475Y-53104D01*
X58555Y-53297D01*
X58702Y-53445D01*
X58895Y-53525D01*
X59104Y-53525D01*
X59297Y-53445D01*
X59445Y-53298D01*
X59448Y-53290D01*
X61548Y-53290D01*
X60807Y-54031D01*
X60806Y-54031D01*
X60806Y-54032D01*
X60795Y-54043D01*
X60732Y-54137D01*
X60710Y-54248D01*
X60722Y-54308D01*
X60722Y-54547D01*
X60703Y-54555D01*
X60555Y-54702D01*
X60551Y-54710D01*
X57447Y-54710D01*
X57445Y-54703D01*
X57298Y-54555D01*
X57164Y-54499D01*
X57297Y-54445D01*
X57445Y-54298D01*
X57525Y-54105D01*
X57525Y-53896D01*
X57445Y-53703D01*
X57298Y-53555D01*
X57105Y-53475D01*
X56896Y-53475D01*
X56703Y-53555D01*
X56555Y-53702D01*
X56475Y-53895D01*
X56475Y-54104D01*
X56555Y-54297D01*
X56702Y-54445D01*
X56835Y-54500D01*
X56703Y-54555D01*
X56555Y-54702D01*
X56475Y-54895D01*
X56475Y-55104D01*
X56555Y-55297D01*
X56702Y-55445D01*
X56895Y-55525D01*
X57104Y-55525D01*
X57297Y-55445D01*
X57445Y-55298D01*
X57448Y-55290D01*
X60552Y-55290D01*
X60555Y-55297D01*
X60702Y-55445D01*
X60842Y-55503D01*
X60733Y-55548D01*
X60710Y-55639D01*
X61000Y-55929D01*
X61290Y-55639D01*
X61267Y-55548D01*
X61148Y-55506D01*
X61297Y-55445D01*
X61445Y-55298D01*
X61525Y-55105D01*
X61525Y-54896D01*
X61445Y-54703D01*
X61302Y-54559D01*
X61302Y-54356D01*
X62950Y-52708D01*
X62950Y-55430D01*
X61674Y-56707D01*
X61671Y-56710D01*
X61519Y-56710D01*
X61519Y-56074D01*
X61508Y-55870D01*
X61452Y-55733D01*
X61361Y-55710D01*
X61071Y-56000D01*
X61361Y-56290D01*
X61452Y-56267D01*
X61519Y-56074D01*
X61519Y-56710D01*
X61290Y-56710D01*
X61290Y-56361D01*
X61000Y-56071D01*
X60929Y-56142D01*
X60929Y-56000D01*
X60639Y-55710D01*
X60548Y-55733D01*
X60481Y-55926D01*
X60492Y-56130D01*
X60548Y-56267D01*
X60639Y-56290D01*
X60929Y-56000D01*
X60929Y-56142D01*
X60710Y-56361D01*
X60733Y-56452D01*
X60926Y-56519D01*
X61130Y-56508D01*
X61267Y-56452D01*
X61290Y-56361D01*
X61290Y-56710D01*
X59519Y-56710D01*
X59519Y-56074D01*
X59508Y-55870D01*
X59452Y-55733D01*
X59361Y-55710D01*
X59290Y-55781D01*
X59290Y-55639D01*
X59267Y-55548D01*
X59074Y-55481D01*
X58870Y-55492D01*
X58733Y-55548D01*
X58710Y-55639D01*
X59000Y-55929D01*
X59290Y-55639D01*
X59290Y-55781D01*
X59071Y-56000D01*
X59361Y-56290D01*
X59452Y-56267D01*
X59519Y-56074D01*
X59519Y-56710D01*
X59447Y-56710D01*
X59445Y-56703D01*
X59298Y-56555D01*
X59157Y-56496D01*
X59267Y-56452D01*
X59290Y-56361D01*
X59000Y-56071D01*
X58929Y-56142D01*
X58929Y-56000D01*
X58639Y-55710D01*
X58548Y-55733D01*
X58481Y-55926D01*
X58492Y-56130D01*
X58548Y-56267D01*
X58639Y-56290D01*
X58929Y-56000D01*
X58929Y-56142D01*
X58710Y-56361D01*
X58733Y-56452D01*
X58851Y-56493D01*
X58703Y-56555D01*
X58555Y-56702D01*
X58475Y-56895D01*
X58475Y-57104D01*
X58555Y-57297D01*
X58702Y-57445D01*
X58895Y-57525D01*
X59104Y-57525D01*
X59297Y-57445D01*
X59445Y-57298D01*
X59448Y-57290D01*
X61386Y-57290D01*
X60795Y-57881D01*
X60732Y-57975D01*
X60710Y-58086D01*
X60710Y-58552D01*
X60703Y-58555D01*
X60555Y-58702D01*
X60551Y-58710D01*
X57447Y-58710D01*
X57445Y-58703D01*
X57298Y-58555D01*
X57164Y-58499D01*
X57297Y-58445D01*
X57445Y-58298D01*
X57525Y-58105D01*
X57525Y-57896D01*
X57445Y-57703D01*
X57298Y-57555D01*
X57105Y-57475D01*
X56896Y-57475D01*
X56703Y-57555D01*
X56555Y-57702D01*
X56475Y-57895D01*
X56475Y-58104D01*
X56555Y-58297D01*
X56702Y-58445D01*
X56835Y-58500D01*
X56703Y-58555D01*
X56555Y-58702D01*
X56475Y-58895D01*
X56475Y-59104D01*
X56555Y-59297D01*
X56702Y-59445D01*
X56895Y-59525D01*
X57104Y-59525D01*
X57297Y-59445D01*
X57445Y-59298D01*
X57448Y-59290D01*
X60552Y-59290D01*
X60555Y-59297D01*
X60702Y-59445D01*
X60842Y-59503D01*
X60733Y-59548D01*
X60710Y-59639D01*
X61000Y-59929D01*
X61290Y-59639D01*
X61267Y-59548D01*
X61148Y-59506D01*
X61297Y-59445D01*
X61445Y-59298D01*
X61525Y-59105D01*
X61525Y-58896D01*
X61445Y-58703D01*
X61298Y-58555D01*
X61290Y-58551D01*
X61290Y-58206D01*
X62950Y-56546D01*
X62950Y-60675D01*
X61519Y-60675D01*
X61519Y-60074D01*
X61508Y-59870D01*
X61452Y-59733D01*
X61361Y-59710D01*
X61071Y-60000D01*
X61361Y-60290D01*
X61452Y-60267D01*
X61519Y-60074D01*
X61519Y-60675D01*
X61290Y-60675D01*
X61290Y-60361D01*
X61000Y-60071D01*
X60929Y-60142D01*
X60929Y-60000D01*
X60639Y-59710D01*
X60548Y-59733D01*
X60481Y-59926D01*
X60492Y-60130D01*
X60548Y-60267D01*
X60639Y-60290D01*
X60929Y-60000D01*
X60929Y-60142D01*
X60710Y-60361D01*
X60733Y-60452D01*
X60926Y-60519D01*
X61130Y-60508D01*
X61267Y-60452D01*
X61290Y-60361D01*
X61290Y-60675D01*
X52550Y-60675D01*
X52550Y-59284D01*
X52555Y-59297D01*
X52702Y-59445D01*
X52895Y-59525D01*
X53104Y-59525D01*
X53297Y-59445D01*
X53445Y-59298D01*
X53525Y-59105D01*
X53525Y-58896D01*
X53445Y-58703D01*
X53298Y-58555D01*
X53105Y-58475D01*
X52896Y-58475D01*
X52703Y-58555D01*
X52555Y-58702D01*
X52550Y-58714D01*
X52550Y-57284D01*
X52555Y-57297D01*
X52702Y-57445D01*
X52895Y-57525D01*
X53104Y-57525D01*
X53297Y-57445D01*
X53445Y-57298D01*
X53448Y-57290D01*
X54552Y-57290D01*
X54555Y-57297D01*
X54702Y-57445D01*
X54835Y-57500D01*
X54703Y-57555D01*
X54555Y-57702D01*
X54475Y-57895D01*
X54475Y-58104D01*
X54555Y-58297D01*
X54702Y-58445D01*
X54895Y-58525D01*
X55104Y-58525D01*
X55297Y-58445D01*
X55445Y-58298D01*
X55525Y-58105D01*
X55525Y-57896D01*
X55445Y-57703D01*
X55298Y-57555D01*
X55164Y-57499D01*
X55297Y-57445D01*
X55445Y-57298D01*
X55525Y-57105D01*
X55525Y-56896D01*
X55445Y-56703D01*
X55298Y-56555D01*
X55105Y-56475D01*
X54896Y-56475D01*
X54703Y-56555D01*
X54555Y-56702D01*
X54551Y-56710D01*
X53447Y-56710D01*
X53445Y-56703D01*
X53298Y-56555D01*
X53105Y-56475D01*
X52896Y-56475D01*
X52703Y-56555D01*
X52555Y-56702D01*
X52550Y-56714D01*
X52550Y-55284D01*
X52555Y-55297D01*
X52702Y-55445D01*
X52895Y-55525D01*
X53104Y-55525D01*
X53297Y-55445D01*
X53445Y-55298D01*
X53525Y-55105D01*
X53525Y-54896D01*
X53445Y-54703D01*
X53298Y-54555D01*
X53105Y-54475D01*
X52896Y-54475D01*
X52703Y-54555D01*
X52555Y-54702D01*
X52550Y-54714D01*
X52550Y-53284D01*
X52555Y-53297D01*
X52702Y-53445D01*
X52895Y-53525D01*
X53104Y-53525D01*
X53297Y-53445D01*
X53445Y-53298D01*
X53448Y-53290D01*
X54552Y-53290D01*
X54555Y-53297D01*
X54702Y-53445D01*
X54835Y-53500D01*
X54703Y-53555D01*
X54555Y-53702D01*
X54475Y-53895D01*
X54475Y-54104D01*
X54555Y-54297D01*
X54702Y-54445D01*
X54895Y-54525D01*
X55104Y-54525D01*
X55297Y-54445D01*
X55445Y-54298D01*
X55525Y-54105D01*
X55525Y-53896D01*
X55445Y-53703D01*
X55298Y-53555D01*
X55164Y-53499D01*
X55297Y-53445D01*
X55445Y-53298D01*
X55525Y-53105D01*
X55525Y-52896D01*
X55445Y-52703D01*
X55298Y-52555D01*
X55105Y-52475D01*
X54896Y-52475D01*
X54703Y-52555D01*
X54555Y-52702D01*
X54551Y-52710D01*
X53447Y-52710D01*
X53445Y-52703D01*
X53298Y-52555D01*
X53105Y-52475D01*
X52896Y-52475D01*
X52703Y-52555D01*
X52555Y-52702D01*
X52550Y-52714D01*
X52550Y-51284D01*
X52555Y-51297D01*
X52702Y-51445D01*
X52895Y-51525D01*
X53104Y-51525D01*
X53297Y-51445D01*
X53445Y-51298D01*
X53525Y-51105D01*
X53525Y-50896D01*
X53445Y-50703D01*
X53298Y-50555D01*
X53105Y-50475D01*
X52896Y-50475D01*
X52703Y-50555D01*
X52555Y-50702D01*
X52550Y-50714D01*
X52550Y-49284D01*
X52555Y-49297D01*
X52702Y-49445D01*
X52895Y-49525D01*
X53104Y-49525D01*
X53297Y-49445D01*
X53445Y-49298D01*
X53448Y-49290D01*
X54552Y-49290D01*
X54555Y-49297D01*
X54702Y-49445D01*
X54835Y-49500D01*
X54703Y-49555D01*
X54555Y-49702D01*
X54475Y-49895D01*
X54475Y-50104D01*
X54555Y-50297D01*
X54702Y-50445D01*
X54895Y-50525D01*
X55104Y-50525D01*
X55297Y-50445D01*
X55445Y-50298D01*
X55525Y-50105D01*
X55525Y-49896D01*
X55445Y-49703D01*
X55298Y-49555D01*
X55164Y-49499D01*
X55297Y-49445D01*
X55445Y-49298D01*
X55525Y-49105D01*
X55525Y-48896D01*
X55445Y-48703D01*
X55298Y-48555D01*
X55105Y-48475D01*
X54896Y-48475D01*
X54703Y-48555D01*
X54555Y-48702D01*
X54551Y-48710D01*
X53447Y-48710D01*
X53445Y-48703D01*
X53298Y-48555D01*
X53105Y-48475D01*
X52896Y-48475D01*
X52703Y-48555D01*
X52555Y-48702D01*
X52550Y-48714D01*
X52550Y-47284D01*
X52555Y-47297D01*
X52702Y-47445D01*
X52895Y-47525D01*
X53104Y-47525D01*
X53297Y-47445D01*
X53445Y-47298D01*
X53525Y-47105D01*
X53525Y-46896D01*
X53445Y-46703D01*
X53298Y-46555D01*
X53105Y-46475D01*
X52896Y-46475D01*
X52703Y-46555D01*
X52555Y-46702D01*
X52550Y-46714D01*
X52550Y-45284D01*
X52555Y-45297D01*
X52702Y-45445D01*
X52895Y-45525D01*
X53104Y-45525D01*
X53297Y-45445D01*
X53445Y-45298D01*
X53448Y-45290D01*
X54552Y-45290D01*
X54555Y-45297D01*
X54702Y-45445D01*
X54835Y-45500D01*
X54703Y-45555D01*
X54555Y-45702D01*
X54475Y-45895D01*
X54475Y-46104D01*
X54555Y-46297D01*
X54702Y-46445D01*
X54895Y-46525D01*
X55104Y-46525D01*
X55297Y-46445D01*
X55445Y-46298D01*
X55525Y-46105D01*
X55525Y-45896D01*
X55445Y-45703D01*
X55298Y-45555D01*
X55164Y-45499D01*
X55297Y-45445D01*
X55445Y-45298D01*
X55525Y-45105D01*
X55525Y-44896D01*
X55445Y-44703D01*
X55298Y-44555D01*
X55105Y-44475D01*
X54896Y-44475D01*
X54703Y-44555D01*
X54555Y-44702D01*
X54551Y-44710D01*
X53447Y-44710D01*
X53445Y-44703D01*
X53298Y-44555D01*
X53105Y-44475D01*
X52896Y-44475D01*
X52703Y-44555D01*
X52555Y-44702D01*
X52550Y-44714D01*
X52550Y-43284D01*
X52555Y-43297D01*
X52702Y-43445D01*
X52895Y-43525D01*
X53104Y-43525D01*
X53297Y-43445D01*
X53445Y-43298D01*
X53525Y-43105D01*
X53525Y-42896D01*
X53445Y-42703D01*
X53298Y-42555D01*
X53105Y-42475D01*
X52896Y-42475D01*
X52703Y-42555D01*
X52555Y-42702D01*
X52550Y-42714D01*
X52550Y-41284D01*
X52555Y-41297D01*
X52702Y-41445D01*
X52895Y-41525D01*
X53104Y-41525D01*
X53297Y-41445D01*
X53445Y-41298D01*
X53448Y-41290D01*
X54552Y-41290D01*
X54555Y-41297D01*
X54702Y-41445D01*
X54835Y-41500D01*
X54703Y-41555D01*
X54555Y-41702D01*
X54475Y-41895D01*
X54475Y-42104D01*
X54555Y-42297D01*
X54702Y-42445D01*
X54895Y-42525D01*
X55104Y-42525D01*
X55297Y-42445D01*
X55445Y-42298D01*
X55525Y-42105D01*
X55525Y-41896D01*
X55445Y-41703D01*
X55298Y-41555D01*
X55164Y-41499D01*
X55297Y-41445D01*
X55445Y-41298D01*
X55525Y-41105D01*
X55525Y-40896D01*
X55445Y-40703D01*
X55298Y-40555D01*
X55105Y-40475D01*
X54896Y-40475D01*
X54703Y-40555D01*
X54555Y-40702D01*
X54551Y-40710D01*
X53447Y-40710D01*
X53445Y-40703D01*
X53298Y-40555D01*
X53105Y-40475D01*
X52896Y-40475D01*
X52703Y-40555D01*
X52555Y-40702D01*
X52550Y-40714D01*
X52550Y-39284D01*
X52555Y-39297D01*
X52702Y-39445D01*
X52895Y-39525D01*
X53104Y-39525D01*
X53297Y-39445D01*
X53445Y-39298D01*
X53525Y-39105D01*
X53525Y-38896D01*
X53445Y-38703D01*
X53298Y-38555D01*
X53105Y-38475D01*
X52896Y-38475D01*
X52703Y-38555D01*
X52555Y-38702D01*
X52550Y-38714D01*
X52550Y-37284D01*
X52555Y-37297D01*
X52702Y-37445D01*
X52895Y-37525D01*
X53104Y-37525D01*
X53297Y-37445D01*
X53445Y-37298D01*
X53448Y-37290D01*
X54552Y-37290D01*
X54555Y-37297D01*
X54702Y-37445D01*
X54835Y-37500D01*
X54703Y-37555D01*
X54555Y-37702D01*
X54475Y-37895D01*
X54475Y-38104D01*
X54555Y-38297D01*
X54702Y-38445D01*
X54895Y-38525D01*
X55104Y-38525D01*
X55297Y-38445D01*
X55445Y-38298D01*
X55525Y-38105D01*
X55525Y-37896D01*
X55445Y-37703D01*
X55298Y-37555D01*
X55164Y-37499D01*
X55297Y-37445D01*
X55445Y-37298D01*
X55525Y-37105D01*
X55525Y-36896D01*
X55445Y-36703D01*
X55298Y-36555D01*
X55105Y-36475D01*
X54896Y-36475D01*
X54703Y-36555D01*
X54555Y-36702D01*
X54551Y-36710D01*
X53447Y-36710D01*
X53445Y-36703D01*
X53298Y-36555D01*
X53105Y-36475D01*
X52896Y-36475D01*
X52703Y-36555D01*
X52555Y-36702D01*
X52550Y-36714D01*
X52550Y-35284D01*
X52555Y-35297D01*
X52702Y-35445D01*
X52895Y-35525D01*
X53104Y-35525D01*
X53297Y-35445D01*
X53445Y-35298D01*
X53525Y-35105D01*
X53525Y-34896D01*
X53445Y-34703D01*
X53298Y-34555D01*
X53105Y-34475D01*
X52896Y-34475D01*
X52703Y-34555D01*
X52555Y-34702D01*
X52550Y-34714D01*
X52550Y-33284D01*
X52555Y-33297D01*
X52702Y-33445D01*
X52895Y-33525D01*
X53104Y-33525D01*
X53297Y-33445D01*
X53445Y-33298D01*
X53448Y-33290D01*
X54552Y-33290D01*
X54555Y-33297D01*
X54702Y-33445D01*
X54835Y-33500D01*
X54703Y-33555D01*
X54555Y-33702D01*
X54475Y-33895D01*
X54475Y-34104D01*
X54555Y-34297D01*
X54702Y-34445D01*
X54895Y-34525D01*
X55104Y-34525D01*
X55297Y-34445D01*
X55445Y-34298D01*
X55525Y-34105D01*
X55525Y-33896D01*
X55445Y-33703D01*
X55298Y-33555D01*
X55164Y-33499D01*
X55297Y-33445D01*
X55445Y-33298D01*
X55525Y-33105D01*
X55525Y-32896D01*
X55445Y-32703D01*
X55298Y-32555D01*
X55105Y-32475D01*
X54896Y-32475D01*
X54703Y-32555D01*
X54555Y-32702D01*
X54551Y-32710D01*
X53447Y-32710D01*
X53445Y-32703D01*
X53298Y-32555D01*
X53105Y-32475D01*
X52896Y-32475D01*
X52703Y-32555D01*
X52555Y-32702D01*
X52550Y-32714D01*
X52550Y-31284D01*
X52555Y-31297D01*
X52702Y-31445D01*
X52895Y-31525D01*
X53104Y-31525D01*
X53297Y-31445D01*
X53445Y-31298D01*
X53525Y-31105D01*
X53525Y-30896D01*
X53445Y-30703D01*
X53298Y-30555D01*
X53105Y-30475D01*
X52896Y-30475D01*
X52703Y-30555D01*
X52555Y-30702D01*
X52550Y-30714D01*
X52550Y-29284D01*
X52555Y-29297D01*
X52702Y-29445D01*
X52895Y-29525D01*
X53104Y-29525D01*
X53297Y-29445D01*
X53445Y-29298D01*
X53448Y-29290D01*
X54552Y-29290D01*
X54555Y-29297D01*
X54702Y-29445D01*
X54835Y-29500D01*
X54703Y-29555D01*
X54555Y-29702D01*
X54475Y-29895D01*
X54475Y-30104D01*
X54555Y-30297D01*
X54702Y-30445D01*
X54895Y-30525D01*
X55104Y-30525D01*
X55297Y-30445D01*
X55445Y-30298D01*
X55525Y-30105D01*
X55525Y-29896D01*
X55445Y-29703D01*
X55298Y-29555D01*
X55164Y-29499D01*
X55297Y-29445D01*
X55445Y-29298D01*
X55525Y-29105D01*
X55525Y-28896D01*
X55445Y-28703D01*
X55298Y-28555D01*
X55105Y-28475D01*
X54896Y-28475D01*
X54703Y-28555D01*
X54555Y-28702D01*
X54551Y-28710D01*
X53447Y-28710D01*
X53445Y-28703D01*
X53298Y-28555D01*
X53105Y-28475D01*
X52896Y-28475D01*
X52703Y-28555D01*
X52555Y-28702D01*
X52550Y-28714D01*
X52550Y-27325D01*
X76200Y-27325D01*
X76200Y-30682D01*
M02*
