G04 (created by PCBNEW-RS274X (2011-11-30 BZR 3250)-stable) date Mon 09 Jan 2012 02:26:34 AM UTC*
G01*
G70*
G90*
%MOIN*%
G04 Gerber Fmt 3.4, Leading zero omitted, Abs format*
%FSLAX34Y34*%
G04 APERTURE LIST*
%ADD10C,0.006000*%
%ADD11C,0.010000*%
%ADD12C,0.012000*%
%ADD13C,0.000100*%
%ADD14C,0.008000*%
%ADD15C,0.015000*%
%ADD16C,0.005000*%
%ADD17C,0.009900*%
G04 APERTURE END LIST*
G54D10*
G54D11*
X67202Y-56758D02*
X66702Y-56758D01*
X67202Y-56586D02*
X66940Y-56586D01*
X66893Y-56605D01*
X66869Y-56643D01*
X66869Y-56701D01*
X66893Y-56739D01*
X66917Y-56758D01*
X67202Y-56224D02*
X66940Y-56224D01*
X66893Y-56243D01*
X66869Y-56281D01*
X66869Y-56358D01*
X66893Y-56396D01*
X67179Y-56224D02*
X67202Y-56262D01*
X67202Y-56358D01*
X67179Y-56396D01*
X67131Y-56415D01*
X67083Y-56415D01*
X67036Y-56396D01*
X67012Y-56358D01*
X67012Y-56262D01*
X66988Y-56224D01*
X67202Y-56034D02*
X66869Y-56034D01*
X66964Y-56034D02*
X66917Y-56015D01*
X66893Y-55996D01*
X66869Y-55958D01*
X66869Y-55919D01*
X67202Y-55614D02*
X66702Y-55614D01*
X67179Y-55614D02*
X67202Y-55652D01*
X67202Y-55729D01*
X67179Y-55767D01*
X67155Y-55786D01*
X67107Y-55805D01*
X66964Y-55805D01*
X66917Y-55786D01*
X66893Y-55767D01*
X66869Y-55729D01*
X66869Y-55652D01*
X66893Y-55614D01*
X66869Y-55462D02*
X67202Y-55386D01*
X66964Y-55309D01*
X67202Y-55233D01*
X66869Y-55157D01*
X67202Y-54833D02*
X66940Y-54833D01*
X66893Y-54852D01*
X66869Y-54890D01*
X66869Y-54967D01*
X66893Y-55005D01*
X67179Y-54833D02*
X67202Y-54871D01*
X67202Y-54967D01*
X67179Y-55005D01*
X67131Y-55024D01*
X67083Y-55024D01*
X67036Y-55005D01*
X67012Y-54967D01*
X67012Y-54871D01*
X66988Y-54833D01*
X67202Y-54643D02*
X66869Y-54643D01*
X66964Y-54643D02*
X66917Y-54624D01*
X66893Y-54605D01*
X66869Y-54567D01*
X66869Y-54528D01*
X67179Y-54242D02*
X67202Y-54280D01*
X67202Y-54357D01*
X67179Y-54395D01*
X67131Y-54414D01*
X66940Y-54414D01*
X66893Y-54395D01*
X66869Y-54357D01*
X66869Y-54280D01*
X66893Y-54242D01*
X66940Y-54223D01*
X66988Y-54223D01*
X67036Y-54414D01*
X66202Y-57206D02*
X66179Y-57244D01*
X66155Y-57263D01*
X66107Y-57282D01*
X65964Y-57282D01*
X65917Y-57263D01*
X65893Y-57244D01*
X65869Y-57206D01*
X65869Y-57148D01*
X65893Y-57110D01*
X65917Y-57091D01*
X65964Y-57072D01*
X66107Y-57072D01*
X66155Y-57091D01*
X66179Y-57110D01*
X66202Y-57148D01*
X66202Y-57206D01*
X65869Y-56901D02*
X66369Y-56901D01*
X65893Y-56901D02*
X65869Y-56863D01*
X65869Y-56786D01*
X65893Y-56748D01*
X65917Y-56729D01*
X65964Y-56710D01*
X66107Y-56710D01*
X66155Y-56729D01*
X66179Y-56748D01*
X66202Y-56786D01*
X66202Y-56863D01*
X66179Y-56901D01*
X66179Y-56386D02*
X66202Y-56424D01*
X66202Y-56501D01*
X66179Y-56539D01*
X66131Y-56558D01*
X65940Y-56558D01*
X65893Y-56539D01*
X65869Y-56501D01*
X65869Y-56424D01*
X65893Y-56386D01*
X65940Y-56367D01*
X65988Y-56367D01*
X66036Y-56558D01*
X65869Y-56196D02*
X66202Y-56196D01*
X65917Y-56196D02*
X65893Y-56177D01*
X65869Y-56139D01*
X65869Y-56081D01*
X65893Y-56043D01*
X65940Y-56024D01*
X66202Y-56024D01*
X66179Y-55548D02*
X66202Y-55510D01*
X66202Y-55434D01*
X66179Y-55395D01*
X66131Y-55376D01*
X66107Y-55376D01*
X66060Y-55395D01*
X66036Y-55434D01*
X66036Y-55491D01*
X66012Y-55529D01*
X65964Y-55548D01*
X65940Y-55548D01*
X65893Y-55529D01*
X65869Y-55491D01*
X65869Y-55434D01*
X65893Y-55395D01*
X66202Y-55148D02*
X66179Y-55186D01*
X66155Y-55205D01*
X66107Y-55224D01*
X65964Y-55224D01*
X65917Y-55205D01*
X65893Y-55186D01*
X65869Y-55148D01*
X65869Y-55090D01*
X65893Y-55052D01*
X65917Y-55033D01*
X65964Y-55014D01*
X66107Y-55014D01*
X66155Y-55033D01*
X66179Y-55052D01*
X66202Y-55090D01*
X66202Y-55148D01*
X65869Y-54671D02*
X66202Y-54671D01*
X65869Y-54843D02*
X66131Y-54843D01*
X66179Y-54824D01*
X66202Y-54786D01*
X66202Y-54728D01*
X66179Y-54690D01*
X66155Y-54671D01*
X66202Y-54481D02*
X65869Y-54481D01*
X65964Y-54481D02*
X65917Y-54462D01*
X65893Y-54443D01*
X65869Y-54405D01*
X65869Y-54366D01*
X66179Y-54061D02*
X66202Y-54099D01*
X66202Y-54176D01*
X66179Y-54214D01*
X66155Y-54233D01*
X66107Y-54252D01*
X65964Y-54252D01*
X65917Y-54233D01*
X65893Y-54214D01*
X65869Y-54176D01*
X65869Y-54099D01*
X65893Y-54061D01*
X66179Y-53737D02*
X66202Y-53775D01*
X66202Y-53852D01*
X66179Y-53890D01*
X66131Y-53909D01*
X65940Y-53909D01*
X65893Y-53890D01*
X65869Y-53852D01*
X65869Y-53775D01*
X65893Y-53737D01*
X65940Y-53718D01*
X65988Y-53718D01*
X66036Y-53909D01*
G54D12*
X65824Y-52458D02*
X65024Y-52458D01*
X65824Y-52201D02*
X65405Y-52201D01*
X65329Y-52230D01*
X65290Y-52287D01*
X65290Y-52372D01*
X65329Y-52430D01*
X65367Y-52458D01*
X65290Y-52001D02*
X65290Y-51772D01*
X65024Y-51915D02*
X65710Y-51915D01*
X65786Y-51887D01*
X65824Y-51829D01*
X65824Y-51772D01*
X65290Y-51658D02*
X65290Y-51429D01*
X65024Y-51572D02*
X65710Y-51572D01*
X65786Y-51544D01*
X65824Y-51486D01*
X65824Y-51429D01*
X65290Y-51229D02*
X66090Y-51229D01*
X65329Y-51229D02*
X65290Y-51172D01*
X65290Y-51058D01*
X65329Y-51001D01*
X65367Y-50972D01*
X65443Y-50943D01*
X65671Y-50943D01*
X65748Y-50972D01*
X65786Y-51001D01*
X65824Y-51058D01*
X65824Y-51172D01*
X65786Y-51229D01*
X65786Y-50715D02*
X65824Y-50658D01*
X65824Y-50543D01*
X65786Y-50486D01*
X65710Y-50458D01*
X65671Y-50458D01*
X65595Y-50486D01*
X65557Y-50543D01*
X65557Y-50629D01*
X65519Y-50686D01*
X65443Y-50715D01*
X65405Y-50715D01*
X65329Y-50686D01*
X65290Y-50629D01*
X65290Y-50543D01*
X65329Y-50486D01*
X65748Y-50200D02*
X65786Y-50172D01*
X65824Y-50200D01*
X65786Y-50229D01*
X65748Y-50200D01*
X65824Y-50200D01*
X65329Y-50200D02*
X65367Y-50172D01*
X65405Y-50200D01*
X65367Y-50229D01*
X65329Y-50200D01*
X65405Y-50200D01*
X64986Y-49486D02*
X66014Y-50000D01*
X64986Y-48857D02*
X66014Y-49371D01*
X65290Y-48399D02*
X65938Y-48399D01*
X66014Y-48428D01*
X66052Y-48456D01*
X66090Y-48513D01*
X66090Y-48599D01*
X66052Y-48656D01*
X65786Y-48399D02*
X65824Y-48456D01*
X65824Y-48570D01*
X65786Y-48628D01*
X65748Y-48656D01*
X65671Y-48685D01*
X65443Y-48685D01*
X65367Y-48656D01*
X65329Y-48628D01*
X65290Y-48570D01*
X65290Y-48456D01*
X65329Y-48399D01*
X65824Y-48113D02*
X65290Y-48113D01*
X65024Y-48113D02*
X65062Y-48142D01*
X65100Y-48113D01*
X65062Y-48085D01*
X65024Y-48113D01*
X65100Y-48113D01*
X65290Y-47913D02*
X65290Y-47684D01*
X65024Y-47827D02*
X65710Y-47827D01*
X65786Y-47799D01*
X65824Y-47741D01*
X65824Y-47684D01*
X65824Y-47484D02*
X65024Y-47484D01*
X65824Y-47227D02*
X65405Y-47227D01*
X65329Y-47256D01*
X65290Y-47313D01*
X65290Y-47398D01*
X65329Y-47456D01*
X65367Y-47484D01*
X65290Y-46684D02*
X65824Y-46684D01*
X65290Y-46941D02*
X65710Y-46941D01*
X65786Y-46913D01*
X65824Y-46855D01*
X65824Y-46770D01*
X65786Y-46713D01*
X65748Y-46684D01*
X65824Y-46398D02*
X65024Y-46398D01*
X65329Y-46398D02*
X65290Y-46341D01*
X65290Y-46227D01*
X65329Y-46170D01*
X65367Y-46141D01*
X65443Y-46112D01*
X65671Y-46112D01*
X65748Y-46141D01*
X65786Y-46170D01*
X65824Y-46227D01*
X65824Y-46341D01*
X65786Y-46398D01*
X65748Y-45855D02*
X65786Y-45827D01*
X65824Y-45855D01*
X65786Y-45884D01*
X65748Y-45855D01*
X65824Y-45855D01*
X65786Y-45312D02*
X65824Y-45369D01*
X65824Y-45483D01*
X65786Y-45541D01*
X65748Y-45569D01*
X65671Y-45598D01*
X65443Y-45598D01*
X65367Y-45569D01*
X65329Y-45541D01*
X65290Y-45483D01*
X65290Y-45369D01*
X65329Y-45312D01*
X65824Y-44969D02*
X65786Y-45027D01*
X65748Y-45055D01*
X65671Y-45084D01*
X65443Y-45084D01*
X65367Y-45055D01*
X65329Y-45027D01*
X65290Y-44969D01*
X65290Y-44884D01*
X65329Y-44827D01*
X65367Y-44798D01*
X65443Y-44769D01*
X65671Y-44769D01*
X65748Y-44798D01*
X65786Y-44827D01*
X65824Y-44884D01*
X65824Y-44969D01*
X65824Y-44512D02*
X65290Y-44512D01*
X65367Y-44512D02*
X65329Y-44484D01*
X65290Y-44426D01*
X65290Y-44341D01*
X65329Y-44284D01*
X65405Y-44255D01*
X65824Y-44255D01*
X65405Y-44255D02*
X65329Y-44226D01*
X65290Y-44169D01*
X65290Y-44084D01*
X65329Y-44026D01*
X65405Y-43998D01*
X65824Y-43998D01*
X64986Y-43284D02*
X66014Y-43798D01*
X65786Y-42855D02*
X65824Y-42912D01*
X65824Y-43026D01*
X65786Y-43083D01*
X65710Y-43112D01*
X65405Y-43112D01*
X65329Y-43083D01*
X65290Y-43026D01*
X65290Y-42912D01*
X65329Y-42855D01*
X65405Y-42826D01*
X65481Y-42826D01*
X65557Y-43112D01*
X65824Y-42569D02*
X65290Y-42569D01*
X65443Y-42569D02*
X65367Y-42541D01*
X65329Y-42512D01*
X65290Y-42455D01*
X65290Y-42398D01*
X65824Y-42198D02*
X65290Y-42198D01*
X65024Y-42198D02*
X65062Y-42227D01*
X65100Y-42198D01*
X65062Y-42170D01*
X65024Y-42198D01*
X65100Y-42198D01*
X65786Y-41655D02*
X65824Y-41712D01*
X65824Y-41826D01*
X65786Y-41884D01*
X65748Y-41912D01*
X65671Y-41941D01*
X65443Y-41941D01*
X65367Y-41912D01*
X65329Y-41884D01*
X65290Y-41826D01*
X65290Y-41712D01*
X65329Y-41655D01*
X65824Y-41398D02*
X65024Y-41398D01*
X65824Y-41141D02*
X65405Y-41141D01*
X65329Y-41170D01*
X65290Y-41227D01*
X65290Y-41312D01*
X65329Y-41370D01*
X65367Y-41398D01*
X65786Y-40627D02*
X65824Y-40684D01*
X65824Y-40798D01*
X65786Y-40855D01*
X65710Y-40884D01*
X65405Y-40884D01*
X65329Y-40855D01*
X65290Y-40798D01*
X65290Y-40684D01*
X65329Y-40627D01*
X65405Y-40598D01*
X65481Y-40598D01*
X65557Y-40884D01*
X65824Y-40341D02*
X65290Y-40341D01*
X65443Y-40341D02*
X65367Y-40313D01*
X65329Y-40284D01*
X65290Y-40227D01*
X65290Y-40170D01*
X65824Y-39970D02*
X65290Y-39970D01*
X65367Y-39970D02*
X65329Y-39942D01*
X65290Y-39884D01*
X65290Y-39799D01*
X65329Y-39742D01*
X65405Y-39713D01*
X65824Y-39713D01*
X65405Y-39713D02*
X65329Y-39684D01*
X65290Y-39627D01*
X65290Y-39542D01*
X65329Y-39484D01*
X65405Y-39456D01*
X65824Y-39456D01*
X65824Y-38913D02*
X65405Y-38913D01*
X65329Y-38942D01*
X65290Y-38999D01*
X65290Y-39113D01*
X65329Y-39170D01*
X65786Y-38913D02*
X65824Y-38970D01*
X65824Y-39113D01*
X65786Y-39170D01*
X65710Y-39199D01*
X65633Y-39199D01*
X65557Y-39170D01*
X65519Y-39113D01*
X65519Y-38970D01*
X65481Y-38913D01*
X65290Y-38627D02*
X65824Y-38627D01*
X65367Y-38627D02*
X65329Y-38599D01*
X65290Y-38541D01*
X65290Y-38456D01*
X65329Y-38399D01*
X65405Y-38370D01*
X65824Y-38370D01*
X64986Y-37656D02*
X66014Y-38170D01*
X65786Y-37227D02*
X65824Y-37284D01*
X65824Y-37398D01*
X65786Y-37455D01*
X65710Y-37484D01*
X65405Y-37484D01*
X65329Y-37455D01*
X65290Y-37398D01*
X65290Y-37284D01*
X65329Y-37227D01*
X65405Y-37198D01*
X65481Y-37198D01*
X65557Y-37484D01*
X65786Y-36713D02*
X65824Y-36770D01*
X65824Y-36884D01*
X65786Y-36941D01*
X65710Y-36970D01*
X65405Y-36970D01*
X65329Y-36941D01*
X65290Y-36884D01*
X65290Y-36770D01*
X65329Y-36713D01*
X65405Y-36684D01*
X65481Y-36684D01*
X65557Y-36970D01*
X65290Y-36170D02*
X65938Y-36170D01*
X66014Y-36199D01*
X66052Y-36227D01*
X66090Y-36284D01*
X66090Y-36370D01*
X66052Y-36427D01*
X65786Y-36170D02*
X65824Y-36227D01*
X65824Y-36341D01*
X65786Y-36399D01*
X65748Y-36427D01*
X65671Y-36456D01*
X65443Y-36456D01*
X65367Y-36427D01*
X65329Y-36399D01*
X65290Y-36341D01*
X65290Y-36227D01*
X65329Y-36170D01*
X65519Y-35884D02*
X65519Y-35427D01*
X65824Y-35141D02*
X65290Y-35141D01*
X65367Y-35141D02*
X65329Y-35113D01*
X65290Y-35055D01*
X65290Y-34970D01*
X65329Y-34913D01*
X65405Y-34884D01*
X65824Y-34884D01*
X65405Y-34884D02*
X65329Y-34855D01*
X65290Y-34798D01*
X65290Y-34713D01*
X65329Y-34655D01*
X65405Y-34627D01*
X65824Y-34627D01*
X65824Y-34255D02*
X65786Y-34313D01*
X65748Y-34341D01*
X65671Y-34370D01*
X65443Y-34370D01*
X65367Y-34341D01*
X65329Y-34313D01*
X65290Y-34255D01*
X65290Y-34170D01*
X65329Y-34113D01*
X65367Y-34084D01*
X65443Y-34055D01*
X65671Y-34055D01*
X65748Y-34084D01*
X65786Y-34113D01*
X65824Y-34170D01*
X65824Y-34255D01*
X65290Y-33541D02*
X65824Y-33541D01*
X65290Y-33798D02*
X65710Y-33798D01*
X65786Y-33770D01*
X65824Y-33712D01*
X65824Y-33627D01*
X65786Y-33570D01*
X65748Y-33541D01*
X65786Y-33284D02*
X65824Y-33227D01*
X65824Y-33112D01*
X65786Y-33055D01*
X65710Y-33027D01*
X65671Y-33027D01*
X65595Y-33055D01*
X65557Y-33112D01*
X65557Y-33198D01*
X65519Y-33255D01*
X65443Y-33284D01*
X65405Y-33284D01*
X65329Y-33255D01*
X65290Y-33198D01*
X65290Y-33112D01*
X65329Y-33055D01*
X65786Y-32541D02*
X65824Y-32598D01*
X65824Y-32712D01*
X65786Y-32769D01*
X65710Y-32798D01*
X65405Y-32798D01*
X65329Y-32769D01*
X65290Y-32712D01*
X65290Y-32598D01*
X65329Y-32541D01*
X65405Y-32512D01*
X65481Y-32512D01*
X65557Y-32798D01*
X64286Y-52071D02*
X64324Y-52128D01*
X64324Y-52242D01*
X64286Y-52299D01*
X64210Y-52328D01*
X63905Y-52328D01*
X63829Y-52299D01*
X63790Y-52242D01*
X63790Y-52128D01*
X63829Y-52071D01*
X63905Y-52042D01*
X63981Y-52042D01*
X64057Y-52328D01*
X64286Y-51557D02*
X64324Y-51614D01*
X64324Y-51728D01*
X64286Y-51785D01*
X64210Y-51814D01*
X63905Y-51814D01*
X63829Y-51785D01*
X63790Y-51728D01*
X63790Y-51614D01*
X63829Y-51557D01*
X63905Y-51528D01*
X63981Y-51528D01*
X64057Y-51814D01*
X63790Y-51014D02*
X64438Y-51014D01*
X64514Y-51043D01*
X64552Y-51071D01*
X64590Y-51128D01*
X64590Y-51214D01*
X64552Y-51271D01*
X64286Y-51014D02*
X64324Y-51071D01*
X64324Y-51185D01*
X64286Y-51243D01*
X64248Y-51271D01*
X64171Y-51300D01*
X63943Y-51300D01*
X63867Y-51271D01*
X63829Y-51243D01*
X63790Y-51185D01*
X63790Y-51071D01*
X63829Y-51014D01*
X64019Y-50728D02*
X64019Y-50271D01*
X64324Y-49985D02*
X63790Y-49985D01*
X63867Y-49985D02*
X63829Y-49957D01*
X63790Y-49899D01*
X63790Y-49814D01*
X63829Y-49757D01*
X63905Y-49728D01*
X64324Y-49728D01*
X63905Y-49728D02*
X63829Y-49699D01*
X63790Y-49642D01*
X63790Y-49557D01*
X63829Y-49499D01*
X63905Y-49471D01*
X64324Y-49471D01*
X64324Y-49099D02*
X64286Y-49157D01*
X64248Y-49185D01*
X64171Y-49214D01*
X63943Y-49214D01*
X63867Y-49185D01*
X63829Y-49157D01*
X63790Y-49099D01*
X63790Y-49014D01*
X63829Y-48957D01*
X63867Y-48928D01*
X63943Y-48899D01*
X64171Y-48899D01*
X64248Y-48928D01*
X64286Y-48957D01*
X64324Y-49014D01*
X64324Y-49099D01*
X63790Y-48385D02*
X64324Y-48385D01*
X63790Y-48642D02*
X64210Y-48642D01*
X64286Y-48614D01*
X64324Y-48556D01*
X64324Y-48471D01*
X64286Y-48414D01*
X64248Y-48385D01*
X64286Y-48128D02*
X64324Y-48071D01*
X64324Y-47956D01*
X64286Y-47899D01*
X64210Y-47871D01*
X64171Y-47871D01*
X64095Y-47899D01*
X64057Y-47956D01*
X64057Y-48042D01*
X64019Y-48099D01*
X63943Y-48128D01*
X63905Y-48128D01*
X63829Y-48099D01*
X63790Y-48042D01*
X63790Y-47956D01*
X63829Y-47899D01*
X64286Y-47385D02*
X64324Y-47442D01*
X64324Y-47556D01*
X64286Y-47613D01*
X64210Y-47642D01*
X63905Y-47642D01*
X63829Y-47613D01*
X63790Y-47556D01*
X63790Y-47442D01*
X63829Y-47385D01*
X63905Y-47356D01*
X63981Y-47356D01*
X64057Y-47642D01*
X64324Y-46642D02*
X63790Y-46642D01*
X63943Y-46642D02*
X63867Y-46614D01*
X63829Y-46585D01*
X63790Y-46528D01*
X63790Y-46471D01*
X64286Y-46043D02*
X64324Y-46100D01*
X64324Y-46214D01*
X64286Y-46271D01*
X64210Y-46300D01*
X63905Y-46300D01*
X63829Y-46271D01*
X63790Y-46214D01*
X63790Y-46100D01*
X63829Y-46043D01*
X63905Y-46014D01*
X63981Y-46014D01*
X64057Y-46300D01*
X63790Y-45814D02*
X64324Y-45671D01*
X63790Y-45529D01*
X63524Y-44729D02*
X63524Y-44672D01*
X63562Y-44615D01*
X63600Y-44586D01*
X63676Y-44557D01*
X63829Y-44529D01*
X64019Y-44529D01*
X64171Y-44557D01*
X64248Y-44586D01*
X64286Y-44615D01*
X64324Y-44672D01*
X64324Y-44729D01*
X64286Y-44786D01*
X64248Y-44815D01*
X64171Y-44843D01*
X64019Y-44872D01*
X63829Y-44872D01*
X63676Y-44843D01*
X63600Y-44815D01*
X63562Y-44786D01*
X63524Y-44729D01*
X64248Y-44272D02*
X64286Y-44244D01*
X64324Y-44272D01*
X64286Y-44301D01*
X64248Y-44272D01*
X64324Y-44272D01*
X63524Y-43872D02*
X63524Y-43815D01*
X63562Y-43758D01*
X63600Y-43729D01*
X63676Y-43700D01*
X63829Y-43672D01*
X64019Y-43672D01*
X64171Y-43700D01*
X64248Y-43729D01*
X64286Y-43758D01*
X64324Y-43815D01*
X64324Y-43872D01*
X64286Y-43929D01*
X64248Y-43958D01*
X64171Y-43986D01*
X64019Y-44015D01*
X63829Y-44015D01*
X63676Y-43986D01*
X63600Y-43958D01*
X63562Y-43929D01*
X63524Y-43872D01*
X35738Y-32702D02*
X35738Y-32202D01*
X35976Y-32702D02*
X35976Y-32202D01*
X36262Y-32702D01*
X36262Y-32202D01*
X36571Y-32417D02*
X36524Y-32393D01*
X36500Y-32369D01*
X36476Y-32321D01*
X36476Y-32298D01*
X36500Y-32250D01*
X36524Y-32226D01*
X36571Y-32202D01*
X36667Y-32202D01*
X36714Y-32226D01*
X36738Y-32250D01*
X36762Y-32298D01*
X36762Y-32321D01*
X36738Y-32369D01*
X36714Y-32393D01*
X36667Y-32417D01*
X36571Y-32417D01*
X36524Y-32440D01*
X36500Y-32464D01*
X36476Y-32512D01*
X36476Y-32607D01*
X36500Y-32655D01*
X36524Y-32679D01*
X36571Y-32702D01*
X36667Y-32702D01*
X36714Y-32679D01*
X36738Y-32655D01*
X36762Y-32607D01*
X36762Y-32512D01*
X36738Y-32464D01*
X36714Y-32440D01*
X36667Y-32417D01*
X36976Y-32702D02*
X36976Y-32202D01*
X37262Y-32702D01*
X37262Y-32202D01*
X35750Y-33702D02*
X35750Y-33202D01*
X35988Y-33702D02*
X35988Y-33202D01*
X36274Y-33702D01*
X36274Y-33202D01*
X36583Y-33417D02*
X36536Y-33393D01*
X36512Y-33369D01*
X36488Y-33321D01*
X36488Y-33298D01*
X36512Y-33250D01*
X36536Y-33226D01*
X36583Y-33202D01*
X36679Y-33202D01*
X36726Y-33226D01*
X36750Y-33250D01*
X36774Y-33298D01*
X36774Y-33321D01*
X36750Y-33369D01*
X36726Y-33393D01*
X36679Y-33417D01*
X36583Y-33417D01*
X36536Y-33440D01*
X36512Y-33464D01*
X36488Y-33512D01*
X36488Y-33607D01*
X36512Y-33655D01*
X36536Y-33679D01*
X36583Y-33702D01*
X36679Y-33702D01*
X36726Y-33679D01*
X36750Y-33655D01*
X36774Y-33607D01*
X36774Y-33512D01*
X36750Y-33464D01*
X36726Y-33440D01*
X36679Y-33417D01*
X36988Y-33702D02*
X36988Y-33202D01*
X37179Y-33202D01*
X37226Y-33226D01*
X37250Y-33250D01*
X37274Y-33298D01*
X37274Y-33369D01*
X37250Y-33417D01*
X37226Y-33440D01*
X37179Y-33464D01*
X36988Y-33464D01*
X35738Y-34702D02*
X35738Y-34202D01*
X35976Y-34702D02*
X35976Y-34202D01*
X36262Y-34702D01*
X36262Y-34202D01*
X36452Y-34202D02*
X36786Y-34202D01*
X36571Y-34702D01*
X36976Y-34702D02*
X36976Y-34202D01*
X37262Y-34702D01*
X37262Y-34202D01*
X35750Y-35702D02*
X35750Y-35202D01*
X35988Y-35702D02*
X35988Y-35202D01*
X36274Y-35702D01*
X36274Y-35202D01*
X36464Y-35202D02*
X36798Y-35202D01*
X36583Y-35702D01*
X36988Y-35702D02*
X36988Y-35202D01*
X37179Y-35202D01*
X37226Y-35226D01*
X37250Y-35250D01*
X37274Y-35298D01*
X37274Y-35369D01*
X37250Y-35417D01*
X37226Y-35440D01*
X37179Y-35464D01*
X36988Y-35464D01*
X35738Y-36702D02*
X35738Y-36202D01*
X35976Y-36702D02*
X35976Y-36202D01*
X36262Y-36702D01*
X36262Y-36202D01*
X36714Y-36202D02*
X36619Y-36202D01*
X36571Y-36226D01*
X36548Y-36250D01*
X36500Y-36321D01*
X36476Y-36417D01*
X36476Y-36607D01*
X36500Y-36655D01*
X36524Y-36679D01*
X36571Y-36702D01*
X36667Y-36702D01*
X36714Y-36679D01*
X36738Y-36655D01*
X36762Y-36607D01*
X36762Y-36488D01*
X36738Y-36440D01*
X36714Y-36417D01*
X36667Y-36393D01*
X36571Y-36393D01*
X36524Y-36417D01*
X36500Y-36440D01*
X36476Y-36488D01*
X36976Y-36702D02*
X36976Y-36202D01*
X37262Y-36702D01*
X37262Y-36202D01*
X35750Y-37702D02*
X35750Y-37202D01*
X35988Y-37702D02*
X35988Y-37202D01*
X36274Y-37702D01*
X36274Y-37202D01*
X36726Y-37202D02*
X36631Y-37202D01*
X36583Y-37226D01*
X36560Y-37250D01*
X36512Y-37321D01*
X36488Y-37417D01*
X36488Y-37607D01*
X36512Y-37655D01*
X36536Y-37679D01*
X36583Y-37702D01*
X36679Y-37702D01*
X36726Y-37679D01*
X36750Y-37655D01*
X36774Y-37607D01*
X36774Y-37488D01*
X36750Y-37440D01*
X36726Y-37417D01*
X36679Y-37393D01*
X36583Y-37393D01*
X36536Y-37417D01*
X36512Y-37440D01*
X36488Y-37488D01*
X36988Y-37702D02*
X36988Y-37202D01*
X37179Y-37202D01*
X37226Y-37226D01*
X37250Y-37250D01*
X37274Y-37298D01*
X37274Y-37369D01*
X37250Y-37417D01*
X37226Y-37440D01*
X37179Y-37464D01*
X36988Y-37464D01*
X35738Y-38702D02*
X35738Y-38202D01*
X35976Y-38702D02*
X35976Y-38202D01*
X36262Y-38702D01*
X36262Y-38202D01*
X36738Y-38202D02*
X36500Y-38202D01*
X36476Y-38440D01*
X36500Y-38417D01*
X36548Y-38393D01*
X36667Y-38393D01*
X36714Y-38417D01*
X36738Y-38440D01*
X36762Y-38488D01*
X36762Y-38607D01*
X36738Y-38655D01*
X36714Y-38679D01*
X36667Y-38702D01*
X36548Y-38702D01*
X36500Y-38679D01*
X36476Y-38655D01*
X36976Y-38702D02*
X36976Y-38202D01*
X37262Y-38702D01*
X37262Y-38202D01*
X35750Y-39702D02*
X35750Y-39202D01*
X35988Y-39702D02*
X35988Y-39202D01*
X36274Y-39702D01*
X36274Y-39202D01*
X36750Y-39202D02*
X36512Y-39202D01*
X36488Y-39440D01*
X36512Y-39417D01*
X36560Y-39393D01*
X36679Y-39393D01*
X36726Y-39417D01*
X36750Y-39440D01*
X36774Y-39488D01*
X36774Y-39607D01*
X36750Y-39655D01*
X36726Y-39679D01*
X36679Y-39702D01*
X36560Y-39702D01*
X36512Y-39679D01*
X36488Y-39655D01*
X36988Y-39702D02*
X36988Y-39202D01*
X37179Y-39202D01*
X37226Y-39226D01*
X37250Y-39250D01*
X37274Y-39298D01*
X37274Y-39369D01*
X37250Y-39417D01*
X37226Y-39440D01*
X37179Y-39464D01*
X36988Y-39464D01*
X35738Y-48702D02*
X35738Y-48202D01*
X35976Y-48702D02*
X35976Y-48202D01*
X36262Y-48702D01*
X36262Y-48202D01*
X36714Y-48369D02*
X36714Y-48702D01*
X36595Y-48179D02*
X36476Y-48536D01*
X36786Y-48536D01*
X36976Y-48702D02*
X36976Y-48202D01*
X37262Y-48702D01*
X37262Y-48202D01*
X35750Y-49702D02*
X35750Y-49202D01*
X35988Y-49702D02*
X35988Y-49202D01*
X36274Y-49702D01*
X36274Y-49202D01*
X36726Y-49369D02*
X36726Y-49702D01*
X36607Y-49179D02*
X36488Y-49536D01*
X36798Y-49536D01*
X36988Y-49702D02*
X36988Y-49202D01*
X37179Y-49202D01*
X37226Y-49226D01*
X37250Y-49250D01*
X37274Y-49298D01*
X37274Y-49369D01*
X37250Y-49417D01*
X37226Y-49440D01*
X37179Y-49464D01*
X36988Y-49464D01*
X35738Y-50702D02*
X35738Y-50202D01*
X35976Y-50702D02*
X35976Y-50202D01*
X36262Y-50702D01*
X36262Y-50202D01*
X36452Y-50202D02*
X36762Y-50202D01*
X36595Y-50393D01*
X36667Y-50393D01*
X36714Y-50417D01*
X36738Y-50440D01*
X36762Y-50488D01*
X36762Y-50607D01*
X36738Y-50655D01*
X36714Y-50679D01*
X36667Y-50702D01*
X36524Y-50702D01*
X36476Y-50679D01*
X36452Y-50655D01*
X36976Y-50702D02*
X36976Y-50202D01*
X37262Y-50702D01*
X37262Y-50202D01*
X35750Y-51702D02*
X35750Y-51202D01*
X35988Y-51702D02*
X35988Y-51202D01*
X36274Y-51702D01*
X36274Y-51202D01*
X36464Y-51202D02*
X36774Y-51202D01*
X36607Y-51393D01*
X36679Y-51393D01*
X36726Y-51417D01*
X36750Y-51440D01*
X36774Y-51488D01*
X36774Y-51607D01*
X36750Y-51655D01*
X36726Y-51679D01*
X36679Y-51702D01*
X36536Y-51702D01*
X36488Y-51679D01*
X36464Y-51655D01*
X36988Y-51702D02*
X36988Y-51202D01*
X37179Y-51202D01*
X37226Y-51226D01*
X37250Y-51250D01*
X37274Y-51298D01*
X37274Y-51369D01*
X37250Y-51417D01*
X37226Y-51440D01*
X37179Y-51464D01*
X36988Y-51464D01*
X35738Y-52702D02*
X35738Y-52202D01*
X35976Y-52702D02*
X35976Y-52202D01*
X36262Y-52702D01*
X36262Y-52202D01*
X36476Y-52250D02*
X36500Y-52226D01*
X36548Y-52202D01*
X36667Y-52202D01*
X36714Y-52226D01*
X36738Y-52250D01*
X36762Y-52298D01*
X36762Y-52345D01*
X36738Y-52417D01*
X36452Y-52702D01*
X36762Y-52702D01*
X36976Y-52702D02*
X36976Y-52202D01*
X37262Y-52702D01*
X37262Y-52202D01*
X35750Y-53702D02*
X35750Y-53202D01*
X35988Y-53702D02*
X35988Y-53202D01*
X36274Y-53702D01*
X36274Y-53202D01*
X36488Y-53250D02*
X36512Y-53226D01*
X36560Y-53202D01*
X36679Y-53202D01*
X36726Y-53226D01*
X36750Y-53250D01*
X36774Y-53298D01*
X36774Y-53345D01*
X36750Y-53417D01*
X36464Y-53702D01*
X36774Y-53702D01*
X36988Y-53702D02*
X36988Y-53202D01*
X37179Y-53202D01*
X37226Y-53226D01*
X37250Y-53250D01*
X37274Y-53298D01*
X37274Y-53369D01*
X37250Y-53417D01*
X37226Y-53440D01*
X37179Y-53464D01*
X36988Y-53464D01*
X35738Y-54702D02*
X35738Y-54202D01*
X35976Y-54702D02*
X35976Y-54202D01*
X36262Y-54702D01*
X36262Y-54202D01*
X36762Y-54702D02*
X36476Y-54702D01*
X36619Y-54702D02*
X36619Y-54202D01*
X36571Y-54274D01*
X36524Y-54321D01*
X36476Y-54345D01*
X36976Y-54702D02*
X36976Y-54202D01*
X37262Y-54702D01*
X37262Y-54202D01*
X35750Y-55702D02*
X35750Y-55202D01*
X35988Y-55702D02*
X35988Y-55202D01*
X36274Y-55702D01*
X36274Y-55202D01*
X36774Y-55702D02*
X36488Y-55702D01*
X36631Y-55702D02*
X36631Y-55202D01*
X36583Y-55274D01*
X36536Y-55321D01*
X36488Y-55345D01*
X36988Y-55702D02*
X36988Y-55202D01*
X37179Y-55202D01*
X37226Y-55226D01*
X37250Y-55250D01*
X37274Y-55298D01*
X37274Y-55369D01*
X37250Y-55417D01*
X37226Y-55440D01*
X37179Y-55464D01*
X36988Y-55464D01*
X76480Y-52832D02*
X76480Y-52332D01*
X76599Y-52332D01*
X76671Y-52356D01*
X76718Y-52404D01*
X76742Y-52451D01*
X76766Y-52547D01*
X76766Y-52618D01*
X76742Y-52713D01*
X76718Y-52761D01*
X76671Y-52809D01*
X76599Y-52832D01*
X76480Y-52832D01*
X76980Y-52832D02*
X76980Y-52332D01*
X77218Y-52832D02*
X77218Y-52332D01*
X77504Y-52832D01*
X77504Y-52332D01*
X76361Y-52081D02*
X77623Y-52081D01*
X75710Y-51848D02*
X75710Y-51348D01*
X75901Y-51348D01*
X75948Y-51372D01*
X75972Y-51396D01*
X75996Y-51444D01*
X75996Y-51515D01*
X75972Y-51563D01*
X75948Y-51586D01*
X75901Y-51610D01*
X75710Y-51610D01*
X76162Y-51348D02*
X76281Y-51848D01*
X76377Y-51491D01*
X76472Y-51848D01*
X76591Y-51348D01*
X76781Y-51848D02*
X76781Y-51348D01*
X76900Y-51348D01*
X76972Y-51372D01*
X77019Y-51420D01*
X77043Y-51467D01*
X77067Y-51563D01*
X77067Y-51634D01*
X77043Y-51729D01*
X77019Y-51777D01*
X76972Y-51825D01*
X76900Y-51848D01*
X76781Y-51848D01*
X77281Y-51848D02*
X77281Y-51348D01*
X77567Y-51848D01*
X77567Y-51348D01*
X75591Y-51097D02*
X77686Y-51097D01*
X75873Y-50824D02*
X75706Y-50586D01*
X75587Y-50824D02*
X75587Y-50324D01*
X75778Y-50324D01*
X75825Y-50348D01*
X75849Y-50372D01*
X75873Y-50420D01*
X75873Y-50491D01*
X75849Y-50539D01*
X75825Y-50562D01*
X75778Y-50586D01*
X75587Y-50586D01*
X76087Y-50562D02*
X76254Y-50562D01*
X76325Y-50824D02*
X76087Y-50824D01*
X76087Y-50324D01*
X76325Y-50324D01*
X76515Y-50801D02*
X76587Y-50824D01*
X76706Y-50824D01*
X76753Y-50801D01*
X76777Y-50777D01*
X76801Y-50729D01*
X76801Y-50682D01*
X76777Y-50634D01*
X76753Y-50610D01*
X76706Y-50586D01*
X76610Y-50562D01*
X76563Y-50539D01*
X76539Y-50515D01*
X76515Y-50467D01*
X76515Y-50420D01*
X76539Y-50372D01*
X76563Y-50348D01*
X76610Y-50324D01*
X76730Y-50324D01*
X76801Y-50348D01*
X77015Y-50562D02*
X77182Y-50562D01*
X77253Y-50824D02*
X77015Y-50824D01*
X77015Y-50324D01*
X77253Y-50324D01*
X77396Y-50324D02*
X77681Y-50324D01*
X77538Y-50824D02*
X77538Y-50324D01*
X75468Y-50073D02*
X77729Y-50073D01*
X75762Y-49679D02*
X75834Y-49702D01*
X75953Y-49702D01*
X76000Y-49679D01*
X76024Y-49655D01*
X76048Y-49607D01*
X76048Y-49560D01*
X76024Y-49512D01*
X76000Y-49488D01*
X75953Y-49464D01*
X75857Y-49440D01*
X75810Y-49417D01*
X75786Y-49393D01*
X75762Y-49345D01*
X75762Y-49298D01*
X75786Y-49250D01*
X75810Y-49226D01*
X75857Y-49202D01*
X75977Y-49202D01*
X76048Y-49226D01*
X76191Y-49202D02*
X76476Y-49202D01*
X76333Y-49702D02*
X76333Y-49202D01*
X76619Y-49560D02*
X76857Y-49560D01*
X76572Y-49702D02*
X76738Y-49202D01*
X76905Y-49702D01*
X77358Y-49702D02*
X77191Y-49464D01*
X77072Y-49702D02*
X77072Y-49202D01*
X77263Y-49202D01*
X77310Y-49226D01*
X77334Y-49250D01*
X77358Y-49298D01*
X77358Y-49369D01*
X77334Y-49417D01*
X77310Y-49440D01*
X77263Y-49464D01*
X77072Y-49464D01*
X77501Y-49202D02*
X77786Y-49202D01*
X77643Y-49702D02*
X77643Y-49202D01*
X77067Y-48769D02*
X77043Y-48793D01*
X76972Y-48816D01*
X76924Y-48816D01*
X76852Y-48793D01*
X76805Y-48745D01*
X76781Y-48697D01*
X76757Y-48602D01*
X76757Y-48531D01*
X76781Y-48435D01*
X76805Y-48388D01*
X76852Y-48340D01*
X76924Y-48316D01*
X76972Y-48316D01*
X77043Y-48340D01*
X77067Y-48364D01*
X77257Y-48793D02*
X77329Y-48816D01*
X77448Y-48816D01*
X77495Y-48793D01*
X77519Y-48769D01*
X77543Y-48721D01*
X77543Y-48674D01*
X77519Y-48626D01*
X77495Y-48602D01*
X77448Y-48578D01*
X77352Y-48554D01*
X77305Y-48531D01*
X77281Y-48507D01*
X77257Y-48459D01*
X77257Y-48412D01*
X77281Y-48364D01*
X77305Y-48340D01*
X77352Y-48316D01*
X77472Y-48316D01*
X77543Y-48340D01*
X76662Y-48065D02*
X77638Y-48065D01*
X75905Y-47679D02*
X75977Y-47702D01*
X76096Y-47702D01*
X76143Y-47679D01*
X76167Y-47655D01*
X76191Y-47607D01*
X76191Y-47560D01*
X76167Y-47512D01*
X76143Y-47488D01*
X76096Y-47464D01*
X76000Y-47440D01*
X75953Y-47417D01*
X75929Y-47393D01*
X75905Y-47345D01*
X75905Y-47298D01*
X75929Y-47250D01*
X75953Y-47226D01*
X76000Y-47202D01*
X76120Y-47202D01*
X76191Y-47226D01*
X76691Y-47655D02*
X76667Y-47679D01*
X76596Y-47702D01*
X76548Y-47702D01*
X76476Y-47679D01*
X76429Y-47631D01*
X76405Y-47583D01*
X76381Y-47488D01*
X76381Y-47417D01*
X76405Y-47321D01*
X76429Y-47274D01*
X76476Y-47226D01*
X76548Y-47202D01*
X76596Y-47202D01*
X76667Y-47226D01*
X76691Y-47250D01*
X77143Y-47702D02*
X76905Y-47702D01*
X76905Y-47202D01*
X77310Y-47702D02*
X77310Y-47202D01*
X77596Y-47702D02*
X77381Y-47417D01*
X77596Y-47202D02*
X77310Y-47488D01*
X75905Y-46702D02*
X75905Y-46202D01*
X76024Y-46202D01*
X76096Y-46226D01*
X76143Y-46274D01*
X76167Y-46321D01*
X76191Y-46417D01*
X76191Y-46488D01*
X76167Y-46583D01*
X76143Y-46631D01*
X76096Y-46679D01*
X76024Y-46702D01*
X75905Y-46702D01*
X76500Y-46202D02*
X76596Y-46202D01*
X76643Y-46226D01*
X76691Y-46274D01*
X76715Y-46369D01*
X76715Y-46536D01*
X76691Y-46631D01*
X76643Y-46679D01*
X76596Y-46702D01*
X76500Y-46702D01*
X76453Y-46679D01*
X76405Y-46631D01*
X76381Y-46536D01*
X76381Y-46369D01*
X76405Y-46274D01*
X76453Y-46226D01*
X76500Y-46202D01*
X76929Y-46202D02*
X76929Y-46607D01*
X76953Y-46655D01*
X76977Y-46679D01*
X77024Y-46702D01*
X77120Y-46702D01*
X77167Y-46679D01*
X77191Y-46655D01*
X77215Y-46607D01*
X77215Y-46202D01*
X77382Y-46202D02*
X77667Y-46202D01*
X77524Y-46702D02*
X77524Y-46202D01*
X75911Y-45785D02*
X75911Y-45285D01*
X76030Y-45285D01*
X76102Y-45309D01*
X76149Y-45357D01*
X76173Y-45404D01*
X76197Y-45500D01*
X76197Y-45571D01*
X76173Y-45666D01*
X76149Y-45714D01*
X76102Y-45762D01*
X76030Y-45785D01*
X75911Y-45785D01*
X76697Y-45785D02*
X76530Y-45547D01*
X76411Y-45785D02*
X76411Y-45285D01*
X76602Y-45285D01*
X76649Y-45309D01*
X76673Y-45333D01*
X76697Y-45381D01*
X76697Y-45452D01*
X76673Y-45500D01*
X76649Y-45523D01*
X76602Y-45547D01*
X76411Y-45547D01*
X76911Y-45785D02*
X76911Y-45285D01*
X77030Y-45285D01*
X77102Y-45309D01*
X77149Y-45357D01*
X77173Y-45404D01*
X77197Y-45500D01*
X77197Y-45571D01*
X77173Y-45666D01*
X77149Y-45714D01*
X77102Y-45762D01*
X77030Y-45785D01*
X76911Y-45785D01*
X77506Y-45547D02*
X77506Y-45785D01*
X77340Y-45285D02*
X77506Y-45547D01*
X77673Y-45285D01*
X75792Y-45034D02*
X77721Y-45034D01*
X76018Y-42159D02*
X75970Y-42135D01*
X75899Y-42135D01*
X75827Y-42159D01*
X75780Y-42207D01*
X75756Y-42254D01*
X75732Y-42350D01*
X75732Y-42421D01*
X75756Y-42516D01*
X75780Y-42564D01*
X75827Y-42612D01*
X75899Y-42635D01*
X75947Y-42635D01*
X76018Y-42612D01*
X76042Y-42588D01*
X76042Y-42421D01*
X75947Y-42421D01*
X76256Y-42635D02*
X76256Y-42135D01*
X76447Y-42135D01*
X76494Y-42159D01*
X76518Y-42183D01*
X76542Y-42231D01*
X76542Y-42302D01*
X76518Y-42350D01*
X76494Y-42373D01*
X76447Y-42397D01*
X76256Y-42397D01*
X76756Y-42635D02*
X76756Y-42135D01*
X77089Y-42135D02*
X77185Y-42135D01*
X77232Y-42159D01*
X77280Y-42207D01*
X77304Y-42302D01*
X77304Y-42469D01*
X77280Y-42564D01*
X77232Y-42612D01*
X77185Y-42635D01*
X77089Y-42635D01*
X77042Y-42612D01*
X76994Y-42564D01*
X76970Y-42469D01*
X76970Y-42302D01*
X76994Y-42207D01*
X77042Y-42159D01*
X77089Y-42135D01*
X77780Y-42635D02*
X77494Y-42635D01*
X77637Y-42635D02*
X77637Y-42135D01*
X77589Y-42207D01*
X77542Y-42254D01*
X77494Y-42278D01*
X76012Y-41226D02*
X75964Y-41202D01*
X75893Y-41202D01*
X75821Y-41226D01*
X75774Y-41274D01*
X75750Y-41321D01*
X75726Y-41417D01*
X75726Y-41488D01*
X75750Y-41583D01*
X75774Y-41631D01*
X75821Y-41679D01*
X75893Y-41702D01*
X75941Y-41702D01*
X76012Y-41679D01*
X76036Y-41655D01*
X76036Y-41488D01*
X75941Y-41488D01*
X76250Y-41702D02*
X76250Y-41202D01*
X76441Y-41202D01*
X76488Y-41226D01*
X76512Y-41250D01*
X76536Y-41298D01*
X76536Y-41369D01*
X76512Y-41417D01*
X76488Y-41440D01*
X76441Y-41464D01*
X76250Y-41464D01*
X76750Y-41702D02*
X76750Y-41202D01*
X77083Y-41202D02*
X77179Y-41202D01*
X77226Y-41226D01*
X77274Y-41274D01*
X77298Y-41369D01*
X77298Y-41536D01*
X77274Y-41631D01*
X77226Y-41679D01*
X77179Y-41702D01*
X77083Y-41702D01*
X77036Y-41679D01*
X76988Y-41631D01*
X76964Y-41536D01*
X76964Y-41369D01*
X76988Y-41274D01*
X77036Y-41226D01*
X77083Y-41202D01*
X77488Y-41250D02*
X77512Y-41226D01*
X77560Y-41202D01*
X77679Y-41202D01*
X77726Y-41226D01*
X77750Y-41250D01*
X77774Y-41298D01*
X77774Y-41345D01*
X77750Y-41417D01*
X77464Y-41702D01*
X77774Y-41702D01*
X76012Y-40226D02*
X75964Y-40202D01*
X75893Y-40202D01*
X75821Y-40226D01*
X75774Y-40274D01*
X75750Y-40321D01*
X75726Y-40417D01*
X75726Y-40488D01*
X75750Y-40583D01*
X75774Y-40631D01*
X75821Y-40679D01*
X75893Y-40702D01*
X75941Y-40702D01*
X76012Y-40679D01*
X76036Y-40655D01*
X76036Y-40488D01*
X75941Y-40488D01*
X76250Y-40702D02*
X76250Y-40202D01*
X76441Y-40202D01*
X76488Y-40226D01*
X76512Y-40250D01*
X76536Y-40298D01*
X76536Y-40369D01*
X76512Y-40417D01*
X76488Y-40440D01*
X76441Y-40464D01*
X76250Y-40464D01*
X76750Y-40702D02*
X76750Y-40202D01*
X77083Y-40202D02*
X77179Y-40202D01*
X77226Y-40226D01*
X77274Y-40274D01*
X77298Y-40369D01*
X77298Y-40536D01*
X77274Y-40631D01*
X77226Y-40679D01*
X77179Y-40702D01*
X77083Y-40702D01*
X77036Y-40679D01*
X76988Y-40631D01*
X76964Y-40536D01*
X76964Y-40369D01*
X76988Y-40274D01*
X77036Y-40226D01*
X77083Y-40202D01*
X77464Y-40202D02*
X77774Y-40202D01*
X77607Y-40393D01*
X77679Y-40393D01*
X77726Y-40417D01*
X77750Y-40440D01*
X77774Y-40488D01*
X77774Y-40607D01*
X77750Y-40655D01*
X77726Y-40679D01*
X77679Y-40702D01*
X77536Y-40702D01*
X77488Y-40679D01*
X77464Y-40655D01*
X76012Y-39226D02*
X75964Y-39202D01*
X75893Y-39202D01*
X75821Y-39226D01*
X75774Y-39274D01*
X75750Y-39321D01*
X75726Y-39417D01*
X75726Y-39488D01*
X75750Y-39583D01*
X75774Y-39631D01*
X75821Y-39679D01*
X75893Y-39702D01*
X75941Y-39702D01*
X76012Y-39679D01*
X76036Y-39655D01*
X76036Y-39488D01*
X75941Y-39488D01*
X76250Y-39702D02*
X76250Y-39202D01*
X76441Y-39202D01*
X76488Y-39226D01*
X76512Y-39250D01*
X76536Y-39298D01*
X76536Y-39369D01*
X76512Y-39417D01*
X76488Y-39440D01*
X76441Y-39464D01*
X76250Y-39464D01*
X76750Y-39702D02*
X76750Y-39202D01*
X77083Y-39202D02*
X77179Y-39202D01*
X77226Y-39226D01*
X77274Y-39274D01*
X77298Y-39369D01*
X77298Y-39536D01*
X77274Y-39631D01*
X77226Y-39679D01*
X77179Y-39702D01*
X77083Y-39702D01*
X77036Y-39679D01*
X76988Y-39631D01*
X76964Y-39536D01*
X76964Y-39369D01*
X76988Y-39274D01*
X77036Y-39226D01*
X77083Y-39202D01*
X77726Y-39369D02*
X77726Y-39702D01*
X77607Y-39179D02*
X77488Y-39536D01*
X77798Y-39536D01*
X75536Y-38655D02*
X75512Y-38679D01*
X75441Y-38702D01*
X75393Y-38702D01*
X75321Y-38679D01*
X75274Y-38631D01*
X75250Y-38583D01*
X75226Y-38488D01*
X75226Y-38417D01*
X75250Y-38321D01*
X75274Y-38274D01*
X75321Y-38226D01*
X75393Y-38202D01*
X75441Y-38202D01*
X75512Y-38226D01*
X75536Y-38250D01*
X75988Y-38702D02*
X75750Y-38702D01*
X75750Y-38202D01*
X76155Y-38702D02*
X76155Y-38202D01*
X76441Y-38702D02*
X76226Y-38417D01*
X76441Y-38202D02*
X76155Y-38488D01*
X76631Y-38679D02*
X76703Y-38702D01*
X76822Y-38702D01*
X76869Y-38679D01*
X76893Y-38655D01*
X76917Y-38607D01*
X76917Y-38560D01*
X76893Y-38512D01*
X76869Y-38488D01*
X76822Y-38464D01*
X76726Y-38440D01*
X76679Y-38417D01*
X76655Y-38393D01*
X76631Y-38345D01*
X76631Y-38298D01*
X76655Y-38250D01*
X76679Y-38226D01*
X76726Y-38202D01*
X76846Y-38202D01*
X76917Y-38226D01*
X77131Y-38440D02*
X77298Y-38440D01*
X77369Y-38702D02*
X77131Y-38702D01*
X77131Y-38202D01*
X77369Y-38202D01*
X77821Y-38702D02*
X77583Y-38702D01*
X77583Y-38202D01*
X75512Y-37702D02*
X75345Y-37464D01*
X75226Y-37702D02*
X75226Y-37202D01*
X75417Y-37202D01*
X75464Y-37226D01*
X75488Y-37250D01*
X75512Y-37298D01*
X75512Y-37369D01*
X75488Y-37417D01*
X75464Y-37440D01*
X75417Y-37464D01*
X75226Y-37464D01*
X75964Y-37702D02*
X75726Y-37702D01*
X75726Y-37202D01*
X76131Y-37702D02*
X76131Y-37202D01*
X76250Y-37202D01*
X76322Y-37226D01*
X76369Y-37274D01*
X76393Y-37321D01*
X76417Y-37417D01*
X76417Y-37488D01*
X76393Y-37583D01*
X76369Y-37631D01*
X76322Y-37679D01*
X76250Y-37702D01*
X76131Y-37702D01*
X76917Y-37702D02*
X76750Y-37464D01*
X76631Y-37702D02*
X76631Y-37202D01*
X76822Y-37202D01*
X76869Y-37226D01*
X76893Y-37250D01*
X76917Y-37298D01*
X76917Y-37369D01*
X76893Y-37417D01*
X76869Y-37440D01*
X76822Y-37464D01*
X76631Y-37464D01*
X77131Y-37440D02*
X77298Y-37440D01*
X77369Y-37702D02*
X77131Y-37702D01*
X77131Y-37202D01*
X77369Y-37202D01*
X77750Y-37440D02*
X77583Y-37440D01*
X77583Y-37702D02*
X77583Y-37202D01*
X77821Y-37202D01*
X76072Y-36702D02*
X75905Y-36464D01*
X75786Y-36702D02*
X75786Y-36202D01*
X75977Y-36202D01*
X76024Y-36226D01*
X76048Y-36250D01*
X76072Y-36298D01*
X76072Y-36369D01*
X76048Y-36417D01*
X76024Y-36440D01*
X75977Y-36464D01*
X75786Y-36464D01*
X76524Y-36702D02*
X76286Y-36702D01*
X76286Y-36202D01*
X76691Y-36702D02*
X76691Y-36202D01*
X76810Y-36202D01*
X76882Y-36226D01*
X76929Y-36274D01*
X76953Y-36321D01*
X76977Y-36417D01*
X76977Y-36488D01*
X76953Y-36583D01*
X76929Y-36631D01*
X76882Y-36679D01*
X76810Y-36702D01*
X76691Y-36702D01*
X77191Y-36702D02*
X77191Y-36202D01*
X77429Y-36702D02*
X77429Y-36202D01*
X77715Y-36702D01*
X77715Y-36202D01*
X75488Y-35702D02*
X75321Y-35464D01*
X75202Y-35702D02*
X75202Y-35202D01*
X75393Y-35202D01*
X75440Y-35226D01*
X75464Y-35250D01*
X75488Y-35298D01*
X75488Y-35369D01*
X75464Y-35417D01*
X75440Y-35440D01*
X75393Y-35464D01*
X75202Y-35464D01*
X75940Y-35702D02*
X75702Y-35702D01*
X75702Y-35202D01*
X76107Y-35702D02*
X76107Y-35202D01*
X76226Y-35202D01*
X76298Y-35226D01*
X76345Y-35274D01*
X76369Y-35321D01*
X76393Y-35417D01*
X76393Y-35488D01*
X76369Y-35583D01*
X76345Y-35631D01*
X76298Y-35679D01*
X76226Y-35702D01*
X76107Y-35702D01*
X76702Y-35202D02*
X76798Y-35202D01*
X76845Y-35226D01*
X76893Y-35274D01*
X76917Y-35369D01*
X76917Y-35536D01*
X76893Y-35631D01*
X76845Y-35679D01*
X76798Y-35702D01*
X76702Y-35702D01*
X76655Y-35679D01*
X76607Y-35631D01*
X76583Y-35536D01*
X76583Y-35369D01*
X76607Y-35274D01*
X76655Y-35226D01*
X76702Y-35202D01*
X77131Y-35202D02*
X77131Y-35607D01*
X77155Y-35655D01*
X77179Y-35679D01*
X77226Y-35702D01*
X77322Y-35702D01*
X77369Y-35679D01*
X77393Y-35655D01*
X77417Y-35607D01*
X77417Y-35202D01*
X77584Y-35202D02*
X77869Y-35202D01*
X77726Y-35702D02*
X77726Y-35202D01*
X77820Y-33506D02*
X77320Y-33506D01*
X77320Y-33387D01*
X77344Y-33315D01*
X77392Y-33268D01*
X77439Y-33244D01*
X77535Y-33220D01*
X77606Y-33220D01*
X77701Y-33244D01*
X77749Y-33268D01*
X77797Y-33315D01*
X77820Y-33387D01*
X77820Y-33506D01*
X77320Y-33077D02*
X77820Y-32911D01*
X77320Y-32744D01*
X77820Y-32577D02*
X77320Y-32577D01*
X77320Y-32458D01*
X77344Y-32386D01*
X77392Y-32339D01*
X77439Y-32315D01*
X77535Y-32291D01*
X77606Y-32291D01*
X77701Y-32315D01*
X77749Y-32339D01*
X77797Y-32386D01*
X77820Y-32458D01*
X77820Y-32577D01*
X77820Y-32077D02*
X77320Y-32077D01*
X77320Y-31958D01*
X77344Y-31886D01*
X77392Y-31839D01*
X77439Y-31815D01*
X77535Y-31791D01*
X77606Y-31791D01*
X77701Y-31815D01*
X77749Y-31839D01*
X77797Y-31886D01*
X77820Y-31958D01*
X77820Y-32077D01*
X75560Y-33584D02*
X75560Y-33346D01*
X75702Y-33631D02*
X75202Y-33465D01*
X75702Y-33298D01*
X75202Y-33202D02*
X75702Y-33036D01*
X75202Y-32869D01*
X75702Y-32702D02*
X75202Y-32702D01*
X75202Y-32583D01*
X75226Y-32511D01*
X75274Y-32464D01*
X75321Y-32440D01*
X75417Y-32416D01*
X75488Y-32416D01*
X75583Y-32440D01*
X75631Y-32464D01*
X75679Y-32511D01*
X75702Y-32583D01*
X75702Y-32702D01*
X75702Y-32202D02*
X75202Y-32202D01*
X75202Y-32083D01*
X75226Y-32011D01*
X75274Y-31964D01*
X75321Y-31940D01*
X75417Y-31916D01*
X75488Y-31916D01*
X75583Y-31940D01*
X75631Y-31964D01*
X75679Y-32011D01*
X75702Y-32083D01*
X75702Y-32202D01*
X78836Y-33554D02*
X78336Y-33554D01*
X78336Y-33435D01*
X78360Y-33363D01*
X78408Y-33316D01*
X78455Y-33292D01*
X78551Y-33268D01*
X78622Y-33268D01*
X78717Y-33292D01*
X78765Y-33316D01*
X78813Y-33363D01*
X78836Y-33435D01*
X78836Y-33554D01*
X78360Y-32792D02*
X78336Y-32840D01*
X78336Y-32911D01*
X78360Y-32983D01*
X78408Y-33030D01*
X78455Y-33054D01*
X78551Y-33078D01*
X78622Y-33078D01*
X78717Y-33054D01*
X78765Y-33030D01*
X78813Y-32983D01*
X78836Y-32911D01*
X78836Y-32863D01*
X78813Y-32792D01*
X78789Y-32768D01*
X78622Y-32768D01*
X78622Y-32863D01*
X78836Y-32554D02*
X78336Y-32554D01*
X78836Y-32268D01*
X78336Y-32268D01*
X78836Y-32030D02*
X78336Y-32030D01*
X78336Y-31911D01*
X78360Y-31839D01*
X78408Y-31792D01*
X78455Y-31768D01*
X78551Y-31744D01*
X78622Y-31744D01*
X78717Y-31768D01*
X78765Y-31792D01*
X78813Y-31839D01*
X78836Y-31911D01*
X78836Y-32030D01*
X76560Y-33631D02*
X76560Y-33393D01*
X76702Y-33678D02*
X76202Y-33512D01*
X76702Y-33345D01*
X76226Y-32916D02*
X76202Y-32964D01*
X76202Y-33035D01*
X76226Y-33107D01*
X76274Y-33154D01*
X76321Y-33178D01*
X76417Y-33202D01*
X76488Y-33202D01*
X76583Y-33178D01*
X76631Y-33154D01*
X76679Y-33107D01*
X76702Y-33035D01*
X76702Y-32987D01*
X76679Y-32916D01*
X76655Y-32892D01*
X76488Y-32892D01*
X76488Y-32987D01*
X76702Y-32678D02*
X76202Y-32678D01*
X76702Y-32392D01*
X76202Y-32392D01*
X76702Y-32154D02*
X76202Y-32154D01*
X76202Y-32035D01*
X76226Y-31963D01*
X76274Y-31916D01*
X76321Y-31892D01*
X76417Y-31868D01*
X76488Y-31868D01*
X76583Y-31892D01*
X76631Y-31916D01*
X76679Y-31963D01*
X76702Y-32035D01*
X76702Y-32154D01*
G54D13*
G36*
X65484Y-56164D02*
X65478Y-56152D01*
X65462Y-56127D01*
X65438Y-56090D01*
X65409Y-56047D01*
X65379Y-56003D01*
X65355Y-55968D01*
X65339Y-55943D01*
X65334Y-55932D01*
X65336Y-55927D01*
X65346Y-55906D01*
X65361Y-55876D01*
X65370Y-55859D01*
X65382Y-55831D01*
X65384Y-55818D01*
X65381Y-55815D01*
X65360Y-55805D01*
X65324Y-55790D01*
X65276Y-55769D01*
X65221Y-55745D01*
X65161Y-55720D01*
X65100Y-55694D01*
X65041Y-55670D01*
X64989Y-55649D01*
X64946Y-55632D01*
X64917Y-55620D01*
X64904Y-55616D01*
X64901Y-55617D01*
X64888Y-55631D01*
X64870Y-55655D01*
X64828Y-55707D01*
X64764Y-55758D01*
X64691Y-55789D01*
X64611Y-55800D01*
X64536Y-55791D01*
X64464Y-55761D01*
X64400Y-55711D01*
X64352Y-55651D01*
X64321Y-55580D01*
X64312Y-55500D01*
X64320Y-55424D01*
X64349Y-55351D01*
X64398Y-55286D01*
X64430Y-55259D01*
X64495Y-55221D01*
X64565Y-55200D01*
X64583Y-55197D01*
X64660Y-55201D01*
X64733Y-55223D01*
X64799Y-55264D01*
X64853Y-55320D01*
X64859Y-55327D01*
X64878Y-55354D01*
X64892Y-55371D01*
X64903Y-55385D01*
X65139Y-55287D01*
X65176Y-55271D01*
X65241Y-55244D01*
X65296Y-55221D01*
X65340Y-55202D01*
X65370Y-55189D01*
X65382Y-55183D01*
X65382Y-55182D01*
X65384Y-55174D01*
X65377Y-55156D01*
X65361Y-55123D01*
X65350Y-55101D01*
X65338Y-55076D01*
X65334Y-55065D01*
X65339Y-55055D01*
X65354Y-55031D01*
X65378Y-54996D01*
X65407Y-54954D01*
X65434Y-54914D01*
X65458Y-54877D01*
X65475Y-54850D01*
X65482Y-54837D01*
X65482Y-54835D01*
X65476Y-54823D01*
X65458Y-54802D01*
X65428Y-54770D01*
X65383Y-54724D01*
X65376Y-54717D01*
X65338Y-54680D01*
X65306Y-54650D01*
X65284Y-54629D01*
X65273Y-54622D01*
X65273Y-54622D01*
X65260Y-54629D01*
X65234Y-54646D01*
X65196Y-54670D01*
X65152Y-54700D01*
X65039Y-54778D01*
X64932Y-54735D01*
X64899Y-54722D01*
X64859Y-54705D01*
X64831Y-54693D01*
X64818Y-54687D01*
X64814Y-54675D01*
X64807Y-54646D01*
X64798Y-54603D01*
X64789Y-54552D01*
X64780Y-54504D01*
X64772Y-54461D01*
X64766Y-54429D01*
X64763Y-54415D01*
X64761Y-54411D01*
X64754Y-54409D01*
X64739Y-54407D01*
X64713Y-54406D01*
X64671Y-54405D01*
X64611Y-54405D01*
X64604Y-54405D01*
X64546Y-54406D01*
X64501Y-54407D01*
X64471Y-54408D01*
X64459Y-54410D01*
X64459Y-54410D01*
X64456Y-54424D01*
X64449Y-54455D01*
X64441Y-54498D01*
X64431Y-54550D01*
X64430Y-54554D01*
X64420Y-54605D01*
X64411Y-54649D01*
X64404Y-54679D01*
X64400Y-54692D01*
X64396Y-54695D01*
X64376Y-54705D01*
X64344Y-54720D01*
X64305Y-54737D01*
X64264Y-54754D01*
X64228Y-54769D01*
X64200Y-54779D01*
X64188Y-54782D01*
X64188Y-54781D01*
X64175Y-54774D01*
X64148Y-54756D01*
X64111Y-54731D01*
X64067Y-54700D01*
X64064Y-54698D01*
X64020Y-54668D01*
X63983Y-54644D01*
X63956Y-54628D01*
X63944Y-54622D01*
X63944Y-54622D01*
X63931Y-54632D01*
X63906Y-54654D01*
X63872Y-54686D01*
X63834Y-54725D01*
X63822Y-54737D01*
X63780Y-54779D01*
X63753Y-54809D01*
X63738Y-54827D01*
X63735Y-54836D01*
X63735Y-54837D01*
X63743Y-54850D01*
X63761Y-54877D01*
X63787Y-54915D01*
X63817Y-54959D01*
X63819Y-54962D01*
X63849Y-55006D01*
X63874Y-55043D01*
X63891Y-55069D01*
X63898Y-55080D01*
X63898Y-55082D01*
X63892Y-55100D01*
X63881Y-55131D01*
X63867Y-55169D01*
X63850Y-55210D01*
X63835Y-55246D01*
X63822Y-55274D01*
X63815Y-55287D01*
X63814Y-55287D01*
X63799Y-55292D01*
X63766Y-55300D01*
X63721Y-55309D01*
X63667Y-55319D01*
X63658Y-55321D01*
X63606Y-55331D01*
X63563Y-55339D01*
X63533Y-55345D01*
X63521Y-55348D01*
X63519Y-55356D01*
X63517Y-55381D01*
X63516Y-55420D01*
X63516Y-55467D01*
X63516Y-55516D01*
X63517Y-55565D01*
X63519Y-55606D01*
X63521Y-55636D01*
X63523Y-55648D01*
X63524Y-55648D01*
X63540Y-55653D01*
X63573Y-55660D01*
X63618Y-55669D01*
X63672Y-55680D01*
X63682Y-55682D01*
X63734Y-55691D01*
X63776Y-55700D01*
X63806Y-55706D01*
X63817Y-55710D01*
X63820Y-55714D01*
X63829Y-55736D01*
X63844Y-55771D01*
X63861Y-55814D01*
X63902Y-55914D01*
X63817Y-56037D01*
X63810Y-56049D01*
X63780Y-56093D01*
X63755Y-56129D01*
X63739Y-56154D01*
X63733Y-56165D01*
X63734Y-56166D01*
X63744Y-56178D01*
X63767Y-56202D01*
X63800Y-56236D01*
X63838Y-56274D01*
X63867Y-56303D01*
X63901Y-56337D01*
X63924Y-56358D01*
X63939Y-56370D01*
X63948Y-56374D01*
X63954Y-56373D01*
X63967Y-56365D01*
X63994Y-56347D01*
X64031Y-56322D01*
X64075Y-56292D01*
X64111Y-56267D01*
X64152Y-56241D01*
X64182Y-56223D01*
X64196Y-56217D01*
X64202Y-56219D01*
X64226Y-56227D01*
X64263Y-56242D01*
X64306Y-56260D01*
X64403Y-56303D01*
X64416Y-56367D01*
X64423Y-56406D01*
X64433Y-56460D01*
X64443Y-56511D01*
X64459Y-56592D01*
X64755Y-56595D01*
X64761Y-56583D01*
X64764Y-56571D01*
X64771Y-56541D01*
X64779Y-56498D01*
X64789Y-56448D01*
X64797Y-56405D01*
X64805Y-56361D01*
X64811Y-56330D01*
X64814Y-56316D01*
X64818Y-56313D01*
X64839Y-56302D01*
X64873Y-56287D01*
X64913Y-56270D01*
X64954Y-56252D01*
X64993Y-56237D01*
X65022Y-56226D01*
X65037Y-56222D01*
X65048Y-56228D01*
X65074Y-56245D01*
X65110Y-56269D01*
X65153Y-56298D01*
X65196Y-56327D01*
X65233Y-56352D01*
X65259Y-56369D01*
X65271Y-56377D01*
X65280Y-56373D01*
X65300Y-56356D01*
X65334Y-56323D01*
X65382Y-56275D01*
X65389Y-56267D01*
X65426Y-56229D01*
X65456Y-56196D01*
X65476Y-56174D01*
X65484Y-56164D01*
X65484Y-56164D01*
G37*
G54D14*
X69078Y-43739D02*
X69075Y-43768D01*
X69066Y-43796D01*
X69052Y-43822D01*
X69034Y-43844D01*
X69011Y-43863D01*
X68986Y-43877D01*
X68958Y-43885D01*
X68929Y-43888D01*
X68900Y-43886D01*
X68872Y-43878D01*
X68846Y-43864D01*
X68824Y-43846D01*
X68805Y-43823D01*
X68791Y-43798D01*
X68782Y-43770D01*
X68779Y-43741D01*
X68781Y-43712D01*
X68789Y-43684D01*
X68802Y-43658D01*
X68821Y-43635D01*
X68843Y-43616D01*
X68868Y-43602D01*
X68896Y-43593D01*
X68925Y-43590D01*
X68954Y-43592D01*
X68982Y-43600D01*
X69008Y-43613D01*
X69031Y-43631D01*
X69050Y-43653D01*
X69065Y-43678D01*
X69074Y-43706D01*
X69077Y-43735D01*
X69078Y-43739D01*
X72528Y-47339D02*
X72528Y-43339D01*
X72528Y-43339D02*
X68778Y-43339D01*
X68778Y-43339D02*
X68528Y-43589D01*
X68528Y-43589D02*
X68528Y-47339D01*
X68528Y-47339D02*
X72528Y-47339D01*
G54D12*
X79000Y-45000D02*
X79000Y-53000D01*
X79000Y-53000D02*
X78000Y-53000D01*
X78000Y-53000D02*
X78000Y-45000D01*
X78000Y-45000D02*
X79000Y-45000D01*
X78000Y-46000D02*
X79000Y-46000D01*
X79000Y-35000D02*
X79000Y-43000D01*
X79000Y-43000D02*
X78000Y-43000D01*
X78000Y-43000D02*
X78000Y-35000D01*
X78000Y-35000D02*
X79000Y-35000D01*
X78000Y-36000D02*
X79000Y-36000D01*
X35500Y-48000D02*
X35500Y-56000D01*
X35500Y-56000D02*
X34500Y-56000D01*
X34500Y-56000D02*
X34500Y-48000D01*
X34500Y-48000D02*
X35500Y-48000D01*
X34500Y-49000D02*
X35500Y-49000D01*
X35500Y-32000D02*
X35500Y-40000D01*
X35500Y-40000D02*
X34500Y-40000D01*
X34500Y-40000D02*
X34500Y-32000D01*
X34500Y-32000D02*
X35500Y-32000D01*
X34500Y-33000D02*
X35500Y-33000D01*
X75094Y-30531D02*
X75094Y-30531D01*
X75094Y-31531D02*
X75094Y-30531D01*
X75094Y-30531D02*
X75094Y-30531D01*
X75094Y-30531D02*
X79094Y-30531D01*
X79094Y-30531D02*
X79094Y-31531D01*
X79094Y-31531D02*
X75094Y-31531D01*
X76094Y-31531D02*
X76094Y-30531D01*
X68106Y-32902D02*
X68506Y-32902D01*
X68506Y-32902D02*
X68506Y-32502D01*
X68506Y-32502D02*
X71706Y-32502D01*
X71706Y-32502D02*
X71706Y-33302D01*
X71706Y-33302D02*
X68506Y-33302D01*
X68506Y-33302D02*
X68506Y-32902D01*
X68506Y-32702D02*
X68706Y-32502D01*
X72106Y-32902D02*
X71706Y-32902D01*
G54D15*
X46000Y-43000D02*
X45000Y-43000D01*
X46559Y-43000D02*
X46548Y-43108D01*
X46516Y-43213D01*
X46465Y-43309D01*
X46396Y-43393D01*
X46312Y-43463D01*
X46216Y-43515D01*
X46112Y-43547D01*
X46003Y-43558D01*
X45896Y-43549D01*
X45791Y-43518D01*
X45694Y-43467D01*
X45609Y-43399D01*
X45539Y-43315D01*
X45487Y-43220D01*
X45454Y-43116D01*
X45442Y-43007D01*
X45451Y-42900D01*
X45481Y-42795D01*
X45531Y-42698D01*
X45598Y-42612D01*
X45681Y-42541D01*
X45777Y-42488D01*
X45880Y-42455D01*
X45989Y-42442D01*
X46097Y-42450D01*
X46202Y-42479D01*
X46299Y-42529D01*
X46385Y-42596D01*
X46456Y-42678D01*
X46510Y-42773D01*
X46545Y-42877D01*
X46558Y-42985D01*
X46559Y-43000D01*
X46000Y-31000D02*
X45000Y-31000D01*
X46559Y-31000D02*
X46548Y-31108D01*
X46516Y-31213D01*
X46465Y-31309D01*
X46396Y-31393D01*
X46312Y-31463D01*
X46216Y-31515D01*
X46112Y-31547D01*
X46003Y-31558D01*
X45896Y-31549D01*
X45791Y-31518D01*
X45694Y-31467D01*
X45609Y-31399D01*
X45539Y-31315D01*
X45487Y-31220D01*
X45454Y-31116D01*
X45442Y-31007D01*
X45451Y-30900D01*
X45481Y-30795D01*
X45531Y-30698D01*
X45598Y-30612D01*
X45681Y-30541D01*
X45777Y-30488D01*
X45880Y-30455D01*
X45989Y-30442D01*
X46097Y-30450D01*
X46202Y-30479D01*
X46299Y-30529D01*
X46385Y-30596D01*
X46456Y-30678D01*
X46510Y-30773D01*
X46545Y-30877D01*
X46558Y-30985D01*
X46559Y-31000D01*
X46000Y-33000D02*
X45000Y-33000D01*
X46559Y-33000D02*
X46548Y-33108D01*
X46516Y-33213D01*
X46465Y-33309D01*
X46396Y-33393D01*
X46312Y-33463D01*
X46216Y-33515D01*
X46112Y-33547D01*
X46003Y-33558D01*
X45896Y-33549D01*
X45791Y-33518D01*
X45694Y-33467D01*
X45609Y-33399D01*
X45539Y-33315D01*
X45487Y-33220D01*
X45454Y-33116D01*
X45442Y-33007D01*
X45451Y-32900D01*
X45481Y-32795D01*
X45531Y-32698D01*
X45598Y-32612D01*
X45681Y-32541D01*
X45777Y-32488D01*
X45880Y-32455D01*
X45989Y-32442D01*
X46097Y-32450D01*
X46202Y-32479D01*
X46299Y-32529D01*
X46385Y-32596D01*
X46456Y-32678D01*
X46510Y-32773D01*
X46545Y-32877D01*
X46558Y-32985D01*
X46559Y-33000D01*
X46000Y-35000D02*
X45000Y-35000D01*
X46559Y-35000D02*
X46548Y-35108D01*
X46516Y-35213D01*
X46465Y-35309D01*
X46396Y-35393D01*
X46312Y-35463D01*
X46216Y-35515D01*
X46112Y-35547D01*
X46003Y-35558D01*
X45896Y-35549D01*
X45791Y-35518D01*
X45694Y-35467D01*
X45609Y-35399D01*
X45539Y-35315D01*
X45487Y-35220D01*
X45454Y-35116D01*
X45442Y-35007D01*
X45451Y-34900D01*
X45481Y-34795D01*
X45531Y-34698D01*
X45598Y-34612D01*
X45681Y-34541D01*
X45777Y-34488D01*
X45880Y-34455D01*
X45989Y-34442D01*
X46097Y-34450D01*
X46202Y-34479D01*
X46299Y-34529D01*
X46385Y-34596D01*
X46456Y-34678D01*
X46510Y-34773D01*
X46545Y-34877D01*
X46558Y-34985D01*
X46559Y-35000D01*
X46000Y-45000D02*
X45000Y-45000D01*
X46559Y-45000D02*
X46548Y-45108D01*
X46516Y-45213D01*
X46465Y-45309D01*
X46396Y-45393D01*
X46312Y-45463D01*
X46216Y-45515D01*
X46112Y-45547D01*
X46003Y-45558D01*
X45896Y-45549D01*
X45791Y-45518D01*
X45694Y-45467D01*
X45609Y-45399D01*
X45539Y-45315D01*
X45487Y-45220D01*
X45454Y-45116D01*
X45442Y-45007D01*
X45451Y-44900D01*
X45481Y-44795D01*
X45531Y-44698D01*
X45598Y-44612D01*
X45681Y-44541D01*
X45777Y-44488D01*
X45880Y-44455D01*
X45989Y-44442D01*
X46097Y-44450D01*
X46202Y-44479D01*
X46299Y-44529D01*
X46385Y-44596D01*
X46456Y-44678D01*
X46510Y-44773D01*
X46545Y-44877D01*
X46558Y-44985D01*
X46559Y-45000D01*
X46000Y-47000D02*
X45000Y-47000D01*
X46559Y-47000D02*
X46548Y-47108D01*
X46516Y-47213D01*
X46465Y-47309D01*
X46396Y-47393D01*
X46312Y-47463D01*
X46216Y-47515D01*
X46112Y-47547D01*
X46003Y-47558D01*
X45896Y-47549D01*
X45791Y-47518D01*
X45694Y-47467D01*
X45609Y-47399D01*
X45539Y-47315D01*
X45487Y-47220D01*
X45454Y-47116D01*
X45442Y-47007D01*
X45451Y-46900D01*
X45481Y-46795D01*
X45531Y-46698D01*
X45598Y-46612D01*
X45681Y-46541D01*
X45777Y-46488D01*
X45880Y-46455D01*
X45989Y-46442D01*
X46097Y-46450D01*
X46202Y-46479D01*
X46299Y-46529D01*
X46385Y-46596D01*
X46456Y-46678D01*
X46510Y-46773D01*
X46545Y-46877D01*
X46558Y-46985D01*
X46559Y-47000D01*
X46000Y-49000D02*
X45000Y-49000D01*
X46559Y-49000D02*
X46548Y-49108D01*
X46516Y-49213D01*
X46465Y-49309D01*
X46396Y-49393D01*
X46312Y-49463D01*
X46216Y-49515D01*
X46112Y-49547D01*
X46003Y-49558D01*
X45896Y-49549D01*
X45791Y-49518D01*
X45694Y-49467D01*
X45609Y-49399D01*
X45539Y-49315D01*
X45487Y-49220D01*
X45454Y-49116D01*
X45442Y-49007D01*
X45451Y-48900D01*
X45481Y-48795D01*
X45531Y-48698D01*
X45598Y-48612D01*
X45681Y-48541D01*
X45777Y-48488D01*
X45880Y-48455D01*
X45989Y-48442D01*
X46097Y-48450D01*
X46202Y-48479D01*
X46299Y-48529D01*
X46385Y-48596D01*
X46456Y-48678D01*
X46510Y-48773D01*
X46545Y-48877D01*
X46558Y-48985D01*
X46559Y-49000D01*
X46000Y-51000D02*
X45000Y-51000D01*
X46559Y-51000D02*
X46548Y-51108D01*
X46516Y-51213D01*
X46465Y-51309D01*
X46396Y-51393D01*
X46312Y-51463D01*
X46216Y-51515D01*
X46112Y-51547D01*
X46003Y-51558D01*
X45896Y-51549D01*
X45791Y-51518D01*
X45694Y-51467D01*
X45609Y-51399D01*
X45539Y-51315D01*
X45487Y-51220D01*
X45454Y-51116D01*
X45442Y-51007D01*
X45451Y-50900D01*
X45481Y-50795D01*
X45531Y-50698D01*
X45598Y-50612D01*
X45681Y-50541D01*
X45777Y-50488D01*
X45880Y-50455D01*
X45989Y-50442D01*
X46097Y-50450D01*
X46202Y-50479D01*
X46299Y-50529D01*
X46385Y-50596D01*
X46456Y-50678D01*
X46510Y-50773D01*
X46545Y-50877D01*
X46558Y-50985D01*
X46559Y-51000D01*
X46000Y-37000D02*
X45000Y-37000D01*
X46559Y-37000D02*
X46548Y-37108D01*
X46516Y-37213D01*
X46465Y-37309D01*
X46396Y-37393D01*
X46312Y-37463D01*
X46216Y-37515D01*
X46112Y-37547D01*
X46003Y-37558D01*
X45896Y-37549D01*
X45791Y-37518D01*
X45694Y-37467D01*
X45609Y-37399D01*
X45539Y-37315D01*
X45487Y-37220D01*
X45454Y-37116D01*
X45442Y-37007D01*
X45451Y-36900D01*
X45481Y-36795D01*
X45531Y-36698D01*
X45598Y-36612D01*
X45681Y-36541D01*
X45777Y-36488D01*
X45880Y-36455D01*
X45989Y-36442D01*
X46097Y-36450D01*
X46202Y-36479D01*
X46299Y-36529D01*
X46385Y-36596D01*
X46456Y-36678D01*
X46510Y-36773D01*
X46545Y-36877D01*
X46558Y-36985D01*
X46559Y-37000D01*
X46000Y-39000D02*
X45000Y-39000D01*
X46559Y-39000D02*
X46548Y-39108D01*
X46516Y-39213D01*
X46465Y-39309D01*
X46396Y-39393D01*
X46312Y-39463D01*
X46216Y-39515D01*
X46112Y-39547D01*
X46003Y-39558D01*
X45896Y-39549D01*
X45791Y-39518D01*
X45694Y-39467D01*
X45609Y-39399D01*
X45539Y-39315D01*
X45487Y-39220D01*
X45454Y-39116D01*
X45442Y-39007D01*
X45451Y-38900D01*
X45481Y-38795D01*
X45531Y-38698D01*
X45598Y-38612D01*
X45681Y-38541D01*
X45777Y-38488D01*
X45880Y-38455D01*
X45989Y-38442D01*
X46097Y-38450D01*
X46202Y-38479D01*
X46299Y-38529D01*
X46385Y-38596D01*
X46456Y-38678D01*
X46510Y-38773D01*
X46545Y-38877D01*
X46558Y-38985D01*
X46559Y-39000D01*
X46000Y-41000D02*
X45000Y-41000D01*
X46559Y-41000D02*
X46548Y-41108D01*
X46516Y-41213D01*
X46465Y-41309D01*
X46396Y-41393D01*
X46312Y-41463D01*
X46216Y-41515D01*
X46112Y-41547D01*
X46003Y-41558D01*
X45896Y-41549D01*
X45791Y-41518D01*
X45694Y-41467D01*
X45609Y-41399D01*
X45539Y-41315D01*
X45487Y-41220D01*
X45454Y-41116D01*
X45442Y-41007D01*
X45451Y-40900D01*
X45481Y-40795D01*
X45531Y-40698D01*
X45598Y-40612D01*
X45681Y-40541D01*
X45777Y-40488D01*
X45880Y-40455D01*
X45989Y-40442D01*
X46097Y-40450D01*
X46202Y-40479D01*
X46299Y-40529D01*
X46385Y-40596D01*
X46456Y-40678D01*
X46510Y-40773D01*
X46545Y-40877D01*
X46558Y-40985D01*
X46559Y-41000D01*
X39000Y-55000D02*
X38000Y-55000D01*
X39559Y-55000D02*
X39548Y-55108D01*
X39516Y-55213D01*
X39465Y-55309D01*
X39396Y-55393D01*
X39312Y-55463D01*
X39216Y-55515D01*
X39112Y-55547D01*
X39003Y-55558D01*
X38896Y-55549D01*
X38791Y-55518D01*
X38694Y-55467D01*
X38609Y-55399D01*
X38539Y-55315D01*
X38487Y-55220D01*
X38454Y-55116D01*
X38442Y-55007D01*
X38451Y-54900D01*
X38481Y-54795D01*
X38531Y-54698D01*
X38598Y-54612D01*
X38681Y-54541D01*
X38777Y-54488D01*
X38880Y-54455D01*
X38989Y-54442D01*
X39097Y-54450D01*
X39202Y-54479D01*
X39299Y-54529D01*
X39385Y-54596D01*
X39456Y-54678D01*
X39510Y-54773D01*
X39545Y-54877D01*
X39558Y-54985D01*
X39559Y-55000D01*
X46000Y-53000D02*
X45000Y-53000D01*
X46559Y-53000D02*
X46548Y-53108D01*
X46516Y-53213D01*
X46465Y-53309D01*
X46396Y-53393D01*
X46312Y-53463D01*
X46216Y-53515D01*
X46112Y-53547D01*
X46003Y-53558D01*
X45896Y-53549D01*
X45791Y-53518D01*
X45694Y-53467D01*
X45609Y-53399D01*
X45539Y-53315D01*
X45487Y-53220D01*
X45454Y-53116D01*
X45442Y-53007D01*
X45451Y-52900D01*
X45481Y-52795D01*
X45531Y-52698D01*
X45598Y-52612D01*
X45681Y-52541D01*
X45777Y-52488D01*
X45880Y-52455D01*
X45989Y-52442D01*
X46097Y-52450D01*
X46202Y-52479D01*
X46299Y-52529D01*
X46385Y-52596D01*
X46456Y-52678D01*
X46510Y-52773D01*
X46545Y-52877D01*
X46558Y-52985D01*
X46559Y-53000D01*
X46000Y-55000D02*
X45000Y-55000D01*
X46559Y-55000D02*
X46548Y-55108D01*
X46516Y-55213D01*
X46465Y-55309D01*
X46396Y-55393D01*
X46312Y-55463D01*
X46216Y-55515D01*
X46112Y-55547D01*
X46003Y-55558D01*
X45896Y-55549D01*
X45791Y-55518D01*
X45694Y-55467D01*
X45609Y-55399D01*
X45539Y-55315D01*
X45487Y-55220D01*
X45454Y-55116D01*
X45442Y-55007D01*
X45451Y-54900D01*
X45481Y-54795D01*
X45531Y-54698D01*
X45598Y-54612D01*
X45681Y-54541D01*
X45777Y-54488D01*
X45880Y-54455D01*
X45989Y-54442D01*
X46097Y-54450D01*
X46202Y-54479D01*
X46299Y-54529D01*
X46385Y-54596D01*
X46456Y-54678D01*
X46510Y-54773D01*
X46545Y-54877D01*
X46558Y-54985D01*
X46559Y-55000D01*
X46000Y-57000D02*
X45000Y-57000D01*
X46559Y-57000D02*
X46548Y-57108D01*
X46516Y-57213D01*
X46465Y-57309D01*
X46396Y-57393D01*
X46312Y-57463D01*
X46216Y-57515D01*
X46112Y-57547D01*
X46003Y-57558D01*
X45896Y-57549D01*
X45791Y-57518D01*
X45694Y-57467D01*
X45609Y-57399D01*
X45539Y-57315D01*
X45487Y-57220D01*
X45454Y-57116D01*
X45442Y-57007D01*
X45451Y-56900D01*
X45481Y-56795D01*
X45531Y-56698D01*
X45598Y-56612D01*
X45681Y-56541D01*
X45777Y-56488D01*
X45880Y-56455D01*
X45989Y-56442D01*
X46097Y-56450D01*
X46202Y-56479D01*
X46299Y-56529D01*
X46385Y-56596D01*
X46456Y-56678D01*
X46510Y-56773D01*
X46545Y-56877D01*
X46558Y-56985D01*
X46559Y-57000D01*
X46000Y-29000D02*
X45000Y-29000D01*
X46559Y-29000D02*
X46548Y-29108D01*
X46516Y-29213D01*
X46465Y-29309D01*
X46396Y-29393D01*
X46312Y-29463D01*
X46216Y-29515D01*
X46112Y-29547D01*
X46003Y-29558D01*
X45896Y-29549D01*
X45791Y-29518D01*
X45694Y-29467D01*
X45609Y-29399D01*
X45539Y-29315D01*
X45487Y-29220D01*
X45454Y-29116D01*
X45442Y-29007D01*
X45451Y-28900D01*
X45481Y-28795D01*
X45531Y-28698D01*
X45598Y-28612D01*
X45681Y-28541D01*
X45777Y-28488D01*
X45880Y-28455D01*
X45989Y-28442D01*
X46097Y-28450D01*
X46202Y-28479D01*
X46299Y-28529D01*
X46385Y-28596D01*
X46456Y-28678D01*
X46510Y-28773D01*
X46545Y-28877D01*
X46558Y-28985D01*
X46559Y-29000D01*
X39000Y-59000D02*
X38000Y-59000D01*
X39559Y-59000D02*
X39548Y-59108D01*
X39516Y-59213D01*
X39465Y-59309D01*
X39396Y-59393D01*
X39312Y-59463D01*
X39216Y-59515D01*
X39112Y-59547D01*
X39003Y-59558D01*
X38896Y-59549D01*
X38791Y-59518D01*
X38694Y-59467D01*
X38609Y-59399D01*
X38539Y-59315D01*
X38487Y-59220D01*
X38454Y-59116D01*
X38442Y-59007D01*
X38451Y-58900D01*
X38481Y-58795D01*
X38531Y-58698D01*
X38598Y-58612D01*
X38681Y-58541D01*
X38777Y-58488D01*
X38880Y-58455D01*
X38989Y-58442D01*
X39097Y-58450D01*
X39202Y-58479D01*
X39299Y-58529D01*
X39385Y-58596D01*
X39456Y-58678D01*
X39510Y-58773D01*
X39545Y-58877D01*
X39558Y-58985D01*
X39559Y-59000D01*
X39000Y-57000D02*
X38000Y-57000D01*
X39559Y-57000D02*
X39548Y-57108D01*
X39516Y-57213D01*
X39465Y-57309D01*
X39396Y-57393D01*
X39312Y-57463D01*
X39216Y-57515D01*
X39112Y-57547D01*
X39003Y-57558D01*
X38896Y-57549D01*
X38791Y-57518D01*
X38694Y-57467D01*
X38609Y-57399D01*
X38539Y-57315D01*
X38487Y-57220D01*
X38454Y-57116D01*
X38442Y-57007D01*
X38451Y-56900D01*
X38481Y-56795D01*
X38531Y-56698D01*
X38598Y-56612D01*
X38681Y-56541D01*
X38777Y-56488D01*
X38880Y-56455D01*
X38989Y-56442D01*
X39097Y-56450D01*
X39202Y-56479D01*
X39299Y-56529D01*
X39385Y-56596D01*
X39456Y-56678D01*
X39510Y-56773D01*
X39545Y-56877D01*
X39558Y-56985D01*
X39559Y-57000D01*
X55000Y-29000D02*
X55000Y-30000D01*
X55559Y-29000D02*
X55548Y-29108D01*
X55516Y-29213D01*
X55465Y-29309D01*
X55396Y-29393D01*
X55312Y-29463D01*
X55216Y-29515D01*
X55112Y-29547D01*
X55003Y-29558D01*
X54896Y-29549D01*
X54791Y-29518D01*
X54694Y-29467D01*
X54609Y-29399D01*
X54539Y-29315D01*
X54487Y-29220D01*
X54454Y-29116D01*
X54442Y-29007D01*
X54451Y-28900D01*
X54481Y-28795D01*
X54531Y-28698D01*
X54598Y-28612D01*
X54681Y-28541D01*
X54777Y-28488D01*
X54880Y-28455D01*
X54989Y-28442D01*
X55097Y-28450D01*
X55202Y-28479D01*
X55299Y-28529D01*
X55385Y-28596D01*
X55456Y-28678D01*
X55510Y-28773D01*
X55545Y-28877D01*
X55558Y-28985D01*
X55559Y-29000D01*
X39000Y-53000D02*
X38000Y-53000D01*
X39559Y-53000D02*
X39548Y-53108D01*
X39516Y-53213D01*
X39465Y-53309D01*
X39396Y-53393D01*
X39312Y-53463D01*
X39216Y-53515D01*
X39112Y-53547D01*
X39003Y-53558D01*
X38896Y-53549D01*
X38791Y-53518D01*
X38694Y-53467D01*
X38609Y-53399D01*
X38539Y-53315D01*
X38487Y-53220D01*
X38454Y-53116D01*
X38442Y-53007D01*
X38451Y-52900D01*
X38481Y-52795D01*
X38531Y-52698D01*
X38598Y-52612D01*
X38681Y-52541D01*
X38777Y-52488D01*
X38880Y-52455D01*
X38989Y-52442D01*
X39097Y-52450D01*
X39202Y-52479D01*
X39299Y-52529D01*
X39385Y-52596D01*
X39456Y-52678D01*
X39510Y-52773D01*
X39545Y-52877D01*
X39558Y-52985D01*
X39559Y-53000D01*
X39000Y-43000D02*
X38000Y-43000D01*
X39559Y-43000D02*
X39548Y-43108D01*
X39516Y-43213D01*
X39465Y-43309D01*
X39396Y-43393D01*
X39312Y-43463D01*
X39216Y-43515D01*
X39112Y-43547D01*
X39003Y-43558D01*
X38896Y-43549D01*
X38791Y-43518D01*
X38694Y-43467D01*
X38609Y-43399D01*
X38539Y-43315D01*
X38487Y-43220D01*
X38454Y-43116D01*
X38442Y-43007D01*
X38451Y-42900D01*
X38481Y-42795D01*
X38531Y-42698D01*
X38598Y-42612D01*
X38681Y-42541D01*
X38777Y-42488D01*
X38880Y-42455D01*
X38989Y-42442D01*
X39097Y-42450D01*
X39202Y-42479D01*
X39299Y-42529D01*
X39385Y-42596D01*
X39456Y-42678D01*
X39510Y-42773D01*
X39545Y-42877D01*
X39558Y-42985D01*
X39559Y-43000D01*
X39000Y-41000D02*
X38000Y-41000D01*
X39559Y-41000D02*
X39548Y-41108D01*
X39516Y-41213D01*
X39465Y-41309D01*
X39396Y-41393D01*
X39312Y-41463D01*
X39216Y-41515D01*
X39112Y-41547D01*
X39003Y-41558D01*
X38896Y-41549D01*
X38791Y-41518D01*
X38694Y-41467D01*
X38609Y-41399D01*
X38539Y-41315D01*
X38487Y-41220D01*
X38454Y-41116D01*
X38442Y-41007D01*
X38451Y-40900D01*
X38481Y-40795D01*
X38531Y-40698D01*
X38598Y-40612D01*
X38681Y-40541D01*
X38777Y-40488D01*
X38880Y-40455D01*
X38989Y-40442D01*
X39097Y-40450D01*
X39202Y-40479D01*
X39299Y-40529D01*
X39385Y-40596D01*
X39456Y-40678D01*
X39510Y-40773D01*
X39545Y-40877D01*
X39558Y-40985D01*
X39559Y-41000D01*
X39000Y-39000D02*
X38000Y-39000D01*
X39559Y-39000D02*
X39548Y-39108D01*
X39516Y-39213D01*
X39465Y-39309D01*
X39396Y-39393D01*
X39312Y-39463D01*
X39216Y-39515D01*
X39112Y-39547D01*
X39003Y-39558D01*
X38896Y-39549D01*
X38791Y-39518D01*
X38694Y-39467D01*
X38609Y-39399D01*
X38539Y-39315D01*
X38487Y-39220D01*
X38454Y-39116D01*
X38442Y-39007D01*
X38451Y-38900D01*
X38481Y-38795D01*
X38531Y-38698D01*
X38598Y-38612D01*
X38681Y-38541D01*
X38777Y-38488D01*
X38880Y-38455D01*
X38989Y-38442D01*
X39097Y-38450D01*
X39202Y-38479D01*
X39299Y-38529D01*
X39385Y-38596D01*
X39456Y-38678D01*
X39510Y-38773D01*
X39545Y-38877D01*
X39558Y-38985D01*
X39559Y-39000D01*
X39000Y-37000D02*
X38000Y-37000D01*
X39559Y-37000D02*
X39548Y-37108D01*
X39516Y-37213D01*
X39465Y-37309D01*
X39396Y-37393D01*
X39312Y-37463D01*
X39216Y-37515D01*
X39112Y-37547D01*
X39003Y-37558D01*
X38896Y-37549D01*
X38791Y-37518D01*
X38694Y-37467D01*
X38609Y-37399D01*
X38539Y-37315D01*
X38487Y-37220D01*
X38454Y-37116D01*
X38442Y-37007D01*
X38451Y-36900D01*
X38481Y-36795D01*
X38531Y-36698D01*
X38598Y-36612D01*
X38681Y-36541D01*
X38777Y-36488D01*
X38880Y-36455D01*
X38989Y-36442D01*
X39097Y-36450D01*
X39202Y-36479D01*
X39299Y-36529D01*
X39385Y-36596D01*
X39456Y-36678D01*
X39510Y-36773D01*
X39545Y-36877D01*
X39558Y-36985D01*
X39559Y-37000D01*
X39000Y-51000D02*
X38000Y-51000D01*
X39559Y-51000D02*
X39548Y-51108D01*
X39516Y-51213D01*
X39465Y-51309D01*
X39396Y-51393D01*
X39312Y-51463D01*
X39216Y-51515D01*
X39112Y-51547D01*
X39003Y-51558D01*
X38896Y-51549D01*
X38791Y-51518D01*
X38694Y-51467D01*
X38609Y-51399D01*
X38539Y-51315D01*
X38487Y-51220D01*
X38454Y-51116D01*
X38442Y-51007D01*
X38451Y-50900D01*
X38481Y-50795D01*
X38531Y-50698D01*
X38598Y-50612D01*
X38681Y-50541D01*
X38777Y-50488D01*
X38880Y-50455D01*
X38989Y-50442D01*
X39097Y-50450D01*
X39202Y-50479D01*
X39299Y-50529D01*
X39385Y-50596D01*
X39456Y-50678D01*
X39510Y-50773D01*
X39545Y-50877D01*
X39558Y-50985D01*
X39559Y-51000D01*
X39000Y-49000D02*
X38000Y-49000D01*
X39559Y-49000D02*
X39548Y-49108D01*
X39516Y-49213D01*
X39465Y-49309D01*
X39396Y-49393D01*
X39312Y-49463D01*
X39216Y-49515D01*
X39112Y-49547D01*
X39003Y-49558D01*
X38896Y-49549D01*
X38791Y-49518D01*
X38694Y-49467D01*
X38609Y-49399D01*
X38539Y-49315D01*
X38487Y-49220D01*
X38454Y-49116D01*
X38442Y-49007D01*
X38451Y-48900D01*
X38481Y-48795D01*
X38531Y-48698D01*
X38598Y-48612D01*
X38681Y-48541D01*
X38777Y-48488D01*
X38880Y-48455D01*
X38989Y-48442D01*
X39097Y-48450D01*
X39202Y-48479D01*
X39299Y-48529D01*
X39385Y-48596D01*
X39456Y-48678D01*
X39510Y-48773D01*
X39545Y-48877D01*
X39558Y-48985D01*
X39559Y-49000D01*
X39000Y-47000D02*
X38000Y-47000D01*
X39559Y-47000D02*
X39548Y-47108D01*
X39516Y-47213D01*
X39465Y-47309D01*
X39396Y-47393D01*
X39312Y-47463D01*
X39216Y-47515D01*
X39112Y-47547D01*
X39003Y-47558D01*
X38896Y-47549D01*
X38791Y-47518D01*
X38694Y-47467D01*
X38609Y-47399D01*
X38539Y-47315D01*
X38487Y-47220D01*
X38454Y-47116D01*
X38442Y-47007D01*
X38451Y-46900D01*
X38481Y-46795D01*
X38531Y-46698D01*
X38598Y-46612D01*
X38681Y-46541D01*
X38777Y-46488D01*
X38880Y-46455D01*
X38989Y-46442D01*
X39097Y-46450D01*
X39202Y-46479D01*
X39299Y-46529D01*
X39385Y-46596D01*
X39456Y-46678D01*
X39510Y-46773D01*
X39545Y-46877D01*
X39558Y-46985D01*
X39559Y-47000D01*
X39000Y-45000D02*
X38000Y-45000D01*
X39559Y-45000D02*
X39548Y-45108D01*
X39516Y-45213D01*
X39465Y-45309D01*
X39396Y-45393D01*
X39312Y-45463D01*
X39216Y-45515D01*
X39112Y-45547D01*
X39003Y-45558D01*
X38896Y-45549D01*
X38791Y-45518D01*
X38694Y-45467D01*
X38609Y-45399D01*
X38539Y-45315D01*
X38487Y-45220D01*
X38454Y-45116D01*
X38442Y-45007D01*
X38451Y-44900D01*
X38481Y-44795D01*
X38531Y-44698D01*
X38598Y-44612D01*
X38681Y-44541D01*
X38777Y-44488D01*
X38880Y-44455D01*
X38989Y-44442D01*
X39097Y-44450D01*
X39202Y-44479D01*
X39299Y-44529D01*
X39385Y-44596D01*
X39456Y-44678D01*
X39510Y-44773D01*
X39545Y-44877D01*
X39558Y-44985D01*
X39559Y-45000D01*
X39000Y-35000D02*
X38000Y-35000D01*
X39559Y-35000D02*
X39548Y-35108D01*
X39516Y-35213D01*
X39465Y-35309D01*
X39396Y-35393D01*
X39312Y-35463D01*
X39216Y-35515D01*
X39112Y-35547D01*
X39003Y-35558D01*
X38896Y-35549D01*
X38791Y-35518D01*
X38694Y-35467D01*
X38609Y-35399D01*
X38539Y-35315D01*
X38487Y-35220D01*
X38454Y-35116D01*
X38442Y-35007D01*
X38451Y-34900D01*
X38481Y-34795D01*
X38531Y-34698D01*
X38598Y-34612D01*
X38681Y-34541D01*
X38777Y-34488D01*
X38880Y-34455D01*
X38989Y-34442D01*
X39097Y-34450D01*
X39202Y-34479D01*
X39299Y-34529D01*
X39385Y-34596D01*
X39456Y-34678D01*
X39510Y-34773D01*
X39545Y-34877D01*
X39558Y-34985D01*
X39559Y-35000D01*
X59000Y-36000D02*
X59000Y-37000D01*
X59559Y-36000D02*
X59548Y-36108D01*
X59516Y-36213D01*
X59465Y-36309D01*
X59396Y-36393D01*
X59312Y-36463D01*
X59216Y-36515D01*
X59112Y-36547D01*
X59003Y-36558D01*
X58896Y-36549D01*
X58791Y-36518D01*
X58694Y-36467D01*
X58609Y-36399D01*
X58539Y-36315D01*
X58487Y-36220D01*
X58454Y-36116D01*
X58442Y-36007D01*
X58451Y-35900D01*
X58481Y-35795D01*
X58531Y-35698D01*
X58598Y-35612D01*
X58681Y-35541D01*
X58777Y-35488D01*
X58880Y-35455D01*
X58989Y-35442D01*
X59097Y-35450D01*
X59202Y-35479D01*
X59299Y-35529D01*
X59385Y-35596D01*
X59456Y-35678D01*
X59510Y-35773D01*
X59545Y-35877D01*
X59558Y-35985D01*
X59559Y-36000D01*
X59000Y-28000D02*
X59000Y-29000D01*
X59559Y-28000D02*
X59548Y-28108D01*
X59516Y-28213D01*
X59465Y-28309D01*
X59396Y-28393D01*
X59312Y-28463D01*
X59216Y-28515D01*
X59112Y-28547D01*
X59003Y-28558D01*
X58896Y-28549D01*
X58791Y-28518D01*
X58694Y-28467D01*
X58609Y-28399D01*
X58539Y-28315D01*
X58487Y-28220D01*
X58454Y-28116D01*
X58442Y-28007D01*
X58451Y-27900D01*
X58481Y-27795D01*
X58531Y-27698D01*
X58598Y-27612D01*
X58681Y-27541D01*
X58777Y-27488D01*
X58880Y-27455D01*
X58989Y-27442D01*
X59097Y-27450D01*
X59202Y-27479D01*
X59299Y-27529D01*
X59385Y-27596D01*
X59456Y-27678D01*
X59510Y-27773D01*
X59545Y-27877D01*
X59558Y-27985D01*
X59559Y-28000D01*
X61000Y-32000D02*
X61000Y-31000D01*
X61559Y-32000D02*
X61548Y-32108D01*
X61516Y-32213D01*
X61465Y-32309D01*
X61396Y-32393D01*
X61312Y-32463D01*
X61216Y-32515D01*
X61112Y-32547D01*
X61003Y-32558D01*
X60896Y-32549D01*
X60791Y-32518D01*
X60694Y-32467D01*
X60609Y-32399D01*
X60539Y-32315D01*
X60487Y-32220D01*
X60454Y-32116D01*
X60442Y-32007D01*
X60451Y-31900D01*
X60481Y-31795D01*
X60531Y-31698D01*
X60598Y-31612D01*
X60681Y-31541D01*
X60777Y-31488D01*
X60880Y-31455D01*
X60989Y-31442D01*
X61097Y-31450D01*
X61202Y-31479D01*
X61299Y-31529D01*
X61385Y-31596D01*
X61456Y-31678D01*
X61510Y-31773D01*
X61545Y-31877D01*
X61558Y-31985D01*
X61559Y-32000D01*
X59000Y-32000D02*
X59000Y-33000D01*
X59559Y-32000D02*
X59548Y-32108D01*
X59516Y-32213D01*
X59465Y-32309D01*
X59396Y-32393D01*
X59312Y-32463D01*
X59216Y-32515D01*
X59112Y-32547D01*
X59003Y-32558D01*
X58896Y-32549D01*
X58791Y-32518D01*
X58694Y-32467D01*
X58609Y-32399D01*
X58539Y-32315D01*
X58487Y-32220D01*
X58454Y-32116D01*
X58442Y-32007D01*
X58451Y-31900D01*
X58481Y-31795D01*
X58531Y-31698D01*
X58598Y-31612D01*
X58681Y-31541D01*
X58777Y-31488D01*
X58880Y-31455D01*
X58989Y-31442D01*
X59097Y-31450D01*
X59202Y-31479D01*
X59299Y-31529D01*
X59385Y-31596D01*
X59456Y-31678D01*
X59510Y-31773D01*
X59545Y-31877D01*
X59558Y-31985D01*
X59559Y-32000D01*
X61000Y-36000D02*
X61000Y-35000D01*
X61559Y-36000D02*
X61548Y-36108D01*
X61516Y-36213D01*
X61465Y-36309D01*
X61396Y-36393D01*
X61312Y-36463D01*
X61216Y-36515D01*
X61112Y-36547D01*
X61003Y-36558D01*
X60896Y-36549D01*
X60791Y-36518D01*
X60694Y-36467D01*
X60609Y-36399D01*
X60539Y-36315D01*
X60487Y-36220D01*
X60454Y-36116D01*
X60442Y-36007D01*
X60451Y-35900D01*
X60481Y-35795D01*
X60531Y-35698D01*
X60598Y-35612D01*
X60681Y-35541D01*
X60777Y-35488D01*
X60880Y-35455D01*
X60989Y-35442D01*
X61097Y-35450D01*
X61202Y-35479D01*
X61299Y-35529D01*
X61385Y-35596D01*
X61456Y-35678D01*
X61510Y-35773D01*
X61545Y-35877D01*
X61558Y-35985D01*
X61559Y-36000D01*
X59000Y-44000D02*
X59000Y-45000D01*
X59559Y-44000D02*
X59548Y-44108D01*
X59516Y-44213D01*
X59465Y-44309D01*
X59396Y-44393D01*
X59312Y-44463D01*
X59216Y-44515D01*
X59112Y-44547D01*
X59003Y-44558D01*
X58896Y-44549D01*
X58791Y-44518D01*
X58694Y-44467D01*
X58609Y-44399D01*
X58539Y-44315D01*
X58487Y-44220D01*
X58454Y-44116D01*
X58442Y-44007D01*
X58451Y-43900D01*
X58481Y-43795D01*
X58531Y-43698D01*
X58598Y-43612D01*
X58681Y-43541D01*
X58777Y-43488D01*
X58880Y-43455D01*
X58989Y-43442D01*
X59097Y-43450D01*
X59202Y-43479D01*
X59299Y-43529D01*
X59385Y-43596D01*
X59456Y-43678D01*
X59510Y-43773D01*
X59545Y-43877D01*
X59558Y-43985D01*
X59559Y-44000D01*
X61000Y-48000D02*
X61000Y-47000D01*
X61559Y-48000D02*
X61548Y-48108D01*
X61516Y-48213D01*
X61465Y-48309D01*
X61396Y-48393D01*
X61312Y-48463D01*
X61216Y-48515D01*
X61112Y-48547D01*
X61003Y-48558D01*
X60896Y-48549D01*
X60791Y-48518D01*
X60694Y-48467D01*
X60609Y-48399D01*
X60539Y-48315D01*
X60487Y-48220D01*
X60454Y-48116D01*
X60442Y-48007D01*
X60451Y-47900D01*
X60481Y-47795D01*
X60531Y-47698D01*
X60598Y-47612D01*
X60681Y-47541D01*
X60777Y-47488D01*
X60880Y-47455D01*
X60989Y-47442D01*
X61097Y-47450D01*
X61202Y-47479D01*
X61299Y-47529D01*
X61385Y-47596D01*
X61456Y-47678D01*
X61510Y-47773D01*
X61545Y-47877D01*
X61558Y-47985D01*
X61559Y-48000D01*
X59000Y-48000D02*
X59000Y-49000D01*
X59559Y-48000D02*
X59548Y-48108D01*
X59516Y-48213D01*
X59465Y-48309D01*
X59396Y-48393D01*
X59312Y-48463D01*
X59216Y-48515D01*
X59112Y-48547D01*
X59003Y-48558D01*
X58896Y-48549D01*
X58791Y-48518D01*
X58694Y-48467D01*
X58609Y-48399D01*
X58539Y-48315D01*
X58487Y-48220D01*
X58454Y-48116D01*
X58442Y-48007D01*
X58451Y-47900D01*
X58481Y-47795D01*
X58531Y-47698D01*
X58598Y-47612D01*
X58681Y-47541D01*
X58777Y-47488D01*
X58880Y-47455D01*
X58989Y-47442D01*
X59097Y-47450D01*
X59202Y-47479D01*
X59299Y-47529D01*
X59385Y-47596D01*
X59456Y-47678D01*
X59510Y-47773D01*
X59545Y-47877D01*
X59558Y-47985D01*
X59559Y-48000D01*
X61000Y-52000D02*
X61000Y-51000D01*
X61559Y-52000D02*
X61548Y-52108D01*
X61516Y-52213D01*
X61465Y-52309D01*
X61396Y-52393D01*
X61312Y-52463D01*
X61216Y-52515D01*
X61112Y-52547D01*
X61003Y-52558D01*
X60896Y-52549D01*
X60791Y-52518D01*
X60694Y-52467D01*
X60609Y-52399D01*
X60539Y-52315D01*
X60487Y-52220D01*
X60454Y-52116D01*
X60442Y-52007D01*
X60451Y-51900D01*
X60481Y-51795D01*
X60531Y-51698D01*
X60598Y-51612D01*
X60681Y-51541D01*
X60777Y-51488D01*
X60880Y-51455D01*
X60989Y-51442D01*
X61097Y-51450D01*
X61202Y-51479D01*
X61299Y-51529D01*
X61385Y-51596D01*
X61456Y-51678D01*
X61510Y-51773D01*
X61545Y-51877D01*
X61558Y-51985D01*
X61559Y-52000D01*
X57000Y-59000D02*
X57000Y-58000D01*
X57559Y-59000D02*
X57548Y-59108D01*
X57516Y-59213D01*
X57465Y-59309D01*
X57396Y-59393D01*
X57312Y-59463D01*
X57216Y-59515D01*
X57112Y-59547D01*
X57003Y-59558D01*
X56896Y-59549D01*
X56791Y-59518D01*
X56694Y-59467D01*
X56609Y-59399D01*
X56539Y-59315D01*
X56487Y-59220D01*
X56454Y-59116D01*
X56442Y-59007D01*
X56451Y-58900D01*
X56481Y-58795D01*
X56531Y-58698D01*
X56598Y-58612D01*
X56681Y-58541D01*
X56777Y-58488D01*
X56880Y-58455D01*
X56989Y-58442D01*
X57097Y-58450D01*
X57202Y-58479D01*
X57299Y-58529D01*
X57385Y-58596D01*
X57456Y-58678D01*
X57510Y-58773D01*
X57545Y-58877D01*
X57558Y-58985D01*
X57559Y-59000D01*
X61000Y-40000D02*
X61000Y-39000D01*
X61559Y-40000D02*
X61548Y-40108D01*
X61516Y-40213D01*
X61465Y-40309D01*
X61396Y-40393D01*
X61312Y-40463D01*
X61216Y-40515D01*
X61112Y-40547D01*
X61003Y-40558D01*
X60896Y-40549D01*
X60791Y-40518D01*
X60694Y-40467D01*
X60609Y-40399D01*
X60539Y-40315D01*
X60487Y-40220D01*
X60454Y-40116D01*
X60442Y-40007D01*
X60451Y-39900D01*
X60481Y-39795D01*
X60531Y-39698D01*
X60598Y-39612D01*
X60681Y-39541D01*
X60777Y-39488D01*
X60880Y-39455D01*
X60989Y-39442D01*
X61097Y-39450D01*
X61202Y-39479D01*
X61299Y-39529D01*
X61385Y-39596D01*
X61456Y-39678D01*
X61510Y-39773D01*
X61545Y-39877D01*
X61558Y-39985D01*
X61559Y-40000D01*
X59000Y-40000D02*
X59000Y-41000D01*
X59559Y-40000D02*
X59548Y-40108D01*
X59516Y-40213D01*
X59465Y-40309D01*
X59396Y-40393D01*
X59312Y-40463D01*
X59216Y-40515D01*
X59112Y-40547D01*
X59003Y-40558D01*
X58896Y-40549D01*
X58791Y-40518D01*
X58694Y-40467D01*
X58609Y-40399D01*
X58539Y-40315D01*
X58487Y-40220D01*
X58454Y-40116D01*
X58442Y-40007D01*
X58451Y-39900D01*
X58481Y-39795D01*
X58531Y-39698D01*
X58598Y-39612D01*
X58681Y-39541D01*
X58777Y-39488D01*
X58880Y-39455D01*
X58989Y-39442D01*
X59097Y-39450D01*
X59202Y-39479D01*
X59299Y-39529D01*
X59385Y-39596D01*
X59456Y-39678D01*
X59510Y-39773D01*
X59545Y-39877D01*
X59558Y-39985D01*
X59559Y-40000D01*
X61000Y-44000D02*
X61000Y-43000D01*
X61559Y-44000D02*
X61548Y-44108D01*
X61516Y-44213D01*
X61465Y-44309D01*
X61396Y-44393D01*
X61312Y-44463D01*
X61216Y-44515D01*
X61112Y-44547D01*
X61003Y-44558D01*
X60896Y-44549D01*
X60791Y-44518D01*
X60694Y-44467D01*
X60609Y-44399D01*
X60539Y-44315D01*
X60487Y-44220D01*
X60454Y-44116D01*
X60442Y-44007D01*
X60451Y-43900D01*
X60481Y-43795D01*
X60531Y-43698D01*
X60598Y-43612D01*
X60681Y-43541D01*
X60777Y-43488D01*
X60880Y-43455D01*
X60989Y-43442D01*
X61097Y-43450D01*
X61202Y-43479D01*
X61299Y-43529D01*
X61385Y-43596D01*
X61456Y-43678D01*
X61510Y-43773D01*
X61545Y-43877D01*
X61558Y-43985D01*
X61559Y-44000D01*
X59000Y-52000D02*
X59000Y-53000D01*
X59559Y-52000D02*
X59548Y-52108D01*
X59516Y-52213D01*
X59465Y-52309D01*
X59396Y-52393D01*
X59312Y-52463D01*
X59216Y-52515D01*
X59112Y-52547D01*
X59003Y-52558D01*
X58896Y-52549D01*
X58791Y-52518D01*
X58694Y-52467D01*
X58609Y-52399D01*
X58539Y-52315D01*
X58487Y-52220D01*
X58454Y-52116D01*
X58442Y-52007D01*
X58451Y-51900D01*
X58481Y-51795D01*
X58531Y-51698D01*
X58598Y-51612D01*
X58681Y-51541D01*
X58777Y-51488D01*
X58880Y-51455D01*
X58989Y-51442D01*
X59097Y-51450D01*
X59202Y-51479D01*
X59299Y-51529D01*
X59385Y-51596D01*
X59456Y-51678D01*
X59510Y-51773D01*
X59545Y-51877D01*
X59558Y-51985D01*
X59559Y-52000D01*
X61000Y-56000D02*
X61000Y-55000D01*
X61559Y-56000D02*
X61548Y-56108D01*
X61516Y-56213D01*
X61465Y-56309D01*
X61396Y-56393D01*
X61312Y-56463D01*
X61216Y-56515D01*
X61112Y-56547D01*
X61003Y-56558D01*
X60896Y-56549D01*
X60791Y-56518D01*
X60694Y-56467D01*
X60609Y-56399D01*
X60539Y-56315D01*
X60487Y-56220D01*
X60454Y-56116D01*
X60442Y-56007D01*
X60451Y-55900D01*
X60481Y-55795D01*
X60531Y-55698D01*
X60598Y-55612D01*
X60681Y-55541D01*
X60777Y-55488D01*
X60880Y-55455D01*
X60989Y-55442D01*
X61097Y-55450D01*
X61202Y-55479D01*
X61299Y-55529D01*
X61385Y-55596D01*
X61456Y-55678D01*
X61510Y-55773D01*
X61545Y-55877D01*
X61558Y-55985D01*
X61559Y-56000D01*
X59000Y-56000D02*
X59000Y-57000D01*
X59559Y-56000D02*
X59548Y-56108D01*
X59516Y-56213D01*
X59465Y-56309D01*
X59396Y-56393D01*
X59312Y-56463D01*
X59216Y-56515D01*
X59112Y-56547D01*
X59003Y-56558D01*
X58896Y-56549D01*
X58791Y-56518D01*
X58694Y-56467D01*
X58609Y-56399D01*
X58539Y-56315D01*
X58487Y-56220D01*
X58454Y-56116D01*
X58442Y-56007D01*
X58451Y-55900D01*
X58481Y-55795D01*
X58531Y-55698D01*
X58598Y-55612D01*
X58681Y-55541D01*
X58777Y-55488D01*
X58880Y-55455D01*
X58989Y-55442D01*
X59097Y-55450D01*
X59202Y-55479D01*
X59299Y-55529D01*
X59385Y-55596D01*
X59456Y-55678D01*
X59510Y-55773D01*
X59545Y-55877D01*
X59558Y-55985D01*
X59559Y-56000D01*
X61000Y-60000D02*
X61000Y-59000D01*
X61559Y-60000D02*
X61548Y-60108D01*
X61516Y-60213D01*
X61465Y-60309D01*
X61396Y-60393D01*
X61312Y-60463D01*
X61216Y-60515D01*
X61112Y-60547D01*
X61003Y-60558D01*
X60896Y-60549D01*
X60791Y-60518D01*
X60694Y-60467D01*
X60609Y-60399D01*
X60539Y-60315D01*
X60487Y-60220D01*
X60454Y-60116D01*
X60442Y-60007D01*
X60451Y-59900D01*
X60481Y-59795D01*
X60531Y-59698D01*
X60598Y-59612D01*
X60681Y-59541D01*
X60777Y-59488D01*
X60880Y-59455D01*
X60989Y-59442D01*
X61097Y-59450D01*
X61202Y-59479D01*
X61299Y-59529D01*
X61385Y-59596D01*
X61456Y-59678D01*
X61510Y-59773D01*
X61545Y-59877D01*
X61558Y-59985D01*
X61559Y-60000D01*
X46000Y-59000D02*
X45000Y-59000D01*
X46559Y-59000D02*
X46548Y-59108D01*
X46516Y-59213D01*
X46465Y-59309D01*
X46396Y-59393D01*
X46312Y-59463D01*
X46216Y-59515D01*
X46112Y-59547D01*
X46003Y-59558D01*
X45896Y-59549D01*
X45791Y-59518D01*
X45694Y-59467D01*
X45609Y-59399D01*
X45539Y-59315D01*
X45487Y-59220D01*
X45454Y-59116D01*
X45442Y-59007D01*
X45451Y-58900D01*
X45481Y-58795D01*
X45531Y-58698D01*
X45598Y-58612D01*
X45681Y-58541D01*
X45777Y-58488D01*
X45880Y-58455D01*
X45989Y-58442D01*
X46097Y-58450D01*
X46202Y-58479D01*
X46299Y-58529D01*
X46385Y-58596D01*
X46456Y-58678D01*
X46510Y-58773D01*
X46545Y-58877D01*
X46558Y-58985D01*
X46559Y-59000D01*
X55000Y-57000D02*
X55000Y-58000D01*
X55559Y-57000D02*
X55548Y-57108D01*
X55516Y-57213D01*
X55465Y-57309D01*
X55396Y-57393D01*
X55312Y-57463D01*
X55216Y-57515D01*
X55112Y-57547D01*
X55003Y-57558D01*
X54896Y-57549D01*
X54791Y-57518D01*
X54694Y-57467D01*
X54609Y-57399D01*
X54539Y-57315D01*
X54487Y-57220D01*
X54454Y-57116D01*
X54442Y-57007D01*
X54451Y-56900D01*
X54481Y-56795D01*
X54531Y-56698D01*
X54598Y-56612D01*
X54681Y-56541D01*
X54777Y-56488D01*
X54880Y-56455D01*
X54989Y-56442D01*
X55097Y-56450D01*
X55202Y-56479D01*
X55299Y-56529D01*
X55385Y-56596D01*
X55456Y-56678D01*
X55510Y-56773D01*
X55545Y-56877D01*
X55558Y-56985D01*
X55559Y-57000D01*
X57000Y-55000D02*
X57000Y-54000D01*
X57559Y-55000D02*
X57548Y-55108D01*
X57516Y-55213D01*
X57465Y-55309D01*
X57396Y-55393D01*
X57312Y-55463D01*
X57216Y-55515D01*
X57112Y-55547D01*
X57003Y-55558D01*
X56896Y-55549D01*
X56791Y-55518D01*
X56694Y-55467D01*
X56609Y-55399D01*
X56539Y-55315D01*
X56487Y-55220D01*
X56454Y-55116D01*
X56442Y-55007D01*
X56451Y-54900D01*
X56481Y-54795D01*
X56531Y-54698D01*
X56598Y-54612D01*
X56681Y-54541D01*
X56777Y-54488D01*
X56880Y-54455D01*
X56989Y-54442D01*
X57097Y-54450D01*
X57202Y-54479D01*
X57299Y-54529D01*
X57385Y-54596D01*
X57456Y-54678D01*
X57510Y-54773D01*
X57545Y-54877D01*
X57558Y-54985D01*
X57559Y-55000D01*
X55000Y-53000D02*
X55000Y-54000D01*
X55559Y-53000D02*
X55548Y-53108D01*
X55516Y-53213D01*
X55465Y-53309D01*
X55396Y-53393D01*
X55312Y-53463D01*
X55216Y-53515D01*
X55112Y-53547D01*
X55003Y-53558D01*
X54896Y-53549D01*
X54791Y-53518D01*
X54694Y-53467D01*
X54609Y-53399D01*
X54539Y-53315D01*
X54487Y-53220D01*
X54454Y-53116D01*
X54442Y-53007D01*
X54451Y-52900D01*
X54481Y-52795D01*
X54531Y-52698D01*
X54598Y-52612D01*
X54681Y-52541D01*
X54777Y-52488D01*
X54880Y-52455D01*
X54989Y-52442D01*
X55097Y-52450D01*
X55202Y-52479D01*
X55299Y-52529D01*
X55385Y-52596D01*
X55456Y-52678D01*
X55510Y-52773D01*
X55545Y-52877D01*
X55558Y-52985D01*
X55559Y-53000D01*
X57000Y-43000D02*
X57000Y-42000D01*
X57559Y-43000D02*
X57548Y-43108D01*
X57516Y-43213D01*
X57465Y-43309D01*
X57396Y-43393D01*
X57312Y-43463D01*
X57216Y-43515D01*
X57112Y-43547D01*
X57003Y-43558D01*
X56896Y-43549D01*
X56791Y-43518D01*
X56694Y-43467D01*
X56609Y-43399D01*
X56539Y-43315D01*
X56487Y-43220D01*
X56454Y-43116D01*
X56442Y-43007D01*
X56451Y-42900D01*
X56481Y-42795D01*
X56531Y-42698D01*
X56598Y-42612D01*
X56681Y-42541D01*
X56777Y-42488D01*
X56880Y-42455D01*
X56989Y-42442D01*
X57097Y-42450D01*
X57202Y-42479D01*
X57299Y-42529D01*
X57385Y-42596D01*
X57456Y-42678D01*
X57510Y-42773D01*
X57545Y-42877D01*
X57558Y-42985D01*
X57559Y-43000D01*
X55000Y-41000D02*
X55000Y-42000D01*
X55559Y-41000D02*
X55548Y-41108D01*
X55516Y-41213D01*
X55465Y-41309D01*
X55396Y-41393D01*
X55312Y-41463D01*
X55216Y-41515D01*
X55112Y-41547D01*
X55003Y-41558D01*
X54896Y-41549D01*
X54791Y-41518D01*
X54694Y-41467D01*
X54609Y-41399D01*
X54539Y-41315D01*
X54487Y-41220D01*
X54454Y-41116D01*
X54442Y-41007D01*
X54451Y-40900D01*
X54481Y-40795D01*
X54531Y-40698D01*
X54598Y-40612D01*
X54681Y-40541D01*
X54777Y-40488D01*
X54880Y-40455D01*
X54989Y-40442D01*
X55097Y-40450D01*
X55202Y-40479D01*
X55299Y-40529D01*
X55385Y-40596D01*
X55456Y-40678D01*
X55510Y-40773D01*
X55545Y-40877D01*
X55558Y-40985D01*
X55559Y-41000D01*
X57000Y-39000D02*
X57000Y-38000D01*
X57559Y-39000D02*
X57548Y-39108D01*
X57516Y-39213D01*
X57465Y-39309D01*
X57396Y-39393D01*
X57312Y-39463D01*
X57216Y-39515D01*
X57112Y-39547D01*
X57003Y-39558D01*
X56896Y-39549D01*
X56791Y-39518D01*
X56694Y-39467D01*
X56609Y-39399D01*
X56539Y-39315D01*
X56487Y-39220D01*
X56454Y-39116D01*
X56442Y-39007D01*
X56451Y-38900D01*
X56481Y-38795D01*
X56531Y-38698D01*
X56598Y-38612D01*
X56681Y-38541D01*
X56777Y-38488D01*
X56880Y-38455D01*
X56989Y-38442D01*
X57097Y-38450D01*
X57202Y-38479D01*
X57299Y-38529D01*
X57385Y-38596D01*
X57456Y-38678D01*
X57510Y-38773D01*
X57545Y-38877D01*
X57558Y-38985D01*
X57559Y-39000D01*
X55000Y-37000D02*
X55000Y-38000D01*
X55559Y-37000D02*
X55548Y-37108D01*
X55516Y-37213D01*
X55465Y-37309D01*
X55396Y-37393D01*
X55312Y-37463D01*
X55216Y-37515D01*
X55112Y-37547D01*
X55003Y-37558D01*
X54896Y-37549D01*
X54791Y-37518D01*
X54694Y-37467D01*
X54609Y-37399D01*
X54539Y-37315D01*
X54487Y-37220D01*
X54454Y-37116D01*
X54442Y-37007D01*
X54451Y-36900D01*
X54481Y-36795D01*
X54531Y-36698D01*
X54598Y-36612D01*
X54681Y-36541D01*
X54777Y-36488D01*
X54880Y-36455D01*
X54989Y-36442D01*
X55097Y-36450D01*
X55202Y-36479D01*
X55299Y-36529D01*
X55385Y-36596D01*
X55456Y-36678D01*
X55510Y-36773D01*
X55545Y-36877D01*
X55558Y-36985D01*
X55559Y-37000D01*
X57000Y-51000D02*
X57000Y-50000D01*
X57559Y-51000D02*
X57548Y-51108D01*
X57516Y-51213D01*
X57465Y-51309D01*
X57396Y-51393D01*
X57312Y-51463D01*
X57216Y-51515D01*
X57112Y-51547D01*
X57003Y-51558D01*
X56896Y-51549D01*
X56791Y-51518D01*
X56694Y-51467D01*
X56609Y-51399D01*
X56539Y-51315D01*
X56487Y-51220D01*
X56454Y-51116D01*
X56442Y-51007D01*
X56451Y-50900D01*
X56481Y-50795D01*
X56531Y-50698D01*
X56598Y-50612D01*
X56681Y-50541D01*
X56777Y-50488D01*
X56880Y-50455D01*
X56989Y-50442D01*
X57097Y-50450D01*
X57202Y-50479D01*
X57299Y-50529D01*
X57385Y-50596D01*
X57456Y-50678D01*
X57510Y-50773D01*
X57545Y-50877D01*
X57558Y-50985D01*
X57559Y-51000D01*
X55000Y-49000D02*
X55000Y-50000D01*
X55559Y-49000D02*
X55548Y-49108D01*
X55516Y-49213D01*
X55465Y-49309D01*
X55396Y-49393D01*
X55312Y-49463D01*
X55216Y-49515D01*
X55112Y-49547D01*
X55003Y-49558D01*
X54896Y-49549D01*
X54791Y-49518D01*
X54694Y-49467D01*
X54609Y-49399D01*
X54539Y-49315D01*
X54487Y-49220D01*
X54454Y-49116D01*
X54442Y-49007D01*
X54451Y-48900D01*
X54481Y-48795D01*
X54531Y-48698D01*
X54598Y-48612D01*
X54681Y-48541D01*
X54777Y-48488D01*
X54880Y-48455D01*
X54989Y-48442D01*
X55097Y-48450D01*
X55202Y-48479D01*
X55299Y-48529D01*
X55385Y-48596D01*
X55456Y-48678D01*
X55510Y-48773D01*
X55545Y-48877D01*
X55558Y-48985D01*
X55559Y-49000D01*
X57000Y-47000D02*
X57000Y-46000D01*
X57559Y-47000D02*
X57548Y-47108D01*
X57516Y-47213D01*
X57465Y-47309D01*
X57396Y-47393D01*
X57312Y-47463D01*
X57216Y-47515D01*
X57112Y-47547D01*
X57003Y-47558D01*
X56896Y-47549D01*
X56791Y-47518D01*
X56694Y-47467D01*
X56609Y-47399D01*
X56539Y-47315D01*
X56487Y-47220D01*
X56454Y-47116D01*
X56442Y-47007D01*
X56451Y-46900D01*
X56481Y-46795D01*
X56531Y-46698D01*
X56598Y-46612D01*
X56681Y-46541D01*
X56777Y-46488D01*
X56880Y-46455D01*
X56989Y-46442D01*
X57097Y-46450D01*
X57202Y-46479D01*
X57299Y-46529D01*
X57385Y-46596D01*
X57456Y-46678D01*
X57510Y-46773D01*
X57545Y-46877D01*
X57558Y-46985D01*
X57559Y-47000D01*
X55000Y-45000D02*
X55000Y-46000D01*
X55559Y-45000D02*
X55548Y-45108D01*
X55516Y-45213D01*
X55465Y-45309D01*
X55396Y-45393D01*
X55312Y-45463D01*
X55216Y-45515D01*
X55112Y-45547D01*
X55003Y-45558D01*
X54896Y-45549D01*
X54791Y-45518D01*
X54694Y-45467D01*
X54609Y-45399D01*
X54539Y-45315D01*
X54487Y-45220D01*
X54454Y-45116D01*
X54442Y-45007D01*
X54451Y-44900D01*
X54481Y-44795D01*
X54531Y-44698D01*
X54598Y-44612D01*
X54681Y-44541D01*
X54777Y-44488D01*
X54880Y-44455D01*
X54989Y-44442D01*
X55097Y-44450D01*
X55202Y-44479D01*
X55299Y-44529D01*
X55385Y-44596D01*
X55456Y-44678D01*
X55510Y-44773D01*
X55545Y-44877D01*
X55558Y-44985D01*
X55559Y-45000D01*
X57000Y-35000D02*
X57000Y-34000D01*
X57559Y-35000D02*
X57548Y-35108D01*
X57516Y-35213D01*
X57465Y-35309D01*
X57396Y-35393D01*
X57312Y-35463D01*
X57216Y-35515D01*
X57112Y-35547D01*
X57003Y-35558D01*
X56896Y-35549D01*
X56791Y-35518D01*
X56694Y-35467D01*
X56609Y-35399D01*
X56539Y-35315D01*
X56487Y-35220D01*
X56454Y-35116D01*
X56442Y-35007D01*
X56451Y-34900D01*
X56481Y-34795D01*
X56531Y-34698D01*
X56598Y-34612D01*
X56681Y-34541D01*
X56777Y-34488D01*
X56880Y-34455D01*
X56989Y-34442D01*
X57097Y-34450D01*
X57202Y-34479D01*
X57299Y-34529D01*
X57385Y-34596D01*
X57456Y-34678D01*
X57510Y-34773D01*
X57545Y-34877D01*
X57558Y-34985D01*
X57559Y-35000D01*
X55000Y-33000D02*
X55000Y-34000D01*
X55559Y-33000D02*
X55548Y-33108D01*
X55516Y-33213D01*
X55465Y-33309D01*
X55396Y-33393D01*
X55312Y-33463D01*
X55216Y-33515D01*
X55112Y-33547D01*
X55003Y-33558D01*
X54896Y-33549D01*
X54791Y-33518D01*
X54694Y-33467D01*
X54609Y-33399D01*
X54539Y-33315D01*
X54487Y-33220D01*
X54454Y-33116D01*
X54442Y-33007D01*
X54451Y-32900D01*
X54481Y-32795D01*
X54531Y-32698D01*
X54598Y-32612D01*
X54681Y-32541D01*
X54777Y-32488D01*
X54880Y-32455D01*
X54989Y-32442D01*
X55097Y-32450D01*
X55202Y-32479D01*
X55299Y-32529D01*
X55385Y-32596D01*
X55456Y-32678D01*
X55510Y-32773D01*
X55545Y-32877D01*
X55558Y-32985D01*
X55559Y-33000D01*
X57000Y-31000D02*
X57000Y-30000D01*
X57559Y-31000D02*
X57548Y-31108D01*
X57516Y-31213D01*
X57465Y-31309D01*
X57396Y-31393D01*
X57312Y-31463D01*
X57216Y-31515D01*
X57112Y-31547D01*
X57003Y-31558D01*
X56896Y-31549D01*
X56791Y-31518D01*
X56694Y-31467D01*
X56609Y-31399D01*
X56539Y-31315D01*
X56487Y-31220D01*
X56454Y-31116D01*
X56442Y-31007D01*
X56451Y-30900D01*
X56481Y-30795D01*
X56531Y-30698D01*
X56598Y-30612D01*
X56681Y-30541D01*
X56777Y-30488D01*
X56880Y-30455D01*
X56989Y-30442D01*
X57097Y-30450D01*
X57202Y-30479D01*
X57299Y-30529D01*
X57385Y-30596D01*
X57456Y-30678D01*
X57510Y-30773D01*
X57545Y-30877D01*
X57558Y-30985D01*
X57559Y-31000D01*
X39000Y-29000D02*
X38000Y-29000D01*
X39559Y-29000D02*
X39548Y-29108D01*
X39516Y-29213D01*
X39465Y-29309D01*
X39396Y-29393D01*
X39312Y-29463D01*
X39216Y-29515D01*
X39112Y-29547D01*
X39003Y-29558D01*
X38896Y-29549D01*
X38791Y-29518D01*
X38694Y-29467D01*
X38609Y-29399D01*
X38539Y-29315D01*
X38487Y-29220D01*
X38454Y-29116D01*
X38442Y-29007D01*
X38451Y-28900D01*
X38481Y-28795D01*
X38531Y-28698D01*
X38598Y-28612D01*
X38681Y-28541D01*
X38777Y-28488D01*
X38880Y-28455D01*
X38989Y-28442D01*
X39097Y-28450D01*
X39202Y-28479D01*
X39299Y-28529D01*
X39385Y-28596D01*
X39456Y-28678D01*
X39510Y-28773D01*
X39545Y-28877D01*
X39558Y-28985D01*
X39559Y-29000D01*
X39000Y-31000D02*
X38000Y-31000D01*
X39559Y-31000D02*
X39548Y-31108D01*
X39516Y-31213D01*
X39465Y-31309D01*
X39396Y-31393D01*
X39312Y-31463D01*
X39216Y-31515D01*
X39112Y-31547D01*
X39003Y-31558D01*
X38896Y-31549D01*
X38791Y-31518D01*
X38694Y-31467D01*
X38609Y-31399D01*
X38539Y-31315D01*
X38487Y-31220D01*
X38454Y-31116D01*
X38442Y-31007D01*
X38451Y-30900D01*
X38481Y-30795D01*
X38531Y-30698D01*
X38598Y-30612D01*
X38681Y-30541D01*
X38777Y-30488D01*
X38880Y-30455D01*
X38989Y-30442D01*
X39097Y-30450D01*
X39202Y-30479D01*
X39299Y-30529D01*
X39385Y-30596D01*
X39456Y-30678D01*
X39510Y-30773D01*
X39545Y-30877D01*
X39558Y-30985D01*
X39559Y-31000D01*
X39000Y-33000D02*
X38000Y-33000D01*
X39559Y-33000D02*
X39548Y-33108D01*
X39516Y-33213D01*
X39465Y-33309D01*
X39396Y-33393D01*
X39312Y-33463D01*
X39216Y-33515D01*
X39112Y-33547D01*
X39003Y-33558D01*
X38896Y-33549D01*
X38791Y-33518D01*
X38694Y-33467D01*
X38609Y-33399D01*
X38539Y-33315D01*
X38487Y-33220D01*
X38454Y-33116D01*
X38442Y-33007D01*
X38451Y-32900D01*
X38481Y-32795D01*
X38531Y-32698D01*
X38598Y-32612D01*
X38681Y-32541D01*
X38777Y-32488D01*
X38880Y-32455D01*
X38989Y-32442D01*
X39097Y-32450D01*
X39202Y-32479D01*
X39299Y-32529D01*
X39385Y-32596D01*
X39456Y-32678D01*
X39510Y-32773D01*
X39545Y-32877D01*
X39558Y-32985D01*
X39559Y-33000D01*
G54D12*
X72520Y-49500D02*
X74500Y-49500D01*
X74500Y-49500D02*
X74500Y-50500D01*
X74500Y-50500D02*
X72500Y-50500D01*
X72500Y-50500D02*
X72500Y-49500D01*
X72500Y-49750D02*
X72750Y-49500D01*
X49500Y-39480D02*
X49500Y-37500D01*
X49500Y-37500D02*
X50500Y-37500D01*
X50500Y-37500D02*
X50500Y-39500D01*
X50500Y-39500D02*
X49500Y-39500D01*
X49750Y-39500D02*
X49500Y-39250D01*
X49500Y-31480D02*
X49500Y-29500D01*
X49500Y-29500D02*
X50500Y-29500D01*
X50500Y-29500D02*
X50500Y-31500D01*
X50500Y-31500D02*
X49500Y-31500D01*
X49750Y-31500D02*
X49500Y-31250D01*
X48500Y-32520D02*
X48500Y-34500D01*
X48500Y-34500D02*
X47500Y-34500D01*
X47500Y-34500D02*
X47500Y-32500D01*
X47500Y-32500D02*
X48500Y-32500D01*
X48250Y-32500D02*
X48500Y-32750D01*
X49500Y-35480D02*
X49500Y-33500D01*
X49500Y-33500D02*
X50500Y-33500D01*
X50500Y-33500D02*
X50500Y-35500D01*
X50500Y-35500D02*
X49500Y-35500D01*
X49750Y-35500D02*
X49500Y-35250D01*
X48500Y-44520D02*
X48500Y-46500D01*
X48500Y-46500D02*
X47500Y-46500D01*
X47500Y-46500D02*
X47500Y-44500D01*
X47500Y-44500D02*
X48500Y-44500D01*
X48250Y-44500D02*
X48500Y-44750D01*
X49500Y-47480D02*
X49500Y-45500D01*
X49500Y-45500D02*
X50500Y-45500D01*
X50500Y-45500D02*
X50500Y-47500D01*
X50500Y-47500D02*
X49500Y-47500D01*
X49750Y-47500D02*
X49500Y-47250D01*
X48500Y-48520D02*
X48500Y-50500D01*
X48500Y-50500D02*
X47500Y-50500D01*
X47500Y-50500D02*
X47500Y-48500D01*
X47500Y-48500D02*
X48500Y-48500D01*
X48250Y-48500D02*
X48500Y-48750D01*
X49500Y-51480D02*
X49500Y-49500D01*
X49500Y-49500D02*
X50500Y-49500D01*
X50500Y-49500D02*
X50500Y-51500D01*
X50500Y-51500D02*
X49500Y-51500D01*
X49750Y-51500D02*
X49500Y-51250D01*
X48500Y-36520D02*
X48500Y-38500D01*
X48500Y-38500D02*
X47500Y-38500D01*
X47500Y-38500D02*
X47500Y-36500D01*
X47500Y-36500D02*
X48500Y-36500D01*
X48250Y-36500D02*
X48500Y-36750D01*
X41500Y-56520D02*
X41500Y-58500D01*
X41500Y-58500D02*
X40500Y-58500D01*
X40500Y-58500D02*
X40500Y-56500D01*
X40500Y-56500D02*
X41500Y-56500D01*
X41250Y-56500D02*
X41500Y-56750D01*
X48500Y-40520D02*
X48500Y-42500D01*
X48500Y-42500D02*
X47500Y-42500D01*
X47500Y-42500D02*
X47500Y-40500D01*
X47500Y-40500D02*
X48500Y-40500D01*
X48250Y-40500D02*
X48500Y-40750D01*
X49500Y-43480D02*
X49500Y-41500D01*
X49500Y-41500D02*
X50500Y-41500D01*
X50500Y-41500D02*
X50500Y-43500D01*
X50500Y-43500D02*
X49500Y-43500D01*
X49750Y-43500D02*
X49500Y-43250D01*
X48500Y-52520D02*
X48500Y-54500D01*
X48500Y-54500D02*
X47500Y-54500D01*
X47500Y-54500D02*
X47500Y-52500D01*
X47500Y-52500D02*
X48500Y-52500D01*
X48250Y-52500D02*
X48500Y-52750D01*
X49500Y-55480D02*
X49500Y-53500D01*
X49500Y-53500D02*
X50500Y-53500D01*
X50500Y-53500D02*
X50500Y-55500D01*
X50500Y-55500D02*
X49500Y-55500D01*
X49750Y-55500D02*
X49500Y-55250D01*
X48500Y-56520D02*
X48500Y-58500D01*
X48500Y-58500D02*
X47500Y-58500D01*
X47500Y-58500D02*
X47500Y-56500D01*
X47500Y-56500D02*
X48500Y-56500D01*
X48250Y-56500D02*
X48500Y-56750D01*
X48500Y-28520D02*
X48500Y-30500D01*
X48500Y-30500D02*
X47500Y-30500D01*
X47500Y-30500D02*
X47500Y-28500D01*
X47500Y-28500D02*
X48500Y-28500D01*
X48250Y-28500D02*
X48500Y-28750D01*
X42500Y-59480D02*
X42500Y-57500D01*
X42500Y-57500D02*
X43500Y-57500D01*
X43500Y-57500D02*
X43500Y-59500D01*
X43500Y-59500D02*
X42500Y-59500D01*
X42750Y-59500D02*
X42500Y-59250D01*
X42500Y-31480D02*
X42500Y-29500D01*
X42500Y-29500D02*
X43500Y-29500D01*
X43500Y-29500D02*
X43500Y-31500D01*
X43500Y-31500D02*
X42500Y-31500D01*
X42750Y-31500D02*
X42500Y-31250D01*
X42500Y-55480D02*
X42500Y-53500D01*
X42500Y-53500D02*
X43500Y-53500D01*
X43500Y-53500D02*
X43500Y-55500D01*
X43500Y-55500D02*
X42500Y-55500D01*
X42750Y-55500D02*
X42500Y-55250D01*
X41500Y-52520D02*
X41500Y-54500D01*
X41500Y-54500D02*
X40500Y-54500D01*
X40500Y-54500D02*
X40500Y-52500D01*
X40500Y-52500D02*
X41500Y-52500D01*
X41250Y-52500D02*
X41500Y-52750D01*
X42500Y-43480D02*
X42500Y-41500D01*
X42500Y-41500D02*
X43500Y-41500D01*
X43500Y-41500D02*
X43500Y-43500D01*
X43500Y-43500D02*
X42500Y-43500D01*
X42750Y-43500D02*
X42500Y-43250D01*
X41500Y-40520D02*
X41500Y-42500D01*
X41500Y-42500D02*
X40500Y-42500D01*
X40500Y-42500D02*
X40500Y-40500D01*
X40500Y-40500D02*
X41500Y-40500D01*
X41250Y-40500D02*
X41500Y-40750D01*
X42500Y-39480D02*
X42500Y-37500D01*
X42500Y-37500D02*
X43500Y-37500D01*
X43500Y-37500D02*
X43500Y-39500D01*
X43500Y-39500D02*
X42500Y-39500D01*
X42750Y-39500D02*
X42500Y-39250D01*
X41500Y-36520D02*
X41500Y-38500D01*
X41500Y-38500D02*
X40500Y-38500D01*
X40500Y-38500D02*
X40500Y-36500D01*
X40500Y-36500D02*
X41500Y-36500D01*
X41250Y-36500D02*
X41500Y-36750D01*
X42500Y-51480D02*
X42500Y-49500D01*
X42500Y-49500D02*
X43500Y-49500D01*
X43500Y-49500D02*
X43500Y-51500D01*
X43500Y-51500D02*
X42500Y-51500D01*
X42750Y-51500D02*
X42500Y-51250D01*
X41500Y-48520D02*
X41500Y-50500D01*
X41500Y-50500D02*
X40500Y-50500D01*
X40500Y-50500D02*
X40500Y-48500D01*
X40500Y-48500D02*
X41500Y-48500D01*
X41250Y-48500D02*
X41500Y-48750D01*
X42500Y-47480D02*
X42500Y-45500D01*
X42500Y-45500D02*
X43500Y-45500D01*
X43500Y-45500D02*
X43500Y-47500D01*
X43500Y-47500D02*
X42500Y-47500D01*
X42750Y-47500D02*
X42500Y-47250D01*
X41500Y-44520D02*
X41500Y-46500D01*
X41500Y-46500D02*
X40500Y-46500D01*
X40500Y-46500D02*
X40500Y-44500D01*
X40500Y-44500D02*
X41500Y-44500D01*
X41250Y-44500D02*
X41500Y-44750D01*
X42500Y-35480D02*
X42500Y-33500D01*
X42500Y-33500D02*
X43500Y-33500D01*
X43500Y-33500D02*
X43500Y-35500D01*
X43500Y-35500D02*
X42500Y-35500D01*
X42750Y-35500D02*
X42500Y-35250D01*
X41500Y-32520D02*
X41500Y-34500D01*
X41500Y-34500D02*
X40500Y-34500D01*
X40500Y-34500D02*
X40500Y-32500D01*
X40500Y-32500D02*
X41500Y-32500D01*
X41250Y-32500D02*
X41500Y-32750D01*
X51520Y-56500D02*
X53500Y-56500D01*
X53500Y-56500D02*
X53500Y-57500D01*
X53500Y-57500D02*
X51500Y-57500D01*
X51500Y-57500D02*
X51500Y-56500D01*
X51500Y-56750D02*
X51750Y-56500D01*
X41500Y-28520D02*
X41500Y-30500D01*
X41500Y-30500D02*
X40500Y-30500D01*
X40500Y-30500D02*
X40500Y-28500D01*
X40500Y-28500D02*
X41500Y-28500D01*
X41250Y-28500D02*
X41500Y-28750D01*
X73520Y-42500D02*
X75500Y-42500D01*
X75500Y-42500D02*
X75500Y-43500D01*
X75500Y-43500D02*
X73500Y-43500D01*
X73500Y-43500D02*
X73500Y-42500D01*
X73500Y-42750D02*
X73750Y-42500D01*
X73520Y-41500D02*
X75500Y-41500D01*
X75500Y-41500D02*
X75500Y-42500D01*
X75500Y-42500D02*
X73500Y-42500D01*
X73500Y-42500D02*
X73500Y-41500D01*
X73500Y-41750D02*
X73750Y-41500D01*
X67607Y-34449D02*
X69587Y-34449D01*
X69587Y-34449D02*
X69587Y-35449D01*
X69587Y-35449D02*
X67587Y-35449D01*
X67587Y-35449D02*
X67587Y-34449D01*
X67587Y-34699D02*
X67837Y-34449D01*
X74480Y-54500D02*
X72500Y-54500D01*
X72500Y-54500D02*
X72500Y-53500D01*
X72500Y-53500D02*
X74500Y-53500D01*
X74500Y-53500D02*
X74500Y-54500D01*
X74500Y-54250D02*
X74250Y-54500D01*
X71520Y-51500D02*
X73500Y-51500D01*
X73500Y-51500D02*
X73500Y-52500D01*
X73500Y-52500D02*
X71500Y-52500D01*
X71500Y-52500D02*
X71500Y-51500D01*
X71500Y-51750D02*
X71750Y-51500D01*
X71520Y-37500D02*
X73500Y-37500D01*
X73500Y-37500D02*
X73500Y-38500D01*
X73500Y-38500D02*
X71500Y-38500D01*
X71500Y-38500D02*
X71500Y-37500D01*
X71500Y-37750D02*
X71750Y-37500D01*
X71520Y-55500D02*
X73500Y-55500D01*
X73500Y-55500D02*
X73500Y-56500D01*
X73500Y-56500D02*
X71500Y-56500D01*
X71500Y-56500D02*
X71500Y-55500D01*
X71500Y-55750D02*
X71750Y-55500D01*
X71520Y-35500D02*
X73500Y-35500D01*
X73500Y-35500D02*
X73500Y-36500D01*
X73500Y-36500D02*
X71500Y-36500D01*
X71500Y-36500D02*
X71500Y-35500D01*
X71500Y-35750D02*
X71750Y-35500D01*
X68520Y-49500D02*
X70500Y-49500D01*
X70500Y-49500D02*
X70500Y-50500D01*
X70500Y-50500D02*
X68500Y-50500D01*
X68500Y-50500D02*
X68500Y-49500D01*
X68500Y-49750D02*
X68750Y-49500D01*
X70520Y-38500D02*
X72500Y-38500D01*
X72500Y-38500D02*
X72500Y-39500D01*
X72500Y-39500D02*
X70500Y-39500D01*
X70500Y-39500D02*
X70500Y-38500D01*
X70500Y-38750D02*
X70750Y-38500D01*
X68520Y-51500D02*
X70500Y-51500D01*
X70500Y-51500D02*
X70500Y-52500D01*
X70500Y-52500D02*
X68500Y-52500D01*
X68500Y-52500D02*
X68500Y-51500D01*
X68500Y-51750D02*
X68750Y-51500D01*
X70520Y-36500D02*
X72500Y-36500D01*
X72500Y-36500D02*
X72500Y-37500D01*
X72500Y-37500D02*
X70500Y-37500D01*
X70500Y-37500D02*
X70500Y-36500D01*
X70500Y-36750D02*
X70750Y-36500D01*
X51520Y-58500D02*
X53500Y-58500D01*
X53500Y-58500D02*
X53500Y-59500D01*
X53500Y-59500D02*
X51500Y-59500D01*
X51500Y-59500D02*
X51500Y-58500D01*
X51500Y-58750D02*
X51750Y-58500D01*
X49500Y-59480D02*
X49500Y-57500D01*
X49500Y-57500D02*
X50500Y-57500D01*
X50500Y-57500D02*
X50500Y-59500D01*
X50500Y-59500D02*
X49500Y-59500D01*
X49750Y-59500D02*
X49500Y-59250D01*
X51520Y-54500D02*
X53500Y-54500D01*
X53500Y-54500D02*
X53500Y-55500D01*
X53500Y-55500D02*
X51500Y-55500D01*
X51500Y-55500D02*
X51500Y-54500D01*
X51500Y-54750D02*
X51750Y-54500D01*
X51520Y-52500D02*
X53500Y-52500D01*
X53500Y-52500D02*
X53500Y-53500D01*
X53500Y-53500D02*
X51500Y-53500D01*
X51500Y-53500D02*
X51500Y-52500D01*
X51500Y-52750D02*
X51750Y-52500D01*
X51520Y-42500D02*
X53500Y-42500D01*
X53500Y-42500D02*
X53500Y-43500D01*
X53500Y-43500D02*
X51500Y-43500D01*
X51500Y-43500D02*
X51500Y-42500D01*
X51500Y-42750D02*
X51750Y-42500D01*
X51520Y-40500D02*
X53500Y-40500D01*
X53500Y-40500D02*
X53500Y-41500D01*
X53500Y-41500D02*
X51500Y-41500D01*
X51500Y-41500D02*
X51500Y-40500D01*
X51500Y-40750D02*
X51750Y-40500D01*
X51520Y-38500D02*
X53500Y-38500D01*
X53500Y-38500D02*
X53500Y-39500D01*
X53500Y-39500D02*
X51500Y-39500D01*
X51500Y-39500D02*
X51500Y-38500D01*
X51500Y-38750D02*
X51750Y-38500D01*
X51520Y-36500D02*
X53500Y-36500D01*
X53500Y-36500D02*
X53500Y-37500D01*
X53500Y-37500D02*
X51500Y-37500D01*
X51500Y-37500D02*
X51500Y-36500D01*
X51500Y-36750D02*
X51750Y-36500D01*
X51520Y-50500D02*
X53500Y-50500D01*
X53500Y-50500D02*
X53500Y-51500D01*
X53500Y-51500D02*
X51500Y-51500D01*
X51500Y-51500D02*
X51500Y-50500D01*
X51500Y-50750D02*
X51750Y-50500D01*
X51520Y-48500D02*
X53500Y-48500D01*
X53500Y-48500D02*
X53500Y-49500D01*
X53500Y-49500D02*
X51500Y-49500D01*
X51500Y-49500D02*
X51500Y-48500D01*
X51500Y-48750D02*
X51750Y-48500D01*
X51520Y-46500D02*
X53500Y-46500D01*
X53500Y-46500D02*
X53500Y-47500D01*
X53500Y-47500D02*
X51500Y-47500D01*
X51500Y-47500D02*
X51500Y-46500D01*
X51500Y-46750D02*
X51750Y-46500D01*
X51520Y-44500D02*
X53500Y-44500D01*
X53500Y-44500D02*
X53500Y-45500D01*
X53500Y-45500D02*
X51500Y-45500D01*
X51500Y-45500D02*
X51500Y-44500D01*
X51500Y-44750D02*
X51750Y-44500D01*
X51520Y-34500D02*
X53500Y-34500D01*
X53500Y-34500D02*
X53500Y-35500D01*
X53500Y-35500D02*
X51500Y-35500D01*
X51500Y-35500D02*
X51500Y-34500D01*
X51500Y-34750D02*
X51750Y-34500D01*
X51520Y-32500D02*
X53500Y-32500D01*
X53500Y-32500D02*
X53500Y-33500D01*
X53500Y-33500D02*
X51500Y-33500D01*
X51500Y-33500D02*
X51500Y-32500D01*
X51500Y-32750D02*
X51750Y-32500D01*
X51520Y-30500D02*
X53500Y-30500D01*
X53500Y-30500D02*
X53500Y-31500D01*
X53500Y-31500D02*
X51500Y-31500D01*
X51500Y-31500D02*
X51500Y-30500D01*
X51500Y-30750D02*
X51750Y-30500D01*
X51520Y-28500D02*
X53500Y-28500D01*
X53500Y-28500D02*
X53500Y-29500D01*
X53500Y-29500D02*
X51500Y-29500D01*
X51500Y-29500D02*
X51500Y-28500D01*
X51500Y-28750D02*
X51750Y-28500D01*
G54D15*
X78900Y-59000D02*
X78882Y-59174D01*
X78832Y-59342D01*
X78749Y-59498D01*
X78638Y-59634D01*
X78503Y-59746D01*
X78348Y-59829D01*
X78180Y-59881D01*
X78006Y-59899D01*
X77832Y-59884D01*
X77663Y-59834D01*
X77508Y-59753D01*
X77371Y-59643D01*
X77258Y-59508D01*
X77173Y-59354D01*
X77120Y-59187D01*
X77101Y-59012D01*
X77115Y-58838D01*
X77164Y-58669D01*
X77244Y-58513D01*
X77353Y-58375D01*
X77487Y-58261D01*
X77640Y-58176D01*
X77807Y-58121D01*
X77982Y-58101D01*
X78156Y-58114D01*
X78325Y-58161D01*
X78482Y-58241D01*
X78620Y-58349D01*
X78735Y-58482D01*
X78822Y-58634D01*
X78877Y-58801D01*
X78899Y-58975D01*
X78900Y-59000D01*
X36400Y-59000D02*
X36382Y-59174D01*
X36332Y-59342D01*
X36249Y-59498D01*
X36138Y-59634D01*
X36003Y-59746D01*
X35848Y-59829D01*
X35680Y-59881D01*
X35506Y-59899D01*
X35332Y-59884D01*
X35163Y-59834D01*
X35008Y-59753D01*
X34871Y-59643D01*
X34758Y-59508D01*
X34673Y-59354D01*
X34620Y-59187D01*
X34601Y-59012D01*
X34615Y-58838D01*
X34664Y-58669D01*
X34744Y-58513D01*
X34853Y-58375D01*
X34987Y-58261D01*
X35140Y-58176D01*
X35307Y-58121D01*
X35482Y-58101D01*
X35656Y-58114D01*
X35825Y-58161D01*
X35982Y-58241D01*
X36120Y-58349D01*
X36235Y-58482D01*
X36322Y-58634D01*
X36377Y-58801D01*
X36399Y-58975D01*
X36400Y-59000D01*
X36400Y-29000D02*
X36382Y-29174D01*
X36332Y-29342D01*
X36249Y-29498D01*
X36138Y-29634D01*
X36003Y-29746D01*
X35848Y-29829D01*
X35680Y-29881D01*
X35506Y-29899D01*
X35332Y-29884D01*
X35163Y-29834D01*
X35008Y-29753D01*
X34871Y-29643D01*
X34758Y-29508D01*
X34673Y-29354D01*
X34620Y-29187D01*
X34601Y-29012D01*
X34615Y-28838D01*
X34664Y-28669D01*
X34744Y-28513D01*
X34853Y-28375D01*
X34987Y-28261D01*
X35140Y-28176D01*
X35307Y-28121D01*
X35482Y-28101D01*
X35656Y-28114D01*
X35825Y-28161D01*
X35982Y-28241D01*
X36120Y-28349D01*
X36235Y-28482D01*
X36322Y-28634D01*
X36377Y-28801D01*
X36399Y-28975D01*
X36400Y-29000D01*
X78963Y-29051D02*
X78945Y-29225D01*
X78895Y-29393D01*
X78812Y-29549D01*
X78701Y-29685D01*
X78566Y-29797D01*
X78411Y-29880D01*
X78243Y-29932D01*
X78069Y-29950D01*
X77895Y-29935D01*
X77726Y-29885D01*
X77571Y-29804D01*
X77434Y-29694D01*
X77321Y-29559D01*
X77236Y-29405D01*
X77183Y-29238D01*
X77164Y-29063D01*
X77178Y-28889D01*
X77227Y-28720D01*
X77307Y-28564D01*
X77416Y-28426D01*
X77550Y-28312D01*
X77703Y-28227D01*
X77870Y-28172D01*
X78045Y-28152D01*
X78219Y-28165D01*
X78388Y-28212D01*
X78545Y-28292D01*
X78683Y-28400D01*
X78798Y-28533D01*
X78885Y-28685D01*
X78940Y-28852D01*
X78962Y-29026D01*
X78963Y-29051D01*
G54D16*
X70838Y-45687D02*
X71188Y-45687D01*
X71230Y-45666D01*
X71250Y-45646D01*
X71271Y-45604D01*
X71271Y-45522D01*
X71250Y-45481D01*
X71230Y-45460D01*
X71188Y-45439D01*
X70838Y-45439D01*
X71271Y-45006D02*
X71271Y-45254D01*
X71271Y-45130D02*
X70838Y-45130D01*
X70900Y-45171D01*
X70941Y-45212D01*
X70961Y-45254D01*
G54D10*
X69893Y-46535D02*
X69893Y-46347D01*
X70005Y-46572D02*
X69611Y-46441D01*
X70005Y-46310D01*
X70005Y-46178D02*
X69611Y-46178D01*
X69611Y-46084D01*
X69630Y-46028D01*
X69668Y-45991D01*
X69705Y-45972D01*
X69780Y-45953D01*
X69837Y-45953D01*
X69912Y-45972D01*
X69949Y-45991D01*
X69987Y-46028D01*
X70005Y-46084D01*
X70005Y-46178D01*
X69987Y-45803D02*
X70005Y-45747D01*
X70005Y-45653D01*
X69987Y-45615D01*
X69968Y-45597D01*
X69930Y-45578D01*
X69893Y-45578D01*
X69855Y-45597D01*
X69837Y-45615D01*
X69818Y-45653D01*
X69799Y-45728D01*
X69780Y-45765D01*
X69762Y-45784D01*
X69724Y-45803D01*
X69687Y-45803D01*
X69649Y-45784D01*
X69630Y-45765D01*
X69611Y-45728D01*
X69611Y-45634D01*
X69630Y-45578D01*
X70005Y-45203D02*
X70005Y-45428D01*
X70005Y-45315D02*
X69611Y-45315D01*
X69668Y-45353D01*
X69705Y-45390D01*
X69724Y-45428D01*
X69649Y-45053D02*
X69630Y-45034D01*
X69611Y-44997D01*
X69611Y-44903D01*
X69630Y-44865D01*
X69649Y-44847D01*
X69687Y-44828D01*
X69724Y-44828D01*
X69780Y-44847D01*
X70005Y-45072D01*
X70005Y-44828D01*
X70005Y-44640D02*
X70005Y-44565D01*
X69987Y-44528D01*
X69968Y-44509D01*
X69912Y-44472D01*
X69837Y-44453D01*
X69687Y-44453D01*
X69649Y-44472D01*
X69630Y-44490D01*
X69611Y-44528D01*
X69611Y-44603D01*
X69630Y-44640D01*
X69649Y-44659D01*
X69687Y-44678D01*
X69780Y-44678D01*
X69818Y-44659D01*
X69837Y-44640D01*
X69855Y-44603D01*
X69855Y-44528D01*
X69837Y-44490D01*
X69818Y-44472D01*
X69780Y-44453D01*
X69780Y-44228D02*
X69762Y-44265D01*
X69743Y-44284D01*
X69705Y-44303D01*
X69687Y-44303D01*
X69649Y-44284D01*
X69630Y-44265D01*
X69611Y-44228D01*
X69611Y-44153D01*
X69630Y-44115D01*
X69649Y-44097D01*
X69687Y-44078D01*
X69705Y-44078D01*
X69743Y-44097D01*
X69762Y-44115D01*
X69780Y-44153D01*
X69780Y-44228D01*
X69799Y-44265D01*
X69818Y-44284D01*
X69855Y-44303D01*
X69930Y-44303D01*
X69968Y-44284D01*
X69987Y-44265D01*
X70005Y-44228D01*
X70005Y-44153D01*
X69987Y-44115D01*
X69968Y-44097D01*
X69930Y-44078D01*
X69855Y-44078D01*
X69818Y-44097D01*
X69799Y-44115D01*
X69780Y-44153D01*
G54D14*
X69679Y-32223D02*
X69512Y-31961D01*
X69393Y-32223D02*
X69393Y-31673D01*
X69584Y-31673D01*
X69631Y-31699D01*
X69655Y-31725D01*
X69679Y-31777D01*
X69679Y-31856D01*
X69655Y-31908D01*
X69631Y-31935D01*
X69584Y-31961D01*
X69393Y-31961D01*
X70107Y-31673D02*
X70012Y-31673D01*
X69964Y-31699D01*
X69941Y-31725D01*
X69893Y-31804D01*
X69869Y-31908D01*
X69869Y-32118D01*
X69893Y-32170D01*
X69917Y-32196D01*
X69964Y-32223D01*
X70060Y-32223D01*
X70107Y-32196D01*
X70131Y-32170D01*
X70155Y-32118D01*
X70155Y-31987D01*
X70131Y-31935D01*
X70107Y-31908D01*
X70060Y-31882D01*
X69964Y-31882D01*
X69917Y-31908D01*
X69893Y-31935D01*
X69869Y-31987D01*
X70607Y-31673D02*
X70369Y-31673D01*
X70345Y-31935D01*
X70369Y-31908D01*
X70417Y-31882D01*
X70536Y-31882D01*
X70583Y-31908D01*
X70607Y-31935D01*
X70631Y-31987D01*
X70631Y-32118D01*
X70607Y-32170D01*
X70583Y-32196D01*
X70536Y-32223D01*
X70417Y-32223D01*
X70369Y-32196D01*
X70345Y-32170D01*
X45579Y-42223D02*
X45412Y-41961D01*
X45293Y-42223D02*
X45293Y-41673D01*
X45484Y-41673D01*
X45531Y-41699D01*
X45555Y-41725D01*
X45579Y-41777D01*
X45579Y-41856D01*
X45555Y-41908D01*
X45531Y-41935D01*
X45484Y-41961D01*
X45293Y-41961D01*
X45769Y-41725D02*
X45793Y-41699D01*
X45841Y-41673D01*
X45960Y-41673D01*
X46007Y-41699D01*
X46031Y-41725D01*
X46055Y-41777D01*
X46055Y-41830D01*
X46031Y-41908D01*
X45745Y-42223D01*
X46055Y-42223D01*
X46340Y-41908D02*
X46293Y-41882D01*
X46269Y-41856D01*
X46245Y-41804D01*
X46245Y-41777D01*
X46269Y-41725D01*
X46293Y-41699D01*
X46340Y-41673D01*
X46436Y-41673D01*
X46483Y-41699D01*
X46507Y-41725D01*
X46531Y-41777D01*
X46531Y-41804D01*
X46507Y-41856D01*
X46483Y-41882D01*
X46436Y-41908D01*
X46340Y-41908D01*
X46293Y-41935D01*
X46269Y-41961D01*
X46245Y-42013D01*
X46245Y-42118D01*
X46269Y-42170D01*
X46293Y-42196D01*
X46340Y-42223D01*
X46436Y-42223D01*
X46483Y-42196D01*
X46507Y-42170D01*
X46531Y-42118D01*
X46531Y-42013D01*
X46507Y-41961D01*
X46483Y-41935D01*
X46436Y-41908D01*
X45579Y-30223D02*
X45412Y-29961D01*
X45293Y-30223D02*
X45293Y-29673D01*
X45484Y-29673D01*
X45531Y-29699D01*
X45555Y-29725D01*
X45579Y-29777D01*
X45579Y-29856D01*
X45555Y-29908D01*
X45531Y-29935D01*
X45484Y-29961D01*
X45293Y-29961D01*
X46055Y-30223D02*
X45769Y-30223D01*
X45912Y-30223D02*
X45912Y-29673D01*
X45864Y-29751D01*
X45817Y-29804D01*
X45769Y-29830D01*
X46340Y-29908D02*
X46293Y-29882D01*
X46269Y-29856D01*
X46245Y-29804D01*
X46245Y-29777D01*
X46269Y-29725D01*
X46293Y-29699D01*
X46340Y-29673D01*
X46436Y-29673D01*
X46483Y-29699D01*
X46507Y-29725D01*
X46531Y-29777D01*
X46531Y-29804D01*
X46507Y-29856D01*
X46483Y-29882D01*
X46436Y-29908D01*
X46340Y-29908D01*
X46293Y-29935D01*
X46269Y-29961D01*
X46245Y-30013D01*
X46245Y-30118D01*
X46269Y-30170D01*
X46293Y-30196D01*
X46340Y-30223D01*
X46436Y-30223D01*
X46483Y-30196D01*
X46507Y-30170D01*
X46531Y-30118D01*
X46531Y-30013D01*
X46507Y-29961D01*
X46483Y-29935D01*
X46436Y-29908D01*
X45579Y-32223D02*
X45412Y-31961D01*
X45293Y-32223D02*
X45293Y-31673D01*
X45484Y-31673D01*
X45531Y-31699D01*
X45555Y-31725D01*
X45579Y-31777D01*
X45579Y-31856D01*
X45555Y-31908D01*
X45531Y-31935D01*
X45484Y-31961D01*
X45293Y-31961D01*
X46055Y-32223D02*
X45769Y-32223D01*
X45912Y-32223D02*
X45912Y-31673D01*
X45864Y-31751D01*
X45817Y-31804D01*
X45769Y-31830D01*
X46293Y-32223D02*
X46388Y-32223D01*
X46436Y-32196D01*
X46460Y-32170D01*
X46507Y-32092D01*
X46531Y-31987D01*
X46531Y-31777D01*
X46507Y-31725D01*
X46483Y-31699D01*
X46436Y-31673D01*
X46340Y-31673D01*
X46293Y-31699D01*
X46269Y-31725D01*
X46245Y-31777D01*
X46245Y-31908D01*
X46269Y-31961D01*
X46293Y-31987D01*
X46340Y-32013D01*
X46436Y-32013D01*
X46483Y-31987D01*
X46507Y-31961D01*
X46531Y-31908D01*
X45579Y-34223D02*
X45412Y-33961D01*
X45293Y-34223D02*
X45293Y-33673D01*
X45484Y-33673D01*
X45531Y-33699D01*
X45555Y-33725D01*
X45579Y-33777D01*
X45579Y-33856D01*
X45555Y-33908D01*
X45531Y-33935D01*
X45484Y-33961D01*
X45293Y-33961D01*
X45769Y-33725D02*
X45793Y-33699D01*
X45841Y-33673D01*
X45960Y-33673D01*
X46007Y-33699D01*
X46031Y-33725D01*
X46055Y-33777D01*
X46055Y-33830D01*
X46031Y-33908D01*
X45745Y-34223D01*
X46055Y-34223D01*
X46364Y-33673D02*
X46412Y-33673D01*
X46460Y-33699D01*
X46483Y-33725D01*
X46507Y-33777D01*
X46531Y-33882D01*
X46531Y-34013D01*
X46507Y-34118D01*
X46483Y-34170D01*
X46460Y-34196D01*
X46412Y-34223D01*
X46364Y-34223D01*
X46317Y-34196D01*
X46293Y-34170D01*
X46269Y-34118D01*
X46245Y-34013D01*
X46245Y-33882D01*
X46269Y-33777D01*
X46293Y-33725D01*
X46317Y-33699D01*
X46364Y-33673D01*
X45579Y-44223D02*
X45412Y-43961D01*
X45293Y-44223D02*
X45293Y-43673D01*
X45484Y-43673D01*
X45531Y-43699D01*
X45555Y-43725D01*
X45579Y-43777D01*
X45579Y-43856D01*
X45555Y-43908D01*
X45531Y-43935D01*
X45484Y-43961D01*
X45293Y-43961D01*
X45769Y-43725D02*
X45793Y-43699D01*
X45841Y-43673D01*
X45960Y-43673D01*
X46007Y-43699D01*
X46031Y-43725D01*
X46055Y-43777D01*
X46055Y-43830D01*
X46031Y-43908D01*
X45745Y-44223D01*
X46055Y-44223D01*
X46531Y-44223D02*
X46245Y-44223D01*
X46388Y-44223D02*
X46388Y-43673D01*
X46340Y-43751D01*
X46293Y-43804D01*
X46245Y-43830D01*
X45579Y-46223D02*
X45412Y-45961D01*
X45293Y-46223D02*
X45293Y-45673D01*
X45484Y-45673D01*
X45531Y-45699D01*
X45555Y-45725D01*
X45579Y-45777D01*
X45579Y-45856D01*
X45555Y-45908D01*
X45531Y-45935D01*
X45484Y-45961D01*
X45293Y-45961D01*
X45769Y-45725D02*
X45793Y-45699D01*
X45841Y-45673D01*
X45960Y-45673D01*
X46007Y-45699D01*
X46031Y-45725D01*
X46055Y-45777D01*
X46055Y-45830D01*
X46031Y-45908D01*
X45745Y-46223D01*
X46055Y-46223D01*
X46245Y-45725D02*
X46269Y-45699D01*
X46317Y-45673D01*
X46436Y-45673D01*
X46483Y-45699D01*
X46507Y-45725D01*
X46531Y-45777D01*
X46531Y-45830D01*
X46507Y-45908D01*
X46221Y-46223D01*
X46531Y-46223D01*
X45579Y-48223D02*
X45412Y-47961D01*
X45293Y-48223D02*
X45293Y-47673D01*
X45484Y-47673D01*
X45531Y-47699D01*
X45555Y-47725D01*
X45579Y-47777D01*
X45579Y-47856D01*
X45555Y-47908D01*
X45531Y-47935D01*
X45484Y-47961D01*
X45293Y-47961D01*
X45769Y-47725D02*
X45793Y-47699D01*
X45841Y-47673D01*
X45960Y-47673D01*
X46007Y-47699D01*
X46031Y-47725D01*
X46055Y-47777D01*
X46055Y-47830D01*
X46031Y-47908D01*
X45745Y-48223D01*
X46055Y-48223D01*
X46221Y-47673D02*
X46531Y-47673D01*
X46364Y-47882D01*
X46436Y-47882D01*
X46483Y-47908D01*
X46507Y-47935D01*
X46531Y-47987D01*
X46531Y-48118D01*
X46507Y-48170D01*
X46483Y-48196D01*
X46436Y-48223D01*
X46293Y-48223D01*
X46245Y-48196D01*
X46221Y-48170D01*
X45579Y-50223D02*
X45412Y-49961D01*
X45293Y-50223D02*
X45293Y-49673D01*
X45484Y-49673D01*
X45531Y-49699D01*
X45555Y-49725D01*
X45579Y-49777D01*
X45579Y-49856D01*
X45555Y-49908D01*
X45531Y-49935D01*
X45484Y-49961D01*
X45293Y-49961D01*
X45769Y-49725D02*
X45793Y-49699D01*
X45841Y-49673D01*
X45960Y-49673D01*
X46007Y-49699D01*
X46031Y-49725D01*
X46055Y-49777D01*
X46055Y-49830D01*
X46031Y-49908D01*
X45745Y-50223D01*
X46055Y-50223D01*
X46483Y-49856D02*
X46483Y-50223D01*
X46364Y-49646D02*
X46245Y-50039D01*
X46555Y-50039D01*
X45579Y-36223D02*
X45412Y-35961D01*
X45293Y-36223D02*
X45293Y-35673D01*
X45484Y-35673D01*
X45531Y-35699D01*
X45555Y-35725D01*
X45579Y-35777D01*
X45579Y-35856D01*
X45555Y-35908D01*
X45531Y-35935D01*
X45484Y-35961D01*
X45293Y-35961D01*
X45769Y-35725D02*
X45793Y-35699D01*
X45841Y-35673D01*
X45960Y-35673D01*
X46007Y-35699D01*
X46031Y-35725D01*
X46055Y-35777D01*
X46055Y-35830D01*
X46031Y-35908D01*
X45745Y-36223D01*
X46055Y-36223D01*
X46507Y-35673D02*
X46269Y-35673D01*
X46245Y-35935D01*
X46269Y-35908D01*
X46317Y-35882D01*
X46436Y-35882D01*
X46483Y-35908D01*
X46507Y-35935D01*
X46531Y-35987D01*
X46531Y-36118D01*
X46507Y-36170D01*
X46483Y-36196D01*
X46436Y-36223D01*
X46317Y-36223D01*
X46269Y-36196D01*
X46245Y-36170D01*
X45579Y-38223D02*
X45412Y-37961D01*
X45293Y-38223D02*
X45293Y-37673D01*
X45484Y-37673D01*
X45531Y-37699D01*
X45555Y-37725D01*
X45579Y-37777D01*
X45579Y-37856D01*
X45555Y-37908D01*
X45531Y-37935D01*
X45484Y-37961D01*
X45293Y-37961D01*
X45769Y-37725D02*
X45793Y-37699D01*
X45841Y-37673D01*
X45960Y-37673D01*
X46007Y-37699D01*
X46031Y-37725D01*
X46055Y-37777D01*
X46055Y-37830D01*
X46031Y-37908D01*
X45745Y-38223D01*
X46055Y-38223D01*
X46483Y-37673D02*
X46388Y-37673D01*
X46340Y-37699D01*
X46317Y-37725D01*
X46269Y-37804D01*
X46245Y-37908D01*
X46245Y-38118D01*
X46269Y-38170D01*
X46293Y-38196D01*
X46340Y-38223D01*
X46436Y-38223D01*
X46483Y-38196D01*
X46507Y-38170D01*
X46531Y-38118D01*
X46531Y-37987D01*
X46507Y-37935D01*
X46483Y-37908D01*
X46436Y-37882D01*
X46340Y-37882D01*
X46293Y-37908D01*
X46269Y-37935D01*
X46245Y-37987D01*
X45579Y-40223D02*
X45412Y-39961D01*
X45293Y-40223D02*
X45293Y-39673D01*
X45484Y-39673D01*
X45531Y-39699D01*
X45555Y-39725D01*
X45579Y-39777D01*
X45579Y-39856D01*
X45555Y-39908D01*
X45531Y-39935D01*
X45484Y-39961D01*
X45293Y-39961D01*
X45769Y-39725D02*
X45793Y-39699D01*
X45841Y-39673D01*
X45960Y-39673D01*
X46007Y-39699D01*
X46031Y-39725D01*
X46055Y-39777D01*
X46055Y-39830D01*
X46031Y-39908D01*
X45745Y-40223D01*
X46055Y-40223D01*
X46221Y-39673D02*
X46555Y-39673D01*
X46340Y-40223D01*
X38579Y-54223D02*
X38412Y-53961D01*
X38293Y-54223D02*
X38293Y-53673D01*
X38484Y-53673D01*
X38531Y-53699D01*
X38555Y-53725D01*
X38579Y-53777D01*
X38579Y-53856D01*
X38555Y-53908D01*
X38531Y-53935D01*
X38484Y-53961D01*
X38293Y-53961D01*
X39055Y-54223D02*
X38769Y-54223D01*
X38912Y-54223D02*
X38912Y-53673D01*
X38864Y-53751D01*
X38817Y-53804D01*
X38769Y-53830D01*
X39483Y-53856D02*
X39483Y-54223D01*
X39364Y-53646D02*
X39245Y-54039D01*
X39555Y-54039D01*
X45579Y-52223D02*
X45412Y-51961D01*
X45293Y-52223D02*
X45293Y-51673D01*
X45484Y-51673D01*
X45531Y-51699D01*
X45555Y-51725D01*
X45579Y-51777D01*
X45579Y-51856D01*
X45555Y-51908D01*
X45531Y-51935D01*
X45484Y-51961D01*
X45293Y-51961D01*
X45769Y-51725D02*
X45793Y-51699D01*
X45841Y-51673D01*
X45960Y-51673D01*
X46007Y-51699D01*
X46031Y-51725D01*
X46055Y-51777D01*
X46055Y-51830D01*
X46031Y-51908D01*
X45745Y-52223D01*
X46055Y-52223D01*
X46293Y-52223D02*
X46388Y-52223D01*
X46436Y-52196D01*
X46460Y-52170D01*
X46507Y-52092D01*
X46531Y-51987D01*
X46531Y-51777D01*
X46507Y-51725D01*
X46483Y-51699D01*
X46436Y-51673D01*
X46340Y-51673D01*
X46293Y-51699D01*
X46269Y-51725D01*
X46245Y-51777D01*
X46245Y-51908D01*
X46269Y-51961D01*
X46293Y-51987D01*
X46340Y-52013D01*
X46436Y-52013D01*
X46483Y-51987D01*
X46507Y-51961D01*
X46531Y-51908D01*
X45579Y-54223D02*
X45412Y-53961D01*
X45293Y-54223D02*
X45293Y-53673D01*
X45484Y-53673D01*
X45531Y-53699D01*
X45555Y-53725D01*
X45579Y-53777D01*
X45579Y-53856D01*
X45555Y-53908D01*
X45531Y-53935D01*
X45484Y-53961D01*
X45293Y-53961D01*
X45745Y-53673D02*
X46055Y-53673D01*
X45888Y-53882D01*
X45960Y-53882D01*
X46007Y-53908D01*
X46031Y-53935D01*
X46055Y-53987D01*
X46055Y-54118D01*
X46031Y-54170D01*
X46007Y-54196D01*
X45960Y-54223D01*
X45817Y-54223D01*
X45769Y-54196D01*
X45745Y-54170D01*
X46364Y-53673D02*
X46412Y-53673D01*
X46460Y-53699D01*
X46483Y-53725D01*
X46507Y-53777D01*
X46531Y-53882D01*
X46531Y-54013D01*
X46507Y-54118D01*
X46483Y-54170D01*
X46460Y-54196D01*
X46412Y-54223D01*
X46364Y-54223D01*
X46317Y-54196D01*
X46293Y-54170D01*
X46269Y-54118D01*
X46245Y-54013D01*
X46245Y-53882D01*
X46269Y-53777D01*
X46293Y-53725D01*
X46317Y-53699D01*
X46364Y-53673D01*
X45579Y-56223D02*
X45412Y-55961D01*
X45293Y-56223D02*
X45293Y-55673D01*
X45484Y-55673D01*
X45531Y-55699D01*
X45555Y-55725D01*
X45579Y-55777D01*
X45579Y-55856D01*
X45555Y-55908D01*
X45531Y-55935D01*
X45484Y-55961D01*
X45293Y-55961D01*
X45745Y-55673D02*
X46055Y-55673D01*
X45888Y-55882D01*
X45960Y-55882D01*
X46007Y-55908D01*
X46031Y-55935D01*
X46055Y-55987D01*
X46055Y-56118D01*
X46031Y-56170D01*
X46007Y-56196D01*
X45960Y-56223D01*
X45817Y-56223D01*
X45769Y-56196D01*
X45745Y-56170D01*
X46531Y-56223D02*
X46245Y-56223D01*
X46388Y-56223D02*
X46388Y-55673D01*
X46340Y-55751D01*
X46293Y-55804D01*
X46245Y-55830D01*
X45579Y-28223D02*
X45412Y-27961D01*
X45293Y-28223D02*
X45293Y-27673D01*
X45484Y-27673D01*
X45531Y-27699D01*
X45555Y-27725D01*
X45579Y-27777D01*
X45579Y-27856D01*
X45555Y-27908D01*
X45531Y-27935D01*
X45484Y-27961D01*
X45293Y-27961D01*
X46055Y-28223D02*
X45769Y-28223D01*
X45912Y-28223D02*
X45912Y-27673D01*
X45864Y-27751D01*
X45817Y-27804D01*
X45769Y-27830D01*
X46221Y-27673D02*
X46555Y-27673D01*
X46340Y-28223D01*
X38579Y-58223D02*
X38412Y-57961D01*
X38293Y-58223D02*
X38293Y-57673D01*
X38484Y-57673D01*
X38531Y-57699D01*
X38555Y-57725D01*
X38579Y-57777D01*
X38579Y-57856D01*
X38555Y-57908D01*
X38531Y-57935D01*
X38484Y-57961D01*
X38293Y-57961D01*
X39055Y-58223D02*
X38769Y-58223D01*
X38912Y-58223D02*
X38912Y-57673D01*
X38864Y-57751D01*
X38817Y-57804D01*
X38769Y-57830D01*
X39483Y-57673D02*
X39388Y-57673D01*
X39340Y-57699D01*
X39317Y-57725D01*
X39269Y-57804D01*
X39245Y-57908D01*
X39245Y-58118D01*
X39269Y-58170D01*
X39293Y-58196D01*
X39340Y-58223D01*
X39436Y-58223D01*
X39483Y-58196D01*
X39507Y-58170D01*
X39531Y-58118D01*
X39531Y-57987D01*
X39507Y-57935D01*
X39483Y-57908D01*
X39436Y-57882D01*
X39340Y-57882D01*
X39293Y-57908D01*
X39269Y-57935D01*
X39245Y-57987D01*
X38579Y-56223D02*
X38412Y-55961D01*
X38293Y-56223D02*
X38293Y-55673D01*
X38484Y-55673D01*
X38531Y-55699D01*
X38555Y-55725D01*
X38579Y-55777D01*
X38579Y-55856D01*
X38555Y-55908D01*
X38531Y-55935D01*
X38484Y-55961D01*
X38293Y-55961D01*
X39055Y-56223D02*
X38769Y-56223D01*
X38912Y-56223D02*
X38912Y-55673D01*
X38864Y-55751D01*
X38817Y-55804D01*
X38769Y-55830D01*
X39507Y-55673D02*
X39269Y-55673D01*
X39245Y-55935D01*
X39269Y-55908D01*
X39317Y-55882D01*
X39436Y-55882D01*
X39483Y-55908D01*
X39507Y-55935D01*
X39531Y-55987D01*
X39531Y-56118D01*
X39507Y-56170D01*
X39483Y-56196D01*
X39436Y-56223D01*
X39317Y-56223D01*
X39269Y-56196D01*
X39245Y-56170D01*
X54223Y-29421D02*
X53961Y-29588D01*
X54223Y-29707D02*
X53673Y-29707D01*
X53673Y-29516D01*
X53699Y-29469D01*
X53725Y-29445D01*
X53777Y-29421D01*
X53856Y-29421D01*
X53908Y-29445D01*
X53935Y-29469D01*
X53961Y-29516D01*
X53961Y-29707D01*
X53673Y-29255D02*
X53673Y-28945D01*
X53882Y-29112D01*
X53882Y-29040D01*
X53908Y-28993D01*
X53935Y-28969D01*
X53987Y-28945D01*
X54118Y-28945D01*
X54170Y-28969D01*
X54196Y-28993D01*
X54223Y-29040D01*
X54223Y-29183D01*
X54196Y-29231D01*
X54170Y-29255D01*
X53673Y-28779D02*
X53673Y-28469D01*
X53882Y-28636D01*
X53882Y-28564D01*
X53908Y-28517D01*
X53935Y-28493D01*
X53987Y-28469D01*
X54118Y-28469D01*
X54170Y-28493D01*
X54196Y-28517D01*
X54223Y-28564D01*
X54223Y-28707D01*
X54196Y-28755D01*
X54170Y-28779D01*
X38579Y-52223D02*
X38412Y-51961D01*
X38293Y-52223D02*
X38293Y-51673D01*
X38484Y-51673D01*
X38531Y-51699D01*
X38555Y-51725D01*
X38579Y-51777D01*
X38579Y-51856D01*
X38555Y-51908D01*
X38531Y-51935D01*
X38484Y-51961D01*
X38293Y-51961D01*
X39055Y-52223D02*
X38769Y-52223D01*
X38912Y-52223D02*
X38912Y-51673D01*
X38864Y-51751D01*
X38817Y-51804D01*
X38769Y-51830D01*
X39221Y-51673D02*
X39531Y-51673D01*
X39364Y-51882D01*
X39436Y-51882D01*
X39483Y-51908D01*
X39507Y-51935D01*
X39531Y-51987D01*
X39531Y-52118D01*
X39507Y-52170D01*
X39483Y-52196D01*
X39436Y-52223D01*
X39293Y-52223D01*
X39245Y-52196D01*
X39221Y-52170D01*
X38579Y-42223D02*
X38412Y-41961D01*
X38293Y-42223D02*
X38293Y-41673D01*
X38484Y-41673D01*
X38531Y-41699D01*
X38555Y-41725D01*
X38579Y-41777D01*
X38579Y-41856D01*
X38555Y-41908D01*
X38531Y-41935D01*
X38484Y-41961D01*
X38293Y-41961D01*
X39055Y-42223D02*
X38769Y-42223D01*
X38912Y-42223D02*
X38912Y-41673D01*
X38864Y-41751D01*
X38817Y-41804D01*
X38769Y-41830D01*
X39245Y-41725D02*
X39269Y-41699D01*
X39317Y-41673D01*
X39436Y-41673D01*
X39483Y-41699D01*
X39507Y-41725D01*
X39531Y-41777D01*
X39531Y-41830D01*
X39507Y-41908D01*
X39221Y-42223D01*
X39531Y-42223D01*
X38579Y-40223D02*
X38412Y-39961D01*
X38293Y-40223D02*
X38293Y-39673D01*
X38484Y-39673D01*
X38531Y-39699D01*
X38555Y-39725D01*
X38579Y-39777D01*
X38579Y-39856D01*
X38555Y-39908D01*
X38531Y-39935D01*
X38484Y-39961D01*
X38293Y-39961D01*
X39055Y-40223D02*
X38769Y-40223D01*
X38912Y-40223D02*
X38912Y-39673D01*
X38864Y-39751D01*
X38817Y-39804D01*
X38769Y-39830D01*
X39531Y-40223D02*
X39245Y-40223D01*
X39388Y-40223D02*
X39388Y-39673D01*
X39340Y-39751D01*
X39293Y-39804D01*
X39245Y-39830D01*
X38579Y-38223D02*
X38412Y-37961D01*
X38293Y-38223D02*
X38293Y-37673D01*
X38484Y-37673D01*
X38531Y-37699D01*
X38555Y-37725D01*
X38579Y-37777D01*
X38579Y-37856D01*
X38555Y-37908D01*
X38531Y-37935D01*
X38484Y-37961D01*
X38293Y-37961D01*
X39055Y-38223D02*
X38769Y-38223D01*
X38912Y-38223D02*
X38912Y-37673D01*
X38864Y-37751D01*
X38817Y-37804D01*
X38769Y-37830D01*
X39364Y-37673D02*
X39412Y-37673D01*
X39460Y-37699D01*
X39483Y-37725D01*
X39507Y-37777D01*
X39531Y-37882D01*
X39531Y-38013D01*
X39507Y-38118D01*
X39483Y-38170D01*
X39460Y-38196D01*
X39412Y-38223D01*
X39364Y-38223D01*
X39317Y-38196D01*
X39293Y-38170D01*
X39269Y-38118D01*
X39245Y-38013D01*
X39245Y-37882D01*
X39269Y-37777D01*
X39293Y-37725D01*
X39317Y-37699D01*
X39364Y-37673D01*
X38817Y-36223D02*
X38650Y-35961D01*
X38531Y-36223D02*
X38531Y-35673D01*
X38722Y-35673D01*
X38769Y-35699D01*
X38793Y-35725D01*
X38817Y-35777D01*
X38817Y-35856D01*
X38793Y-35908D01*
X38769Y-35935D01*
X38722Y-35961D01*
X38531Y-35961D01*
X39055Y-36223D02*
X39150Y-36223D01*
X39198Y-36196D01*
X39222Y-36170D01*
X39269Y-36092D01*
X39293Y-35987D01*
X39293Y-35777D01*
X39269Y-35725D01*
X39245Y-35699D01*
X39198Y-35673D01*
X39102Y-35673D01*
X39055Y-35699D01*
X39031Y-35725D01*
X39007Y-35777D01*
X39007Y-35908D01*
X39031Y-35961D01*
X39055Y-35987D01*
X39102Y-36013D01*
X39198Y-36013D01*
X39245Y-35987D01*
X39269Y-35961D01*
X39293Y-35908D01*
X38817Y-50223D02*
X38650Y-49961D01*
X38531Y-50223D02*
X38531Y-49673D01*
X38722Y-49673D01*
X38769Y-49699D01*
X38793Y-49725D01*
X38817Y-49777D01*
X38817Y-49856D01*
X38793Y-49908D01*
X38769Y-49935D01*
X38722Y-49961D01*
X38531Y-49961D01*
X39102Y-49908D02*
X39055Y-49882D01*
X39031Y-49856D01*
X39007Y-49804D01*
X39007Y-49777D01*
X39031Y-49725D01*
X39055Y-49699D01*
X39102Y-49673D01*
X39198Y-49673D01*
X39245Y-49699D01*
X39269Y-49725D01*
X39293Y-49777D01*
X39293Y-49804D01*
X39269Y-49856D01*
X39245Y-49882D01*
X39198Y-49908D01*
X39102Y-49908D01*
X39055Y-49935D01*
X39031Y-49961D01*
X39007Y-50013D01*
X39007Y-50118D01*
X39031Y-50170D01*
X39055Y-50196D01*
X39102Y-50223D01*
X39198Y-50223D01*
X39245Y-50196D01*
X39269Y-50170D01*
X39293Y-50118D01*
X39293Y-50013D01*
X39269Y-49961D01*
X39245Y-49935D01*
X39198Y-49908D01*
X38817Y-48223D02*
X38650Y-47961D01*
X38531Y-48223D02*
X38531Y-47673D01*
X38722Y-47673D01*
X38769Y-47699D01*
X38793Y-47725D01*
X38817Y-47777D01*
X38817Y-47856D01*
X38793Y-47908D01*
X38769Y-47935D01*
X38722Y-47961D01*
X38531Y-47961D01*
X38983Y-47673D02*
X39317Y-47673D01*
X39102Y-48223D01*
X38817Y-46223D02*
X38650Y-45961D01*
X38531Y-46223D02*
X38531Y-45673D01*
X38722Y-45673D01*
X38769Y-45699D01*
X38793Y-45725D01*
X38817Y-45777D01*
X38817Y-45856D01*
X38793Y-45908D01*
X38769Y-45935D01*
X38722Y-45961D01*
X38531Y-45961D01*
X39245Y-45673D02*
X39150Y-45673D01*
X39102Y-45699D01*
X39079Y-45725D01*
X39031Y-45804D01*
X39007Y-45908D01*
X39007Y-46118D01*
X39031Y-46170D01*
X39055Y-46196D01*
X39102Y-46223D01*
X39198Y-46223D01*
X39245Y-46196D01*
X39269Y-46170D01*
X39293Y-46118D01*
X39293Y-45987D01*
X39269Y-45935D01*
X39245Y-45908D01*
X39198Y-45882D01*
X39102Y-45882D01*
X39055Y-45908D01*
X39031Y-45935D01*
X39007Y-45987D01*
X38817Y-44223D02*
X38650Y-43961D01*
X38531Y-44223D02*
X38531Y-43673D01*
X38722Y-43673D01*
X38769Y-43699D01*
X38793Y-43725D01*
X38817Y-43777D01*
X38817Y-43856D01*
X38793Y-43908D01*
X38769Y-43935D01*
X38722Y-43961D01*
X38531Y-43961D01*
X39269Y-43673D02*
X39031Y-43673D01*
X39007Y-43935D01*
X39031Y-43908D01*
X39079Y-43882D01*
X39198Y-43882D01*
X39245Y-43908D01*
X39269Y-43935D01*
X39293Y-43987D01*
X39293Y-44118D01*
X39269Y-44170D01*
X39245Y-44196D01*
X39198Y-44223D01*
X39079Y-44223D01*
X39031Y-44196D01*
X39007Y-44170D01*
X38817Y-34223D02*
X38650Y-33961D01*
X38531Y-34223D02*
X38531Y-33673D01*
X38722Y-33673D01*
X38769Y-33699D01*
X38793Y-33725D01*
X38817Y-33777D01*
X38817Y-33856D01*
X38793Y-33908D01*
X38769Y-33935D01*
X38722Y-33961D01*
X38531Y-33961D01*
X39245Y-33856D02*
X39245Y-34223D01*
X39126Y-33646D02*
X39007Y-34039D01*
X39317Y-34039D01*
X58223Y-36421D02*
X57961Y-36588D01*
X58223Y-36707D02*
X57673Y-36707D01*
X57673Y-36516D01*
X57699Y-36469D01*
X57725Y-36445D01*
X57777Y-36421D01*
X57856Y-36421D01*
X57908Y-36445D01*
X57935Y-36469D01*
X57961Y-36516D01*
X57961Y-36707D01*
X57673Y-35969D02*
X57673Y-36207D01*
X57935Y-36231D01*
X57908Y-36207D01*
X57882Y-36159D01*
X57882Y-36040D01*
X57908Y-35993D01*
X57935Y-35969D01*
X57987Y-35945D01*
X58118Y-35945D01*
X58170Y-35969D01*
X58196Y-35993D01*
X58223Y-36040D01*
X58223Y-36159D01*
X58196Y-36207D01*
X58170Y-36231D01*
X57673Y-35779D02*
X57673Y-35445D01*
X58223Y-35660D01*
X58223Y-28421D02*
X57961Y-28588D01*
X58223Y-28707D02*
X57673Y-28707D01*
X57673Y-28516D01*
X57699Y-28469D01*
X57725Y-28445D01*
X57777Y-28421D01*
X57856Y-28421D01*
X57908Y-28445D01*
X57935Y-28469D01*
X57961Y-28516D01*
X57961Y-28707D01*
X57856Y-27993D02*
X58223Y-27993D01*
X57646Y-28112D02*
X58039Y-28231D01*
X58039Y-27921D01*
X58223Y-27707D02*
X58223Y-27612D01*
X58196Y-27564D01*
X58170Y-27540D01*
X58092Y-27493D01*
X57987Y-27469D01*
X57777Y-27469D01*
X57725Y-27493D01*
X57699Y-27517D01*
X57673Y-27564D01*
X57673Y-27660D01*
X57699Y-27707D01*
X57725Y-27731D01*
X57777Y-27755D01*
X57908Y-27755D01*
X57961Y-27731D01*
X57987Y-27707D01*
X58013Y-27660D01*
X58013Y-27564D01*
X57987Y-27517D01*
X57961Y-27493D01*
X57908Y-27469D01*
X62223Y-32221D02*
X61961Y-32388D01*
X62223Y-32507D02*
X61673Y-32507D01*
X61673Y-32316D01*
X61699Y-32269D01*
X61725Y-32245D01*
X61777Y-32221D01*
X61856Y-32221D01*
X61908Y-32245D01*
X61935Y-32269D01*
X61961Y-32316D01*
X61961Y-32507D01*
X61673Y-31769D02*
X61673Y-32007D01*
X61935Y-32031D01*
X61908Y-32007D01*
X61882Y-31959D01*
X61882Y-31840D01*
X61908Y-31793D01*
X61935Y-31769D01*
X61987Y-31745D01*
X62118Y-31745D01*
X62170Y-31769D01*
X62196Y-31793D01*
X62223Y-31840D01*
X62223Y-31959D01*
X62196Y-32007D01*
X62170Y-32031D01*
X61673Y-31436D02*
X61673Y-31388D01*
X61699Y-31340D01*
X61725Y-31317D01*
X61777Y-31293D01*
X61882Y-31269D01*
X62013Y-31269D01*
X62118Y-31293D01*
X62170Y-31317D01*
X62196Y-31340D01*
X62223Y-31388D01*
X62223Y-31436D01*
X62196Y-31483D01*
X62170Y-31507D01*
X62118Y-31531D01*
X62013Y-31555D01*
X61882Y-31555D01*
X61777Y-31531D01*
X61725Y-31507D01*
X61699Y-31483D01*
X61673Y-31436D01*
X58223Y-32421D02*
X57961Y-32588D01*
X58223Y-32707D02*
X57673Y-32707D01*
X57673Y-32516D01*
X57699Y-32469D01*
X57725Y-32445D01*
X57777Y-32421D01*
X57856Y-32421D01*
X57908Y-32445D01*
X57935Y-32469D01*
X57961Y-32516D01*
X57961Y-32707D01*
X57673Y-31969D02*
X57673Y-32207D01*
X57935Y-32231D01*
X57908Y-32207D01*
X57882Y-32159D01*
X57882Y-32040D01*
X57908Y-31993D01*
X57935Y-31969D01*
X57987Y-31945D01*
X58118Y-31945D01*
X58170Y-31969D01*
X58196Y-31993D01*
X58223Y-32040D01*
X58223Y-32159D01*
X58196Y-32207D01*
X58170Y-32231D01*
X58223Y-31469D02*
X58223Y-31755D01*
X58223Y-31612D02*
X57673Y-31612D01*
X57751Y-31660D01*
X57804Y-31707D01*
X57830Y-31755D01*
X62223Y-36221D02*
X61961Y-36388D01*
X62223Y-36507D02*
X61673Y-36507D01*
X61673Y-36316D01*
X61699Y-36269D01*
X61725Y-36245D01*
X61777Y-36221D01*
X61856Y-36221D01*
X61908Y-36245D01*
X61935Y-36269D01*
X61961Y-36316D01*
X61961Y-36507D01*
X61673Y-35769D02*
X61673Y-36007D01*
X61935Y-36031D01*
X61908Y-36007D01*
X61882Y-35959D01*
X61882Y-35840D01*
X61908Y-35793D01*
X61935Y-35769D01*
X61987Y-35745D01*
X62118Y-35745D01*
X62170Y-35769D01*
X62196Y-35793D01*
X62223Y-35840D01*
X62223Y-35959D01*
X62196Y-36007D01*
X62170Y-36031D01*
X61725Y-35555D02*
X61699Y-35531D01*
X61673Y-35483D01*
X61673Y-35364D01*
X61699Y-35317D01*
X61725Y-35293D01*
X61777Y-35269D01*
X61830Y-35269D01*
X61908Y-35293D01*
X62223Y-35579D01*
X62223Y-35269D01*
X58223Y-44421D02*
X57961Y-44588D01*
X58223Y-44707D02*
X57673Y-44707D01*
X57673Y-44516D01*
X57699Y-44469D01*
X57725Y-44445D01*
X57777Y-44421D01*
X57856Y-44421D01*
X57908Y-44445D01*
X57935Y-44469D01*
X57961Y-44516D01*
X57961Y-44707D01*
X57673Y-43969D02*
X57673Y-44207D01*
X57935Y-44231D01*
X57908Y-44207D01*
X57882Y-44159D01*
X57882Y-44040D01*
X57908Y-43993D01*
X57935Y-43969D01*
X57987Y-43945D01*
X58118Y-43945D01*
X58170Y-43969D01*
X58196Y-43993D01*
X58223Y-44040D01*
X58223Y-44159D01*
X58196Y-44207D01*
X58170Y-44231D01*
X57673Y-43779D02*
X57673Y-43469D01*
X57882Y-43636D01*
X57882Y-43564D01*
X57908Y-43517D01*
X57935Y-43493D01*
X57987Y-43469D01*
X58118Y-43469D01*
X58170Y-43493D01*
X58196Y-43517D01*
X58223Y-43564D01*
X58223Y-43707D01*
X58196Y-43755D01*
X58170Y-43779D01*
X62223Y-48221D02*
X61961Y-48388D01*
X62223Y-48507D02*
X61673Y-48507D01*
X61673Y-48316D01*
X61699Y-48269D01*
X61725Y-48245D01*
X61777Y-48221D01*
X61856Y-48221D01*
X61908Y-48245D01*
X61935Y-48269D01*
X61961Y-48316D01*
X61961Y-48507D01*
X61673Y-47769D02*
X61673Y-48007D01*
X61935Y-48031D01*
X61908Y-48007D01*
X61882Y-47959D01*
X61882Y-47840D01*
X61908Y-47793D01*
X61935Y-47769D01*
X61987Y-47745D01*
X62118Y-47745D01*
X62170Y-47769D01*
X62196Y-47793D01*
X62223Y-47840D01*
X62223Y-47959D01*
X62196Y-48007D01*
X62170Y-48031D01*
X61856Y-47317D02*
X62223Y-47317D01*
X61646Y-47436D02*
X62039Y-47555D01*
X62039Y-47245D01*
X58223Y-48421D02*
X57961Y-48588D01*
X58223Y-48707D02*
X57673Y-48707D01*
X57673Y-48516D01*
X57699Y-48469D01*
X57725Y-48445D01*
X57777Y-48421D01*
X57856Y-48421D01*
X57908Y-48445D01*
X57935Y-48469D01*
X57961Y-48516D01*
X57961Y-48707D01*
X57673Y-47969D02*
X57673Y-48207D01*
X57935Y-48231D01*
X57908Y-48207D01*
X57882Y-48159D01*
X57882Y-48040D01*
X57908Y-47993D01*
X57935Y-47969D01*
X57987Y-47945D01*
X58118Y-47945D01*
X58170Y-47969D01*
X58196Y-47993D01*
X58223Y-48040D01*
X58223Y-48159D01*
X58196Y-48207D01*
X58170Y-48231D01*
X57673Y-47493D02*
X57673Y-47731D01*
X57935Y-47755D01*
X57908Y-47731D01*
X57882Y-47683D01*
X57882Y-47564D01*
X57908Y-47517D01*
X57935Y-47493D01*
X57987Y-47469D01*
X58118Y-47469D01*
X58170Y-47493D01*
X58196Y-47517D01*
X58223Y-47564D01*
X58223Y-47683D01*
X58196Y-47731D01*
X58170Y-47755D01*
X62223Y-52221D02*
X61961Y-52388D01*
X62223Y-52507D02*
X61673Y-52507D01*
X61673Y-52316D01*
X61699Y-52269D01*
X61725Y-52245D01*
X61777Y-52221D01*
X61856Y-52221D01*
X61908Y-52245D01*
X61935Y-52269D01*
X61961Y-52316D01*
X61961Y-52507D01*
X61673Y-51769D02*
X61673Y-52007D01*
X61935Y-52031D01*
X61908Y-52007D01*
X61882Y-51959D01*
X61882Y-51840D01*
X61908Y-51793D01*
X61935Y-51769D01*
X61987Y-51745D01*
X62118Y-51745D01*
X62170Y-51769D01*
X62196Y-51793D01*
X62223Y-51840D01*
X62223Y-51959D01*
X62196Y-52007D01*
X62170Y-52031D01*
X61673Y-51317D02*
X61673Y-51412D01*
X61699Y-51460D01*
X61725Y-51483D01*
X61804Y-51531D01*
X61908Y-51555D01*
X62118Y-51555D01*
X62170Y-51531D01*
X62196Y-51507D01*
X62223Y-51460D01*
X62223Y-51364D01*
X62196Y-51317D01*
X62170Y-51293D01*
X62118Y-51269D01*
X61987Y-51269D01*
X61935Y-51293D01*
X61908Y-51317D01*
X61882Y-51364D01*
X61882Y-51460D01*
X61908Y-51507D01*
X61935Y-51531D01*
X61987Y-51555D01*
X58223Y-59221D02*
X57961Y-59388D01*
X58223Y-59507D02*
X57673Y-59507D01*
X57673Y-59316D01*
X57699Y-59269D01*
X57725Y-59245D01*
X57777Y-59221D01*
X57856Y-59221D01*
X57908Y-59245D01*
X57935Y-59269D01*
X57961Y-59316D01*
X57961Y-59507D01*
X57856Y-58793D02*
X58223Y-58793D01*
X57646Y-58912D02*
X58039Y-59031D01*
X58039Y-58721D01*
X57908Y-58460D02*
X57882Y-58507D01*
X57856Y-58531D01*
X57804Y-58555D01*
X57777Y-58555D01*
X57725Y-58531D01*
X57699Y-58507D01*
X57673Y-58460D01*
X57673Y-58364D01*
X57699Y-58317D01*
X57725Y-58293D01*
X57777Y-58269D01*
X57804Y-58269D01*
X57856Y-58293D01*
X57882Y-58317D01*
X57908Y-58364D01*
X57908Y-58460D01*
X57935Y-58507D01*
X57961Y-58531D01*
X58013Y-58555D01*
X58118Y-58555D01*
X58170Y-58531D01*
X58196Y-58507D01*
X58223Y-58460D01*
X58223Y-58364D01*
X58196Y-58317D01*
X58170Y-58293D01*
X58118Y-58269D01*
X58013Y-58269D01*
X57961Y-58293D01*
X57935Y-58317D01*
X57908Y-58364D01*
X62223Y-40221D02*
X61961Y-40388D01*
X62223Y-40507D02*
X61673Y-40507D01*
X61673Y-40316D01*
X61699Y-40269D01*
X61725Y-40245D01*
X61777Y-40221D01*
X61856Y-40221D01*
X61908Y-40245D01*
X61935Y-40269D01*
X61961Y-40316D01*
X61961Y-40507D01*
X61673Y-39769D02*
X61673Y-40007D01*
X61935Y-40031D01*
X61908Y-40007D01*
X61882Y-39959D01*
X61882Y-39840D01*
X61908Y-39793D01*
X61935Y-39769D01*
X61987Y-39745D01*
X62118Y-39745D01*
X62170Y-39769D01*
X62196Y-39793D01*
X62223Y-39840D01*
X62223Y-39959D01*
X62196Y-40007D01*
X62170Y-40031D01*
X61908Y-39460D02*
X61882Y-39507D01*
X61856Y-39531D01*
X61804Y-39555D01*
X61777Y-39555D01*
X61725Y-39531D01*
X61699Y-39507D01*
X61673Y-39460D01*
X61673Y-39364D01*
X61699Y-39317D01*
X61725Y-39293D01*
X61777Y-39269D01*
X61804Y-39269D01*
X61856Y-39293D01*
X61882Y-39317D01*
X61908Y-39364D01*
X61908Y-39460D01*
X61935Y-39507D01*
X61961Y-39531D01*
X62013Y-39555D01*
X62118Y-39555D01*
X62170Y-39531D01*
X62196Y-39507D01*
X62223Y-39460D01*
X62223Y-39364D01*
X62196Y-39317D01*
X62170Y-39293D01*
X62118Y-39269D01*
X62013Y-39269D01*
X61961Y-39293D01*
X61935Y-39317D01*
X61908Y-39364D01*
X58223Y-40421D02*
X57961Y-40588D01*
X58223Y-40707D02*
X57673Y-40707D01*
X57673Y-40516D01*
X57699Y-40469D01*
X57725Y-40445D01*
X57777Y-40421D01*
X57856Y-40421D01*
X57908Y-40445D01*
X57935Y-40469D01*
X57961Y-40516D01*
X57961Y-40707D01*
X57673Y-39969D02*
X57673Y-40207D01*
X57935Y-40231D01*
X57908Y-40207D01*
X57882Y-40159D01*
X57882Y-40040D01*
X57908Y-39993D01*
X57935Y-39969D01*
X57987Y-39945D01*
X58118Y-39945D01*
X58170Y-39969D01*
X58196Y-39993D01*
X58223Y-40040D01*
X58223Y-40159D01*
X58196Y-40207D01*
X58170Y-40231D01*
X58223Y-39707D02*
X58223Y-39612D01*
X58196Y-39564D01*
X58170Y-39540D01*
X58092Y-39493D01*
X57987Y-39469D01*
X57777Y-39469D01*
X57725Y-39493D01*
X57699Y-39517D01*
X57673Y-39564D01*
X57673Y-39660D01*
X57699Y-39707D01*
X57725Y-39731D01*
X57777Y-39755D01*
X57908Y-39755D01*
X57961Y-39731D01*
X57987Y-39707D01*
X58013Y-39660D01*
X58013Y-39564D01*
X57987Y-39517D01*
X57961Y-39493D01*
X57908Y-39469D01*
X62223Y-44221D02*
X61961Y-44388D01*
X62223Y-44507D02*
X61673Y-44507D01*
X61673Y-44316D01*
X61699Y-44269D01*
X61725Y-44245D01*
X61777Y-44221D01*
X61856Y-44221D01*
X61908Y-44245D01*
X61935Y-44269D01*
X61961Y-44316D01*
X61961Y-44507D01*
X61673Y-43793D02*
X61673Y-43888D01*
X61699Y-43936D01*
X61725Y-43959D01*
X61804Y-44007D01*
X61908Y-44031D01*
X62118Y-44031D01*
X62170Y-44007D01*
X62196Y-43983D01*
X62223Y-43936D01*
X62223Y-43840D01*
X62196Y-43793D01*
X62170Y-43769D01*
X62118Y-43745D01*
X61987Y-43745D01*
X61935Y-43769D01*
X61908Y-43793D01*
X61882Y-43840D01*
X61882Y-43936D01*
X61908Y-43983D01*
X61935Y-44007D01*
X61987Y-44031D01*
X61673Y-43436D02*
X61673Y-43388D01*
X61699Y-43340D01*
X61725Y-43317D01*
X61777Y-43293D01*
X61882Y-43269D01*
X62013Y-43269D01*
X62118Y-43293D01*
X62170Y-43317D01*
X62196Y-43340D01*
X62223Y-43388D01*
X62223Y-43436D01*
X62196Y-43483D01*
X62170Y-43507D01*
X62118Y-43531D01*
X62013Y-43555D01*
X61882Y-43555D01*
X61777Y-43531D01*
X61725Y-43507D01*
X61699Y-43483D01*
X61673Y-43436D01*
X58223Y-52421D02*
X57961Y-52588D01*
X58223Y-52707D02*
X57673Y-52707D01*
X57673Y-52516D01*
X57699Y-52469D01*
X57725Y-52445D01*
X57777Y-52421D01*
X57856Y-52421D01*
X57908Y-52445D01*
X57935Y-52469D01*
X57961Y-52516D01*
X57961Y-52707D01*
X57673Y-51993D02*
X57673Y-52088D01*
X57699Y-52136D01*
X57725Y-52159D01*
X57804Y-52207D01*
X57908Y-52231D01*
X58118Y-52231D01*
X58170Y-52207D01*
X58196Y-52183D01*
X58223Y-52136D01*
X58223Y-52040D01*
X58196Y-51993D01*
X58170Y-51969D01*
X58118Y-51945D01*
X57987Y-51945D01*
X57935Y-51969D01*
X57908Y-51993D01*
X57882Y-52040D01*
X57882Y-52136D01*
X57908Y-52183D01*
X57935Y-52207D01*
X57987Y-52231D01*
X58223Y-51469D02*
X58223Y-51755D01*
X58223Y-51612D02*
X57673Y-51612D01*
X57751Y-51660D01*
X57804Y-51707D01*
X57830Y-51755D01*
X62223Y-56221D02*
X61961Y-56388D01*
X62223Y-56507D02*
X61673Y-56507D01*
X61673Y-56316D01*
X61699Y-56269D01*
X61725Y-56245D01*
X61777Y-56221D01*
X61856Y-56221D01*
X61908Y-56245D01*
X61935Y-56269D01*
X61961Y-56316D01*
X61961Y-56507D01*
X61673Y-55793D02*
X61673Y-55888D01*
X61699Y-55936D01*
X61725Y-55959D01*
X61804Y-56007D01*
X61908Y-56031D01*
X62118Y-56031D01*
X62170Y-56007D01*
X62196Y-55983D01*
X62223Y-55936D01*
X62223Y-55840D01*
X62196Y-55793D01*
X62170Y-55769D01*
X62118Y-55745D01*
X61987Y-55745D01*
X61935Y-55769D01*
X61908Y-55793D01*
X61882Y-55840D01*
X61882Y-55936D01*
X61908Y-55983D01*
X61935Y-56007D01*
X61987Y-56031D01*
X61725Y-55555D02*
X61699Y-55531D01*
X61673Y-55483D01*
X61673Y-55364D01*
X61699Y-55317D01*
X61725Y-55293D01*
X61777Y-55269D01*
X61830Y-55269D01*
X61908Y-55293D01*
X62223Y-55579D01*
X62223Y-55269D01*
X58223Y-56421D02*
X57961Y-56588D01*
X58223Y-56707D02*
X57673Y-56707D01*
X57673Y-56516D01*
X57699Y-56469D01*
X57725Y-56445D01*
X57777Y-56421D01*
X57856Y-56421D01*
X57908Y-56445D01*
X57935Y-56469D01*
X57961Y-56516D01*
X57961Y-56707D01*
X57673Y-55993D02*
X57673Y-56088D01*
X57699Y-56136D01*
X57725Y-56159D01*
X57804Y-56207D01*
X57908Y-56231D01*
X58118Y-56231D01*
X58170Y-56207D01*
X58196Y-56183D01*
X58223Y-56136D01*
X58223Y-56040D01*
X58196Y-55993D01*
X58170Y-55969D01*
X58118Y-55945D01*
X57987Y-55945D01*
X57935Y-55969D01*
X57908Y-55993D01*
X57882Y-56040D01*
X57882Y-56136D01*
X57908Y-56183D01*
X57935Y-56207D01*
X57987Y-56231D01*
X57673Y-55779D02*
X57673Y-55469D01*
X57882Y-55636D01*
X57882Y-55564D01*
X57908Y-55517D01*
X57935Y-55493D01*
X57987Y-55469D01*
X58118Y-55469D01*
X58170Y-55493D01*
X58196Y-55517D01*
X58223Y-55564D01*
X58223Y-55707D01*
X58196Y-55755D01*
X58170Y-55779D01*
X62223Y-60221D02*
X61961Y-60388D01*
X62223Y-60507D02*
X61673Y-60507D01*
X61673Y-60316D01*
X61699Y-60269D01*
X61725Y-60245D01*
X61777Y-60221D01*
X61856Y-60221D01*
X61908Y-60245D01*
X61935Y-60269D01*
X61961Y-60316D01*
X61961Y-60507D01*
X61673Y-59793D02*
X61673Y-59888D01*
X61699Y-59936D01*
X61725Y-59959D01*
X61804Y-60007D01*
X61908Y-60031D01*
X62118Y-60031D01*
X62170Y-60007D01*
X62196Y-59983D01*
X62223Y-59936D01*
X62223Y-59840D01*
X62196Y-59793D01*
X62170Y-59769D01*
X62118Y-59745D01*
X61987Y-59745D01*
X61935Y-59769D01*
X61908Y-59793D01*
X61882Y-59840D01*
X61882Y-59936D01*
X61908Y-59983D01*
X61935Y-60007D01*
X61987Y-60031D01*
X61856Y-59317D02*
X62223Y-59317D01*
X61646Y-59436D02*
X62039Y-59555D01*
X62039Y-59245D01*
X45579Y-58223D02*
X45412Y-57961D01*
X45293Y-58223D02*
X45293Y-57673D01*
X45484Y-57673D01*
X45531Y-57699D01*
X45555Y-57725D01*
X45579Y-57777D01*
X45579Y-57856D01*
X45555Y-57908D01*
X45531Y-57935D01*
X45484Y-57961D01*
X45293Y-57961D01*
X45745Y-57673D02*
X46055Y-57673D01*
X45888Y-57882D01*
X45960Y-57882D01*
X46007Y-57908D01*
X46031Y-57935D01*
X46055Y-57987D01*
X46055Y-58118D01*
X46031Y-58170D01*
X46007Y-58196D01*
X45960Y-58223D01*
X45817Y-58223D01*
X45769Y-58196D01*
X45745Y-58170D01*
X46245Y-57725D02*
X46269Y-57699D01*
X46317Y-57673D01*
X46436Y-57673D01*
X46483Y-57699D01*
X46507Y-57725D01*
X46531Y-57777D01*
X46531Y-57830D01*
X46507Y-57908D01*
X46221Y-58223D01*
X46531Y-58223D01*
X54223Y-57421D02*
X53961Y-57588D01*
X54223Y-57707D02*
X53673Y-57707D01*
X53673Y-57516D01*
X53699Y-57469D01*
X53725Y-57445D01*
X53777Y-57421D01*
X53856Y-57421D01*
X53908Y-57445D01*
X53935Y-57469D01*
X53961Y-57516D01*
X53961Y-57707D01*
X53856Y-56993D02*
X54223Y-56993D01*
X53646Y-57112D02*
X54039Y-57231D01*
X54039Y-56921D01*
X53673Y-56779D02*
X53673Y-56445D01*
X54223Y-56660D01*
X56223Y-55321D02*
X55961Y-55488D01*
X56223Y-55607D02*
X55673Y-55607D01*
X55673Y-55416D01*
X55699Y-55369D01*
X55725Y-55345D01*
X55777Y-55321D01*
X55856Y-55321D01*
X55908Y-55345D01*
X55935Y-55369D01*
X55961Y-55416D01*
X55961Y-55607D01*
X55856Y-54893D02*
X56223Y-54893D01*
X55646Y-55012D02*
X56039Y-55131D01*
X56039Y-54821D01*
X55673Y-54417D02*
X55673Y-54512D01*
X55699Y-54560D01*
X55725Y-54583D01*
X55804Y-54631D01*
X55908Y-54655D01*
X56118Y-54655D01*
X56170Y-54631D01*
X56196Y-54607D01*
X56223Y-54560D01*
X56223Y-54464D01*
X56196Y-54417D01*
X56170Y-54393D01*
X56118Y-54369D01*
X55987Y-54369D01*
X55935Y-54393D01*
X55908Y-54417D01*
X55882Y-54464D01*
X55882Y-54560D01*
X55908Y-54607D01*
X55935Y-54631D01*
X55987Y-54655D01*
X54223Y-53421D02*
X53961Y-53588D01*
X54223Y-53707D02*
X53673Y-53707D01*
X53673Y-53516D01*
X53699Y-53469D01*
X53725Y-53445D01*
X53777Y-53421D01*
X53856Y-53421D01*
X53908Y-53445D01*
X53935Y-53469D01*
X53961Y-53516D01*
X53961Y-53707D01*
X53856Y-52993D02*
X54223Y-52993D01*
X53646Y-53112D02*
X54039Y-53231D01*
X54039Y-52921D01*
X53673Y-52493D02*
X53673Y-52731D01*
X53935Y-52755D01*
X53908Y-52731D01*
X53882Y-52683D01*
X53882Y-52564D01*
X53908Y-52517D01*
X53935Y-52493D01*
X53987Y-52469D01*
X54118Y-52469D01*
X54170Y-52493D01*
X54196Y-52517D01*
X54223Y-52564D01*
X54223Y-52683D01*
X54196Y-52731D01*
X54170Y-52755D01*
X56223Y-43321D02*
X55961Y-43488D01*
X56223Y-43607D02*
X55673Y-43607D01*
X55673Y-43416D01*
X55699Y-43369D01*
X55725Y-43345D01*
X55777Y-43321D01*
X55856Y-43321D01*
X55908Y-43345D01*
X55935Y-43369D01*
X55961Y-43416D01*
X55961Y-43607D01*
X55856Y-42893D02*
X56223Y-42893D01*
X55646Y-43012D02*
X56039Y-43131D01*
X56039Y-42821D01*
X55856Y-42417D02*
X56223Y-42417D01*
X55646Y-42536D02*
X56039Y-42655D01*
X56039Y-42345D01*
X54223Y-41421D02*
X53961Y-41588D01*
X54223Y-41707D02*
X53673Y-41707D01*
X53673Y-41516D01*
X53699Y-41469D01*
X53725Y-41445D01*
X53777Y-41421D01*
X53856Y-41421D01*
X53908Y-41445D01*
X53935Y-41469D01*
X53961Y-41516D01*
X53961Y-41707D01*
X53856Y-40993D02*
X54223Y-40993D01*
X53646Y-41112D02*
X54039Y-41231D01*
X54039Y-40921D01*
X53673Y-40779D02*
X53673Y-40469D01*
X53882Y-40636D01*
X53882Y-40564D01*
X53908Y-40517D01*
X53935Y-40493D01*
X53987Y-40469D01*
X54118Y-40469D01*
X54170Y-40493D01*
X54196Y-40517D01*
X54223Y-40564D01*
X54223Y-40707D01*
X54196Y-40755D01*
X54170Y-40779D01*
X56223Y-39321D02*
X55961Y-39488D01*
X56223Y-39607D02*
X55673Y-39607D01*
X55673Y-39416D01*
X55699Y-39369D01*
X55725Y-39345D01*
X55777Y-39321D01*
X55856Y-39321D01*
X55908Y-39345D01*
X55935Y-39369D01*
X55961Y-39416D01*
X55961Y-39607D01*
X55856Y-38893D02*
X56223Y-38893D01*
X55646Y-39012D02*
X56039Y-39131D01*
X56039Y-38821D01*
X55725Y-38655D02*
X55699Y-38631D01*
X55673Y-38583D01*
X55673Y-38464D01*
X55699Y-38417D01*
X55725Y-38393D01*
X55777Y-38369D01*
X55830Y-38369D01*
X55908Y-38393D01*
X56223Y-38679D01*
X56223Y-38369D01*
X54223Y-37421D02*
X53961Y-37588D01*
X54223Y-37707D02*
X53673Y-37707D01*
X53673Y-37516D01*
X53699Y-37469D01*
X53725Y-37445D01*
X53777Y-37421D01*
X53856Y-37421D01*
X53908Y-37445D01*
X53935Y-37469D01*
X53961Y-37516D01*
X53961Y-37707D01*
X53856Y-36993D02*
X54223Y-36993D01*
X53646Y-37112D02*
X54039Y-37231D01*
X54039Y-36921D01*
X54223Y-36469D02*
X54223Y-36755D01*
X54223Y-36612D02*
X53673Y-36612D01*
X53751Y-36660D01*
X53804Y-36707D01*
X53830Y-36755D01*
X56223Y-51321D02*
X55961Y-51488D01*
X56223Y-51607D02*
X55673Y-51607D01*
X55673Y-51416D01*
X55699Y-51369D01*
X55725Y-51345D01*
X55777Y-51321D01*
X55856Y-51321D01*
X55908Y-51345D01*
X55935Y-51369D01*
X55961Y-51416D01*
X55961Y-51607D01*
X55856Y-50893D02*
X56223Y-50893D01*
X55646Y-51012D02*
X56039Y-51131D01*
X56039Y-50821D01*
X55673Y-50536D02*
X55673Y-50488D01*
X55699Y-50440D01*
X55725Y-50417D01*
X55777Y-50393D01*
X55882Y-50369D01*
X56013Y-50369D01*
X56118Y-50393D01*
X56170Y-50417D01*
X56196Y-50440D01*
X56223Y-50488D01*
X56223Y-50536D01*
X56196Y-50583D01*
X56170Y-50607D01*
X56118Y-50631D01*
X56013Y-50655D01*
X55882Y-50655D01*
X55777Y-50631D01*
X55725Y-50607D01*
X55699Y-50583D01*
X55673Y-50536D01*
X54223Y-49421D02*
X53961Y-49588D01*
X54223Y-49707D02*
X53673Y-49707D01*
X53673Y-49516D01*
X53699Y-49469D01*
X53725Y-49445D01*
X53777Y-49421D01*
X53856Y-49421D01*
X53908Y-49445D01*
X53935Y-49469D01*
X53961Y-49516D01*
X53961Y-49707D01*
X53673Y-49255D02*
X53673Y-48945D01*
X53882Y-49112D01*
X53882Y-49040D01*
X53908Y-48993D01*
X53935Y-48969D01*
X53987Y-48945D01*
X54118Y-48945D01*
X54170Y-48969D01*
X54196Y-48993D01*
X54223Y-49040D01*
X54223Y-49183D01*
X54196Y-49231D01*
X54170Y-49255D01*
X54223Y-48707D02*
X54223Y-48612D01*
X54196Y-48564D01*
X54170Y-48540D01*
X54092Y-48493D01*
X53987Y-48469D01*
X53777Y-48469D01*
X53725Y-48493D01*
X53699Y-48517D01*
X53673Y-48564D01*
X53673Y-48660D01*
X53699Y-48707D01*
X53725Y-48731D01*
X53777Y-48755D01*
X53908Y-48755D01*
X53961Y-48731D01*
X53987Y-48707D01*
X54013Y-48660D01*
X54013Y-48564D01*
X53987Y-48517D01*
X53961Y-48493D01*
X53908Y-48469D01*
X56223Y-47321D02*
X55961Y-47488D01*
X56223Y-47607D02*
X55673Y-47607D01*
X55673Y-47416D01*
X55699Y-47369D01*
X55725Y-47345D01*
X55777Y-47321D01*
X55856Y-47321D01*
X55908Y-47345D01*
X55935Y-47369D01*
X55961Y-47416D01*
X55961Y-47607D01*
X55673Y-47155D02*
X55673Y-46845D01*
X55882Y-47012D01*
X55882Y-46940D01*
X55908Y-46893D01*
X55935Y-46869D01*
X55987Y-46845D01*
X56118Y-46845D01*
X56170Y-46869D01*
X56196Y-46893D01*
X56223Y-46940D01*
X56223Y-47083D01*
X56196Y-47131D01*
X56170Y-47155D01*
X55908Y-46560D02*
X55882Y-46607D01*
X55856Y-46631D01*
X55804Y-46655D01*
X55777Y-46655D01*
X55725Y-46631D01*
X55699Y-46607D01*
X55673Y-46560D01*
X55673Y-46464D01*
X55699Y-46417D01*
X55725Y-46393D01*
X55777Y-46369D01*
X55804Y-46369D01*
X55856Y-46393D01*
X55882Y-46417D01*
X55908Y-46464D01*
X55908Y-46560D01*
X55935Y-46607D01*
X55961Y-46631D01*
X56013Y-46655D01*
X56118Y-46655D01*
X56170Y-46631D01*
X56196Y-46607D01*
X56223Y-46560D01*
X56223Y-46464D01*
X56196Y-46417D01*
X56170Y-46393D01*
X56118Y-46369D01*
X56013Y-46369D01*
X55961Y-46393D01*
X55935Y-46417D01*
X55908Y-46464D01*
X54223Y-45421D02*
X53961Y-45588D01*
X54223Y-45707D02*
X53673Y-45707D01*
X53673Y-45516D01*
X53699Y-45469D01*
X53725Y-45445D01*
X53777Y-45421D01*
X53856Y-45421D01*
X53908Y-45445D01*
X53935Y-45469D01*
X53961Y-45516D01*
X53961Y-45707D01*
X53673Y-45255D02*
X53673Y-44945D01*
X53882Y-45112D01*
X53882Y-45040D01*
X53908Y-44993D01*
X53935Y-44969D01*
X53987Y-44945D01*
X54118Y-44945D01*
X54170Y-44969D01*
X54196Y-44993D01*
X54223Y-45040D01*
X54223Y-45183D01*
X54196Y-45231D01*
X54170Y-45255D01*
X53673Y-44779D02*
X53673Y-44445D01*
X54223Y-44660D01*
X56223Y-35321D02*
X55961Y-35488D01*
X56223Y-35607D02*
X55673Y-35607D01*
X55673Y-35416D01*
X55699Y-35369D01*
X55725Y-35345D01*
X55777Y-35321D01*
X55856Y-35321D01*
X55908Y-35345D01*
X55935Y-35369D01*
X55961Y-35416D01*
X55961Y-35607D01*
X55673Y-35155D02*
X55673Y-34845D01*
X55882Y-35012D01*
X55882Y-34940D01*
X55908Y-34893D01*
X55935Y-34869D01*
X55987Y-34845D01*
X56118Y-34845D01*
X56170Y-34869D01*
X56196Y-34893D01*
X56223Y-34940D01*
X56223Y-35083D01*
X56196Y-35131D01*
X56170Y-35155D01*
X55673Y-34417D02*
X55673Y-34512D01*
X55699Y-34560D01*
X55725Y-34583D01*
X55804Y-34631D01*
X55908Y-34655D01*
X56118Y-34655D01*
X56170Y-34631D01*
X56196Y-34607D01*
X56223Y-34560D01*
X56223Y-34464D01*
X56196Y-34417D01*
X56170Y-34393D01*
X56118Y-34369D01*
X55987Y-34369D01*
X55935Y-34393D01*
X55908Y-34417D01*
X55882Y-34464D01*
X55882Y-34560D01*
X55908Y-34607D01*
X55935Y-34631D01*
X55987Y-34655D01*
X54223Y-33421D02*
X53961Y-33588D01*
X54223Y-33707D02*
X53673Y-33707D01*
X53673Y-33516D01*
X53699Y-33469D01*
X53725Y-33445D01*
X53777Y-33421D01*
X53856Y-33421D01*
X53908Y-33445D01*
X53935Y-33469D01*
X53961Y-33516D01*
X53961Y-33707D01*
X53673Y-33255D02*
X53673Y-32945D01*
X53882Y-33112D01*
X53882Y-33040D01*
X53908Y-32993D01*
X53935Y-32969D01*
X53987Y-32945D01*
X54118Y-32945D01*
X54170Y-32969D01*
X54196Y-32993D01*
X54223Y-33040D01*
X54223Y-33183D01*
X54196Y-33231D01*
X54170Y-33255D01*
X53673Y-32493D02*
X53673Y-32731D01*
X53935Y-32755D01*
X53908Y-32731D01*
X53882Y-32683D01*
X53882Y-32564D01*
X53908Y-32517D01*
X53935Y-32493D01*
X53987Y-32469D01*
X54118Y-32469D01*
X54170Y-32493D01*
X54196Y-32517D01*
X54223Y-32564D01*
X54223Y-32683D01*
X54196Y-32731D01*
X54170Y-32755D01*
X56223Y-31321D02*
X55961Y-31488D01*
X56223Y-31607D02*
X55673Y-31607D01*
X55673Y-31416D01*
X55699Y-31369D01*
X55725Y-31345D01*
X55777Y-31321D01*
X55856Y-31321D01*
X55908Y-31345D01*
X55935Y-31369D01*
X55961Y-31416D01*
X55961Y-31607D01*
X55673Y-31155D02*
X55673Y-30845D01*
X55882Y-31012D01*
X55882Y-30940D01*
X55908Y-30893D01*
X55935Y-30869D01*
X55987Y-30845D01*
X56118Y-30845D01*
X56170Y-30869D01*
X56196Y-30893D01*
X56223Y-30940D01*
X56223Y-31083D01*
X56196Y-31131D01*
X56170Y-31155D01*
X55856Y-30417D02*
X56223Y-30417D01*
X55646Y-30536D02*
X56039Y-30655D01*
X56039Y-30345D01*
X38817Y-28223D02*
X38650Y-27961D01*
X38531Y-28223D02*
X38531Y-27673D01*
X38722Y-27673D01*
X38769Y-27699D01*
X38793Y-27725D01*
X38817Y-27777D01*
X38817Y-27856D01*
X38793Y-27908D01*
X38769Y-27935D01*
X38722Y-27961D01*
X38531Y-27961D01*
X39293Y-28223D02*
X39007Y-28223D01*
X39150Y-28223D02*
X39150Y-27673D01*
X39102Y-27751D01*
X39055Y-27804D01*
X39007Y-27830D01*
X38817Y-30223D02*
X38650Y-29961D01*
X38531Y-30223D02*
X38531Y-29673D01*
X38722Y-29673D01*
X38769Y-29699D01*
X38793Y-29725D01*
X38817Y-29777D01*
X38817Y-29856D01*
X38793Y-29908D01*
X38769Y-29935D01*
X38722Y-29961D01*
X38531Y-29961D01*
X39007Y-29725D02*
X39031Y-29699D01*
X39079Y-29673D01*
X39198Y-29673D01*
X39245Y-29699D01*
X39269Y-29725D01*
X39293Y-29777D01*
X39293Y-29830D01*
X39269Y-29908D01*
X38983Y-30223D01*
X39293Y-30223D01*
X38817Y-32223D02*
X38650Y-31961D01*
X38531Y-32223D02*
X38531Y-31673D01*
X38722Y-31673D01*
X38769Y-31699D01*
X38793Y-31725D01*
X38817Y-31777D01*
X38817Y-31856D01*
X38793Y-31908D01*
X38769Y-31935D01*
X38722Y-31961D01*
X38531Y-31961D01*
X38983Y-31673D02*
X39293Y-31673D01*
X39126Y-31882D01*
X39198Y-31882D01*
X39245Y-31908D01*
X39269Y-31935D01*
X39293Y-31987D01*
X39293Y-32118D01*
X39269Y-32170D01*
X39245Y-32196D01*
X39198Y-32223D01*
X39055Y-32223D01*
X39007Y-32196D01*
X38983Y-32170D01*
X73243Y-49124D02*
X73224Y-49143D01*
X73167Y-49162D01*
X73129Y-49162D01*
X73071Y-49143D01*
X73033Y-49105D01*
X73014Y-49067D01*
X72995Y-48990D01*
X72995Y-48933D01*
X73014Y-48857D01*
X73033Y-48819D01*
X73071Y-48781D01*
X73129Y-48762D01*
X73167Y-48762D01*
X73224Y-48781D01*
X73243Y-48800D01*
X73605Y-48762D02*
X73414Y-48762D01*
X73395Y-48952D01*
X73414Y-48933D01*
X73452Y-48914D01*
X73548Y-48914D01*
X73586Y-48933D01*
X73605Y-48952D01*
X73624Y-48990D01*
X73624Y-49086D01*
X73605Y-49124D01*
X73586Y-49143D01*
X73548Y-49162D01*
X73452Y-49162D01*
X73414Y-49143D01*
X73395Y-49124D01*
X73757Y-48762D02*
X74024Y-48762D01*
X73852Y-49162D01*
G54D17*
X74011Y-48958D02*
X74311Y-48958D01*
X74161Y-49108D02*
X74161Y-48808D01*
G54D14*
X51124Y-38757D02*
X51143Y-38776D01*
X51162Y-38833D01*
X51162Y-38871D01*
X51143Y-38929D01*
X51105Y-38967D01*
X51067Y-38986D01*
X50990Y-39005D01*
X50933Y-39005D01*
X50857Y-38986D01*
X50819Y-38967D01*
X50781Y-38929D01*
X50762Y-38871D01*
X50762Y-38833D01*
X50781Y-38776D01*
X50800Y-38757D01*
X50800Y-38605D02*
X50781Y-38586D01*
X50762Y-38548D01*
X50762Y-38452D01*
X50781Y-38414D01*
X50800Y-38395D01*
X50838Y-38376D01*
X50876Y-38376D01*
X50933Y-38395D01*
X51162Y-38624D01*
X51162Y-38376D01*
X50762Y-38033D02*
X50762Y-38110D01*
X50781Y-38148D01*
X50800Y-38167D01*
X50857Y-38205D01*
X50933Y-38224D01*
X51086Y-38224D01*
X51124Y-38205D01*
X51143Y-38186D01*
X51162Y-38148D01*
X51162Y-38071D01*
X51143Y-38033D01*
X51124Y-38014D01*
X51086Y-37995D01*
X50990Y-37995D01*
X50952Y-38014D01*
X50933Y-38033D01*
X50914Y-38071D01*
X50914Y-38148D01*
X50933Y-38186D01*
X50952Y-38205D01*
X50990Y-38224D01*
X51124Y-30757D02*
X51143Y-30776D01*
X51162Y-30833D01*
X51162Y-30871D01*
X51143Y-30929D01*
X51105Y-30967D01*
X51067Y-30986D01*
X50990Y-31005D01*
X50933Y-31005D01*
X50857Y-30986D01*
X50819Y-30967D01*
X50781Y-30929D01*
X50762Y-30871D01*
X50762Y-30833D01*
X50781Y-30776D01*
X50800Y-30757D01*
X51162Y-30376D02*
X51162Y-30605D01*
X51162Y-30491D02*
X50762Y-30491D01*
X50819Y-30529D01*
X50857Y-30567D01*
X50876Y-30605D01*
X50933Y-30148D02*
X50914Y-30186D01*
X50895Y-30205D01*
X50857Y-30224D01*
X50838Y-30224D01*
X50800Y-30205D01*
X50781Y-30186D01*
X50762Y-30148D01*
X50762Y-30071D01*
X50781Y-30033D01*
X50800Y-30014D01*
X50838Y-29995D01*
X50857Y-29995D01*
X50895Y-30014D01*
X50914Y-30033D01*
X50933Y-30071D01*
X50933Y-30148D01*
X50952Y-30186D01*
X50971Y-30205D01*
X51010Y-30224D01*
X51086Y-30224D01*
X51124Y-30205D01*
X51143Y-30186D01*
X51162Y-30148D01*
X51162Y-30071D01*
X51143Y-30033D01*
X51124Y-30014D01*
X51086Y-29995D01*
X51010Y-29995D01*
X50971Y-30014D01*
X50952Y-30033D01*
X50933Y-30071D01*
X49024Y-33857D02*
X49043Y-33876D01*
X49062Y-33933D01*
X49062Y-33971D01*
X49043Y-34029D01*
X49005Y-34067D01*
X48967Y-34086D01*
X48890Y-34105D01*
X48833Y-34105D01*
X48757Y-34086D01*
X48719Y-34067D01*
X48681Y-34029D01*
X48662Y-33971D01*
X48662Y-33933D01*
X48681Y-33876D01*
X48700Y-33857D01*
X49062Y-33476D02*
X49062Y-33705D01*
X49062Y-33591D02*
X48662Y-33591D01*
X48719Y-33629D01*
X48757Y-33667D01*
X48776Y-33705D01*
X49062Y-33286D02*
X49062Y-33210D01*
X49043Y-33171D01*
X49024Y-33152D01*
X48967Y-33114D01*
X48890Y-33095D01*
X48738Y-33095D01*
X48700Y-33114D01*
X48681Y-33133D01*
X48662Y-33171D01*
X48662Y-33248D01*
X48681Y-33286D01*
X48700Y-33305D01*
X48738Y-33324D01*
X48833Y-33324D01*
X48871Y-33305D01*
X48890Y-33286D01*
X48910Y-33248D01*
X48910Y-33171D01*
X48890Y-33133D01*
X48871Y-33114D01*
X48833Y-33095D01*
X51124Y-34757D02*
X51143Y-34776D01*
X51162Y-34833D01*
X51162Y-34871D01*
X51143Y-34929D01*
X51105Y-34967D01*
X51067Y-34986D01*
X50990Y-35005D01*
X50933Y-35005D01*
X50857Y-34986D01*
X50819Y-34967D01*
X50781Y-34929D01*
X50762Y-34871D01*
X50762Y-34833D01*
X50781Y-34776D01*
X50800Y-34757D01*
X50800Y-34605D02*
X50781Y-34586D01*
X50762Y-34548D01*
X50762Y-34452D01*
X50781Y-34414D01*
X50800Y-34395D01*
X50838Y-34376D01*
X50876Y-34376D01*
X50933Y-34395D01*
X51162Y-34624D01*
X51162Y-34376D01*
X50762Y-34129D02*
X50762Y-34090D01*
X50781Y-34052D01*
X50800Y-34033D01*
X50838Y-34014D01*
X50914Y-33995D01*
X51010Y-33995D01*
X51086Y-34014D01*
X51124Y-34033D01*
X51143Y-34052D01*
X51162Y-34090D01*
X51162Y-34129D01*
X51143Y-34167D01*
X51124Y-34186D01*
X51086Y-34205D01*
X51010Y-34224D01*
X50914Y-34224D01*
X50838Y-34205D01*
X50800Y-34186D01*
X50781Y-34167D01*
X50762Y-34129D01*
X49024Y-45857D02*
X49043Y-45876D01*
X49062Y-45933D01*
X49062Y-45971D01*
X49043Y-46029D01*
X49005Y-46067D01*
X48967Y-46086D01*
X48890Y-46105D01*
X48833Y-46105D01*
X48757Y-46086D01*
X48719Y-46067D01*
X48681Y-46029D01*
X48662Y-45971D01*
X48662Y-45933D01*
X48681Y-45876D01*
X48700Y-45857D01*
X48700Y-45705D02*
X48681Y-45686D01*
X48662Y-45648D01*
X48662Y-45552D01*
X48681Y-45514D01*
X48700Y-45495D01*
X48738Y-45476D01*
X48776Y-45476D01*
X48833Y-45495D01*
X49062Y-45724D01*
X49062Y-45476D01*
X49062Y-45095D02*
X49062Y-45324D01*
X49062Y-45210D02*
X48662Y-45210D01*
X48719Y-45248D01*
X48757Y-45286D01*
X48776Y-45324D01*
X51124Y-46757D02*
X51143Y-46776D01*
X51162Y-46833D01*
X51162Y-46871D01*
X51143Y-46929D01*
X51105Y-46967D01*
X51067Y-46986D01*
X50990Y-47005D01*
X50933Y-47005D01*
X50857Y-46986D01*
X50819Y-46967D01*
X50781Y-46929D01*
X50762Y-46871D01*
X50762Y-46833D01*
X50781Y-46776D01*
X50800Y-46757D01*
X50800Y-46605D02*
X50781Y-46586D01*
X50762Y-46548D01*
X50762Y-46452D01*
X50781Y-46414D01*
X50800Y-46395D01*
X50838Y-46376D01*
X50876Y-46376D01*
X50933Y-46395D01*
X51162Y-46624D01*
X51162Y-46376D01*
X50800Y-46224D02*
X50781Y-46205D01*
X50762Y-46167D01*
X50762Y-46071D01*
X50781Y-46033D01*
X50800Y-46014D01*
X50838Y-45995D01*
X50876Y-45995D01*
X50933Y-46014D01*
X51162Y-46243D01*
X51162Y-45995D01*
X49024Y-49857D02*
X49043Y-49876D01*
X49062Y-49933D01*
X49062Y-49971D01*
X49043Y-50029D01*
X49005Y-50067D01*
X48967Y-50086D01*
X48890Y-50105D01*
X48833Y-50105D01*
X48757Y-50086D01*
X48719Y-50067D01*
X48681Y-50029D01*
X48662Y-49971D01*
X48662Y-49933D01*
X48681Y-49876D01*
X48700Y-49857D01*
X48700Y-49705D02*
X48681Y-49686D01*
X48662Y-49648D01*
X48662Y-49552D01*
X48681Y-49514D01*
X48700Y-49495D01*
X48738Y-49476D01*
X48776Y-49476D01*
X48833Y-49495D01*
X49062Y-49724D01*
X49062Y-49476D01*
X48662Y-49343D02*
X48662Y-49095D01*
X48814Y-49229D01*
X48814Y-49171D01*
X48833Y-49133D01*
X48852Y-49114D01*
X48890Y-49095D01*
X48986Y-49095D01*
X49024Y-49114D01*
X49043Y-49133D01*
X49062Y-49171D01*
X49062Y-49286D01*
X49043Y-49324D01*
X49024Y-49343D01*
X51124Y-50757D02*
X51143Y-50776D01*
X51162Y-50833D01*
X51162Y-50871D01*
X51143Y-50929D01*
X51105Y-50967D01*
X51067Y-50986D01*
X50990Y-51005D01*
X50933Y-51005D01*
X50857Y-50986D01*
X50819Y-50967D01*
X50781Y-50929D01*
X50762Y-50871D01*
X50762Y-50833D01*
X50781Y-50776D01*
X50800Y-50757D01*
X50800Y-50605D02*
X50781Y-50586D01*
X50762Y-50548D01*
X50762Y-50452D01*
X50781Y-50414D01*
X50800Y-50395D01*
X50838Y-50376D01*
X50876Y-50376D01*
X50933Y-50395D01*
X51162Y-50624D01*
X51162Y-50376D01*
X50895Y-50033D02*
X51162Y-50033D01*
X50743Y-50129D02*
X51029Y-50224D01*
X51029Y-49976D01*
X49024Y-37857D02*
X49043Y-37876D01*
X49062Y-37933D01*
X49062Y-37971D01*
X49043Y-38029D01*
X49005Y-38067D01*
X48967Y-38086D01*
X48890Y-38105D01*
X48833Y-38105D01*
X48757Y-38086D01*
X48719Y-38067D01*
X48681Y-38029D01*
X48662Y-37971D01*
X48662Y-37933D01*
X48681Y-37876D01*
X48700Y-37857D01*
X48700Y-37705D02*
X48681Y-37686D01*
X48662Y-37648D01*
X48662Y-37552D01*
X48681Y-37514D01*
X48700Y-37495D01*
X48738Y-37476D01*
X48776Y-37476D01*
X48833Y-37495D01*
X49062Y-37724D01*
X49062Y-37476D01*
X48662Y-37114D02*
X48662Y-37305D01*
X48852Y-37324D01*
X48833Y-37305D01*
X48814Y-37267D01*
X48814Y-37171D01*
X48833Y-37133D01*
X48852Y-37114D01*
X48890Y-37095D01*
X48986Y-37095D01*
X49024Y-37114D01*
X49043Y-37133D01*
X49062Y-37171D01*
X49062Y-37267D01*
X49043Y-37305D01*
X49024Y-37324D01*
X42024Y-57857D02*
X42043Y-57876D01*
X42062Y-57933D01*
X42062Y-57971D01*
X42043Y-58029D01*
X42005Y-58067D01*
X41967Y-58086D01*
X41890Y-58105D01*
X41833Y-58105D01*
X41757Y-58086D01*
X41719Y-58067D01*
X41681Y-58029D01*
X41662Y-57971D01*
X41662Y-57933D01*
X41681Y-57876D01*
X41700Y-57857D01*
X42062Y-57476D02*
X42062Y-57705D01*
X42062Y-57591D02*
X41662Y-57591D01*
X41719Y-57629D01*
X41757Y-57667D01*
X41776Y-57705D01*
X41662Y-57114D02*
X41662Y-57305D01*
X41852Y-57324D01*
X41833Y-57305D01*
X41814Y-57267D01*
X41814Y-57171D01*
X41833Y-57133D01*
X41852Y-57114D01*
X41890Y-57095D01*
X41986Y-57095D01*
X42024Y-57114D01*
X42043Y-57133D01*
X42062Y-57171D01*
X42062Y-57267D01*
X42043Y-57305D01*
X42024Y-57324D01*
X49024Y-41857D02*
X49043Y-41876D01*
X49062Y-41933D01*
X49062Y-41971D01*
X49043Y-42029D01*
X49005Y-42067D01*
X48967Y-42086D01*
X48890Y-42105D01*
X48833Y-42105D01*
X48757Y-42086D01*
X48719Y-42067D01*
X48681Y-42029D01*
X48662Y-41971D01*
X48662Y-41933D01*
X48681Y-41876D01*
X48700Y-41857D01*
X48700Y-41705D02*
X48681Y-41686D01*
X48662Y-41648D01*
X48662Y-41552D01*
X48681Y-41514D01*
X48700Y-41495D01*
X48738Y-41476D01*
X48776Y-41476D01*
X48833Y-41495D01*
X49062Y-41724D01*
X49062Y-41476D01*
X48662Y-41343D02*
X48662Y-41076D01*
X49062Y-41248D01*
X51124Y-42757D02*
X51143Y-42776D01*
X51162Y-42833D01*
X51162Y-42871D01*
X51143Y-42929D01*
X51105Y-42967D01*
X51067Y-42986D01*
X50990Y-43005D01*
X50933Y-43005D01*
X50857Y-42986D01*
X50819Y-42967D01*
X50781Y-42929D01*
X50762Y-42871D01*
X50762Y-42833D01*
X50781Y-42776D01*
X50800Y-42757D01*
X50800Y-42605D02*
X50781Y-42586D01*
X50762Y-42548D01*
X50762Y-42452D01*
X50781Y-42414D01*
X50800Y-42395D01*
X50838Y-42376D01*
X50876Y-42376D01*
X50933Y-42395D01*
X51162Y-42624D01*
X51162Y-42376D01*
X50933Y-42148D02*
X50914Y-42186D01*
X50895Y-42205D01*
X50857Y-42224D01*
X50838Y-42224D01*
X50800Y-42205D01*
X50781Y-42186D01*
X50762Y-42148D01*
X50762Y-42071D01*
X50781Y-42033D01*
X50800Y-42014D01*
X50838Y-41995D01*
X50857Y-41995D01*
X50895Y-42014D01*
X50914Y-42033D01*
X50933Y-42071D01*
X50933Y-42148D01*
X50952Y-42186D01*
X50971Y-42205D01*
X51010Y-42224D01*
X51086Y-42224D01*
X51124Y-42205D01*
X51143Y-42186D01*
X51162Y-42148D01*
X51162Y-42071D01*
X51143Y-42033D01*
X51124Y-42014D01*
X51086Y-41995D01*
X51010Y-41995D01*
X50971Y-42014D01*
X50952Y-42033D01*
X50933Y-42071D01*
X49024Y-53857D02*
X49043Y-53876D01*
X49062Y-53933D01*
X49062Y-53971D01*
X49043Y-54029D01*
X49005Y-54067D01*
X48967Y-54086D01*
X48890Y-54105D01*
X48833Y-54105D01*
X48757Y-54086D01*
X48719Y-54067D01*
X48681Y-54029D01*
X48662Y-53971D01*
X48662Y-53933D01*
X48681Y-53876D01*
X48700Y-53857D01*
X48700Y-53705D02*
X48681Y-53686D01*
X48662Y-53648D01*
X48662Y-53552D01*
X48681Y-53514D01*
X48700Y-53495D01*
X48738Y-53476D01*
X48776Y-53476D01*
X48833Y-53495D01*
X49062Y-53724D01*
X49062Y-53476D01*
X49062Y-53286D02*
X49062Y-53210D01*
X49043Y-53171D01*
X49024Y-53152D01*
X48967Y-53114D01*
X48890Y-53095D01*
X48738Y-53095D01*
X48700Y-53114D01*
X48681Y-53133D01*
X48662Y-53171D01*
X48662Y-53248D01*
X48681Y-53286D01*
X48700Y-53305D01*
X48738Y-53324D01*
X48833Y-53324D01*
X48871Y-53305D01*
X48890Y-53286D01*
X48910Y-53248D01*
X48910Y-53171D01*
X48890Y-53133D01*
X48871Y-53114D01*
X48833Y-53095D01*
X51124Y-54757D02*
X51143Y-54776D01*
X51162Y-54833D01*
X51162Y-54871D01*
X51143Y-54929D01*
X51105Y-54967D01*
X51067Y-54986D01*
X50990Y-55005D01*
X50933Y-55005D01*
X50857Y-54986D01*
X50819Y-54967D01*
X50781Y-54929D01*
X50762Y-54871D01*
X50762Y-54833D01*
X50781Y-54776D01*
X50800Y-54757D01*
X50762Y-54624D02*
X50762Y-54376D01*
X50914Y-54510D01*
X50914Y-54452D01*
X50933Y-54414D01*
X50952Y-54395D01*
X50990Y-54376D01*
X51086Y-54376D01*
X51124Y-54395D01*
X51143Y-54414D01*
X51162Y-54452D01*
X51162Y-54567D01*
X51143Y-54605D01*
X51124Y-54624D01*
X50762Y-54129D02*
X50762Y-54090D01*
X50781Y-54052D01*
X50800Y-54033D01*
X50838Y-54014D01*
X50914Y-53995D01*
X51010Y-53995D01*
X51086Y-54014D01*
X51124Y-54033D01*
X51143Y-54052D01*
X51162Y-54090D01*
X51162Y-54129D01*
X51143Y-54167D01*
X51124Y-54186D01*
X51086Y-54205D01*
X51010Y-54224D01*
X50914Y-54224D01*
X50838Y-54205D01*
X50800Y-54186D01*
X50781Y-54167D01*
X50762Y-54129D01*
X49024Y-57857D02*
X49043Y-57876D01*
X49062Y-57933D01*
X49062Y-57971D01*
X49043Y-58029D01*
X49005Y-58067D01*
X48967Y-58086D01*
X48890Y-58105D01*
X48833Y-58105D01*
X48757Y-58086D01*
X48719Y-58067D01*
X48681Y-58029D01*
X48662Y-57971D01*
X48662Y-57933D01*
X48681Y-57876D01*
X48700Y-57857D01*
X48662Y-57724D02*
X48662Y-57476D01*
X48814Y-57610D01*
X48814Y-57552D01*
X48833Y-57514D01*
X48852Y-57495D01*
X48890Y-57476D01*
X48986Y-57476D01*
X49024Y-57495D01*
X49043Y-57514D01*
X49062Y-57552D01*
X49062Y-57667D01*
X49043Y-57705D01*
X49024Y-57724D01*
X49062Y-57095D02*
X49062Y-57324D01*
X49062Y-57210D02*
X48662Y-57210D01*
X48719Y-57248D01*
X48757Y-57286D01*
X48776Y-57324D01*
X49024Y-29857D02*
X49043Y-29876D01*
X49062Y-29933D01*
X49062Y-29971D01*
X49043Y-30029D01*
X49005Y-30067D01*
X48967Y-30086D01*
X48890Y-30105D01*
X48833Y-30105D01*
X48757Y-30086D01*
X48719Y-30067D01*
X48681Y-30029D01*
X48662Y-29971D01*
X48662Y-29933D01*
X48681Y-29876D01*
X48700Y-29857D01*
X49062Y-29476D02*
X49062Y-29705D01*
X49062Y-29591D02*
X48662Y-29591D01*
X48719Y-29629D01*
X48757Y-29667D01*
X48776Y-29705D01*
X48662Y-29343D02*
X48662Y-29076D01*
X49062Y-29248D01*
X44124Y-58757D02*
X44143Y-58776D01*
X44162Y-58833D01*
X44162Y-58871D01*
X44143Y-58929D01*
X44105Y-58967D01*
X44067Y-58986D01*
X43990Y-59005D01*
X43933Y-59005D01*
X43857Y-58986D01*
X43819Y-58967D01*
X43781Y-58929D01*
X43762Y-58871D01*
X43762Y-58833D01*
X43781Y-58776D01*
X43800Y-58757D01*
X44162Y-58376D02*
X44162Y-58605D01*
X44162Y-58491D02*
X43762Y-58491D01*
X43819Y-58529D01*
X43857Y-58567D01*
X43876Y-58605D01*
X43762Y-58033D02*
X43762Y-58110D01*
X43781Y-58148D01*
X43800Y-58167D01*
X43857Y-58205D01*
X43933Y-58224D01*
X44086Y-58224D01*
X44124Y-58205D01*
X44143Y-58186D01*
X44162Y-58148D01*
X44162Y-58071D01*
X44143Y-58033D01*
X44124Y-58014D01*
X44086Y-57995D01*
X43990Y-57995D01*
X43952Y-58014D01*
X43933Y-58033D01*
X43914Y-58071D01*
X43914Y-58148D01*
X43933Y-58186D01*
X43952Y-58205D01*
X43990Y-58224D01*
X44124Y-30566D02*
X44143Y-30585D01*
X44162Y-30642D01*
X44162Y-30680D01*
X44143Y-30738D01*
X44105Y-30776D01*
X44067Y-30795D01*
X43990Y-30814D01*
X43933Y-30814D01*
X43857Y-30795D01*
X43819Y-30776D01*
X43781Y-30738D01*
X43762Y-30680D01*
X43762Y-30642D01*
X43781Y-30585D01*
X43800Y-30566D01*
X43800Y-30414D02*
X43781Y-30395D01*
X43762Y-30357D01*
X43762Y-30261D01*
X43781Y-30223D01*
X43800Y-30204D01*
X43838Y-30185D01*
X43876Y-30185D01*
X43933Y-30204D01*
X44162Y-30433D01*
X44162Y-30185D01*
X44124Y-54757D02*
X44143Y-54776D01*
X44162Y-54833D01*
X44162Y-54871D01*
X44143Y-54929D01*
X44105Y-54967D01*
X44067Y-54986D01*
X43990Y-55005D01*
X43933Y-55005D01*
X43857Y-54986D01*
X43819Y-54967D01*
X43781Y-54929D01*
X43762Y-54871D01*
X43762Y-54833D01*
X43781Y-54776D01*
X43800Y-54757D01*
X44162Y-54376D02*
X44162Y-54605D01*
X44162Y-54491D02*
X43762Y-54491D01*
X43819Y-54529D01*
X43857Y-54567D01*
X43876Y-54605D01*
X43895Y-54033D02*
X44162Y-54033D01*
X43743Y-54129D02*
X44029Y-54224D01*
X44029Y-53976D01*
X42024Y-53857D02*
X42043Y-53876D01*
X42062Y-53933D01*
X42062Y-53971D01*
X42043Y-54029D01*
X42005Y-54067D01*
X41967Y-54086D01*
X41890Y-54105D01*
X41833Y-54105D01*
X41757Y-54086D01*
X41719Y-54067D01*
X41681Y-54029D01*
X41662Y-53971D01*
X41662Y-53933D01*
X41681Y-53876D01*
X41700Y-53857D01*
X42062Y-53476D02*
X42062Y-53705D01*
X42062Y-53591D02*
X41662Y-53591D01*
X41719Y-53629D01*
X41757Y-53667D01*
X41776Y-53705D01*
X41662Y-53343D02*
X41662Y-53095D01*
X41814Y-53229D01*
X41814Y-53171D01*
X41833Y-53133D01*
X41852Y-53114D01*
X41890Y-53095D01*
X41986Y-53095D01*
X42024Y-53114D01*
X42043Y-53133D01*
X42062Y-53171D01*
X42062Y-53286D01*
X42043Y-53324D01*
X42024Y-53343D01*
X44124Y-42757D02*
X44143Y-42776D01*
X44162Y-42833D01*
X44162Y-42871D01*
X44143Y-42929D01*
X44105Y-42967D01*
X44067Y-42986D01*
X43990Y-43005D01*
X43933Y-43005D01*
X43857Y-42986D01*
X43819Y-42967D01*
X43781Y-42929D01*
X43762Y-42871D01*
X43762Y-42833D01*
X43781Y-42776D01*
X43800Y-42757D01*
X44162Y-42376D02*
X44162Y-42605D01*
X44162Y-42491D02*
X43762Y-42491D01*
X43819Y-42529D01*
X43857Y-42567D01*
X43876Y-42605D01*
X43800Y-42224D02*
X43781Y-42205D01*
X43762Y-42167D01*
X43762Y-42071D01*
X43781Y-42033D01*
X43800Y-42014D01*
X43838Y-41995D01*
X43876Y-41995D01*
X43933Y-42014D01*
X44162Y-42243D01*
X44162Y-41995D01*
X42024Y-41857D02*
X42043Y-41876D01*
X42062Y-41933D01*
X42062Y-41971D01*
X42043Y-42029D01*
X42005Y-42067D01*
X41967Y-42086D01*
X41890Y-42105D01*
X41833Y-42105D01*
X41757Y-42086D01*
X41719Y-42067D01*
X41681Y-42029D01*
X41662Y-41971D01*
X41662Y-41933D01*
X41681Y-41876D01*
X41700Y-41857D01*
X42062Y-41476D02*
X42062Y-41705D01*
X42062Y-41591D02*
X41662Y-41591D01*
X41719Y-41629D01*
X41757Y-41667D01*
X41776Y-41705D01*
X42062Y-41095D02*
X42062Y-41324D01*
X42062Y-41210D02*
X41662Y-41210D01*
X41719Y-41248D01*
X41757Y-41286D01*
X41776Y-41324D01*
X44124Y-38757D02*
X44143Y-38776D01*
X44162Y-38833D01*
X44162Y-38871D01*
X44143Y-38929D01*
X44105Y-38967D01*
X44067Y-38986D01*
X43990Y-39005D01*
X43933Y-39005D01*
X43857Y-38986D01*
X43819Y-38967D01*
X43781Y-38929D01*
X43762Y-38871D01*
X43762Y-38833D01*
X43781Y-38776D01*
X43800Y-38757D01*
X44162Y-38376D02*
X44162Y-38605D01*
X44162Y-38491D02*
X43762Y-38491D01*
X43819Y-38529D01*
X43857Y-38567D01*
X43876Y-38605D01*
X43762Y-38129D02*
X43762Y-38090D01*
X43781Y-38052D01*
X43800Y-38033D01*
X43838Y-38014D01*
X43914Y-37995D01*
X44010Y-37995D01*
X44086Y-38014D01*
X44124Y-38033D01*
X44143Y-38052D01*
X44162Y-38090D01*
X44162Y-38129D01*
X44143Y-38167D01*
X44124Y-38186D01*
X44086Y-38205D01*
X44010Y-38224D01*
X43914Y-38224D01*
X43838Y-38205D01*
X43800Y-38186D01*
X43781Y-38167D01*
X43762Y-38129D01*
X42024Y-37666D02*
X42043Y-37685D01*
X42062Y-37742D01*
X42062Y-37780D01*
X42043Y-37838D01*
X42005Y-37876D01*
X41967Y-37895D01*
X41890Y-37914D01*
X41833Y-37914D01*
X41757Y-37895D01*
X41719Y-37876D01*
X41681Y-37838D01*
X41662Y-37780D01*
X41662Y-37742D01*
X41681Y-37685D01*
X41700Y-37666D01*
X42062Y-37476D02*
X42062Y-37400D01*
X42043Y-37361D01*
X42024Y-37342D01*
X41967Y-37304D01*
X41890Y-37285D01*
X41738Y-37285D01*
X41700Y-37304D01*
X41681Y-37323D01*
X41662Y-37361D01*
X41662Y-37438D01*
X41681Y-37476D01*
X41700Y-37495D01*
X41738Y-37514D01*
X41833Y-37514D01*
X41871Y-37495D01*
X41890Y-37476D01*
X41910Y-37438D01*
X41910Y-37361D01*
X41890Y-37323D01*
X41871Y-37304D01*
X41833Y-37285D01*
X44124Y-50566D02*
X44143Y-50585D01*
X44162Y-50642D01*
X44162Y-50680D01*
X44143Y-50738D01*
X44105Y-50776D01*
X44067Y-50795D01*
X43990Y-50814D01*
X43933Y-50814D01*
X43857Y-50795D01*
X43819Y-50776D01*
X43781Y-50738D01*
X43762Y-50680D01*
X43762Y-50642D01*
X43781Y-50585D01*
X43800Y-50566D01*
X43933Y-50338D02*
X43914Y-50376D01*
X43895Y-50395D01*
X43857Y-50414D01*
X43838Y-50414D01*
X43800Y-50395D01*
X43781Y-50376D01*
X43762Y-50338D01*
X43762Y-50261D01*
X43781Y-50223D01*
X43800Y-50204D01*
X43838Y-50185D01*
X43857Y-50185D01*
X43895Y-50204D01*
X43914Y-50223D01*
X43933Y-50261D01*
X43933Y-50338D01*
X43952Y-50376D01*
X43971Y-50395D01*
X44010Y-50414D01*
X44086Y-50414D01*
X44124Y-50395D01*
X44143Y-50376D01*
X44162Y-50338D01*
X44162Y-50261D01*
X44143Y-50223D01*
X44124Y-50204D01*
X44086Y-50185D01*
X44010Y-50185D01*
X43971Y-50204D01*
X43952Y-50223D01*
X43933Y-50261D01*
X42024Y-49666D02*
X42043Y-49685D01*
X42062Y-49742D01*
X42062Y-49780D01*
X42043Y-49838D01*
X42005Y-49876D01*
X41967Y-49895D01*
X41890Y-49914D01*
X41833Y-49914D01*
X41757Y-49895D01*
X41719Y-49876D01*
X41681Y-49838D01*
X41662Y-49780D01*
X41662Y-49742D01*
X41681Y-49685D01*
X41700Y-49666D01*
X41662Y-49533D02*
X41662Y-49266D01*
X42062Y-49438D01*
X44124Y-46566D02*
X44143Y-46585D01*
X44162Y-46642D01*
X44162Y-46680D01*
X44143Y-46738D01*
X44105Y-46776D01*
X44067Y-46795D01*
X43990Y-46814D01*
X43933Y-46814D01*
X43857Y-46795D01*
X43819Y-46776D01*
X43781Y-46738D01*
X43762Y-46680D01*
X43762Y-46642D01*
X43781Y-46585D01*
X43800Y-46566D01*
X43762Y-46223D02*
X43762Y-46300D01*
X43781Y-46338D01*
X43800Y-46357D01*
X43857Y-46395D01*
X43933Y-46414D01*
X44086Y-46414D01*
X44124Y-46395D01*
X44143Y-46376D01*
X44162Y-46338D01*
X44162Y-46261D01*
X44143Y-46223D01*
X44124Y-46204D01*
X44086Y-46185D01*
X43990Y-46185D01*
X43952Y-46204D01*
X43933Y-46223D01*
X43914Y-46261D01*
X43914Y-46338D01*
X43933Y-46376D01*
X43952Y-46395D01*
X43990Y-46414D01*
X42024Y-45666D02*
X42043Y-45685D01*
X42062Y-45742D01*
X42062Y-45780D01*
X42043Y-45838D01*
X42005Y-45876D01*
X41967Y-45895D01*
X41890Y-45914D01*
X41833Y-45914D01*
X41757Y-45895D01*
X41719Y-45876D01*
X41681Y-45838D01*
X41662Y-45780D01*
X41662Y-45742D01*
X41681Y-45685D01*
X41700Y-45666D01*
X41662Y-45304D02*
X41662Y-45495D01*
X41852Y-45514D01*
X41833Y-45495D01*
X41814Y-45457D01*
X41814Y-45361D01*
X41833Y-45323D01*
X41852Y-45304D01*
X41890Y-45285D01*
X41986Y-45285D01*
X42024Y-45304D01*
X42043Y-45323D01*
X42062Y-45361D01*
X42062Y-45457D01*
X42043Y-45495D01*
X42024Y-45514D01*
X44124Y-34566D02*
X44143Y-34585D01*
X44162Y-34642D01*
X44162Y-34680D01*
X44143Y-34738D01*
X44105Y-34776D01*
X44067Y-34795D01*
X43990Y-34814D01*
X43933Y-34814D01*
X43857Y-34795D01*
X43819Y-34776D01*
X43781Y-34738D01*
X43762Y-34680D01*
X43762Y-34642D01*
X43781Y-34585D01*
X43800Y-34566D01*
X43895Y-34223D02*
X44162Y-34223D01*
X43743Y-34319D02*
X44029Y-34414D01*
X44029Y-34166D01*
X42024Y-33666D02*
X42043Y-33685D01*
X42062Y-33742D01*
X42062Y-33780D01*
X42043Y-33838D01*
X42005Y-33876D01*
X41967Y-33895D01*
X41890Y-33914D01*
X41833Y-33914D01*
X41757Y-33895D01*
X41719Y-33876D01*
X41681Y-33838D01*
X41662Y-33780D01*
X41662Y-33742D01*
X41681Y-33685D01*
X41700Y-33666D01*
X41662Y-33533D02*
X41662Y-33285D01*
X41814Y-33419D01*
X41814Y-33361D01*
X41833Y-33323D01*
X41852Y-33304D01*
X41890Y-33285D01*
X41986Y-33285D01*
X42024Y-33304D01*
X42043Y-33323D01*
X42062Y-33361D01*
X42062Y-33476D01*
X42043Y-33514D01*
X42024Y-33533D01*
X52343Y-56224D02*
X52324Y-56243D01*
X52267Y-56262D01*
X52229Y-56262D01*
X52171Y-56243D01*
X52133Y-56205D01*
X52114Y-56167D01*
X52095Y-56090D01*
X52095Y-56033D01*
X52114Y-55957D01*
X52133Y-55919D01*
X52171Y-55881D01*
X52229Y-55862D01*
X52267Y-55862D01*
X52324Y-55881D01*
X52343Y-55900D01*
X52686Y-55995D02*
X52686Y-56262D01*
X52590Y-55843D02*
X52495Y-56129D01*
X52743Y-56129D01*
X52857Y-55862D02*
X53124Y-55862D01*
X52952Y-56262D01*
X42024Y-29666D02*
X42043Y-29685D01*
X42062Y-29742D01*
X42062Y-29780D01*
X42043Y-29838D01*
X42005Y-29876D01*
X41967Y-29895D01*
X41890Y-29914D01*
X41833Y-29914D01*
X41757Y-29895D01*
X41719Y-29876D01*
X41681Y-29838D01*
X41662Y-29780D01*
X41662Y-29742D01*
X41681Y-29685D01*
X41700Y-29666D01*
X42062Y-29285D02*
X42062Y-29514D01*
X42062Y-29400D02*
X41662Y-29400D01*
X41719Y-29438D01*
X41757Y-29476D01*
X41776Y-29514D01*
X74243Y-44124D02*
X74224Y-44143D01*
X74167Y-44162D01*
X74129Y-44162D01*
X74071Y-44143D01*
X74033Y-44105D01*
X74014Y-44067D01*
X73995Y-43990D01*
X73995Y-43933D01*
X74014Y-43857D01*
X74033Y-43819D01*
X74071Y-43781D01*
X74129Y-43762D01*
X74167Y-43762D01*
X74224Y-43781D01*
X74243Y-43800D01*
X74586Y-43762D02*
X74509Y-43762D01*
X74471Y-43781D01*
X74452Y-43800D01*
X74414Y-43857D01*
X74395Y-43933D01*
X74395Y-44086D01*
X74414Y-44124D01*
X74433Y-44143D01*
X74471Y-44162D01*
X74548Y-44162D01*
X74586Y-44143D01*
X74605Y-44124D01*
X74624Y-44086D01*
X74624Y-43990D01*
X74605Y-43952D01*
X74586Y-43933D01*
X74548Y-43914D01*
X74471Y-43914D01*
X74433Y-43933D01*
X74414Y-43952D01*
X74395Y-43990D01*
X75005Y-44162D02*
X74776Y-44162D01*
X74890Y-44162D02*
X74890Y-43762D01*
X74852Y-43819D01*
X74814Y-43857D01*
X74776Y-43876D01*
X74343Y-41224D02*
X74324Y-41243D01*
X74267Y-41262D01*
X74229Y-41262D01*
X74171Y-41243D01*
X74133Y-41205D01*
X74114Y-41167D01*
X74095Y-41090D01*
X74095Y-41033D01*
X74114Y-40957D01*
X74133Y-40919D01*
X74171Y-40881D01*
X74229Y-40862D01*
X74267Y-40862D01*
X74324Y-40881D01*
X74343Y-40900D01*
X74686Y-40862D02*
X74609Y-40862D01*
X74571Y-40881D01*
X74552Y-40900D01*
X74514Y-40957D01*
X74495Y-41033D01*
X74495Y-41186D01*
X74514Y-41224D01*
X74533Y-41243D01*
X74571Y-41262D01*
X74648Y-41262D01*
X74686Y-41243D01*
X74705Y-41224D01*
X74724Y-41186D01*
X74724Y-41090D01*
X74705Y-41052D01*
X74686Y-41033D01*
X74648Y-41014D01*
X74571Y-41014D01*
X74533Y-41033D01*
X74514Y-41052D01*
X74495Y-41090D01*
X74971Y-40862D02*
X75010Y-40862D01*
X75048Y-40881D01*
X75067Y-40900D01*
X75086Y-40938D01*
X75105Y-41014D01*
X75105Y-41110D01*
X75086Y-41186D01*
X75067Y-41224D01*
X75048Y-41243D01*
X75010Y-41262D01*
X74971Y-41262D01*
X74933Y-41243D01*
X74914Y-41224D01*
X74895Y-41186D01*
X74876Y-41110D01*
X74876Y-41014D01*
X74895Y-40938D01*
X74914Y-40900D01*
X74933Y-40881D01*
X74971Y-40862D01*
X68430Y-34173D02*
X68411Y-34192D01*
X68354Y-34211D01*
X68316Y-34211D01*
X68258Y-34192D01*
X68220Y-34154D01*
X68201Y-34116D01*
X68182Y-34039D01*
X68182Y-33982D01*
X68201Y-33906D01*
X68220Y-33868D01*
X68258Y-33830D01*
X68316Y-33811D01*
X68354Y-33811D01*
X68411Y-33830D01*
X68430Y-33849D01*
X68792Y-33811D02*
X68601Y-33811D01*
X68582Y-34001D01*
X68601Y-33982D01*
X68639Y-33963D01*
X68735Y-33963D01*
X68773Y-33982D01*
X68792Y-34001D01*
X68811Y-34039D01*
X68811Y-34135D01*
X68792Y-34173D01*
X68773Y-34192D01*
X68735Y-34211D01*
X68639Y-34211D01*
X68601Y-34192D01*
X68582Y-34173D01*
X69001Y-34211D02*
X69077Y-34211D01*
X69116Y-34192D01*
X69135Y-34173D01*
X69173Y-34116D01*
X69192Y-34039D01*
X69192Y-33887D01*
X69173Y-33849D01*
X69154Y-33830D01*
X69116Y-33811D01*
X69039Y-33811D01*
X69001Y-33830D01*
X68982Y-33849D01*
X68963Y-33887D01*
X68963Y-33982D01*
X68982Y-34020D01*
X69001Y-34039D01*
X69039Y-34059D01*
X69116Y-34059D01*
X69154Y-34039D01*
X69173Y-34020D01*
X69192Y-33982D01*
X73143Y-55024D02*
X73124Y-55043D01*
X73067Y-55062D01*
X73029Y-55062D01*
X72971Y-55043D01*
X72933Y-55005D01*
X72914Y-54967D01*
X72895Y-54890D01*
X72895Y-54833D01*
X72914Y-54757D01*
X72933Y-54719D01*
X72971Y-54681D01*
X73029Y-54662D01*
X73067Y-54662D01*
X73124Y-54681D01*
X73143Y-54700D01*
X73505Y-54662D02*
X73314Y-54662D01*
X73295Y-54852D01*
X73314Y-54833D01*
X73352Y-54814D01*
X73448Y-54814D01*
X73486Y-54833D01*
X73505Y-54852D01*
X73524Y-54890D01*
X73524Y-54986D01*
X73505Y-55024D01*
X73486Y-55043D01*
X73448Y-55062D01*
X73352Y-55062D01*
X73314Y-55043D01*
X73295Y-55024D01*
X73752Y-54833D02*
X73714Y-54814D01*
X73695Y-54795D01*
X73676Y-54757D01*
X73676Y-54738D01*
X73695Y-54700D01*
X73714Y-54681D01*
X73752Y-54662D01*
X73829Y-54662D01*
X73867Y-54681D01*
X73886Y-54700D01*
X73905Y-54738D01*
X73905Y-54757D01*
X73886Y-54795D01*
X73867Y-54814D01*
X73829Y-54833D01*
X73752Y-54833D01*
X73714Y-54852D01*
X73695Y-54871D01*
X73676Y-54910D01*
X73676Y-54986D01*
X73695Y-55024D01*
X73714Y-55043D01*
X73752Y-55062D01*
X73829Y-55062D01*
X73867Y-55043D01*
X73886Y-55024D01*
X73905Y-54986D01*
X73905Y-54910D01*
X73886Y-54871D01*
X73867Y-54852D01*
X73829Y-54833D01*
X72343Y-51224D02*
X72324Y-51243D01*
X72267Y-51262D01*
X72229Y-51262D01*
X72171Y-51243D01*
X72133Y-51205D01*
X72114Y-51167D01*
X72095Y-51090D01*
X72095Y-51033D01*
X72114Y-50957D01*
X72133Y-50919D01*
X72171Y-50881D01*
X72229Y-50862D01*
X72267Y-50862D01*
X72324Y-50881D01*
X72343Y-50900D01*
X72705Y-50862D02*
X72514Y-50862D01*
X72495Y-51052D01*
X72514Y-51033D01*
X72552Y-51014D01*
X72648Y-51014D01*
X72686Y-51033D01*
X72705Y-51052D01*
X72724Y-51090D01*
X72724Y-51186D01*
X72705Y-51224D01*
X72686Y-51243D01*
X72648Y-51262D01*
X72552Y-51262D01*
X72514Y-51243D01*
X72495Y-51224D01*
X73067Y-50862D02*
X72990Y-50862D01*
X72952Y-50881D01*
X72933Y-50900D01*
X72895Y-50957D01*
X72876Y-51033D01*
X72876Y-51186D01*
X72895Y-51224D01*
X72914Y-51243D01*
X72952Y-51262D01*
X73029Y-51262D01*
X73067Y-51243D01*
X73086Y-51224D01*
X73105Y-51186D01*
X73105Y-51090D01*
X73086Y-51052D01*
X73067Y-51033D01*
X73029Y-51014D01*
X72952Y-51014D01*
X72914Y-51033D01*
X72895Y-51052D01*
X72876Y-51090D01*
X72743Y-37124D02*
X72724Y-37143D01*
X72667Y-37162D01*
X72629Y-37162D01*
X72571Y-37143D01*
X72533Y-37105D01*
X72514Y-37067D01*
X72495Y-36990D01*
X72495Y-36933D01*
X72514Y-36857D01*
X72533Y-36819D01*
X72571Y-36781D01*
X72629Y-36762D01*
X72667Y-36762D01*
X72724Y-36781D01*
X72743Y-36800D01*
X73105Y-36762D02*
X72914Y-36762D01*
X72895Y-36952D01*
X72914Y-36933D01*
X72952Y-36914D01*
X73048Y-36914D01*
X73086Y-36933D01*
X73105Y-36952D01*
X73124Y-36990D01*
X73124Y-37086D01*
X73105Y-37124D01*
X73086Y-37143D01*
X73048Y-37162D01*
X72952Y-37162D01*
X72914Y-37143D01*
X72895Y-37124D01*
X73486Y-36762D02*
X73295Y-36762D01*
X73276Y-36952D01*
X73295Y-36933D01*
X73333Y-36914D01*
X73429Y-36914D01*
X73467Y-36933D01*
X73486Y-36952D01*
X73505Y-36990D01*
X73505Y-37086D01*
X73486Y-37124D01*
X73467Y-37143D01*
X73429Y-37162D01*
X73333Y-37162D01*
X73295Y-37143D01*
X73276Y-37124D01*
X72243Y-57124D02*
X72224Y-57143D01*
X72167Y-57162D01*
X72129Y-57162D01*
X72071Y-57143D01*
X72033Y-57105D01*
X72014Y-57067D01*
X71995Y-56990D01*
X71995Y-56933D01*
X72014Y-56857D01*
X72033Y-56819D01*
X72071Y-56781D01*
X72129Y-56762D01*
X72167Y-56762D01*
X72224Y-56781D01*
X72243Y-56800D01*
X72605Y-56762D02*
X72414Y-56762D01*
X72395Y-56952D01*
X72414Y-56933D01*
X72452Y-56914D01*
X72548Y-56914D01*
X72586Y-56933D01*
X72605Y-56952D01*
X72624Y-56990D01*
X72624Y-57086D01*
X72605Y-57124D01*
X72586Y-57143D01*
X72548Y-57162D01*
X72452Y-57162D01*
X72414Y-57143D01*
X72395Y-57124D01*
X72967Y-56895D02*
X72967Y-57162D01*
X72871Y-56743D02*
X72776Y-57029D01*
X73024Y-57029D01*
X72343Y-35224D02*
X72324Y-35243D01*
X72267Y-35262D01*
X72229Y-35262D01*
X72171Y-35243D01*
X72133Y-35205D01*
X72114Y-35167D01*
X72095Y-35090D01*
X72095Y-35033D01*
X72114Y-34957D01*
X72133Y-34919D01*
X72171Y-34881D01*
X72229Y-34862D01*
X72267Y-34862D01*
X72324Y-34881D01*
X72343Y-34900D01*
X72705Y-34862D02*
X72514Y-34862D01*
X72495Y-35052D01*
X72514Y-35033D01*
X72552Y-35014D01*
X72648Y-35014D01*
X72686Y-35033D01*
X72705Y-35052D01*
X72724Y-35090D01*
X72724Y-35186D01*
X72705Y-35224D01*
X72686Y-35243D01*
X72648Y-35262D01*
X72552Y-35262D01*
X72514Y-35243D01*
X72495Y-35224D01*
X72857Y-34862D02*
X73105Y-34862D01*
X72971Y-35014D01*
X73029Y-35014D01*
X73067Y-35033D01*
X73086Y-35052D01*
X73105Y-35090D01*
X73105Y-35186D01*
X73086Y-35224D01*
X73067Y-35243D01*
X73029Y-35262D01*
X72914Y-35262D01*
X72876Y-35243D01*
X72857Y-35224D01*
X69343Y-49224D02*
X69324Y-49243D01*
X69267Y-49262D01*
X69229Y-49262D01*
X69171Y-49243D01*
X69133Y-49205D01*
X69114Y-49167D01*
X69095Y-49090D01*
X69095Y-49033D01*
X69114Y-48957D01*
X69133Y-48919D01*
X69171Y-48881D01*
X69229Y-48862D01*
X69267Y-48862D01*
X69324Y-48881D01*
X69343Y-48900D01*
X69705Y-48862D02*
X69514Y-48862D01*
X69495Y-49052D01*
X69514Y-49033D01*
X69552Y-49014D01*
X69648Y-49014D01*
X69686Y-49033D01*
X69705Y-49052D01*
X69724Y-49090D01*
X69724Y-49186D01*
X69705Y-49224D01*
X69686Y-49243D01*
X69648Y-49262D01*
X69552Y-49262D01*
X69514Y-49243D01*
X69495Y-49224D01*
X69876Y-48900D02*
X69895Y-48881D01*
X69933Y-48862D01*
X70029Y-48862D01*
X70067Y-48881D01*
X70086Y-48900D01*
X70105Y-48938D01*
X70105Y-48976D01*
X70086Y-49033D01*
X69857Y-49262D01*
X70105Y-49262D01*
X70743Y-38124D02*
X70724Y-38143D01*
X70667Y-38162D01*
X70629Y-38162D01*
X70571Y-38143D01*
X70533Y-38105D01*
X70514Y-38067D01*
X70495Y-37990D01*
X70495Y-37933D01*
X70514Y-37857D01*
X70533Y-37819D01*
X70571Y-37781D01*
X70629Y-37762D01*
X70667Y-37762D01*
X70724Y-37781D01*
X70743Y-37800D01*
X71105Y-37762D02*
X70914Y-37762D01*
X70895Y-37952D01*
X70914Y-37933D01*
X70952Y-37914D01*
X71048Y-37914D01*
X71086Y-37933D01*
X71105Y-37952D01*
X71124Y-37990D01*
X71124Y-38086D01*
X71105Y-38124D01*
X71086Y-38143D01*
X71048Y-38162D01*
X70952Y-38162D01*
X70914Y-38143D01*
X70895Y-38124D01*
X71505Y-38162D02*
X71276Y-38162D01*
X71390Y-38162D02*
X71390Y-37762D01*
X71352Y-37819D01*
X71314Y-37857D01*
X71276Y-37876D01*
X69343Y-51224D02*
X69324Y-51243D01*
X69267Y-51262D01*
X69229Y-51262D01*
X69171Y-51243D01*
X69133Y-51205D01*
X69114Y-51167D01*
X69095Y-51090D01*
X69095Y-51033D01*
X69114Y-50957D01*
X69133Y-50919D01*
X69171Y-50881D01*
X69229Y-50862D01*
X69267Y-50862D01*
X69324Y-50881D01*
X69343Y-50900D01*
X69705Y-50862D02*
X69514Y-50862D01*
X69495Y-51052D01*
X69514Y-51033D01*
X69552Y-51014D01*
X69648Y-51014D01*
X69686Y-51033D01*
X69705Y-51052D01*
X69724Y-51090D01*
X69724Y-51186D01*
X69705Y-51224D01*
X69686Y-51243D01*
X69648Y-51262D01*
X69552Y-51262D01*
X69514Y-51243D01*
X69495Y-51224D01*
X69971Y-50862D02*
X70010Y-50862D01*
X70048Y-50881D01*
X70067Y-50900D01*
X70086Y-50938D01*
X70105Y-51014D01*
X70105Y-51110D01*
X70086Y-51186D01*
X70067Y-51224D01*
X70048Y-51243D01*
X70010Y-51262D01*
X69971Y-51262D01*
X69933Y-51243D01*
X69914Y-51224D01*
X69895Y-51186D01*
X69876Y-51110D01*
X69876Y-51014D01*
X69895Y-50938D01*
X69914Y-50900D01*
X69933Y-50881D01*
X69971Y-50862D01*
X70743Y-36124D02*
X70724Y-36143D01*
X70667Y-36162D01*
X70629Y-36162D01*
X70571Y-36143D01*
X70533Y-36105D01*
X70514Y-36067D01*
X70495Y-35990D01*
X70495Y-35933D01*
X70514Y-35857D01*
X70533Y-35819D01*
X70571Y-35781D01*
X70629Y-35762D01*
X70667Y-35762D01*
X70724Y-35781D01*
X70743Y-35800D01*
X71086Y-35895D02*
X71086Y-36162D01*
X70990Y-35743D02*
X70895Y-36029D01*
X71143Y-36029D01*
X71314Y-36162D02*
X71390Y-36162D01*
X71429Y-36143D01*
X71448Y-36124D01*
X71486Y-36067D01*
X71505Y-35990D01*
X71505Y-35838D01*
X71486Y-35800D01*
X71467Y-35781D01*
X71429Y-35762D01*
X71352Y-35762D01*
X71314Y-35781D01*
X71295Y-35800D01*
X71276Y-35838D01*
X71276Y-35933D01*
X71295Y-35971D01*
X71314Y-35990D01*
X71352Y-36010D01*
X71429Y-36010D01*
X71467Y-35990D01*
X71486Y-35971D01*
X71505Y-35933D01*
X52343Y-58224D02*
X52324Y-58243D01*
X52267Y-58262D01*
X52229Y-58262D01*
X52171Y-58243D01*
X52133Y-58205D01*
X52114Y-58167D01*
X52095Y-58090D01*
X52095Y-58033D01*
X52114Y-57957D01*
X52133Y-57919D01*
X52171Y-57881D01*
X52229Y-57862D01*
X52267Y-57862D01*
X52324Y-57881D01*
X52343Y-57900D01*
X52686Y-57995D02*
X52686Y-58262D01*
X52590Y-57843D02*
X52495Y-58129D01*
X52743Y-58129D01*
X52952Y-58033D02*
X52914Y-58014D01*
X52895Y-57995D01*
X52876Y-57957D01*
X52876Y-57938D01*
X52895Y-57900D01*
X52914Y-57881D01*
X52952Y-57862D01*
X53029Y-57862D01*
X53067Y-57881D01*
X53086Y-57900D01*
X53105Y-57938D01*
X53105Y-57957D01*
X53086Y-57995D01*
X53067Y-58014D01*
X53029Y-58033D01*
X52952Y-58033D01*
X52914Y-58052D01*
X52895Y-58071D01*
X52876Y-58110D01*
X52876Y-58186D01*
X52895Y-58224D01*
X52914Y-58243D01*
X52952Y-58262D01*
X53029Y-58262D01*
X53067Y-58243D01*
X53086Y-58224D01*
X53105Y-58186D01*
X53105Y-58110D01*
X53086Y-58071D01*
X53067Y-58052D01*
X53029Y-58033D01*
X51124Y-58757D02*
X51143Y-58776D01*
X51162Y-58833D01*
X51162Y-58871D01*
X51143Y-58929D01*
X51105Y-58967D01*
X51067Y-58986D01*
X50990Y-59005D01*
X50933Y-59005D01*
X50857Y-58986D01*
X50819Y-58967D01*
X50781Y-58929D01*
X50762Y-58871D01*
X50762Y-58833D01*
X50781Y-58776D01*
X50800Y-58757D01*
X50762Y-58624D02*
X50762Y-58376D01*
X50914Y-58510D01*
X50914Y-58452D01*
X50933Y-58414D01*
X50952Y-58395D01*
X50990Y-58376D01*
X51086Y-58376D01*
X51124Y-58395D01*
X51143Y-58414D01*
X51162Y-58452D01*
X51162Y-58567D01*
X51143Y-58605D01*
X51124Y-58624D01*
X50800Y-58224D02*
X50781Y-58205D01*
X50762Y-58167D01*
X50762Y-58071D01*
X50781Y-58033D01*
X50800Y-58014D01*
X50838Y-57995D01*
X50876Y-57995D01*
X50933Y-58014D01*
X51162Y-58243D01*
X51162Y-57995D01*
X52343Y-54224D02*
X52324Y-54243D01*
X52267Y-54262D01*
X52229Y-54262D01*
X52171Y-54243D01*
X52133Y-54205D01*
X52114Y-54167D01*
X52095Y-54090D01*
X52095Y-54033D01*
X52114Y-53957D01*
X52133Y-53919D01*
X52171Y-53881D01*
X52229Y-53862D01*
X52267Y-53862D01*
X52324Y-53881D01*
X52343Y-53900D01*
X52686Y-53995D02*
X52686Y-54262D01*
X52590Y-53843D02*
X52495Y-54129D01*
X52743Y-54129D01*
X53067Y-53862D02*
X52990Y-53862D01*
X52952Y-53881D01*
X52933Y-53900D01*
X52895Y-53957D01*
X52876Y-54033D01*
X52876Y-54186D01*
X52895Y-54224D01*
X52914Y-54243D01*
X52952Y-54262D01*
X53029Y-54262D01*
X53067Y-54243D01*
X53086Y-54224D01*
X53105Y-54186D01*
X53105Y-54090D01*
X53086Y-54052D01*
X53067Y-54033D01*
X53029Y-54014D01*
X52952Y-54014D01*
X52914Y-54033D01*
X52895Y-54052D01*
X52876Y-54090D01*
X52343Y-52224D02*
X52324Y-52243D01*
X52267Y-52262D01*
X52229Y-52262D01*
X52171Y-52243D01*
X52133Y-52205D01*
X52114Y-52167D01*
X52095Y-52090D01*
X52095Y-52033D01*
X52114Y-51957D01*
X52133Y-51919D01*
X52171Y-51881D01*
X52229Y-51862D01*
X52267Y-51862D01*
X52324Y-51881D01*
X52343Y-51900D01*
X52686Y-51995D02*
X52686Y-52262D01*
X52590Y-51843D02*
X52495Y-52129D01*
X52743Y-52129D01*
X53086Y-51862D02*
X52895Y-51862D01*
X52876Y-52052D01*
X52895Y-52033D01*
X52933Y-52014D01*
X53029Y-52014D01*
X53067Y-52033D01*
X53086Y-52052D01*
X53105Y-52090D01*
X53105Y-52186D01*
X53086Y-52224D01*
X53067Y-52243D01*
X53029Y-52262D01*
X52933Y-52262D01*
X52895Y-52243D01*
X52876Y-52224D01*
X52343Y-42224D02*
X52324Y-42243D01*
X52267Y-42262D01*
X52229Y-42262D01*
X52171Y-42243D01*
X52133Y-42205D01*
X52114Y-42167D01*
X52095Y-42090D01*
X52095Y-42033D01*
X52114Y-41957D01*
X52133Y-41919D01*
X52171Y-41881D01*
X52229Y-41862D01*
X52267Y-41862D01*
X52324Y-41881D01*
X52343Y-41900D01*
X52686Y-41995D02*
X52686Y-42262D01*
X52590Y-41843D02*
X52495Y-42129D01*
X52743Y-42129D01*
X53067Y-41995D02*
X53067Y-42262D01*
X52971Y-41843D02*
X52876Y-42129D01*
X53124Y-42129D01*
X52343Y-40224D02*
X52324Y-40243D01*
X52267Y-40262D01*
X52229Y-40262D01*
X52171Y-40243D01*
X52133Y-40205D01*
X52114Y-40167D01*
X52095Y-40090D01*
X52095Y-40033D01*
X52114Y-39957D01*
X52133Y-39919D01*
X52171Y-39881D01*
X52229Y-39862D01*
X52267Y-39862D01*
X52324Y-39881D01*
X52343Y-39900D01*
X52686Y-39995D02*
X52686Y-40262D01*
X52590Y-39843D02*
X52495Y-40129D01*
X52743Y-40129D01*
X52857Y-39862D02*
X53105Y-39862D01*
X52971Y-40014D01*
X53029Y-40014D01*
X53067Y-40033D01*
X53086Y-40052D01*
X53105Y-40090D01*
X53105Y-40186D01*
X53086Y-40224D01*
X53067Y-40243D01*
X53029Y-40262D01*
X52914Y-40262D01*
X52876Y-40243D01*
X52857Y-40224D01*
X52343Y-38224D02*
X52324Y-38243D01*
X52267Y-38262D01*
X52229Y-38262D01*
X52171Y-38243D01*
X52133Y-38205D01*
X52114Y-38167D01*
X52095Y-38090D01*
X52095Y-38033D01*
X52114Y-37957D01*
X52133Y-37919D01*
X52171Y-37881D01*
X52229Y-37862D01*
X52267Y-37862D01*
X52324Y-37881D01*
X52343Y-37900D01*
X52686Y-37995D02*
X52686Y-38262D01*
X52590Y-37843D02*
X52495Y-38129D01*
X52743Y-38129D01*
X52876Y-37900D02*
X52895Y-37881D01*
X52933Y-37862D01*
X53029Y-37862D01*
X53067Y-37881D01*
X53086Y-37900D01*
X53105Y-37938D01*
X53105Y-37976D01*
X53086Y-38033D01*
X52857Y-38262D01*
X53105Y-38262D01*
X52343Y-36224D02*
X52324Y-36243D01*
X52267Y-36262D01*
X52229Y-36262D01*
X52171Y-36243D01*
X52133Y-36205D01*
X52114Y-36167D01*
X52095Y-36090D01*
X52095Y-36033D01*
X52114Y-35957D01*
X52133Y-35919D01*
X52171Y-35881D01*
X52229Y-35862D01*
X52267Y-35862D01*
X52324Y-35881D01*
X52343Y-35900D01*
X52686Y-35995D02*
X52686Y-36262D01*
X52590Y-35843D02*
X52495Y-36129D01*
X52743Y-36129D01*
X53105Y-36262D02*
X52876Y-36262D01*
X52990Y-36262D02*
X52990Y-35862D01*
X52952Y-35919D01*
X52914Y-35957D01*
X52876Y-35976D01*
X52343Y-50224D02*
X52324Y-50243D01*
X52267Y-50262D01*
X52229Y-50262D01*
X52171Y-50243D01*
X52133Y-50205D01*
X52114Y-50167D01*
X52095Y-50090D01*
X52095Y-50033D01*
X52114Y-49957D01*
X52133Y-49919D01*
X52171Y-49881D01*
X52229Y-49862D01*
X52267Y-49862D01*
X52324Y-49881D01*
X52343Y-49900D01*
X52686Y-49995D02*
X52686Y-50262D01*
X52590Y-49843D02*
X52495Y-50129D01*
X52743Y-50129D01*
X52971Y-49862D02*
X53010Y-49862D01*
X53048Y-49881D01*
X53067Y-49900D01*
X53086Y-49938D01*
X53105Y-50014D01*
X53105Y-50110D01*
X53086Y-50186D01*
X53067Y-50224D01*
X53048Y-50243D01*
X53010Y-50262D01*
X52971Y-50262D01*
X52933Y-50243D01*
X52914Y-50224D01*
X52895Y-50186D01*
X52876Y-50110D01*
X52876Y-50014D01*
X52895Y-49938D01*
X52914Y-49900D01*
X52933Y-49881D01*
X52971Y-49862D01*
X52343Y-48224D02*
X52324Y-48243D01*
X52267Y-48262D01*
X52229Y-48262D01*
X52171Y-48243D01*
X52133Y-48205D01*
X52114Y-48167D01*
X52095Y-48090D01*
X52095Y-48033D01*
X52114Y-47957D01*
X52133Y-47919D01*
X52171Y-47881D01*
X52229Y-47862D01*
X52267Y-47862D01*
X52324Y-47881D01*
X52343Y-47900D01*
X52476Y-47862D02*
X52724Y-47862D01*
X52590Y-48014D01*
X52648Y-48014D01*
X52686Y-48033D01*
X52705Y-48052D01*
X52724Y-48090D01*
X52724Y-48186D01*
X52705Y-48224D01*
X52686Y-48243D01*
X52648Y-48262D01*
X52533Y-48262D01*
X52495Y-48243D01*
X52476Y-48224D01*
X52914Y-48262D02*
X52990Y-48262D01*
X53029Y-48243D01*
X53048Y-48224D01*
X53086Y-48167D01*
X53105Y-48090D01*
X53105Y-47938D01*
X53086Y-47900D01*
X53067Y-47881D01*
X53029Y-47862D01*
X52952Y-47862D01*
X52914Y-47881D01*
X52895Y-47900D01*
X52876Y-47938D01*
X52876Y-48033D01*
X52895Y-48071D01*
X52914Y-48090D01*
X52952Y-48110D01*
X53029Y-48110D01*
X53067Y-48090D01*
X53086Y-48071D01*
X53105Y-48033D01*
X52343Y-46224D02*
X52324Y-46243D01*
X52267Y-46262D01*
X52229Y-46262D01*
X52171Y-46243D01*
X52133Y-46205D01*
X52114Y-46167D01*
X52095Y-46090D01*
X52095Y-46033D01*
X52114Y-45957D01*
X52133Y-45919D01*
X52171Y-45881D01*
X52229Y-45862D01*
X52267Y-45862D01*
X52324Y-45881D01*
X52343Y-45900D01*
X52476Y-45862D02*
X52724Y-45862D01*
X52590Y-46014D01*
X52648Y-46014D01*
X52686Y-46033D01*
X52705Y-46052D01*
X52724Y-46090D01*
X52724Y-46186D01*
X52705Y-46224D01*
X52686Y-46243D01*
X52648Y-46262D01*
X52533Y-46262D01*
X52495Y-46243D01*
X52476Y-46224D01*
X52952Y-46033D02*
X52914Y-46014D01*
X52895Y-45995D01*
X52876Y-45957D01*
X52876Y-45938D01*
X52895Y-45900D01*
X52914Y-45881D01*
X52952Y-45862D01*
X53029Y-45862D01*
X53067Y-45881D01*
X53086Y-45900D01*
X53105Y-45938D01*
X53105Y-45957D01*
X53086Y-45995D01*
X53067Y-46014D01*
X53029Y-46033D01*
X52952Y-46033D01*
X52914Y-46052D01*
X52895Y-46071D01*
X52876Y-46110D01*
X52876Y-46186D01*
X52895Y-46224D01*
X52914Y-46243D01*
X52952Y-46262D01*
X53029Y-46262D01*
X53067Y-46243D01*
X53086Y-46224D01*
X53105Y-46186D01*
X53105Y-46110D01*
X53086Y-46071D01*
X53067Y-46052D01*
X53029Y-46033D01*
X52343Y-44224D02*
X52324Y-44243D01*
X52267Y-44262D01*
X52229Y-44262D01*
X52171Y-44243D01*
X52133Y-44205D01*
X52114Y-44167D01*
X52095Y-44090D01*
X52095Y-44033D01*
X52114Y-43957D01*
X52133Y-43919D01*
X52171Y-43881D01*
X52229Y-43862D01*
X52267Y-43862D01*
X52324Y-43881D01*
X52343Y-43900D01*
X52476Y-43862D02*
X52724Y-43862D01*
X52590Y-44014D01*
X52648Y-44014D01*
X52686Y-44033D01*
X52705Y-44052D01*
X52724Y-44090D01*
X52724Y-44186D01*
X52705Y-44224D01*
X52686Y-44243D01*
X52648Y-44262D01*
X52533Y-44262D01*
X52495Y-44243D01*
X52476Y-44224D01*
X52857Y-43862D02*
X53124Y-43862D01*
X52952Y-44262D01*
X52343Y-34224D02*
X52324Y-34243D01*
X52267Y-34262D01*
X52229Y-34262D01*
X52171Y-34243D01*
X52133Y-34205D01*
X52114Y-34167D01*
X52095Y-34090D01*
X52095Y-34033D01*
X52114Y-33957D01*
X52133Y-33919D01*
X52171Y-33881D01*
X52229Y-33862D01*
X52267Y-33862D01*
X52324Y-33881D01*
X52343Y-33900D01*
X52476Y-33862D02*
X52724Y-33862D01*
X52590Y-34014D01*
X52648Y-34014D01*
X52686Y-34033D01*
X52705Y-34052D01*
X52724Y-34090D01*
X52724Y-34186D01*
X52705Y-34224D01*
X52686Y-34243D01*
X52648Y-34262D01*
X52533Y-34262D01*
X52495Y-34243D01*
X52476Y-34224D01*
X53067Y-33862D02*
X52990Y-33862D01*
X52952Y-33881D01*
X52933Y-33900D01*
X52895Y-33957D01*
X52876Y-34033D01*
X52876Y-34186D01*
X52895Y-34224D01*
X52914Y-34243D01*
X52952Y-34262D01*
X53029Y-34262D01*
X53067Y-34243D01*
X53086Y-34224D01*
X53105Y-34186D01*
X53105Y-34090D01*
X53086Y-34052D01*
X53067Y-34033D01*
X53029Y-34014D01*
X52952Y-34014D01*
X52914Y-34033D01*
X52895Y-34052D01*
X52876Y-34090D01*
X52343Y-32224D02*
X52324Y-32243D01*
X52267Y-32262D01*
X52229Y-32262D01*
X52171Y-32243D01*
X52133Y-32205D01*
X52114Y-32167D01*
X52095Y-32090D01*
X52095Y-32033D01*
X52114Y-31957D01*
X52133Y-31919D01*
X52171Y-31881D01*
X52229Y-31862D01*
X52267Y-31862D01*
X52324Y-31881D01*
X52343Y-31900D01*
X52476Y-31862D02*
X52724Y-31862D01*
X52590Y-32014D01*
X52648Y-32014D01*
X52686Y-32033D01*
X52705Y-32052D01*
X52724Y-32090D01*
X52724Y-32186D01*
X52705Y-32224D01*
X52686Y-32243D01*
X52648Y-32262D01*
X52533Y-32262D01*
X52495Y-32243D01*
X52476Y-32224D01*
X53086Y-31862D02*
X52895Y-31862D01*
X52876Y-32052D01*
X52895Y-32033D01*
X52933Y-32014D01*
X53029Y-32014D01*
X53067Y-32033D01*
X53086Y-32052D01*
X53105Y-32090D01*
X53105Y-32186D01*
X53086Y-32224D01*
X53067Y-32243D01*
X53029Y-32262D01*
X52933Y-32262D01*
X52895Y-32243D01*
X52876Y-32224D01*
X52343Y-30224D02*
X52324Y-30243D01*
X52267Y-30262D01*
X52229Y-30262D01*
X52171Y-30243D01*
X52133Y-30205D01*
X52114Y-30167D01*
X52095Y-30090D01*
X52095Y-30033D01*
X52114Y-29957D01*
X52133Y-29919D01*
X52171Y-29881D01*
X52229Y-29862D01*
X52267Y-29862D01*
X52324Y-29881D01*
X52343Y-29900D01*
X52476Y-29862D02*
X52724Y-29862D01*
X52590Y-30014D01*
X52648Y-30014D01*
X52686Y-30033D01*
X52705Y-30052D01*
X52724Y-30090D01*
X52724Y-30186D01*
X52705Y-30224D01*
X52686Y-30243D01*
X52648Y-30262D01*
X52533Y-30262D01*
X52495Y-30243D01*
X52476Y-30224D01*
X53067Y-29995D02*
X53067Y-30262D01*
X52971Y-29843D02*
X52876Y-30129D01*
X53124Y-30129D01*
X52343Y-28224D02*
X52324Y-28243D01*
X52267Y-28262D01*
X52229Y-28262D01*
X52171Y-28243D01*
X52133Y-28205D01*
X52114Y-28167D01*
X52095Y-28090D01*
X52095Y-28033D01*
X52114Y-27957D01*
X52133Y-27919D01*
X52171Y-27881D01*
X52229Y-27862D01*
X52267Y-27862D01*
X52324Y-27881D01*
X52343Y-27900D01*
X52476Y-27862D02*
X52724Y-27862D01*
X52590Y-28014D01*
X52648Y-28014D01*
X52686Y-28033D01*
X52705Y-28052D01*
X52724Y-28090D01*
X52724Y-28186D01*
X52705Y-28224D01*
X52686Y-28243D01*
X52648Y-28262D01*
X52533Y-28262D01*
X52495Y-28243D01*
X52476Y-28224D01*
X52857Y-27862D02*
X53105Y-27862D01*
X52971Y-28014D01*
X53029Y-28014D01*
X53067Y-28033D01*
X53086Y-28052D01*
X53105Y-28090D01*
X53105Y-28186D01*
X53086Y-28224D01*
X53067Y-28243D01*
X53029Y-28262D01*
X52914Y-28262D01*
X52876Y-28243D01*
X52857Y-28224D01*
M02*
