G04 (created by PCBNEW-RS274X (2011-11-30 BZR 3250)-stable) date Mon 09 Jan 2012 02:26:34 AM UTC*
G01*
G70*
G90*
%MOIN*%
G04 Gerber Fmt 3.4, Leading zero omitted, Abs format*
%FSLAX34Y34*%
G04 APERTURE LIST*
%ADD10C,0.006000*%
%ADD11R,0.064000X0.013800*%
%ADD12O,0.064000X0.013800*%
%ADD13O,0.013800X0.064000*%
%ADD14R,0.075000X0.075000*%
%ADD15C,0.075000*%
%ADD16C,0.080000*%
%ADD17C,0.180000*%
G04 APERTURE END LIST*
G54D10*
G54D11*
X68185Y-43831D03*
G54D12*
X68185Y-44028D03*
X68185Y-44225D03*
X68185Y-44422D03*
X68185Y-44619D03*
X68185Y-44815D03*
X68185Y-45012D03*
X68185Y-45209D03*
X68185Y-45406D03*
X68185Y-45603D03*
X68185Y-45800D03*
X68185Y-45996D03*
X68185Y-46193D03*
X68185Y-46390D03*
X68185Y-46587D03*
X68185Y-46784D03*
G54D13*
X69020Y-47682D03*
X69217Y-47682D03*
X69414Y-47682D03*
X69611Y-47682D03*
X69808Y-47682D03*
X70004Y-47682D03*
X70201Y-47682D03*
X70398Y-47682D03*
X70595Y-47682D03*
X70792Y-47682D03*
X70989Y-47682D03*
X71185Y-47682D03*
X71382Y-47682D03*
X71579Y-47682D03*
X71776Y-47682D03*
X71973Y-47682D03*
G54D12*
X72871Y-46784D03*
X72871Y-46587D03*
X72871Y-46390D03*
X72871Y-46193D03*
X72871Y-45996D03*
X72871Y-45800D03*
X72871Y-45603D03*
X72871Y-45406D03*
X72871Y-45209D03*
X72871Y-45012D03*
X72871Y-44815D03*
X72871Y-44619D03*
X72871Y-44422D03*
X72871Y-44225D03*
X72871Y-44028D03*
X72871Y-43831D03*
G54D13*
X71973Y-42996D03*
X71776Y-42996D03*
X71382Y-42996D03*
X71579Y-42989D03*
X71185Y-42996D03*
X70989Y-42996D03*
X70792Y-42996D03*
X70595Y-42996D03*
X70398Y-42996D03*
X70201Y-42996D03*
X70007Y-42996D03*
X69810Y-42996D03*
X69613Y-42996D03*
X69416Y-42996D03*
X69220Y-42996D03*
X69023Y-42996D03*
G54D14*
X78500Y-45500D03*
G54D15*
X78500Y-46500D03*
X78500Y-47500D03*
X78500Y-48500D03*
X78500Y-49500D03*
X78500Y-50500D03*
X78500Y-51500D03*
X78500Y-52500D03*
G54D14*
X78500Y-35500D03*
G54D15*
X78500Y-36500D03*
X78500Y-37500D03*
X78500Y-38500D03*
X78500Y-39500D03*
X78500Y-40500D03*
X78500Y-41500D03*
X78500Y-42500D03*
G54D14*
X35000Y-48500D03*
G54D15*
X35000Y-49500D03*
X35000Y-50500D03*
X35000Y-51500D03*
X35000Y-52500D03*
X35000Y-53500D03*
X35000Y-54500D03*
X35000Y-55500D03*
G54D14*
X35000Y-32500D03*
G54D15*
X35000Y-33500D03*
X35000Y-34500D03*
X35000Y-35500D03*
X35000Y-36500D03*
X35000Y-37500D03*
X35000Y-38500D03*
X35000Y-39500D03*
G54D14*
X75594Y-31031D03*
G54D15*
X76594Y-31031D03*
X77594Y-31031D03*
X78594Y-31031D03*
G54D16*
X68106Y-32902D03*
X72106Y-32902D03*
G54D15*
X46000Y-43000D03*
X45000Y-43000D03*
X46000Y-31000D03*
X45000Y-31000D03*
X46000Y-33000D03*
X45000Y-33000D03*
X46000Y-35000D03*
X45000Y-35000D03*
X46000Y-45000D03*
X45000Y-45000D03*
X46000Y-47000D03*
X45000Y-47000D03*
X46000Y-49000D03*
X45000Y-49000D03*
X46000Y-51000D03*
X45000Y-51000D03*
X46000Y-37000D03*
X45000Y-37000D03*
X46000Y-39000D03*
X45000Y-39000D03*
X46000Y-41000D03*
X45000Y-41000D03*
X39000Y-55000D03*
X38000Y-55000D03*
X46000Y-53000D03*
X45000Y-53000D03*
X46000Y-55000D03*
X45000Y-55000D03*
X46000Y-57000D03*
X45000Y-57000D03*
X46000Y-29000D03*
X45000Y-29000D03*
X39000Y-59000D03*
X38000Y-59000D03*
X39000Y-57000D03*
X38000Y-57000D03*
X55000Y-29000D03*
X55000Y-30000D03*
X39000Y-53000D03*
X38000Y-53000D03*
X39000Y-43000D03*
X38000Y-43000D03*
X39000Y-41000D03*
X38000Y-41000D03*
X39000Y-39000D03*
X38000Y-39000D03*
X39000Y-37000D03*
X38000Y-37000D03*
X39000Y-51000D03*
X38000Y-51000D03*
X39000Y-49000D03*
X38000Y-49000D03*
X39000Y-47000D03*
X38000Y-47000D03*
X39000Y-45000D03*
X38000Y-45000D03*
X39000Y-35000D03*
X38000Y-35000D03*
X59000Y-36000D03*
X59000Y-37000D03*
X59000Y-28000D03*
X59000Y-29000D03*
X61000Y-32000D03*
X61000Y-31000D03*
X59000Y-32000D03*
X59000Y-33000D03*
X61000Y-36000D03*
X61000Y-35000D03*
X59000Y-44000D03*
X59000Y-45000D03*
X61000Y-48000D03*
X61000Y-47000D03*
X59000Y-48000D03*
X59000Y-49000D03*
X61000Y-52000D03*
X61000Y-51000D03*
X57000Y-59000D03*
X57000Y-58000D03*
X61000Y-40000D03*
X61000Y-39000D03*
X59000Y-40000D03*
X59000Y-41000D03*
X61000Y-44000D03*
X61000Y-43000D03*
X59000Y-52000D03*
X59000Y-53000D03*
X61000Y-56000D03*
X61000Y-55000D03*
X59000Y-56000D03*
X59000Y-57000D03*
X61000Y-60000D03*
X61000Y-59000D03*
X46000Y-59000D03*
X45000Y-59000D03*
X55000Y-57000D03*
X55000Y-58000D03*
X57000Y-55000D03*
X57000Y-54000D03*
X55000Y-53000D03*
X55000Y-54000D03*
X57000Y-43000D03*
X57000Y-42000D03*
X55000Y-41000D03*
X55000Y-42000D03*
X57000Y-39000D03*
X57000Y-38000D03*
X55000Y-37000D03*
X55000Y-38000D03*
X57000Y-51000D03*
X57000Y-50000D03*
X55000Y-49000D03*
X55000Y-50000D03*
X57000Y-47000D03*
X57000Y-46000D03*
X55000Y-45000D03*
X55000Y-46000D03*
X57000Y-35000D03*
X57000Y-34000D03*
X55000Y-33000D03*
X55000Y-34000D03*
X57000Y-31000D03*
X57000Y-30000D03*
X39000Y-29000D03*
X38000Y-29000D03*
X39000Y-31000D03*
X38000Y-31000D03*
X39000Y-33000D03*
X38000Y-33000D03*
G54D14*
X73000Y-50000D03*
G54D15*
X74000Y-50000D03*
X50000Y-39000D03*
X50000Y-38000D03*
X50000Y-31000D03*
X50000Y-30000D03*
X48000Y-33000D03*
X48000Y-34000D03*
X50000Y-35000D03*
X50000Y-34000D03*
X48000Y-45000D03*
X48000Y-46000D03*
X50000Y-47000D03*
X50000Y-46000D03*
X48000Y-49000D03*
X48000Y-50000D03*
X50000Y-51000D03*
X50000Y-50000D03*
X48000Y-37000D03*
X48000Y-38000D03*
X41000Y-57000D03*
X41000Y-58000D03*
X48000Y-41000D03*
X48000Y-42000D03*
X50000Y-43000D03*
X50000Y-42000D03*
X48000Y-53000D03*
X48000Y-54000D03*
X50000Y-55000D03*
X50000Y-54000D03*
X48000Y-57000D03*
X48000Y-58000D03*
X48000Y-29000D03*
X48000Y-30000D03*
X43000Y-59000D03*
X43000Y-58000D03*
X43000Y-31000D03*
X43000Y-30000D03*
X43000Y-55000D03*
X43000Y-54000D03*
X41000Y-53000D03*
X41000Y-54000D03*
X43000Y-43000D03*
X43000Y-42000D03*
X41000Y-41000D03*
X41000Y-42000D03*
X43000Y-39000D03*
X43000Y-38000D03*
X41000Y-37000D03*
X41000Y-38000D03*
X43000Y-51000D03*
X43000Y-50000D03*
X41000Y-49000D03*
X41000Y-50000D03*
X43000Y-47000D03*
X43000Y-46000D03*
X41000Y-45000D03*
X41000Y-46000D03*
X43000Y-35000D03*
X43000Y-34000D03*
X41000Y-33000D03*
X41000Y-34000D03*
X52000Y-57000D03*
X53000Y-57000D03*
X41000Y-29000D03*
X41000Y-30000D03*
X74000Y-43000D03*
X75000Y-43000D03*
X74000Y-42000D03*
X75000Y-42000D03*
X68087Y-34949D03*
X69087Y-34949D03*
X74000Y-54000D03*
X73000Y-54000D03*
X72000Y-52000D03*
X73000Y-52000D03*
X72000Y-38000D03*
X73000Y-38000D03*
X72000Y-56000D03*
X73000Y-56000D03*
X72000Y-36000D03*
X73000Y-36000D03*
X69000Y-50000D03*
X70000Y-50000D03*
X71000Y-39000D03*
X72000Y-39000D03*
X69000Y-52000D03*
X70000Y-52000D03*
X71000Y-37000D03*
X72000Y-37000D03*
X52000Y-59000D03*
X53000Y-59000D03*
X50000Y-59000D03*
X50000Y-58000D03*
X52000Y-55000D03*
X53000Y-55000D03*
X52000Y-53000D03*
X53000Y-53000D03*
X52000Y-43000D03*
X53000Y-43000D03*
X52000Y-41000D03*
X53000Y-41000D03*
X52000Y-39000D03*
X53000Y-39000D03*
X52000Y-37000D03*
X53000Y-37000D03*
X52000Y-51000D03*
X53000Y-51000D03*
X52000Y-49000D03*
X53000Y-49000D03*
X52000Y-47000D03*
X53000Y-47000D03*
X52000Y-45000D03*
X53000Y-45000D03*
X52000Y-35000D03*
X53000Y-35000D03*
X52000Y-33000D03*
X53000Y-33000D03*
X52000Y-31000D03*
X53000Y-31000D03*
X52000Y-29000D03*
X53000Y-29000D03*
G54D17*
X78000Y-59000D03*
X35500Y-59000D03*
X35500Y-29000D03*
X78063Y-29051D03*
M02*
