G04 (created by PCBNEW-RS274X (2012-apr-16-27)-stable) date Sat 21 Dec 2013 03:19:58 PM CET*
G01*
G70*
G90*
%MOIN*%
G04 Gerber Fmt 3.4, Leading zero omitted, Abs format*
%FSLAX34Y34*%
G04 APERTURE LIST*
%ADD10C,0.008000*%
%ADD11R,0.041300X0.049200*%
%ADD12R,0.206700X0.035400*%
%ADD13R,0.031500X0.076700*%
%ADD14R,0.043000X0.023000*%
%ADD15R,0.023000X0.043000*%
%ADD16R,0.053000X0.033000*%
%ADD17R,0.035400X0.206700*%
%ADD18R,0.076700X0.031500*%
%ADD19R,0.068900X0.104300*%
%ADD20R,0.037400X0.025600*%
%ADD21R,0.033000X0.053000*%
%ADD22R,0.078000X0.142000*%
%ADD23R,0.078000X0.038000*%
%ADD24R,0.029400X0.029400*%
%ADD25R,0.018000X0.010000*%
%ADD26R,0.048000X0.098000*%
%ADD27R,0.013700X0.061000*%
%ADD28R,0.029500X0.059800*%
%ADD29R,0.098000X0.048000*%
%ADD30R,0.043000X0.018000*%
%ADD31R,0.092500X0.027900*%
%ADD32R,0.155500X0.058000*%
%ADD33R,0.188000X0.108000*%
%ADD34R,0.053000X0.148000*%
%ADD35R,0.041300X0.072800*%
%ADD36R,0.148000X0.053000*%
%ADD37R,0.058000X0.008000*%
%ADD38R,0.008000X0.058000*%
%ADD39R,0.076700X0.116100*%
%ADD40R,0.058000X0.007800*%
%ADD41O,0.058000X0.007800*%
%ADD42O,0.007800X0.058000*%
%ADD43C,0.037400*%
%ADD44R,0.025600X0.084600*%
G04 APERTURE END LIST*
G54D10*
G54D11*
X83104Y-29953D03*
X83104Y-29047D03*
X82396Y-29047D03*
X82396Y-29953D03*
G54D12*
X63000Y-43354D03*
X63000Y-45146D03*
G54D13*
X62124Y-43561D03*
X63876Y-43561D03*
X62124Y-44939D03*
X63876Y-44939D03*
G54D14*
X77018Y-39167D03*
X77018Y-39767D03*
X69768Y-39167D03*
X69768Y-39767D03*
X70768Y-39167D03*
X70768Y-39767D03*
G54D15*
X67800Y-30750D03*
X67200Y-30750D03*
X67800Y-32750D03*
X67200Y-32750D03*
X67800Y-31750D03*
X67200Y-31750D03*
X67800Y-33750D03*
X67200Y-33750D03*
X67800Y-34750D03*
X67200Y-34750D03*
X60550Y-30450D03*
X61150Y-30450D03*
X58050Y-28250D03*
X58650Y-28250D03*
X50200Y-31000D03*
X50800Y-31000D03*
X48200Y-31500D03*
X48800Y-31500D03*
X48200Y-32500D03*
X48800Y-32500D03*
X50200Y-32000D03*
X50800Y-32000D03*
X49950Y-37750D03*
X50550Y-37750D03*
X49950Y-36750D03*
X50550Y-36750D03*
X49950Y-24000D03*
X50550Y-24000D03*
X49950Y-25000D03*
X50550Y-25000D03*
X43200Y-30750D03*
X43800Y-30750D03*
X43200Y-29500D03*
X43800Y-29500D03*
G54D14*
X74750Y-43300D03*
X74750Y-42700D03*
G54D16*
X76250Y-43375D03*
X76250Y-42625D03*
G54D17*
X76146Y-45500D03*
X74354Y-45500D03*
G54D18*
X75939Y-44624D03*
X75939Y-46376D03*
X74561Y-44624D03*
X74561Y-46376D03*
G54D14*
X63750Y-20450D03*
X63750Y-21050D03*
G54D16*
X61750Y-23125D03*
X61750Y-22375D03*
X62250Y-20375D03*
X62250Y-21125D03*
G54D19*
X36195Y-43250D03*
X34305Y-43250D03*
X39695Y-45750D03*
X37805Y-45750D03*
G54D16*
X89500Y-23625D03*
X89500Y-22875D03*
G54D20*
X37000Y-20750D03*
X36000Y-21125D03*
X36000Y-20375D03*
G54D15*
X38450Y-22250D03*
X39050Y-22250D03*
X39100Y-21200D03*
X38500Y-21200D03*
X36800Y-22250D03*
X36200Y-22250D03*
G54D21*
X38425Y-20000D03*
X39175Y-20000D03*
G54D22*
X31450Y-21000D03*
G54D23*
X34050Y-21000D03*
X34050Y-20100D03*
X34050Y-21900D03*
G54D22*
X21950Y-21000D03*
G54D23*
X24550Y-21000D03*
X24550Y-20100D03*
X24550Y-21900D03*
G54D21*
X28575Y-20000D03*
X29325Y-20000D03*
G54D15*
X27250Y-22250D03*
X26650Y-22250D03*
X29250Y-21250D03*
X28650Y-21250D03*
X28650Y-22250D03*
X29250Y-22250D03*
G54D20*
X27450Y-20750D03*
X26450Y-21125D03*
X26450Y-20375D03*
G54D14*
X73000Y-24550D03*
X73000Y-23950D03*
G54D20*
X87500Y-23125D03*
X87500Y-23500D03*
X87500Y-23875D03*
X86500Y-23875D03*
X86500Y-23500D03*
X86500Y-23125D03*
G54D15*
X70300Y-20500D03*
X69700Y-20500D03*
G54D24*
X72295Y-20500D03*
X71705Y-20500D03*
G54D15*
X58850Y-29450D03*
X58250Y-29450D03*
G54D25*
X57950Y-30200D03*
X57950Y-30700D03*
X58750Y-30200D03*
X57950Y-30450D03*
X58750Y-30700D03*
G54D26*
X85400Y-43000D03*
X86600Y-43000D03*
G54D16*
X85250Y-44375D03*
X85250Y-45125D03*
G54D22*
X80700Y-44000D03*
G54D23*
X83300Y-44000D03*
X83300Y-43100D03*
X83300Y-44900D03*
G54D15*
X43200Y-28500D03*
X43800Y-28500D03*
G54D21*
X43875Y-27000D03*
X43125Y-27000D03*
G54D14*
X41700Y-27300D03*
X41700Y-26700D03*
G54D21*
X43875Y-25750D03*
X43125Y-25750D03*
G54D27*
X27884Y-43673D03*
X27628Y-43673D03*
X27372Y-43673D03*
X27116Y-43673D03*
X27116Y-45327D03*
X27372Y-45327D03*
X27628Y-45327D03*
X27884Y-45327D03*
G54D28*
X27500Y-44500D03*
G54D15*
X27950Y-41250D03*
X27350Y-41250D03*
G54D16*
X29500Y-42375D03*
X29500Y-43125D03*
G54D29*
X29500Y-45350D03*
X29500Y-44150D03*
G54D14*
X26050Y-45650D03*
X26050Y-45050D03*
G54D15*
X27950Y-42250D03*
X27350Y-42250D03*
X26050Y-41250D03*
X25450Y-41250D03*
X21013Y-41250D03*
X20413Y-41250D03*
X22763Y-42250D03*
X22163Y-42250D03*
G54D14*
X20750Y-45650D03*
X20750Y-45050D03*
G54D29*
X24213Y-45400D03*
X24213Y-44200D03*
G54D16*
X24213Y-42375D03*
X24213Y-43125D03*
G54D15*
X22763Y-41250D03*
X22163Y-41250D03*
G54D27*
X22597Y-43673D03*
X22341Y-43673D03*
X22085Y-43673D03*
X21829Y-43673D03*
X21829Y-45327D03*
X22085Y-45327D03*
X22341Y-45327D03*
X22597Y-45327D03*
G54D28*
X22213Y-44500D03*
G54D14*
X47500Y-29700D03*
X47500Y-30300D03*
G54D16*
X61250Y-38375D03*
X61250Y-39125D03*
X59750Y-39125D03*
X59750Y-38375D03*
G54D14*
X57750Y-39050D03*
X57750Y-38450D03*
X62750Y-38300D03*
X62750Y-37700D03*
X63250Y-36300D03*
X63250Y-35700D03*
G54D15*
X49950Y-35750D03*
X50550Y-35750D03*
G54D14*
X48750Y-39050D03*
X48750Y-38450D03*
X50750Y-39050D03*
X50750Y-39650D03*
G54D16*
X47250Y-39625D03*
X47250Y-38875D03*
X45500Y-39625D03*
X45500Y-38875D03*
X49250Y-29375D03*
X49250Y-28625D03*
X50750Y-29375D03*
X50750Y-28625D03*
G54D15*
X50800Y-33000D03*
X50200Y-33000D03*
G54D14*
X57750Y-32950D03*
X57750Y-33550D03*
G54D16*
X59200Y-33025D03*
X59200Y-33775D03*
X60700Y-33025D03*
X60700Y-33775D03*
X60000Y-25875D03*
X60000Y-26625D03*
X58750Y-26625D03*
X58750Y-25875D03*
G54D14*
X57500Y-26550D03*
X57500Y-25950D03*
G54D15*
X61200Y-26000D03*
X61800Y-26000D03*
X61200Y-27000D03*
X61800Y-27000D03*
X49950Y-23000D03*
X50550Y-23000D03*
X49950Y-26000D03*
X50550Y-26000D03*
X50550Y-27000D03*
X49950Y-27000D03*
G54D21*
X48625Y-27000D03*
X47875Y-27000D03*
G54D16*
X46600Y-28075D03*
X46600Y-27325D03*
G54D30*
X56250Y-39000D03*
X56250Y-38500D03*
X56250Y-38000D03*
X56250Y-37500D03*
X56250Y-37000D03*
X56250Y-36500D03*
X56250Y-36000D03*
X56250Y-35500D03*
X52250Y-35500D03*
X52250Y-36000D03*
X52250Y-36500D03*
X52250Y-37000D03*
X52250Y-37500D03*
X52250Y-38000D03*
X52250Y-38500D03*
X52250Y-39000D03*
X56250Y-26500D03*
X56250Y-26000D03*
X56250Y-25500D03*
X56250Y-25000D03*
X56250Y-24500D03*
X56250Y-24000D03*
X56250Y-23500D03*
X56250Y-23000D03*
X52250Y-23000D03*
X52250Y-23500D03*
X52250Y-24000D03*
X52250Y-24500D03*
X52250Y-25000D03*
X52250Y-25500D03*
X52250Y-26000D03*
X52250Y-26500D03*
X56250Y-33000D03*
X56250Y-32500D03*
X56250Y-32000D03*
X56250Y-31500D03*
X56250Y-31000D03*
X56250Y-30500D03*
X56250Y-30000D03*
X56250Y-29500D03*
X52250Y-29500D03*
X52250Y-30000D03*
X52250Y-30500D03*
X52250Y-31000D03*
X52250Y-31500D03*
X52250Y-32000D03*
X52250Y-32500D03*
X52250Y-33000D03*
G54D15*
X85700Y-34000D03*
X86300Y-34000D03*
G54D14*
X80000Y-31800D03*
X80000Y-31200D03*
X81000Y-31800D03*
X81000Y-31200D03*
G54D15*
X83550Y-34000D03*
X82950Y-34000D03*
G54D31*
X84018Y-33250D03*
X82482Y-33250D03*
X84018Y-32750D03*
X82482Y-32750D03*
X84018Y-32250D03*
X82482Y-32250D03*
X84018Y-31750D03*
X82482Y-31750D03*
X84018Y-31250D03*
X82482Y-31250D03*
G54D15*
X79950Y-36750D03*
X80550Y-36750D03*
G54D32*
X82325Y-39837D03*
X82325Y-38263D03*
X79175Y-39837D03*
X79175Y-38263D03*
G54D15*
X78300Y-46000D03*
X77700Y-46000D03*
G54D24*
X80295Y-46000D03*
X79705Y-46000D03*
G54D33*
X32000Y-45750D03*
X32000Y-43250D03*
G54D34*
X34350Y-45750D03*
X36150Y-45750D03*
G54D14*
X78750Y-26800D03*
X78750Y-26200D03*
X77750Y-26800D03*
X77750Y-26200D03*
X81550Y-26550D03*
X81550Y-27150D03*
X80600Y-26950D03*
X80600Y-27550D03*
G54D35*
X76260Y-24217D03*
X75276Y-24217D03*
G54D14*
X77518Y-24517D03*
X77518Y-23917D03*
X74018Y-24517D03*
X74018Y-23917D03*
G54D15*
X82450Y-28000D03*
X83050Y-28000D03*
G54D14*
X84250Y-29800D03*
X84250Y-29200D03*
G54D21*
X65643Y-31217D03*
X64893Y-31217D03*
G54D15*
X67800Y-29700D03*
X67200Y-29700D03*
G54D21*
X64893Y-29967D03*
X65643Y-29967D03*
X88995Y-30709D03*
X89745Y-30709D03*
G54D17*
X46146Y-45500D03*
X44354Y-45500D03*
G54D18*
X45939Y-44624D03*
X45939Y-46376D03*
X44561Y-44624D03*
X44561Y-46376D03*
G54D12*
X57250Y-45146D03*
X57250Y-43354D03*
G54D13*
X58126Y-44939D03*
X56374Y-44939D03*
X58126Y-43561D03*
X56374Y-43561D03*
G54D21*
X57125Y-46250D03*
X56375Y-46250D03*
G54D29*
X44000Y-42600D03*
X44000Y-41400D03*
G54D15*
X45200Y-43500D03*
X45800Y-43500D03*
X63950Y-46250D03*
X64550Y-46250D03*
G54D36*
X87250Y-20100D03*
X87250Y-21900D03*
G54D16*
X80018Y-24592D03*
X80018Y-23842D03*
G54D21*
X81875Y-35250D03*
X82625Y-35250D03*
G54D15*
X80100Y-29850D03*
X80700Y-29850D03*
G54D21*
X82625Y-36500D03*
X81875Y-36500D03*
G54D14*
X75750Y-26700D03*
X75750Y-26100D03*
X73518Y-39167D03*
X73518Y-39767D03*
X73000Y-26800D03*
X73000Y-26200D03*
G54D15*
X67818Y-35817D03*
X67218Y-35817D03*
G54D14*
X72000Y-26800D03*
X72000Y-26200D03*
G54D21*
X67875Y-27750D03*
X67125Y-27750D03*
G54D15*
X79950Y-35750D03*
X80550Y-35750D03*
G54D21*
X64893Y-27467D03*
X65643Y-27467D03*
G54D15*
X67800Y-28850D03*
X67200Y-28850D03*
G54D21*
X65643Y-28717D03*
X64893Y-28717D03*
G54D16*
X81518Y-24592D03*
X81518Y-23842D03*
G54D14*
X76750Y-26800D03*
X76750Y-26200D03*
G54D16*
X83018Y-23842D03*
X83018Y-24592D03*
X78768Y-23842D03*
X78768Y-24592D03*
X69500Y-23875D03*
X69500Y-24625D03*
G54D14*
X71100Y-26800D03*
X71100Y-26200D03*
X74518Y-39167D03*
X74518Y-39767D03*
G54D15*
X79950Y-34750D03*
X80550Y-34750D03*
G54D14*
X74150Y-26800D03*
X74150Y-26200D03*
G54D15*
X67818Y-36717D03*
X67218Y-36717D03*
G54D14*
X72000Y-24550D03*
X72000Y-23950D03*
G54D16*
X70750Y-24625D03*
X70750Y-23875D03*
G54D37*
X78343Y-36412D03*
X78343Y-36212D03*
X78343Y-36017D03*
X78343Y-35822D03*
X78343Y-35622D03*
X78343Y-35427D03*
X78343Y-35232D03*
X78343Y-35032D03*
X78343Y-34837D03*
X78343Y-34642D03*
X78343Y-34442D03*
X78343Y-34247D03*
X78343Y-34052D03*
X78343Y-33852D03*
X78343Y-33657D03*
X78343Y-33462D03*
X78343Y-33262D03*
X78343Y-33067D03*
X78343Y-32867D03*
X78343Y-32672D03*
X78343Y-32472D03*
X78343Y-32277D03*
X78343Y-32082D03*
X78343Y-31882D03*
X78343Y-31687D03*
X78343Y-31492D03*
X78343Y-31292D03*
X78343Y-31097D03*
X78343Y-30902D03*
X78343Y-30702D03*
X78343Y-30507D03*
X78343Y-30312D03*
X78343Y-30112D03*
X78343Y-29917D03*
X78343Y-29722D03*
X78343Y-29522D03*
G54D38*
X71753Y-28642D03*
X71558Y-28642D03*
X71363Y-28642D03*
X71163Y-28642D03*
X70968Y-28642D03*
X70773Y-28642D03*
X70573Y-28642D03*
X71558Y-37292D03*
X71753Y-37292D03*
X71953Y-37292D03*
X72148Y-37292D03*
X72343Y-37292D03*
X72543Y-37292D03*
X72738Y-37292D03*
X72933Y-37292D03*
X73133Y-37292D03*
X73328Y-37292D03*
X73523Y-37292D03*
X73723Y-37292D03*
X73918Y-37292D03*
X74118Y-37292D03*
X74313Y-37292D03*
X74513Y-37292D03*
X74708Y-37292D03*
X74903Y-37292D03*
X75103Y-37292D03*
X75298Y-37292D03*
X75493Y-37292D03*
X75693Y-37292D03*
X75888Y-37292D03*
X76083Y-37292D03*
X76283Y-37292D03*
X76478Y-37292D03*
X76673Y-37292D03*
X76873Y-37292D03*
X77068Y-37292D03*
X77263Y-37292D03*
X77463Y-37292D03*
X77463Y-28642D03*
X77263Y-28642D03*
X77068Y-28642D03*
X76873Y-28642D03*
X76673Y-28642D03*
X76478Y-28642D03*
X76283Y-28642D03*
X76083Y-28642D03*
X75888Y-28642D03*
X75693Y-28642D03*
X75493Y-28642D03*
X75298Y-28642D03*
X75103Y-28642D03*
X74903Y-28642D03*
X74708Y-28642D03*
X74513Y-28642D03*
X74313Y-28642D03*
X74118Y-28642D03*
X73918Y-28642D03*
X73723Y-28642D03*
X73523Y-28642D03*
X73328Y-28642D03*
X73133Y-28642D03*
X72933Y-28642D03*
X72738Y-28642D03*
X72543Y-28642D03*
X72343Y-28642D03*
X72148Y-28642D03*
X71953Y-28642D03*
G54D37*
X69693Y-30507D03*
X69693Y-30702D03*
X69693Y-30902D03*
X69693Y-31097D03*
X69693Y-31292D03*
X69693Y-31492D03*
X69693Y-31687D03*
X69693Y-31882D03*
X69693Y-32082D03*
X69693Y-32277D03*
X69693Y-32472D03*
X69693Y-32672D03*
X69693Y-32867D03*
X69693Y-33067D03*
X69693Y-33262D03*
X69693Y-33462D03*
X69693Y-33657D03*
X69693Y-33852D03*
X69693Y-34052D03*
X69693Y-34247D03*
X69693Y-34442D03*
X69693Y-34642D03*
X69693Y-34837D03*
X69693Y-35032D03*
X69693Y-35232D03*
X69693Y-35427D03*
X69693Y-35622D03*
X69693Y-35822D03*
X69693Y-36017D03*
X69693Y-36212D03*
X69693Y-36412D03*
X69693Y-29522D03*
X69693Y-29722D03*
X69693Y-29917D03*
X69693Y-30112D03*
X69693Y-30312D03*
G54D38*
X70573Y-37292D03*
X70773Y-37292D03*
X70968Y-37292D03*
X71163Y-37292D03*
X71363Y-37292D03*
G54D16*
X35250Y-38125D03*
X35250Y-38875D03*
X40500Y-24875D03*
X40500Y-24125D03*
G54D14*
X40500Y-27300D03*
X40500Y-26700D03*
G54D16*
X41750Y-24875D03*
X41750Y-24125D03*
G54D15*
X37450Y-25250D03*
X38050Y-25250D03*
G54D21*
X37375Y-24000D03*
X38125Y-24000D03*
G54D16*
X39750Y-38125D03*
X39750Y-38875D03*
G54D14*
X39500Y-26700D03*
X39500Y-27300D03*
G54D16*
X39250Y-24125D03*
X39250Y-24875D03*
X41250Y-38125D03*
X41250Y-38875D03*
G54D39*
X41319Y-36250D03*
X43681Y-36250D03*
G54D16*
X38250Y-38875D03*
X38250Y-38125D03*
G54D14*
X39500Y-36300D03*
X39500Y-35700D03*
X38500Y-35700D03*
X38500Y-36300D03*
X36500Y-35700D03*
X36500Y-36300D03*
X37500Y-35700D03*
X37500Y-36300D03*
X38500Y-27300D03*
X38500Y-26700D03*
G54D16*
X36750Y-38125D03*
X36750Y-38875D03*
G54D14*
X37500Y-27300D03*
X37500Y-26700D03*
G54D15*
X27450Y-35000D03*
X28050Y-35000D03*
X22200Y-35000D03*
X22800Y-35000D03*
X24950Y-35000D03*
X25550Y-35000D03*
X19700Y-35000D03*
X20300Y-35000D03*
X19700Y-34000D03*
X20300Y-34000D03*
X24950Y-34000D03*
X25550Y-34000D03*
X22200Y-34000D03*
X22800Y-34000D03*
X27450Y-34000D03*
X28050Y-34000D03*
X27450Y-32000D03*
X28050Y-32000D03*
X22200Y-32000D03*
X22800Y-32000D03*
X24950Y-32000D03*
X25550Y-32000D03*
X19700Y-32000D03*
X20300Y-32000D03*
X19700Y-33000D03*
X20300Y-33000D03*
X24950Y-33000D03*
X25550Y-33000D03*
X22200Y-33000D03*
X22800Y-33000D03*
X27450Y-33000D03*
X28050Y-33000D03*
X27450Y-37000D03*
X28050Y-37000D03*
X22200Y-37000D03*
X22800Y-37000D03*
X24950Y-37000D03*
X25550Y-37000D03*
X19700Y-37000D03*
X20300Y-37000D03*
X19700Y-36000D03*
X20300Y-36000D03*
X24950Y-36000D03*
X25550Y-36000D03*
X22200Y-36000D03*
X22800Y-36000D03*
X27450Y-36000D03*
X28050Y-36000D03*
X27450Y-38000D03*
X28050Y-38000D03*
X22200Y-38000D03*
X22800Y-38000D03*
X24950Y-38000D03*
X25550Y-38000D03*
X19700Y-38000D03*
X20300Y-38000D03*
X19700Y-39000D03*
X20300Y-39000D03*
X24950Y-39000D03*
X25550Y-39000D03*
X22200Y-39000D03*
X22800Y-39000D03*
X27450Y-39000D03*
X28050Y-39000D03*
X27450Y-31000D03*
X28050Y-31000D03*
X22200Y-31000D03*
X22800Y-31000D03*
X24950Y-31000D03*
X25550Y-31000D03*
X19700Y-31000D03*
X20300Y-31000D03*
X19700Y-30000D03*
X20300Y-30000D03*
X24950Y-30000D03*
X25550Y-30000D03*
X22200Y-30000D03*
X22800Y-30000D03*
X27450Y-30000D03*
X28050Y-30000D03*
X27450Y-28000D03*
X28050Y-28000D03*
X22200Y-28000D03*
X22800Y-28000D03*
X24950Y-28000D03*
X25550Y-28000D03*
X19700Y-28000D03*
X20300Y-28000D03*
X19700Y-29000D03*
X20300Y-29000D03*
X24950Y-29000D03*
X25550Y-29000D03*
X22200Y-29000D03*
X22800Y-29000D03*
X27450Y-29000D03*
X28050Y-29000D03*
X27450Y-25000D03*
X28050Y-25000D03*
X22200Y-25000D03*
X22800Y-25000D03*
X24950Y-25000D03*
X25550Y-25000D03*
X19700Y-25000D03*
X20300Y-25000D03*
X19700Y-24000D03*
X20300Y-24000D03*
X24950Y-24000D03*
X25550Y-24000D03*
X22200Y-24000D03*
X22800Y-24000D03*
X27450Y-24000D03*
X28050Y-24000D03*
X27450Y-26000D03*
X28050Y-26000D03*
X22200Y-26000D03*
X22800Y-26000D03*
X24950Y-26000D03*
X25550Y-26000D03*
X19700Y-26000D03*
X20300Y-26000D03*
X19700Y-27000D03*
X20300Y-27000D03*
X24950Y-27000D03*
X25550Y-27000D03*
X22200Y-27000D03*
X22800Y-27000D03*
X27450Y-27000D03*
X28050Y-27000D03*
G54D40*
X36689Y-30024D03*
G54D41*
X36689Y-30221D03*
X36689Y-30418D03*
X36689Y-30615D03*
X36689Y-30812D03*
X36689Y-31008D03*
X36689Y-31205D03*
X36689Y-31402D03*
X36689Y-31599D03*
X36689Y-31796D03*
X36689Y-31993D03*
X36689Y-32189D03*
X36689Y-32386D03*
X36689Y-32583D03*
X36689Y-32780D03*
X36689Y-32977D03*
G54D42*
X37524Y-33875D03*
X37721Y-33875D03*
X37918Y-33875D03*
X38115Y-33875D03*
X38312Y-33875D03*
X38508Y-33875D03*
X38705Y-33875D03*
X38902Y-33875D03*
X39099Y-33875D03*
X39296Y-33875D03*
X39493Y-33875D03*
X39689Y-33875D03*
X39886Y-33875D03*
X40083Y-33875D03*
X40280Y-33875D03*
X40477Y-33875D03*
G54D41*
X41375Y-32977D03*
X41375Y-32780D03*
X41375Y-32583D03*
X41375Y-32386D03*
X41375Y-32189D03*
X41375Y-31993D03*
X41375Y-31796D03*
X41375Y-31599D03*
X41375Y-31402D03*
X41375Y-31205D03*
X41375Y-31008D03*
X41375Y-30812D03*
X41375Y-30615D03*
X41375Y-30418D03*
X41375Y-30221D03*
X41375Y-30024D03*
G54D42*
X40477Y-29189D03*
X40280Y-29189D03*
X39886Y-29189D03*
X40083Y-29182D03*
X39689Y-29189D03*
X39493Y-29189D03*
X39296Y-29189D03*
X39099Y-29189D03*
X38902Y-29189D03*
X38705Y-29189D03*
X38511Y-29189D03*
X38314Y-29189D03*
X38117Y-29189D03*
X37920Y-29189D03*
X37724Y-29189D03*
X37527Y-29189D03*
G54D22*
X84450Y-38500D03*
G54D23*
X87050Y-38500D03*
X87050Y-37600D03*
X87050Y-39400D03*
G54D21*
X88995Y-37402D03*
X89745Y-37402D03*
X86375Y-35750D03*
X85625Y-35750D03*
G54D15*
X89070Y-38583D03*
X89670Y-38583D03*
G54D14*
X86750Y-44450D03*
X86750Y-45050D03*
G54D15*
X22200Y-40000D03*
X22800Y-40000D03*
X27450Y-40000D03*
X28050Y-40000D03*
X19700Y-40000D03*
X20300Y-40000D03*
X24950Y-40000D03*
X25550Y-40000D03*
G54D43*
X88583Y-41339D03*
X18701Y-41339D03*
X18701Y-22638D03*
G54D44*
X65000Y-22874D03*
X65500Y-22874D03*
X66000Y-22874D03*
X66500Y-22874D03*
X66500Y-20826D03*
X66000Y-20826D03*
X65500Y-20826D03*
X65000Y-20826D03*
G54D32*
X67643Y-39730D03*
X67643Y-38156D03*
X64493Y-39730D03*
X64493Y-38156D03*
M02*
