M48
INCH,TZ
T1C0.020
T2C0.025
T3C0.032
T4C0.039
T5C0.040
T6C0.091
%
G90
G05
T1
X021977Y-044323
X021977Y-044677
X022213Y-044500
X022449Y-044323
X022449Y-044677
X027264Y-044323
X027264Y-044677
X027500Y-044500
X027736Y-044323
X027736Y-044677
T2
X023250Y-024000
X023250Y-025000
X023250Y-026000
X023250Y-027000
X023250Y-028000
X023250Y-029000
X023250Y-030000
X023250Y-031000
X023250Y-032000
X023250Y-033000
X023250Y-034000
X023250Y-035000
X023250Y-036000
X023250Y-037000
X023250Y-038000
X023250Y-039000
X023250Y-040000
X023750Y-041750
X024150Y-041200
X024600Y-041750
X025400Y-021000
X025400Y-022000
X028000Y-021000
X028500Y-024000
X028500Y-025000
X028500Y-026000
X028500Y-027000
X028500Y-028000
X028500Y-029000
X028500Y-030000
X028500Y-031000
X028500Y-032000
X028500Y-033000
X028500Y-034000
X028500Y-035000
X028500Y-036000
X028500Y-037000
X028500Y-038000
X028500Y-039000
X028550Y-040000
X029000Y-041750
X029500Y-041200
X030000Y-041750
X032050Y-044250
X034400Y-023550
X034665Y-038839
X035000Y-021000
X035000Y-022000
X036500Y-036800
X036550Y-029200
X036575Y-037480
X036600Y-034000
X036969Y-026713
X037000Y-027500
X037100Y-034050
X037402Y-037953
X037500Y-021000
X037500Y-026300
X037500Y-036750
X037550Y-038875
X038500Y-026300
X038500Y-036750
X038700Y-023850
X038785Y-027725
X039050Y-038875
X039252Y-034941
X039500Y-036750
X040500Y-038875
X040551Y-023543
X040650Y-034250
X041700Y-026300
X041750Y-023550
X041800Y-028100
X042150Y-033400
X042450Y-026250
X042650Y-027700
X042650Y-028550
X042670Y-026990
X042800Y-032800
X043450Y-032850
X043750Y-032150
X044600Y-031200
X044800Y-029100
X044800Y-030100
X045500Y-038150
X045600Y-029600
X045750Y-030900
X046600Y-026700
X046700Y-025000
X047250Y-038150
X048000Y-026000
X048750Y-023000
X048750Y-025500
X049250Y-028000
X049300Y-036750
X049300Y-037750
X049750Y-033000
X050000Y-027750
X051250Y-024000
X051250Y-025500
X051250Y-029500
X051250Y-033250
X051400Y-038000
X051500Y-022500
X051500Y-028500
X051550Y-036050
X052000Y-035250
X052000Y-039500
X052250Y-029000
X056800Y-029500
X056900Y-026000
X056900Y-033400
X056950Y-023000
X057000Y-035500
X057000Y-038500
X057100Y-031500
X057400Y-030100
X057700Y-029300
X058250Y-046750
X059000Y-038000
X059050Y-035300
X059100Y-031000
X059400Y-028800
X059500Y-036250
X059750Y-027250
X060000Y-033800
X061000Y-023250
X061450Y-032850
X062000Y-039250
X062000Y-046750
X062250Y-033500
X062500Y-036000
X062750Y-023500
X062750Y-026000
X063100Y-034150
X063200Y-032000
X063325Y-034725
X063800Y-026450
X063850Y-028000
X063900Y-028700
X064000Y-034500
X064050Y-029950
X064100Y-031000
X064400Y-026750
X065250Y-032250
X065550Y-036750
X065800Y-032850
X066000Y-025000
X066000Y-035700
X066300Y-039750
X066500Y-024500
X066500Y-032500
X066500Y-033950
X066550Y-033150
X066700Y-035600
X066750Y-036600
X066850Y-027250
X066850Y-028350
X066850Y-030150
X067000Y-024000
X067500Y-025500
X067950Y-026500
X068500Y-029350
X068650Y-026000
X068700Y-025250
X068750Y-027900
X068800Y-035250
X068900Y-036150
X068950Y-037200
X069100Y-039400
X069380Y-023000
X069750Y-025250
X069800Y-040850
X069900Y-038150
X070300Y-040500
X070400Y-035300
X070500Y-025850
X070700Y-027300
X070750Y-023400
X071175Y-025675
X071400Y-024900
X071425Y-024025
X071450Y-038050
X071500Y-027600
X071700Y-034400
X071750Y-023350
X071800Y-035500
X072025Y-025675
X072050Y-025050
X072200Y-027950
X072350Y-029400
X072350Y-034750
X072500Y-023550
X072825Y-025800
X072850Y-039750
X073000Y-022880
X073000Y-025100
X073000Y-029300
X073000Y-032050
X073000Y-035050
X073075Y-038050
X073150Y-027800
X073350Y-032850
X073500Y-023550
X073650Y-035300
X074000Y-029950
X074000Y-032500
X074050Y-039400
X074200Y-025050
X074250Y-023500
X074250Y-025800
X074300Y-036550
X074350Y-035550
X074600Y-029250
X074600Y-033200
X074650Y-024050
X074750Y-036200
X074950Y-030000
X075200Y-039750
X075400Y-029350
X075450Y-026950
X075450Y-038700
X075650Y-030100
X075750Y-023550
X075800Y-025550
X075800Y-042950
X075950Y-027450
X076150Y-029500
X076350Y-030100
X076500Y-025150
X076550Y-038850
X076775Y-033225
X076840Y-029480
X076900Y-024050
X076900Y-042560
X077010Y-030110
X077200Y-026650
X077350Y-042280
X077400Y-025850
X077450Y-023450
X077500Y-029500
X077700Y-030100
X077800Y-045350
X078250Y-024950
X078250Y-026200
X078700Y-023300
X078950Y-032150
X079000Y-035000
X079125Y-036100
X079150Y-031450
X079370Y-024150
X079400Y-023350
X079450Y-025825
X079450Y-037125
X079650Y-032550
X079650Y-034950
X079750Y-029950
X080330Y-023370
X080450Y-031850
X080700Y-024600
X080850Y-046000
X080950Y-023900
X081000Y-025400
X081100Y-029900
X081100Y-034250
X081100Y-035000
X081100Y-036700
X081200Y-033150
X081300Y-028900
X081300Y-032300
X081350Y-036100
X081500Y-023300
X081500Y-030700
X081750Y-033900
X081800Y-029850
X082100Y-034600
X082150Y-023420
X082150Y-026700
X082150Y-030700
X082400Y-033800
X082500Y-035850
X083050Y-027150
X083225Y-023375
X083250Y-031250
X083250Y-032250
X083250Y-032750
X083250Y-033300
X083550Y-026700
X084000Y-027600
X084050Y-033850
X084200Y-026900
X084250Y-045750
X084750Y-033500
X085050Y-035900
X085400Y-033200
X085800Y-034700
X086100Y-023550
X087250Y-042500
X088100Y-039700
X088189Y-037402
X089500Y-036000
X089500Y-039750
T3
X016000Y-023000
X089150Y-027000
X089150Y-028000
X089937Y-027000
X089937Y-028000
T4
X048250Y-045500
X049250Y-045500
X050250Y-045500
X053250Y-045500
X054250Y-045500
X066250Y-045500
X067250Y-045500
X068000Y-022000
X068250Y-045500
X069000Y-022000
X070000Y-022000
X071000Y-022000
X071250Y-045500
X071490Y-041080
X072000Y-022000
X072250Y-045500
X072490Y-041080
X073000Y-022000
X073490Y-041080
X074000Y-022000
X074490Y-041080
X075000Y-022000
X075490Y-041080
X076000Y-022000
X076490Y-041080
X077000Y-022000
X077490Y-041080
X078490Y-041080
X078510Y-022000
X079510Y-022000
X080480Y-041080
X080510Y-022000
X081480Y-041080
X081510Y-022000
X082480Y-041080
X082510Y-022000
X083480Y-041080
X083510Y-022000
X084480Y-041080
X084510Y-022000
X085480Y-041080
X085510Y-022000
X085510Y-030400
X085510Y-031400
X085510Y-032400
X086510Y-030400
X086510Y-031400
X086510Y-032400
T5
X016000Y-024000
X016000Y-025000
X016000Y-026000
X016000Y-027000
X016000Y-028000
X016000Y-029000
X016000Y-030000
X016000Y-031000
X016000Y-032000
X016000Y-033000
X016000Y-034000
X016000Y-035000
X016000Y-036000
X016000Y-037000
X016000Y-038000
X016000Y-039000
X016000Y-040000
X016000Y-041000
X016000Y-042000
X017000Y-023000
X017000Y-024000
X017000Y-025000
X017000Y-026000
X017000Y-027000
X017000Y-028000
X017000Y-029000
X017000Y-030000
X017000Y-031000
X017000Y-032000
X017000Y-033000
X017000Y-034000
X017000Y-035000
X017000Y-036000
X017000Y-037000
X017000Y-038000
X017000Y-039000
X017000Y-040000
X017000Y-041000
X017000Y-042000
X030000Y-024000
X030000Y-025000
X030000Y-026000
X030000Y-027000
X030000Y-028000
X030000Y-029000
X030000Y-030000
X030000Y-031000
X030000Y-032000
X030000Y-033000
X030000Y-034000
X030000Y-035000
X030000Y-036000
X030000Y-037000
X030000Y-038000
X030000Y-039000
X031000Y-024000
X031000Y-025000
X031000Y-026000
X031000Y-027000
X031000Y-028000
X031000Y-029000
X031000Y-030000
X031000Y-031000
X031000Y-032000
X031000Y-033000
X031000Y-034000
X031000Y-035000
X031000Y-036000
X031000Y-037000
X031000Y-038000
X031000Y-039000
X035000Y-024000
X035000Y-025000
X035000Y-026000
X035000Y-027000
X035000Y-028000
X036000Y-024000
X036000Y-025000
X036000Y-026000
X036000Y-027000
X036000Y-028000
X038000Y-042000
X038000Y-043000
X039000Y-042000
X039000Y-043000
X078000Y-043000
X078000Y-044000
X085510Y-025400
X085510Y-026400
X085510Y-027400
X085510Y-028400
X085510Y-029400
X086510Y-025400
X086510Y-026400
X086510Y-027400
X086510Y-028400
X086510Y-029400
X091000Y-032000
X091000Y-033000
X091000Y-034000
X091000Y-035000
X091000Y-036000
X091000Y-037000
X091000Y-039000
X091000Y-040000
X091000Y-041000
X091000Y-042000
T6
X091000Y-025138
X091000Y-029862
T0
M30
