M48
INCH,TZ
T1C0.025
T2C0.039
T3C0.040
%
G90
G05
T1
X018661Y-039409
X018779Y-025590
X019724Y-046417
X023780Y-021240
X023780Y-032795
X023780Y-044094
X023819Y-032283
X024331Y-045276
X024370Y-033031
X024449Y-031693
X024488Y-020079
X025314Y-025590
X025314Y-028307
X025314Y-033818
X025314Y-039448
X025393Y-046181
X029724Y-031457
X029724Y-033150
X029724Y-044094
X029764Y-021220
X030354Y-020079
X030354Y-031260
X030512Y-033307
X030512Y-045276
X031181Y-025590
X031220Y-028346
X031259Y-033897
X031259Y-039488
X031692Y-046141
X035591Y-033465
X035591Y-044094
X035630Y-021260
X035630Y-031102
X036220Y-020079
X036220Y-027717
X036575Y-037598
X036575Y-045276
X037047Y-025590
X037047Y-028346
X037047Y-034055
X037047Y-037007
X037440Y-039567
X037598Y-046141
X041535Y-022717
X041535Y-027323
X041535Y-037953
X041535Y-042205
X042165Y-038150
X042165Y-042205
X042244Y-022717
X042244Y-027047
X042952Y-037204
X043149Y-034055
X043149Y-039567
X043189Y-028228
X043346Y-046259
X043464Y-025590
X047362Y-038386
X047362Y-044055
X047441Y-021260
X047441Y-026850
X048228Y-020079
X048228Y-026654
X048307Y-038583
X048307Y-045276
X048858Y-037204
X049055Y-033858
X049055Y-039567
X049094Y-028267
X049409Y-046220
X049488Y-025590
X053228Y-038780
X053228Y-044094
X053346Y-021260
X053346Y-026378
X054094Y-020079
X054094Y-026299
X054173Y-039055
X054173Y-045276
X054763Y-033858
X054763Y-037204
X054763Y-039567
X054842Y-025590
X054842Y-028149
X055314Y-046220
X059134Y-039291
X059134Y-042283
X059291Y-023110
X059291Y-026102
X059843Y-042323
X059882Y-022677
X059882Y-025945
X059882Y-039528
X060472Y-033858
X060472Y-037204
X060669Y-039960
X060669Y-041929
X061023Y-028189
X061023Y-046259
X061181Y-025590
X065157Y-021260
X065157Y-023858
X065196Y-030708
X065196Y-033858
X065196Y-037204
X065393Y-039960
X065590Y-043228
X065630Y-020079
X065630Y-023465
X066456Y-025393
X066456Y-028504
X069767Y-030303
X070354Y-026299
X071023Y-036378
X071024Y-030980
X071614Y-035708
X071615Y-030318
X072283Y-029724
X072283Y-035354
X072283Y-037519
X072283Y-038385
X072874Y-035433
X072874Y-037086
X072874Y-038818
X073031Y-032638
X073031Y-033504
X073267Y-031496
X073464Y-036653
X073464Y-039252
X073622Y-032205
X073622Y-033937
X074055Y-036220
X074055Y-039685
X074212Y-031764
X074212Y-034370
X074645Y-035787
X074645Y-040118
X074724Y-026299
X074803Y-034804
X074804Y-031338
X074850Y-030649
X075236Y-035354
X075236Y-044015
X075342Y-030149
X075433Y-034252
X075826Y-034921
X076417Y-045275
X076500Y-026500
X076500Y-031000
X076500Y-035000
X076500Y-038500
X076500Y-040000
X078516Y-027126
X080130Y-027677
X080500Y-031000
X080500Y-035500
X080500Y-040000
X081011Y-029900
X081011Y-035900
X081500Y-032000
X081500Y-038500
X082000Y-024000
X082000Y-034000
X082500Y-025500
X082500Y-029500
X082500Y-033500
X082500Y-037500
X082511Y-027400
X083000Y-025000
X083000Y-029000
X083000Y-033000
X083000Y-037000
X083500Y-024500
X083500Y-028500
X083500Y-032500
X083500Y-036500
X083511Y-025900
X084000Y-024000
X084000Y-028000
X084000Y-032000
X084000Y-036000
X084011Y-026400
X084500Y-023500
X084500Y-025500
X084500Y-027000
X084500Y-030500
X084500Y-034500
X084500Y-039000
X084500Y-040000
X086500Y-023000
X087000Y-021000
X087500Y-020500
X087500Y-034000
X088000Y-034500
X088000Y-035500
X088500Y-032500
X088500Y-035000
T2
X068000Y-022000
X069000Y-022000
X070000Y-022000
X071000Y-022000
X071490Y-041080
X072000Y-022000
X072490Y-041080
X073000Y-022000
X073490Y-041080
X074000Y-022000
X074490Y-041080
X075000Y-022000
X075490Y-041080
X076000Y-022000
X076490Y-041080
X077000Y-022000
X077490Y-041080
X078490Y-041080
X078510Y-022000
X079510Y-022000
X080480Y-041080
X080510Y-022000
X081480Y-041080
X081510Y-022000
X082480Y-041080
X082510Y-022000
X083480Y-041080
X083510Y-022000
X084480Y-041080
X084510Y-022000
X085480Y-041080
X085510Y-022000
X085510Y-030400
X085510Y-031400
X085510Y-032400
X086510Y-030400
X086510Y-031400
X086510Y-032400
T3
X085510Y-025400
X085510Y-026400
X085510Y-027400
X085510Y-028400
X085510Y-029400
X086510Y-025400
X086510Y-026400
X086510Y-027400
X086510Y-028400
X086510Y-029400
T0
M30
