M48
INCH,TZ
T1C0.025
T2C0.032
T3C0.120
%
G90
G05
T1
X069290Y-036190
X069330Y-048662
X069960Y-035520
X070569Y-039933
X070625Y-040479
X071115Y-049530
X072200Y-042376
X072228Y-045189
X072350Y-048000
X072745Y-041466
X073350Y-047100
X073600Y-041000
X074400Y-041000
X074600Y-048350
X074750Y-033750
X074800Y-034900
X074835Y-032752
X075600Y-044650
X075811Y-042866
X076300Y-044650
X076756Y-043811
X076866Y-034890
X077000Y-032750
X077000Y-033750
T2
X035000Y-032500
X035000Y-033500
X035000Y-034500
X035000Y-035500
X035000Y-036500
X035000Y-037500
X035000Y-038500
X035000Y-039500
X035000Y-048500
X035000Y-049500
X035000Y-050500
X035000Y-051500
X035000Y-052500
X035000Y-053500
X035000Y-054500
X035000Y-055500
X038000Y-029000
X038000Y-031000
X038000Y-033000
X038000Y-035000
X038000Y-037000
X038000Y-039000
X038000Y-041000
X038000Y-043000
X038000Y-045000
X038000Y-047000
X038000Y-049000
X038000Y-051000
X038000Y-053000
X038000Y-055000
X038000Y-057000
X038000Y-059000
X039000Y-029000
X039000Y-031000
X039000Y-033000
X039000Y-035000
X039000Y-037000
X039000Y-039000
X039000Y-041000
X039000Y-043000
X039000Y-045000
X039000Y-047000
X039000Y-049000
X039000Y-051000
X039000Y-053000
X039000Y-055000
X039000Y-057000
X039000Y-059000
X041000Y-029000
X041000Y-030000
X041000Y-033000
X041000Y-034000
X041000Y-037000
X041000Y-038000
X041000Y-041000
X041000Y-042000
X041000Y-045000
X041000Y-046000
X041000Y-049000
X041000Y-050000
X041000Y-053000
X041000Y-054000
X041000Y-057000
X041000Y-058000
X043000Y-030000
X043000Y-031000
X043000Y-034000
X043000Y-035000
X043000Y-038000
X043000Y-039000
X043000Y-042000
X043000Y-043000
X043000Y-046000
X043000Y-047000
X043000Y-050000
X043000Y-051000
X043000Y-054000
X043000Y-055000
X043000Y-058000
X043000Y-059000
X045000Y-029000
X045000Y-031000
X045000Y-033000
X045000Y-035000
X045000Y-037000
X045000Y-039000
X045000Y-041000
X045000Y-043000
X045000Y-045000
X045000Y-047000
X045000Y-049000
X045000Y-051000
X045000Y-053000
X045000Y-055000
X045000Y-057000
X045000Y-059000
X046000Y-029000
X046000Y-031000
X046000Y-033000
X046000Y-035000
X046000Y-037000
X046000Y-039000
X046000Y-041000
X046000Y-043000
X046000Y-045000
X046000Y-047000
X046000Y-049000
X046000Y-051000
X046000Y-053000
X046000Y-055000
X046000Y-057000
X046000Y-059000
X048000Y-029000
X048000Y-030000
X048000Y-033000
X048000Y-034000
X048000Y-037000
X048000Y-038000
X048000Y-041000
X048000Y-042000
X048000Y-045000
X048000Y-046000
X048000Y-049000
X048000Y-050000
X048000Y-053000
X048000Y-054000
X048000Y-057000
X048000Y-058000
X050000Y-030000
X050000Y-031000
X050000Y-034000
X050000Y-035000
X050000Y-038000
X050000Y-039000
X050000Y-042000
X050000Y-043000
X050000Y-046000
X050000Y-047000
X050000Y-050000
X050000Y-051000
X050000Y-054000
X050000Y-055000
X050000Y-058000
X050000Y-059000
X052000Y-029000
X052000Y-031000
X052000Y-033000
X052000Y-035000
X052000Y-037000
X052000Y-039000
X052000Y-041000
X052000Y-043000
X052000Y-045000
X052000Y-047000
X052000Y-049000
X052000Y-051000
X052000Y-053000
X052000Y-055000
X052000Y-057000
X052000Y-059000
X053000Y-029000
X053000Y-031000
X053000Y-033000
X053000Y-035000
X053000Y-037000
X053000Y-039000
X053000Y-041000
X053000Y-043000
X053000Y-045000
X053000Y-047000
X053000Y-049000
X053000Y-051000
X053000Y-053000
X053000Y-055000
X053000Y-057000
X053000Y-059000
X055000Y-029000
X055000Y-030000
X055000Y-033000
X055000Y-034000
X055000Y-037000
X055000Y-038000
X055000Y-041000
X055000Y-042000
X055000Y-045000
X055000Y-046000
X055000Y-049000
X055000Y-050000
X055000Y-053000
X055000Y-054000
X055000Y-057000
X055000Y-058000
X057000Y-030000
X057000Y-031000
X057000Y-034000
X057000Y-035000
X057000Y-038000
X057000Y-039000
X057000Y-042000
X057000Y-043000
X057000Y-046000
X057000Y-047000
X057000Y-050000
X057000Y-051000
X057000Y-054000
X057000Y-055000
X057000Y-058000
X057000Y-059000
X059000Y-028000
X059000Y-029000
X059000Y-032000
X059000Y-033000
X059000Y-036000
X059000Y-037000
X059000Y-040000
X059000Y-041000
X059000Y-044000
X059000Y-045000
X059000Y-048000
X059000Y-049000
X059000Y-052000
X059000Y-053000
X059000Y-056000
X059000Y-057000
X061000Y-031000
X061000Y-032000
X061000Y-035000
X061000Y-036000
X061000Y-039000
X061000Y-040000
X061000Y-043000
X061000Y-044000
X061000Y-047000
X061000Y-048000
X061000Y-051000
X061000Y-052000
X061000Y-055000
X061000Y-056000
X061000Y-059000
X061000Y-060000
X068087Y-034949
X068106Y-032902
X069000Y-050000
X069000Y-052000
X069087Y-034949
X070000Y-050000
X070000Y-052000
X071000Y-037000
X071000Y-039000
X072000Y-036000
X072000Y-037000
X072000Y-038000
X072000Y-039000
X072000Y-052000
X072000Y-056000
X072106Y-032902
X073000Y-036000
X073000Y-038000
X073000Y-050000
X073000Y-052000
X073000Y-054000
X073000Y-056000
X074000Y-042000
X074000Y-043000
X074000Y-050000
X074000Y-054000
X075000Y-042000
X075000Y-043000
X075594Y-031031
X076594Y-031031
X077594Y-031031
X078500Y-035500
X078500Y-036500
X078500Y-037500
X078500Y-038500
X078500Y-039500
X078500Y-040500
X078500Y-041500
X078500Y-042500
X078500Y-045500
X078500Y-046500
X078500Y-047500
X078500Y-048500
X078500Y-049500
X078500Y-050500
X078500Y-051500
X078500Y-052500
X078594Y-031031
T3
X035500Y-029000
X035500Y-059000
X078000Y-059000
X078063Y-029051
T0
M30
