G04 (created by PCBNEW-RS274X (2012-apr-16-27)-stable) date Sat 21 Dec 2013 03:19:58 PM CET*
G01*
G70*
G90*
%MOIN*%
G04 Gerber Fmt 3.4, Leading zero omitted, Abs format*
%FSLAX34Y34*%
G04 APERTURE LIST*
%ADD10C,0.008000*%
%ADD11R,0.059100X0.059100*%
%ADD12C,0.059100*%
%ADD13R,0.060000X0.060000*%
%ADD14C,0.060000*%
%ADD15C,0.106300*%
%ADD16C,0.145700*%
G04 APERTURE END LIST*
G54D10*
G54D11*
X72250Y-45500D03*
G54D12*
X71250Y-45500D03*
X68250Y-45500D03*
X67250Y-45500D03*
X66250Y-45500D03*
G54D13*
X35000Y-24000D03*
G54D14*
X36000Y-24000D03*
X35000Y-25000D03*
X36000Y-25000D03*
X35000Y-26000D03*
X36000Y-26000D03*
X35000Y-27000D03*
X36000Y-27000D03*
X35000Y-28000D03*
X36000Y-28000D03*
X71490Y-41080D03*
X72490Y-41080D03*
X73490Y-41080D03*
X74490Y-41080D03*
X75490Y-41080D03*
X76490Y-41080D03*
X77490Y-41080D03*
X78490Y-41080D03*
X80480Y-41080D03*
X81480Y-41080D03*
X82480Y-41080D03*
X83480Y-41080D03*
X84480Y-41080D03*
X85480Y-41080D03*
X85510Y-30400D03*
X85510Y-31400D03*
X85510Y-32400D03*
X86510Y-32400D03*
X86510Y-31400D03*
X86510Y-30400D03*
X85510Y-22000D03*
X84510Y-22000D03*
X83510Y-22000D03*
X82510Y-22000D03*
X81510Y-22000D03*
X80510Y-22000D03*
X79510Y-22000D03*
X78510Y-22000D03*
X77000Y-22000D03*
X76000Y-22000D03*
X75000Y-22000D03*
X74000Y-22000D03*
X73000Y-22000D03*
X72000Y-22000D03*
X71000Y-22000D03*
X70000Y-22000D03*
X69000Y-22000D03*
X68000Y-22000D03*
G54D13*
X16000Y-23000D03*
G54D14*
X17000Y-23000D03*
X16000Y-28000D03*
X17000Y-24000D03*
X16000Y-29000D03*
X17000Y-25000D03*
X16000Y-30000D03*
X17000Y-26000D03*
X16000Y-31000D03*
X17000Y-27000D03*
X16000Y-32000D03*
X17000Y-28000D03*
X16000Y-33000D03*
X17000Y-29000D03*
X16000Y-34000D03*
X17000Y-30000D03*
X16000Y-35000D03*
X17000Y-31000D03*
X16000Y-36000D03*
X17000Y-32000D03*
X16000Y-37000D03*
X17000Y-33000D03*
X16000Y-38000D03*
X17000Y-34000D03*
X17000Y-35000D03*
X16000Y-39000D03*
X17000Y-36000D03*
X17000Y-38000D03*
X17000Y-39000D03*
X17000Y-40000D03*
X17000Y-41000D03*
X16000Y-40000D03*
X16000Y-41000D03*
X16000Y-24000D03*
X16000Y-25000D03*
X16000Y-26000D03*
X16000Y-27000D03*
X16000Y-42000D03*
X17000Y-42000D03*
X17000Y-37000D03*
G54D13*
X91000Y-42000D03*
G54D14*
X91000Y-41000D03*
X91000Y-40000D03*
X91000Y-39000D03*
G54D13*
X91000Y-32000D03*
G54D14*
X91000Y-33000D03*
X91000Y-34000D03*
X91000Y-35000D03*
X91000Y-36000D03*
X91000Y-37000D03*
G54D11*
X54250Y-45500D03*
G54D12*
X53250Y-45500D03*
X50250Y-45500D03*
X49250Y-45500D03*
X48250Y-45500D03*
G54D13*
X78000Y-44000D03*
G54D14*
X78000Y-43000D03*
G54D13*
X38000Y-43000D03*
G54D14*
X38000Y-42000D03*
X39000Y-43000D03*
X39000Y-42000D03*
X89150Y-27000D03*
X89150Y-28000D03*
X89937Y-28000D03*
X89937Y-27000D03*
G54D15*
X91000Y-25138D03*
X91000Y-29862D03*
G54D13*
X30000Y-32000D03*
G54D14*
X31000Y-32000D03*
X30000Y-33000D03*
X31000Y-33000D03*
X30000Y-34000D03*
X31000Y-34000D03*
X30000Y-35000D03*
X31000Y-35000D03*
X30000Y-36000D03*
X31000Y-36000D03*
X30000Y-37000D03*
X31000Y-37000D03*
X30000Y-38000D03*
X31000Y-38000D03*
X30000Y-39000D03*
X31000Y-39000D03*
G54D13*
X30000Y-24000D03*
G54D14*
X31000Y-24000D03*
X30000Y-25000D03*
X31000Y-25000D03*
X30000Y-26000D03*
X31000Y-26000D03*
X30000Y-27000D03*
X31000Y-27000D03*
X30000Y-28000D03*
X31000Y-28000D03*
X30000Y-29000D03*
X31000Y-29000D03*
X30000Y-30000D03*
X31000Y-30000D03*
X30000Y-31000D03*
X31000Y-31000D03*
G54D13*
X85510Y-25400D03*
G54D14*
X86510Y-25400D03*
X85510Y-26400D03*
X86510Y-26400D03*
X85510Y-27400D03*
X86510Y-27400D03*
X85510Y-28400D03*
X86510Y-28400D03*
X85510Y-29400D03*
X86510Y-29400D03*
G54D16*
X18701Y-20669D03*
X18701Y-44291D03*
X89567Y-20669D03*
X89567Y-44291D03*
X60039Y-44291D03*
X60039Y-20669D03*
X42323Y-44291D03*
X42323Y-20669D03*
M02*
