M48
;DRILL file {Pcbnew (2012-apr-16-27)-stable} date Tue 23 Jul 2013 11:20:30 PM UTC
;FORMAT={-:-/ absolute / inch / decimal}
FMAT,2
INCH,TZ
T1C0.020
T2C0.025
T3C0.032
T4C0.039
T5C0.040
T6C0.091
%
G90
G05
M72
T1
X2.198Y4.432
X2.198Y4.468
X2.221Y4.450
X2.245Y4.432
X2.245Y4.468
X2.726Y4.432
X2.726Y4.468
X2.750Y4.450
X2.774Y4.432
X2.774Y4.468
T2
X2.325Y2.400
X2.325Y2.500
X2.325Y2.600
X2.325Y2.700
X2.325Y2.800
X2.325Y2.900
X2.325Y3.000
X2.325Y3.100
X2.325Y3.200
X2.325Y3.300
X2.325Y3.400
X2.325Y3.500
X2.325Y3.600
X2.325Y3.700
X2.325Y3.800
X2.325Y3.900
X2.325Y4.000
X2.375Y4.175
X2.415Y4.120
X2.460Y4.175
X2.540Y2.100
X2.540Y2.200
X2.800Y2.100
X2.850Y2.400
X2.850Y2.500
X2.850Y2.600
X2.850Y2.700
X2.850Y2.800
X2.850Y2.900
X2.850Y3.000
X2.850Y3.100
X2.850Y3.200
X2.850Y3.300
X2.850Y3.400
X2.850Y3.500
X2.850Y3.600
X2.850Y3.700
X2.850Y3.800
X2.850Y3.900
X2.855Y4.000
X2.900Y4.175
X2.950Y4.120
X3.000Y4.175
X3.205Y4.425
X3.440Y2.355
X3.467Y3.884
X3.500Y2.100
X3.500Y2.200
X3.650Y3.680
X3.655Y2.920
X3.658Y3.748
X3.660Y3.400
X3.697Y2.671
X3.700Y2.750
X3.710Y3.405
X3.740Y3.795
X3.750Y2.100
X3.750Y2.630
X3.750Y3.675
X3.755Y3.888
X3.850Y2.630
X3.850Y3.675
X3.870Y2.385
X3.879Y2.772
X3.905Y3.888
X3.925Y3.494
X3.950Y3.675
X4.050Y3.888
X4.055Y2.354
X4.065Y3.425
X4.170Y2.630
X4.175Y2.355
X4.180Y2.810
X4.215Y3.340
X4.245Y2.625
X4.265Y2.770
X4.265Y2.855
X4.267Y2.699
X4.280Y3.280
X4.345Y3.285
X4.375Y3.215
X4.460Y3.120
X4.480Y2.910
X4.480Y3.010
X4.550Y3.815
X4.560Y2.960
X4.575Y3.090
X4.660Y2.670
X4.670Y2.500
X4.725Y3.815
X4.800Y2.600
X4.875Y2.300
X4.875Y2.550
X4.925Y2.800
X4.930Y3.675
X4.930Y3.775
X4.975Y3.300
X5.000Y2.775
X5.125Y2.400
X5.125Y2.550
X5.125Y2.950
X5.125Y3.325
X5.140Y3.800
X5.150Y2.250
X5.150Y2.850
X5.155Y3.605
X5.200Y3.525
X5.200Y3.950
X5.225Y2.900
X5.680Y2.950
X5.690Y2.600
X5.690Y3.340
X5.695Y2.300
X5.700Y3.550
X5.700Y3.850
X5.710Y3.150
X5.740Y3.010
X5.770Y2.930
X5.825Y4.675
X5.900Y3.800
X5.905Y3.530
X5.910Y3.100
X5.940Y2.880
X5.950Y3.625
X5.975Y2.725
X6.000Y3.380
X6.100Y2.325
X6.145Y3.285
X6.200Y3.925
X6.200Y4.675
X6.225Y3.350
X6.250Y3.600
X6.275Y2.350
X6.275Y2.600
X6.310Y3.415
X6.320Y3.200
X6.333Y3.473
X6.380Y2.645
X6.385Y2.800
X6.390Y2.870
X6.405Y2.995
X6.410Y3.100
X6.440Y2.675
X6.450Y2.150
X6.525Y3.225
X6.580Y3.285
X6.600Y2.500
X6.600Y3.570
X6.650Y2.450
X6.650Y3.250
X6.650Y3.395
X6.655Y3.315
X6.670Y3.560
X6.675Y3.660
X6.685Y2.725
X6.685Y2.835
X6.685Y3.015
X6.700Y2.400
X6.750Y2.550
X6.795Y2.650
X6.850Y2.935
X6.865Y2.600
X6.870Y2.525
X6.875Y2.790
X6.880Y3.525
X6.890Y3.615
X6.895Y3.720
X6.910Y3.940
X6.938Y2.300
X6.975Y2.525
X6.980Y4.085
X7.030Y4.050
X7.040Y3.530
X7.050Y2.585
X7.070Y2.730
X7.075Y2.340
X7.118Y2.568
X7.140Y2.490
X7.143Y2.403
X7.145Y3.805
X7.150Y2.760
X7.170Y3.440
X7.175Y2.335
X7.203Y2.568
X7.205Y2.505
X7.220Y2.795
X7.235Y2.940
X7.235Y3.475
X7.250Y2.355
X7.283Y2.580
X7.285Y3.975
X7.300Y2.288
X7.300Y2.510
X7.300Y2.930
X7.300Y3.205
X7.300Y3.505
X7.308Y3.805
X7.315Y2.780
X7.335Y3.285
X7.350Y2.355
X7.365Y3.530
X7.400Y2.995
X7.400Y3.250
X7.405Y3.940
X7.420Y2.505
X7.425Y2.350
X7.425Y2.580
X7.435Y3.555
X7.460Y2.925
X7.460Y3.320
X7.465Y2.405
X7.475Y3.620
X7.495Y3.000
X7.520Y3.975
X7.540Y2.935
X7.545Y2.695
X7.545Y3.870
X7.565Y3.010
X7.575Y2.355
X7.580Y2.555
X7.580Y4.295
X7.595Y2.745
X7.615Y2.950
X7.635Y3.010
X7.650Y2.515
X7.655Y3.885
X7.684Y2.948
X7.690Y2.405
X7.690Y4.256
X7.701Y3.011
X7.720Y2.665
X7.735Y4.228
X7.740Y2.585
X7.745Y2.345
X7.750Y2.950
X7.770Y3.010
X7.780Y4.535
X7.825Y2.495
X7.825Y2.620
X7.870Y2.330
X7.895Y3.215
X7.900Y3.500
X7.913Y3.610
X7.915Y3.145
X7.937Y2.415
X7.940Y2.335
X7.945Y2.583
X7.945Y3.713
X7.965Y3.255
X7.965Y3.495
X7.975Y2.995
X8.033Y2.337
X8.045Y3.185
X8.070Y2.460
X8.085Y4.600
X8.095Y2.390
X8.100Y2.540
X8.110Y2.990
X8.110Y3.425
X8.110Y3.500
X8.110Y3.670
X8.120Y3.315
X8.130Y2.890
X8.130Y3.230
X8.135Y3.610
X8.150Y2.330
X8.150Y3.070
X8.175Y3.390
X8.180Y2.985
X8.210Y3.460
X8.215Y2.342
X8.215Y2.670
X8.215Y3.070
X8.240Y3.380
X8.250Y3.585
X8.305Y2.715
X8.322Y2.337
X8.325Y3.125
X8.325Y3.225
X8.325Y3.275
X8.325Y3.330
X8.355Y2.670
X8.400Y2.760
X8.405Y3.385
X8.420Y2.690
X8.425Y4.575
X8.475Y3.350
X8.505Y3.590
X8.540Y3.320
X8.580Y3.470
X8.610Y2.355
X8.725Y4.250
X8.810Y3.970
X8.819Y3.740
X8.950Y3.600
X8.950Y3.975
T3
X1.600Y2.300
X8.915Y2.700
X8.915Y2.800
X8.994Y2.700
X8.994Y2.800
T4
X4.825Y4.550
X4.925Y4.550
X5.025Y4.550
X5.325Y4.550
X5.425Y4.550
X6.625Y4.550
X6.725Y4.550
X6.800Y2.200
X6.825Y4.550
X6.900Y2.200
X7.000Y2.200
X7.100Y2.200
X7.125Y4.550
X7.149Y4.108
X7.200Y2.200
X7.225Y4.550
X7.249Y4.108
X7.300Y2.200
X7.349Y4.108
X7.400Y2.200
X7.449Y4.108
X7.500Y2.200
X7.549Y4.108
X7.600Y2.200
X7.649Y4.108
X7.700Y2.200
X7.749Y4.108
X7.849Y4.108
X7.851Y2.200
X7.951Y2.200
X8.048Y4.108
X8.051Y2.200
X8.148Y4.108
X8.151Y2.200
X8.248Y4.108
X8.251Y2.200
X8.348Y4.108
X8.351Y2.200
X8.448Y4.108
X8.451Y2.200
X8.548Y4.108
X8.551Y2.200
X8.551Y3.040
X8.551Y3.140
X8.551Y3.240
X8.651Y3.040
X8.651Y3.140
X8.651Y3.240
T5
X1.600Y2.400
X1.600Y2.500
X1.600Y2.600
X1.600Y2.700
X1.600Y2.800
X1.600Y2.900
X1.600Y3.000
X1.600Y3.100
X1.600Y3.200
X1.600Y3.300
X1.600Y3.400
X1.600Y3.500
X1.600Y3.600
X1.600Y3.700
X1.600Y3.800
X1.600Y3.900
X1.600Y4.000
X1.600Y4.100
X1.600Y4.200
X1.700Y2.300
X1.700Y2.400
X1.700Y2.500
X1.700Y2.600
X1.700Y2.700
X1.700Y2.800
X1.700Y2.900
X1.700Y3.000
X1.700Y3.100
X1.700Y3.200
X1.700Y3.300
X1.700Y3.400
X1.700Y3.500
X1.700Y3.600
X1.700Y3.700
X1.700Y3.800
X1.700Y3.900
X1.700Y4.000
X1.700Y4.100
X1.700Y4.200
X3.000Y2.400
X3.000Y2.500
X3.000Y2.600
X3.000Y2.700
X3.000Y2.800
X3.000Y2.900
X3.000Y3.000
X3.000Y3.100
X3.000Y3.200
X3.000Y3.300
X3.000Y3.400
X3.000Y3.500
X3.000Y3.600
X3.000Y3.700
X3.000Y3.800
X3.000Y3.900
X3.100Y2.400
X3.100Y2.500
X3.100Y2.600
X3.100Y2.700
X3.100Y2.800
X3.100Y2.900
X3.100Y3.000
X3.100Y3.100
X3.100Y3.200
X3.100Y3.300
X3.100Y3.400
X3.100Y3.500
X3.100Y3.600
X3.100Y3.700
X3.100Y3.800
X3.100Y3.900
X3.500Y2.400
X3.500Y2.500
X3.500Y2.600
X3.500Y2.700
X3.500Y2.800
X3.600Y2.400
X3.600Y2.500
X3.600Y2.600
X3.600Y2.700
X3.600Y2.800
X3.800Y4.200
X3.800Y4.300
X3.900Y4.200
X3.900Y4.300
X7.800Y4.300
X7.800Y4.400
X8.551Y2.540
X8.551Y2.640
X8.551Y2.740
X8.551Y2.840
X8.551Y2.940
X8.651Y2.540
X8.651Y2.640
X8.651Y2.740
X8.651Y2.840
X8.651Y2.940
X9.100Y3.200
X9.100Y3.300
X9.100Y3.400
X9.100Y3.500
X9.100Y3.600
X9.100Y3.700
X9.100Y3.900
X9.100Y4.000
X9.100Y4.100
X9.100Y4.200
T6
X9.100Y2.514
X9.100Y2.986
T0
M30
