G04 (created by PCBNEW-RS274X (2012-apr-16-27)-stable) date Sat 21 Dec 2013 03:19:58 PM CET*
G01*
G70*
G90*
%MOIN*%
G04 Gerber Fmt 3.4, Leading zero omitted, Abs format*
%FSLAX34Y34*%
G04 APERTURE LIST*
%ADD10C,0.008000*%
%ADD11C,0.012000*%
%ADD12C,0.020000*%
%ADD13C,0.025000*%
%ADD14C,0.030000*%
%ADD15C,0.000100*%
%ADD16R,0.059100X0.059100*%
%ADD17C,0.059100*%
%ADD18R,0.060000X0.060000*%
%ADD19C,0.060000*%
%ADD20C,0.106300*%
%ADD21C,0.145700*%
G04 APERTURE END LIST*
G54D10*
G54D11*
X54685Y-29795D02*
X54399Y-29795D01*
X54742Y-30024D02*
X54542Y-29224D01*
X54342Y-30024D01*
X53885Y-29986D02*
X53942Y-30024D01*
X54056Y-30024D01*
X54114Y-29986D01*
X54142Y-29948D01*
X54171Y-29871D01*
X54171Y-29643D01*
X54142Y-29567D01*
X54114Y-29529D01*
X54056Y-29490D01*
X53942Y-29490D01*
X53885Y-29529D01*
X53400Y-29986D02*
X53457Y-30024D01*
X53571Y-30024D01*
X53628Y-29986D01*
X53657Y-29910D01*
X53657Y-29605D01*
X53628Y-29529D01*
X53571Y-29490D01*
X53457Y-29490D01*
X53400Y-29529D01*
X53371Y-29605D01*
X53371Y-29681D01*
X53657Y-29757D01*
X52657Y-30024D02*
X52657Y-29224D01*
X52457Y-29795D01*
X52257Y-29224D01*
X52257Y-30024D01*
X51743Y-29986D02*
X51800Y-30024D01*
X51914Y-30024D01*
X51971Y-29986D01*
X52000Y-29910D01*
X52000Y-29605D01*
X51971Y-29529D01*
X51914Y-29490D01*
X51800Y-29490D01*
X51743Y-29529D01*
X51714Y-29605D01*
X51714Y-29681D01*
X52000Y-29757D01*
X51200Y-30024D02*
X51200Y-29224D01*
X51200Y-29986D02*
X51257Y-30024D01*
X51371Y-30024D01*
X51429Y-29986D01*
X51457Y-29948D01*
X51486Y-29871D01*
X51486Y-29643D01*
X51457Y-29567D01*
X51429Y-29529D01*
X51371Y-29490D01*
X51257Y-29490D01*
X51200Y-29529D01*
X50828Y-30024D02*
X50886Y-29986D01*
X50914Y-29910D01*
X50914Y-29224D01*
X50514Y-30024D02*
X50572Y-29986D01*
X50600Y-29948D01*
X50629Y-29871D01*
X50629Y-29643D01*
X50600Y-29567D01*
X50572Y-29529D01*
X50514Y-29490D01*
X50429Y-29490D01*
X50372Y-29529D01*
X50343Y-29567D01*
X50314Y-29643D01*
X50314Y-29871D01*
X50343Y-29948D01*
X50372Y-29986D01*
X50429Y-30024D01*
X50514Y-30024D01*
X49800Y-29986D02*
X49857Y-30024D01*
X49971Y-30024D01*
X50029Y-29986D01*
X50057Y-29948D01*
X50086Y-29871D01*
X50086Y-29643D01*
X50057Y-29567D01*
X50029Y-29529D01*
X49971Y-29490D01*
X49857Y-29490D01*
X49800Y-29529D01*
X49543Y-30024D02*
X49543Y-29224D01*
X49486Y-29719D02*
X49315Y-30024D01*
X49315Y-29490D02*
X49543Y-29795D01*
X54642Y-30845D02*
X54442Y-30845D01*
X54356Y-31264D02*
X54642Y-31264D01*
X54642Y-30464D01*
X54356Y-30464D01*
X54099Y-31264D02*
X54099Y-30730D01*
X54099Y-30883D02*
X54071Y-30807D01*
X54042Y-30769D01*
X53985Y-30730D01*
X53928Y-30730D01*
X53728Y-31264D02*
X53728Y-30730D01*
X53728Y-30464D02*
X53757Y-30502D01*
X53728Y-30540D01*
X53700Y-30502D01*
X53728Y-30464D01*
X53728Y-30540D01*
X53185Y-31226D02*
X53242Y-31264D01*
X53356Y-31264D01*
X53414Y-31226D01*
X53442Y-31188D01*
X53471Y-31111D01*
X53471Y-30883D01*
X53442Y-30807D01*
X53414Y-30769D01*
X53356Y-30730D01*
X53242Y-30730D01*
X53185Y-30769D01*
X52471Y-31264D02*
X52471Y-30464D01*
X52471Y-30845D02*
X52128Y-30845D01*
X52128Y-31264D02*
X52128Y-30464D01*
X51614Y-31226D02*
X51671Y-31264D01*
X51785Y-31264D01*
X51842Y-31226D01*
X51871Y-31150D01*
X51871Y-30845D01*
X51842Y-30769D01*
X51785Y-30730D01*
X51671Y-30730D01*
X51614Y-30769D01*
X51585Y-30845D01*
X51585Y-30921D01*
X51871Y-30997D01*
X51328Y-31264D02*
X51328Y-30730D01*
X51328Y-30883D02*
X51300Y-30807D01*
X51271Y-30769D01*
X51214Y-30730D01*
X51157Y-30730D01*
X50957Y-31264D02*
X50957Y-30730D01*
X50957Y-30807D02*
X50929Y-30769D01*
X50871Y-30730D01*
X50786Y-30730D01*
X50729Y-30769D01*
X50700Y-30845D01*
X50700Y-31264D01*
X50700Y-30845D02*
X50671Y-30769D01*
X50614Y-30730D01*
X50529Y-30730D01*
X50471Y-30769D01*
X50443Y-30845D01*
X50443Y-31264D01*
X49900Y-31264D02*
X49900Y-30845D01*
X49929Y-30769D01*
X49986Y-30730D01*
X50100Y-30730D01*
X50157Y-30769D01*
X49900Y-31226D02*
X49957Y-31264D01*
X50100Y-31264D01*
X50157Y-31226D01*
X50186Y-31150D01*
X50186Y-31073D01*
X50157Y-30997D01*
X50100Y-30959D01*
X49957Y-30959D01*
X49900Y-30921D01*
X49614Y-30730D02*
X49614Y-31264D01*
X49614Y-30807D02*
X49586Y-30769D01*
X49528Y-30730D01*
X49443Y-30730D01*
X49386Y-30769D01*
X49357Y-30845D01*
X49357Y-31264D01*
X55157Y-32504D02*
X55157Y-31704D01*
X54814Y-32504D02*
X55071Y-32047D01*
X54814Y-31704D02*
X55157Y-32161D01*
X54329Y-32466D02*
X54386Y-32504D01*
X54500Y-32504D01*
X54557Y-32466D01*
X54586Y-32390D01*
X54586Y-32085D01*
X54557Y-32009D01*
X54500Y-31970D01*
X54386Y-31970D01*
X54329Y-32009D01*
X54300Y-32085D01*
X54300Y-32161D01*
X54586Y-32237D01*
X54043Y-31970D02*
X54043Y-32504D01*
X54043Y-32047D02*
X54015Y-32009D01*
X53957Y-31970D01*
X53872Y-31970D01*
X53815Y-32009D01*
X53786Y-32085D01*
X53786Y-32504D01*
X53243Y-32504D02*
X53243Y-31704D01*
X53243Y-32466D02*
X53300Y-32504D01*
X53414Y-32504D01*
X53472Y-32466D01*
X53500Y-32428D01*
X53529Y-32351D01*
X53529Y-32123D01*
X53500Y-32047D01*
X53472Y-32009D01*
X53414Y-31970D01*
X53300Y-31970D01*
X53243Y-32009D01*
X52957Y-32504D02*
X52957Y-31970D01*
X52957Y-32123D02*
X52929Y-32047D01*
X52900Y-32009D01*
X52843Y-31970D01*
X52786Y-31970D01*
X52586Y-32504D02*
X52586Y-31970D01*
X52586Y-31704D02*
X52615Y-31742D01*
X52586Y-31780D01*
X52558Y-31742D01*
X52586Y-31704D01*
X52586Y-31780D01*
X52043Y-32466D02*
X52100Y-32504D01*
X52214Y-32504D01*
X52272Y-32466D01*
X52300Y-32428D01*
X52329Y-32351D01*
X52329Y-32123D01*
X52300Y-32047D01*
X52272Y-32009D01*
X52214Y-31970D01*
X52100Y-31970D01*
X52043Y-32009D01*
X51786Y-32504D02*
X51786Y-31704D01*
X51729Y-32199D02*
X51558Y-32504D01*
X51558Y-31970D02*
X51786Y-32275D01*
X50872Y-32466D02*
X50786Y-32504D01*
X50643Y-32504D01*
X50586Y-32466D01*
X50557Y-32428D01*
X50529Y-32351D01*
X50529Y-32275D01*
X50557Y-32199D01*
X50586Y-32161D01*
X50643Y-32123D01*
X50757Y-32085D01*
X50815Y-32047D01*
X50843Y-32009D01*
X50872Y-31932D01*
X50872Y-31856D01*
X50843Y-31780D01*
X50815Y-31742D01*
X50757Y-31704D01*
X50615Y-31704D01*
X50529Y-31742D01*
X50272Y-32504D02*
X50272Y-31704D01*
X50015Y-32504D02*
X50015Y-32085D01*
X50044Y-32009D01*
X50101Y-31970D01*
X50186Y-31970D01*
X50244Y-32009D01*
X50272Y-32047D01*
X49472Y-32504D02*
X49472Y-32085D01*
X49501Y-32009D01*
X49558Y-31970D01*
X49672Y-31970D01*
X49729Y-32009D01*
X49472Y-32466D02*
X49529Y-32504D01*
X49672Y-32504D01*
X49729Y-32466D01*
X49758Y-32390D01*
X49758Y-32313D01*
X49729Y-32237D01*
X49672Y-32199D01*
X49529Y-32199D01*
X49472Y-32161D01*
X49243Y-31970D02*
X49129Y-32504D01*
X49015Y-32123D01*
X48900Y-32504D01*
X48786Y-31970D01*
G54D12*
X58685Y-24171D02*
X58780Y-24248D01*
X58971Y-24248D01*
X59066Y-24171D01*
X59114Y-24019D01*
X59114Y-23410D01*
X59066Y-23257D01*
X58971Y-23181D01*
X58780Y-23181D01*
X58685Y-23257D01*
X58637Y-23410D01*
X58637Y-23562D01*
X59114Y-23714D01*
X57828Y-24171D02*
X57923Y-24248D01*
X58114Y-24248D01*
X58209Y-24171D01*
X58257Y-24019D01*
X58257Y-23410D01*
X58209Y-23257D01*
X58114Y-23181D01*
X57923Y-23181D01*
X57828Y-23257D01*
X57780Y-23410D01*
X57780Y-23562D01*
X58257Y-23714D01*
X56923Y-23181D02*
X56923Y-24476D01*
X56971Y-24629D01*
X57019Y-24705D01*
X57114Y-24781D01*
X57257Y-24781D01*
X57352Y-24705D01*
X56923Y-24171D02*
X57019Y-24248D01*
X57209Y-24248D01*
X57304Y-24171D01*
X57352Y-24095D01*
X57400Y-23943D01*
X57400Y-23486D01*
X57352Y-23333D01*
X57304Y-23257D01*
X57209Y-23181D01*
X57019Y-23181D01*
X56923Y-23257D01*
X56447Y-23638D02*
X55685Y-23638D01*
X55209Y-24248D02*
X55209Y-23181D01*
X55209Y-23333D02*
X55161Y-23257D01*
X55066Y-23181D01*
X54923Y-23181D01*
X54828Y-23257D01*
X54780Y-23410D01*
X54780Y-24248D01*
X54780Y-23410D02*
X54733Y-23257D01*
X54637Y-23181D01*
X54495Y-23181D01*
X54399Y-23257D01*
X54352Y-23410D01*
X54352Y-24248D01*
X53733Y-24248D02*
X53828Y-24171D01*
X53876Y-24095D01*
X53924Y-23943D01*
X53924Y-23486D01*
X53876Y-23333D01*
X53828Y-23257D01*
X53733Y-23181D01*
X53590Y-23181D01*
X53495Y-23257D01*
X53447Y-23333D01*
X53400Y-23486D01*
X53400Y-23943D01*
X53447Y-24095D01*
X53495Y-24171D01*
X53590Y-24248D01*
X53733Y-24248D01*
X52542Y-23181D02*
X52542Y-24248D01*
X52971Y-23181D02*
X52971Y-24019D01*
X52923Y-24171D01*
X52828Y-24248D01*
X52685Y-24248D01*
X52590Y-24171D01*
X52542Y-24095D01*
X52114Y-24171D02*
X52018Y-24248D01*
X51828Y-24248D01*
X51733Y-24171D01*
X51685Y-24019D01*
X51685Y-23943D01*
X51733Y-23790D01*
X51828Y-23714D01*
X51971Y-23714D01*
X52066Y-23638D01*
X52114Y-23486D01*
X52114Y-23410D01*
X52066Y-23257D01*
X51971Y-23181D01*
X51828Y-23181D01*
X51733Y-23257D01*
X50875Y-24171D02*
X50970Y-24248D01*
X51161Y-24248D01*
X51256Y-24171D01*
X51304Y-24019D01*
X51304Y-23410D01*
X51256Y-23257D01*
X51161Y-23181D01*
X50970Y-23181D01*
X50875Y-23257D01*
X50827Y-23410D01*
X50827Y-23562D01*
X51304Y-23714D01*
X49637Y-24248D02*
X49637Y-23181D01*
X49637Y-23486D02*
X49589Y-23333D01*
X49542Y-23257D01*
X49446Y-23181D01*
X49351Y-23181D01*
X48637Y-24171D02*
X48732Y-24248D01*
X48923Y-24248D01*
X49018Y-24171D01*
X49066Y-24019D01*
X49066Y-23410D01*
X49018Y-23257D01*
X48923Y-23181D01*
X48732Y-23181D01*
X48637Y-23257D01*
X48589Y-23410D01*
X48589Y-23562D01*
X49066Y-23714D01*
X48256Y-23181D02*
X48018Y-24248D01*
X47780Y-23181D01*
X46113Y-24248D02*
X46685Y-24248D01*
X46399Y-24248D02*
X46399Y-22648D01*
X46494Y-22876D01*
X46589Y-23029D01*
X46685Y-23105D01*
X45685Y-24095D02*
X45637Y-24171D01*
X45685Y-24248D01*
X45733Y-24171D01*
X45685Y-24095D01*
X45685Y-24248D01*
X45257Y-22800D02*
X45209Y-22724D01*
X45114Y-22648D01*
X44876Y-22648D01*
X44780Y-22724D01*
X44733Y-22800D01*
X44685Y-22952D01*
X44685Y-23105D01*
X44733Y-23333D01*
X45304Y-24248D01*
X44685Y-24248D01*
G54D13*
X67388Y-40848D02*
X67388Y-39248D01*
X66874Y-40848D02*
X66874Y-40010D01*
X66931Y-39857D01*
X67045Y-39781D01*
X67217Y-39781D01*
X67331Y-39857D01*
X67388Y-39933D01*
X66474Y-39781D02*
X66017Y-39781D01*
X66302Y-39248D02*
X66302Y-40619D01*
X66245Y-40771D01*
X66131Y-40848D01*
X66017Y-40848D01*
X65788Y-39781D02*
X65331Y-39781D01*
X65616Y-39248D02*
X65616Y-40619D01*
X65559Y-40771D01*
X65445Y-40848D01*
X65331Y-40848D01*
X64930Y-39781D02*
X64930Y-41381D01*
X64930Y-39857D02*
X64816Y-39781D01*
X64587Y-39781D01*
X64473Y-39857D01*
X64416Y-39933D01*
X64359Y-40086D01*
X64359Y-40543D01*
X64416Y-40695D01*
X64473Y-40771D01*
X64587Y-40848D01*
X64816Y-40848D01*
X64930Y-40771D01*
X63901Y-40771D02*
X63787Y-40848D01*
X63559Y-40848D01*
X63444Y-40771D01*
X63387Y-40619D01*
X63387Y-40543D01*
X63444Y-40390D01*
X63559Y-40314D01*
X63730Y-40314D01*
X63844Y-40238D01*
X63901Y-40086D01*
X63901Y-40010D01*
X63844Y-39857D01*
X63730Y-39781D01*
X63559Y-39781D01*
X63444Y-39857D01*
X62873Y-40695D02*
X62816Y-40771D01*
X62873Y-40848D01*
X62930Y-40771D01*
X62873Y-40695D01*
X62873Y-40848D01*
X62873Y-39857D02*
X62816Y-39933D01*
X62873Y-40010D01*
X62930Y-39933D01*
X62873Y-39857D01*
X62873Y-40010D01*
X61445Y-39171D02*
X62474Y-41229D01*
X60188Y-39171D02*
X61217Y-41229D01*
X59274Y-39781D02*
X59274Y-41076D01*
X59331Y-41229D01*
X59388Y-41305D01*
X59503Y-41381D01*
X59674Y-41381D01*
X59788Y-41305D01*
X59274Y-40771D02*
X59388Y-40848D01*
X59617Y-40848D01*
X59731Y-40771D01*
X59788Y-40695D01*
X59845Y-40543D01*
X59845Y-40086D01*
X59788Y-39933D01*
X59731Y-39857D01*
X59617Y-39781D01*
X59388Y-39781D01*
X59274Y-39857D01*
X58702Y-40848D02*
X58702Y-39781D01*
X58702Y-39248D02*
X58759Y-39324D01*
X58702Y-39400D01*
X58645Y-39324D01*
X58702Y-39248D01*
X58702Y-39400D01*
X58303Y-39781D02*
X57846Y-39781D01*
X58131Y-39248D02*
X58131Y-40619D01*
X58074Y-40771D01*
X57960Y-40848D01*
X57846Y-40848D01*
X57445Y-40848D02*
X57445Y-39248D01*
X56931Y-40848D02*
X56931Y-40010D01*
X56988Y-39857D01*
X57102Y-39781D01*
X57274Y-39781D01*
X57388Y-39857D01*
X57445Y-39933D01*
X55845Y-39781D02*
X55845Y-40848D01*
X56359Y-39781D02*
X56359Y-40619D01*
X56302Y-40771D01*
X56188Y-40848D01*
X56016Y-40848D01*
X55902Y-40771D01*
X55845Y-40695D01*
X55273Y-40848D02*
X55273Y-39248D01*
X55273Y-39857D02*
X55159Y-39781D01*
X54930Y-39781D01*
X54816Y-39857D01*
X54759Y-39933D01*
X54702Y-40086D01*
X54702Y-40543D01*
X54759Y-40695D01*
X54816Y-40771D01*
X54930Y-40848D01*
X55159Y-40848D01*
X55273Y-40771D01*
X54187Y-40695D02*
X54130Y-40771D01*
X54187Y-40848D01*
X54244Y-40771D01*
X54187Y-40695D01*
X54187Y-40848D01*
X53102Y-40771D02*
X53216Y-40848D01*
X53445Y-40848D01*
X53559Y-40771D01*
X53616Y-40695D01*
X53673Y-40543D01*
X53673Y-40086D01*
X53616Y-39933D01*
X53559Y-39857D01*
X53445Y-39781D01*
X53216Y-39781D01*
X53102Y-39857D01*
X52416Y-40848D02*
X52530Y-40771D01*
X52587Y-40695D01*
X52644Y-40543D01*
X52644Y-40086D01*
X52587Y-39933D01*
X52530Y-39857D01*
X52416Y-39781D01*
X52244Y-39781D01*
X52130Y-39857D01*
X52073Y-39933D01*
X52016Y-40086D01*
X52016Y-40543D01*
X52073Y-40695D01*
X52130Y-40771D01*
X52244Y-40848D01*
X52416Y-40848D01*
X51501Y-40848D02*
X51501Y-39781D01*
X51501Y-39933D02*
X51444Y-39857D01*
X51330Y-39781D01*
X51158Y-39781D01*
X51044Y-39857D01*
X50987Y-40010D01*
X50987Y-40848D01*
X50987Y-40010D02*
X50930Y-39857D01*
X50816Y-39781D01*
X50644Y-39781D01*
X50530Y-39857D01*
X50473Y-40010D01*
X50473Y-40848D01*
X49044Y-39171D02*
X50073Y-41229D01*
X48416Y-39248D02*
X48187Y-39248D01*
X48073Y-39324D01*
X47959Y-39476D01*
X47901Y-39781D01*
X47901Y-40314D01*
X47959Y-40619D01*
X48073Y-40771D01*
X48187Y-40848D01*
X48416Y-40848D01*
X48530Y-40771D01*
X48644Y-40619D01*
X48701Y-40314D01*
X48701Y-39781D01*
X48644Y-39476D01*
X48530Y-39324D01*
X48416Y-39248D01*
X47387Y-39781D02*
X47387Y-41381D01*
X47387Y-39857D02*
X47273Y-39781D01*
X47044Y-39781D01*
X46930Y-39857D01*
X46873Y-39933D01*
X46816Y-40086D01*
X46816Y-40543D01*
X46873Y-40695D01*
X46930Y-40771D01*
X47044Y-40848D01*
X47273Y-40848D01*
X47387Y-40771D01*
X45844Y-40771D02*
X45958Y-40848D01*
X46187Y-40848D01*
X46301Y-40771D01*
X46358Y-40619D01*
X46358Y-40010D01*
X46301Y-39857D01*
X46187Y-39781D01*
X45958Y-39781D01*
X45844Y-39857D01*
X45787Y-40010D01*
X45787Y-40162D01*
X46358Y-40314D01*
X45272Y-39781D02*
X45272Y-40848D01*
X45272Y-39933D02*
X45215Y-39857D01*
X45101Y-39781D01*
X44929Y-39781D01*
X44815Y-39857D01*
X44758Y-40010D01*
X44758Y-40848D01*
X44186Y-40010D02*
X43786Y-40010D01*
X43615Y-40848D02*
X44186Y-40848D01*
X44186Y-39248D01*
X43615Y-39248D01*
X42929Y-40848D02*
X43043Y-40771D01*
X43100Y-40619D01*
X43100Y-39248D01*
X42014Y-40771D02*
X42128Y-40848D01*
X42357Y-40848D01*
X42471Y-40771D01*
X42528Y-40619D01*
X42528Y-40010D01*
X42471Y-39857D01*
X42357Y-39781D01*
X42128Y-39781D01*
X42014Y-39857D01*
X41957Y-40010D01*
X41957Y-40162D01*
X42528Y-40314D01*
X40928Y-40771D02*
X41042Y-40848D01*
X41271Y-40848D01*
X41385Y-40771D01*
X41442Y-40695D01*
X41499Y-40543D01*
X41499Y-40086D01*
X41442Y-39933D01*
X41385Y-39857D01*
X41271Y-39781D01*
X41042Y-39781D01*
X40928Y-39857D01*
X40585Y-39781D02*
X40128Y-39781D01*
X40413Y-39248D02*
X40413Y-40619D01*
X40356Y-40771D01*
X40242Y-40848D01*
X40128Y-40848D01*
X39727Y-40848D02*
X39727Y-39781D01*
X39727Y-40086D02*
X39670Y-39933D01*
X39613Y-39857D01*
X39499Y-39781D01*
X39384Y-39781D01*
X38813Y-40848D02*
X38927Y-40771D01*
X38984Y-40695D01*
X39041Y-40543D01*
X39041Y-40086D01*
X38984Y-39933D01*
X38927Y-39857D01*
X38813Y-39781D01*
X38641Y-39781D01*
X38527Y-39857D01*
X38470Y-39933D01*
X38413Y-40086D01*
X38413Y-40543D01*
X38470Y-40695D01*
X38527Y-40771D01*
X38641Y-40848D01*
X38813Y-40848D01*
X37898Y-39781D02*
X37898Y-40848D01*
X37898Y-39933D02*
X37841Y-39857D01*
X37727Y-39781D01*
X37555Y-39781D01*
X37441Y-39857D01*
X37384Y-40010D01*
X37384Y-40848D01*
X36812Y-40848D02*
X36812Y-39781D01*
X36812Y-39248D02*
X36869Y-39324D01*
X36812Y-39400D01*
X36755Y-39324D01*
X36812Y-39248D01*
X36812Y-39400D01*
X35727Y-40771D02*
X35841Y-40848D01*
X36070Y-40848D01*
X36184Y-40771D01*
X36241Y-40695D01*
X36298Y-40543D01*
X36298Y-40086D01*
X36241Y-39933D01*
X36184Y-39857D01*
X36070Y-39781D01*
X35841Y-39781D01*
X35727Y-39857D01*
X35269Y-40771D02*
X35155Y-40848D01*
X34927Y-40848D01*
X34812Y-40771D01*
X34755Y-40619D01*
X34755Y-40543D01*
X34812Y-40390D01*
X34927Y-40314D01*
X35098Y-40314D01*
X35212Y-40238D01*
X35269Y-40086D01*
X35269Y-40010D01*
X35212Y-39857D01*
X35098Y-39781D01*
X34927Y-39781D01*
X34812Y-39857D01*
X33670Y-40848D02*
X34241Y-40848D01*
X34241Y-39248D01*
X32756Y-40848D02*
X32756Y-40010D01*
X32813Y-39857D01*
X32927Y-39781D01*
X33156Y-39781D01*
X33270Y-39857D01*
X32756Y-40771D02*
X32870Y-40848D01*
X33156Y-40848D01*
X33270Y-40771D01*
X33327Y-40619D01*
X33327Y-40467D01*
X33270Y-40314D01*
X33156Y-40238D01*
X32870Y-40238D01*
X32756Y-40162D01*
X32184Y-40848D02*
X32184Y-39248D01*
X32184Y-39857D02*
X32070Y-39781D01*
X31841Y-39781D01*
X31727Y-39857D01*
X31670Y-39933D01*
X31613Y-40086D01*
X31613Y-40543D01*
X31670Y-40695D01*
X31727Y-40771D01*
X31841Y-40848D01*
X32070Y-40848D01*
X32184Y-40771D01*
X30241Y-39171D02*
X31270Y-41229D01*
X29384Y-40771D02*
X29498Y-40848D01*
X29727Y-40848D01*
X29841Y-40771D01*
X29898Y-40619D01*
X29898Y-40010D01*
X29841Y-39857D01*
X29727Y-39781D01*
X29498Y-39781D01*
X29384Y-39857D01*
X29327Y-40010D01*
X29327Y-40162D01*
X29898Y-40314D01*
X28355Y-40771D02*
X28469Y-40848D01*
X28698Y-40848D01*
X28812Y-40771D01*
X28869Y-40619D01*
X28869Y-40010D01*
X28812Y-39857D01*
X28698Y-39781D01*
X28469Y-39781D01*
X28355Y-39857D01*
X28298Y-40010D01*
X28298Y-40162D01*
X28869Y-40314D01*
X27269Y-39781D02*
X27269Y-41076D01*
X27326Y-41229D01*
X27383Y-41305D01*
X27498Y-41381D01*
X27669Y-41381D01*
X27783Y-41305D01*
X27269Y-40771D02*
X27383Y-40848D01*
X27612Y-40848D01*
X27726Y-40771D01*
X27783Y-40695D01*
X27840Y-40543D01*
X27840Y-40086D01*
X27783Y-39933D01*
X27726Y-39857D01*
X27612Y-39781D01*
X27383Y-39781D01*
X27269Y-39857D01*
X26697Y-40238D02*
X25783Y-40238D01*
X25211Y-40848D02*
X25211Y-39781D01*
X25211Y-39933D02*
X25154Y-39857D01*
X25040Y-39781D01*
X24868Y-39781D01*
X24754Y-39857D01*
X24697Y-40010D01*
X24697Y-40848D01*
X24697Y-40010D02*
X24640Y-39857D01*
X24526Y-39781D01*
X24354Y-39781D01*
X24240Y-39857D01*
X24183Y-40010D01*
X24183Y-40848D01*
X23440Y-40848D02*
X23554Y-40771D01*
X23611Y-40695D01*
X23668Y-40543D01*
X23668Y-40086D01*
X23611Y-39933D01*
X23554Y-39857D01*
X23440Y-39781D01*
X23268Y-39781D01*
X23154Y-39857D01*
X23097Y-39933D01*
X23040Y-40086D01*
X23040Y-40543D01*
X23097Y-40695D01*
X23154Y-40771D01*
X23268Y-40848D01*
X23440Y-40848D01*
X22011Y-39781D02*
X22011Y-40848D01*
X22525Y-39781D02*
X22525Y-40619D01*
X22468Y-40771D01*
X22354Y-40848D01*
X22182Y-40848D01*
X22068Y-40771D01*
X22011Y-40695D01*
X21496Y-40771D02*
X21382Y-40848D01*
X21154Y-40848D01*
X21039Y-40771D01*
X20982Y-40619D01*
X20982Y-40543D01*
X21039Y-40390D01*
X21154Y-40314D01*
X21325Y-40314D01*
X21439Y-40238D01*
X21496Y-40086D01*
X21496Y-40010D01*
X21439Y-39857D01*
X21325Y-39781D01*
X21154Y-39781D01*
X21039Y-39857D01*
X20011Y-40771D02*
X20125Y-40848D01*
X20354Y-40848D01*
X20468Y-40771D01*
X20525Y-40619D01*
X20525Y-40010D01*
X20468Y-39857D01*
X20354Y-39781D01*
X20125Y-39781D01*
X20011Y-39857D01*
X19954Y-40010D01*
X19954Y-40162D01*
X20525Y-40314D01*
G54D12*
X79824Y-39224D02*
X80300Y-39224D01*
X80300Y-38424D01*
X79490Y-39224D02*
X79490Y-38690D01*
X79490Y-38424D02*
X79538Y-38462D01*
X79490Y-38500D01*
X79442Y-38462D01*
X79490Y-38424D01*
X79490Y-38500D01*
X78585Y-39186D02*
X78681Y-39224D01*
X78871Y-39224D01*
X78966Y-39186D01*
X79014Y-39148D01*
X79062Y-39071D01*
X79062Y-38843D01*
X79014Y-38767D01*
X78966Y-38729D01*
X78871Y-38690D01*
X78681Y-38690D01*
X78585Y-38729D01*
X77776Y-39186D02*
X77871Y-39224D01*
X78062Y-39224D01*
X78157Y-39186D01*
X78205Y-39110D01*
X78205Y-38805D01*
X78157Y-38729D01*
X78062Y-38690D01*
X77871Y-38690D01*
X77776Y-38729D01*
X77728Y-38805D01*
X77728Y-38881D01*
X78205Y-38957D01*
X77300Y-38690D02*
X77300Y-39224D01*
X77300Y-38767D02*
X77252Y-38729D01*
X77157Y-38690D01*
X77014Y-38690D01*
X76919Y-38729D01*
X76871Y-38805D01*
X76871Y-39224D01*
X75966Y-39186D02*
X76062Y-39224D01*
X76252Y-39224D01*
X76347Y-39186D01*
X76395Y-39148D01*
X76443Y-39071D01*
X76443Y-38843D01*
X76395Y-38767D01*
X76347Y-38729D01*
X76252Y-38690D01*
X76062Y-38690D01*
X75966Y-38729D01*
X75157Y-39186D02*
X75252Y-39224D01*
X75443Y-39224D01*
X75538Y-39186D01*
X75586Y-39110D01*
X75586Y-38805D01*
X75538Y-38729D01*
X75443Y-38690D01*
X75252Y-38690D01*
X75157Y-38729D01*
X75109Y-38805D01*
X75109Y-38881D01*
X75586Y-38957D01*
X74252Y-39224D02*
X74252Y-38424D01*
X74252Y-39186D02*
X74348Y-39224D01*
X74538Y-39224D01*
X74633Y-39186D01*
X74681Y-39148D01*
X74729Y-39071D01*
X74729Y-38843D01*
X74681Y-38767D01*
X74633Y-38729D01*
X74538Y-38690D01*
X74348Y-38690D01*
X74252Y-38729D01*
X72585Y-38690D02*
X72585Y-39224D01*
X73014Y-38690D02*
X73014Y-39110D01*
X72966Y-39186D01*
X72871Y-39224D01*
X72728Y-39224D01*
X72633Y-39186D01*
X72585Y-39148D01*
X72109Y-38690D02*
X72109Y-39224D01*
X72109Y-38767D02*
X72061Y-38729D01*
X71966Y-38690D01*
X71823Y-38690D01*
X71728Y-38729D01*
X71680Y-38805D01*
X71680Y-39224D01*
X70775Y-39224D02*
X70775Y-38424D01*
X70775Y-39186D02*
X70871Y-39224D01*
X71061Y-39224D01*
X71156Y-39186D01*
X71204Y-39148D01*
X71252Y-39071D01*
X71252Y-38843D01*
X71204Y-38767D01*
X71156Y-38729D01*
X71061Y-38690D01*
X70871Y-38690D01*
X70775Y-38729D01*
X69918Y-39186D02*
X70013Y-39224D01*
X70204Y-39224D01*
X70299Y-39186D01*
X70347Y-39110D01*
X70347Y-38805D01*
X70299Y-38729D01*
X70204Y-38690D01*
X70013Y-38690D01*
X69918Y-38729D01*
X69870Y-38805D01*
X69870Y-38881D01*
X70347Y-38957D01*
X69442Y-39224D02*
X69442Y-38690D01*
X69442Y-38843D02*
X69394Y-38767D01*
X69347Y-38729D01*
X69251Y-38690D01*
X69156Y-38690D01*
X79752Y-40468D02*
X79800Y-40506D01*
X79943Y-40544D01*
X80038Y-40544D01*
X80181Y-40506D01*
X80276Y-40430D01*
X80324Y-40353D01*
X80372Y-40201D01*
X80372Y-40087D01*
X80324Y-39934D01*
X80276Y-39858D01*
X80181Y-39782D01*
X80038Y-39744D01*
X79943Y-39744D01*
X79800Y-39782D01*
X79752Y-39820D01*
X79324Y-40125D02*
X78991Y-40125D01*
X78848Y-40544D02*
X79324Y-40544D01*
X79324Y-39744D01*
X78848Y-39744D01*
X77847Y-40544D02*
X78181Y-40163D01*
X78419Y-40544D02*
X78419Y-39744D01*
X78038Y-39744D01*
X77943Y-39782D01*
X77895Y-39820D01*
X77847Y-39896D01*
X77847Y-40010D01*
X77895Y-40087D01*
X77943Y-40125D01*
X78038Y-40163D01*
X78419Y-40163D01*
X77419Y-40544D02*
X77419Y-39744D01*
X76847Y-40544D01*
X76847Y-39744D01*
X75418Y-39744D02*
X75228Y-39744D01*
X75133Y-39782D01*
X75037Y-39858D01*
X74990Y-40010D01*
X74990Y-40277D01*
X75037Y-40430D01*
X75133Y-40506D01*
X75228Y-40544D01*
X75418Y-40544D01*
X75514Y-40506D01*
X75609Y-40430D01*
X75657Y-40277D01*
X75657Y-40010D01*
X75609Y-39858D01*
X75514Y-39782D01*
X75418Y-39744D01*
X74561Y-40544D02*
X74561Y-39744D01*
X74561Y-40125D02*
X73989Y-40125D01*
X73989Y-40544D02*
X73989Y-39744D01*
X73037Y-40544D02*
X73513Y-40544D01*
X73513Y-39744D01*
X72036Y-40010D02*
X71798Y-40544D01*
X71560Y-40010D01*
X70655Y-40544D02*
X71227Y-40544D01*
X70941Y-40544D02*
X70941Y-39744D01*
X71036Y-39858D01*
X71131Y-39934D01*
X71227Y-39972D01*
X70227Y-40468D02*
X70179Y-40506D01*
X70227Y-40544D01*
X70275Y-40506D01*
X70227Y-40468D01*
X70227Y-40544D01*
X69227Y-40544D02*
X69799Y-40544D01*
X69513Y-40544D02*
X69513Y-39744D01*
X69608Y-39858D01*
X69703Y-39934D01*
X69799Y-39972D01*
G54D14*
X79915Y-34007D02*
X80029Y-33936D01*
X80086Y-33864D01*
X80143Y-33721D01*
X80143Y-33293D01*
X80086Y-33150D01*
X80029Y-33079D01*
X79915Y-33007D01*
X79743Y-33007D01*
X79629Y-33079D01*
X79572Y-33150D01*
X79515Y-33293D01*
X79515Y-33721D01*
X79572Y-33864D01*
X79629Y-33936D01*
X79743Y-34007D01*
X79915Y-34007D01*
X79000Y-33007D02*
X79000Y-34507D01*
X79000Y-33079D02*
X78886Y-33007D01*
X78657Y-33007D01*
X78543Y-33079D01*
X78486Y-33150D01*
X78429Y-33293D01*
X78429Y-33721D01*
X78486Y-33864D01*
X78543Y-33936D01*
X78657Y-34007D01*
X78886Y-34007D01*
X79000Y-33936D01*
X77457Y-33936D02*
X77571Y-34007D01*
X77800Y-34007D01*
X77914Y-33936D01*
X77971Y-33793D01*
X77971Y-33221D01*
X77914Y-33079D01*
X77800Y-33007D01*
X77571Y-33007D01*
X77457Y-33079D01*
X77400Y-33221D01*
X77400Y-33364D01*
X77971Y-33507D01*
X76885Y-33007D02*
X76885Y-34007D01*
X76885Y-33150D02*
X76828Y-33079D01*
X76714Y-33007D01*
X76542Y-33007D01*
X76428Y-33079D01*
X76371Y-33221D01*
X76371Y-34007D01*
X74942Y-33936D02*
X74828Y-34007D01*
X74600Y-34007D01*
X74485Y-33936D01*
X74428Y-33793D01*
X74428Y-33721D01*
X74485Y-33579D01*
X74600Y-33507D01*
X74771Y-33507D01*
X74885Y-33436D01*
X74942Y-33293D01*
X74942Y-33221D01*
X74885Y-33079D01*
X74771Y-33007D01*
X74600Y-33007D01*
X74485Y-33079D01*
X73743Y-34007D02*
X73857Y-33936D01*
X73914Y-33864D01*
X73971Y-33721D01*
X73971Y-33293D01*
X73914Y-33150D01*
X73857Y-33079D01*
X73743Y-33007D01*
X73571Y-33007D01*
X73457Y-33079D01*
X73400Y-33150D01*
X73343Y-33293D01*
X73343Y-33721D01*
X73400Y-33864D01*
X73457Y-33936D01*
X73571Y-34007D01*
X73743Y-34007D01*
X72314Y-33007D02*
X72314Y-34007D01*
X72828Y-33007D02*
X72828Y-33793D01*
X72771Y-33936D01*
X72657Y-34007D01*
X72485Y-34007D01*
X72371Y-33936D01*
X72314Y-33864D01*
X71742Y-34007D02*
X71742Y-33007D01*
X71742Y-33293D02*
X71685Y-33150D01*
X71628Y-33079D01*
X71514Y-33007D01*
X71399Y-33007D01*
X70485Y-33936D02*
X70599Y-34007D01*
X70828Y-34007D01*
X70942Y-33936D01*
X70999Y-33864D01*
X71056Y-33721D01*
X71056Y-33293D01*
X70999Y-33150D01*
X70942Y-33079D01*
X70828Y-33007D01*
X70599Y-33007D01*
X70485Y-33079D01*
X69513Y-33936D02*
X69627Y-34007D01*
X69856Y-34007D01*
X69970Y-33936D01*
X70027Y-33793D01*
X70027Y-33221D01*
X69970Y-33079D01*
X69856Y-33007D01*
X69627Y-33007D01*
X69513Y-33079D01*
X69456Y-33221D01*
X69456Y-33364D01*
X70027Y-33507D01*
X78115Y-36407D02*
X78115Y-34907D01*
X77601Y-36407D02*
X77601Y-35621D01*
X77658Y-35479D01*
X77772Y-35407D01*
X77944Y-35407D01*
X78058Y-35479D01*
X78115Y-35550D01*
X76515Y-36407D02*
X76515Y-35621D01*
X76572Y-35479D01*
X76686Y-35407D01*
X76915Y-35407D01*
X77029Y-35479D01*
X76515Y-36336D02*
X76629Y-36407D01*
X76915Y-36407D01*
X77029Y-36336D01*
X77086Y-36193D01*
X77086Y-36050D01*
X77029Y-35907D01*
X76915Y-35836D01*
X76629Y-35836D01*
X76515Y-35764D01*
X75943Y-36407D02*
X75943Y-35407D01*
X75943Y-35693D02*
X75886Y-35550D01*
X75829Y-35479D01*
X75715Y-35407D01*
X75600Y-35407D01*
X74686Y-36407D02*
X74686Y-34907D01*
X74686Y-36336D02*
X74800Y-36407D01*
X75029Y-36407D01*
X75143Y-36336D01*
X75200Y-36264D01*
X75257Y-36121D01*
X75257Y-35693D01*
X75200Y-35550D01*
X75143Y-35479D01*
X75029Y-35407D01*
X74800Y-35407D01*
X74686Y-35479D01*
X74229Y-35407D02*
X74000Y-36407D01*
X73771Y-35693D01*
X73543Y-36407D01*
X73314Y-35407D01*
X72343Y-36407D02*
X72343Y-35621D01*
X72400Y-35479D01*
X72514Y-35407D01*
X72743Y-35407D01*
X72857Y-35479D01*
X72343Y-36336D02*
X72457Y-36407D01*
X72743Y-36407D01*
X72857Y-36336D01*
X72914Y-36193D01*
X72914Y-36050D01*
X72857Y-35907D01*
X72743Y-35836D01*
X72457Y-35836D01*
X72343Y-35764D01*
X71771Y-36407D02*
X71771Y-35407D01*
X71771Y-35693D02*
X71714Y-35550D01*
X71657Y-35479D01*
X71543Y-35407D01*
X71428Y-35407D01*
X70571Y-36336D02*
X70685Y-36407D01*
X70914Y-36407D01*
X71028Y-36336D01*
X71085Y-36193D01*
X71085Y-35621D01*
X71028Y-35479D01*
X70914Y-35407D01*
X70685Y-35407D01*
X70571Y-35479D01*
X70514Y-35621D01*
X70514Y-35764D01*
X71085Y-35907D01*
G54D15*
G36*
X77984Y-32421D02*
X77932Y-32394D01*
X77817Y-32322D01*
X77653Y-32214D01*
X77458Y-32084D01*
X77264Y-31952D01*
X77103Y-31845D01*
X76991Y-31773D01*
X76944Y-31747D01*
X76919Y-31756D01*
X76826Y-31801D01*
X76692Y-31870D01*
X76614Y-31911D01*
X76490Y-31964D01*
X76429Y-31975D01*
X76419Y-31958D01*
X76374Y-31864D01*
X76303Y-31703D01*
X76210Y-31489D01*
X76103Y-31239D01*
X75990Y-30970D01*
X75875Y-30695D01*
X75766Y-30433D01*
X75670Y-30198D01*
X75593Y-30006D01*
X75542Y-29873D01*
X75523Y-29815D01*
X75529Y-29803D01*
X75591Y-29743D01*
X75699Y-29663D01*
X75931Y-29474D01*
X76161Y-29187D01*
X76301Y-28861D01*
X76348Y-28499D01*
X76308Y-28163D01*
X76176Y-27839D01*
X75951Y-27549D01*
X75679Y-27333D01*
X75359Y-27196D01*
X75001Y-27152D01*
X74657Y-27191D01*
X74327Y-27321D01*
X74037Y-27542D01*
X73915Y-27683D01*
X73745Y-27977D01*
X73649Y-28293D01*
X73639Y-28374D01*
X73653Y-28719D01*
X73755Y-29050D01*
X73938Y-29347D01*
X74191Y-29590D01*
X74223Y-29612D01*
X74340Y-29700D01*
X74419Y-29761D01*
X74480Y-29811D01*
X74040Y-30871D01*
X73970Y-31039D01*
X73849Y-31329D01*
X73743Y-31578D01*
X73658Y-31777D01*
X73600Y-31909D01*
X73574Y-31963D01*
X73571Y-31966D01*
X73532Y-31972D01*
X73451Y-31943D01*
X73304Y-31871D01*
X73206Y-31821D01*
X73093Y-31767D01*
X73042Y-31747D01*
X73000Y-31770D01*
X72892Y-31840D01*
X72734Y-31945D01*
X72545Y-32074D01*
X72365Y-32196D01*
X72198Y-32307D01*
X72077Y-32384D01*
X72019Y-32415D01*
X72009Y-32415D01*
X71957Y-32386D01*
X71863Y-32307D01*
X71718Y-32170D01*
X71513Y-31969D01*
X71483Y-31938D01*
X71315Y-31767D01*
X71178Y-31624D01*
X71087Y-31522D01*
X71054Y-31475D01*
X71054Y-31475D01*
X71084Y-31418D01*
X71160Y-31297D01*
X71270Y-31129D01*
X71405Y-30932D01*
X71755Y-30422D01*
X71563Y-29941D01*
X71504Y-29794D01*
X71429Y-29615D01*
X71372Y-29488D01*
X71344Y-29432D01*
X71291Y-29414D01*
X71160Y-29382D01*
X70969Y-29343D01*
X70741Y-29300D01*
X70525Y-29260D01*
X70328Y-29223D01*
X70187Y-29196D01*
X70123Y-29183D01*
X70108Y-29174D01*
X70095Y-29143D01*
X70087Y-29076D01*
X70082Y-28957D01*
X70080Y-28770D01*
X70080Y-28499D01*
X70080Y-28469D01*
X70082Y-28210D01*
X70086Y-28004D01*
X70094Y-27868D01*
X70103Y-27815D01*
X70104Y-27814D01*
X70164Y-27799D01*
X70303Y-27770D01*
X70499Y-27731D01*
X70732Y-27687D01*
X70747Y-27684D01*
X70980Y-27639D01*
X71175Y-27599D01*
X71311Y-27567D01*
X71369Y-27549D01*
X71381Y-27533D01*
X71428Y-27442D01*
X71495Y-27298D01*
X71572Y-27121D01*
X71647Y-26939D01*
X71713Y-26774D01*
X71758Y-26651D01*
X71771Y-26596D01*
X71770Y-26595D01*
X71735Y-26538D01*
X71655Y-26418D01*
X71542Y-26251D01*
X71406Y-26053D01*
X71396Y-26038D01*
X71262Y-25841D01*
X71154Y-25675D01*
X71081Y-25556D01*
X71054Y-25503D01*
X71055Y-25499D01*
X71099Y-25440D01*
X71199Y-25329D01*
X71342Y-25179D01*
X71515Y-25005D01*
X71570Y-24951D01*
X71761Y-24764D01*
X71894Y-24642D01*
X71976Y-24577D01*
X72016Y-24563D01*
X72018Y-24564D01*
X72077Y-24599D01*
X72201Y-24680D01*
X72370Y-24794D01*
X72569Y-24930D01*
X72584Y-24940D01*
X72780Y-25073D01*
X72944Y-25184D01*
X73060Y-25261D01*
X73111Y-25292D01*
X73120Y-25292D01*
X73200Y-25269D01*
X73340Y-25219D01*
X73512Y-25153D01*
X73694Y-25080D01*
X73859Y-25010D01*
X73983Y-24953D01*
X74042Y-24920D01*
X74043Y-24917D01*
X74064Y-24847D01*
X74098Y-24700D01*
X74140Y-24497D01*
X74186Y-24256D01*
X74193Y-24217D01*
X74238Y-23983D01*
X74275Y-23789D01*
X74303Y-23655D01*
X74316Y-23600D01*
X74349Y-23592D01*
X74465Y-23584D01*
X74639Y-23579D01*
X74851Y-23577D01*
X75075Y-23579D01*
X75293Y-23583D01*
X75478Y-23590D01*
X75611Y-23599D01*
X75667Y-23610D01*
X75669Y-23613D01*
X75689Y-23686D01*
X75721Y-23834D01*
X75763Y-24037D01*
X75809Y-24279D01*
X75817Y-24321D01*
X75861Y-24555D01*
X75900Y-24747D01*
X75929Y-24879D01*
X75944Y-24931D01*
X75965Y-24942D01*
X76061Y-24984D01*
X76218Y-25049D01*
X76412Y-25128D01*
X76863Y-25310D01*
X77415Y-24932D01*
X77466Y-24897D01*
X77665Y-24762D01*
X77828Y-24653D01*
X77942Y-24580D01*
X77988Y-24553D01*
X77992Y-24555D01*
X78048Y-24603D01*
X78157Y-24706D01*
X78306Y-24851D01*
X78481Y-25024D01*
X78609Y-25153D01*
X78761Y-25308D01*
X78858Y-25413D01*
X78910Y-25479D01*
X78929Y-25520D01*
X78924Y-25547D01*
X78888Y-25603D01*
X78807Y-25724D01*
X78694Y-25892D01*
X78559Y-26088D01*
X78449Y-26251D01*
X78329Y-26436D01*
X78251Y-26569D01*
X78224Y-26634D01*
X78230Y-26660D01*
X78269Y-26768D01*
X78335Y-26932D01*
X78418Y-27127D01*
X78610Y-27564D01*
X78897Y-27619D01*
X79070Y-27652D01*
X79313Y-27698D01*
X79546Y-27743D01*
X79908Y-27814D01*
X79921Y-29149D01*
X79865Y-29173D01*
X79812Y-29187D01*
X79677Y-29217D01*
X79485Y-29256D01*
X79259Y-29298D01*
X79065Y-29334D01*
X78871Y-29371D01*
X78732Y-29398D01*
X78670Y-29411D01*
X78654Y-29432D01*
X78605Y-29527D01*
X78537Y-29676D01*
X78459Y-29856D01*
X78381Y-30043D01*
X78313Y-30215D01*
X78265Y-30346D01*
X78247Y-30414D01*
X78274Y-30465D01*
X78347Y-30580D01*
X78454Y-30742D01*
X78586Y-30936D01*
X78718Y-31129D01*
X78830Y-31294D01*
X78908Y-31413D01*
X78940Y-31467D01*
X78924Y-31504D01*
X78846Y-31598D01*
X78701Y-31749D01*
X78484Y-31963D01*
X78449Y-31998D01*
X78276Y-32163D01*
X78131Y-32298D01*
X78029Y-32388D01*
X77984Y-32421D01*
X77984Y-32421D01*
G37*
%LPC*%
G54D16*
X72250Y-45500D03*
G54D17*
X71250Y-45500D03*
X68250Y-45500D03*
X67250Y-45500D03*
X66250Y-45500D03*
G54D18*
X35000Y-24000D03*
G54D19*
X36000Y-24000D03*
X35000Y-25000D03*
X36000Y-25000D03*
X35000Y-26000D03*
X36000Y-26000D03*
X35000Y-27000D03*
X36000Y-27000D03*
X35000Y-28000D03*
X36000Y-28000D03*
X71490Y-41080D03*
X72490Y-41080D03*
X73490Y-41080D03*
X74490Y-41080D03*
X75490Y-41080D03*
X76490Y-41080D03*
X77490Y-41080D03*
X78490Y-41080D03*
X80480Y-41080D03*
X81480Y-41080D03*
X82480Y-41080D03*
X83480Y-41080D03*
X84480Y-41080D03*
X85480Y-41080D03*
X85510Y-30400D03*
X85510Y-31400D03*
X85510Y-32400D03*
X86510Y-32400D03*
X86510Y-31400D03*
X86510Y-30400D03*
X85510Y-22000D03*
X84510Y-22000D03*
X83510Y-22000D03*
X82510Y-22000D03*
X81510Y-22000D03*
X80510Y-22000D03*
X79510Y-22000D03*
X78510Y-22000D03*
X77000Y-22000D03*
X76000Y-22000D03*
X75000Y-22000D03*
X74000Y-22000D03*
X73000Y-22000D03*
X72000Y-22000D03*
X71000Y-22000D03*
X70000Y-22000D03*
X69000Y-22000D03*
X68000Y-22000D03*
G54D18*
X16000Y-23000D03*
G54D19*
X17000Y-23000D03*
X16000Y-28000D03*
X17000Y-24000D03*
X16000Y-29000D03*
X17000Y-25000D03*
X16000Y-30000D03*
X17000Y-26000D03*
X16000Y-31000D03*
X17000Y-27000D03*
X16000Y-32000D03*
X17000Y-28000D03*
X16000Y-33000D03*
X17000Y-29000D03*
X16000Y-34000D03*
X17000Y-30000D03*
X16000Y-35000D03*
X17000Y-31000D03*
X16000Y-36000D03*
X17000Y-32000D03*
X16000Y-37000D03*
X17000Y-33000D03*
X16000Y-38000D03*
X17000Y-34000D03*
X17000Y-35000D03*
X16000Y-39000D03*
X17000Y-36000D03*
X17000Y-38000D03*
X17000Y-39000D03*
X17000Y-40000D03*
X17000Y-41000D03*
X16000Y-40000D03*
X16000Y-41000D03*
X16000Y-24000D03*
X16000Y-25000D03*
X16000Y-26000D03*
X16000Y-27000D03*
X16000Y-42000D03*
X17000Y-42000D03*
X17000Y-37000D03*
G54D18*
X91000Y-42000D03*
G54D19*
X91000Y-41000D03*
X91000Y-40000D03*
X91000Y-39000D03*
G54D18*
X91000Y-32000D03*
G54D19*
X91000Y-33000D03*
X91000Y-34000D03*
X91000Y-35000D03*
X91000Y-36000D03*
X91000Y-37000D03*
G54D16*
X54250Y-45500D03*
G54D17*
X53250Y-45500D03*
X50250Y-45500D03*
X49250Y-45500D03*
X48250Y-45500D03*
G54D18*
X78000Y-44000D03*
G54D19*
X78000Y-43000D03*
G54D18*
X38000Y-43000D03*
G54D19*
X38000Y-42000D03*
X39000Y-43000D03*
X39000Y-42000D03*
X89150Y-27000D03*
X89150Y-28000D03*
X89937Y-28000D03*
X89937Y-27000D03*
G54D20*
X91000Y-25138D03*
X91000Y-29862D03*
G54D18*
X30000Y-32000D03*
G54D19*
X31000Y-32000D03*
X30000Y-33000D03*
X31000Y-33000D03*
X30000Y-34000D03*
X31000Y-34000D03*
X30000Y-35000D03*
X31000Y-35000D03*
X30000Y-36000D03*
X31000Y-36000D03*
X30000Y-37000D03*
X31000Y-37000D03*
X30000Y-38000D03*
X31000Y-38000D03*
X30000Y-39000D03*
X31000Y-39000D03*
G54D18*
X30000Y-24000D03*
G54D19*
X31000Y-24000D03*
X30000Y-25000D03*
X31000Y-25000D03*
X30000Y-26000D03*
X31000Y-26000D03*
X30000Y-27000D03*
X31000Y-27000D03*
X30000Y-28000D03*
X31000Y-28000D03*
X30000Y-29000D03*
X31000Y-29000D03*
X30000Y-30000D03*
X31000Y-30000D03*
X30000Y-31000D03*
X31000Y-31000D03*
G54D18*
X85510Y-25400D03*
G54D19*
X86510Y-25400D03*
X85510Y-26400D03*
X86510Y-26400D03*
X85510Y-27400D03*
X86510Y-27400D03*
X85510Y-28400D03*
X86510Y-28400D03*
X85510Y-29400D03*
X86510Y-29400D03*
G54D21*
X18701Y-20669D03*
X18701Y-44291D03*
X89567Y-20669D03*
X89567Y-44291D03*
X60039Y-44291D03*
X60039Y-20669D03*
X42323Y-44291D03*
X42323Y-20669D03*
M02*
