G04 (created by PCBNEW-RS274X (2012-apr-16-27)-stable) date Sun 25 Aug 2013 09:26:46 PM CEST*
G01*
G70*
G90*
%MOIN*%
G04 Gerber Fmt 3.4, Leading zero omitted, Abs format*
%FSLAX34Y34*%
G04 APERTURE LIST*
%ADD10C,0.006000*%
%ADD11C,0.078700*%
%ADD12R,0.025000X0.045000*%
%ADD13R,0.060000X0.060000*%
%ADD14C,0.060000*%
%ADD15C,0.145700*%
%ADD16R,0.031400X0.031400*%
%ADD17C,0.039400*%
%ADD18C,0.035000*%
%ADD19C,0.008000*%
%ADD20C,0.010000*%
G04 APERTURE END LIST*
G54D10*
G54D11*
X62992Y-35433D03*
X62992Y-23622D03*
X57087Y-23622D03*
X51181Y-23622D03*
X45276Y-23622D03*
X39370Y-23622D03*
X33465Y-23622D03*
X27559Y-23622D03*
X21654Y-23622D03*
X21654Y-41339D03*
X57087Y-35433D03*
X51181Y-35433D03*
X45276Y-35433D03*
X39370Y-35433D03*
X33465Y-35433D03*
X27559Y-35433D03*
X21654Y-35433D03*
X21654Y-29528D03*
X68898Y-32480D03*
X62992Y-29528D03*
X57087Y-29528D03*
X51181Y-29528D03*
X45276Y-29528D03*
X39370Y-29528D03*
X33465Y-29528D03*
X27559Y-29528D03*
X62992Y-41339D03*
X57087Y-41339D03*
X51181Y-41339D03*
X45276Y-41339D03*
X39370Y-41339D03*
X33465Y-41339D03*
X27559Y-41339D03*
G54D12*
X15950Y-21500D03*
X16550Y-21500D03*
G54D13*
X16000Y-23000D03*
G54D14*
X17000Y-23000D03*
X16000Y-28000D03*
X17000Y-24000D03*
X16000Y-29000D03*
X17000Y-25000D03*
X16000Y-30000D03*
X17000Y-26000D03*
X16000Y-31000D03*
X17000Y-27000D03*
X16000Y-32000D03*
X17000Y-28000D03*
X16000Y-33000D03*
X17000Y-29000D03*
X16000Y-34000D03*
X17000Y-30000D03*
X16000Y-35000D03*
X17000Y-31000D03*
X16000Y-36000D03*
X17000Y-32000D03*
X16000Y-37000D03*
X17000Y-33000D03*
X16000Y-38000D03*
X17000Y-34000D03*
X17000Y-35000D03*
X16000Y-39000D03*
X17000Y-36000D03*
X17000Y-38000D03*
X17000Y-39000D03*
X17000Y-40000D03*
X17000Y-41000D03*
X16000Y-40000D03*
X16000Y-41000D03*
X16000Y-24000D03*
X16000Y-25000D03*
X16000Y-26000D03*
X16000Y-27000D03*
X16000Y-42000D03*
X17000Y-42000D03*
X17000Y-37000D03*
X71490Y-41080D03*
X72490Y-41080D03*
X73490Y-41080D03*
X74490Y-41080D03*
X75490Y-41080D03*
X76490Y-41080D03*
X77490Y-41080D03*
X78490Y-41080D03*
X80480Y-41080D03*
X81480Y-41080D03*
X82480Y-41080D03*
X83480Y-41080D03*
X84480Y-41080D03*
X85480Y-41080D03*
X85510Y-30400D03*
X85510Y-31400D03*
X85510Y-32400D03*
X86510Y-32400D03*
X86510Y-31400D03*
X86510Y-30400D03*
X85510Y-22000D03*
X84510Y-22000D03*
X83510Y-22000D03*
X82510Y-22000D03*
X81510Y-22000D03*
X80510Y-22000D03*
X79510Y-22000D03*
X78510Y-22000D03*
X77000Y-22000D03*
X76000Y-22000D03*
X75000Y-22000D03*
X74000Y-22000D03*
X73000Y-22000D03*
X72000Y-22000D03*
X71000Y-22000D03*
X70000Y-22000D03*
X69000Y-22000D03*
X68000Y-22000D03*
G54D13*
X86510Y-29400D03*
G54D14*
X85510Y-29400D03*
X86510Y-28400D03*
X85510Y-28400D03*
X86510Y-27400D03*
X85510Y-27400D03*
X86510Y-26400D03*
X85510Y-26400D03*
X86510Y-25400D03*
X85510Y-25400D03*
G54D15*
X18701Y-20669D03*
X18701Y-44291D03*
X60039Y-20669D03*
X60039Y-44291D03*
X89567Y-20669D03*
X89567Y-44291D03*
X42323Y-20669D03*
X42323Y-44291D03*
G54D16*
X16545Y-20250D03*
X15955Y-20250D03*
G54D17*
X24606Y-44291D03*
X24606Y-22638D03*
X87598Y-22638D03*
G54D18*
X16500Y-42900D03*
X66200Y-42900D03*
X66200Y-32500D03*
X19600Y-41300D03*
X19600Y-39500D03*
X19600Y-39000D03*
X19600Y-23600D03*
X25500Y-37500D03*
X25500Y-41300D03*
X25500Y-37000D03*
X25500Y-23600D03*
X31400Y-34700D03*
X31400Y-41300D03*
X31400Y-34200D03*
X31400Y-23600D03*
X37300Y-33500D03*
X37300Y-41300D03*
X37300Y-23600D03*
X37300Y-33000D03*
X43100Y-31500D03*
X43200Y-41300D03*
X43100Y-31000D03*
X43200Y-23600D03*
X49100Y-28800D03*
X49100Y-41300D03*
X49100Y-23600D03*
X49100Y-28300D03*
X55000Y-41300D03*
X55000Y-27500D03*
X55000Y-27000D03*
X55000Y-23600D03*
X60900Y-25500D03*
X60900Y-41300D03*
X60900Y-23600D03*
X60900Y-25000D03*
X23650Y-33850D03*
X23650Y-29525D03*
X23650Y-35433D03*
X17875Y-43400D03*
X23650Y-43425D03*
X53150Y-23000D03*
X23650Y-40000D03*
X59150Y-40000D03*
X29575Y-40000D03*
X64000Y-25975D03*
X64000Y-29525D03*
X59150Y-29528D03*
X41250Y-43400D03*
X59150Y-35450D03*
X64025Y-24650D03*
X64050Y-22825D03*
X67250Y-43500D03*
X35525Y-23000D03*
X64000Y-35500D03*
X59150Y-43450D03*
X29600Y-33850D03*
X35525Y-33850D03*
X29600Y-43425D03*
X29600Y-23000D03*
X64000Y-43400D03*
X67250Y-35500D03*
X64000Y-40000D03*
X17000Y-43400D03*
X72750Y-29500D03*
X53150Y-43400D03*
X59125Y-26000D03*
X47225Y-43400D03*
X23650Y-24650D03*
X35525Y-26000D03*
X23650Y-26000D03*
X59125Y-23000D03*
X53125Y-26000D03*
X47225Y-35450D03*
X35475Y-29525D03*
X41250Y-40000D03*
X47225Y-26050D03*
X53150Y-29550D03*
X53150Y-40000D03*
X35525Y-35475D03*
X41275Y-26000D03*
X53125Y-35433D03*
X23650Y-23000D03*
X47225Y-40000D03*
X17875Y-23000D03*
X47225Y-29575D03*
X41225Y-29575D03*
X41250Y-35450D03*
X47200Y-23000D03*
X41250Y-23000D03*
X35525Y-43400D03*
X35475Y-40000D03*
X67250Y-40000D03*
X67250Y-29500D03*
X29600Y-35425D03*
X29600Y-26025D03*
X16000Y-43400D03*
X29600Y-29528D03*
X72750Y-35500D03*
G54D19*
X16000Y-21550D02*
X15950Y-21500D01*
X16000Y-23000D02*
X16000Y-21550D01*
X66200Y-32500D02*
X66200Y-42900D01*
X16100Y-41000D02*
X16000Y-41000D01*
X16500Y-42900D02*
X16500Y-41400D01*
X16500Y-41400D02*
X16100Y-41000D01*
X19600Y-41300D02*
X19600Y-39500D01*
X19600Y-23600D02*
X19600Y-39000D01*
X25500Y-41300D02*
X25500Y-37500D01*
X25500Y-23600D02*
X25500Y-37000D01*
X31400Y-41300D02*
X31400Y-34700D01*
X31400Y-23600D02*
X31400Y-34200D01*
X37300Y-41300D02*
X37300Y-33500D01*
X37300Y-23600D02*
X37300Y-33000D01*
X43200Y-41300D02*
X43100Y-41200D01*
X43100Y-41200D02*
X43100Y-31500D01*
X43100Y-23700D02*
X43100Y-31000D01*
X43200Y-23600D02*
X43100Y-23700D01*
X49100Y-41300D02*
X49100Y-28800D01*
X49100Y-23600D02*
X49100Y-28300D01*
X55000Y-27500D02*
X55000Y-41300D01*
X55000Y-23600D02*
X55000Y-27000D01*
X60900Y-41300D02*
X60900Y-25500D01*
X60900Y-23600D02*
X60900Y-25000D01*
X23650Y-35433D02*
X23650Y-35425D01*
X23650Y-40000D02*
X23650Y-43425D01*
X59150Y-23025D02*
X59150Y-26000D01*
X59150Y-35450D02*
X59150Y-40000D01*
X17875Y-43400D02*
X17875Y-23000D01*
X23650Y-29525D02*
X23650Y-33850D01*
X15250Y-39250D02*
X16000Y-40000D01*
X15250Y-33250D02*
X16000Y-34000D01*
X15250Y-27250D02*
X16000Y-28000D01*
X15250Y-23500D02*
X15750Y-24000D01*
X15250Y-20750D02*
X15250Y-23500D01*
X23650Y-24650D02*
X23650Y-26000D01*
X64025Y-24650D02*
X64050Y-24625D01*
X64050Y-24625D02*
X64050Y-22825D01*
X15750Y-24000D02*
X16000Y-24000D01*
X59150Y-29525D02*
X59150Y-35450D01*
X29600Y-23000D02*
X29600Y-26025D01*
X29600Y-26025D02*
X29600Y-29525D01*
X29600Y-29525D02*
X29600Y-33850D01*
X29600Y-33850D02*
X29600Y-35425D01*
X64000Y-40000D02*
X64000Y-43400D01*
X23650Y-33850D02*
X23650Y-35425D01*
X35525Y-33850D02*
X35525Y-35475D01*
X59125Y-23000D02*
X59150Y-23025D01*
X59125Y-26000D02*
X59150Y-26000D01*
X35525Y-29525D02*
X35525Y-33850D01*
X15250Y-35250D02*
X16000Y-36000D01*
X64000Y-25975D02*
X64000Y-29525D01*
X64000Y-29525D02*
X64000Y-35500D01*
X35525Y-26000D02*
X35525Y-29525D01*
X72750Y-35500D02*
X72750Y-29500D01*
X15250Y-33250D02*
X15250Y-35250D01*
X15250Y-27250D02*
X15250Y-29250D01*
X64000Y-35500D02*
X64000Y-40000D01*
X35525Y-23000D02*
X35525Y-26000D01*
X15250Y-35250D02*
X15250Y-37250D01*
X59150Y-26000D02*
X59150Y-29525D01*
X64000Y-25975D02*
X64025Y-25950D01*
X53150Y-23000D02*
X53150Y-26000D01*
X23650Y-35425D02*
X23650Y-40000D01*
X59150Y-40000D02*
X59150Y-43450D01*
X53150Y-40000D02*
X53150Y-43400D01*
X53150Y-35425D02*
X53150Y-40000D01*
X53150Y-29550D02*
X53150Y-35425D01*
X53150Y-26000D02*
X53150Y-29550D01*
X16000Y-42000D02*
X16000Y-43400D01*
X47225Y-40000D02*
X47225Y-43400D01*
X47225Y-35450D02*
X47225Y-40000D01*
X47225Y-29575D02*
X47225Y-35450D01*
X47225Y-26050D02*
X47225Y-29575D01*
X47225Y-23025D02*
X47225Y-26050D01*
X23650Y-26000D02*
X23650Y-29525D01*
X15250Y-25250D02*
X15250Y-27250D01*
X67250Y-35500D02*
X67250Y-29500D01*
X17000Y-41000D02*
X17000Y-42000D01*
X15250Y-37250D02*
X15250Y-39250D01*
X29575Y-40000D02*
X29600Y-40000D01*
X41250Y-35450D02*
X41250Y-29575D01*
X53125Y-26000D02*
X53150Y-26000D01*
X53133Y-35425D02*
X53150Y-35425D01*
X17000Y-23000D02*
X17000Y-24000D01*
X53125Y-35433D02*
X53133Y-35425D01*
X15250Y-31250D02*
X15250Y-33250D01*
X23650Y-23000D02*
X23650Y-24650D01*
X41275Y-26000D02*
X41250Y-26000D01*
X59150Y-29528D02*
X59150Y-29525D01*
X41225Y-29575D02*
X41250Y-29575D01*
X41250Y-26000D02*
X41250Y-23000D01*
X29600Y-40000D02*
X29600Y-43425D01*
X29600Y-35425D02*
X29600Y-40000D01*
X47200Y-23000D02*
X47225Y-23025D01*
X35525Y-40000D02*
X35525Y-43400D01*
X35525Y-35475D02*
X35525Y-40000D01*
X15250Y-23500D02*
X15250Y-25250D01*
X35525Y-40000D02*
X35475Y-40000D01*
X15955Y-20250D02*
X15750Y-20250D01*
X35525Y-29525D02*
X35475Y-29525D01*
X15750Y-20250D02*
X15250Y-20750D01*
X15250Y-37250D02*
X16000Y-38000D01*
X17000Y-43400D02*
X17000Y-42000D01*
X67250Y-40000D02*
X67250Y-43500D01*
X29600Y-29528D02*
X29600Y-29525D01*
X41250Y-43400D02*
X41250Y-40000D01*
X15250Y-25250D02*
X16000Y-26000D01*
X67250Y-40000D02*
X67250Y-35500D01*
X15250Y-29250D02*
X16000Y-30000D01*
X15250Y-31250D02*
X16000Y-32000D01*
X15250Y-29250D02*
X15250Y-31250D01*
X17000Y-40000D02*
X17000Y-41000D01*
X41250Y-29575D02*
X41250Y-26000D01*
X64025Y-25950D02*
X64025Y-24650D01*
X41250Y-40000D02*
X41250Y-35450D01*
X16550Y-21500D02*
X16550Y-20255D01*
X16550Y-20255D02*
X16545Y-20250D01*
G54D10*
G36*
X81446Y-36958D02*
X69541Y-36958D01*
X69541Y-32609D01*
X69541Y-32353D01*
X69443Y-32117D01*
X69263Y-31936D01*
X69027Y-31837D01*
X68771Y-31837D01*
X68535Y-31935D01*
X68354Y-32115D01*
X68255Y-32351D01*
X68255Y-32607D01*
X68353Y-32843D01*
X68533Y-33024D01*
X68769Y-33123D01*
X69025Y-33123D01*
X69261Y-33025D01*
X69442Y-32845D01*
X69541Y-32609D01*
X69541Y-36958D01*
X67273Y-36958D01*
X67273Y-46800D01*
X66625Y-46800D01*
X66625Y-42985D01*
X66625Y-42816D01*
X66561Y-42660D01*
X66490Y-42589D01*
X66490Y-32811D01*
X66560Y-32741D01*
X66625Y-32585D01*
X66625Y-32416D01*
X66561Y-32260D01*
X66441Y-32140D01*
X66285Y-32075D01*
X66116Y-32075D01*
X65960Y-32139D01*
X65840Y-32259D01*
X65775Y-32415D01*
X65775Y-32584D01*
X65839Y-32740D01*
X65910Y-32811D01*
X65910Y-42589D01*
X65840Y-42659D01*
X65775Y-42815D01*
X65775Y-42984D01*
X65839Y-43140D01*
X65959Y-43260D01*
X66115Y-43325D01*
X66284Y-43325D01*
X66440Y-43261D01*
X66560Y-43141D01*
X66625Y-42985D01*
X66625Y-46800D01*
X63635Y-46800D01*
X63635Y-41468D01*
X63635Y-41212D01*
X63635Y-23751D01*
X63635Y-23495D01*
X63537Y-23259D01*
X63357Y-23078D01*
X63121Y-22979D01*
X62865Y-22979D01*
X62629Y-23077D01*
X62448Y-23257D01*
X62349Y-23493D01*
X62349Y-23749D01*
X62447Y-23985D01*
X62627Y-24166D01*
X62863Y-24265D01*
X63119Y-24265D01*
X63355Y-24167D01*
X63536Y-23987D01*
X63635Y-23751D01*
X63635Y-41212D01*
X63627Y-41192D01*
X63627Y-35533D01*
X63627Y-29628D01*
X63617Y-29378D01*
X63540Y-29192D01*
X63436Y-29155D01*
X63365Y-29226D01*
X63365Y-29084D01*
X63328Y-28980D01*
X63092Y-28893D01*
X62842Y-28903D01*
X62656Y-28980D01*
X62619Y-29084D01*
X62992Y-29457D01*
X63365Y-29084D01*
X63365Y-29226D01*
X63063Y-29528D01*
X63436Y-29901D01*
X63540Y-29864D01*
X63627Y-29628D01*
X63627Y-35533D01*
X63617Y-35283D01*
X63540Y-35097D01*
X63436Y-35060D01*
X63365Y-35131D01*
X63365Y-34989D01*
X63365Y-29972D01*
X62992Y-29599D01*
X62921Y-29670D01*
X62921Y-29528D01*
X62548Y-29155D01*
X62444Y-29192D01*
X62357Y-29428D01*
X62367Y-29678D01*
X62444Y-29864D01*
X62548Y-29901D01*
X62921Y-29528D01*
X62921Y-29670D01*
X62619Y-29972D01*
X62656Y-30076D01*
X62892Y-30163D01*
X63142Y-30153D01*
X63328Y-30076D01*
X63365Y-29972D01*
X63365Y-34989D01*
X63328Y-34885D01*
X63092Y-34798D01*
X62842Y-34808D01*
X62656Y-34885D01*
X62619Y-34989D01*
X62992Y-35362D01*
X63365Y-34989D01*
X63365Y-35131D01*
X63063Y-35433D01*
X63436Y-35806D01*
X63540Y-35769D01*
X63627Y-35533D01*
X63627Y-41192D01*
X63537Y-40976D01*
X63365Y-40803D01*
X63365Y-35877D01*
X62992Y-35504D01*
X62921Y-35575D01*
X62921Y-35433D01*
X62548Y-35060D01*
X62444Y-35097D01*
X62357Y-35333D01*
X62367Y-35583D01*
X62444Y-35769D01*
X62548Y-35806D01*
X62921Y-35433D01*
X62921Y-35575D01*
X62619Y-35877D01*
X62656Y-35981D01*
X62892Y-36068D01*
X63142Y-36058D01*
X63328Y-35981D01*
X63365Y-35877D01*
X63365Y-40803D01*
X63357Y-40795D01*
X63121Y-40696D01*
X62865Y-40696D01*
X62629Y-40794D01*
X62448Y-40974D01*
X62349Y-41210D01*
X62349Y-41466D01*
X62447Y-41702D01*
X62627Y-41883D01*
X62863Y-41982D01*
X63119Y-41982D01*
X63355Y-41884D01*
X63536Y-41704D01*
X63635Y-41468D01*
X63635Y-46800D01*
X61325Y-46800D01*
X61325Y-41385D01*
X61325Y-41216D01*
X61261Y-41060D01*
X61190Y-40989D01*
X61190Y-25811D01*
X61260Y-25741D01*
X61325Y-25585D01*
X61325Y-25416D01*
X61261Y-25260D01*
X61251Y-25250D01*
X61260Y-25241D01*
X61325Y-25085D01*
X61325Y-24916D01*
X61261Y-24760D01*
X61190Y-24689D01*
X61190Y-23911D01*
X61260Y-23841D01*
X61325Y-23685D01*
X61325Y-23516D01*
X61261Y-23360D01*
X61141Y-23240D01*
X60985Y-23175D01*
X60816Y-23175D01*
X60660Y-23239D01*
X60540Y-23359D01*
X60475Y-23515D01*
X60475Y-23684D01*
X60539Y-23840D01*
X60610Y-23911D01*
X60610Y-24689D01*
X60540Y-24759D01*
X60475Y-24915D01*
X60475Y-25084D01*
X60539Y-25240D01*
X60549Y-25250D01*
X60540Y-25259D01*
X60475Y-25415D01*
X60475Y-25584D01*
X60539Y-25740D01*
X60610Y-25811D01*
X60610Y-40989D01*
X60540Y-41059D01*
X60475Y-41215D01*
X60475Y-41384D01*
X60539Y-41540D01*
X60659Y-41660D01*
X60815Y-41725D01*
X60984Y-41725D01*
X61140Y-41661D01*
X61260Y-41541D01*
X61325Y-41385D01*
X61325Y-46800D01*
X61017Y-46800D01*
X61017Y-44486D01*
X61017Y-44097D01*
X60868Y-43738D01*
X60593Y-43462D01*
X60234Y-43313D01*
X59845Y-43313D01*
X59486Y-43462D01*
X59210Y-43737D01*
X59061Y-44096D01*
X59061Y-44485D01*
X59210Y-44844D01*
X59485Y-45120D01*
X59844Y-45269D01*
X60233Y-45269D01*
X60592Y-45120D01*
X60868Y-44845D01*
X61017Y-44486D01*
X61017Y-46800D01*
X57730Y-46800D01*
X57730Y-41468D01*
X57730Y-41212D01*
X57730Y-23751D01*
X57730Y-23495D01*
X57632Y-23259D01*
X57452Y-23078D01*
X57216Y-22979D01*
X56960Y-22979D01*
X56724Y-23077D01*
X56543Y-23257D01*
X56444Y-23493D01*
X56444Y-23749D01*
X56542Y-23985D01*
X56722Y-24166D01*
X56958Y-24265D01*
X57214Y-24265D01*
X57450Y-24167D01*
X57631Y-23987D01*
X57730Y-23751D01*
X57730Y-41212D01*
X57722Y-41192D01*
X57722Y-35533D01*
X57722Y-29628D01*
X57712Y-29378D01*
X57635Y-29192D01*
X57531Y-29155D01*
X57460Y-29226D01*
X57460Y-29084D01*
X57423Y-28980D01*
X57187Y-28893D01*
X56937Y-28903D01*
X56751Y-28980D01*
X56714Y-29084D01*
X57087Y-29457D01*
X57460Y-29084D01*
X57460Y-29226D01*
X57158Y-29528D01*
X57531Y-29901D01*
X57635Y-29864D01*
X57722Y-29628D01*
X57722Y-35533D01*
X57712Y-35283D01*
X57635Y-35097D01*
X57531Y-35060D01*
X57460Y-35131D01*
X57460Y-34989D01*
X57460Y-29972D01*
X57087Y-29599D01*
X57016Y-29670D01*
X57016Y-29528D01*
X56643Y-29155D01*
X56539Y-29192D01*
X56452Y-29428D01*
X56462Y-29678D01*
X56539Y-29864D01*
X56643Y-29901D01*
X57016Y-29528D01*
X57016Y-29670D01*
X56714Y-29972D01*
X56751Y-30076D01*
X56987Y-30163D01*
X57237Y-30153D01*
X57423Y-30076D01*
X57460Y-29972D01*
X57460Y-34989D01*
X57423Y-34885D01*
X57187Y-34798D01*
X56937Y-34808D01*
X56751Y-34885D01*
X56714Y-34989D01*
X57087Y-35362D01*
X57460Y-34989D01*
X57460Y-35131D01*
X57158Y-35433D01*
X57531Y-35806D01*
X57635Y-35769D01*
X57722Y-35533D01*
X57722Y-41192D01*
X57632Y-40976D01*
X57460Y-40803D01*
X57460Y-35877D01*
X57087Y-35504D01*
X57016Y-35575D01*
X57016Y-35433D01*
X56643Y-35060D01*
X56539Y-35097D01*
X56452Y-35333D01*
X56462Y-35583D01*
X56539Y-35769D01*
X56643Y-35806D01*
X57016Y-35433D01*
X57016Y-35575D01*
X56714Y-35877D01*
X56751Y-35981D01*
X56987Y-36068D01*
X57237Y-36058D01*
X57423Y-35981D01*
X57460Y-35877D01*
X57460Y-40803D01*
X57452Y-40795D01*
X57216Y-40696D01*
X56960Y-40696D01*
X56724Y-40794D01*
X56543Y-40974D01*
X56444Y-41210D01*
X56444Y-41466D01*
X56542Y-41702D01*
X56722Y-41883D01*
X56958Y-41982D01*
X57214Y-41982D01*
X57450Y-41884D01*
X57631Y-41704D01*
X57730Y-41468D01*
X57730Y-46800D01*
X55425Y-46800D01*
X55425Y-41385D01*
X55425Y-41216D01*
X55361Y-41060D01*
X55290Y-40989D01*
X55290Y-27811D01*
X55360Y-27741D01*
X55425Y-27585D01*
X55425Y-27416D01*
X55361Y-27260D01*
X55351Y-27250D01*
X55360Y-27241D01*
X55425Y-27085D01*
X55425Y-26916D01*
X55361Y-26760D01*
X55290Y-26689D01*
X55290Y-23911D01*
X55360Y-23841D01*
X55425Y-23685D01*
X55425Y-23516D01*
X55361Y-23360D01*
X55241Y-23240D01*
X55085Y-23175D01*
X54916Y-23175D01*
X54760Y-23239D01*
X54640Y-23359D01*
X54575Y-23515D01*
X54575Y-23684D01*
X54639Y-23840D01*
X54710Y-23911D01*
X54710Y-26689D01*
X54640Y-26759D01*
X54575Y-26915D01*
X54575Y-27084D01*
X54639Y-27240D01*
X54649Y-27250D01*
X54640Y-27259D01*
X54575Y-27415D01*
X54575Y-27584D01*
X54639Y-27740D01*
X54710Y-27811D01*
X54710Y-40989D01*
X54640Y-41059D01*
X54575Y-41215D01*
X54575Y-41384D01*
X54639Y-41540D01*
X54759Y-41660D01*
X54915Y-41725D01*
X55084Y-41725D01*
X55240Y-41661D01*
X55360Y-41541D01*
X55425Y-41385D01*
X55425Y-46800D01*
X51824Y-46800D01*
X51824Y-41468D01*
X51824Y-41212D01*
X51824Y-23751D01*
X51824Y-23495D01*
X51726Y-23259D01*
X51546Y-23078D01*
X51310Y-22979D01*
X51054Y-22979D01*
X50818Y-23077D01*
X50637Y-23257D01*
X50538Y-23493D01*
X50538Y-23749D01*
X50636Y-23985D01*
X50816Y-24166D01*
X51052Y-24265D01*
X51308Y-24265D01*
X51544Y-24167D01*
X51725Y-23987D01*
X51824Y-23751D01*
X51824Y-41212D01*
X51816Y-41192D01*
X51816Y-35533D01*
X51816Y-29628D01*
X51806Y-29378D01*
X51729Y-29192D01*
X51625Y-29155D01*
X51554Y-29226D01*
X51554Y-29084D01*
X51517Y-28980D01*
X51281Y-28893D01*
X51031Y-28903D01*
X50845Y-28980D01*
X50808Y-29084D01*
X51181Y-29457D01*
X51554Y-29084D01*
X51554Y-29226D01*
X51252Y-29528D01*
X51625Y-29901D01*
X51729Y-29864D01*
X51816Y-29628D01*
X51816Y-35533D01*
X51806Y-35283D01*
X51729Y-35097D01*
X51625Y-35060D01*
X51554Y-35131D01*
X51554Y-34989D01*
X51554Y-29972D01*
X51181Y-29599D01*
X51110Y-29670D01*
X51110Y-29528D01*
X50737Y-29155D01*
X50633Y-29192D01*
X50546Y-29428D01*
X50556Y-29678D01*
X50633Y-29864D01*
X50737Y-29901D01*
X51110Y-29528D01*
X51110Y-29670D01*
X50808Y-29972D01*
X50845Y-30076D01*
X51081Y-30163D01*
X51331Y-30153D01*
X51517Y-30076D01*
X51554Y-29972D01*
X51554Y-34989D01*
X51517Y-34885D01*
X51281Y-34798D01*
X51031Y-34808D01*
X50845Y-34885D01*
X50808Y-34989D01*
X51181Y-35362D01*
X51554Y-34989D01*
X51554Y-35131D01*
X51252Y-35433D01*
X51625Y-35806D01*
X51729Y-35769D01*
X51816Y-35533D01*
X51816Y-41192D01*
X51726Y-40976D01*
X51554Y-40803D01*
X51554Y-35877D01*
X51181Y-35504D01*
X51110Y-35575D01*
X51110Y-35433D01*
X50737Y-35060D01*
X50633Y-35097D01*
X50546Y-35333D01*
X50556Y-35583D01*
X50633Y-35769D01*
X50737Y-35806D01*
X51110Y-35433D01*
X51110Y-35575D01*
X50808Y-35877D01*
X50845Y-35981D01*
X51081Y-36068D01*
X51331Y-36058D01*
X51517Y-35981D01*
X51554Y-35877D01*
X51554Y-40803D01*
X51546Y-40795D01*
X51310Y-40696D01*
X51054Y-40696D01*
X50818Y-40794D01*
X50637Y-40974D01*
X50538Y-41210D01*
X50538Y-41466D01*
X50636Y-41702D01*
X50816Y-41883D01*
X51052Y-41982D01*
X51308Y-41982D01*
X51544Y-41884D01*
X51725Y-41704D01*
X51824Y-41468D01*
X51824Y-46800D01*
X49525Y-46800D01*
X49525Y-41385D01*
X49525Y-41216D01*
X49461Y-41060D01*
X49390Y-40989D01*
X49390Y-29111D01*
X49460Y-29041D01*
X49525Y-28885D01*
X49525Y-28716D01*
X49461Y-28560D01*
X49451Y-28550D01*
X49460Y-28541D01*
X49525Y-28385D01*
X49525Y-28216D01*
X49461Y-28060D01*
X49390Y-27989D01*
X49390Y-23911D01*
X49460Y-23841D01*
X49525Y-23685D01*
X49525Y-23516D01*
X49461Y-23360D01*
X49341Y-23240D01*
X49185Y-23175D01*
X49016Y-23175D01*
X48860Y-23239D01*
X48740Y-23359D01*
X48675Y-23515D01*
X48675Y-23684D01*
X48739Y-23840D01*
X48810Y-23911D01*
X48810Y-27989D01*
X48740Y-28059D01*
X48675Y-28215D01*
X48675Y-28384D01*
X48739Y-28540D01*
X48749Y-28550D01*
X48740Y-28559D01*
X48675Y-28715D01*
X48675Y-28884D01*
X48739Y-29040D01*
X48810Y-29111D01*
X48810Y-40989D01*
X48740Y-41059D01*
X48675Y-41215D01*
X48675Y-41384D01*
X48739Y-41540D01*
X48859Y-41660D01*
X49015Y-41725D01*
X49184Y-41725D01*
X49340Y-41661D01*
X49460Y-41541D01*
X49525Y-41385D01*
X49525Y-46800D01*
X45919Y-46800D01*
X45919Y-41468D01*
X45919Y-41212D01*
X45919Y-23751D01*
X45919Y-23495D01*
X45821Y-23259D01*
X45641Y-23078D01*
X45405Y-22979D01*
X45149Y-22979D01*
X44913Y-23077D01*
X44732Y-23257D01*
X44633Y-23493D01*
X44633Y-23749D01*
X44731Y-23985D01*
X44911Y-24166D01*
X45147Y-24265D01*
X45403Y-24265D01*
X45639Y-24167D01*
X45820Y-23987D01*
X45919Y-23751D01*
X45919Y-41212D01*
X45911Y-41192D01*
X45911Y-35533D01*
X45911Y-29628D01*
X45901Y-29378D01*
X45824Y-29192D01*
X45720Y-29155D01*
X45649Y-29226D01*
X45649Y-29084D01*
X45612Y-28980D01*
X45376Y-28893D01*
X45126Y-28903D01*
X44940Y-28980D01*
X44903Y-29084D01*
X45276Y-29457D01*
X45649Y-29084D01*
X45649Y-29226D01*
X45347Y-29528D01*
X45720Y-29901D01*
X45824Y-29864D01*
X45911Y-29628D01*
X45911Y-35533D01*
X45901Y-35283D01*
X45824Y-35097D01*
X45720Y-35060D01*
X45649Y-35131D01*
X45649Y-34989D01*
X45649Y-29972D01*
X45276Y-29599D01*
X45205Y-29670D01*
X45205Y-29528D01*
X44832Y-29155D01*
X44728Y-29192D01*
X44641Y-29428D01*
X44651Y-29678D01*
X44728Y-29864D01*
X44832Y-29901D01*
X45205Y-29528D01*
X45205Y-29670D01*
X44903Y-29972D01*
X44940Y-30076D01*
X45176Y-30163D01*
X45426Y-30153D01*
X45612Y-30076D01*
X45649Y-29972D01*
X45649Y-34989D01*
X45612Y-34885D01*
X45376Y-34798D01*
X45126Y-34808D01*
X44940Y-34885D01*
X44903Y-34989D01*
X45276Y-35362D01*
X45649Y-34989D01*
X45649Y-35131D01*
X45347Y-35433D01*
X45720Y-35806D01*
X45824Y-35769D01*
X45911Y-35533D01*
X45911Y-41192D01*
X45821Y-40976D01*
X45649Y-40803D01*
X45649Y-35877D01*
X45276Y-35504D01*
X45205Y-35575D01*
X45205Y-35433D01*
X44832Y-35060D01*
X44728Y-35097D01*
X44641Y-35333D01*
X44651Y-35583D01*
X44728Y-35769D01*
X44832Y-35806D01*
X45205Y-35433D01*
X45205Y-35575D01*
X44903Y-35877D01*
X44940Y-35981D01*
X45176Y-36068D01*
X45426Y-36058D01*
X45612Y-35981D01*
X45649Y-35877D01*
X45649Y-40803D01*
X45641Y-40795D01*
X45405Y-40696D01*
X45149Y-40696D01*
X44913Y-40794D01*
X44732Y-40974D01*
X44633Y-41210D01*
X44633Y-41466D01*
X44731Y-41702D01*
X44911Y-41883D01*
X45147Y-41982D01*
X45403Y-41982D01*
X45639Y-41884D01*
X45820Y-41704D01*
X45919Y-41468D01*
X45919Y-46800D01*
X43625Y-46800D01*
X43625Y-41385D01*
X43625Y-41216D01*
X43561Y-41060D01*
X43441Y-40940D01*
X43390Y-40918D01*
X43390Y-31811D01*
X43460Y-31741D01*
X43525Y-31585D01*
X43525Y-31416D01*
X43461Y-31260D01*
X43451Y-31250D01*
X43460Y-31241D01*
X43525Y-31085D01*
X43525Y-30916D01*
X43461Y-30760D01*
X43390Y-30689D01*
X43390Y-23981D01*
X43440Y-23961D01*
X43560Y-23841D01*
X43625Y-23685D01*
X43625Y-23516D01*
X43561Y-23360D01*
X43441Y-23240D01*
X43285Y-23175D01*
X43116Y-23175D01*
X42960Y-23239D01*
X42840Y-23359D01*
X42775Y-23515D01*
X42775Y-23684D01*
X42810Y-23769D01*
X42810Y-30689D01*
X42740Y-30759D01*
X42675Y-30915D01*
X42675Y-31084D01*
X42739Y-31240D01*
X42749Y-31250D01*
X42740Y-31259D01*
X42675Y-31415D01*
X42675Y-31584D01*
X42739Y-31740D01*
X42810Y-31811D01*
X42810Y-41131D01*
X42775Y-41215D01*
X42775Y-41384D01*
X42839Y-41540D01*
X42959Y-41660D01*
X43115Y-41725D01*
X43284Y-41725D01*
X43440Y-41661D01*
X43560Y-41541D01*
X43625Y-41385D01*
X43625Y-46800D01*
X43301Y-46800D01*
X43301Y-44486D01*
X43301Y-44097D01*
X43152Y-43738D01*
X42877Y-43462D01*
X42518Y-43313D01*
X42129Y-43313D01*
X41770Y-43462D01*
X41494Y-43737D01*
X41345Y-44096D01*
X41345Y-44485D01*
X41494Y-44844D01*
X41769Y-45120D01*
X42128Y-45269D01*
X42517Y-45269D01*
X42876Y-45120D01*
X43152Y-44845D01*
X43301Y-44486D01*
X43301Y-46800D01*
X40013Y-46800D01*
X40013Y-41468D01*
X40013Y-41212D01*
X40013Y-23751D01*
X40013Y-23495D01*
X39915Y-23259D01*
X39735Y-23078D01*
X39499Y-22979D01*
X39243Y-22979D01*
X39007Y-23077D01*
X38826Y-23257D01*
X38727Y-23493D01*
X38727Y-23749D01*
X38825Y-23985D01*
X39005Y-24166D01*
X39241Y-24265D01*
X39497Y-24265D01*
X39733Y-24167D01*
X39914Y-23987D01*
X40013Y-23751D01*
X40013Y-41212D01*
X40005Y-41192D01*
X40005Y-35533D01*
X40005Y-29628D01*
X39995Y-29378D01*
X39918Y-29192D01*
X39814Y-29155D01*
X39743Y-29226D01*
X39743Y-29084D01*
X39706Y-28980D01*
X39470Y-28893D01*
X39220Y-28903D01*
X39034Y-28980D01*
X38997Y-29084D01*
X39370Y-29457D01*
X39743Y-29084D01*
X39743Y-29226D01*
X39441Y-29528D01*
X39814Y-29901D01*
X39918Y-29864D01*
X40005Y-29628D01*
X40005Y-35533D01*
X39995Y-35283D01*
X39918Y-35097D01*
X39814Y-35060D01*
X39743Y-35131D01*
X39743Y-34989D01*
X39743Y-29972D01*
X39370Y-29599D01*
X39299Y-29670D01*
X39299Y-29528D01*
X38926Y-29155D01*
X38822Y-29192D01*
X38735Y-29428D01*
X38745Y-29678D01*
X38822Y-29864D01*
X38926Y-29901D01*
X39299Y-29528D01*
X39299Y-29670D01*
X38997Y-29972D01*
X39034Y-30076D01*
X39270Y-30163D01*
X39520Y-30153D01*
X39706Y-30076D01*
X39743Y-29972D01*
X39743Y-34989D01*
X39706Y-34885D01*
X39470Y-34798D01*
X39220Y-34808D01*
X39034Y-34885D01*
X38997Y-34989D01*
X39370Y-35362D01*
X39743Y-34989D01*
X39743Y-35131D01*
X39441Y-35433D01*
X39814Y-35806D01*
X39918Y-35769D01*
X40005Y-35533D01*
X40005Y-41192D01*
X39915Y-40976D01*
X39743Y-40803D01*
X39743Y-35877D01*
X39370Y-35504D01*
X39299Y-35575D01*
X39299Y-35433D01*
X38926Y-35060D01*
X38822Y-35097D01*
X38735Y-35333D01*
X38745Y-35583D01*
X38822Y-35769D01*
X38926Y-35806D01*
X39299Y-35433D01*
X39299Y-35575D01*
X38997Y-35877D01*
X39034Y-35981D01*
X39270Y-36068D01*
X39520Y-36058D01*
X39706Y-35981D01*
X39743Y-35877D01*
X39743Y-40803D01*
X39735Y-40795D01*
X39499Y-40696D01*
X39243Y-40696D01*
X39007Y-40794D01*
X38826Y-40974D01*
X38727Y-41210D01*
X38727Y-41466D01*
X38825Y-41702D01*
X39005Y-41883D01*
X39241Y-41982D01*
X39497Y-41982D01*
X39733Y-41884D01*
X39914Y-41704D01*
X40013Y-41468D01*
X40013Y-46800D01*
X37725Y-46800D01*
X37725Y-41385D01*
X37725Y-41216D01*
X37661Y-41060D01*
X37590Y-40989D01*
X37590Y-33811D01*
X37660Y-33741D01*
X37725Y-33585D01*
X37725Y-33416D01*
X37661Y-33260D01*
X37651Y-33250D01*
X37660Y-33241D01*
X37725Y-33085D01*
X37725Y-32916D01*
X37661Y-32760D01*
X37590Y-32689D01*
X37590Y-23911D01*
X37660Y-23841D01*
X37725Y-23685D01*
X37725Y-23516D01*
X37661Y-23360D01*
X37541Y-23240D01*
X37385Y-23175D01*
X37216Y-23175D01*
X37060Y-23239D01*
X36940Y-23359D01*
X36875Y-23515D01*
X36875Y-23684D01*
X36939Y-23840D01*
X37010Y-23911D01*
X37010Y-32689D01*
X36940Y-32759D01*
X36875Y-32915D01*
X36875Y-33084D01*
X36939Y-33240D01*
X36949Y-33250D01*
X36940Y-33259D01*
X36875Y-33415D01*
X36875Y-33584D01*
X36939Y-33740D01*
X37010Y-33811D01*
X37010Y-40989D01*
X36940Y-41059D01*
X36875Y-41215D01*
X36875Y-41384D01*
X36939Y-41540D01*
X37059Y-41660D01*
X37215Y-41725D01*
X37384Y-41725D01*
X37540Y-41661D01*
X37660Y-41541D01*
X37725Y-41385D01*
X37725Y-46800D01*
X34108Y-46800D01*
X34108Y-41468D01*
X34108Y-41212D01*
X34108Y-23751D01*
X34108Y-23495D01*
X34010Y-23259D01*
X33830Y-23078D01*
X33594Y-22979D01*
X33338Y-22979D01*
X33102Y-23077D01*
X32921Y-23257D01*
X32822Y-23493D01*
X32822Y-23749D01*
X32920Y-23985D01*
X33100Y-24166D01*
X33336Y-24265D01*
X33592Y-24265D01*
X33828Y-24167D01*
X34009Y-23987D01*
X34108Y-23751D01*
X34108Y-41212D01*
X34100Y-41192D01*
X34100Y-35533D01*
X34100Y-29628D01*
X34090Y-29378D01*
X34013Y-29192D01*
X33909Y-29155D01*
X33838Y-29226D01*
X33838Y-29084D01*
X33801Y-28980D01*
X33565Y-28893D01*
X33315Y-28903D01*
X33129Y-28980D01*
X33092Y-29084D01*
X33465Y-29457D01*
X33838Y-29084D01*
X33838Y-29226D01*
X33536Y-29528D01*
X33909Y-29901D01*
X34013Y-29864D01*
X34100Y-29628D01*
X34100Y-35533D01*
X34090Y-35283D01*
X34013Y-35097D01*
X33909Y-35060D01*
X33838Y-35131D01*
X33838Y-34989D01*
X33838Y-29972D01*
X33465Y-29599D01*
X33394Y-29670D01*
X33394Y-29528D01*
X33021Y-29155D01*
X32917Y-29192D01*
X32830Y-29428D01*
X32840Y-29678D01*
X32917Y-29864D01*
X33021Y-29901D01*
X33394Y-29528D01*
X33394Y-29670D01*
X33092Y-29972D01*
X33129Y-30076D01*
X33365Y-30163D01*
X33615Y-30153D01*
X33801Y-30076D01*
X33838Y-29972D01*
X33838Y-34989D01*
X33801Y-34885D01*
X33565Y-34798D01*
X33315Y-34808D01*
X33129Y-34885D01*
X33092Y-34989D01*
X33465Y-35362D01*
X33838Y-34989D01*
X33838Y-35131D01*
X33536Y-35433D01*
X33909Y-35806D01*
X34013Y-35769D01*
X34100Y-35533D01*
X34100Y-41192D01*
X34010Y-40976D01*
X33838Y-40803D01*
X33838Y-35877D01*
X33465Y-35504D01*
X33394Y-35575D01*
X33394Y-35433D01*
X33021Y-35060D01*
X32917Y-35097D01*
X32830Y-35333D01*
X32840Y-35583D01*
X32917Y-35769D01*
X33021Y-35806D01*
X33394Y-35433D01*
X33394Y-35575D01*
X33092Y-35877D01*
X33129Y-35981D01*
X33365Y-36068D01*
X33615Y-36058D01*
X33801Y-35981D01*
X33838Y-35877D01*
X33838Y-40803D01*
X33830Y-40795D01*
X33594Y-40696D01*
X33338Y-40696D01*
X33102Y-40794D01*
X32921Y-40974D01*
X32822Y-41210D01*
X32822Y-41466D01*
X32920Y-41702D01*
X33100Y-41883D01*
X33336Y-41982D01*
X33592Y-41982D01*
X33828Y-41884D01*
X34009Y-41704D01*
X34108Y-41468D01*
X34108Y-46800D01*
X31825Y-46800D01*
X31825Y-41385D01*
X31825Y-41216D01*
X31761Y-41060D01*
X31690Y-40989D01*
X31690Y-35011D01*
X31760Y-34941D01*
X31825Y-34785D01*
X31825Y-34616D01*
X31761Y-34460D01*
X31751Y-34450D01*
X31760Y-34441D01*
X31825Y-34285D01*
X31825Y-34116D01*
X31761Y-33960D01*
X31690Y-33889D01*
X31690Y-23911D01*
X31760Y-23841D01*
X31825Y-23685D01*
X31825Y-23516D01*
X31761Y-23360D01*
X31641Y-23240D01*
X31485Y-23175D01*
X31316Y-23175D01*
X31160Y-23239D01*
X31040Y-23359D01*
X30975Y-23515D01*
X30975Y-23684D01*
X31039Y-23840D01*
X31110Y-23911D01*
X31110Y-33889D01*
X31040Y-33959D01*
X30975Y-34115D01*
X30975Y-34284D01*
X31039Y-34440D01*
X31049Y-34450D01*
X31040Y-34459D01*
X30975Y-34615D01*
X30975Y-34784D01*
X31039Y-34940D01*
X31110Y-35011D01*
X31110Y-40989D01*
X31040Y-41059D01*
X30975Y-41215D01*
X30975Y-41384D01*
X31039Y-41540D01*
X31159Y-41660D01*
X31315Y-41725D01*
X31484Y-41725D01*
X31640Y-41661D01*
X31760Y-41541D01*
X31825Y-41385D01*
X31825Y-46800D01*
X28202Y-46800D01*
X28202Y-41468D01*
X28202Y-41212D01*
X28202Y-23751D01*
X28202Y-23495D01*
X28104Y-23259D01*
X27924Y-23078D01*
X27688Y-22979D01*
X27432Y-22979D01*
X27196Y-23077D01*
X27015Y-23257D01*
X26916Y-23493D01*
X26916Y-23749D01*
X27014Y-23985D01*
X27194Y-24166D01*
X27430Y-24265D01*
X27686Y-24265D01*
X27922Y-24167D01*
X28103Y-23987D01*
X28202Y-23751D01*
X28202Y-41212D01*
X28194Y-41192D01*
X28194Y-35533D01*
X28194Y-29628D01*
X28184Y-29378D01*
X28107Y-29192D01*
X28003Y-29155D01*
X27932Y-29226D01*
X27932Y-29084D01*
X27895Y-28980D01*
X27659Y-28893D01*
X27409Y-28903D01*
X27223Y-28980D01*
X27186Y-29084D01*
X27559Y-29457D01*
X27932Y-29084D01*
X27932Y-29226D01*
X27630Y-29528D01*
X28003Y-29901D01*
X28107Y-29864D01*
X28194Y-29628D01*
X28194Y-35533D01*
X28184Y-35283D01*
X28107Y-35097D01*
X28003Y-35060D01*
X27932Y-35131D01*
X27932Y-34989D01*
X27932Y-29972D01*
X27559Y-29599D01*
X27488Y-29670D01*
X27488Y-29528D01*
X27115Y-29155D01*
X27011Y-29192D01*
X26924Y-29428D01*
X26934Y-29678D01*
X27011Y-29864D01*
X27115Y-29901D01*
X27488Y-29528D01*
X27488Y-29670D01*
X27186Y-29972D01*
X27223Y-30076D01*
X27459Y-30163D01*
X27709Y-30153D01*
X27895Y-30076D01*
X27932Y-29972D01*
X27932Y-34989D01*
X27895Y-34885D01*
X27659Y-34798D01*
X27409Y-34808D01*
X27223Y-34885D01*
X27186Y-34989D01*
X27559Y-35362D01*
X27932Y-34989D01*
X27932Y-35131D01*
X27630Y-35433D01*
X28003Y-35806D01*
X28107Y-35769D01*
X28194Y-35533D01*
X28194Y-41192D01*
X28104Y-40976D01*
X27932Y-40803D01*
X27932Y-35877D01*
X27559Y-35504D01*
X27488Y-35575D01*
X27488Y-35433D01*
X27115Y-35060D01*
X27011Y-35097D01*
X26924Y-35333D01*
X26934Y-35583D01*
X27011Y-35769D01*
X27115Y-35806D01*
X27488Y-35433D01*
X27488Y-35575D01*
X27186Y-35877D01*
X27223Y-35981D01*
X27459Y-36068D01*
X27709Y-36058D01*
X27895Y-35981D01*
X27932Y-35877D01*
X27932Y-40803D01*
X27924Y-40795D01*
X27688Y-40696D01*
X27432Y-40696D01*
X27196Y-40794D01*
X27015Y-40974D01*
X26916Y-41210D01*
X26916Y-41466D01*
X27014Y-41702D01*
X27194Y-41883D01*
X27430Y-41982D01*
X27686Y-41982D01*
X27922Y-41884D01*
X28103Y-41704D01*
X28202Y-41468D01*
X28202Y-46800D01*
X25925Y-46800D01*
X25925Y-41385D01*
X25925Y-41216D01*
X25861Y-41060D01*
X25790Y-40989D01*
X25790Y-37811D01*
X25860Y-37741D01*
X25925Y-37585D01*
X25925Y-37416D01*
X25861Y-37260D01*
X25851Y-37250D01*
X25860Y-37241D01*
X25925Y-37085D01*
X25925Y-36916D01*
X25861Y-36760D01*
X25790Y-36689D01*
X25790Y-23911D01*
X25860Y-23841D01*
X25925Y-23685D01*
X25925Y-23516D01*
X25861Y-23360D01*
X25741Y-23240D01*
X25585Y-23175D01*
X25416Y-23175D01*
X25260Y-23239D01*
X25140Y-23359D01*
X25075Y-23515D01*
X25075Y-23684D01*
X25139Y-23840D01*
X25210Y-23911D01*
X25210Y-36689D01*
X25140Y-36759D01*
X25075Y-36915D01*
X25075Y-37084D01*
X25139Y-37240D01*
X25149Y-37250D01*
X25140Y-37259D01*
X25075Y-37415D01*
X25075Y-37584D01*
X25139Y-37740D01*
X25210Y-37811D01*
X25210Y-40989D01*
X25140Y-41059D01*
X25075Y-41215D01*
X25075Y-41384D01*
X25139Y-41540D01*
X25259Y-41660D01*
X25415Y-41725D01*
X25584Y-41725D01*
X25740Y-41661D01*
X25860Y-41541D01*
X25925Y-41385D01*
X25925Y-46800D01*
X25052Y-46800D01*
X25052Y-44380D01*
X25052Y-44203D01*
X25052Y-22727D01*
X25052Y-22550D01*
X24984Y-22386D01*
X24859Y-22260D01*
X24695Y-22192D01*
X24518Y-22192D01*
X24354Y-22260D01*
X24228Y-22385D01*
X24160Y-22549D01*
X24160Y-22726D01*
X24228Y-22890D01*
X24353Y-23016D01*
X24517Y-23084D01*
X24694Y-23084D01*
X24858Y-23016D01*
X24984Y-22891D01*
X25052Y-22727D01*
X25052Y-44203D01*
X24984Y-44039D01*
X24859Y-43913D01*
X24695Y-43845D01*
X24518Y-43845D01*
X24354Y-43913D01*
X24228Y-44038D01*
X24160Y-44202D01*
X24160Y-44379D01*
X24228Y-44543D01*
X24353Y-44669D01*
X24517Y-44737D01*
X24694Y-44737D01*
X24858Y-44669D01*
X24984Y-44544D01*
X25052Y-44380D01*
X25052Y-46800D01*
X22297Y-46800D01*
X22297Y-41468D01*
X22297Y-41212D01*
X22297Y-23751D01*
X22297Y-23495D01*
X22199Y-23259D01*
X22019Y-23078D01*
X21783Y-22979D01*
X21527Y-22979D01*
X21291Y-23077D01*
X21110Y-23257D01*
X21011Y-23493D01*
X21011Y-23749D01*
X21109Y-23985D01*
X21289Y-24166D01*
X21525Y-24265D01*
X21781Y-24265D01*
X22017Y-24167D01*
X22198Y-23987D01*
X22297Y-23751D01*
X22297Y-41212D01*
X22289Y-41192D01*
X22289Y-35533D01*
X22289Y-29628D01*
X22279Y-29378D01*
X22202Y-29192D01*
X22098Y-29155D01*
X22027Y-29226D01*
X22027Y-29084D01*
X21990Y-28980D01*
X21754Y-28893D01*
X21504Y-28903D01*
X21318Y-28980D01*
X21281Y-29084D01*
X21654Y-29457D01*
X22027Y-29084D01*
X22027Y-29226D01*
X21725Y-29528D01*
X22098Y-29901D01*
X22202Y-29864D01*
X22289Y-29628D01*
X22289Y-35533D01*
X22279Y-35283D01*
X22202Y-35097D01*
X22098Y-35060D01*
X22027Y-35131D01*
X22027Y-34989D01*
X22027Y-29972D01*
X21654Y-29599D01*
X21583Y-29670D01*
X21583Y-29528D01*
X21210Y-29155D01*
X21106Y-29192D01*
X21019Y-29428D01*
X21029Y-29678D01*
X21106Y-29864D01*
X21210Y-29901D01*
X21583Y-29528D01*
X21583Y-29670D01*
X21281Y-29972D01*
X21318Y-30076D01*
X21554Y-30163D01*
X21804Y-30153D01*
X21990Y-30076D01*
X22027Y-29972D01*
X22027Y-34989D01*
X21990Y-34885D01*
X21754Y-34798D01*
X21504Y-34808D01*
X21318Y-34885D01*
X21281Y-34989D01*
X21654Y-35362D01*
X22027Y-34989D01*
X22027Y-35131D01*
X21725Y-35433D01*
X22098Y-35806D01*
X22202Y-35769D01*
X22289Y-35533D01*
X22289Y-41192D01*
X22199Y-40976D01*
X22027Y-40803D01*
X22027Y-35877D01*
X21654Y-35504D01*
X21583Y-35575D01*
X21583Y-35433D01*
X21210Y-35060D01*
X21106Y-35097D01*
X21019Y-35333D01*
X21029Y-35583D01*
X21106Y-35769D01*
X21210Y-35806D01*
X21583Y-35433D01*
X21583Y-35575D01*
X21281Y-35877D01*
X21318Y-35981D01*
X21554Y-36068D01*
X21804Y-36058D01*
X21990Y-35981D01*
X22027Y-35877D01*
X22027Y-40803D01*
X22019Y-40795D01*
X21783Y-40696D01*
X21527Y-40696D01*
X21291Y-40794D01*
X21110Y-40974D01*
X21011Y-41210D01*
X21011Y-41466D01*
X21109Y-41702D01*
X21289Y-41883D01*
X21525Y-41982D01*
X21781Y-41982D01*
X22017Y-41884D01*
X22198Y-41704D01*
X22297Y-41468D01*
X22297Y-46800D01*
X20025Y-46800D01*
X20025Y-41385D01*
X20025Y-41216D01*
X19961Y-41060D01*
X19890Y-40989D01*
X19890Y-39811D01*
X19960Y-39741D01*
X20025Y-39585D01*
X20025Y-39416D01*
X19961Y-39260D01*
X19951Y-39250D01*
X19960Y-39241D01*
X20025Y-39085D01*
X20025Y-38916D01*
X19961Y-38760D01*
X19890Y-38689D01*
X19890Y-23911D01*
X19960Y-23841D01*
X20025Y-23685D01*
X20025Y-23516D01*
X19961Y-23360D01*
X19841Y-23240D01*
X19685Y-23175D01*
X19516Y-23175D01*
X19360Y-23239D01*
X19240Y-23359D01*
X19175Y-23515D01*
X19175Y-23684D01*
X19239Y-23840D01*
X19310Y-23911D01*
X19310Y-38689D01*
X19240Y-38759D01*
X19175Y-38915D01*
X19175Y-39084D01*
X19239Y-39240D01*
X19249Y-39250D01*
X19240Y-39259D01*
X19175Y-39415D01*
X19175Y-39584D01*
X19239Y-39740D01*
X19310Y-39811D01*
X19310Y-40989D01*
X19240Y-41059D01*
X19175Y-41215D01*
X19175Y-41384D01*
X19239Y-41540D01*
X19359Y-41660D01*
X19515Y-41725D01*
X19684Y-41725D01*
X19840Y-41661D01*
X19960Y-41541D01*
X20025Y-41385D01*
X20025Y-46800D01*
X19679Y-46800D01*
X19679Y-44486D01*
X19679Y-44097D01*
X19530Y-43738D01*
X19255Y-43462D01*
X18896Y-43313D01*
X18507Y-43313D01*
X18148Y-43462D01*
X17872Y-43737D01*
X17723Y-44096D01*
X17723Y-44485D01*
X17872Y-44844D01*
X18147Y-45120D01*
X18506Y-45269D01*
X18895Y-45269D01*
X19254Y-45120D01*
X19530Y-44845D01*
X19679Y-44486D01*
X19679Y-46800D01*
X17549Y-46800D01*
X17549Y-39109D01*
X17549Y-38891D01*
X17549Y-37109D01*
X17549Y-36891D01*
X17549Y-35109D01*
X17549Y-34891D01*
X17549Y-33109D01*
X17549Y-32891D01*
X17549Y-31109D01*
X17549Y-30891D01*
X17549Y-29109D01*
X17549Y-28891D01*
X17549Y-27109D01*
X17549Y-26891D01*
X17549Y-25109D01*
X17549Y-24891D01*
X17543Y-24876D01*
X17543Y-24079D01*
X17543Y-23079D01*
X17532Y-22866D01*
X17472Y-22719D01*
X17378Y-22692D01*
X17308Y-22762D01*
X17308Y-22622D01*
X17281Y-22528D01*
X17079Y-22457D01*
X16951Y-22463D01*
X16951Y-20457D01*
X16951Y-20358D01*
X16951Y-20044D01*
X16913Y-19952D01*
X16843Y-19882D01*
X16752Y-19844D01*
X16653Y-19844D01*
X16339Y-19844D01*
X16250Y-19880D01*
X16161Y-19844D01*
X16067Y-19843D01*
X16005Y-19905D01*
X16005Y-20150D01*
X16005Y-20200D01*
X16005Y-20300D01*
X16005Y-20350D01*
X16005Y-20595D01*
X16067Y-20657D01*
X16161Y-20656D01*
X16249Y-20619D01*
X16260Y-20623D01*
X16260Y-21088D01*
X16250Y-21098D01*
X16216Y-21064D01*
X16125Y-21026D01*
X16026Y-21026D01*
X15905Y-21026D01*
X15905Y-20595D01*
X15905Y-20300D01*
X15905Y-20200D01*
X15905Y-19905D01*
X15843Y-19843D01*
X15749Y-19844D01*
X15657Y-19882D01*
X15587Y-19952D01*
X15549Y-20043D01*
X15549Y-20139D01*
X15610Y-20200D01*
X15905Y-20200D01*
X15905Y-20300D01*
X15610Y-20300D01*
X15549Y-20361D01*
X15549Y-20457D01*
X15587Y-20548D01*
X15657Y-20618D01*
X15749Y-20656D01*
X15843Y-20657D01*
X15905Y-20595D01*
X15905Y-21026D01*
X15776Y-21026D01*
X15684Y-21064D01*
X15614Y-21134D01*
X15576Y-21225D01*
X15576Y-21324D01*
X15576Y-21774D01*
X15614Y-21866D01*
X15684Y-21936D01*
X15710Y-21946D01*
X15710Y-22451D01*
X15651Y-22451D01*
X15559Y-22489D01*
X15489Y-22559D01*
X15451Y-22650D01*
X15451Y-22749D01*
X15451Y-23349D01*
X15489Y-23441D01*
X15559Y-23511D01*
X15650Y-23549D01*
X15712Y-23549D01*
X15692Y-23622D01*
X16000Y-23929D01*
X16308Y-23622D01*
X16287Y-23549D01*
X16349Y-23549D01*
X16441Y-23511D01*
X16511Y-23441D01*
X16549Y-23350D01*
X16549Y-23287D01*
X16622Y-23308D01*
X16929Y-23000D01*
X16622Y-22692D01*
X16549Y-22712D01*
X16549Y-22651D01*
X16511Y-22559D01*
X16441Y-22489D01*
X16350Y-22451D01*
X16290Y-22451D01*
X16290Y-21938D01*
X16375Y-21974D01*
X16474Y-21974D01*
X16724Y-21974D01*
X16816Y-21936D01*
X16886Y-21866D01*
X16924Y-21775D01*
X16924Y-21676D01*
X16924Y-21226D01*
X16886Y-21134D01*
X16840Y-21088D01*
X16840Y-20619D01*
X16843Y-20618D01*
X16913Y-20548D01*
X16951Y-20457D01*
X16951Y-22463D01*
X16866Y-22468D01*
X16719Y-22528D01*
X16692Y-22622D01*
X17000Y-22929D01*
X17308Y-22622D01*
X17308Y-22762D01*
X17071Y-23000D01*
X17378Y-23308D01*
X17472Y-23281D01*
X17543Y-23079D01*
X17543Y-24079D01*
X17532Y-23866D01*
X17472Y-23719D01*
X17378Y-23692D01*
X17308Y-23762D01*
X17308Y-23622D01*
X17281Y-23528D01*
X17207Y-23502D01*
X17281Y-23472D01*
X17308Y-23378D01*
X17000Y-23071D01*
X16692Y-23378D01*
X16719Y-23472D01*
X16792Y-23497D01*
X16719Y-23528D01*
X16692Y-23622D01*
X17000Y-23929D01*
X17308Y-23622D01*
X17308Y-23762D01*
X17071Y-24000D01*
X17378Y-24308D01*
X17472Y-24281D01*
X17543Y-24079D01*
X17543Y-24876D01*
X17465Y-24689D01*
X17311Y-24535D01*
X17219Y-24497D01*
X17281Y-24472D01*
X17308Y-24378D01*
X17000Y-24071D01*
X16929Y-24141D01*
X16929Y-24000D01*
X16622Y-23692D01*
X16528Y-23719D01*
X16502Y-23792D01*
X16472Y-23719D01*
X16378Y-23692D01*
X16071Y-24000D01*
X16378Y-24308D01*
X16472Y-24281D01*
X16497Y-24207D01*
X16528Y-24281D01*
X16622Y-24308D01*
X16929Y-24000D01*
X16929Y-24141D01*
X16692Y-24378D01*
X16719Y-24472D01*
X16784Y-24495D01*
X16689Y-24535D01*
X16535Y-24689D01*
X16500Y-24773D01*
X16465Y-24689D01*
X16311Y-24535D01*
X16219Y-24497D01*
X16281Y-24472D01*
X16308Y-24378D01*
X16000Y-24071D01*
X15929Y-24141D01*
X15929Y-24000D01*
X15622Y-23692D01*
X15528Y-23719D01*
X15457Y-23921D01*
X15468Y-24134D01*
X15528Y-24281D01*
X15622Y-24308D01*
X15929Y-24000D01*
X15929Y-24141D01*
X15692Y-24378D01*
X15719Y-24472D01*
X15784Y-24495D01*
X15689Y-24535D01*
X15535Y-24689D01*
X15451Y-24891D01*
X15451Y-25109D01*
X15535Y-25311D01*
X15689Y-25465D01*
X15780Y-25502D01*
X15719Y-25528D01*
X15692Y-25622D01*
X16000Y-25929D01*
X16308Y-25622D01*
X16281Y-25528D01*
X16215Y-25504D01*
X16311Y-25465D01*
X16465Y-25311D01*
X16500Y-25226D01*
X16535Y-25311D01*
X16689Y-25465D01*
X16780Y-25502D01*
X16719Y-25528D01*
X16692Y-25622D01*
X17000Y-25929D01*
X17308Y-25622D01*
X17281Y-25528D01*
X17215Y-25504D01*
X17311Y-25465D01*
X17465Y-25311D01*
X17549Y-25109D01*
X17549Y-26891D01*
X17543Y-26876D01*
X17543Y-26079D01*
X17532Y-25866D01*
X17472Y-25719D01*
X17378Y-25692D01*
X17071Y-26000D01*
X17378Y-26308D01*
X17472Y-26281D01*
X17543Y-26079D01*
X17543Y-26876D01*
X17465Y-26689D01*
X17311Y-26535D01*
X17219Y-26497D01*
X17281Y-26472D01*
X17308Y-26378D01*
X17000Y-26071D01*
X16929Y-26141D01*
X16929Y-26000D01*
X16622Y-25692D01*
X16528Y-25719D01*
X16502Y-25792D01*
X16472Y-25719D01*
X16378Y-25692D01*
X16071Y-26000D01*
X16378Y-26308D01*
X16472Y-26281D01*
X16497Y-26207D01*
X16528Y-26281D01*
X16622Y-26308D01*
X16929Y-26000D01*
X16929Y-26141D01*
X16692Y-26378D01*
X16719Y-26472D01*
X16784Y-26495D01*
X16689Y-26535D01*
X16535Y-26689D01*
X16500Y-26773D01*
X16465Y-26689D01*
X16311Y-26535D01*
X16219Y-26497D01*
X16281Y-26472D01*
X16308Y-26378D01*
X16000Y-26071D01*
X15929Y-26141D01*
X15929Y-26000D01*
X15622Y-25692D01*
X15528Y-25719D01*
X15457Y-25921D01*
X15468Y-26134D01*
X15528Y-26281D01*
X15622Y-26308D01*
X15929Y-26000D01*
X15929Y-26141D01*
X15692Y-26378D01*
X15719Y-26472D01*
X15784Y-26495D01*
X15689Y-26535D01*
X15535Y-26689D01*
X15451Y-26891D01*
X15451Y-27109D01*
X15535Y-27311D01*
X15689Y-27465D01*
X15780Y-27502D01*
X15719Y-27528D01*
X15692Y-27622D01*
X16000Y-27929D01*
X16308Y-27622D01*
X16281Y-27528D01*
X16215Y-27504D01*
X16311Y-27465D01*
X16465Y-27311D01*
X16500Y-27226D01*
X16535Y-27311D01*
X16689Y-27465D01*
X16780Y-27502D01*
X16719Y-27528D01*
X16692Y-27622D01*
X17000Y-27929D01*
X17308Y-27622D01*
X17281Y-27528D01*
X17215Y-27504D01*
X17311Y-27465D01*
X17465Y-27311D01*
X17549Y-27109D01*
X17549Y-28891D01*
X17543Y-28876D01*
X17543Y-28079D01*
X17532Y-27866D01*
X17472Y-27719D01*
X17378Y-27692D01*
X17071Y-28000D01*
X17378Y-28308D01*
X17472Y-28281D01*
X17543Y-28079D01*
X17543Y-28876D01*
X17465Y-28689D01*
X17311Y-28535D01*
X17219Y-28497D01*
X17281Y-28472D01*
X17308Y-28378D01*
X17000Y-28071D01*
X16929Y-28141D01*
X16929Y-28000D01*
X16622Y-27692D01*
X16528Y-27719D01*
X16502Y-27792D01*
X16472Y-27719D01*
X16378Y-27692D01*
X16071Y-28000D01*
X16378Y-28308D01*
X16472Y-28281D01*
X16497Y-28207D01*
X16528Y-28281D01*
X16622Y-28308D01*
X16929Y-28000D01*
X16929Y-28141D01*
X16692Y-28378D01*
X16719Y-28472D01*
X16784Y-28495D01*
X16689Y-28535D01*
X16535Y-28689D01*
X16500Y-28773D01*
X16465Y-28689D01*
X16311Y-28535D01*
X16219Y-28497D01*
X16281Y-28472D01*
X16308Y-28378D01*
X16000Y-28071D01*
X15929Y-28141D01*
X15929Y-28000D01*
X15622Y-27692D01*
X15528Y-27719D01*
X15457Y-27921D01*
X15468Y-28134D01*
X15528Y-28281D01*
X15622Y-28308D01*
X15929Y-28000D01*
X15929Y-28141D01*
X15692Y-28378D01*
X15719Y-28472D01*
X15784Y-28495D01*
X15689Y-28535D01*
X15535Y-28689D01*
X15451Y-28891D01*
X15451Y-29109D01*
X15535Y-29311D01*
X15689Y-29465D01*
X15780Y-29502D01*
X15719Y-29528D01*
X15692Y-29622D01*
X16000Y-29929D01*
X16308Y-29622D01*
X16281Y-29528D01*
X16215Y-29504D01*
X16311Y-29465D01*
X16465Y-29311D01*
X16500Y-29226D01*
X16535Y-29311D01*
X16689Y-29465D01*
X16780Y-29502D01*
X16719Y-29528D01*
X16692Y-29622D01*
X17000Y-29929D01*
X17308Y-29622D01*
X17281Y-29528D01*
X17215Y-29504D01*
X17311Y-29465D01*
X17465Y-29311D01*
X17549Y-29109D01*
X17549Y-30891D01*
X17543Y-30876D01*
X17543Y-30079D01*
X17532Y-29866D01*
X17472Y-29719D01*
X17378Y-29692D01*
X17071Y-30000D01*
X17378Y-30308D01*
X17472Y-30281D01*
X17543Y-30079D01*
X17543Y-30876D01*
X17465Y-30689D01*
X17311Y-30535D01*
X17219Y-30497D01*
X17281Y-30472D01*
X17308Y-30378D01*
X17000Y-30071D01*
X16929Y-30141D01*
X16929Y-30000D01*
X16622Y-29692D01*
X16528Y-29719D01*
X16502Y-29792D01*
X16472Y-29719D01*
X16378Y-29692D01*
X16071Y-30000D01*
X16378Y-30308D01*
X16472Y-30281D01*
X16497Y-30207D01*
X16528Y-30281D01*
X16622Y-30308D01*
X16929Y-30000D01*
X16929Y-30141D01*
X16692Y-30378D01*
X16719Y-30472D01*
X16784Y-30495D01*
X16689Y-30535D01*
X16535Y-30689D01*
X16500Y-30773D01*
X16465Y-30689D01*
X16311Y-30535D01*
X16219Y-30497D01*
X16281Y-30472D01*
X16308Y-30378D01*
X16000Y-30071D01*
X15929Y-30141D01*
X15929Y-30000D01*
X15622Y-29692D01*
X15528Y-29719D01*
X15457Y-29921D01*
X15468Y-30134D01*
X15528Y-30281D01*
X15622Y-30308D01*
X15929Y-30000D01*
X15929Y-30141D01*
X15692Y-30378D01*
X15719Y-30472D01*
X15784Y-30495D01*
X15689Y-30535D01*
X15535Y-30689D01*
X15451Y-30891D01*
X15451Y-31109D01*
X15535Y-31311D01*
X15689Y-31465D01*
X15780Y-31502D01*
X15719Y-31528D01*
X15692Y-31622D01*
X16000Y-31929D01*
X16308Y-31622D01*
X16281Y-31528D01*
X16215Y-31504D01*
X16311Y-31465D01*
X16465Y-31311D01*
X16500Y-31226D01*
X16535Y-31311D01*
X16689Y-31465D01*
X16780Y-31502D01*
X16719Y-31528D01*
X16692Y-31622D01*
X17000Y-31929D01*
X17308Y-31622D01*
X17281Y-31528D01*
X17215Y-31504D01*
X17311Y-31465D01*
X17465Y-31311D01*
X17549Y-31109D01*
X17549Y-32891D01*
X17543Y-32876D01*
X17543Y-32079D01*
X17532Y-31866D01*
X17472Y-31719D01*
X17378Y-31692D01*
X17071Y-32000D01*
X17378Y-32308D01*
X17472Y-32281D01*
X17543Y-32079D01*
X17543Y-32876D01*
X17465Y-32689D01*
X17311Y-32535D01*
X17219Y-32497D01*
X17281Y-32472D01*
X17308Y-32378D01*
X17000Y-32071D01*
X16929Y-32141D01*
X16929Y-32000D01*
X16622Y-31692D01*
X16528Y-31719D01*
X16502Y-31792D01*
X16472Y-31719D01*
X16378Y-31692D01*
X16071Y-32000D01*
X16378Y-32308D01*
X16472Y-32281D01*
X16497Y-32207D01*
X16528Y-32281D01*
X16622Y-32308D01*
X16929Y-32000D01*
X16929Y-32141D01*
X16692Y-32378D01*
X16719Y-32472D01*
X16784Y-32495D01*
X16689Y-32535D01*
X16535Y-32689D01*
X16500Y-32773D01*
X16465Y-32689D01*
X16311Y-32535D01*
X16219Y-32497D01*
X16281Y-32472D01*
X16308Y-32378D01*
X16000Y-32071D01*
X15929Y-32141D01*
X15929Y-32000D01*
X15622Y-31692D01*
X15528Y-31719D01*
X15457Y-31921D01*
X15468Y-32134D01*
X15528Y-32281D01*
X15622Y-32308D01*
X15929Y-32000D01*
X15929Y-32141D01*
X15692Y-32378D01*
X15719Y-32472D01*
X15784Y-32495D01*
X15689Y-32535D01*
X15535Y-32689D01*
X15451Y-32891D01*
X15451Y-33109D01*
X15535Y-33311D01*
X15689Y-33465D01*
X15780Y-33502D01*
X15719Y-33528D01*
X15692Y-33622D01*
X16000Y-33929D01*
X16308Y-33622D01*
X16281Y-33528D01*
X16215Y-33504D01*
X16311Y-33465D01*
X16465Y-33311D01*
X16500Y-33226D01*
X16535Y-33311D01*
X16689Y-33465D01*
X16780Y-33502D01*
X16719Y-33528D01*
X16692Y-33622D01*
X17000Y-33929D01*
X17308Y-33622D01*
X17281Y-33528D01*
X17215Y-33504D01*
X17311Y-33465D01*
X17465Y-33311D01*
X17549Y-33109D01*
X17549Y-34891D01*
X17543Y-34876D01*
X17543Y-34079D01*
X17532Y-33866D01*
X17472Y-33719D01*
X17378Y-33692D01*
X17071Y-34000D01*
X17378Y-34308D01*
X17472Y-34281D01*
X17543Y-34079D01*
X17543Y-34876D01*
X17465Y-34689D01*
X17311Y-34535D01*
X17219Y-34497D01*
X17281Y-34472D01*
X17308Y-34378D01*
X17000Y-34071D01*
X16929Y-34141D01*
X16929Y-34000D01*
X16622Y-33692D01*
X16528Y-33719D01*
X16502Y-33792D01*
X16472Y-33719D01*
X16378Y-33692D01*
X16071Y-34000D01*
X16378Y-34308D01*
X16472Y-34281D01*
X16497Y-34207D01*
X16528Y-34281D01*
X16622Y-34308D01*
X16929Y-34000D01*
X16929Y-34141D01*
X16692Y-34378D01*
X16719Y-34472D01*
X16784Y-34495D01*
X16689Y-34535D01*
X16535Y-34689D01*
X16500Y-34773D01*
X16465Y-34689D01*
X16311Y-34535D01*
X16219Y-34497D01*
X16281Y-34472D01*
X16308Y-34378D01*
X16000Y-34071D01*
X15929Y-34141D01*
X15929Y-34000D01*
X15622Y-33692D01*
X15528Y-33719D01*
X15457Y-33921D01*
X15468Y-34134D01*
X15528Y-34281D01*
X15622Y-34308D01*
X15929Y-34000D01*
X15929Y-34141D01*
X15692Y-34378D01*
X15719Y-34472D01*
X15784Y-34495D01*
X15689Y-34535D01*
X15535Y-34689D01*
X15451Y-34891D01*
X15451Y-35109D01*
X15535Y-35311D01*
X15689Y-35465D01*
X15780Y-35502D01*
X15719Y-35528D01*
X15692Y-35622D01*
X16000Y-35929D01*
X16308Y-35622D01*
X16281Y-35528D01*
X16215Y-35504D01*
X16311Y-35465D01*
X16465Y-35311D01*
X16500Y-35226D01*
X16535Y-35311D01*
X16689Y-35465D01*
X16780Y-35502D01*
X16719Y-35528D01*
X16692Y-35622D01*
X17000Y-35929D01*
X17308Y-35622D01*
X17281Y-35528D01*
X17215Y-35504D01*
X17311Y-35465D01*
X17465Y-35311D01*
X17549Y-35109D01*
X17549Y-36891D01*
X17543Y-36876D01*
X17543Y-36079D01*
X17532Y-35866D01*
X17472Y-35719D01*
X17378Y-35692D01*
X17071Y-36000D01*
X17378Y-36308D01*
X17472Y-36281D01*
X17543Y-36079D01*
X17543Y-36876D01*
X17465Y-36689D01*
X17311Y-36535D01*
X17219Y-36497D01*
X17281Y-36472D01*
X17308Y-36378D01*
X17000Y-36071D01*
X16929Y-36141D01*
X16929Y-36000D01*
X16622Y-35692D01*
X16528Y-35719D01*
X16502Y-35792D01*
X16472Y-35719D01*
X16378Y-35692D01*
X16071Y-36000D01*
X16378Y-36308D01*
X16472Y-36281D01*
X16497Y-36207D01*
X16528Y-36281D01*
X16622Y-36308D01*
X16929Y-36000D01*
X16929Y-36141D01*
X16692Y-36378D01*
X16719Y-36472D01*
X16784Y-36495D01*
X16689Y-36535D01*
X16535Y-36689D01*
X16500Y-36773D01*
X16465Y-36689D01*
X16311Y-36535D01*
X16219Y-36497D01*
X16281Y-36472D01*
X16308Y-36378D01*
X16000Y-36071D01*
X15929Y-36141D01*
X15929Y-36000D01*
X15622Y-35692D01*
X15528Y-35719D01*
X15457Y-35921D01*
X15468Y-36134D01*
X15528Y-36281D01*
X15622Y-36308D01*
X15929Y-36000D01*
X15929Y-36141D01*
X15692Y-36378D01*
X15719Y-36472D01*
X15784Y-36495D01*
X15689Y-36535D01*
X15535Y-36689D01*
X15451Y-36891D01*
X15451Y-37109D01*
X15535Y-37311D01*
X15689Y-37465D01*
X15780Y-37502D01*
X15719Y-37528D01*
X15692Y-37622D01*
X16000Y-37929D01*
X16308Y-37622D01*
X16281Y-37528D01*
X16215Y-37504D01*
X16311Y-37465D01*
X16465Y-37311D01*
X16500Y-37226D01*
X16535Y-37311D01*
X16689Y-37465D01*
X16780Y-37502D01*
X16719Y-37528D01*
X16692Y-37622D01*
X17000Y-37929D01*
X17308Y-37622D01*
X17281Y-37528D01*
X17215Y-37504D01*
X17311Y-37465D01*
X17465Y-37311D01*
X17549Y-37109D01*
X17549Y-38891D01*
X17543Y-38876D01*
X17543Y-38079D01*
X17532Y-37866D01*
X17472Y-37719D01*
X17378Y-37692D01*
X17071Y-38000D01*
X17378Y-38308D01*
X17472Y-38281D01*
X17543Y-38079D01*
X17543Y-38876D01*
X17465Y-38689D01*
X17311Y-38535D01*
X17219Y-38497D01*
X17281Y-38472D01*
X17308Y-38378D01*
X17000Y-38071D01*
X16929Y-38141D01*
X16929Y-38000D01*
X16622Y-37692D01*
X16528Y-37719D01*
X16502Y-37792D01*
X16472Y-37719D01*
X16378Y-37692D01*
X16071Y-38000D01*
X16378Y-38308D01*
X16472Y-38281D01*
X16497Y-38207D01*
X16528Y-38281D01*
X16622Y-38308D01*
X16929Y-38000D01*
X16929Y-38141D01*
X16692Y-38378D01*
X16719Y-38472D01*
X16784Y-38495D01*
X16689Y-38535D01*
X16535Y-38689D01*
X16500Y-38773D01*
X16465Y-38689D01*
X16311Y-38535D01*
X16219Y-38497D01*
X16281Y-38472D01*
X16308Y-38378D01*
X16000Y-38071D01*
X15929Y-38141D01*
X15929Y-38000D01*
X15622Y-37692D01*
X15528Y-37719D01*
X15457Y-37921D01*
X15468Y-38134D01*
X15528Y-38281D01*
X15622Y-38308D01*
X15929Y-38000D01*
X15929Y-38141D01*
X15692Y-38378D01*
X15719Y-38472D01*
X15784Y-38495D01*
X15689Y-38535D01*
X15535Y-38689D01*
X15451Y-38891D01*
X15451Y-39109D01*
X15535Y-39311D01*
X15689Y-39465D01*
X15780Y-39502D01*
X15719Y-39528D01*
X15692Y-39622D01*
X16000Y-39929D01*
X16308Y-39622D01*
X16281Y-39528D01*
X16215Y-39504D01*
X16311Y-39465D01*
X16465Y-39311D01*
X16500Y-39226D01*
X16535Y-39311D01*
X16689Y-39465D01*
X16780Y-39502D01*
X16719Y-39528D01*
X16692Y-39622D01*
X17000Y-39929D01*
X17308Y-39622D01*
X17281Y-39528D01*
X17215Y-39504D01*
X17311Y-39465D01*
X17465Y-39311D01*
X17549Y-39109D01*
X17549Y-46800D01*
X17543Y-46800D01*
X17543Y-42079D01*
X17543Y-41079D01*
X17543Y-40079D01*
X17532Y-39866D01*
X17472Y-39719D01*
X17378Y-39692D01*
X17071Y-40000D01*
X17378Y-40308D01*
X17472Y-40281D01*
X17543Y-40079D01*
X17543Y-41079D01*
X17532Y-40866D01*
X17472Y-40719D01*
X17378Y-40692D01*
X17308Y-40762D01*
X17308Y-40622D01*
X17281Y-40528D01*
X17207Y-40502D01*
X17281Y-40472D01*
X17308Y-40378D01*
X17000Y-40071D01*
X16929Y-40141D01*
X16929Y-40000D01*
X16622Y-39692D01*
X16528Y-39719D01*
X16502Y-39792D01*
X16472Y-39719D01*
X16378Y-39692D01*
X16071Y-40000D01*
X16378Y-40308D01*
X16472Y-40281D01*
X16497Y-40207D01*
X16528Y-40281D01*
X16622Y-40308D01*
X16929Y-40000D01*
X16929Y-40141D01*
X16692Y-40378D01*
X16719Y-40472D01*
X16792Y-40497D01*
X16719Y-40528D01*
X16692Y-40622D01*
X17000Y-40929D01*
X17308Y-40622D01*
X17308Y-40762D01*
X17071Y-41000D01*
X17378Y-41308D01*
X17472Y-41281D01*
X17543Y-41079D01*
X17543Y-42079D01*
X17532Y-41866D01*
X17472Y-41719D01*
X17378Y-41692D01*
X17071Y-42000D01*
X17378Y-42308D01*
X17472Y-42281D01*
X17543Y-42079D01*
X17543Y-46800D01*
X17308Y-46800D01*
X17308Y-42378D01*
X17035Y-42106D01*
X17000Y-42071D01*
X16929Y-42000D01*
X17000Y-41929D01*
X17035Y-41894D01*
X17308Y-41622D01*
X17281Y-41528D01*
X17207Y-41502D01*
X17281Y-41472D01*
X17308Y-41378D01*
X17035Y-41106D01*
X17000Y-41071D01*
X16929Y-41000D01*
X16894Y-40965D01*
X16622Y-40692D01*
X16528Y-40719D01*
X16504Y-40784D01*
X16465Y-40689D01*
X16311Y-40535D01*
X16219Y-40497D01*
X16281Y-40472D01*
X16308Y-40378D01*
X16000Y-40071D01*
X15929Y-40141D01*
X15929Y-40000D01*
X15622Y-39692D01*
X15528Y-39719D01*
X15457Y-39921D01*
X15468Y-40134D01*
X15528Y-40281D01*
X15622Y-40308D01*
X15929Y-40000D01*
X15929Y-40141D01*
X15692Y-40378D01*
X15719Y-40472D01*
X15784Y-40495D01*
X15689Y-40535D01*
X15535Y-40689D01*
X15451Y-40891D01*
X15451Y-41109D01*
X15535Y-41311D01*
X15689Y-41465D01*
X15780Y-41502D01*
X15719Y-41528D01*
X15692Y-41622D01*
X15965Y-41894D01*
X16000Y-41929D01*
X16071Y-42000D01*
X16000Y-42071D01*
X15929Y-42141D01*
X15929Y-42000D01*
X15622Y-41692D01*
X15528Y-41719D01*
X15457Y-41921D01*
X15468Y-42134D01*
X15528Y-42281D01*
X15622Y-42308D01*
X15929Y-42000D01*
X15929Y-42141D01*
X15692Y-42378D01*
X15719Y-42472D01*
X15921Y-42543D01*
X16134Y-42532D01*
X16210Y-42500D01*
X16210Y-42589D01*
X16140Y-42659D01*
X16075Y-42815D01*
X16075Y-42984D01*
X16139Y-43140D01*
X16259Y-43260D01*
X16415Y-43325D01*
X16584Y-43325D01*
X16740Y-43261D01*
X16860Y-43141D01*
X16925Y-42985D01*
X16925Y-42816D01*
X16861Y-42660D01*
X16790Y-42589D01*
X16790Y-42496D01*
X16921Y-42543D01*
X17134Y-42532D01*
X17281Y-42472D01*
X17308Y-42378D01*
X17308Y-46800D01*
X15404Y-46800D01*
X15404Y-19735D01*
X18400Y-19735D01*
X18148Y-19840D01*
X17872Y-20115D01*
X17723Y-20474D01*
X17723Y-20863D01*
X17872Y-21222D01*
X18147Y-21498D01*
X18506Y-21647D01*
X18895Y-21647D01*
X19254Y-21498D01*
X19530Y-21223D01*
X19679Y-20864D01*
X19679Y-20475D01*
X19530Y-20116D01*
X19255Y-19840D01*
X19002Y-19735D01*
X42022Y-19735D01*
X41770Y-19840D01*
X41494Y-20115D01*
X41345Y-20474D01*
X41345Y-20863D01*
X41494Y-21222D01*
X41769Y-21498D01*
X42128Y-21647D01*
X42517Y-21647D01*
X42876Y-21498D01*
X43152Y-21223D01*
X43301Y-20864D01*
X43301Y-20475D01*
X43152Y-20116D01*
X42877Y-19840D01*
X42624Y-19735D01*
X59738Y-19735D01*
X59486Y-19840D01*
X59210Y-20115D01*
X59061Y-20474D01*
X59061Y-20863D01*
X59210Y-21222D01*
X59485Y-21498D01*
X59844Y-21647D01*
X60233Y-21647D01*
X60592Y-21498D01*
X60868Y-21223D01*
X61017Y-20864D01*
X61017Y-20475D01*
X60868Y-20116D01*
X60593Y-19840D01*
X60340Y-19735D01*
X64123Y-19735D01*
X64123Y-26034D01*
X81446Y-26034D01*
X81446Y-36958D01*
X81446Y-36958D01*
G37*
G54D20*
X81446Y-36958D02*
X69541Y-36958D01*
X69541Y-32609D01*
X69541Y-32353D01*
X69443Y-32117D01*
X69263Y-31936D01*
X69027Y-31837D01*
X68771Y-31837D01*
X68535Y-31935D01*
X68354Y-32115D01*
X68255Y-32351D01*
X68255Y-32607D01*
X68353Y-32843D01*
X68533Y-33024D01*
X68769Y-33123D01*
X69025Y-33123D01*
X69261Y-33025D01*
X69442Y-32845D01*
X69541Y-32609D01*
X69541Y-36958D01*
X67273Y-36958D01*
X67273Y-46800D01*
X66625Y-46800D01*
X66625Y-42985D01*
X66625Y-42816D01*
X66561Y-42660D01*
X66490Y-42589D01*
X66490Y-32811D01*
X66560Y-32741D01*
X66625Y-32585D01*
X66625Y-32416D01*
X66561Y-32260D01*
X66441Y-32140D01*
X66285Y-32075D01*
X66116Y-32075D01*
X65960Y-32139D01*
X65840Y-32259D01*
X65775Y-32415D01*
X65775Y-32584D01*
X65839Y-32740D01*
X65910Y-32811D01*
X65910Y-42589D01*
X65840Y-42659D01*
X65775Y-42815D01*
X65775Y-42984D01*
X65839Y-43140D01*
X65959Y-43260D01*
X66115Y-43325D01*
X66284Y-43325D01*
X66440Y-43261D01*
X66560Y-43141D01*
X66625Y-42985D01*
X66625Y-46800D01*
X63635Y-46800D01*
X63635Y-41468D01*
X63635Y-41212D01*
X63635Y-23751D01*
X63635Y-23495D01*
X63537Y-23259D01*
X63357Y-23078D01*
X63121Y-22979D01*
X62865Y-22979D01*
X62629Y-23077D01*
X62448Y-23257D01*
X62349Y-23493D01*
X62349Y-23749D01*
X62447Y-23985D01*
X62627Y-24166D01*
X62863Y-24265D01*
X63119Y-24265D01*
X63355Y-24167D01*
X63536Y-23987D01*
X63635Y-23751D01*
X63635Y-41212D01*
X63627Y-41192D01*
X63627Y-35533D01*
X63627Y-29628D01*
X63617Y-29378D01*
X63540Y-29192D01*
X63436Y-29155D01*
X63365Y-29226D01*
X63365Y-29084D01*
X63328Y-28980D01*
X63092Y-28893D01*
X62842Y-28903D01*
X62656Y-28980D01*
X62619Y-29084D01*
X62992Y-29457D01*
X63365Y-29084D01*
X63365Y-29226D01*
X63063Y-29528D01*
X63436Y-29901D01*
X63540Y-29864D01*
X63627Y-29628D01*
X63627Y-35533D01*
X63617Y-35283D01*
X63540Y-35097D01*
X63436Y-35060D01*
X63365Y-35131D01*
X63365Y-34989D01*
X63365Y-29972D01*
X62992Y-29599D01*
X62921Y-29670D01*
X62921Y-29528D01*
X62548Y-29155D01*
X62444Y-29192D01*
X62357Y-29428D01*
X62367Y-29678D01*
X62444Y-29864D01*
X62548Y-29901D01*
X62921Y-29528D01*
X62921Y-29670D01*
X62619Y-29972D01*
X62656Y-30076D01*
X62892Y-30163D01*
X63142Y-30153D01*
X63328Y-30076D01*
X63365Y-29972D01*
X63365Y-34989D01*
X63328Y-34885D01*
X63092Y-34798D01*
X62842Y-34808D01*
X62656Y-34885D01*
X62619Y-34989D01*
X62992Y-35362D01*
X63365Y-34989D01*
X63365Y-35131D01*
X63063Y-35433D01*
X63436Y-35806D01*
X63540Y-35769D01*
X63627Y-35533D01*
X63627Y-41192D01*
X63537Y-40976D01*
X63365Y-40803D01*
X63365Y-35877D01*
X62992Y-35504D01*
X62921Y-35575D01*
X62921Y-35433D01*
X62548Y-35060D01*
X62444Y-35097D01*
X62357Y-35333D01*
X62367Y-35583D01*
X62444Y-35769D01*
X62548Y-35806D01*
X62921Y-35433D01*
X62921Y-35575D01*
X62619Y-35877D01*
X62656Y-35981D01*
X62892Y-36068D01*
X63142Y-36058D01*
X63328Y-35981D01*
X63365Y-35877D01*
X63365Y-40803D01*
X63357Y-40795D01*
X63121Y-40696D01*
X62865Y-40696D01*
X62629Y-40794D01*
X62448Y-40974D01*
X62349Y-41210D01*
X62349Y-41466D01*
X62447Y-41702D01*
X62627Y-41883D01*
X62863Y-41982D01*
X63119Y-41982D01*
X63355Y-41884D01*
X63536Y-41704D01*
X63635Y-41468D01*
X63635Y-46800D01*
X61325Y-46800D01*
X61325Y-41385D01*
X61325Y-41216D01*
X61261Y-41060D01*
X61190Y-40989D01*
X61190Y-25811D01*
X61260Y-25741D01*
X61325Y-25585D01*
X61325Y-25416D01*
X61261Y-25260D01*
X61251Y-25250D01*
X61260Y-25241D01*
X61325Y-25085D01*
X61325Y-24916D01*
X61261Y-24760D01*
X61190Y-24689D01*
X61190Y-23911D01*
X61260Y-23841D01*
X61325Y-23685D01*
X61325Y-23516D01*
X61261Y-23360D01*
X61141Y-23240D01*
X60985Y-23175D01*
X60816Y-23175D01*
X60660Y-23239D01*
X60540Y-23359D01*
X60475Y-23515D01*
X60475Y-23684D01*
X60539Y-23840D01*
X60610Y-23911D01*
X60610Y-24689D01*
X60540Y-24759D01*
X60475Y-24915D01*
X60475Y-25084D01*
X60539Y-25240D01*
X60549Y-25250D01*
X60540Y-25259D01*
X60475Y-25415D01*
X60475Y-25584D01*
X60539Y-25740D01*
X60610Y-25811D01*
X60610Y-40989D01*
X60540Y-41059D01*
X60475Y-41215D01*
X60475Y-41384D01*
X60539Y-41540D01*
X60659Y-41660D01*
X60815Y-41725D01*
X60984Y-41725D01*
X61140Y-41661D01*
X61260Y-41541D01*
X61325Y-41385D01*
X61325Y-46800D01*
X61017Y-46800D01*
X61017Y-44486D01*
X61017Y-44097D01*
X60868Y-43738D01*
X60593Y-43462D01*
X60234Y-43313D01*
X59845Y-43313D01*
X59486Y-43462D01*
X59210Y-43737D01*
X59061Y-44096D01*
X59061Y-44485D01*
X59210Y-44844D01*
X59485Y-45120D01*
X59844Y-45269D01*
X60233Y-45269D01*
X60592Y-45120D01*
X60868Y-44845D01*
X61017Y-44486D01*
X61017Y-46800D01*
X57730Y-46800D01*
X57730Y-41468D01*
X57730Y-41212D01*
X57730Y-23751D01*
X57730Y-23495D01*
X57632Y-23259D01*
X57452Y-23078D01*
X57216Y-22979D01*
X56960Y-22979D01*
X56724Y-23077D01*
X56543Y-23257D01*
X56444Y-23493D01*
X56444Y-23749D01*
X56542Y-23985D01*
X56722Y-24166D01*
X56958Y-24265D01*
X57214Y-24265D01*
X57450Y-24167D01*
X57631Y-23987D01*
X57730Y-23751D01*
X57730Y-41212D01*
X57722Y-41192D01*
X57722Y-35533D01*
X57722Y-29628D01*
X57712Y-29378D01*
X57635Y-29192D01*
X57531Y-29155D01*
X57460Y-29226D01*
X57460Y-29084D01*
X57423Y-28980D01*
X57187Y-28893D01*
X56937Y-28903D01*
X56751Y-28980D01*
X56714Y-29084D01*
X57087Y-29457D01*
X57460Y-29084D01*
X57460Y-29226D01*
X57158Y-29528D01*
X57531Y-29901D01*
X57635Y-29864D01*
X57722Y-29628D01*
X57722Y-35533D01*
X57712Y-35283D01*
X57635Y-35097D01*
X57531Y-35060D01*
X57460Y-35131D01*
X57460Y-34989D01*
X57460Y-29972D01*
X57087Y-29599D01*
X57016Y-29670D01*
X57016Y-29528D01*
X56643Y-29155D01*
X56539Y-29192D01*
X56452Y-29428D01*
X56462Y-29678D01*
X56539Y-29864D01*
X56643Y-29901D01*
X57016Y-29528D01*
X57016Y-29670D01*
X56714Y-29972D01*
X56751Y-30076D01*
X56987Y-30163D01*
X57237Y-30153D01*
X57423Y-30076D01*
X57460Y-29972D01*
X57460Y-34989D01*
X57423Y-34885D01*
X57187Y-34798D01*
X56937Y-34808D01*
X56751Y-34885D01*
X56714Y-34989D01*
X57087Y-35362D01*
X57460Y-34989D01*
X57460Y-35131D01*
X57158Y-35433D01*
X57531Y-35806D01*
X57635Y-35769D01*
X57722Y-35533D01*
X57722Y-41192D01*
X57632Y-40976D01*
X57460Y-40803D01*
X57460Y-35877D01*
X57087Y-35504D01*
X57016Y-35575D01*
X57016Y-35433D01*
X56643Y-35060D01*
X56539Y-35097D01*
X56452Y-35333D01*
X56462Y-35583D01*
X56539Y-35769D01*
X56643Y-35806D01*
X57016Y-35433D01*
X57016Y-35575D01*
X56714Y-35877D01*
X56751Y-35981D01*
X56987Y-36068D01*
X57237Y-36058D01*
X57423Y-35981D01*
X57460Y-35877D01*
X57460Y-40803D01*
X57452Y-40795D01*
X57216Y-40696D01*
X56960Y-40696D01*
X56724Y-40794D01*
X56543Y-40974D01*
X56444Y-41210D01*
X56444Y-41466D01*
X56542Y-41702D01*
X56722Y-41883D01*
X56958Y-41982D01*
X57214Y-41982D01*
X57450Y-41884D01*
X57631Y-41704D01*
X57730Y-41468D01*
X57730Y-46800D01*
X55425Y-46800D01*
X55425Y-41385D01*
X55425Y-41216D01*
X55361Y-41060D01*
X55290Y-40989D01*
X55290Y-27811D01*
X55360Y-27741D01*
X55425Y-27585D01*
X55425Y-27416D01*
X55361Y-27260D01*
X55351Y-27250D01*
X55360Y-27241D01*
X55425Y-27085D01*
X55425Y-26916D01*
X55361Y-26760D01*
X55290Y-26689D01*
X55290Y-23911D01*
X55360Y-23841D01*
X55425Y-23685D01*
X55425Y-23516D01*
X55361Y-23360D01*
X55241Y-23240D01*
X55085Y-23175D01*
X54916Y-23175D01*
X54760Y-23239D01*
X54640Y-23359D01*
X54575Y-23515D01*
X54575Y-23684D01*
X54639Y-23840D01*
X54710Y-23911D01*
X54710Y-26689D01*
X54640Y-26759D01*
X54575Y-26915D01*
X54575Y-27084D01*
X54639Y-27240D01*
X54649Y-27250D01*
X54640Y-27259D01*
X54575Y-27415D01*
X54575Y-27584D01*
X54639Y-27740D01*
X54710Y-27811D01*
X54710Y-40989D01*
X54640Y-41059D01*
X54575Y-41215D01*
X54575Y-41384D01*
X54639Y-41540D01*
X54759Y-41660D01*
X54915Y-41725D01*
X55084Y-41725D01*
X55240Y-41661D01*
X55360Y-41541D01*
X55425Y-41385D01*
X55425Y-46800D01*
X51824Y-46800D01*
X51824Y-41468D01*
X51824Y-41212D01*
X51824Y-23751D01*
X51824Y-23495D01*
X51726Y-23259D01*
X51546Y-23078D01*
X51310Y-22979D01*
X51054Y-22979D01*
X50818Y-23077D01*
X50637Y-23257D01*
X50538Y-23493D01*
X50538Y-23749D01*
X50636Y-23985D01*
X50816Y-24166D01*
X51052Y-24265D01*
X51308Y-24265D01*
X51544Y-24167D01*
X51725Y-23987D01*
X51824Y-23751D01*
X51824Y-41212D01*
X51816Y-41192D01*
X51816Y-35533D01*
X51816Y-29628D01*
X51806Y-29378D01*
X51729Y-29192D01*
X51625Y-29155D01*
X51554Y-29226D01*
X51554Y-29084D01*
X51517Y-28980D01*
X51281Y-28893D01*
X51031Y-28903D01*
X50845Y-28980D01*
X50808Y-29084D01*
X51181Y-29457D01*
X51554Y-29084D01*
X51554Y-29226D01*
X51252Y-29528D01*
X51625Y-29901D01*
X51729Y-29864D01*
X51816Y-29628D01*
X51816Y-35533D01*
X51806Y-35283D01*
X51729Y-35097D01*
X51625Y-35060D01*
X51554Y-35131D01*
X51554Y-34989D01*
X51554Y-29972D01*
X51181Y-29599D01*
X51110Y-29670D01*
X51110Y-29528D01*
X50737Y-29155D01*
X50633Y-29192D01*
X50546Y-29428D01*
X50556Y-29678D01*
X50633Y-29864D01*
X50737Y-29901D01*
X51110Y-29528D01*
X51110Y-29670D01*
X50808Y-29972D01*
X50845Y-30076D01*
X51081Y-30163D01*
X51331Y-30153D01*
X51517Y-30076D01*
X51554Y-29972D01*
X51554Y-34989D01*
X51517Y-34885D01*
X51281Y-34798D01*
X51031Y-34808D01*
X50845Y-34885D01*
X50808Y-34989D01*
X51181Y-35362D01*
X51554Y-34989D01*
X51554Y-35131D01*
X51252Y-35433D01*
X51625Y-35806D01*
X51729Y-35769D01*
X51816Y-35533D01*
X51816Y-41192D01*
X51726Y-40976D01*
X51554Y-40803D01*
X51554Y-35877D01*
X51181Y-35504D01*
X51110Y-35575D01*
X51110Y-35433D01*
X50737Y-35060D01*
X50633Y-35097D01*
X50546Y-35333D01*
X50556Y-35583D01*
X50633Y-35769D01*
X50737Y-35806D01*
X51110Y-35433D01*
X51110Y-35575D01*
X50808Y-35877D01*
X50845Y-35981D01*
X51081Y-36068D01*
X51331Y-36058D01*
X51517Y-35981D01*
X51554Y-35877D01*
X51554Y-40803D01*
X51546Y-40795D01*
X51310Y-40696D01*
X51054Y-40696D01*
X50818Y-40794D01*
X50637Y-40974D01*
X50538Y-41210D01*
X50538Y-41466D01*
X50636Y-41702D01*
X50816Y-41883D01*
X51052Y-41982D01*
X51308Y-41982D01*
X51544Y-41884D01*
X51725Y-41704D01*
X51824Y-41468D01*
X51824Y-46800D01*
X49525Y-46800D01*
X49525Y-41385D01*
X49525Y-41216D01*
X49461Y-41060D01*
X49390Y-40989D01*
X49390Y-29111D01*
X49460Y-29041D01*
X49525Y-28885D01*
X49525Y-28716D01*
X49461Y-28560D01*
X49451Y-28550D01*
X49460Y-28541D01*
X49525Y-28385D01*
X49525Y-28216D01*
X49461Y-28060D01*
X49390Y-27989D01*
X49390Y-23911D01*
X49460Y-23841D01*
X49525Y-23685D01*
X49525Y-23516D01*
X49461Y-23360D01*
X49341Y-23240D01*
X49185Y-23175D01*
X49016Y-23175D01*
X48860Y-23239D01*
X48740Y-23359D01*
X48675Y-23515D01*
X48675Y-23684D01*
X48739Y-23840D01*
X48810Y-23911D01*
X48810Y-27989D01*
X48740Y-28059D01*
X48675Y-28215D01*
X48675Y-28384D01*
X48739Y-28540D01*
X48749Y-28550D01*
X48740Y-28559D01*
X48675Y-28715D01*
X48675Y-28884D01*
X48739Y-29040D01*
X48810Y-29111D01*
X48810Y-40989D01*
X48740Y-41059D01*
X48675Y-41215D01*
X48675Y-41384D01*
X48739Y-41540D01*
X48859Y-41660D01*
X49015Y-41725D01*
X49184Y-41725D01*
X49340Y-41661D01*
X49460Y-41541D01*
X49525Y-41385D01*
X49525Y-46800D01*
X45919Y-46800D01*
X45919Y-41468D01*
X45919Y-41212D01*
X45919Y-23751D01*
X45919Y-23495D01*
X45821Y-23259D01*
X45641Y-23078D01*
X45405Y-22979D01*
X45149Y-22979D01*
X44913Y-23077D01*
X44732Y-23257D01*
X44633Y-23493D01*
X44633Y-23749D01*
X44731Y-23985D01*
X44911Y-24166D01*
X45147Y-24265D01*
X45403Y-24265D01*
X45639Y-24167D01*
X45820Y-23987D01*
X45919Y-23751D01*
X45919Y-41212D01*
X45911Y-41192D01*
X45911Y-35533D01*
X45911Y-29628D01*
X45901Y-29378D01*
X45824Y-29192D01*
X45720Y-29155D01*
X45649Y-29226D01*
X45649Y-29084D01*
X45612Y-28980D01*
X45376Y-28893D01*
X45126Y-28903D01*
X44940Y-28980D01*
X44903Y-29084D01*
X45276Y-29457D01*
X45649Y-29084D01*
X45649Y-29226D01*
X45347Y-29528D01*
X45720Y-29901D01*
X45824Y-29864D01*
X45911Y-29628D01*
X45911Y-35533D01*
X45901Y-35283D01*
X45824Y-35097D01*
X45720Y-35060D01*
X45649Y-35131D01*
X45649Y-34989D01*
X45649Y-29972D01*
X45276Y-29599D01*
X45205Y-29670D01*
X45205Y-29528D01*
X44832Y-29155D01*
X44728Y-29192D01*
X44641Y-29428D01*
X44651Y-29678D01*
X44728Y-29864D01*
X44832Y-29901D01*
X45205Y-29528D01*
X45205Y-29670D01*
X44903Y-29972D01*
X44940Y-30076D01*
X45176Y-30163D01*
X45426Y-30153D01*
X45612Y-30076D01*
X45649Y-29972D01*
X45649Y-34989D01*
X45612Y-34885D01*
X45376Y-34798D01*
X45126Y-34808D01*
X44940Y-34885D01*
X44903Y-34989D01*
X45276Y-35362D01*
X45649Y-34989D01*
X45649Y-35131D01*
X45347Y-35433D01*
X45720Y-35806D01*
X45824Y-35769D01*
X45911Y-35533D01*
X45911Y-41192D01*
X45821Y-40976D01*
X45649Y-40803D01*
X45649Y-35877D01*
X45276Y-35504D01*
X45205Y-35575D01*
X45205Y-35433D01*
X44832Y-35060D01*
X44728Y-35097D01*
X44641Y-35333D01*
X44651Y-35583D01*
X44728Y-35769D01*
X44832Y-35806D01*
X45205Y-35433D01*
X45205Y-35575D01*
X44903Y-35877D01*
X44940Y-35981D01*
X45176Y-36068D01*
X45426Y-36058D01*
X45612Y-35981D01*
X45649Y-35877D01*
X45649Y-40803D01*
X45641Y-40795D01*
X45405Y-40696D01*
X45149Y-40696D01*
X44913Y-40794D01*
X44732Y-40974D01*
X44633Y-41210D01*
X44633Y-41466D01*
X44731Y-41702D01*
X44911Y-41883D01*
X45147Y-41982D01*
X45403Y-41982D01*
X45639Y-41884D01*
X45820Y-41704D01*
X45919Y-41468D01*
X45919Y-46800D01*
X43625Y-46800D01*
X43625Y-41385D01*
X43625Y-41216D01*
X43561Y-41060D01*
X43441Y-40940D01*
X43390Y-40918D01*
X43390Y-31811D01*
X43460Y-31741D01*
X43525Y-31585D01*
X43525Y-31416D01*
X43461Y-31260D01*
X43451Y-31250D01*
X43460Y-31241D01*
X43525Y-31085D01*
X43525Y-30916D01*
X43461Y-30760D01*
X43390Y-30689D01*
X43390Y-23981D01*
X43440Y-23961D01*
X43560Y-23841D01*
X43625Y-23685D01*
X43625Y-23516D01*
X43561Y-23360D01*
X43441Y-23240D01*
X43285Y-23175D01*
X43116Y-23175D01*
X42960Y-23239D01*
X42840Y-23359D01*
X42775Y-23515D01*
X42775Y-23684D01*
X42810Y-23769D01*
X42810Y-30689D01*
X42740Y-30759D01*
X42675Y-30915D01*
X42675Y-31084D01*
X42739Y-31240D01*
X42749Y-31250D01*
X42740Y-31259D01*
X42675Y-31415D01*
X42675Y-31584D01*
X42739Y-31740D01*
X42810Y-31811D01*
X42810Y-41131D01*
X42775Y-41215D01*
X42775Y-41384D01*
X42839Y-41540D01*
X42959Y-41660D01*
X43115Y-41725D01*
X43284Y-41725D01*
X43440Y-41661D01*
X43560Y-41541D01*
X43625Y-41385D01*
X43625Y-46800D01*
X43301Y-46800D01*
X43301Y-44486D01*
X43301Y-44097D01*
X43152Y-43738D01*
X42877Y-43462D01*
X42518Y-43313D01*
X42129Y-43313D01*
X41770Y-43462D01*
X41494Y-43737D01*
X41345Y-44096D01*
X41345Y-44485D01*
X41494Y-44844D01*
X41769Y-45120D01*
X42128Y-45269D01*
X42517Y-45269D01*
X42876Y-45120D01*
X43152Y-44845D01*
X43301Y-44486D01*
X43301Y-46800D01*
X40013Y-46800D01*
X40013Y-41468D01*
X40013Y-41212D01*
X40013Y-23751D01*
X40013Y-23495D01*
X39915Y-23259D01*
X39735Y-23078D01*
X39499Y-22979D01*
X39243Y-22979D01*
X39007Y-23077D01*
X38826Y-23257D01*
X38727Y-23493D01*
X38727Y-23749D01*
X38825Y-23985D01*
X39005Y-24166D01*
X39241Y-24265D01*
X39497Y-24265D01*
X39733Y-24167D01*
X39914Y-23987D01*
X40013Y-23751D01*
X40013Y-41212D01*
X40005Y-41192D01*
X40005Y-35533D01*
X40005Y-29628D01*
X39995Y-29378D01*
X39918Y-29192D01*
X39814Y-29155D01*
X39743Y-29226D01*
X39743Y-29084D01*
X39706Y-28980D01*
X39470Y-28893D01*
X39220Y-28903D01*
X39034Y-28980D01*
X38997Y-29084D01*
X39370Y-29457D01*
X39743Y-29084D01*
X39743Y-29226D01*
X39441Y-29528D01*
X39814Y-29901D01*
X39918Y-29864D01*
X40005Y-29628D01*
X40005Y-35533D01*
X39995Y-35283D01*
X39918Y-35097D01*
X39814Y-35060D01*
X39743Y-35131D01*
X39743Y-34989D01*
X39743Y-29972D01*
X39370Y-29599D01*
X39299Y-29670D01*
X39299Y-29528D01*
X38926Y-29155D01*
X38822Y-29192D01*
X38735Y-29428D01*
X38745Y-29678D01*
X38822Y-29864D01*
X38926Y-29901D01*
X39299Y-29528D01*
X39299Y-29670D01*
X38997Y-29972D01*
X39034Y-30076D01*
X39270Y-30163D01*
X39520Y-30153D01*
X39706Y-30076D01*
X39743Y-29972D01*
X39743Y-34989D01*
X39706Y-34885D01*
X39470Y-34798D01*
X39220Y-34808D01*
X39034Y-34885D01*
X38997Y-34989D01*
X39370Y-35362D01*
X39743Y-34989D01*
X39743Y-35131D01*
X39441Y-35433D01*
X39814Y-35806D01*
X39918Y-35769D01*
X40005Y-35533D01*
X40005Y-41192D01*
X39915Y-40976D01*
X39743Y-40803D01*
X39743Y-35877D01*
X39370Y-35504D01*
X39299Y-35575D01*
X39299Y-35433D01*
X38926Y-35060D01*
X38822Y-35097D01*
X38735Y-35333D01*
X38745Y-35583D01*
X38822Y-35769D01*
X38926Y-35806D01*
X39299Y-35433D01*
X39299Y-35575D01*
X38997Y-35877D01*
X39034Y-35981D01*
X39270Y-36068D01*
X39520Y-36058D01*
X39706Y-35981D01*
X39743Y-35877D01*
X39743Y-40803D01*
X39735Y-40795D01*
X39499Y-40696D01*
X39243Y-40696D01*
X39007Y-40794D01*
X38826Y-40974D01*
X38727Y-41210D01*
X38727Y-41466D01*
X38825Y-41702D01*
X39005Y-41883D01*
X39241Y-41982D01*
X39497Y-41982D01*
X39733Y-41884D01*
X39914Y-41704D01*
X40013Y-41468D01*
X40013Y-46800D01*
X37725Y-46800D01*
X37725Y-41385D01*
X37725Y-41216D01*
X37661Y-41060D01*
X37590Y-40989D01*
X37590Y-33811D01*
X37660Y-33741D01*
X37725Y-33585D01*
X37725Y-33416D01*
X37661Y-33260D01*
X37651Y-33250D01*
X37660Y-33241D01*
X37725Y-33085D01*
X37725Y-32916D01*
X37661Y-32760D01*
X37590Y-32689D01*
X37590Y-23911D01*
X37660Y-23841D01*
X37725Y-23685D01*
X37725Y-23516D01*
X37661Y-23360D01*
X37541Y-23240D01*
X37385Y-23175D01*
X37216Y-23175D01*
X37060Y-23239D01*
X36940Y-23359D01*
X36875Y-23515D01*
X36875Y-23684D01*
X36939Y-23840D01*
X37010Y-23911D01*
X37010Y-32689D01*
X36940Y-32759D01*
X36875Y-32915D01*
X36875Y-33084D01*
X36939Y-33240D01*
X36949Y-33250D01*
X36940Y-33259D01*
X36875Y-33415D01*
X36875Y-33584D01*
X36939Y-33740D01*
X37010Y-33811D01*
X37010Y-40989D01*
X36940Y-41059D01*
X36875Y-41215D01*
X36875Y-41384D01*
X36939Y-41540D01*
X37059Y-41660D01*
X37215Y-41725D01*
X37384Y-41725D01*
X37540Y-41661D01*
X37660Y-41541D01*
X37725Y-41385D01*
X37725Y-46800D01*
X34108Y-46800D01*
X34108Y-41468D01*
X34108Y-41212D01*
X34108Y-23751D01*
X34108Y-23495D01*
X34010Y-23259D01*
X33830Y-23078D01*
X33594Y-22979D01*
X33338Y-22979D01*
X33102Y-23077D01*
X32921Y-23257D01*
X32822Y-23493D01*
X32822Y-23749D01*
X32920Y-23985D01*
X33100Y-24166D01*
X33336Y-24265D01*
X33592Y-24265D01*
X33828Y-24167D01*
X34009Y-23987D01*
X34108Y-23751D01*
X34108Y-41212D01*
X34100Y-41192D01*
X34100Y-35533D01*
X34100Y-29628D01*
X34090Y-29378D01*
X34013Y-29192D01*
X33909Y-29155D01*
X33838Y-29226D01*
X33838Y-29084D01*
X33801Y-28980D01*
X33565Y-28893D01*
X33315Y-28903D01*
X33129Y-28980D01*
X33092Y-29084D01*
X33465Y-29457D01*
X33838Y-29084D01*
X33838Y-29226D01*
X33536Y-29528D01*
X33909Y-29901D01*
X34013Y-29864D01*
X34100Y-29628D01*
X34100Y-35533D01*
X34090Y-35283D01*
X34013Y-35097D01*
X33909Y-35060D01*
X33838Y-35131D01*
X33838Y-34989D01*
X33838Y-29972D01*
X33465Y-29599D01*
X33394Y-29670D01*
X33394Y-29528D01*
X33021Y-29155D01*
X32917Y-29192D01*
X32830Y-29428D01*
X32840Y-29678D01*
X32917Y-29864D01*
X33021Y-29901D01*
X33394Y-29528D01*
X33394Y-29670D01*
X33092Y-29972D01*
X33129Y-30076D01*
X33365Y-30163D01*
X33615Y-30153D01*
X33801Y-30076D01*
X33838Y-29972D01*
X33838Y-34989D01*
X33801Y-34885D01*
X33565Y-34798D01*
X33315Y-34808D01*
X33129Y-34885D01*
X33092Y-34989D01*
X33465Y-35362D01*
X33838Y-34989D01*
X33838Y-35131D01*
X33536Y-35433D01*
X33909Y-35806D01*
X34013Y-35769D01*
X34100Y-35533D01*
X34100Y-41192D01*
X34010Y-40976D01*
X33838Y-40803D01*
X33838Y-35877D01*
X33465Y-35504D01*
X33394Y-35575D01*
X33394Y-35433D01*
X33021Y-35060D01*
X32917Y-35097D01*
X32830Y-35333D01*
X32840Y-35583D01*
X32917Y-35769D01*
X33021Y-35806D01*
X33394Y-35433D01*
X33394Y-35575D01*
X33092Y-35877D01*
X33129Y-35981D01*
X33365Y-36068D01*
X33615Y-36058D01*
X33801Y-35981D01*
X33838Y-35877D01*
X33838Y-40803D01*
X33830Y-40795D01*
X33594Y-40696D01*
X33338Y-40696D01*
X33102Y-40794D01*
X32921Y-40974D01*
X32822Y-41210D01*
X32822Y-41466D01*
X32920Y-41702D01*
X33100Y-41883D01*
X33336Y-41982D01*
X33592Y-41982D01*
X33828Y-41884D01*
X34009Y-41704D01*
X34108Y-41468D01*
X34108Y-46800D01*
X31825Y-46800D01*
X31825Y-41385D01*
X31825Y-41216D01*
X31761Y-41060D01*
X31690Y-40989D01*
X31690Y-35011D01*
X31760Y-34941D01*
X31825Y-34785D01*
X31825Y-34616D01*
X31761Y-34460D01*
X31751Y-34450D01*
X31760Y-34441D01*
X31825Y-34285D01*
X31825Y-34116D01*
X31761Y-33960D01*
X31690Y-33889D01*
X31690Y-23911D01*
X31760Y-23841D01*
X31825Y-23685D01*
X31825Y-23516D01*
X31761Y-23360D01*
X31641Y-23240D01*
X31485Y-23175D01*
X31316Y-23175D01*
X31160Y-23239D01*
X31040Y-23359D01*
X30975Y-23515D01*
X30975Y-23684D01*
X31039Y-23840D01*
X31110Y-23911D01*
X31110Y-33889D01*
X31040Y-33959D01*
X30975Y-34115D01*
X30975Y-34284D01*
X31039Y-34440D01*
X31049Y-34450D01*
X31040Y-34459D01*
X30975Y-34615D01*
X30975Y-34784D01*
X31039Y-34940D01*
X31110Y-35011D01*
X31110Y-40989D01*
X31040Y-41059D01*
X30975Y-41215D01*
X30975Y-41384D01*
X31039Y-41540D01*
X31159Y-41660D01*
X31315Y-41725D01*
X31484Y-41725D01*
X31640Y-41661D01*
X31760Y-41541D01*
X31825Y-41385D01*
X31825Y-46800D01*
X28202Y-46800D01*
X28202Y-41468D01*
X28202Y-41212D01*
X28202Y-23751D01*
X28202Y-23495D01*
X28104Y-23259D01*
X27924Y-23078D01*
X27688Y-22979D01*
X27432Y-22979D01*
X27196Y-23077D01*
X27015Y-23257D01*
X26916Y-23493D01*
X26916Y-23749D01*
X27014Y-23985D01*
X27194Y-24166D01*
X27430Y-24265D01*
X27686Y-24265D01*
X27922Y-24167D01*
X28103Y-23987D01*
X28202Y-23751D01*
X28202Y-41212D01*
X28194Y-41192D01*
X28194Y-35533D01*
X28194Y-29628D01*
X28184Y-29378D01*
X28107Y-29192D01*
X28003Y-29155D01*
X27932Y-29226D01*
X27932Y-29084D01*
X27895Y-28980D01*
X27659Y-28893D01*
X27409Y-28903D01*
X27223Y-28980D01*
X27186Y-29084D01*
X27559Y-29457D01*
X27932Y-29084D01*
X27932Y-29226D01*
X27630Y-29528D01*
X28003Y-29901D01*
X28107Y-29864D01*
X28194Y-29628D01*
X28194Y-35533D01*
X28184Y-35283D01*
X28107Y-35097D01*
X28003Y-35060D01*
X27932Y-35131D01*
X27932Y-34989D01*
X27932Y-29972D01*
X27559Y-29599D01*
X27488Y-29670D01*
X27488Y-29528D01*
X27115Y-29155D01*
X27011Y-29192D01*
X26924Y-29428D01*
X26934Y-29678D01*
X27011Y-29864D01*
X27115Y-29901D01*
X27488Y-29528D01*
X27488Y-29670D01*
X27186Y-29972D01*
X27223Y-30076D01*
X27459Y-30163D01*
X27709Y-30153D01*
X27895Y-30076D01*
X27932Y-29972D01*
X27932Y-34989D01*
X27895Y-34885D01*
X27659Y-34798D01*
X27409Y-34808D01*
X27223Y-34885D01*
X27186Y-34989D01*
X27559Y-35362D01*
X27932Y-34989D01*
X27932Y-35131D01*
X27630Y-35433D01*
X28003Y-35806D01*
X28107Y-35769D01*
X28194Y-35533D01*
X28194Y-41192D01*
X28104Y-40976D01*
X27932Y-40803D01*
X27932Y-35877D01*
X27559Y-35504D01*
X27488Y-35575D01*
X27488Y-35433D01*
X27115Y-35060D01*
X27011Y-35097D01*
X26924Y-35333D01*
X26934Y-35583D01*
X27011Y-35769D01*
X27115Y-35806D01*
X27488Y-35433D01*
X27488Y-35575D01*
X27186Y-35877D01*
X27223Y-35981D01*
X27459Y-36068D01*
X27709Y-36058D01*
X27895Y-35981D01*
X27932Y-35877D01*
X27932Y-40803D01*
X27924Y-40795D01*
X27688Y-40696D01*
X27432Y-40696D01*
X27196Y-40794D01*
X27015Y-40974D01*
X26916Y-41210D01*
X26916Y-41466D01*
X27014Y-41702D01*
X27194Y-41883D01*
X27430Y-41982D01*
X27686Y-41982D01*
X27922Y-41884D01*
X28103Y-41704D01*
X28202Y-41468D01*
X28202Y-46800D01*
X25925Y-46800D01*
X25925Y-41385D01*
X25925Y-41216D01*
X25861Y-41060D01*
X25790Y-40989D01*
X25790Y-37811D01*
X25860Y-37741D01*
X25925Y-37585D01*
X25925Y-37416D01*
X25861Y-37260D01*
X25851Y-37250D01*
X25860Y-37241D01*
X25925Y-37085D01*
X25925Y-36916D01*
X25861Y-36760D01*
X25790Y-36689D01*
X25790Y-23911D01*
X25860Y-23841D01*
X25925Y-23685D01*
X25925Y-23516D01*
X25861Y-23360D01*
X25741Y-23240D01*
X25585Y-23175D01*
X25416Y-23175D01*
X25260Y-23239D01*
X25140Y-23359D01*
X25075Y-23515D01*
X25075Y-23684D01*
X25139Y-23840D01*
X25210Y-23911D01*
X25210Y-36689D01*
X25140Y-36759D01*
X25075Y-36915D01*
X25075Y-37084D01*
X25139Y-37240D01*
X25149Y-37250D01*
X25140Y-37259D01*
X25075Y-37415D01*
X25075Y-37584D01*
X25139Y-37740D01*
X25210Y-37811D01*
X25210Y-40989D01*
X25140Y-41059D01*
X25075Y-41215D01*
X25075Y-41384D01*
X25139Y-41540D01*
X25259Y-41660D01*
X25415Y-41725D01*
X25584Y-41725D01*
X25740Y-41661D01*
X25860Y-41541D01*
X25925Y-41385D01*
X25925Y-46800D01*
X25052Y-46800D01*
X25052Y-44380D01*
X25052Y-44203D01*
X25052Y-22727D01*
X25052Y-22550D01*
X24984Y-22386D01*
X24859Y-22260D01*
X24695Y-22192D01*
X24518Y-22192D01*
X24354Y-22260D01*
X24228Y-22385D01*
X24160Y-22549D01*
X24160Y-22726D01*
X24228Y-22890D01*
X24353Y-23016D01*
X24517Y-23084D01*
X24694Y-23084D01*
X24858Y-23016D01*
X24984Y-22891D01*
X25052Y-22727D01*
X25052Y-44203D01*
X24984Y-44039D01*
X24859Y-43913D01*
X24695Y-43845D01*
X24518Y-43845D01*
X24354Y-43913D01*
X24228Y-44038D01*
X24160Y-44202D01*
X24160Y-44379D01*
X24228Y-44543D01*
X24353Y-44669D01*
X24517Y-44737D01*
X24694Y-44737D01*
X24858Y-44669D01*
X24984Y-44544D01*
X25052Y-44380D01*
X25052Y-46800D01*
X22297Y-46800D01*
X22297Y-41468D01*
X22297Y-41212D01*
X22297Y-23751D01*
X22297Y-23495D01*
X22199Y-23259D01*
X22019Y-23078D01*
X21783Y-22979D01*
X21527Y-22979D01*
X21291Y-23077D01*
X21110Y-23257D01*
X21011Y-23493D01*
X21011Y-23749D01*
X21109Y-23985D01*
X21289Y-24166D01*
X21525Y-24265D01*
X21781Y-24265D01*
X22017Y-24167D01*
X22198Y-23987D01*
X22297Y-23751D01*
X22297Y-41212D01*
X22289Y-41192D01*
X22289Y-35533D01*
X22289Y-29628D01*
X22279Y-29378D01*
X22202Y-29192D01*
X22098Y-29155D01*
X22027Y-29226D01*
X22027Y-29084D01*
X21990Y-28980D01*
X21754Y-28893D01*
X21504Y-28903D01*
X21318Y-28980D01*
X21281Y-29084D01*
X21654Y-29457D01*
X22027Y-29084D01*
X22027Y-29226D01*
X21725Y-29528D01*
X22098Y-29901D01*
X22202Y-29864D01*
X22289Y-29628D01*
X22289Y-35533D01*
X22279Y-35283D01*
X22202Y-35097D01*
X22098Y-35060D01*
X22027Y-35131D01*
X22027Y-34989D01*
X22027Y-29972D01*
X21654Y-29599D01*
X21583Y-29670D01*
X21583Y-29528D01*
X21210Y-29155D01*
X21106Y-29192D01*
X21019Y-29428D01*
X21029Y-29678D01*
X21106Y-29864D01*
X21210Y-29901D01*
X21583Y-29528D01*
X21583Y-29670D01*
X21281Y-29972D01*
X21318Y-30076D01*
X21554Y-30163D01*
X21804Y-30153D01*
X21990Y-30076D01*
X22027Y-29972D01*
X22027Y-34989D01*
X21990Y-34885D01*
X21754Y-34798D01*
X21504Y-34808D01*
X21318Y-34885D01*
X21281Y-34989D01*
X21654Y-35362D01*
X22027Y-34989D01*
X22027Y-35131D01*
X21725Y-35433D01*
X22098Y-35806D01*
X22202Y-35769D01*
X22289Y-35533D01*
X22289Y-41192D01*
X22199Y-40976D01*
X22027Y-40803D01*
X22027Y-35877D01*
X21654Y-35504D01*
X21583Y-35575D01*
X21583Y-35433D01*
X21210Y-35060D01*
X21106Y-35097D01*
X21019Y-35333D01*
X21029Y-35583D01*
X21106Y-35769D01*
X21210Y-35806D01*
X21583Y-35433D01*
X21583Y-35575D01*
X21281Y-35877D01*
X21318Y-35981D01*
X21554Y-36068D01*
X21804Y-36058D01*
X21990Y-35981D01*
X22027Y-35877D01*
X22027Y-40803D01*
X22019Y-40795D01*
X21783Y-40696D01*
X21527Y-40696D01*
X21291Y-40794D01*
X21110Y-40974D01*
X21011Y-41210D01*
X21011Y-41466D01*
X21109Y-41702D01*
X21289Y-41883D01*
X21525Y-41982D01*
X21781Y-41982D01*
X22017Y-41884D01*
X22198Y-41704D01*
X22297Y-41468D01*
X22297Y-46800D01*
X20025Y-46800D01*
X20025Y-41385D01*
X20025Y-41216D01*
X19961Y-41060D01*
X19890Y-40989D01*
X19890Y-39811D01*
X19960Y-39741D01*
X20025Y-39585D01*
X20025Y-39416D01*
X19961Y-39260D01*
X19951Y-39250D01*
X19960Y-39241D01*
X20025Y-39085D01*
X20025Y-38916D01*
X19961Y-38760D01*
X19890Y-38689D01*
X19890Y-23911D01*
X19960Y-23841D01*
X20025Y-23685D01*
X20025Y-23516D01*
X19961Y-23360D01*
X19841Y-23240D01*
X19685Y-23175D01*
X19516Y-23175D01*
X19360Y-23239D01*
X19240Y-23359D01*
X19175Y-23515D01*
X19175Y-23684D01*
X19239Y-23840D01*
X19310Y-23911D01*
X19310Y-38689D01*
X19240Y-38759D01*
X19175Y-38915D01*
X19175Y-39084D01*
X19239Y-39240D01*
X19249Y-39250D01*
X19240Y-39259D01*
X19175Y-39415D01*
X19175Y-39584D01*
X19239Y-39740D01*
X19310Y-39811D01*
X19310Y-40989D01*
X19240Y-41059D01*
X19175Y-41215D01*
X19175Y-41384D01*
X19239Y-41540D01*
X19359Y-41660D01*
X19515Y-41725D01*
X19684Y-41725D01*
X19840Y-41661D01*
X19960Y-41541D01*
X20025Y-41385D01*
X20025Y-46800D01*
X19679Y-46800D01*
X19679Y-44486D01*
X19679Y-44097D01*
X19530Y-43738D01*
X19255Y-43462D01*
X18896Y-43313D01*
X18507Y-43313D01*
X18148Y-43462D01*
X17872Y-43737D01*
X17723Y-44096D01*
X17723Y-44485D01*
X17872Y-44844D01*
X18147Y-45120D01*
X18506Y-45269D01*
X18895Y-45269D01*
X19254Y-45120D01*
X19530Y-44845D01*
X19679Y-44486D01*
X19679Y-46800D01*
X17549Y-46800D01*
X17549Y-39109D01*
X17549Y-38891D01*
X17549Y-37109D01*
X17549Y-36891D01*
X17549Y-35109D01*
X17549Y-34891D01*
X17549Y-33109D01*
X17549Y-32891D01*
X17549Y-31109D01*
X17549Y-30891D01*
X17549Y-29109D01*
X17549Y-28891D01*
X17549Y-27109D01*
X17549Y-26891D01*
X17549Y-25109D01*
X17549Y-24891D01*
X17543Y-24876D01*
X17543Y-24079D01*
X17543Y-23079D01*
X17532Y-22866D01*
X17472Y-22719D01*
X17378Y-22692D01*
X17308Y-22762D01*
X17308Y-22622D01*
X17281Y-22528D01*
X17079Y-22457D01*
X16951Y-22463D01*
X16951Y-20457D01*
X16951Y-20358D01*
X16951Y-20044D01*
X16913Y-19952D01*
X16843Y-19882D01*
X16752Y-19844D01*
X16653Y-19844D01*
X16339Y-19844D01*
X16250Y-19880D01*
X16161Y-19844D01*
X16067Y-19843D01*
X16005Y-19905D01*
X16005Y-20150D01*
X16005Y-20200D01*
X16005Y-20300D01*
X16005Y-20350D01*
X16005Y-20595D01*
X16067Y-20657D01*
X16161Y-20656D01*
X16249Y-20619D01*
X16260Y-20623D01*
X16260Y-21088D01*
X16250Y-21098D01*
X16216Y-21064D01*
X16125Y-21026D01*
X16026Y-21026D01*
X15905Y-21026D01*
X15905Y-20595D01*
X15905Y-20300D01*
X15905Y-20200D01*
X15905Y-19905D01*
X15843Y-19843D01*
X15749Y-19844D01*
X15657Y-19882D01*
X15587Y-19952D01*
X15549Y-20043D01*
X15549Y-20139D01*
X15610Y-20200D01*
X15905Y-20200D01*
X15905Y-20300D01*
X15610Y-20300D01*
X15549Y-20361D01*
X15549Y-20457D01*
X15587Y-20548D01*
X15657Y-20618D01*
X15749Y-20656D01*
X15843Y-20657D01*
X15905Y-20595D01*
X15905Y-21026D01*
X15776Y-21026D01*
X15684Y-21064D01*
X15614Y-21134D01*
X15576Y-21225D01*
X15576Y-21324D01*
X15576Y-21774D01*
X15614Y-21866D01*
X15684Y-21936D01*
X15710Y-21946D01*
X15710Y-22451D01*
X15651Y-22451D01*
X15559Y-22489D01*
X15489Y-22559D01*
X15451Y-22650D01*
X15451Y-22749D01*
X15451Y-23349D01*
X15489Y-23441D01*
X15559Y-23511D01*
X15650Y-23549D01*
X15712Y-23549D01*
X15692Y-23622D01*
X16000Y-23929D01*
X16308Y-23622D01*
X16287Y-23549D01*
X16349Y-23549D01*
X16441Y-23511D01*
X16511Y-23441D01*
X16549Y-23350D01*
X16549Y-23287D01*
X16622Y-23308D01*
X16929Y-23000D01*
X16622Y-22692D01*
X16549Y-22712D01*
X16549Y-22651D01*
X16511Y-22559D01*
X16441Y-22489D01*
X16350Y-22451D01*
X16290Y-22451D01*
X16290Y-21938D01*
X16375Y-21974D01*
X16474Y-21974D01*
X16724Y-21974D01*
X16816Y-21936D01*
X16886Y-21866D01*
X16924Y-21775D01*
X16924Y-21676D01*
X16924Y-21226D01*
X16886Y-21134D01*
X16840Y-21088D01*
X16840Y-20619D01*
X16843Y-20618D01*
X16913Y-20548D01*
X16951Y-20457D01*
X16951Y-22463D01*
X16866Y-22468D01*
X16719Y-22528D01*
X16692Y-22622D01*
X17000Y-22929D01*
X17308Y-22622D01*
X17308Y-22762D01*
X17071Y-23000D01*
X17378Y-23308D01*
X17472Y-23281D01*
X17543Y-23079D01*
X17543Y-24079D01*
X17532Y-23866D01*
X17472Y-23719D01*
X17378Y-23692D01*
X17308Y-23762D01*
X17308Y-23622D01*
X17281Y-23528D01*
X17207Y-23502D01*
X17281Y-23472D01*
X17308Y-23378D01*
X17000Y-23071D01*
X16692Y-23378D01*
X16719Y-23472D01*
X16792Y-23497D01*
X16719Y-23528D01*
X16692Y-23622D01*
X17000Y-23929D01*
X17308Y-23622D01*
X17308Y-23762D01*
X17071Y-24000D01*
X17378Y-24308D01*
X17472Y-24281D01*
X17543Y-24079D01*
X17543Y-24876D01*
X17465Y-24689D01*
X17311Y-24535D01*
X17219Y-24497D01*
X17281Y-24472D01*
X17308Y-24378D01*
X17000Y-24071D01*
X16929Y-24141D01*
X16929Y-24000D01*
X16622Y-23692D01*
X16528Y-23719D01*
X16502Y-23792D01*
X16472Y-23719D01*
X16378Y-23692D01*
X16071Y-24000D01*
X16378Y-24308D01*
X16472Y-24281D01*
X16497Y-24207D01*
X16528Y-24281D01*
X16622Y-24308D01*
X16929Y-24000D01*
X16929Y-24141D01*
X16692Y-24378D01*
X16719Y-24472D01*
X16784Y-24495D01*
X16689Y-24535D01*
X16535Y-24689D01*
X16500Y-24773D01*
X16465Y-24689D01*
X16311Y-24535D01*
X16219Y-24497D01*
X16281Y-24472D01*
X16308Y-24378D01*
X16000Y-24071D01*
X15929Y-24141D01*
X15929Y-24000D01*
X15622Y-23692D01*
X15528Y-23719D01*
X15457Y-23921D01*
X15468Y-24134D01*
X15528Y-24281D01*
X15622Y-24308D01*
X15929Y-24000D01*
X15929Y-24141D01*
X15692Y-24378D01*
X15719Y-24472D01*
X15784Y-24495D01*
X15689Y-24535D01*
X15535Y-24689D01*
X15451Y-24891D01*
X15451Y-25109D01*
X15535Y-25311D01*
X15689Y-25465D01*
X15780Y-25502D01*
X15719Y-25528D01*
X15692Y-25622D01*
X16000Y-25929D01*
X16308Y-25622D01*
X16281Y-25528D01*
X16215Y-25504D01*
X16311Y-25465D01*
X16465Y-25311D01*
X16500Y-25226D01*
X16535Y-25311D01*
X16689Y-25465D01*
X16780Y-25502D01*
X16719Y-25528D01*
X16692Y-25622D01*
X17000Y-25929D01*
X17308Y-25622D01*
X17281Y-25528D01*
X17215Y-25504D01*
X17311Y-25465D01*
X17465Y-25311D01*
X17549Y-25109D01*
X17549Y-26891D01*
X17543Y-26876D01*
X17543Y-26079D01*
X17532Y-25866D01*
X17472Y-25719D01*
X17378Y-25692D01*
X17071Y-26000D01*
X17378Y-26308D01*
X17472Y-26281D01*
X17543Y-26079D01*
X17543Y-26876D01*
X17465Y-26689D01*
X17311Y-26535D01*
X17219Y-26497D01*
X17281Y-26472D01*
X17308Y-26378D01*
X17000Y-26071D01*
X16929Y-26141D01*
X16929Y-26000D01*
X16622Y-25692D01*
X16528Y-25719D01*
X16502Y-25792D01*
X16472Y-25719D01*
X16378Y-25692D01*
X16071Y-26000D01*
X16378Y-26308D01*
X16472Y-26281D01*
X16497Y-26207D01*
X16528Y-26281D01*
X16622Y-26308D01*
X16929Y-26000D01*
X16929Y-26141D01*
X16692Y-26378D01*
X16719Y-26472D01*
X16784Y-26495D01*
X16689Y-26535D01*
X16535Y-26689D01*
X16500Y-26773D01*
X16465Y-26689D01*
X16311Y-26535D01*
X16219Y-26497D01*
X16281Y-26472D01*
X16308Y-26378D01*
X16000Y-26071D01*
X15929Y-26141D01*
X15929Y-26000D01*
X15622Y-25692D01*
X15528Y-25719D01*
X15457Y-25921D01*
X15468Y-26134D01*
X15528Y-26281D01*
X15622Y-26308D01*
X15929Y-26000D01*
X15929Y-26141D01*
X15692Y-26378D01*
X15719Y-26472D01*
X15784Y-26495D01*
X15689Y-26535D01*
X15535Y-26689D01*
X15451Y-26891D01*
X15451Y-27109D01*
X15535Y-27311D01*
X15689Y-27465D01*
X15780Y-27502D01*
X15719Y-27528D01*
X15692Y-27622D01*
X16000Y-27929D01*
X16308Y-27622D01*
X16281Y-27528D01*
X16215Y-27504D01*
X16311Y-27465D01*
X16465Y-27311D01*
X16500Y-27226D01*
X16535Y-27311D01*
X16689Y-27465D01*
X16780Y-27502D01*
X16719Y-27528D01*
X16692Y-27622D01*
X17000Y-27929D01*
X17308Y-27622D01*
X17281Y-27528D01*
X17215Y-27504D01*
X17311Y-27465D01*
X17465Y-27311D01*
X17549Y-27109D01*
X17549Y-28891D01*
X17543Y-28876D01*
X17543Y-28079D01*
X17532Y-27866D01*
X17472Y-27719D01*
X17378Y-27692D01*
X17071Y-28000D01*
X17378Y-28308D01*
X17472Y-28281D01*
X17543Y-28079D01*
X17543Y-28876D01*
X17465Y-28689D01*
X17311Y-28535D01*
X17219Y-28497D01*
X17281Y-28472D01*
X17308Y-28378D01*
X17000Y-28071D01*
X16929Y-28141D01*
X16929Y-28000D01*
X16622Y-27692D01*
X16528Y-27719D01*
X16502Y-27792D01*
X16472Y-27719D01*
X16378Y-27692D01*
X16071Y-28000D01*
X16378Y-28308D01*
X16472Y-28281D01*
X16497Y-28207D01*
X16528Y-28281D01*
X16622Y-28308D01*
X16929Y-28000D01*
X16929Y-28141D01*
X16692Y-28378D01*
X16719Y-28472D01*
X16784Y-28495D01*
X16689Y-28535D01*
X16535Y-28689D01*
X16500Y-28773D01*
X16465Y-28689D01*
X16311Y-28535D01*
X16219Y-28497D01*
X16281Y-28472D01*
X16308Y-28378D01*
X16000Y-28071D01*
X15929Y-28141D01*
X15929Y-28000D01*
X15622Y-27692D01*
X15528Y-27719D01*
X15457Y-27921D01*
X15468Y-28134D01*
X15528Y-28281D01*
X15622Y-28308D01*
X15929Y-28000D01*
X15929Y-28141D01*
X15692Y-28378D01*
X15719Y-28472D01*
X15784Y-28495D01*
X15689Y-28535D01*
X15535Y-28689D01*
X15451Y-28891D01*
X15451Y-29109D01*
X15535Y-29311D01*
X15689Y-29465D01*
X15780Y-29502D01*
X15719Y-29528D01*
X15692Y-29622D01*
X16000Y-29929D01*
X16308Y-29622D01*
X16281Y-29528D01*
X16215Y-29504D01*
X16311Y-29465D01*
X16465Y-29311D01*
X16500Y-29226D01*
X16535Y-29311D01*
X16689Y-29465D01*
X16780Y-29502D01*
X16719Y-29528D01*
X16692Y-29622D01*
X17000Y-29929D01*
X17308Y-29622D01*
X17281Y-29528D01*
X17215Y-29504D01*
X17311Y-29465D01*
X17465Y-29311D01*
X17549Y-29109D01*
X17549Y-30891D01*
X17543Y-30876D01*
X17543Y-30079D01*
X17532Y-29866D01*
X17472Y-29719D01*
X17378Y-29692D01*
X17071Y-30000D01*
X17378Y-30308D01*
X17472Y-30281D01*
X17543Y-30079D01*
X17543Y-30876D01*
X17465Y-30689D01*
X17311Y-30535D01*
X17219Y-30497D01*
X17281Y-30472D01*
X17308Y-30378D01*
X17000Y-30071D01*
X16929Y-30141D01*
X16929Y-30000D01*
X16622Y-29692D01*
X16528Y-29719D01*
X16502Y-29792D01*
X16472Y-29719D01*
X16378Y-29692D01*
X16071Y-30000D01*
X16378Y-30308D01*
X16472Y-30281D01*
X16497Y-30207D01*
X16528Y-30281D01*
X16622Y-30308D01*
X16929Y-30000D01*
X16929Y-30141D01*
X16692Y-30378D01*
X16719Y-30472D01*
X16784Y-30495D01*
X16689Y-30535D01*
X16535Y-30689D01*
X16500Y-30773D01*
X16465Y-30689D01*
X16311Y-30535D01*
X16219Y-30497D01*
X16281Y-30472D01*
X16308Y-30378D01*
X16000Y-30071D01*
X15929Y-30141D01*
X15929Y-30000D01*
X15622Y-29692D01*
X15528Y-29719D01*
X15457Y-29921D01*
X15468Y-30134D01*
X15528Y-30281D01*
X15622Y-30308D01*
X15929Y-30000D01*
X15929Y-30141D01*
X15692Y-30378D01*
X15719Y-30472D01*
X15784Y-30495D01*
X15689Y-30535D01*
X15535Y-30689D01*
X15451Y-30891D01*
X15451Y-31109D01*
X15535Y-31311D01*
X15689Y-31465D01*
X15780Y-31502D01*
X15719Y-31528D01*
X15692Y-31622D01*
X16000Y-31929D01*
X16308Y-31622D01*
X16281Y-31528D01*
X16215Y-31504D01*
X16311Y-31465D01*
X16465Y-31311D01*
X16500Y-31226D01*
X16535Y-31311D01*
X16689Y-31465D01*
X16780Y-31502D01*
X16719Y-31528D01*
X16692Y-31622D01*
X17000Y-31929D01*
X17308Y-31622D01*
X17281Y-31528D01*
X17215Y-31504D01*
X17311Y-31465D01*
X17465Y-31311D01*
X17549Y-31109D01*
X17549Y-32891D01*
X17543Y-32876D01*
X17543Y-32079D01*
X17532Y-31866D01*
X17472Y-31719D01*
X17378Y-31692D01*
X17071Y-32000D01*
X17378Y-32308D01*
X17472Y-32281D01*
X17543Y-32079D01*
X17543Y-32876D01*
X17465Y-32689D01*
X17311Y-32535D01*
X17219Y-32497D01*
X17281Y-32472D01*
X17308Y-32378D01*
X17000Y-32071D01*
X16929Y-32141D01*
X16929Y-32000D01*
X16622Y-31692D01*
X16528Y-31719D01*
X16502Y-31792D01*
X16472Y-31719D01*
X16378Y-31692D01*
X16071Y-32000D01*
X16378Y-32308D01*
X16472Y-32281D01*
X16497Y-32207D01*
X16528Y-32281D01*
X16622Y-32308D01*
X16929Y-32000D01*
X16929Y-32141D01*
X16692Y-32378D01*
X16719Y-32472D01*
X16784Y-32495D01*
X16689Y-32535D01*
X16535Y-32689D01*
X16500Y-32773D01*
X16465Y-32689D01*
X16311Y-32535D01*
X16219Y-32497D01*
X16281Y-32472D01*
X16308Y-32378D01*
X16000Y-32071D01*
X15929Y-32141D01*
X15929Y-32000D01*
X15622Y-31692D01*
X15528Y-31719D01*
X15457Y-31921D01*
X15468Y-32134D01*
X15528Y-32281D01*
X15622Y-32308D01*
X15929Y-32000D01*
X15929Y-32141D01*
X15692Y-32378D01*
X15719Y-32472D01*
X15784Y-32495D01*
X15689Y-32535D01*
X15535Y-32689D01*
X15451Y-32891D01*
X15451Y-33109D01*
X15535Y-33311D01*
X15689Y-33465D01*
X15780Y-33502D01*
X15719Y-33528D01*
X15692Y-33622D01*
X16000Y-33929D01*
X16308Y-33622D01*
X16281Y-33528D01*
X16215Y-33504D01*
X16311Y-33465D01*
X16465Y-33311D01*
X16500Y-33226D01*
X16535Y-33311D01*
X16689Y-33465D01*
X16780Y-33502D01*
X16719Y-33528D01*
X16692Y-33622D01*
X17000Y-33929D01*
X17308Y-33622D01*
X17281Y-33528D01*
X17215Y-33504D01*
X17311Y-33465D01*
X17465Y-33311D01*
X17549Y-33109D01*
X17549Y-34891D01*
X17543Y-34876D01*
X17543Y-34079D01*
X17532Y-33866D01*
X17472Y-33719D01*
X17378Y-33692D01*
X17071Y-34000D01*
X17378Y-34308D01*
X17472Y-34281D01*
X17543Y-34079D01*
X17543Y-34876D01*
X17465Y-34689D01*
X17311Y-34535D01*
X17219Y-34497D01*
X17281Y-34472D01*
X17308Y-34378D01*
X17000Y-34071D01*
X16929Y-34141D01*
X16929Y-34000D01*
X16622Y-33692D01*
X16528Y-33719D01*
X16502Y-33792D01*
X16472Y-33719D01*
X16378Y-33692D01*
X16071Y-34000D01*
X16378Y-34308D01*
X16472Y-34281D01*
X16497Y-34207D01*
X16528Y-34281D01*
X16622Y-34308D01*
X16929Y-34000D01*
X16929Y-34141D01*
X16692Y-34378D01*
X16719Y-34472D01*
X16784Y-34495D01*
X16689Y-34535D01*
X16535Y-34689D01*
X16500Y-34773D01*
X16465Y-34689D01*
X16311Y-34535D01*
X16219Y-34497D01*
X16281Y-34472D01*
X16308Y-34378D01*
X16000Y-34071D01*
X15929Y-34141D01*
X15929Y-34000D01*
X15622Y-33692D01*
X15528Y-33719D01*
X15457Y-33921D01*
X15468Y-34134D01*
X15528Y-34281D01*
X15622Y-34308D01*
X15929Y-34000D01*
X15929Y-34141D01*
X15692Y-34378D01*
X15719Y-34472D01*
X15784Y-34495D01*
X15689Y-34535D01*
X15535Y-34689D01*
X15451Y-34891D01*
X15451Y-35109D01*
X15535Y-35311D01*
X15689Y-35465D01*
X15780Y-35502D01*
X15719Y-35528D01*
X15692Y-35622D01*
X16000Y-35929D01*
X16308Y-35622D01*
X16281Y-35528D01*
X16215Y-35504D01*
X16311Y-35465D01*
X16465Y-35311D01*
X16500Y-35226D01*
X16535Y-35311D01*
X16689Y-35465D01*
X16780Y-35502D01*
X16719Y-35528D01*
X16692Y-35622D01*
X17000Y-35929D01*
X17308Y-35622D01*
X17281Y-35528D01*
X17215Y-35504D01*
X17311Y-35465D01*
X17465Y-35311D01*
X17549Y-35109D01*
X17549Y-36891D01*
X17543Y-36876D01*
X17543Y-36079D01*
X17532Y-35866D01*
X17472Y-35719D01*
X17378Y-35692D01*
X17071Y-36000D01*
X17378Y-36308D01*
X17472Y-36281D01*
X17543Y-36079D01*
X17543Y-36876D01*
X17465Y-36689D01*
X17311Y-36535D01*
X17219Y-36497D01*
X17281Y-36472D01*
X17308Y-36378D01*
X17000Y-36071D01*
X16929Y-36141D01*
X16929Y-36000D01*
X16622Y-35692D01*
X16528Y-35719D01*
X16502Y-35792D01*
X16472Y-35719D01*
X16378Y-35692D01*
X16071Y-36000D01*
X16378Y-36308D01*
X16472Y-36281D01*
X16497Y-36207D01*
X16528Y-36281D01*
X16622Y-36308D01*
X16929Y-36000D01*
X16929Y-36141D01*
X16692Y-36378D01*
X16719Y-36472D01*
X16784Y-36495D01*
X16689Y-36535D01*
X16535Y-36689D01*
X16500Y-36773D01*
X16465Y-36689D01*
X16311Y-36535D01*
X16219Y-36497D01*
X16281Y-36472D01*
X16308Y-36378D01*
X16000Y-36071D01*
X15929Y-36141D01*
X15929Y-36000D01*
X15622Y-35692D01*
X15528Y-35719D01*
X15457Y-35921D01*
X15468Y-36134D01*
X15528Y-36281D01*
X15622Y-36308D01*
X15929Y-36000D01*
X15929Y-36141D01*
X15692Y-36378D01*
X15719Y-36472D01*
X15784Y-36495D01*
X15689Y-36535D01*
X15535Y-36689D01*
X15451Y-36891D01*
X15451Y-37109D01*
X15535Y-37311D01*
X15689Y-37465D01*
X15780Y-37502D01*
X15719Y-37528D01*
X15692Y-37622D01*
X16000Y-37929D01*
X16308Y-37622D01*
X16281Y-37528D01*
X16215Y-37504D01*
X16311Y-37465D01*
X16465Y-37311D01*
X16500Y-37226D01*
X16535Y-37311D01*
X16689Y-37465D01*
X16780Y-37502D01*
X16719Y-37528D01*
X16692Y-37622D01*
X17000Y-37929D01*
X17308Y-37622D01*
X17281Y-37528D01*
X17215Y-37504D01*
X17311Y-37465D01*
X17465Y-37311D01*
X17549Y-37109D01*
X17549Y-38891D01*
X17543Y-38876D01*
X17543Y-38079D01*
X17532Y-37866D01*
X17472Y-37719D01*
X17378Y-37692D01*
X17071Y-38000D01*
X17378Y-38308D01*
X17472Y-38281D01*
X17543Y-38079D01*
X17543Y-38876D01*
X17465Y-38689D01*
X17311Y-38535D01*
X17219Y-38497D01*
X17281Y-38472D01*
X17308Y-38378D01*
X17000Y-38071D01*
X16929Y-38141D01*
X16929Y-38000D01*
X16622Y-37692D01*
X16528Y-37719D01*
X16502Y-37792D01*
X16472Y-37719D01*
X16378Y-37692D01*
X16071Y-38000D01*
X16378Y-38308D01*
X16472Y-38281D01*
X16497Y-38207D01*
X16528Y-38281D01*
X16622Y-38308D01*
X16929Y-38000D01*
X16929Y-38141D01*
X16692Y-38378D01*
X16719Y-38472D01*
X16784Y-38495D01*
X16689Y-38535D01*
X16535Y-38689D01*
X16500Y-38773D01*
X16465Y-38689D01*
X16311Y-38535D01*
X16219Y-38497D01*
X16281Y-38472D01*
X16308Y-38378D01*
X16000Y-38071D01*
X15929Y-38141D01*
X15929Y-38000D01*
X15622Y-37692D01*
X15528Y-37719D01*
X15457Y-37921D01*
X15468Y-38134D01*
X15528Y-38281D01*
X15622Y-38308D01*
X15929Y-38000D01*
X15929Y-38141D01*
X15692Y-38378D01*
X15719Y-38472D01*
X15784Y-38495D01*
X15689Y-38535D01*
X15535Y-38689D01*
X15451Y-38891D01*
X15451Y-39109D01*
X15535Y-39311D01*
X15689Y-39465D01*
X15780Y-39502D01*
X15719Y-39528D01*
X15692Y-39622D01*
X16000Y-39929D01*
X16308Y-39622D01*
X16281Y-39528D01*
X16215Y-39504D01*
X16311Y-39465D01*
X16465Y-39311D01*
X16500Y-39226D01*
X16535Y-39311D01*
X16689Y-39465D01*
X16780Y-39502D01*
X16719Y-39528D01*
X16692Y-39622D01*
X17000Y-39929D01*
X17308Y-39622D01*
X17281Y-39528D01*
X17215Y-39504D01*
X17311Y-39465D01*
X17465Y-39311D01*
X17549Y-39109D01*
X17549Y-46800D01*
X17543Y-46800D01*
X17543Y-42079D01*
X17543Y-41079D01*
X17543Y-40079D01*
X17532Y-39866D01*
X17472Y-39719D01*
X17378Y-39692D01*
X17071Y-40000D01*
X17378Y-40308D01*
X17472Y-40281D01*
X17543Y-40079D01*
X17543Y-41079D01*
X17532Y-40866D01*
X17472Y-40719D01*
X17378Y-40692D01*
X17308Y-40762D01*
X17308Y-40622D01*
X17281Y-40528D01*
X17207Y-40502D01*
X17281Y-40472D01*
X17308Y-40378D01*
X17000Y-40071D01*
X16929Y-40141D01*
X16929Y-40000D01*
X16622Y-39692D01*
X16528Y-39719D01*
X16502Y-39792D01*
X16472Y-39719D01*
X16378Y-39692D01*
X16071Y-40000D01*
X16378Y-40308D01*
X16472Y-40281D01*
X16497Y-40207D01*
X16528Y-40281D01*
X16622Y-40308D01*
X16929Y-40000D01*
X16929Y-40141D01*
X16692Y-40378D01*
X16719Y-40472D01*
X16792Y-40497D01*
X16719Y-40528D01*
X16692Y-40622D01*
X17000Y-40929D01*
X17308Y-40622D01*
X17308Y-40762D01*
X17071Y-41000D01*
X17378Y-41308D01*
X17472Y-41281D01*
X17543Y-41079D01*
X17543Y-42079D01*
X17532Y-41866D01*
X17472Y-41719D01*
X17378Y-41692D01*
X17071Y-42000D01*
X17378Y-42308D01*
X17472Y-42281D01*
X17543Y-42079D01*
X17543Y-46800D01*
X17308Y-46800D01*
X17308Y-42378D01*
X17035Y-42106D01*
X17000Y-42071D01*
X16929Y-42000D01*
X17000Y-41929D01*
X17035Y-41894D01*
X17308Y-41622D01*
X17281Y-41528D01*
X17207Y-41502D01*
X17281Y-41472D01*
X17308Y-41378D01*
X17035Y-41106D01*
X17000Y-41071D01*
X16929Y-41000D01*
X16894Y-40965D01*
X16622Y-40692D01*
X16528Y-40719D01*
X16504Y-40784D01*
X16465Y-40689D01*
X16311Y-40535D01*
X16219Y-40497D01*
X16281Y-40472D01*
X16308Y-40378D01*
X16000Y-40071D01*
X15929Y-40141D01*
X15929Y-40000D01*
X15622Y-39692D01*
X15528Y-39719D01*
X15457Y-39921D01*
X15468Y-40134D01*
X15528Y-40281D01*
X15622Y-40308D01*
X15929Y-40000D01*
X15929Y-40141D01*
X15692Y-40378D01*
X15719Y-40472D01*
X15784Y-40495D01*
X15689Y-40535D01*
X15535Y-40689D01*
X15451Y-40891D01*
X15451Y-41109D01*
X15535Y-41311D01*
X15689Y-41465D01*
X15780Y-41502D01*
X15719Y-41528D01*
X15692Y-41622D01*
X15965Y-41894D01*
X16000Y-41929D01*
X16071Y-42000D01*
X16000Y-42071D01*
X15929Y-42141D01*
X15929Y-42000D01*
X15622Y-41692D01*
X15528Y-41719D01*
X15457Y-41921D01*
X15468Y-42134D01*
X15528Y-42281D01*
X15622Y-42308D01*
X15929Y-42000D01*
X15929Y-42141D01*
X15692Y-42378D01*
X15719Y-42472D01*
X15921Y-42543D01*
X16134Y-42532D01*
X16210Y-42500D01*
X16210Y-42589D01*
X16140Y-42659D01*
X16075Y-42815D01*
X16075Y-42984D01*
X16139Y-43140D01*
X16259Y-43260D01*
X16415Y-43325D01*
X16584Y-43325D01*
X16740Y-43261D01*
X16860Y-43141D01*
X16925Y-42985D01*
X16925Y-42816D01*
X16861Y-42660D01*
X16790Y-42589D01*
X16790Y-42496D01*
X16921Y-42543D01*
X17134Y-42532D01*
X17281Y-42472D01*
X17308Y-42378D01*
X17308Y-46800D01*
X15404Y-46800D01*
X15404Y-19735D01*
X18400Y-19735D01*
X18148Y-19840D01*
X17872Y-20115D01*
X17723Y-20474D01*
X17723Y-20863D01*
X17872Y-21222D01*
X18147Y-21498D01*
X18506Y-21647D01*
X18895Y-21647D01*
X19254Y-21498D01*
X19530Y-21223D01*
X19679Y-20864D01*
X19679Y-20475D01*
X19530Y-20116D01*
X19255Y-19840D01*
X19002Y-19735D01*
X42022Y-19735D01*
X41770Y-19840D01*
X41494Y-20115D01*
X41345Y-20474D01*
X41345Y-20863D01*
X41494Y-21222D01*
X41769Y-21498D01*
X42128Y-21647D01*
X42517Y-21647D01*
X42876Y-21498D01*
X43152Y-21223D01*
X43301Y-20864D01*
X43301Y-20475D01*
X43152Y-20116D01*
X42877Y-19840D01*
X42624Y-19735D01*
X59738Y-19735D01*
X59486Y-19840D01*
X59210Y-20115D01*
X59061Y-20474D01*
X59061Y-20863D01*
X59210Y-21222D01*
X59485Y-21498D01*
X59844Y-21647D01*
X60233Y-21647D01*
X60592Y-21498D01*
X60868Y-21223D01*
X61017Y-20864D01*
X61017Y-20475D01*
X60868Y-20116D01*
X60593Y-19840D01*
X60340Y-19735D01*
X64123Y-19735D01*
X64123Y-26034D01*
X81446Y-26034D01*
X81446Y-36958D01*
G54D10*
G36*
X92076Y-46800D02*
X90545Y-46800D01*
X90545Y-44486D01*
X90545Y-44097D01*
X90396Y-43738D01*
X90121Y-43462D01*
X89762Y-43313D01*
X89373Y-43313D01*
X89014Y-43462D01*
X88738Y-43737D01*
X88589Y-44096D01*
X88589Y-44485D01*
X88738Y-44844D01*
X89013Y-45120D01*
X89372Y-45269D01*
X89761Y-45269D01*
X90120Y-45120D01*
X90396Y-44845D01*
X90545Y-44486D01*
X90545Y-46800D01*
X88044Y-46800D01*
X88044Y-22727D01*
X88044Y-22550D01*
X87976Y-22386D01*
X87851Y-22260D01*
X87687Y-22192D01*
X87510Y-22192D01*
X87346Y-22260D01*
X87220Y-22385D01*
X87152Y-22549D01*
X87152Y-22726D01*
X87220Y-22890D01*
X87345Y-23016D01*
X87509Y-23084D01*
X87686Y-23084D01*
X87850Y-23016D01*
X87976Y-22891D01*
X88044Y-22727D01*
X88044Y-46800D01*
X87053Y-46800D01*
X87053Y-32479D01*
X87042Y-32266D01*
X86982Y-32119D01*
X86888Y-32092D01*
X86581Y-32400D01*
X86888Y-32708D01*
X86982Y-32681D01*
X87053Y-32479D01*
X87053Y-46800D01*
X86818Y-46800D01*
X86818Y-32778D01*
X86510Y-32471D01*
X86202Y-32778D01*
X86229Y-32872D01*
X86431Y-32943D01*
X86644Y-32932D01*
X86791Y-32872D01*
X86818Y-32778D01*
X86818Y-46800D01*
X77798Y-46800D01*
X77798Y-41458D01*
X77490Y-41151D01*
X77182Y-41458D01*
X77209Y-41552D01*
X77411Y-41623D01*
X77624Y-41612D01*
X77771Y-41552D01*
X77798Y-41458D01*
X77798Y-46800D01*
X76798Y-46800D01*
X76798Y-41458D01*
X76490Y-41151D01*
X76182Y-41458D01*
X76209Y-41552D01*
X76411Y-41623D01*
X76624Y-41612D01*
X76771Y-41552D01*
X76798Y-41458D01*
X76798Y-46800D01*
X71310Y-46800D01*
X71310Y-41599D01*
X71381Y-41629D01*
X71599Y-41629D01*
X71801Y-41545D01*
X71955Y-41391D01*
X71990Y-41306D01*
X72025Y-41391D01*
X72179Y-41545D01*
X72381Y-41629D01*
X72599Y-41629D01*
X72801Y-41545D01*
X72955Y-41391D01*
X72990Y-41306D01*
X73025Y-41391D01*
X73179Y-41545D01*
X73381Y-41629D01*
X73599Y-41629D01*
X73801Y-41545D01*
X73955Y-41391D01*
X73990Y-41306D01*
X74025Y-41391D01*
X74179Y-41545D01*
X74381Y-41629D01*
X74599Y-41629D01*
X74801Y-41545D01*
X74955Y-41391D01*
X74990Y-41306D01*
X75025Y-41391D01*
X75179Y-41545D01*
X75381Y-41629D01*
X75599Y-41629D01*
X75801Y-41545D01*
X75955Y-41391D01*
X75992Y-41299D01*
X76018Y-41361D01*
X76112Y-41388D01*
X76384Y-41115D01*
X76419Y-41080D01*
X76490Y-41009D01*
X76561Y-41080D01*
X76596Y-41115D01*
X76868Y-41388D01*
X76962Y-41361D01*
X76987Y-41287D01*
X77018Y-41361D01*
X77112Y-41388D01*
X77384Y-41115D01*
X77419Y-41080D01*
X77490Y-41009D01*
X77561Y-41080D01*
X77596Y-41115D01*
X77868Y-41388D01*
X77962Y-41361D01*
X77985Y-41295D01*
X78025Y-41391D01*
X78179Y-41545D01*
X78381Y-41629D01*
X78599Y-41629D01*
X78801Y-41545D01*
X78955Y-41391D01*
X79039Y-41189D01*
X79039Y-40995D01*
X79931Y-40995D01*
X79931Y-41189D01*
X80015Y-41391D01*
X80169Y-41545D01*
X80371Y-41629D01*
X80589Y-41629D01*
X80791Y-41545D01*
X80945Y-41391D01*
X80980Y-41306D01*
X81015Y-41391D01*
X81169Y-41545D01*
X81371Y-41629D01*
X81589Y-41629D01*
X81791Y-41545D01*
X81945Y-41391D01*
X81980Y-41306D01*
X82015Y-41391D01*
X82169Y-41545D01*
X82371Y-41629D01*
X82589Y-41629D01*
X82791Y-41545D01*
X82945Y-41391D01*
X82980Y-41306D01*
X83015Y-41391D01*
X83169Y-41545D01*
X83371Y-41629D01*
X83589Y-41629D01*
X83791Y-41545D01*
X83945Y-41391D01*
X83980Y-41306D01*
X84015Y-41391D01*
X84169Y-41545D01*
X84371Y-41629D01*
X84589Y-41629D01*
X84791Y-41545D01*
X84945Y-41391D01*
X84980Y-41306D01*
X85015Y-41391D01*
X85169Y-41545D01*
X85371Y-41629D01*
X85589Y-41629D01*
X85791Y-41545D01*
X85945Y-41391D01*
X86029Y-41189D01*
X86029Y-40971D01*
X85945Y-40769D01*
X85791Y-40615D01*
X85589Y-40531D01*
X85371Y-40531D01*
X85169Y-40615D01*
X85089Y-40695D01*
X85089Y-32755D01*
X85199Y-32865D01*
X85401Y-32949D01*
X85619Y-32949D01*
X85821Y-32865D01*
X85975Y-32711D01*
X86012Y-32619D01*
X86038Y-32681D01*
X86132Y-32708D01*
X86439Y-32400D01*
X86132Y-32092D01*
X86038Y-32119D01*
X86014Y-32184D01*
X85975Y-32089D01*
X85821Y-31935D01*
X85736Y-31900D01*
X85821Y-31865D01*
X85975Y-31711D01*
X86010Y-31626D01*
X86045Y-31711D01*
X86199Y-31865D01*
X86290Y-31902D01*
X86229Y-31928D01*
X86202Y-32022D01*
X86510Y-32329D01*
X86818Y-32022D01*
X86791Y-31928D01*
X86725Y-31904D01*
X86821Y-31865D01*
X86975Y-31711D01*
X87059Y-31509D01*
X87059Y-31291D01*
X86975Y-31089D01*
X86821Y-30935D01*
X86736Y-30900D01*
X86821Y-30865D01*
X86975Y-30711D01*
X87059Y-30509D01*
X87059Y-30291D01*
X86975Y-30089D01*
X86835Y-29949D01*
X86859Y-29949D01*
X86951Y-29911D01*
X87021Y-29841D01*
X87059Y-29750D01*
X87059Y-29651D01*
X87059Y-29051D01*
X87021Y-28959D01*
X86951Y-28889D01*
X86860Y-28851D01*
X86835Y-28851D01*
X86975Y-28711D01*
X87059Y-28509D01*
X87059Y-28291D01*
X86975Y-28089D01*
X86821Y-27935D01*
X86736Y-27900D01*
X86821Y-27865D01*
X86975Y-27711D01*
X87059Y-27509D01*
X87059Y-27291D01*
X86975Y-27089D01*
X86821Y-26935D01*
X86736Y-26900D01*
X86821Y-26865D01*
X86975Y-26711D01*
X87059Y-26509D01*
X87059Y-26291D01*
X86975Y-26089D01*
X86821Y-25935D01*
X86736Y-25900D01*
X86821Y-25865D01*
X86975Y-25711D01*
X87059Y-25509D01*
X87059Y-25291D01*
X86975Y-25089D01*
X86821Y-24935D01*
X86619Y-24851D01*
X86401Y-24851D01*
X86199Y-24935D01*
X86045Y-25089D01*
X86010Y-25173D01*
X85975Y-25089D01*
X85821Y-24935D01*
X85619Y-24851D01*
X85401Y-24851D01*
X85199Y-24935D01*
X85089Y-25045D01*
X85089Y-22391D01*
X84895Y-22391D01*
X84975Y-22311D01*
X85010Y-22226D01*
X85045Y-22311D01*
X85199Y-22465D01*
X85401Y-22549D01*
X85619Y-22549D01*
X85821Y-22465D01*
X85975Y-22311D01*
X86059Y-22109D01*
X86059Y-21891D01*
X85975Y-21689D01*
X85821Y-21535D01*
X85619Y-21451D01*
X85401Y-21451D01*
X85199Y-21535D01*
X85045Y-21689D01*
X85010Y-21773D01*
X84975Y-21689D01*
X84821Y-21535D01*
X84619Y-21451D01*
X84401Y-21451D01*
X84199Y-21535D01*
X84045Y-21689D01*
X84010Y-21773D01*
X83975Y-21689D01*
X83821Y-21535D01*
X83619Y-21451D01*
X83401Y-21451D01*
X83199Y-21535D01*
X83045Y-21689D01*
X83010Y-21773D01*
X82975Y-21689D01*
X82821Y-21535D01*
X82619Y-21451D01*
X82401Y-21451D01*
X82199Y-21535D01*
X82045Y-21689D01*
X82010Y-21773D01*
X81975Y-21689D01*
X81821Y-21535D01*
X81619Y-21451D01*
X81401Y-21451D01*
X81199Y-21535D01*
X81045Y-21689D01*
X81010Y-21773D01*
X80975Y-21689D01*
X80821Y-21535D01*
X80619Y-21451D01*
X80401Y-21451D01*
X80199Y-21535D01*
X80045Y-21689D01*
X80010Y-21773D01*
X79975Y-21689D01*
X79821Y-21535D01*
X79619Y-21451D01*
X79401Y-21451D01*
X79199Y-21535D01*
X79045Y-21689D01*
X79010Y-21773D01*
X78975Y-21689D01*
X78821Y-21535D01*
X78619Y-21451D01*
X78401Y-21451D01*
X78199Y-21535D01*
X78045Y-21689D01*
X77961Y-21891D01*
X77961Y-22109D01*
X78045Y-22311D01*
X78125Y-22391D01*
X77385Y-22391D01*
X77465Y-22311D01*
X77549Y-22109D01*
X77549Y-21891D01*
X77465Y-21689D01*
X77311Y-21535D01*
X77109Y-21451D01*
X76891Y-21451D01*
X76689Y-21535D01*
X76535Y-21689D01*
X76500Y-21773D01*
X76465Y-21689D01*
X76311Y-21535D01*
X76109Y-21451D01*
X75891Y-21451D01*
X75689Y-21535D01*
X75535Y-21689D01*
X75500Y-21773D01*
X75465Y-21689D01*
X75311Y-21535D01*
X75109Y-21451D01*
X74891Y-21451D01*
X74689Y-21535D01*
X74535Y-21689D01*
X74500Y-21773D01*
X74465Y-21689D01*
X74311Y-21535D01*
X74109Y-21451D01*
X73891Y-21451D01*
X73689Y-21535D01*
X73535Y-21689D01*
X73500Y-21773D01*
X73465Y-21689D01*
X73311Y-21535D01*
X73109Y-21451D01*
X72891Y-21451D01*
X72689Y-21535D01*
X72535Y-21689D01*
X72500Y-21773D01*
X72465Y-21689D01*
X72311Y-21535D01*
X72109Y-21451D01*
X71891Y-21451D01*
X71689Y-21535D01*
X71535Y-21689D01*
X71497Y-21780D01*
X71472Y-21719D01*
X71378Y-21692D01*
X71308Y-21762D01*
X71308Y-21622D01*
X71281Y-21528D01*
X71079Y-21457D01*
X70866Y-21468D01*
X70719Y-21528D01*
X70692Y-21622D01*
X71000Y-21929D01*
X71308Y-21622D01*
X71308Y-21762D01*
X71071Y-22000D01*
X71000Y-22071D01*
X70929Y-22000D01*
X70894Y-21965D01*
X70622Y-21692D01*
X70528Y-21719D01*
X70504Y-21784D01*
X70465Y-21689D01*
X70311Y-21535D01*
X70109Y-21451D01*
X69891Y-21451D01*
X69689Y-21535D01*
X69535Y-21689D01*
X69500Y-21773D01*
X69465Y-21689D01*
X69311Y-21535D01*
X69109Y-21451D01*
X68891Y-21451D01*
X68689Y-21535D01*
X68535Y-21689D01*
X68500Y-21773D01*
X68465Y-21689D01*
X68311Y-21535D01*
X68109Y-21451D01*
X67891Y-21451D01*
X67767Y-21502D01*
X67767Y-19735D01*
X89266Y-19735D01*
X89014Y-19840D01*
X88738Y-20115D01*
X88589Y-20474D01*
X88589Y-20863D01*
X88738Y-21222D01*
X89013Y-21498D01*
X89372Y-21647D01*
X89761Y-21647D01*
X90120Y-21498D01*
X90396Y-21223D01*
X90545Y-20864D01*
X90545Y-20475D01*
X90396Y-20116D01*
X90121Y-19840D01*
X89868Y-19735D01*
X92076Y-19735D01*
X92076Y-46800D01*
X92076Y-46800D01*
G37*
G54D20*
X92076Y-46800D02*
X90545Y-46800D01*
X90545Y-44486D01*
X90545Y-44097D01*
X90396Y-43738D01*
X90121Y-43462D01*
X89762Y-43313D01*
X89373Y-43313D01*
X89014Y-43462D01*
X88738Y-43737D01*
X88589Y-44096D01*
X88589Y-44485D01*
X88738Y-44844D01*
X89013Y-45120D01*
X89372Y-45269D01*
X89761Y-45269D01*
X90120Y-45120D01*
X90396Y-44845D01*
X90545Y-44486D01*
X90545Y-46800D01*
X88044Y-46800D01*
X88044Y-22727D01*
X88044Y-22550D01*
X87976Y-22386D01*
X87851Y-22260D01*
X87687Y-22192D01*
X87510Y-22192D01*
X87346Y-22260D01*
X87220Y-22385D01*
X87152Y-22549D01*
X87152Y-22726D01*
X87220Y-22890D01*
X87345Y-23016D01*
X87509Y-23084D01*
X87686Y-23084D01*
X87850Y-23016D01*
X87976Y-22891D01*
X88044Y-22727D01*
X88044Y-46800D01*
X87053Y-46800D01*
X87053Y-32479D01*
X87042Y-32266D01*
X86982Y-32119D01*
X86888Y-32092D01*
X86581Y-32400D01*
X86888Y-32708D01*
X86982Y-32681D01*
X87053Y-32479D01*
X87053Y-46800D01*
X86818Y-46800D01*
X86818Y-32778D01*
X86510Y-32471D01*
X86202Y-32778D01*
X86229Y-32872D01*
X86431Y-32943D01*
X86644Y-32932D01*
X86791Y-32872D01*
X86818Y-32778D01*
X86818Y-46800D01*
X77798Y-46800D01*
X77798Y-41458D01*
X77490Y-41151D01*
X77182Y-41458D01*
X77209Y-41552D01*
X77411Y-41623D01*
X77624Y-41612D01*
X77771Y-41552D01*
X77798Y-41458D01*
X77798Y-46800D01*
X76798Y-46800D01*
X76798Y-41458D01*
X76490Y-41151D01*
X76182Y-41458D01*
X76209Y-41552D01*
X76411Y-41623D01*
X76624Y-41612D01*
X76771Y-41552D01*
X76798Y-41458D01*
X76798Y-46800D01*
X71310Y-46800D01*
X71310Y-41599D01*
X71381Y-41629D01*
X71599Y-41629D01*
X71801Y-41545D01*
X71955Y-41391D01*
X71990Y-41306D01*
X72025Y-41391D01*
X72179Y-41545D01*
X72381Y-41629D01*
X72599Y-41629D01*
X72801Y-41545D01*
X72955Y-41391D01*
X72990Y-41306D01*
X73025Y-41391D01*
X73179Y-41545D01*
X73381Y-41629D01*
X73599Y-41629D01*
X73801Y-41545D01*
X73955Y-41391D01*
X73990Y-41306D01*
X74025Y-41391D01*
X74179Y-41545D01*
X74381Y-41629D01*
X74599Y-41629D01*
X74801Y-41545D01*
X74955Y-41391D01*
X74990Y-41306D01*
X75025Y-41391D01*
X75179Y-41545D01*
X75381Y-41629D01*
X75599Y-41629D01*
X75801Y-41545D01*
X75955Y-41391D01*
X75992Y-41299D01*
X76018Y-41361D01*
X76112Y-41388D01*
X76384Y-41115D01*
X76419Y-41080D01*
X76490Y-41009D01*
X76561Y-41080D01*
X76596Y-41115D01*
X76868Y-41388D01*
X76962Y-41361D01*
X76987Y-41287D01*
X77018Y-41361D01*
X77112Y-41388D01*
X77384Y-41115D01*
X77419Y-41080D01*
X77490Y-41009D01*
X77561Y-41080D01*
X77596Y-41115D01*
X77868Y-41388D01*
X77962Y-41361D01*
X77985Y-41295D01*
X78025Y-41391D01*
X78179Y-41545D01*
X78381Y-41629D01*
X78599Y-41629D01*
X78801Y-41545D01*
X78955Y-41391D01*
X79039Y-41189D01*
X79039Y-40995D01*
X79931Y-40995D01*
X79931Y-41189D01*
X80015Y-41391D01*
X80169Y-41545D01*
X80371Y-41629D01*
X80589Y-41629D01*
X80791Y-41545D01*
X80945Y-41391D01*
X80980Y-41306D01*
X81015Y-41391D01*
X81169Y-41545D01*
X81371Y-41629D01*
X81589Y-41629D01*
X81791Y-41545D01*
X81945Y-41391D01*
X81980Y-41306D01*
X82015Y-41391D01*
X82169Y-41545D01*
X82371Y-41629D01*
X82589Y-41629D01*
X82791Y-41545D01*
X82945Y-41391D01*
X82980Y-41306D01*
X83015Y-41391D01*
X83169Y-41545D01*
X83371Y-41629D01*
X83589Y-41629D01*
X83791Y-41545D01*
X83945Y-41391D01*
X83980Y-41306D01*
X84015Y-41391D01*
X84169Y-41545D01*
X84371Y-41629D01*
X84589Y-41629D01*
X84791Y-41545D01*
X84945Y-41391D01*
X84980Y-41306D01*
X85015Y-41391D01*
X85169Y-41545D01*
X85371Y-41629D01*
X85589Y-41629D01*
X85791Y-41545D01*
X85945Y-41391D01*
X86029Y-41189D01*
X86029Y-40971D01*
X85945Y-40769D01*
X85791Y-40615D01*
X85589Y-40531D01*
X85371Y-40531D01*
X85169Y-40615D01*
X85089Y-40695D01*
X85089Y-32755D01*
X85199Y-32865D01*
X85401Y-32949D01*
X85619Y-32949D01*
X85821Y-32865D01*
X85975Y-32711D01*
X86012Y-32619D01*
X86038Y-32681D01*
X86132Y-32708D01*
X86439Y-32400D01*
X86132Y-32092D01*
X86038Y-32119D01*
X86014Y-32184D01*
X85975Y-32089D01*
X85821Y-31935D01*
X85736Y-31900D01*
X85821Y-31865D01*
X85975Y-31711D01*
X86010Y-31626D01*
X86045Y-31711D01*
X86199Y-31865D01*
X86290Y-31902D01*
X86229Y-31928D01*
X86202Y-32022D01*
X86510Y-32329D01*
X86818Y-32022D01*
X86791Y-31928D01*
X86725Y-31904D01*
X86821Y-31865D01*
X86975Y-31711D01*
X87059Y-31509D01*
X87059Y-31291D01*
X86975Y-31089D01*
X86821Y-30935D01*
X86736Y-30900D01*
X86821Y-30865D01*
X86975Y-30711D01*
X87059Y-30509D01*
X87059Y-30291D01*
X86975Y-30089D01*
X86835Y-29949D01*
X86859Y-29949D01*
X86951Y-29911D01*
X87021Y-29841D01*
X87059Y-29750D01*
X87059Y-29651D01*
X87059Y-29051D01*
X87021Y-28959D01*
X86951Y-28889D01*
X86860Y-28851D01*
X86835Y-28851D01*
X86975Y-28711D01*
X87059Y-28509D01*
X87059Y-28291D01*
X86975Y-28089D01*
X86821Y-27935D01*
X86736Y-27900D01*
X86821Y-27865D01*
X86975Y-27711D01*
X87059Y-27509D01*
X87059Y-27291D01*
X86975Y-27089D01*
X86821Y-26935D01*
X86736Y-26900D01*
X86821Y-26865D01*
X86975Y-26711D01*
X87059Y-26509D01*
X87059Y-26291D01*
X86975Y-26089D01*
X86821Y-25935D01*
X86736Y-25900D01*
X86821Y-25865D01*
X86975Y-25711D01*
X87059Y-25509D01*
X87059Y-25291D01*
X86975Y-25089D01*
X86821Y-24935D01*
X86619Y-24851D01*
X86401Y-24851D01*
X86199Y-24935D01*
X86045Y-25089D01*
X86010Y-25173D01*
X85975Y-25089D01*
X85821Y-24935D01*
X85619Y-24851D01*
X85401Y-24851D01*
X85199Y-24935D01*
X85089Y-25045D01*
X85089Y-22391D01*
X84895Y-22391D01*
X84975Y-22311D01*
X85010Y-22226D01*
X85045Y-22311D01*
X85199Y-22465D01*
X85401Y-22549D01*
X85619Y-22549D01*
X85821Y-22465D01*
X85975Y-22311D01*
X86059Y-22109D01*
X86059Y-21891D01*
X85975Y-21689D01*
X85821Y-21535D01*
X85619Y-21451D01*
X85401Y-21451D01*
X85199Y-21535D01*
X85045Y-21689D01*
X85010Y-21773D01*
X84975Y-21689D01*
X84821Y-21535D01*
X84619Y-21451D01*
X84401Y-21451D01*
X84199Y-21535D01*
X84045Y-21689D01*
X84010Y-21773D01*
X83975Y-21689D01*
X83821Y-21535D01*
X83619Y-21451D01*
X83401Y-21451D01*
X83199Y-21535D01*
X83045Y-21689D01*
X83010Y-21773D01*
X82975Y-21689D01*
X82821Y-21535D01*
X82619Y-21451D01*
X82401Y-21451D01*
X82199Y-21535D01*
X82045Y-21689D01*
X82010Y-21773D01*
X81975Y-21689D01*
X81821Y-21535D01*
X81619Y-21451D01*
X81401Y-21451D01*
X81199Y-21535D01*
X81045Y-21689D01*
X81010Y-21773D01*
X80975Y-21689D01*
X80821Y-21535D01*
X80619Y-21451D01*
X80401Y-21451D01*
X80199Y-21535D01*
X80045Y-21689D01*
X80010Y-21773D01*
X79975Y-21689D01*
X79821Y-21535D01*
X79619Y-21451D01*
X79401Y-21451D01*
X79199Y-21535D01*
X79045Y-21689D01*
X79010Y-21773D01*
X78975Y-21689D01*
X78821Y-21535D01*
X78619Y-21451D01*
X78401Y-21451D01*
X78199Y-21535D01*
X78045Y-21689D01*
X77961Y-21891D01*
X77961Y-22109D01*
X78045Y-22311D01*
X78125Y-22391D01*
X77385Y-22391D01*
X77465Y-22311D01*
X77549Y-22109D01*
X77549Y-21891D01*
X77465Y-21689D01*
X77311Y-21535D01*
X77109Y-21451D01*
X76891Y-21451D01*
X76689Y-21535D01*
X76535Y-21689D01*
X76500Y-21773D01*
X76465Y-21689D01*
X76311Y-21535D01*
X76109Y-21451D01*
X75891Y-21451D01*
X75689Y-21535D01*
X75535Y-21689D01*
X75500Y-21773D01*
X75465Y-21689D01*
X75311Y-21535D01*
X75109Y-21451D01*
X74891Y-21451D01*
X74689Y-21535D01*
X74535Y-21689D01*
X74500Y-21773D01*
X74465Y-21689D01*
X74311Y-21535D01*
X74109Y-21451D01*
X73891Y-21451D01*
X73689Y-21535D01*
X73535Y-21689D01*
X73500Y-21773D01*
X73465Y-21689D01*
X73311Y-21535D01*
X73109Y-21451D01*
X72891Y-21451D01*
X72689Y-21535D01*
X72535Y-21689D01*
X72500Y-21773D01*
X72465Y-21689D01*
X72311Y-21535D01*
X72109Y-21451D01*
X71891Y-21451D01*
X71689Y-21535D01*
X71535Y-21689D01*
X71497Y-21780D01*
X71472Y-21719D01*
X71378Y-21692D01*
X71308Y-21762D01*
X71308Y-21622D01*
X71281Y-21528D01*
X71079Y-21457D01*
X70866Y-21468D01*
X70719Y-21528D01*
X70692Y-21622D01*
X71000Y-21929D01*
X71308Y-21622D01*
X71308Y-21762D01*
X71071Y-22000D01*
X71000Y-22071D01*
X70929Y-22000D01*
X70894Y-21965D01*
X70622Y-21692D01*
X70528Y-21719D01*
X70504Y-21784D01*
X70465Y-21689D01*
X70311Y-21535D01*
X70109Y-21451D01*
X69891Y-21451D01*
X69689Y-21535D01*
X69535Y-21689D01*
X69500Y-21773D01*
X69465Y-21689D01*
X69311Y-21535D01*
X69109Y-21451D01*
X68891Y-21451D01*
X68689Y-21535D01*
X68535Y-21689D01*
X68500Y-21773D01*
X68465Y-21689D01*
X68311Y-21535D01*
X68109Y-21451D01*
X67891Y-21451D01*
X67767Y-21502D01*
X67767Y-19735D01*
X89266Y-19735D01*
X89014Y-19840D01*
X88738Y-20115D01*
X88589Y-20474D01*
X88589Y-20863D01*
X88738Y-21222D01*
X89013Y-21498D01*
X89372Y-21647D01*
X89761Y-21647D01*
X90120Y-21498D01*
X90396Y-21223D01*
X90545Y-20864D01*
X90545Y-20475D01*
X90396Y-20116D01*
X90121Y-19840D01*
X89868Y-19735D01*
X92076Y-19735D01*
X92076Y-46800D01*
M02*
