G04 (created by PCBNEW-RS274X (2012-apr-16-27)-stable) date Tue 27 Aug 2013 03:52:19 AM UTC*
G01*
G70*
G90*
%MOIN*%
G04 Gerber Fmt 3.4, Leading zero omitted, Abs format*
%FSLAX34Y34*%
G04 APERTURE LIST*
%ADD10C,0.006000*%
%ADD11C,0.145700*%
%ADD12R,0.060000X0.060000*%
%ADD13C,0.060000*%
%ADD14C,0.035000*%
%ADD15C,0.008000*%
G04 APERTURE END LIST*
G54D10*
G54D11*
X18701Y-20669D03*
X42323Y-20669D03*
X60039Y-20669D03*
X89567Y-20669D03*
X89567Y-44291D03*
X60039Y-44291D03*
X42323Y-44291D03*
X18701Y-44291D03*
G54D12*
X85510Y-25400D03*
G54D13*
X86510Y-25400D03*
X85510Y-26400D03*
X86510Y-26400D03*
X85510Y-27400D03*
X86510Y-27400D03*
X85510Y-28400D03*
X86510Y-28400D03*
X85510Y-29400D03*
X86510Y-29400D03*
X71490Y-41080D03*
X72490Y-41080D03*
X73490Y-41080D03*
X74490Y-41080D03*
X75490Y-41080D03*
X76490Y-41080D03*
X77490Y-41080D03*
X78490Y-41080D03*
X80480Y-41080D03*
X81480Y-41080D03*
X82480Y-41080D03*
X83480Y-41080D03*
X84480Y-41080D03*
X85480Y-41080D03*
X85510Y-30400D03*
X85510Y-31400D03*
X85510Y-32400D03*
X86510Y-32400D03*
X86510Y-31400D03*
X86510Y-30400D03*
X85510Y-22000D03*
X84510Y-22000D03*
X83510Y-22000D03*
X82510Y-22000D03*
X81510Y-22000D03*
X80510Y-22000D03*
X79510Y-22000D03*
X78510Y-22000D03*
X77000Y-22000D03*
X76000Y-22000D03*
X75000Y-22000D03*
X74000Y-22000D03*
X73000Y-22000D03*
X72000Y-22000D03*
X71000Y-22000D03*
X70000Y-22000D03*
X69000Y-22000D03*
X68000Y-22000D03*
G54D14*
X84500Y-34500D03*
X84500Y-25500D03*
X84500Y-30500D03*
X84500Y-23500D03*
X84500Y-27000D03*
X84500Y-39000D03*
X24370Y-33031D03*
X24331Y-45276D03*
X73031Y-32638D03*
X73031Y-33504D03*
X24449Y-31693D03*
X24488Y-20079D03*
X74212Y-31764D03*
X30512Y-45276D03*
X30512Y-33307D03*
X74212Y-34370D03*
X30354Y-31260D03*
X30354Y-20079D03*
X71023Y-36378D03*
X71024Y-30980D03*
X36575Y-37598D03*
X36575Y-45276D03*
X36220Y-20079D03*
X36220Y-27717D03*
X42165Y-38150D03*
X72283Y-35354D03*
X72283Y-29724D03*
X42165Y-42205D03*
X42244Y-27047D03*
X42244Y-22717D03*
X72283Y-37519D03*
X72283Y-38385D03*
X48307Y-45276D03*
X48307Y-38583D03*
X48228Y-26654D03*
X48228Y-20079D03*
X54173Y-45276D03*
X73464Y-39252D03*
X73464Y-36653D03*
X54173Y-39055D03*
X54094Y-26299D03*
X54094Y-20079D03*
X74645Y-40118D03*
X59843Y-42323D03*
X59882Y-39528D03*
X74645Y-35787D03*
X59882Y-22677D03*
X59882Y-25945D03*
X76417Y-45275D03*
X75826Y-34921D03*
X65630Y-23465D03*
X65630Y-20079D03*
X83500Y-28500D03*
X83500Y-24500D03*
X83500Y-32500D03*
X83500Y-36500D03*
X83511Y-25900D03*
X84000Y-32000D03*
X84000Y-36000D03*
X84011Y-26400D03*
X84000Y-24000D03*
X84000Y-28000D03*
X81011Y-35900D03*
X81011Y-29900D03*
X82500Y-25500D03*
X82511Y-27400D03*
X82500Y-29500D03*
X82500Y-33500D03*
X82500Y-37500D03*
X83000Y-29000D03*
X83000Y-37000D03*
X83000Y-25000D03*
X83000Y-33000D03*
X87500Y-34000D03*
X87000Y-21000D03*
X88000Y-34500D03*
X87500Y-20500D03*
X23780Y-44094D03*
X23780Y-32795D03*
X23780Y-21240D03*
X23819Y-32283D03*
X29724Y-33150D03*
X73622Y-33937D03*
X73622Y-32205D03*
X29724Y-44094D03*
X29764Y-21220D03*
X29724Y-31457D03*
X74803Y-34804D03*
X74804Y-31338D03*
X35591Y-44094D03*
X35591Y-33465D03*
X35630Y-21260D03*
X35630Y-31102D03*
X71615Y-30318D03*
X41535Y-37953D03*
X41535Y-42205D03*
X71614Y-35708D03*
X41535Y-22717D03*
X41535Y-27323D03*
X47362Y-38386D03*
X47362Y-44055D03*
X47441Y-26850D03*
X47441Y-21260D03*
X53228Y-44094D03*
X72874Y-37086D03*
X72874Y-38818D03*
X53228Y-38780D03*
X53346Y-26378D03*
X53346Y-21260D03*
X74055Y-39685D03*
X74055Y-36220D03*
X59134Y-39291D03*
X59134Y-42283D03*
X59291Y-23110D03*
X59291Y-26102D03*
X75236Y-44015D03*
X75236Y-35354D03*
X65157Y-21260D03*
X65157Y-23858D03*
X76500Y-35000D03*
X75342Y-30149D03*
X74850Y-30649D03*
X37598Y-46141D03*
X88500Y-35000D03*
X76500Y-31000D03*
X43346Y-46259D03*
X19724Y-46417D03*
X78516Y-27126D03*
X69767Y-30303D03*
X31181Y-25590D03*
X31692Y-46141D03*
X25393Y-46181D03*
X76500Y-40000D03*
X18661Y-39409D03*
X76500Y-38500D03*
X61181Y-25590D03*
X49488Y-25590D03*
X76500Y-26500D03*
X74724Y-26299D03*
X54842Y-25590D03*
X55314Y-46220D03*
X37047Y-25590D03*
X43464Y-25590D03*
X61023Y-46259D03*
X66456Y-28504D03*
X61023Y-28189D03*
X66456Y-25393D03*
X70354Y-26299D03*
X25314Y-25590D03*
X60669Y-41929D03*
X37047Y-37007D03*
X31259Y-33897D03*
X65590Y-43228D03*
X60472Y-37204D03*
X43149Y-34055D03*
X54763Y-37204D03*
X60472Y-33858D03*
X54763Y-39567D03*
X60669Y-39960D03*
X72874Y-35433D03*
X75433Y-34252D03*
X37047Y-34055D03*
X43149Y-39567D03*
X65196Y-37204D03*
X65196Y-33858D03*
X65196Y-30708D03*
X73267Y-31496D03*
X25314Y-39448D03*
X18779Y-25590D03*
X49409Y-46220D03*
X48858Y-37204D03*
X42952Y-37204D03*
X49055Y-39567D03*
X54763Y-33858D03*
X37440Y-39567D03*
X31259Y-39488D03*
X88500Y-32500D03*
X25314Y-33818D03*
X84500Y-40000D03*
X80500Y-31000D03*
X49055Y-33858D03*
X88000Y-35500D03*
X80130Y-27677D03*
X43189Y-28228D03*
X80500Y-35500D03*
X54842Y-28149D03*
X25314Y-28307D03*
X80500Y-40000D03*
X37047Y-28346D03*
X31220Y-28346D03*
X86500Y-23000D03*
X49094Y-28267D03*
X65393Y-39960D03*
X82000Y-24000D03*
X82000Y-34000D03*
X81500Y-38500D03*
X81500Y-32000D03*
G54D15*
X84500Y-25500D02*
X84500Y-27000D01*
X84500Y-27000D02*
X84500Y-30500D01*
X84500Y-34500D02*
X84500Y-39000D01*
X84500Y-30500D02*
X84500Y-34500D01*
X84500Y-25500D02*
X84500Y-23500D01*
X24331Y-45276D02*
X24370Y-45237D01*
X73031Y-32638D02*
X73031Y-33504D01*
X24370Y-45237D02*
X24370Y-33031D01*
X24488Y-31654D02*
X24488Y-20079D01*
X24449Y-31693D02*
X24488Y-31654D01*
X74212Y-31764D02*
X74212Y-34370D01*
X30512Y-45276D02*
X30512Y-33307D01*
X30354Y-31260D02*
X30354Y-20079D01*
X71024Y-30980D02*
X71024Y-36180D01*
X71023Y-36181D02*
X71023Y-36378D01*
X36575Y-45276D02*
X36575Y-37598D01*
X71024Y-36180D02*
X71023Y-36181D01*
X36260Y-26378D02*
X36260Y-26496D01*
X36260Y-27677D02*
X36260Y-26378D01*
X36220Y-27717D02*
X36260Y-27677D01*
X36220Y-20079D02*
X36260Y-20119D01*
X36260Y-20119D02*
X36260Y-26378D01*
X72283Y-35354D02*
X72283Y-29724D01*
X42165Y-42205D02*
X42165Y-38150D01*
X42244Y-22717D02*
X42244Y-27047D01*
X48307Y-45276D02*
X48307Y-38583D01*
X72283Y-38385D02*
X72283Y-37519D01*
X48228Y-26654D02*
X48228Y-20079D01*
X54173Y-45276D02*
X54173Y-39055D01*
X73464Y-36653D02*
X73464Y-39252D01*
X54094Y-26299D02*
X54094Y-20079D01*
X59882Y-42284D02*
X59882Y-39528D01*
X59843Y-42323D02*
X59882Y-42284D01*
X74645Y-35787D02*
X74645Y-40118D01*
X59882Y-25945D02*
X59882Y-22677D01*
X76417Y-42283D02*
X76417Y-45275D01*
X75826Y-40432D02*
X75984Y-40590D01*
X75826Y-34921D02*
X75826Y-40432D01*
X75984Y-40590D02*
X75984Y-41850D01*
X75984Y-41850D02*
X76417Y-42283D01*
X65630Y-23465D02*
X65630Y-20079D01*
X83500Y-25900D02*
X83511Y-25900D01*
X83500Y-25900D02*
X83500Y-24500D01*
X83500Y-36500D02*
X83500Y-32500D01*
X83500Y-32500D02*
X83500Y-28500D01*
X83500Y-28500D02*
X83500Y-25900D01*
X84000Y-28000D02*
X84000Y-32000D01*
X84011Y-26400D02*
X84000Y-26400D01*
X84000Y-24000D02*
X84000Y-26400D01*
X84000Y-26400D02*
X84000Y-28000D01*
X84000Y-32000D02*
X84000Y-36000D01*
X81011Y-35900D02*
X81011Y-29900D01*
X82500Y-27400D02*
X82500Y-25500D01*
X82500Y-33500D02*
X82500Y-29500D01*
X82500Y-29500D02*
X82500Y-27400D01*
X82500Y-37500D02*
X82500Y-33500D01*
X82511Y-27400D02*
X82500Y-27400D01*
X83000Y-33000D02*
X83000Y-29000D01*
X83000Y-37000D02*
X83000Y-33000D01*
X83000Y-29000D02*
X83000Y-25000D01*
X87500Y-21500D02*
X87500Y-34000D01*
X87000Y-21000D02*
X87500Y-21500D01*
X87500Y-20500D02*
X88000Y-21000D01*
X88000Y-21000D02*
X88000Y-34500D01*
X23780Y-32756D02*
X23780Y-32795D01*
X23780Y-44094D02*
X23780Y-32756D01*
X23819Y-21279D02*
X23819Y-32283D01*
X23780Y-21240D02*
X23819Y-21279D01*
X73622Y-32205D02*
X73622Y-33937D01*
X29724Y-44094D02*
X29724Y-33150D01*
X29724Y-21260D02*
X29724Y-31457D01*
X29764Y-21220D02*
X29724Y-21260D01*
X35591Y-44094D02*
X35591Y-33465D01*
X74804Y-34803D02*
X74803Y-34804D01*
X74804Y-31338D02*
X74804Y-34803D01*
X35630Y-21260D02*
X35630Y-31102D01*
X41535Y-42205D02*
X41535Y-37953D01*
X71615Y-35707D02*
X71614Y-35708D01*
X71615Y-30318D02*
X71615Y-35707D01*
X41535Y-27323D02*
X41535Y-22717D01*
X47362Y-44055D02*
X47362Y-38386D01*
X47441Y-21260D02*
X47441Y-26850D01*
X53228Y-44094D02*
X53228Y-38780D01*
X72874Y-38818D02*
X72874Y-37086D01*
X53346Y-21260D02*
X53346Y-26378D01*
X74055Y-36220D02*
X74055Y-39685D01*
X59134Y-42283D02*
X59134Y-39291D01*
X59291Y-23110D02*
X59291Y-26102D01*
X75039Y-41771D02*
X75236Y-41968D01*
X75236Y-41968D02*
X75236Y-44015D01*
X75236Y-35354D02*
X75236Y-40433D01*
X75236Y-40433D02*
X75039Y-40630D01*
X75039Y-40630D02*
X75039Y-41771D01*
X65157Y-21260D02*
X65157Y-23858D01*
X19252Y-46850D02*
X15550Y-46850D01*
X75342Y-30157D02*
X75342Y-30149D01*
X74850Y-30649D02*
X75342Y-30157D01*
X66732Y-19685D02*
X67795Y-19685D01*
X53543Y-19685D02*
X66732Y-19685D01*
X36889Y-46850D02*
X36811Y-46850D01*
X37598Y-46141D02*
X36889Y-46850D01*
X42755Y-46850D02*
X42519Y-46850D01*
X43346Y-46259D02*
X42755Y-46850D01*
X71000Y-22000D02*
X71000Y-19945D01*
X71000Y-19945D02*
X71260Y-19685D01*
X76500Y-38500D02*
X76500Y-40000D01*
X36811Y-46850D02*
X32480Y-46850D01*
X38386Y-46850D02*
X36811Y-46850D01*
X91929Y-19685D02*
X92126Y-19882D01*
X42519Y-46850D02*
X38386Y-46850D01*
X48622Y-46850D02*
X42519Y-46850D01*
X50394Y-46850D02*
X48622Y-46850D01*
X92126Y-19882D02*
X92126Y-46456D01*
X31692Y-46141D02*
X30983Y-46850D01*
X67795Y-19685D02*
X71260Y-19685D01*
X24645Y-46850D02*
X19252Y-46850D01*
X35827Y-19685D02*
X49016Y-19685D01*
X15748Y-19685D02*
X25394Y-19685D01*
X49016Y-19685D02*
X53543Y-19685D01*
X15550Y-46850D02*
X15354Y-46654D01*
X19291Y-46850D02*
X19252Y-46850D01*
X19724Y-46417D02*
X19291Y-46850D01*
X15354Y-20079D02*
X15748Y-19685D01*
X73267Y-31496D02*
X74114Y-30649D01*
X74114Y-30649D02*
X74850Y-30649D01*
X25394Y-19685D02*
X31496Y-19685D01*
X31496Y-19685D02*
X35827Y-19685D01*
X61181Y-25590D02*
X61181Y-28031D01*
X24724Y-46850D02*
X24645Y-46850D01*
X25393Y-46181D02*
X24724Y-46850D01*
X15354Y-42716D02*
X15354Y-42952D01*
X54488Y-46850D02*
X50394Y-46850D01*
X56102Y-46850D02*
X54488Y-46850D01*
X60236Y-46850D02*
X56102Y-46850D01*
X67717Y-46850D02*
X60236Y-46850D01*
X92126Y-46456D02*
X91732Y-46850D01*
X91732Y-46850D02*
X67717Y-46850D01*
X80500Y-31000D02*
X80500Y-35500D01*
X26575Y-46850D02*
X24645Y-46850D01*
X76500Y-35000D02*
X76500Y-38500D01*
X18740Y-25551D02*
X15866Y-25551D01*
X18779Y-25590D02*
X18740Y-25551D01*
X15866Y-25551D02*
X15354Y-25039D01*
X18661Y-39409D02*
X15354Y-42716D01*
X54684Y-46850D02*
X54488Y-46850D01*
X55314Y-46220D02*
X54684Y-46850D01*
X66456Y-20708D02*
X66456Y-25393D01*
X67479Y-19685D02*
X66456Y-20708D01*
X60432Y-46850D02*
X60236Y-46850D01*
X66456Y-25393D02*
X66456Y-28504D01*
X61023Y-46259D02*
X60432Y-46850D01*
X67795Y-19685D02*
X67479Y-19685D01*
X61181Y-28031D02*
X61023Y-28189D01*
X30983Y-46850D02*
X30866Y-46850D01*
X54842Y-28149D02*
X54842Y-33779D01*
X37440Y-37400D02*
X37440Y-39567D01*
X37047Y-37007D02*
X37440Y-37400D01*
X31220Y-33858D02*
X31259Y-33897D01*
X43189Y-34015D02*
X43149Y-34055D01*
X15354Y-25039D02*
X15354Y-20079D01*
X65590Y-43228D02*
X65590Y-43307D01*
X61023Y-28189D02*
X60472Y-28740D01*
X48858Y-37204D02*
X49055Y-37401D01*
X42952Y-37204D02*
X43149Y-37401D01*
X49094Y-33819D02*
X49055Y-33858D01*
X60472Y-28740D02*
X60472Y-33858D01*
X72677Y-35236D02*
X72677Y-32086D01*
X54763Y-37204D02*
X54763Y-39567D01*
X60669Y-37401D02*
X60669Y-39960D01*
X60472Y-37204D02*
X60669Y-37401D01*
X72677Y-32086D02*
X73267Y-31496D01*
X78516Y-27126D02*
X79067Y-27677D01*
X37047Y-28346D02*
X37047Y-34055D01*
X43149Y-37401D02*
X43149Y-39567D01*
X65196Y-30708D02*
X65196Y-33858D01*
X25314Y-33818D02*
X25314Y-39448D01*
X49094Y-28267D02*
X49094Y-33819D01*
X65196Y-37204D02*
X65393Y-37401D01*
X72874Y-35433D02*
X72677Y-35236D01*
X31220Y-28346D02*
X31220Y-33858D01*
X48779Y-46850D02*
X48622Y-46850D01*
X49409Y-46220D02*
X48779Y-46850D01*
X43189Y-28228D02*
X43189Y-34015D01*
X54842Y-33779D02*
X54763Y-33858D01*
X25314Y-28307D02*
X25314Y-33818D01*
X32480Y-46850D02*
X30866Y-46850D01*
X25314Y-25590D02*
X25314Y-28307D01*
X71260Y-19685D02*
X91929Y-19685D01*
X79067Y-27677D02*
X80130Y-27677D01*
X15354Y-42952D02*
X15354Y-25039D01*
X49055Y-37401D02*
X49055Y-39567D01*
X88500Y-32500D02*
X88500Y-35000D01*
X76500Y-26500D02*
X76500Y-31000D01*
X76500Y-31000D02*
X76500Y-35000D01*
X54842Y-25590D02*
X54842Y-28149D01*
X15354Y-46654D02*
X15354Y-42952D01*
X49488Y-25590D02*
X49488Y-27873D01*
X43464Y-27953D02*
X43189Y-28228D01*
X43464Y-25590D02*
X43464Y-27953D01*
X37047Y-25590D02*
X37047Y-28346D01*
X31181Y-28307D02*
X31220Y-28346D01*
X31181Y-25590D02*
X31181Y-28307D01*
X49488Y-27873D02*
X49094Y-28267D01*
X65393Y-37401D02*
X65393Y-39960D01*
X80500Y-35500D02*
X80500Y-40000D01*
X30866Y-46850D02*
X26575Y-46850D01*
X82000Y-24000D02*
X82000Y-34000D01*
X81500Y-32000D02*
X81500Y-38500D01*
G54D10*
G36*
X92325Y-47049D02*
X90435Y-47049D01*
X90435Y-44464D01*
X90435Y-44119D01*
X90435Y-20842D01*
X90435Y-20497D01*
X90303Y-20178D01*
X90059Y-19934D01*
X89740Y-19801D01*
X89395Y-19801D01*
X89076Y-19933D01*
X88832Y-20177D01*
X88699Y-20496D01*
X88699Y-20841D01*
X88831Y-21160D01*
X89075Y-21404D01*
X89394Y-21537D01*
X89739Y-21537D01*
X90058Y-21405D01*
X90302Y-21161D01*
X90435Y-20842D01*
X90435Y-44119D01*
X90303Y-43800D01*
X90059Y-43556D01*
X89740Y-43423D01*
X89395Y-43423D01*
X89076Y-43555D01*
X88832Y-43799D01*
X88699Y-44118D01*
X88699Y-44463D01*
X88831Y-44782D01*
X89075Y-45026D01*
X89394Y-45159D01*
X89739Y-45159D01*
X90058Y-45027D01*
X90302Y-44783D01*
X90435Y-44464D01*
X90435Y-47049D01*
X88315Y-47049D01*
X88315Y-34563D01*
X88315Y-34438D01*
X88267Y-34322D01*
X88180Y-34234D01*
X88180Y-21000D01*
X88166Y-20931D01*
X88127Y-20873D01*
X87815Y-20561D01*
X87815Y-20438D01*
X87767Y-20322D01*
X87679Y-20233D01*
X87563Y-20185D01*
X87438Y-20185D01*
X87322Y-20233D01*
X87233Y-20321D01*
X87185Y-20437D01*
X87185Y-20562D01*
X87233Y-20678D01*
X87321Y-20767D01*
X87437Y-20815D01*
X87561Y-20815D01*
X87820Y-21074D01*
X87820Y-34234D01*
X87815Y-34239D01*
X87815Y-34063D01*
X87815Y-33938D01*
X87767Y-33822D01*
X87680Y-33734D01*
X87680Y-21500D01*
X87666Y-21431D01*
X87627Y-21373D01*
X87315Y-21061D01*
X87315Y-20938D01*
X87267Y-20822D01*
X87179Y-20733D01*
X87063Y-20685D01*
X86938Y-20685D01*
X86822Y-20733D01*
X86733Y-20821D01*
X86685Y-20937D01*
X86685Y-21062D01*
X86733Y-21178D01*
X86821Y-21267D01*
X86937Y-21315D01*
X87061Y-21315D01*
X87320Y-21574D01*
X87320Y-33734D01*
X87233Y-33821D01*
X87185Y-33937D01*
X87185Y-34062D01*
X87233Y-34178D01*
X87321Y-34267D01*
X87437Y-34315D01*
X87562Y-34315D01*
X87678Y-34267D01*
X87767Y-34179D01*
X87815Y-34063D01*
X87815Y-34239D01*
X87733Y-34321D01*
X87685Y-34437D01*
X87685Y-34562D01*
X87733Y-34678D01*
X87821Y-34767D01*
X87937Y-34815D01*
X88062Y-34815D01*
X88178Y-34767D01*
X88267Y-34679D01*
X88315Y-34563D01*
X88315Y-47049D01*
X87045Y-47049D01*
X87045Y-32467D01*
X87030Y-32257D01*
X86979Y-32133D01*
X86949Y-32124D01*
X86949Y-31488D01*
X86949Y-31313D01*
X86949Y-30488D01*
X86949Y-30313D01*
X86949Y-29488D01*
X86949Y-29313D01*
X86949Y-28488D01*
X86949Y-28313D01*
X86949Y-27488D01*
X86949Y-27313D01*
X86949Y-26488D01*
X86949Y-26313D01*
X86949Y-25488D01*
X86949Y-25313D01*
X86882Y-25152D01*
X86759Y-25028D01*
X86598Y-24961D01*
X86423Y-24961D01*
X86262Y-25028D01*
X86138Y-25151D01*
X86071Y-25312D01*
X86071Y-25487D01*
X86138Y-25648D01*
X86261Y-25772D01*
X86422Y-25839D01*
X86597Y-25839D01*
X86758Y-25772D01*
X86882Y-25649D01*
X86949Y-25488D01*
X86949Y-26313D01*
X86882Y-26152D01*
X86759Y-26028D01*
X86598Y-25961D01*
X86423Y-25961D01*
X86262Y-26028D01*
X86138Y-26151D01*
X86071Y-26312D01*
X86071Y-26487D01*
X86138Y-26648D01*
X86261Y-26772D01*
X86422Y-26839D01*
X86597Y-26839D01*
X86758Y-26772D01*
X86882Y-26649D01*
X86949Y-26488D01*
X86949Y-27313D01*
X86882Y-27152D01*
X86759Y-27028D01*
X86598Y-26961D01*
X86423Y-26961D01*
X86262Y-27028D01*
X86138Y-27151D01*
X86071Y-27312D01*
X86071Y-27487D01*
X86138Y-27648D01*
X86261Y-27772D01*
X86422Y-27839D01*
X86597Y-27839D01*
X86758Y-27772D01*
X86882Y-27649D01*
X86949Y-27488D01*
X86949Y-28313D01*
X86882Y-28152D01*
X86759Y-28028D01*
X86598Y-27961D01*
X86423Y-27961D01*
X86262Y-28028D01*
X86138Y-28151D01*
X86071Y-28312D01*
X86071Y-28487D01*
X86138Y-28648D01*
X86261Y-28772D01*
X86422Y-28839D01*
X86597Y-28839D01*
X86758Y-28772D01*
X86882Y-28649D01*
X86949Y-28488D01*
X86949Y-29313D01*
X86882Y-29152D01*
X86759Y-29028D01*
X86598Y-28961D01*
X86423Y-28961D01*
X86262Y-29028D01*
X86138Y-29151D01*
X86071Y-29312D01*
X86071Y-29487D01*
X86138Y-29648D01*
X86261Y-29772D01*
X86422Y-29839D01*
X86597Y-29839D01*
X86758Y-29772D01*
X86882Y-29649D01*
X86949Y-29488D01*
X86949Y-30313D01*
X86882Y-30152D01*
X86759Y-30028D01*
X86598Y-29961D01*
X86423Y-29961D01*
X86262Y-30028D01*
X86138Y-30151D01*
X86071Y-30312D01*
X86071Y-30487D01*
X86138Y-30648D01*
X86261Y-30772D01*
X86422Y-30839D01*
X86597Y-30839D01*
X86758Y-30772D01*
X86882Y-30649D01*
X86949Y-30488D01*
X86949Y-31313D01*
X86882Y-31152D01*
X86759Y-31028D01*
X86598Y-30961D01*
X86423Y-30961D01*
X86262Y-31028D01*
X86138Y-31151D01*
X86071Y-31312D01*
X86071Y-31487D01*
X86138Y-31648D01*
X86261Y-31772D01*
X86422Y-31839D01*
X86597Y-31839D01*
X86758Y-31772D01*
X86882Y-31649D01*
X86949Y-31488D01*
X86949Y-32124D01*
X86889Y-32106D01*
X86804Y-32191D01*
X86804Y-32021D01*
X86777Y-31931D01*
X86577Y-31865D01*
X86367Y-31880D01*
X86243Y-31931D01*
X86216Y-32021D01*
X86510Y-32315D01*
X86804Y-32021D01*
X86804Y-32191D01*
X86595Y-32400D01*
X86889Y-32694D01*
X86979Y-32667D01*
X87045Y-32467D01*
X87045Y-47049D01*
X86804Y-47049D01*
X86804Y-32779D01*
X86510Y-32485D01*
X86425Y-32570D01*
X86425Y-32400D01*
X86131Y-32106D01*
X86041Y-32133D01*
X85975Y-32333D01*
X85990Y-32543D01*
X86041Y-32667D01*
X86131Y-32694D01*
X86425Y-32400D01*
X86425Y-32570D01*
X86216Y-32779D01*
X86243Y-32869D01*
X86443Y-32935D01*
X86653Y-32920D01*
X86777Y-32869D01*
X86804Y-32779D01*
X86804Y-47049D01*
X85949Y-47049D01*
X85949Y-32488D01*
X85949Y-32313D01*
X85949Y-31488D01*
X85949Y-31313D01*
X85949Y-30488D01*
X85949Y-30313D01*
X85949Y-29488D01*
X85949Y-29313D01*
X85949Y-28488D01*
X85949Y-28313D01*
X85949Y-27488D01*
X85949Y-27313D01*
X85949Y-26488D01*
X85949Y-26313D01*
X85949Y-25727D01*
X85949Y-25672D01*
X85949Y-25072D01*
X85949Y-22088D01*
X85949Y-21913D01*
X85882Y-21752D01*
X85759Y-21628D01*
X85598Y-21561D01*
X85423Y-21561D01*
X85262Y-21628D01*
X85138Y-21751D01*
X85071Y-21912D01*
X85071Y-22087D01*
X85138Y-22248D01*
X85261Y-22372D01*
X85422Y-22439D01*
X85597Y-22439D01*
X85758Y-22372D01*
X85882Y-22249D01*
X85949Y-22088D01*
X85949Y-25072D01*
X85928Y-25021D01*
X85888Y-24982D01*
X85837Y-24961D01*
X85782Y-24961D01*
X85182Y-24961D01*
X85131Y-24982D01*
X85092Y-25022D01*
X85071Y-25073D01*
X85071Y-25128D01*
X85071Y-25728D01*
X85092Y-25779D01*
X85132Y-25818D01*
X85183Y-25839D01*
X85238Y-25839D01*
X85838Y-25839D01*
X85889Y-25818D01*
X85928Y-25778D01*
X85949Y-25727D01*
X85949Y-26313D01*
X85882Y-26152D01*
X85759Y-26028D01*
X85598Y-25961D01*
X85423Y-25961D01*
X85262Y-26028D01*
X85138Y-26151D01*
X85071Y-26312D01*
X85071Y-26487D01*
X85138Y-26648D01*
X85261Y-26772D01*
X85422Y-26839D01*
X85597Y-26839D01*
X85758Y-26772D01*
X85882Y-26649D01*
X85949Y-26488D01*
X85949Y-27313D01*
X85882Y-27152D01*
X85759Y-27028D01*
X85598Y-26961D01*
X85423Y-26961D01*
X85262Y-27028D01*
X85138Y-27151D01*
X85071Y-27312D01*
X85071Y-27487D01*
X85138Y-27648D01*
X85261Y-27772D01*
X85422Y-27839D01*
X85597Y-27839D01*
X85758Y-27772D01*
X85882Y-27649D01*
X85949Y-27488D01*
X85949Y-28313D01*
X85882Y-28152D01*
X85759Y-28028D01*
X85598Y-27961D01*
X85423Y-27961D01*
X85262Y-28028D01*
X85138Y-28151D01*
X85071Y-28312D01*
X85071Y-28487D01*
X85138Y-28648D01*
X85261Y-28772D01*
X85422Y-28839D01*
X85597Y-28839D01*
X85758Y-28772D01*
X85882Y-28649D01*
X85949Y-28488D01*
X85949Y-29313D01*
X85882Y-29152D01*
X85759Y-29028D01*
X85598Y-28961D01*
X85423Y-28961D01*
X85262Y-29028D01*
X85138Y-29151D01*
X85071Y-29312D01*
X85071Y-29487D01*
X85138Y-29648D01*
X85261Y-29772D01*
X85422Y-29839D01*
X85597Y-29839D01*
X85758Y-29772D01*
X85882Y-29649D01*
X85949Y-29488D01*
X85949Y-30313D01*
X85882Y-30152D01*
X85759Y-30028D01*
X85598Y-29961D01*
X85423Y-29961D01*
X85262Y-30028D01*
X85138Y-30151D01*
X85071Y-30312D01*
X85071Y-30487D01*
X85138Y-30648D01*
X85261Y-30772D01*
X85422Y-30839D01*
X85597Y-30839D01*
X85758Y-30772D01*
X85882Y-30649D01*
X85949Y-30488D01*
X85949Y-31313D01*
X85882Y-31152D01*
X85759Y-31028D01*
X85598Y-30961D01*
X85423Y-30961D01*
X85262Y-31028D01*
X85138Y-31151D01*
X85071Y-31312D01*
X85071Y-31487D01*
X85138Y-31648D01*
X85261Y-31772D01*
X85422Y-31839D01*
X85597Y-31839D01*
X85758Y-31772D01*
X85882Y-31649D01*
X85949Y-31488D01*
X85949Y-32313D01*
X85882Y-32152D01*
X85759Y-32028D01*
X85598Y-31961D01*
X85423Y-31961D01*
X85262Y-32028D01*
X85138Y-32151D01*
X85071Y-32312D01*
X85071Y-32487D01*
X85138Y-32648D01*
X85261Y-32772D01*
X85422Y-32839D01*
X85597Y-32839D01*
X85758Y-32772D01*
X85882Y-32649D01*
X85949Y-32488D01*
X85949Y-47049D01*
X85919Y-47049D01*
X85919Y-41168D01*
X85919Y-40993D01*
X85852Y-40832D01*
X85729Y-40708D01*
X85568Y-40641D01*
X85393Y-40641D01*
X85232Y-40708D01*
X85108Y-40831D01*
X85041Y-40992D01*
X85041Y-41167D01*
X85108Y-41328D01*
X85231Y-41452D01*
X85392Y-41519D01*
X85567Y-41519D01*
X85728Y-41452D01*
X85852Y-41329D01*
X85919Y-41168D01*
X85919Y-47049D01*
X84949Y-47049D01*
X84949Y-22088D01*
X84949Y-21913D01*
X84882Y-21752D01*
X84759Y-21628D01*
X84598Y-21561D01*
X84423Y-21561D01*
X84262Y-21628D01*
X84138Y-21751D01*
X84071Y-21912D01*
X84071Y-22087D01*
X84138Y-22248D01*
X84261Y-22372D01*
X84422Y-22439D01*
X84597Y-22439D01*
X84758Y-22372D01*
X84882Y-22249D01*
X84949Y-22088D01*
X84949Y-47049D01*
X84919Y-47049D01*
X84919Y-41168D01*
X84919Y-40993D01*
X84852Y-40832D01*
X84815Y-40794D01*
X84815Y-39063D01*
X84815Y-38938D01*
X84767Y-38822D01*
X84680Y-38734D01*
X84680Y-34765D01*
X84767Y-34679D01*
X84815Y-34563D01*
X84815Y-34438D01*
X84767Y-34322D01*
X84680Y-34234D01*
X84680Y-30765D01*
X84767Y-30679D01*
X84815Y-30563D01*
X84815Y-30438D01*
X84767Y-30322D01*
X84680Y-30234D01*
X84680Y-27265D01*
X84767Y-27179D01*
X84815Y-27063D01*
X84815Y-26938D01*
X84767Y-26822D01*
X84680Y-26734D01*
X84680Y-25765D01*
X84767Y-25679D01*
X84815Y-25563D01*
X84815Y-25438D01*
X84767Y-25322D01*
X84680Y-25234D01*
X84680Y-23765D01*
X84767Y-23679D01*
X84815Y-23563D01*
X84815Y-23438D01*
X84767Y-23322D01*
X84679Y-23233D01*
X84563Y-23185D01*
X84438Y-23185D01*
X84322Y-23233D01*
X84233Y-23321D01*
X84185Y-23437D01*
X84185Y-23562D01*
X84233Y-23678D01*
X84320Y-23765D01*
X84320Y-25234D01*
X84233Y-25321D01*
X84185Y-25437D01*
X84185Y-25562D01*
X84233Y-25678D01*
X84320Y-25765D01*
X84320Y-26323D01*
X84278Y-26222D01*
X84190Y-26133D01*
X84180Y-26128D01*
X84180Y-24265D01*
X84267Y-24179D01*
X84315Y-24063D01*
X84315Y-23938D01*
X84267Y-23822D01*
X84179Y-23733D01*
X84063Y-23685D01*
X83949Y-23685D01*
X83949Y-22088D01*
X83949Y-21913D01*
X83882Y-21752D01*
X83759Y-21628D01*
X83598Y-21561D01*
X83423Y-21561D01*
X83262Y-21628D01*
X83138Y-21751D01*
X83071Y-21912D01*
X83071Y-22087D01*
X83138Y-22248D01*
X83261Y-22372D01*
X83422Y-22439D01*
X83597Y-22439D01*
X83758Y-22372D01*
X83882Y-22249D01*
X83949Y-22088D01*
X83949Y-23685D01*
X83938Y-23685D01*
X83822Y-23733D01*
X83733Y-23821D01*
X83685Y-23937D01*
X83685Y-24062D01*
X83733Y-24178D01*
X83820Y-24265D01*
X83820Y-25823D01*
X83778Y-25722D01*
X83690Y-25633D01*
X83680Y-25628D01*
X83680Y-24765D01*
X83767Y-24679D01*
X83815Y-24563D01*
X83815Y-24438D01*
X83767Y-24322D01*
X83679Y-24233D01*
X83563Y-24185D01*
X83438Y-24185D01*
X83322Y-24233D01*
X83233Y-24321D01*
X83185Y-24437D01*
X83185Y-24562D01*
X83233Y-24678D01*
X83320Y-24765D01*
X83320Y-25645D01*
X83244Y-25721D01*
X83196Y-25837D01*
X83196Y-25962D01*
X83244Y-26078D01*
X83320Y-26154D01*
X83320Y-28234D01*
X83233Y-28321D01*
X83185Y-28437D01*
X83185Y-28562D01*
X83233Y-28678D01*
X83320Y-28765D01*
X83320Y-32234D01*
X83233Y-32321D01*
X83185Y-32437D01*
X83185Y-32562D01*
X83233Y-32678D01*
X83320Y-32765D01*
X83320Y-36234D01*
X83233Y-36321D01*
X83185Y-36437D01*
X83185Y-36562D01*
X83233Y-36678D01*
X83321Y-36767D01*
X83437Y-36815D01*
X83562Y-36815D01*
X83678Y-36767D01*
X83767Y-36679D01*
X83815Y-36563D01*
X83815Y-36438D01*
X83767Y-36322D01*
X83680Y-36234D01*
X83680Y-32765D01*
X83767Y-32679D01*
X83815Y-32563D01*
X83815Y-32438D01*
X83767Y-32322D01*
X83680Y-32234D01*
X83680Y-28765D01*
X83767Y-28679D01*
X83815Y-28563D01*
X83815Y-28438D01*
X83767Y-28322D01*
X83680Y-28234D01*
X83680Y-26170D01*
X83689Y-26167D01*
X83778Y-26079D01*
X83820Y-25977D01*
X83820Y-26145D01*
X83744Y-26221D01*
X83696Y-26337D01*
X83696Y-26462D01*
X83744Y-26578D01*
X83820Y-26654D01*
X83820Y-27734D01*
X83733Y-27821D01*
X83685Y-27937D01*
X83685Y-28062D01*
X83733Y-28178D01*
X83820Y-28265D01*
X83820Y-31734D01*
X83733Y-31821D01*
X83685Y-31937D01*
X83685Y-32062D01*
X83733Y-32178D01*
X83820Y-32265D01*
X83820Y-35734D01*
X83733Y-35821D01*
X83685Y-35937D01*
X83685Y-36062D01*
X83733Y-36178D01*
X83821Y-36267D01*
X83937Y-36315D01*
X84062Y-36315D01*
X84178Y-36267D01*
X84267Y-36179D01*
X84315Y-36063D01*
X84315Y-35938D01*
X84267Y-35822D01*
X84180Y-35734D01*
X84180Y-32265D01*
X84267Y-32179D01*
X84315Y-32063D01*
X84315Y-31938D01*
X84267Y-31822D01*
X84180Y-31734D01*
X84180Y-28265D01*
X84267Y-28179D01*
X84315Y-28063D01*
X84315Y-27938D01*
X84267Y-27822D01*
X84180Y-27734D01*
X84180Y-26670D01*
X84189Y-26667D01*
X84278Y-26579D01*
X84320Y-26477D01*
X84320Y-26734D01*
X84233Y-26821D01*
X84185Y-26937D01*
X84185Y-27062D01*
X84233Y-27178D01*
X84320Y-27265D01*
X84320Y-30234D01*
X84233Y-30321D01*
X84185Y-30437D01*
X84185Y-30562D01*
X84233Y-30678D01*
X84320Y-30765D01*
X84320Y-34234D01*
X84233Y-34321D01*
X84185Y-34437D01*
X84185Y-34562D01*
X84233Y-34678D01*
X84320Y-34765D01*
X84320Y-38734D01*
X84233Y-38821D01*
X84185Y-38937D01*
X84185Y-39062D01*
X84233Y-39178D01*
X84321Y-39267D01*
X84437Y-39315D01*
X84562Y-39315D01*
X84678Y-39267D01*
X84767Y-39179D01*
X84815Y-39063D01*
X84815Y-40794D01*
X84729Y-40708D01*
X84568Y-40641D01*
X84393Y-40641D01*
X84232Y-40708D01*
X84108Y-40831D01*
X84041Y-40992D01*
X84041Y-41167D01*
X84108Y-41328D01*
X84231Y-41452D01*
X84392Y-41519D01*
X84567Y-41519D01*
X84728Y-41452D01*
X84852Y-41329D01*
X84919Y-41168D01*
X84919Y-47049D01*
X83919Y-47049D01*
X83919Y-41168D01*
X83919Y-40993D01*
X83852Y-40832D01*
X83729Y-40708D01*
X83568Y-40641D01*
X83393Y-40641D01*
X83315Y-40673D01*
X83315Y-37063D01*
X83315Y-36938D01*
X83267Y-36822D01*
X83180Y-36734D01*
X83180Y-33265D01*
X83267Y-33179D01*
X83315Y-33063D01*
X83315Y-32938D01*
X83267Y-32822D01*
X83180Y-32734D01*
X83180Y-29265D01*
X83267Y-29179D01*
X83315Y-29063D01*
X83315Y-28938D01*
X83267Y-28822D01*
X83180Y-28734D01*
X83180Y-25265D01*
X83267Y-25179D01*
X83315Y-25063D01*
X83315Y-24938D01*
X83267Y-24822D01*
X83179Y-24733D01*
X83063Y-24685D01*
X82949Y-24685D01*
X82949Y-22088D01*
X82949Y-21913D01*
X82882Y-21752D01*
X82759Y-21628D01*
X82598Y-21561D01*
X82423Y-21561D01*
X82262Y-21628D01*
X82138Y-21751D01*
X82071Y-21912D01*
X82071Y-22087D01*
X82138Y-22248D01*
X82261Y-22372D01*
X82422Y-22439D01*
X82597Y-22439D01*
X82758Y-22372D01*
X82882Y-22249D01*
X82949Y-22088D01*
X82949Y-24685D01*
X82938Y-24685D01*
X82822Y-24733D01*
X82733Y-24821D01*
X82685Y-24937D01*
X82685Y-25062D01*
X82733Y-25178D01*
X82820Y-25265D01*
X82820Y-27323D01*
X82778Y-27222D01*
X82690Y-27133D01*
X82680Y-27128D01*
X82680Y-25765D01*
X82767Y-25679D01*
X82815Y-25563D01*
X82815Y-25438D01*
X82767Y-25322D01*
X82679Y-25233D01*
X82563Y-25185D01*
X82438Y-25185D01*
X82322Y-25233D01*
X82233Y-25321D01*
X82185Y-25437D01*
X82185Y-25562D01*
X82233Y-25678D01*
X82320Y-25765D01*
X82320Y-27145D01*
X82244Y-27221D01*
X82196Y-27337D01*
X82196Y-27462D01*
X82244Y-27578D01*
X82320Y-27654D01*
X82320Y-29234D01*
X82233Y-29321D01*
X82185Y-29437D01*
X82185Y-29562D01*
X82233Y-29678D01*
X82320Y-29765D01*
X82320Y-33234D01*
X82233Y-33321D01*
X82185Y-33437D01*
X82185Y-33562D01*
X82233Y-33678D01*
X82320Y-33765D01*
X82320Y-37234D01*
X82315Y-37239D01*
X82315Y-34063D01*
X82315Y-33938D01*
X82267Y-33822D01*
X82180Y-33734D01*
X82180Y-24265D01*
X82267Y-24179D01*
X82315Y-24063D01*
X82315Y-23938D01*
X82267Y-23822D01*
X82179Y-23733D01*
X82063Y-23685D01*
X81949Y-23685D01*
X81949Y-22088D01*
X81949Y-21913D01*
X81882Y-21752D01*
X81759Y-21628D01*
X81598Y-21561D01*
X81423Y-21561D01*
X81262Y-21628D01*
X81138Y-21751D01*
X81071Y-21912D01*
X81071Y-22087D01*
X81138Y-22248D01*
X81261Y-22372D01*
X81422Y-22439D01*
X81597Y-22439D01*
X81758Y-22372D01*
X81882Y-22249D01*
X81949Y-22088D01*
X81949Y-23685D01*
X81938Y-23685D01*
X81822Y-23733D01*
X81733Y-23821D01*
X81685Y-23937D01*
X81685Y-24062D01*
X81733Y-24178D01*
X81820Y-24265D01*
X81820Y-33734D01*
X81733Y-33821D01*
X81685Y-33937D01*
X81685Y-34062D01*
X81733Y-34178D01*
X81821Y-34267D01*
X81937Y-34315D01*
X82062Y-34315D01*
X82178Y-34267D01*
X82267Y-34179D01*
X82315Y-34063D01*
X82315Y-37239D01*
X82233Y-37321D01*
X82185Y-37437D01*
X82185Y-37562D01*
X82233Y-37678D01*
X82321Y-37767D01*
X82437Y-37815D01*
X82562Y-37815D01*
X82678Y-37767D01*
X82767Y-37679D01*
X82815Y-37563D01*
X82815Y-37438D01*
X82767Y-37322D01*
X82680Y-37234D01*
X82680Y-33765D01*
X82767Y-33679D01*
X82815Y-33563D01*
X82815Y-33438D01*
X82767Y-33322D01*
X82680Y-33234D01*
X82680Y-29765D01*
X82767Y-29679D01*
X82815Y-29563D01*
X82815Y-29438D01*
X82767Y-29322D01*
X82680Y-29234D01*
X82680Y-27670D01*
X82689Y-27667D01*
X82778Y-27579D01*
X82820Y-27477D01*
X82820Y-28734D01*
X82733Y-28821D01*
X82685Y-28937D01*
X82685Y-29062D01*
X82733Y-29178D01*
X82820Y-29265D01*
X82820Y-32734D01*
X82733Y-32821D01*
X82685Y-32937D01*
X82685Y-33062D01*
X82733Y-33178D01*
X82820Y-33265D01*
X82820Y-36734D01*
X82733Y-36821D01*
X82685Y-36937D01*
X82685Y-37062D01*
X82733Y-37178D01*
X82821Y-37267D01*
X82937Y-37315D01*
X83062Y-37315D01*
X83178Y-37267D01*
X83267Y-37179D01*
X83315Y-37063D01*
X83315Y-40673D01*
X83232Y-40708D01*
X83108Y-40831D01*
X83041Y-40992D01*
X83041Y-41167D01*
X83108Y-41328D01*
X83231Y-41452D01*
X83392Y-41519D01*
X83567Y-41519D01*
X83728Y-41452D01*
X83852Y-41329D01*
X83919Y-41168D01*
X83919Y-47049D01*
X82919Y-47049D01*
X82919Y-41168D01*
X82919Y-40993D01*
X82852Y-40832D01*
X82729Y-40708D01*
X82568Y-40641D01*
X82393Y-40641D01*
X82232Y-40708D01*
X82108Y-40831D01*
X82041Y-40992D01*
X82041Y-41167D01*
X82108Y-41328D01*
X82231Y-41452D01*
X82392Y-41519D01*
X82567Y-41519D01*
X82728Y-41452D01*
X82852Y-41329D01*
X82919Y-41168D01*
X82919Y-47049D01*
X81919Y-47049D01*
X81919Y-41168D01*
X81919Y-40993D01*
X81852Y-40832D01*
X81815Y-40794D01*
X81815Y-38563D01*
X81815Y-38438D01*
X81767Y-38322D01*
X81680Y-38234D01*
X81680Y-32265D01*
X81767Y-32179D01*
X81815Y-32063D01*
X81815Y-31938D01*
X81767Y-31822D01*
X81679Y-31733D01*
X81563Y-31685D01*
X81438Y-31685D01*
X81322Y-31733D01*
X81233Y-31821D01*
X81191Y-31922D01*
X81191Y-30165D01*
X81278Y-30079D01*
X81326Y-29963D01*
X81326Y-29838D01*
X81278Y-29722D01*
X81190Y-29633D01*
X81074Y-29585D01*
X80949Y-29585D01*
X80949Y-22088D01*
X80949Y-21913D01*
X80882Y-21752D01*
X80759Y-21628D01*
X80598Y-21561D01*
X80423Y-21561D01*
X80262Y-21628D01*
X80138Y-21751D01*
X80071Y-21912D01*
X80071Y-22087D01*
X80138Y-22248D01*
X80261Y-22372D01*
X80422Y-22439D01*
X80597Y-22439D01*
X80758Y-22372D01*
X80882Y-22249D01*
X80949Y-22088D01*
X80949Y-29585D01*
X80833Y-29633D01*
X80744Y-29721D01*
X80696Y-29837D01*
X80696Y-29962D01*
X80744Y-30078D01*
X80831Y-30165D01*
X80831Y-35634D01*
X80744Y-35721D01*
X80696Y-35837D01*
X80696Y-35962D01*
X80744Y-36078D01*
X80832Y-36167D01*
X80948Y-36215D01*
X81073Y-36215D01*
X81189Y-36167D01*
X81278Y-36079D01*
X81320Y-35977D01*
X81320Y-38234D01*
X81233Y-38321D01*
X81185Y-38437D01*
X81185Y-38562D01*
X81233Y-38678D01*
X81321Y-38767D01*
X81437Y-38815D01*
X81562Y-38815D01*
X81678Y-38767D01*
X81767Y-38679D01*
X81815Y-38563D01*
X81815Y-40794D01*
X81729Y-40708D01*
X81568Y-40641D01*
X81393Y-40641D01*
X81232Y-40708D01*
X81108Y-40831D01*
X81041Y-40992D01*
X81041Y-41167D01*
X81108Y-41328D01*
X81231Y-41452D01*
X81392Y-41519D01*
X81567Y-41519D01*
X81728Y-41452D01*
X81852Y-41329D01*
X81919Y-41168D01*
X81919Y-47049D01*
X80919Y-47049D01*
X80919Y-41168D01*
X80919Y-40993D01*
X80852Y-40832D01*
X80729Y-40708D01*
X80568Y-40641D01*
X80393Y-40641D01*
X80232Y-40708D01*
X80108Y-40831D01*
X80041Y-40992D01*
X80041Y-41167D01*
X80108Y-41328D01*
X80231Y-41452D01*
X80392Y-41519D01*
X80567Y-41519D01*
X80728Y-41452D01*
X80852Y-41329D01*
X80919Y-41168D01*
X80919Y-47049D01*
X79949Y-47049D01*
X79949Y-22088D01*
X79949Y-21913D01*
X79882Y-21752D01*
X79759Y-21628D01*
X79598Y-21561D01*
X79423Y-21561D01*
X79262Y-21628D01*
X79138Y-21751D01*
X79071Y-21912D01*
X79071Y-22087D01*
X79138Y-22248D01*
X79261Y-22372D01*
X79422Y-22439D01*
X79597Y-22439D01*
X79758Y-22372D01*
X79882Y-22249D01*
X79949Y-22088D01*
X79949Y-47049D01*
X78949Y-47049D01*
X78949Y-22088D01*
X78949Y-21913D01*
X78882Y-21752D01*
X78759Y-21628D01*
X78598Y-21561D01*
X78423Y-21561D01*
X78262Y-21628D01*
X78138Y-21751D01*
X78071Y-21912D01*
X78071Y-22087D01*
X78138Y-22248D01*
X78261Y-22372D01*
X78422Y-22439D01*
X78597Y-22439D01*
X78758Y-22372D01*
X78882Y-22249D01*
X78949Y-22088D01*
X78949Y-47049D01*
X78929Y-47049D01*
X78929Y-41168D01*
X78929Y-40993D01*
X78862Y-40832D01*
X78739Y-40708D01*
X78578Y-40641D01*
X78403Y-40641D01*
X78242Y-40708D01*
X78118Y-40831D01*
X78051Y-40992D01*
X78051Y-41167D01*
X78118Y-41328D01*
X78241Y-41452D01*
X78402Y-41519D01*
X78577Y-41519D01*
X78738Y-41452D01*
X78862Y-41329D01*
X78929Y-41168D01*
X78929Y-47049D01*
X78025Y-47049D01*
X78025Y-41147D01*
X78010Y-40937D01*
X77959Y-40813D01*
X77869Y-40786D01*
X77784Y-40871D01*
X77784Y-40701D01*
X77757Y-40611D01*
X77557Y-40545D01*
X77439Y-40553D01*
X77439Y-22088D01*
X77439Y-21913D01*
X77372Y-21752D01*
X77249Y-21628D01*
X77088Y-21561D01*
X76913Y-21561D01*
X76752Y-21628D01*
X76628Y-21751D01*
X76561Y-21912D01*
X76561Y-22087D01*
X76628Y-22248D01*
X76751Y-22372D01*
X76912Y-22439D01*
X77087Y-22439D01*
X77248Y-22372D01*
X77372Y-22249D01*
X77439Y-22088D01*
X77439Y-40553D01*
X77347Y-40560D01*
X77223Y-40611D01*
X77196Y-40701D01*
X77490Y-40995D01*
X77784Y-40701D01*
X77784Y-40871D01*
X77575Y-41080D01*
X77869Y-41374D01*
X77959Y-41347D01*
X78025Y-41147D01*
X78025Y-47049D01*
X77784Y-47049D01*
X77784Y-41459D01*
X77490Y-41165D01*
X77405Y-41250D01*
X77405Y-41080D01*
X77111Y-40786D01*
X77021Y-40813D01*
X76993Y-40896D01*
X76959Y-40813D01*
X76869Y-40786D01*
X76784Y-40871D01*
X76575Y-41080D01*
X76869Y-41374D01*
X76959Y-41347D01*
X76986Y-41263D01*
X77021Y-41347D01*
X77111Y-41374D01*
X77405Y-41080D01*
X77405Y-41250D01*
X77196Y-41459D01*
X77223Y-41549D01*
X77423Y-41615D01*
X77633Y-41600D01*
X77757Y-41549D01*
X77784Y-41459D01*
X77784Y-47049D01*
X76784Y-47049D01*
X76784Y-41459D01*
X76518Y-41193D01*
X76490Y-41165D01*
X76405Y-41080D01*
X76490Y-40995D01*
X76518Y-40967D01*
X76784Y-40701D01*
X76757Y-40611D01*
X76557Y-40545D01*
X76439Y-40553D01*
X76439Y-22088D01*
X76439Y-21913D01*
X76372Y-21752D01*
X76249Y-21628D01*
X76088Y-21561D01*
X75913Y-21561D01*
X75752Y-21628D01*
X75628Y-21751D01*
X75561Y-21912D01*
X75561Y-22087D01*
X75628Y-22248D01*
X75751Y-22372D01*
X75912Y-22439D01*
X76087Y-22439D01*
X76248Y-22372D01*
X76372Y-22249D01*
X76439Y-22088D01*
X76439Y-40553D01*
X76347Y-40560D01*
X76223Y-40611D01*
X76209Y-40657D01*
X76173Y-40621D01*
X76164Y-40630D01*
X76164Y-40590D01*
X76150Y-40521D01*
X76111Y-40463D01*
X76111Y-40462D01*
X76006Y-40357D01*
X76006Y-35186D01*
X76093Y-35100D01*
X76141Y-34984D01*
X76141Y-34859D01*
X76093Y-34743D01*
X76005Y-34654D01*
X75889Y-34606D01*
X75764Y-34606D01*
X75648Y-34654D01*
X75559Y-34742D01*
X75511Y-34858D01*
X75511Y-34983D01*
X75559Y-35099D01*
X75646Y-35186D01*
X75646Y-40432D01*
X75660Y-40501D01*
X75699Y-40559D01*
X75804Y-40664D01*
X75804Y-40773D01*
X75739Y-40708D01*
X75578Y-40641D01*
X75403Y-40641D01*
X75242Y-40708D01*
X75219Y-40730D01*
X75219Y-40704D01*
X75363Y-40561D01*
X75363Y-40560D01*
X75402Y-40502D01*
X75415Y-40433D01*
X75416Y-40433D01*
X75416Y-35619D01*
X75503Y-35533D01*
X75551Y-35417D01*
X75551Y-35292D01*
X75503Y-35176D01*
X75439Y-35111D01*
X75439Y-22088D01*
X75439Y-21913D01*
X75372Y-21752D01*
X75249Y-21628D01*
X75088Y-21561D01*
X74913Y-21561D01*
X74752Y-21628D01*
X74628Y-21751D01*
X74561Y-21912D01*
X74561Y-22087D01*
X74628Y-22248D01*
X74751Y-22372D01*
X74912Y-22439D01*
X75087Y-22439D01*
X75248Y-22372D01*
X75372Y-22249D01*
X75439Y-22088D01*
X75439Y-35111D01*
X75415Y-35087D01*
X75299Y-35039D01*
X75174Y-35039D01*
X75119Y-35061D01*
X75119Y-31401D01*
X75119Y-31276D01*
X75071Y-31160D01*
X74983Y-31071D01*
X74867Y-31023D01*
X74742Y-31023D01*
X74626Y-31071D01*
X74537Y-31159D01*
X74489Y-31275D01*
X74489Y-31400D01*
X74537Y-31516D01*
X74624Y-31603D01*
X74624Y-34537D01*
X74536Y-34625D01*
X74527Y-34646D01*
X74527Y-34433D01*
X74527Y-34308D01*
X74479Y-34192D01*
X74392Y-34104D01*
X74392Y-32029D01*
X74479Y-31943D01*
X74527Y-31827D01*
X74527Y-31702D01*
X74479Y-31586D01*
X74439Y-31545D01*
X74439Y-22088D01*
X74439Y-21913D01*
X74372Y-21752D01*
X74249Y-21628D01*
X74088Y-21561D01*
X73913Y-21561D01*
X73752Y-21628D01*
X73628Y-21751D01*
X73561Y-21912D01*
X73561Y-22087D01*
X73628Y-22248D01*
X73751Y-22372D01*
X73912Y-22439D01*
X74087Y-22439D01*
X74248Y-22372D01*
X74372Y-22249D01*
X74439Y-22088D01*
X74439Y-31545D01*
X74391Y-31497D01*
X74275Y-31449D01*
X74150Y-31449D01*
X74034Y-31497D01*
X73945Y-31585D01*
X73897Y-31701D01*
X73897Y-31826D01*
X73945Y-31942D01*
X74032Y-32029D01*
X74032Y-34104D01*
X73945Y-34191D01*
X73937Y-34210D01*
X73937Y-34000D01*
X73937Y-33875D01*
X73889Y-33759D01*
X73802Y-33671D01*
X73802Y-32470D01*
X73889Y-32384D01*
X73937Y-32268D01*
X73937Y-32143D01*
X73889Y-32027D01*
X73801Y-31938D01*
X73685Y-31890D01*
X73560Y-31890D01*
X73444Y-31938D01*
X73439Y-31942D01*
X73439Y-22088D01*
X73439Y-21913D01*
X73372Y-21752D01*
X73249Y-21628D01*
X73088Y-21561D01*
X72913Y-21561D01*
X72752Y-21628D01*
X72628Y-21751D01*
X72561Y-21912D01*
X72561Y-22087D01*
X72628Y-22248D01*
X72751Y-22372D01*
X72912Y-22439D01*
X73087Y-22439D01*
X73248Y-22372D01*
X73372Y-22249D01*
X73439Y-22088D01*
X73439Y-31942D01*
X73355Y-32026D01*
X73307Y-32142D01*
X73307Y-32267D01*
X73355Y-32383D01*
X73442Y-32470D01*
X73442Y-33671D01*
X73355Y-33758D01*
X73346Y-33779D01*
X73346Y-33567D01*
X73346Y-33442D01*
X73298Y-33326D01*
X73211Y-33238D01*
X73211Y-32903D01*
X73298Y-32817D01*
X73346Y-32701D01*
X73346Y-32576D01*
X73298Y-32460D01*
X73210Y-32371D01*
X73094Y-32323D01*
X72969Y-32323D01*
X72853Y-32371D01*
X72764Y-32459D01*
X72716Y-32575D01*
X72716Y-32700D01*
X72764Y-32816D01*
X72851Y-32903D01*
X72851Y-33238D01*
X72764Y-33325D01*
X72716Y-33441D01*
X72716Y-33566D01*
X72764Y-33682D01*
X72852Y-33771D01*
X72968Y-33819D01*
X73093Y-33819D01*
X73209Y-33771D01*
X73298Y-33683D01*
X73346Y-33567D01*
X73346Y-33779D01*
X73307Y-33874D01*
X73307Y-33999D01*
X73355Y-34115D01*
X73443Y-34204D01*
X73559Y-34252D01*
X73684Y-34252D01*
X73800Y-34204D01*
X73889Y-34116D01*
X73937Y-34000D01*
X73937Y-34210D01*
X73897Y-34307D01*
X73897Y-34432D01*
X73945Y-34548D01*
X74033Y-34637D01*
X74149Y-34685D01*
X74274Y-34685D01*
X74390Y-34637D01*
X74479Y-34549D01*
X74527Y-34433D01*
X74527Y-34646D01*
X74488Y-34741D01*
X74488Y-34866D01*
X74536Y-34982D01*
X74624Y-35071D01*
X74740Y-35119D01*
X74865Y-35119D01*
X74981Y-35071D01*
X75070Y-34983D01*
X75118Y-34867D01*
X75118Y-34742D01*
X75070Y-34626D01*
X74984Y-34539D01*
X74984Y-31603D01*
X75071Y-31517D01*
X75119Y-31401D01*
X75119Y-35061D01*
X75058Y-35087D01*
X74969Y-35175D01*
X74921Y-35291D01*
X74921Y-35416D01*
X74969Y-35532D01*
X75056Y-35619D01*
X75056Y-40358D01*
X74960Y-40454D01*
X74960Y-40181D01*
X74960Y-40056D01*
X74912Y-39940D01*
X74825Y-39852D01*
X74825Y-36052D01*
X74912Y-35966D01*
X74960Y-35850D01*
X74960Y-35725D01*
X74912Y-35609D01*
X74824Y-35520D01*
X74708Y-35472D01*
X74583Y-35472D01*
X74467Y-35520D01*
X74378Y-35608D01*
X74330Y-35724D01*
X74330Y-35849D01*
X74378Y-35965D01*
X74465Y-36052D01*
X74465Y-39852D01*
X74378Y-39939D01*
X74370Y-39958D01*
X74370Y-39748D01*
X74370Y-39623D01*
X74322Y-39507D01*
X74235Y-39419D01*
X74235Y-36485D01*
X74322Y-36399D01*
X74370Y-36283D01*
X74370Y-36158D01*
X74322Y-36042D01*
X74234Y-35953D01*
X74118Y-35905D01*
X73993Y-35905D01*
X73877Y-35953D01*
X73788Y-36041D01*
X73740Y-36157D01*
X73740Y-36282D01*
X73788Y-36398D01*
X73875Y-36485D01*
X73875Y-39419D01*
X73788Y-39506D01*
X73779Y-39527D01*
X73779Y-39315D01*
X73779Y-39190D01*
X73731Y-39074D01*
X73644Y-38986D01*
X73644Y-36918D01*
X73731Y-36832D01*
X73779Y-36716D01*
X73779Y-36591D01*
X73731Y-36475D01*
X73643Y-36386D01*
X73527Y-36338D01*
X73402Y-36338D01*
X73286Y-36386D01*
X73197Y-36474D01*
X73149Y-36590D01*
X73149Y-36715D01*
X73197Y-36831D01*
X73284Y-36918D01*
X73284Y-38986D01*
X73197Y-39073D01*
X73189Y-39092D01*
X73189Y-38881D01*
X73189Y-38756D01*
X73141Y-38640D01*
X73054Y-38552D01*
X73054Y-37351D01*
X73141Y-37265D01*
X73189Y-37149D01*
X73189Y-37024D01*
X73141Y-36908D01*
X73053Y-36819D01*
X72937Y-36771D01*
X72812Y-36771D01*
X72696Y-36819D01*
X72607Y-36907D01*
X72598Y-36928D01*
X72598Y-35417D01*
X72598Y-35292D01*
X72550Y-35176D01*
X72463Y-35088D01*
X72463Y-29989D01*
X72550Y-29903D01*
X72598Y-29787D01*
X72598Y-29662D01*
X72550Y-29546D01*
X72462Y-29457D01*
X72439Y-29447D01*
X72439Y-22088D01*
X72439Y-21913D01*
X72372Y-21752D01*
X72249Y-21628D01*
X72088Y-21561D01*
X71913Y-21561D01*
X71752Y-21628D01*
X71628Y-21751D01*
X71561Y-21912D01*
X71561Y-22087D01*
X71628Y-22248D01*
X71751Y-22372D01*
X71912Y-22439D01*
X72087Y-22439D01*
X72248Y-22372D01*
X72372Y-22249D01*
X72439Y-22088D01*
X72439Y-29447D01*
X72346Y-29409D01*
X72221Y-29409D01*
X72105Y-29457D01*
X72016Y-29545D01*
X71968Y-29661D01*
X71968Y-29786D01*
X72016Y-29902D01*
X72103Y-29989D01*
X72103Y-35088D01*
X72016Y-35175D01*
X71968Y-35291D01*
X71968Y-35416D01*
X72016Y-35532D01*
X72104Y-35621D01*
X72220Y-35669D01*
X72345Y-35669D01*
X72461Y-35621D01*
X72550Y-35533D01*
X72598Y-35417D01*
X72598Y-36928D01*
X72559Y-37023D01*
X72559Y-37148D01*
X72607Y-37264D01*
X72694Y-37351D01*
X72694Y-38552D01*
X72607Y-38639D01*
X72598Y-38660D01*
X72598Y-38448D01*
X72598Y-38323D01*
X72550Y-38207D01*
X72463Y-38119D01*
X72463Y-37784D01*
X72550Y-37698D01*
X72598Y-37582D01*
X72598Y-37457D01*
X72550Y-37341D01*
X72462Y-37252D01*
X72346Y-37204D01*
X72221Y-37204D01*
X72105Y-37252D01*
X72016Y-37340D01*
X71968Y-37456D01*
X71968Y-37581D01*
X72016Y-37697D01*
X72103Y-37784D01*
X72103Y-38119D01*
X72016Y-38206D01*
X71968Y-38322D01*
X71968Y-38447D01*
X72016Y-38563D01*
X72104Y-38652D01*
X72220Y-38700D01*
X72345Y-38700D01*
X72461Y-38652D01*
X72550Y-38564D01*
X72598Y-38448D01*
X72598Y-38660D01*
X72559Y-38755D01*
X72559Y-38880D01*
X72607Y-38996D01*
X72695Y-39085D01*
X72811Y-39133D01*
X72936Y-39133D01*
X73052Y-39085D01*
X73141Y-38997D01*
X73189Y-38881D01*
X73189Y-39092D01*
X73149Y-39189D01*
X73149Y-39314D01*
X73197Y-39430D01*
X73285Y-39519D01*
X73401Y-39567D01*
X73526Y-39567D01*
X73642Y-39519D01*
X73731Y-39431D01*
X73779Y-39315D01*
X73779Y-39527D01*
X73740Y-39622D01*
X73740Y-39747D01*
X73788Y-39863D01*
X73876Y-39952D01*
X73992Y-40000D01*
X74117Y-40000D01*
X74233Y-39952D01*
X74322Y-39864D01*
X74370Y-39748D01*
X74370Y-39958D01*
X74330Y-40055D01*
X74330Y-40180D01*
X74378Y-40296D01*
X74466Y-40385D01*
X74582Y-40433D01*
X74707Y-40433D01*
X74823Y-40385D01*
X74912Y-40297D01*
X74960Y-40181D01*
X74960Y-40454D01*
X74912Y-40503D01*
X74873Y-40561D01*
X74859Y-40630D01*
X74859Y-40828D01*
X74739Y-40708D01*
X74578Y-40641D01*
X74403Y-40641D01*
X74242Y-40708D01*
X74118Y-40831D01*
X74051Y-40992D01*
X74051Y-41167D01*
X74118Y-41328D01*
X74241Y-41452D01*
X74402Y-41519D01*
X74577Y-41519D01*
X74738Y-41452D01*
X74859Y-41331D01*
X74859Y-41771D01*
X74873Y-41840D01*
X74912Y-41898D01*
X75056Y-42042D01*
X75056Y-43749D01*
X74969Y-43836D01*
X74921Y-43952D01*
X74921Y-44077D01*
X74969Y-44193D01*
X75057Y-44282D01*
X75173Y-44330D01*
X75298Y-44330D01*
X75414Y-44282D01*
X75503Y-44194D01*
X75551Y-44078D01*
X75551Y-43953D01*
X75503Y-43837D01*
X75416Y-43749D01*
X75416Y-41968D01*
X75402Y-41899D01*
X75363Y-41841D01*
X75363Y-41840D01*
X75219Y-41696D01*
X75219Y-41429D01*
X75241Y-41452D01*
X75402Y-41519D01*
X75577Y-41519D01*
X75738Y-41452D01*
X75804Y-41386D01*
X75804Y-41850D01*
X75818Y-41919D01*
X75857Y-41977D01*
X76237Y-42357D01*
X76237Y-45009D01*
X76150Y-45096D01*
X76102Y-45212D01*
X76102Y-45337D01*
X76150Y-45453D01*
X76238Y-45542D01*
X76354Y-45590D01*
X76479Y-45590D01*
X76595Y-45542D01*
X76684Y-45454D01*
X76732Y-45338D01*
X76732Y-45213D01*
X76684Y-45097D01*
X76597Y-45009D01*
X76597Y-42283D01*
X76583Y-42214D01*
X76544Y-42156D01*
X76544Y-42155D01*
X76164Y-41775D01*
X76164Y-41530D01*
X76173Y-41539D01*
X76209Y-41502D01*
X76223Y-41549D01*
X76423Y-41615D01*
X76633Y-41600D01*
X76757Y-41549D01*
X76784Y-41459D01*
X76784Y-47049D01*
X76732Y-47049D01*
X73929Y-47049D01*
X73929Y-41168D01*
X73929Y-40993D01*
X73862Y-40832D01*
X73739Y-40708D01*
X73578Y-40641D01*
X73403Y-40641D01*
X73242Y-40708D01*
X73118Y-40831D01*
X73051Y-40992D01*
X73051Y-41167D01*
X73118Y-41328D01*
X73241Y-41452D01*
X73402Y-41519D01*
X73577Y-41519D01*
X73738Y-41452D01*
X73862Y-41329D01*
X73929Y-41168D01*
X73929Y-47049D01*
X72929Y-47049D01*
X72929Y-41168D01*
X72929Y-40993D01*
X72862Y-40832D01*
X72739Y-40708D01*
X72578Y-40641D01*
X72403Y-40641D01*
X72242Y-40708D01*
X72118Y-40831D01*
X72051Y-40992D01*
X72051Y-41167D01*
X72118Y-41328D01*
X72241Y-41452D01*
X72402Y-41519D01*
X72577Y-41519D01*
X72738Y-41452D01*
X72862Y-41329D01*
X72929Y-41168D01*
X72929Y-47049D01*
X71930Y-47049D01*
X71930Y-30381D01*
X71930Y-30256D01*
X71882Y-30140D01*
X71794Y-30051D01*
X71678Y-30003D01*
X71553Y-30003D01*
X71535Y-30010D01*
X71535Y-22067D01*
X71520Y-21857D01*
X71469Y-21733D01*
X71379Y-21706D01*
X71294Y-21791D01*
X71294Y-21621D01*
X71267Y-21531D01*
X71067Y-21465D01*
X70857Y-21480D01*
X70733Y-21531D01*
X70706Y-21621D01*
X71000Y-21915D01*
X71294Y-21621D01*
X71294Y-21791D01*
X71085Y-22000D01*
X71379Y-22294D01*
X71469Y-22267D01*
X71535Y-22067D01*
X71535Y-30010D01*
X71437Y-30051D01*
X71348Y-30139D01*
X71300Y-30255D01*
X71300Y-30380D01*
X71348Y-30496D01*
X71435Y-30583D01*
X71435Y-35441D01*
X71347Y-35529D01*
X71339Y-35548D01*
X71339Y-31043D01*
X71339Y-30918D01*
X71294Y-30809D01*
X71294Y-22379D01*
X71000Y-22085D01*
X70915Y-22170D01*
X70915Y-22000D01*
X70621Y-21706D01*
X70531Y-21733D01*
X70465Y-21933D01*
X70480Y-22143D01*
X70531Y-22267D01*
X70621Y-22294D01*
X70915Y-22000D01*
X70915Y-22170D01*
X70706Y-22379D01*
X70733Y-22469D01*
X70933Y-22535D01*
X71143Y-22520D01*
X71267Y-22469D01*
X71294Y-22379D01*
X71294Y-30809D01*
X71291Y-30802D01*
X71203Y-30713D01*
X71087Y-30665D01*
X70962Y-30665D01*
X70846Y-30713D01*
X70757Y-30801D01*
X70709Y-30917D01*
X70709Y-31042D01*
X70757Y-31158D01*
X70844Y-31245D01*
X70844Y-36111D01*
X70756Y-36199D01*
X70708Y-36315D01*
X70708Y-36440D01*
X70756Y-36556D01*
X70844Y-36645D01*
X70960Y-36693D01*
X71085Y-36693D01*
X71201Y-36645D01*
X71290Y-36557D01*
X71338Y-36441D01*
X71338Y-36316D01*
X71290Y-36200D01*
X71204Y-36113D01*
X71204Y-31245D01*
X71291Y-31159D01*
X71339Y-31043D01*
X71339Y-35548D01*
X71299Y-35645D01*
X71299Y-35770D01*
X71347Y-35886D01*
X71435Y-35975D01*
X71551Y-36023D01*
X71676Y-36023D01*
X71792Y-35975D01*
X71881Y-35887D01*
X71929Y-35771D01*
X71929Y-35646D01*
X71881Y-35530D01*
X71795Y-35443D01*
X71795Y-30583D01*
X71882Y-30497D01*
X71930Y-30381D01*
X71930Y-47049D01*
X71929Y-47049D01*
X71929Y-41168D01*
X71929Y-40993D01*
X71862Y-40832D01*
X71739Y-40708D01*
X71578Y-40641D01*
X71403Y-40641D01*
X71242Y-40708D01*
X71118Y-40831D01*
X71051Y-40992D01*
X71051Y-41167D01*
X71118Y-41328D01*
X71241Y-41452D01*
X71402Y-41519D01*
X71577Y-41519D01*
X71738Y-41452D01*
X71862Y-41329D01*
X71929Y-41168D01*
X71929Y-47049D01*
X70599Y-47049D01*
X70599Y-32143D01*
X70439Y-31755D01*
X70439Y-22088D01*
X70439Y-21913D01*
X70372Y-21752D01*
X70249Y-21628D01*
X70088Y-21561D01*
X69913Y-21561D01*
X69752Y-21628D01*
X69628Y-21751D01*
X69561Y-21912D01*
X69561Y-22087D01*
X69628Y-22248D01*
X69751Y-22372D01*
X69912Y-22439D01*
X70087Y-22439D01*
X70248Y-22372D01*
X70372Y-22249D01*
X70439Y-22088D01*
X70439Y-31755D01*
X70341Y-31518D01*
X69862Y-31039D01*
X69439Y-30863D01*
X69439Y-22088D01*
X69439Y-21913D01*
X69372Y-21752D01*
X69249Y-21628D01*
X69088Y-21561D01*
X68913Y-21561D01*
X68752Y-21628D01*
X68628Y-21751D01*
X68561Y-21912D01*
X68561Y-22087D01*
X68628Y-22248D01*
X68751Y-22372D01*
X68912Y-22439D01*
X69087Y-22439D01*
X69248Y-22372D01*
X69372Y-22249D01*
X69439Y-22088D01*
X69439Y-30863D01*
X69238Y-30780D01*
X68561Y-30779D01*
X68439Y-30829D01*
X68439Y-22088D01*
X68439Y-21913D01*
X68372Y-21752D01*
X68249Y-21628D01*
X68088Y-21561D01*
X67913Y-21561D01*
X67752Y-21628D01*
X67628Y-21751D01*
X67561Y-21912D01*
X67561Y-22087D01*
X67628Y-22248D01*
X67751Y-22372D01*
X67912Y-22439D01*
X68087Y-22439D01*
X68248Y-22372D01*
X68372Y-22249D01*
X68439Y-22088D01*
X68439Y-30829D01*
X67936Y-31037D01*
X67457Y-31516D01*
X67198Y-32140D01*
X67197Y-32817D01*
X67455Y-33442D01*
X67934Y-33921D01*
X68558Y-34180D01*
X69235Y-34181D01*
X69860Y-33923D01*
X70339Y-33444D01*
X70598Y-32820D01*
X70599Y-32143D01*
X70599Y-47049D01*
X65945Y-47049D01*
X65945Y-23528D01*
X65945Y-23403D01*
X65897Y-23287D01*
X65810Y-23199D01*
X65810Y-20344D01*
X65897Y-20258D01*
X65945Y-20142D01*
X65945Y-20017D01*
X65897Y-19901D01*
X65809Y-19812D01*
X65693Y-19764D01*
X65568Y-19764D01*
X65452Y-19812D01*
X65363Y-19900D01*
X65315Y-20016D01*
X65315Y-20141D01*
X65363Y-20257D01*
X65450Y-20344D01*
X65450Y-21144D01*
X65424Y-21082D01*
X65336Y-20993D01*
X65220Y-20945D01*
X65095Y-20945D01*
X64979Y-20993D01*
X64890Y-21081D01*
X64842Y-21197D01*
X64842Y-21322D01*
X64890Y-21438D01*
X64977Y-21525D01*
X64977Y-23592D01*
X64890Y-23679D01*
X64842Y-23795D01*
X64842Y-23920D01*
X64890Y-24036D01*
X64978Y-24125D01*
X65094Y-24173D01*
X65219Y-24173D01*
X65335Y-24125D01*
X65424Y-24037D01*
X65472Y-23921D01*
X65472Y-23796D01*
X65441Y-23722D01*
X65451Y-23732D01*
X65567Y-23780D01*
X65692Y-23780D01*
X65808Y-23732D01*
X65897Y-23644D01*
X65945Y-23528D01*
X65945Y-47049D01*
X64693Y-47049D01*
X64693Y-41002D01*
X64693Y-35096D01*
X64693Y-29191D01*
X64693Y-23285D01*
X64435Y-22660D01*
X63956Y-22181D01*
X63332Y-21922D01*
X62655Y-21921D01*
X62030Y-22179D01*
X61551Y-22658D01*
X61292Y-23282D01*
X61291Y-23959D01*
X61549Y-24584D01*
X62028Y-25063D01*
X62652Y-25322D01*
X63329Y-25323D01*
X63954Y-25065D01*
X64433Y-24586D01*
X64692Y-23962D01*
X64693Y-23285D01*
X64693Y-29191D01*
X64435Y-28566D01*
X63956Y-28087D01*
X63332Y-27828D01*
X62655Y-27827D01*
X62030Y-28085D01*
X61551Y-28564D01*
X61292Y-29188D01*
X61291Y-29865D01*
X61549Y-30490D01*
X62028Y-30969D01*
X62652Y-31228D01*
X63329Y-31229D01*
X63954Y-30971D01*
X64433Y-30492D01*
X64692Y-29868D01*
X64693Y-29191D01*
X64693Y-35096D01*
X64435Y-34471D01*
X63956Y-33992D01*
X63332Y-33733D01*
X62655Y-33732D01*
X62030Y-33990D01*
X61551Y-34469D01*
X61292Y-35093D01*
X61291Y-35770D01*
X61549Y-36395D01*
X62028Y-36874D01*
X62652Y-37133D01*
X63329Y-37134D01*
X63954Y-36876D01*
X64433Y-36397D01*
X64692Y-35773D01*
X64693Y-35096D01*
X64693Y-41002D01*
X64435Y-40377D01*
X63956Y-39898D01*
X63332Y-39639D01*
X62655Y-39638D01*
X62030Y-39896D01*
X61551Y-40375D01*
X61292Y-40999D01*
X61291Y-41676D01*
X61549Y-42301D01*
X62028Y-42780D01*
X62652Y-43039D01*
X63329Y-43040D01*
X63954Y-42782D01*
X64433Y-42303D01*
X64692Y-41679D01*
X64693Y-41002D01*
X64693Y-47049D01*
X60907Y-47049D01*
X60907Y-44464D01*
X60907Y-44119D01*
X60907Y-20842D01*
X60907Y-20497D01*
X60775Y-20178D01*
X60531Y-19934D01*
X60212Y-19801D01*
X59867Y-19801D01*
X59548Y-19933D01*
X59304Y-20177D01*
X59171Y-20496D01*
X59171Y-20841D01*
X59303Y-21160D01*
X59547Y-21404D01*
X59866Y-21537D01*
X60211Y-21537D01*
X60530Y-21405D01*
X60774Y-21161D01*
X60907Y-20842D01*
X60907Y-44119D01*
X60775Y-43800D01*
X60531Y-43556D01*
X60212Y-43423D01*
X60197Y-43423D01*
X60197Y-39591D01*
X60197Y-39466D01*
X60197Y-26008D01*
X60197Y-25883D01*
X60149Y-25767D01*
X60062Y-25679D01*
X60062Y-22942D01*
X60149Y-22856D01*
X60197Y-22740D01*
X60197Y-22615D01*
X60149Y-22499D01*
X60061Y-22410D01*
X59945Y-22362D01*
X59820Y-22362D01*
X59704Y-22410D01*
X59615Y-22498D01*
X59567Y-22614D01*
X59567Y-22739D01*
X59615Y-22855D01*
X59702Y-22942D01*
X59702Y-25679D01*
X59615Y-25766D01*
X59567Y-25882D01*
X59567Y-25945D01*
X59558Y-25924D01*
X59471Y-25836D01*
X59471Y-23375D01*
X59558Y-23289D01*
X59606Y-23173D01*
X59606Y-23048D01*
X59558Y-22932D01*
X59470Y-22843D01*
X59354Y-22795D01*
X59229Y-22795D01*
X59113Y-22843D01*
X59024Y-22931D01*
X58976Y-23047D01*
X58976Y-23172D01*
X59024Y-23288D01*
X59111Y-23375D01*
X59111Y-25836D01*
X59024Y-25923D01*
X58976Y-26039D01*
X58976Y-26164D01*
X59024Y-26280D01*
X59112Y-26369D01*
X59228Y-26417D01*
X59353Y-26417D01*
X59469Y-26369D01*
X59558Y-26281D01*
X59606Y-26165D01*
X59606Y-26101D01*
X59615Y-26123D01*
X59703Y-26212D01*
X59819Y-26260D01*
X59944Y-26260D01*
X60060Y-26212D01*
X60149Y-26124D01*
X60197Y-26008D01*
X60197Y-39466D01*
X60149Y-39350D01*
X60061Y-39261D01*
X59945Y-39213D01*
X59820Y-39213D01*
X59704Y-39261D01*
X59615Y-39349D01*
X59567Y-39465D01*
X59567Y-39590D01*
X59615Y-39706D01*
X59702Y-39793D01*
X59702Y-42040D01*
X59665Y-42056D01*
X59576Y-42144D01*
X59528Y-42260D01*
X59528Y-42385D01*
X59576Y-42501D01*
X59664Y-42590D01*
X59780Y-42638D01*
X59905Y-42638D01*
X60021Y-42590D01*
X60110Y-42502D01*
X60158Y-42386D01*
X60158Y-42261D01*
X60110Y-42145D01*
X60062Y-42096D01*
X60062Y-39793D01*
X60149Y-39707D01*
X60197Y-39591D01*
X60197Y-43423D01*
X59867Y-43423D01*
X59548Y-43555D01*
X59449Y-43654D01*
X59449Y-42346D01*
X59449Y-42221D01*
X59401Y-42105D01*
X59314Y-42017D01*
X59314Y-39556D01*
X59401Y-39470D01*
X59449Y-39354D01*
X59449Y-39229D01*
X59401Y-39113D01*
X59313Y-39024D01*
X59197Y-38976D01*
X59072Y-38976D01*
X58956Y-39024D01*
X58867Y-39112D01*
X58819Y-39228D01*
X58819Y-39353D01*
X58867Y-39469D01*
X58954Y-39556D01*
X58954Y-42017D01*
X58867Y-42104D01*
X58819Y-42220D01*
X58819Y-42345D01*
X58867Y-42461D01*
X58955Y-42550D01*
X59071Y-42598D01*
X59196Y-42598D01*
X59312Y-42550D01*
X59401Y-42462D01*
X59449Y-42346D01*
X59449Y-43654D01*
X59304Y-43799D01*
X59171Y-44118D01*
X59171Y-44463D01*
X59303Y-44782D01*
X59547Y-45026D01*
X59866Y-45159D01*
X60211Y-45159D01*
X60530Y-45027D01*
X60774Y-44783D01*
X60907Y-44464D01*
X60907Y-47049D01*
X58788Y-47049D01*
X58788Y-41002D01*
X58788Y-35096D01*
X58788Y-29191D01*
X58788Y-23285D01*
X58530Y-22660D01*
X58051Y-22181D01*
X57427Y-21922D01*
X56750Y-21921D01*
X56125Y-22179D01*
X55646Y-22658D01*
X55387Y-23282D01*
X55386Y-23959D01*
X55644Y-24584D01*
X56123Y-25063D01*
X56747Y-25322D01*
X57424Y-25323D01*
X58049Y-25065D01*
X58528Y-24586D01*
X58787Y-23962D01*
X58788Y-23285D01*
X58788Y-29191D01*
X58530Y-28566D01*
X58051Y-28087D01*
X57427Y-27828D01*
X56750Y-27827D01*
X56125Y-28085D01*
X55646Y-28564D01*
X55387Y-29188D01*
X55386Y-29865D01*
X55644Y-30490D01*
X56123Y-30969D01*
X56747Y-31228D01*
X57424Y-31229D01*
X58049Y-30971D01*
X58528Y-30492D01*
X58787Y-29868D01*
X58788Y-29191D01*
X58788Y-35096D01*
X58530Y-34471D01*
X58051Y-33992D01*
X57427Y-33733D01*
X56750Y-33732D01*
X56125Y-33990D01*
X55646Y-34469D01*
X55387Y-35093D01*
X55386Y-35770D01*
X55644Y-36395D01*
X56123Y-36874D01*
X56747Y-37133D01*
X57424Y-37134D01*
X58049Y-36876D01*
X58528Y-36397D01*
X58787Y-35773D01*
X58788Y-35096D01*
X58788Y-41002D01*
X58530Y-40377D01*
X58051Y-39898D01*
X57427Y-39639D01*
X56750Y-39638D01*
X56125Y-39896D01*
X55646Y-40375D01*
X55387Y-40999D01*
X55386Y-41676D01*
X55644Y-42301D01*
X56123Y-42780D01*
X56747Y-43039D01*
X57424Y-43040D01*
X58049Y-42782D01*
X58528Y-42303D01*
X58787Y-41679D01*
X58788Y-41002D01*
X58788Y-47049D01*
X54488Y-47049D01*
X54488Y-45339D01*
X54488Y-45214D01*
X54440Y-45098D01*
X54353Y-45010D01*
X54353Y-39320D01*
X54440Y-39234D01*
X54488Y-39118D01*
X54488Y-38993D01*
X54440Y-38877D01*
X54409Y-38845D01*
X54409Y-26362D01*
X54409Y-26237D01*
X54361Y-26121D01*
X54274Y-26033D01*
X54274Y-20344D01*
X54361Y-20258D01*
X54409Y-20142D01*
X54409Y-20017D01*
X54361Y-19901D01*
X54273Y-19812D01*
X54157Y-19764D01*
X54032Y-19764D01*
X53916Y-19812D01*
X53827Y-19900D01*
X53779Y-20016D01*
X53779Y-20141D01*
X53827Y-20257D01*
X53914Y-20344D01*
X53914Y-26033D01*
X53827Y-26120D01*
X53779Y-26236D01*
X53779Y-26361D01*
X53827Y-26477D01*
X53915Y-26566D01*
X54031Y-26614D01*
X54156Y-26614D01*
X54272Y-26566D01*
X54361Y-26478D01*
X54409Y-26362D01*
X54409Y-38845D01*
X54352Y-38788D01*
X54236Y-38740D01*
X54111Y-38740D01*
X53995Y-38788D01*
X53906Y-38876D01*
X53858Y-38992D01*
X53858Y-39117D01*
X53906Y-39233D01*
X53993Y-39320D01*
X53993Y-45010D01*
X53906Y-45097D01*
X53858Y-45213D01*
X53858Y-45338D01*
X53906Y-45454D01*
X53994Y-45543D01*
X54110Y-45591D01*
X54235Y-45591D01*
X54351Y-45543D01*
X54440Y-45455D01*
X54488Y-45339D01*
X54488Y-47049D01*
X53661Y-47049D01*
X53661Y-26441D01*
X53661Y-26316D01*
X53613Y-26200D01*
X53526Y-26112D01*
X53526Y-21525D01*
X53613Y-21439D01*
X53661Y-21323D01*
X53661Y-21198D01*
X53613Y-21082D01*
X53525Y-20993D01*
X53409Y-20945D01*
X53284Y-20945D01*
X53168Y-20993D01*
X53079Y-21081D01*
X53031Y-21197D01*
X53031Y-21322D01*
X53079Y-21438D01*
X53166Y-21525D01*
X53166Y-26112D01*
X53079Y-26199D01*
X53031Y-26315D01*
X53031Y-26440D01*
X53079Y-26556D01*
X53167Y-26645D01*
X53283Y-26693D01*
X53408Y-26693D01*
X53524Y-26645D01*
X53613Y-26557D01*
X53661Y-26441D01*
X53661Y-47049D01*
X53543Y-47049D01*
X53543Y-44157D01*
X53543Y-44032D01*
X53495Y-43916D01*
X53408Y-43828D01*
X53408Y-39045D01*
X53495Y-38959D01*
X53543Y-38843D01*
X53543Y-38718D01*
X53495Y-38602D01*
X53407Y-38513D01*
X53291Y-38465D01*
X53166Y-38465D01*
X53050Y-38513D01*
X52961Y-38601D01*
X52913Y-38717D01*
X52913Y-38842D01*
X52961Y-38958D01*
X53048Y-39045D01*
X53048Y-43828D01*
X52961Y-43915D01*
X52913Y-44031D01*
X52913Y-44156D01*
X52961Y-44272D01*
X53049Y-44361D01*
X53165Y-44409D01*
X53290Y-44409D01*
X53406Y-44361D01*
X53495Y-44273D01*
X53543Y-44157D01*
X53543Y-47049D01*
X52882Y-47049D01*
X52882Y-41002D01*
X52882Y-35096D01*
X52882Y-29191D01*
X52882Y-23285D01*
X52624Y-22660D01*
X52145Y-22181D01*
X51521Y-21922D01*
X50844Y-21921D01*
X50219Y-22179D01*
X49740Y-22658D01*
X49481Y-23282D01*
X49480Y-23959D01*
X49738Y-24584D01*
X50217Y-25063D01*
X50841Y-25322D01*
X51518Y-25323D01*
X52143Y-25065D01*
X52622Y-24586D01*
X52881Y-23962D01*
X52882Y-23285D01*
X52882Y-29191D01*
X52624Y-28566D01*
X52145Y-28087D01*
X51521Y-27828D01*
X50844Y-27827D01*
X50219Y-28085D01*
X49740Y-28564D01*
X49481Y-29188D01*
X49480Y-29865D01*
X49738Y-30490D01*
X50217Y-30969D01*
X50841Y-31228D01*
X51518Y-31229D01*
X52143Y-30971D01*
X52622Y-30492D01*
X52881Y-29868D01*
X52882Y-29191D01*
X52882Y-35096D01*
X52624Y-34471D01*
X52145Y-33992D01*
X51521Y-33733D01*
X50844Y-33732D01*
X50219Y-33990D01*
X49740Y-34469D01*
X49481Y-35093D01*
X49480Y-35770D01*
X49738Y-36395D01*
X50217Y-36874D01*
X50841Y-37133D01*
X51518Y-37134D01*
X52143Y-36876D01*
X52622Y-36397D01*
X52881Y-35773D01*
X52882Y-35096D01*
X52882Y-41002D01*
X52624Y-40377D01*
X52145Y-39898D01*
X51521Y-39639D01*
X50844Y-39638D01*
X50219Y-39896D01*
X49740Y-40375D01*
X49481Y-40999D01*
X49480Y-41676D01*
X49738Y-42301D01*
X50217Y-42780D01*
X50841Y-43039D01*
X51518Y-43040D01*
X52143Y-42782D01*
X52622Y-42303D01*
X52881Y-41679D01*
X52882Y-41002D01*
X52882Y-47049D01*
X48622Y-47049D01*
X48622Y-45339D01*
X48622Y-45214D01*
X48574Y-45098D01*
X48487Y-45010D01*
X48487Y-38848D01*
X48574Y-38762D01*
X48622Y-38646D01*
X48622Y-38521D01*
X48574Y-38405D01*
X48543Y-38373D01*
X48543Y-26717D01*
X48543Y-26592D01*
X48495Y-26476D01*
X48408Y-26388D01*
X48408Y-20344D01*
X48495Y-20258D01*
X48543Y-20142D01*
X48543Y-20017D01*
X48495Y-19901D01*
X48407Y-19812D01*
X48291Y-19764D01*
X48166Y-19764D01*
X48050Y-19812D01*
X47961Y-19900D01*
X47913Y-20016D01*
X47913Y-20141D01*
X47961Y-20257D01*
X48048Y-20344D01*
X48048Y-26388D01*
X47961Y-26475D01*
X47913Y-26591D01*
X47913Y-26716D01*
X47961Y-26832D01*
X48049Y-26921D01*
X48165Y-26969D01*
X48290Y-26969D01*
X48406Y-26921D01*
X48495Y-26833D01*
X48543Y-26717D01*
X48543Y-38373D01*
X48486Y-38316D01*
X48370Y-38268D01*
X48245Y-38268D01*
X48129Y-38316D01*
X48040Y-38404D01*
X47992Y-38520D01*
X47992Y-38645D01*
X48040Y-38761D01*
X48127Y-38848D01*
X48127Y-45010D01*
X48040Y-45097D01*
X47992Y-45213D01*
X47992Y-45338D01*
X48040Y-45454D01*
X48128Y-45543D01*
X48244Y-45591D01*
X48369Y-45591D01*
X48485Y-45543D01*
X48574Y-45455D01*
X48622Y-45339D01*
X48622Y-47049D01*
X47756Y-47049D01*
X47756Y-26913D01*
X47756Y-26788D01*
X47708Y-26672D01*
X47621Y-26584D01*
X47621Y-21525D01*
X47708Y-21439D01*
X47756Y-21323D01*
X47756Y-21198D01*
X47708Y-21082D01*
X47620Y-20993D01*
X47504Y-20945D01*
X47379Y-20945D01*
X47263Y-20993D01*
X47174Y-21081D01*
X47126Y-21197D01*
X47126Y-21322D01*
X47174Y-21438D01*
X47261Y-21525D01*
X47261Y-26584D01*
X47174Y-26671D01*
X47126Y-26787D01*
X47126Y-26912D01*
X47174Y-27028D01*
X47262Y-27117D01*
X47378Y-27165D01*
X47503Y-27165D01*
X47619Y-27117D01*
X47708Y-27029D01*
X47756Y-26913D01*
X47756Y-47049D01*
X47677Y-47049D01*
X47677Y-44118D01*
X47677Y-43993D01*
X47629Y-43877D01*
X47542Y-43789D01*
X47542Y-38651D01*
X47629Y-38565D01*
X47677Y-38449D01*
X47677Y-38324D01*
X47629Y-38208D01*
X47541Y-38119D01*
X47425Y-38071D01*
X47300Y-38071D01*
X47184Y-38119D01*
X47095Y-38207D01*
X47047Y-38323D01*
X47047Y-38448D01*
X47095Y-38564D01*
X47182Y-38651D01*
X47182Y-43789D01*
X47095Y-43876D01*
X47047Y-43992D01*
X47047Y-44117D01*
X47095Y-44233D01*
X47183Y-44322D01*
X47299Y-44370D01*
X47424Y-44370D01*
X47540Y-44322D01*
X47629Y-44234D01*
X47677Y-44118D01*
X47677Y-47049D01*
X46977Y-47049D01*
X46977Y-41002D01*
X46977Y-35096D01*
X46977Y-29191D01*
X46977Y-23285D01*
X46719Y-22660D01*
X46240Y-22181D01*
X45616Y-21922D01*
X44939Y-21921D01*
X44314Y-22179D01*
X43835Y-22658D01*
X43576Y-23282D01*
X43575Y-23959D01*
X43833Y-24584D01*
X44312Y-25063D01*
X44936Y-25322D01*
X45613Y-25323D01*
X46238Y-25065D01*
X46717Y-24586D01*
X46976Y-23962D01*
X46977Y-23285D01*
X46977Y-29191D01*
X46719Y-28566D01*
X46240Y-28087D01*
X45616Y-27828D01*
X44939Y-27827D01*
X44314Y-28085D01*
X43835Y-28564D01*
X43576Y-29188D01*
X43575Y-29865D01*
X43833Y-30490D01*
X44312Y-30969D01*
X44936Y-31228D01*
X45613Y-31229D01*
X46238Y-30971D01*
X46717Y-30492D01*
X46976Y-29868D01*
X46977Y-29191D01*
X46977Y-35096D01*
X46719Y-34471D01*
X46240Y-33992D01*
X45616Y-33733D01*
X44939Y-33732D01*
X44314Y-33990D01*
X43835Y-34469D01*
X43576Y-35093D01*
X43575Y-35770D01*
X43833Y-36395D01*
X44312Y-36874D01*
X44936Y-37133D01*
X45613Y-37134D01*
X46238Y-36876D01*
X46717Y-36397D01*
X46976Y-35773D01*
X46977Y-35096D01*
X46977Y-41002D01*
X46719Y-40377D01*
X46240Y-39898D01*
X45616Y-39639D01*
X44939Y-39638D01*
X44314Y-39896D01*
X43835Y-40375D01*
X43576Y-40999D01*
X43575Y-41676D01*
X43833Y-42301D01*
X44312Y-42780D01*
X44936Y-43039D01*
X45613Y-43040D01*
X46238Y-42782D01*
X46717Y-42303D01*
X46976Y-41679D01*
X46977Y-41002D01*
X46977Y-47049D01*
X43191Y-47049D01*
X43191Y-44464D01*
X43191Y-44119D01*
X43191Y-20842D01*
X43191Y-20497D01*
X43059Y-20178D01*
X42815Y-19934D01*
X42496Y-19801D01*
X42151Y-19801D01*
X41832Y-19933D01*
X41588Y-20177D01*
X41455Y-20496D01*
X41455Y-20841D01*
X41587Y-21160D01*
X41831Y-21404D01*
X42150Y-21537D01*
X42495Y-21537D01*
X42814Y-21405D01*
X43058Y-21161D01*
X43191Y-20842D01*
X43191Y-44119D01*
X43059Y-43800D01*
X42815Y-43556D01*
X42559Y-43449D01*
X42559Y-27110D01*
X42559Y-26985D01*
X42511Y-26869D01*
X42424Y-26781D01*
X42424Y-22982D01*
X42511Y-22896D01*
X42559Y-22780D01*
X42559Y-22655D01*
X42511Y-22539D01*
X42423Y-22450D01*
X42307Y-22402D01*
X42182Y-22402D01*
X42066Y-22450D01*
X41977Y-22538D01*
X41929Y-22654D01*
X41929Y-22779D01*
X41977Y-22895D01*
X42064Y-22982D01*
X42064Y-26781D01*
X41977Y-26868D01*
X41929Y-26984D01*
X41929Y-27109D01*
X41977Y-27225D01*
X42065Y-27314D01*
X42181Y-27362D01*
X42306Y-27362D01*
X42422Y-27314D01*
X42511Y-27226D01*
X42559Y-27110D01*
X42559Y-43449D01*
X42496Y-43423D01*
X42480Y-43423D01*
X42480Y-42268D01*
X42480Y-42143D01*
X42432Y-42027D01*
X42345Y-41939D01*
X42345Y-38415D01*
X42432Y-38329D01*
X42480Y-38213D01*
X42480Y-38088D01*
X42432Y-37972D01*
X42344Y-37883D01*
X42228Y-37835D01*
X42103Y-37835D01*
X41987Y-37883D01*
X41898Y-37971D01*
X41850Y-38087D01*
X41850Y-38212D01*
X41898Y-38328D01*
X41985Y-38415D01*
X41985Y-41939D01*
X41898Y-42026D01*
X41850Y-42142D01*
X41850Y-42143D01*
X41802Y-42027D01*
X41715Y-41939D01*
X41715Y-38218D01*
X41802Y-38132D01*
X41850Y-38016D01*
X41850Y-37891D01*
X41850Y-27386D01*
X41850Y-27261D01*
X41802Y-27145D01*
X41715Y-27057D01*
X41715Y-22982D01*
X41802Y-22896D01*
X41850Y-22780D01*
X41850Y-22655D01*
X41802Y-22539D01*
X41714Y-22450D01*
X41598Y-22402D01*
X41473Y-22402D01*
X41357Y-22450D01*
X41268Y-22538D01*
X41220Y-22654D01*
X41220Y-22779D01*
X41268Y-22895D01*
X41355Y-22982D01*
X41355Y-27057D01*
X41268Y-27144D01*
X41220Y-27260D01*
X41220Y-27385D01*
X41268Y-27501D01*
X41356Y-27590D01*
X41472Y-27638D01*
X41597Y-27638D01*
X41713Y-27590D01*
X41802Y-27502D01*
X41850Y-27386D01*
X41850Y-37891D01*
X41802Y-37775D01*
X41714Y-37686D01*
X41598Y-37638D01*
X41473Y-37638D01*
X41357Y-37686D01*
X41268Y-37774D01*
X41220Y-37890D01*
X41220Y-38015D01*
X41268Y-38131D01*
X41355Y-38218D01*
X41355Y-41939D01*
X41268Y-42026D01*
X41220Y-42142D01*
X41220Y-42267D01*
X41268Y-42383D01*
X41356Y-42472D01*
X41472Y-42520D01*
X41597Y-42520D01*
X41713Y-42472D01*
X41802Y-42384D01*
X41850Y-42268D01*
X41898Y-42383D01*
X41986Y-42472D01*
X42102Y-42520D01*
X42227Y-42520D01*
X42343Y-42472D01*
X42432Y-42384D01*
X42480Y-42268D01*
X42480Y-43423D01*
X42151Y-43423D01*
X41832Y-43555D01*
X41588Y-43799D01*
X41455Y-44118D01*
X41455Y-44463D01*
X41587Y-44782D01*
X41831Y-45026D01*
X42150Y-45159D01*
X42495Y-45159D01*
X42814Y-45027D01*
X43058Y-44783D01*
X43191Y-44464D01*
X43191Y-47049D01*
X41071Y-47049D01*
X41071Y-41002D01*
X41071Y-35096D01*
X41071Y-29191D01*
X41071Y-23285D01*
X40813Y-22660D01*
X40334Y-22181D01*
X39710Y-21922D01*
X39033Y-21921D01*
X38408Y-22179D01*
X37929Y-22658D01*
X37670Y-23282D01*
X37669Y-23959D01*
X37927Y-24584D01*
X38406Y-25063D01*
X39030Y-25322D01*
X39707Y-25323D01*
X40332Y-25065D01*
X40811Y-24586D01*
X41070Y-23962D01*
X41071Y-23285D01*
X41071Y-29191D01*
X40813Y-28566D01*
X40334Y-28087D01*
X39710Y-27828D01*
X39033Y-27827D01*
X38408Y-28085D01*
X37929Y-28564D01*
X37670Y-29188D01*
X37669Y-29865D01*
X37927Y-30490D01*
X38406Y-30969D01*
X39030Y-31228D01*
X39707Y-31229D01*
X40332Y-30971D01*
X40811Y-30492D01*
X41070Y-29868D01*
X41071Y-29191D01*
X41071Y-35096D01*
X40813Y-34471D01*
X40334Y-33992D01*
X39710Y-33733D01*
X39033Y-33732D01*
X38408Y-33990D01*
X37929Y-34469D01*
X37670Y-35093D01*
X37669Y-35770D01*
X37927Y-36395D01*
X38406Y-36874D01*
X39030Y-37133D01*
X39707Y-37134D01*
X40332Y-36876D01*
X40811Y-36397D01*
X41070Y-35773D01*
X41071Y-35096D01*
X41071Y-41002D01*
X40813Y-40377D01*
X40334Y-39898D01*
X39710Y-39639D01*
X39033Y-39638D01*
X38408Y-39896D01*
X37929Y-40375D01*
X37670Y-40999D01*
X37669Y-41676D01*
X37927Y-42301D01*
X38406Y-42780D01*
X39030Y-43039D01*
X39707Y-43040D01*
X40332Y-42782D01*
X40811Y-42303D01*
X41070Y-41679D01*
X41071Y-41002D01*
X41071Y-47049D01*
X36890Y-47049D01*
X36890Y-45339D01*
X36890Y-45214D01*
X36842Y-45098D01*
X36755Y-45010D01*
X36755Y-37863D01*
X36842Y-37777D01*
X36890Y-37661D01*
X36890Y-37536D01*
X36842Y-37420D01*
X36754Y-37331D01*
X36638Y-37283D01*
X36535Y-37283D01*
X36535Y-27780D01*
X36535Y-27655D01*
X36487Y-27539D01*
X36440Y-27491D01*
X36440Y-26496D01*
X36440Y-26378D01*
X36440Y-20304D01*
X36487Y-20258D01*
X36535Y-20142D01*
X36535Y-20017D01*
X36487Y-19901D01*
X36399Y-19812D01*
X36283Y-19764D01*
X36158Y-19764D01*
X36042Y-19812D01*
X35953Y-19900D01*
X35905Y-20016D01*
X35905Y-20141D01*
X35953Y-20257D01*
X36041Y-20346D01*
X36080Y-20362D01*
X36080Y-26378D01*
X36080Y-26496D01*
X36080Y-27434D01*
X36042Y-27450D01*
X35953Y-27538D01*
X35905Y-27654D01*
X35905Y-27779D01*
X35953Y-27895D01*
X36041Y-27984D01*
X36157Y-28032D01*
X36282Y-28032D01*
X36398Y-27984D01*
X36487Y-27896D01*
X36535Y-27780D01*
X36535Y-37283D01*
X36513Y-37283D01*
X36397Y-37331D01*
X36308Y-37419D01*
X36260Y-37535D01*
X36260Y-37660D01*
X36308Y-37776D01*
X36395Y-37863D01*
X36395Y-45010D01*
X36308Y-45097D01*
X36260Y-45213D01*
X36260Y-45338D01*
X36308Y-45454D01*
X36396Y-45543D01*
X36512Y-45591D01*
X36637Y-45591D01*
X36753Y-45543D01*
X36842Y-45455D01*
X36890Y-45339D01*
X36890Y-47049D01*
X35945Y-47049D01*
X35945Y-31165D01*
X35945Y-31040D01*
X35897Y-30924D01*
X35810Y-30836D01*
X35810Y-21525D01*
X35897Y-21439D01*
X35945Y-21323D01*
X35945Y-21198D01*
X35897Y-21082D01*
X35809Y-20993D01*
X35693Y-20945D01*
X35568Y-20945D01*
X35452Y-20993D01*
X35363Y-21081D01*
X35315Y-21197D01*
X35315Y-21322D01*
X35363Y-21438D01*
X35450Y-21525D01*
X35450Y-30836D01*
X35363Y-30923D01*
X35315Y-31039D01*
X35315Y-31164D01*
X35363Y-31280D01*
X35451Y-31369D01*
X35567Y-31417D01*
X35692Y-31417D01*
X35808Y-31369D01*
X35897Y-31281D01*
X35945Y-31165D01*
X35945Y-47049D01*
X35906Y-47049D01*
X35906Y-44157D01*
X35906Y-44032D01*
X35858Y-43916D01*
X35771Y-43828D01*
X35771Y-33730D01*
X35858Y-33644D01*
X35906Y-33528D01*
X35906Y-33403D01*
X35858Y-33287D01*
X35770Y-33198D01*
X35654Y-33150D01*
X35529Y-33150D01*
X35413Y-33198D01*
X35324Y-33286D01*
X35276Y-33402D01*
X35276Y-33527D01*
X35324Y-33643D01*
X35411Y-33730D01*
X35411Y-43828D01*
X35324Y-43915D01*
X35276Y-44031D01*
X35276Y-44156D01*
X35324Y-44272D01*
X35412Y-44361D01*
X35528Y-44409D01*
X35653Y-44409D01*
X35769Y-44361D01*
X35858Y-44273D01*
X35906Y-44157D01*
X35906Y-47049D01*
X35166Y-47049D01*
X35166Y-41002D01*
X35166Y-35096D01*
X35166Y-29191D01*
X35166Y-23285D01*
X34908Y-22660D01*
X34429Y-22181D01*
X33805Y-21922D01*
X33128Y-21921D01*
X32503Y-22179D01*
X32024Y-22658D01*
X31765Y-23282D01*
X31764Y-23959D01*
X32022Y-24584D01*
X32501Y-25063D01*
X33125Y-25322D01*
X33802Y-25323D01*
X34427Y-25065D01*
X34906Y-24586D01*
X35165Y-23962D01*
X35166Y-23285D01*
X35166Y-29191D01*
X34908Y-28566D01*
X34429Y-28087D01*
X33805Y-27828D01*
X33128Y-27827D01*
X32503Y-28085D01*
X32024Y-28564D01*
X31765Y-29188D01*
X31764Y-29865D01*
X32022Y-30490D01*
X32501Y-30969D01*
X33125Y-31228D01*
X33802Y-31229D01*
X34427Y-30971D01*
X34906Y-30492D01*
X35165Y-29868D01*
X35166Y-29191D01*
X35166Y-35096D01*
X34908Y-34471D01*
X34429Y-33992D01*
X33805Y-33733D01*
X33128Y-33732D01*
X32503Y-33990D01*
X32024Y-34469D01*
X31765Y-35093D01*
X31764Y-35770D01*
X32022Y-36395D01*
X32501Y-36874D01*
X33125Y-37133D01*
X33802Y-37134D01*
X34427Y-36876D01*
X34906Y-36397D01*
X35165Y-35773D01*
X35166Y-35096D01*
X35166Y-41002D01*
X34908Y-40377D01*
X34429Y-39898D01*
X33805Y-39639D01*
X33128Y-39638D01*
X32503Y-39896D01*
X32024Y-40375D01*
X31765Y-40999D01*
X31764Y-41676D01*
X32022Y-42301D01*
X32501Y-42780D01*
X33125Y-43039D01*
X33802Y-43040D01*
X34427Y-42782D01*
X34906Y-42303D01*
X35165Y-41679D01*
X35166Y-41002D01*
X35166Y-47049D01*
X30827Y-47049D01*
X30827Y-45339D01*
X30827Y-45214D01*
X30779Y-45098D01*
X30692Y-45010D01*
X30692Y-33572D01*
X30779Y-33486D01*
X30827Y-33370D01*
X30827Y-33245D01*
X30779Y-33129D01*
X30691Y-33040D01*
X30669Y-33030D01*
X30669Y-31323D01*
X30669Y-31198D01*
X30621Y-31082D01*
X30534Y-30994D01*
X30534Y-20344D01*
X30621Y-20258D01*
X30669Y-20142D01*
X30669Y-20017D01*
X30621Y-19901D01*
X30533Y-19812D01*
X30417Y-19764D01*
X30292Y-19764D01*
X30176Y-19812D01*
X30087Y-19900D01*
X30039Y-20016D01*
X30039Y-20141D01*
X30087Y-20257D01*
X30174Y-20344D01*
X30174Y-30994D01*
X30087Y-31081D01*
X30079Y-31100D01*
X30079Y-21283D01*
X30079Y-21158D01*
X30031Y-21042D01*
X29943Y-20953D01*
X29827Y-20905D01*
X29702Y-20905D01*
X29586Y-20953D01*
X29497Y-21041D01*
X29449Y-21157D01*
X29449Y-21282D01*
X29497Y-21398D01*
X29544Y-21445D01*
X29544Y-31191D01*
X29457Y-31278D01*
X29409Y-31394D01*
X29409Y-31519D01*
X29457Y-31635D01*
X29545Y-31724D01*
X29661Y-31772D01*
X29786Y-31772D01*
X29902Y-31724D01*
X29991Y-31636D01*
X30039Y-31520D01*
X30039Y-31395D01*
X29991Y-31279D01*
X29904Y-31191D01*
X29904Y-21502D01*
X29942Y-21487D01*
X30031Y-21399D01*
X30079Y-21283D01*
X30079Y-31100D01*
X30039Y-31197D01*
X30039Y-31322D01*
X30087Y-31438D01*
X30175Y-31527D01*
X30291Y-31575D01*
X30416Y-31575D01*
X30532Y-31527D01*
X30621Y-31439D01*
X30669Y-31323D01*
X30669Y-33030D01*
X30575Y-32992D01*
X30450Y-32992D01*
X30334Y-33040D01*
X30245Y-33128D01*
X30197Y-33244D01*
X30197Y-33369D01*
X30245Y-33485D01*
X30332Y-33572D01*
X30332Y-45010D01*
X30245Y-45097D01*
X30197Y-45213D01*
X30197Y-45338D01*
X30245Y-45454D01*
X30333Y-45543D01*
X30449Y-45591D01*
X30574Y-45591D01*
X30690Y-45543D01*
X30779Y-45455D01*
X30827Y-45339D01*
X30827Y-47049D01*
X30039Y-47049D01*
X30039Y-44157D01*
X30039Y-44032D01*
X29991Y-43916D01*
X29904Y-43828D01*
X29904Y-33415D01*
X29991Y-33329D01*
X30039Y-33213D01*
X30039Y-33088D01*
X29991Y-32972D01*
X29903Y-32883D01*
X29787Y-32835D01*
X29662Y-32835D01*
X29546Y-32883D01*
X29457Y-32971D01*
X29409Y-33087D01*
X29409Y-33212D01*
X29457Y-33328D01*
X29544Y-33415D01*
X29544Y-43828D01*
X29457Y-43915D01*
X29409Y-44031D01*
X29409Y-44156D01*
X29457Y-44272D01*
X29545Y-44361D01*
X29661Y-44409D01*
X29786Y-44409D01*
X29902Y-44361D01*
X29991Y-44273D01*
X30039Y-44157D01*
X30039Y-47049D01*
X29260Y-47049D01*
X29260Y-41002D01*
X29260Y-35096D01*
X29260Y-29191D01*
X29260Y-23285D01*
X29002Y-22660D01*
X28523Y-22181D01*
X27899Y-21922D01*
X27222Y-21921D01*
X26597Y-22179D01*
X26118Y-22658D01*
X25859Y-23282D01*
X25858Y-23959D01*
X26116Y-24584D01*
X26595Y-25063D01*
X27219Y-25322D01*
X27896Y-25323D01*
X28521Y-25065D01*
X29000Y-24586D01*
X29259Y-23962D01*
X29260Y-23285D01*
X29260Y-29191D01*
X29002Y-28566D01*
X28523Y-28087D01*
X27899Y-27828D01*
X27222Y-27827D01*
X26597Y-28085D01*
X26118Y-28564D01*
X25859Y-29188D01*
X25858Y-29865D01*
X26116Y-30490D01*
X26595Y-30969D01*
X27219Y-31228D01*
X27896Y-31229D01*
X28521Y-30971D01*
X29000Y-30492D01*
X29259Y-29868D01*
X29260Y-29191D01*
X29260Y-35096D01*
X29002Y-34471D01*
X28523Y-33992D01*
X27899Y-33733D01*
X27222Y-33732D01*
X26597Y-33990D01*
X26118Y-34469D01*
X25859Y-35093D01*
X25858Y-35770D01*
X26116Y-36395D01*
X26595Y-36874D01*
X27219Y-37133D01*
X27896Y-37134D01*
X28521Y-36876D01*
X29000Y-36397D01*
X29259Y-35773D01*
X29260Y-35096D01*
X29260Y-41002D01*
X29002Y-40377D01*
X28523Y-39898D01*
X27899Y-39639D01*
X27222Y-39638D01*
X26597Y-39896D01*
X26118Y-40375D01*
X25859Y-40999D01*
X25858Y-41676D01*
X26116Y-42301D01*
X26595Y-42780D01*
X27219Y-43039D01*
X27896Y-43040D01*
X28521Y-42782D01*
X29000Y-42303D01*
X29259Y-41679D01*
X29260Y-41002D01*
X29260Y-47049D01*
X24803Y-47049D01*
X24803Y-20142D01*
X24803Y-20017D01*
X24755Y-19901D01*
X24667Y-19812D01*
X24551Y-19764D01*
X24426Y-19764D01*
X24310Y-19812D01*
X24221Y-19900D01*
X24173Y-20016D01*
X24173Y-20141D01*
X24221Y-20257D01*
X24308Y-20344D01*
X24308Y-31410D01*
X24271Y-31426D01*
X24182Y-31514D01*
X24134Y-31630D01*
X24134Y-31755D01*
X24182Y-31871D01*
X24270Y-31960D01*
X24386Y-32008D01*
X24511Y-32008D01*
X24627Y-31960D01*
X24716Y-31872D01*
X24764Y-31756D01*
X24764Y-31631D01*
X24716Y-31515D01*
X24668Y-31466D01*
X24668Y-20344D01*
X24755Y-20258D01*
X24803Y-20142D01*
X24803Y-47049D01*
X24685Y-47049D01*
X24685Y-33094D01*
X24685Y-32969D01*
X24637Y-32853D01*
X24549Y-32764D01*
X24433Y-32716D01*
X24308Y-32716D01*
X24192Y-32764D01*
X24134Y-32821D01*
X24134Y-32346D01*
X24134Y-32221D01*
X24086Y-32105D01*
X23999Y-32017D01*
X23999Y-21466D01*
X24047Y-21419D01*
X24095Y-21303D01*
X24095Y-21178D01*
X24047Y-21062D01*
X23959Y-20973D01*
X23843Y-20925D01*
X23718Y-20925D01*
X23602Y-20973D01*
X23513Y-21061D01*
X23465Y-21177D01*
X23465Y-21302D01*
X23513Y-21418D01*
X23601Y-21507D01*
X23639Y-21522D01*
X23639Y-32017D01*
X23552Y-32104D01*
X23504Y-32220D01*
X23504Y-32345D01*
X23552Y-32461D01*
X23613Y-32523D01*
X23602Y-32528D01*
X23513Y-32616D01*
X23465Y-32732D01*
X23465Y-32857D01*
X23513Y-32973D01*
X23600Y-33060D01*
X23600Y-43828D01*
X23513Y-43915D01*
X23465Y-44031D01*
X23465Y-44156D01*
X23513Y-44272D01*
X23601Y-44361D01*
X23717Y-44409D01*
X23842Y-44409D01*
X23958Y-44361D01*
X24047Y-44273D01*
X24095Y-44157D01*
X24095Y-44032D01*
X24047Y-43916D01*
X23960Y-43828D01*
X23960Y-33060D01*
X24047Y-32974D01*
X24095Y-32858D01*
X24095Y-32733D01*
X24047Y-32617D01*
X23985Y-32554D01*
X23997Y-32550D01*
X24086Y-32462D01*
X24134Y-32346D01*
X24134Y-32821D01*
X24103Y-32852D01*
X24055Y-32968D01*
X24055Y-33093D01*
X24103Y-33209D01*
X24190Y-33296D01*
X24190Y-44993D01*
X24153Y-45009D01*
X24064Y-45097D01*
X24016Y-45213D01*
X24016Y-45338D01*
X24064Y-45454D01*
X24152Y-45543D01*
X24268Y-45591D01*
X24393Y-45591D01*
X24509Y-45543D01*
X24598Y-45455D01*
X24646Y-45339D01*
X24646Y-45214D01*
X24598Y-45098D01*
X24550Y-45049D01*
X24550Y-33296D01*
X24637Y-33210D01*
X24685Y-33094D01*
X24685Y-47049D01*
X23355Y-47049D01*
X23355Y-41002D01*
X23355Y-35096D01*
X23355Y-29191D01*
X23355Y-23285D01*
X23097Y-22660D01*
X22618Y-22181D01*
X21994Y-21922D01*
X21317Y-21921D01*
X20692Y-22179D01*
X20213Y-22658D01*
X19954Y-23282D01*
X19953Y-23959D01*
X20211Y-24584D01*
X20690Y-25063D01*
X21314Y-25322D01*
X21991Y-25323D01*
X22616Y-25065D01*
X23095Y-24586D01*
X23354Y-23962D01*
X23355Y-23285D01*
X23355Y-29191D01*
X23097Y-28566D01*
X22618Y-28087D01*
X21994Y-27828D01*
X21317Y-27827D01*
X20692Y-28085D01*
X20213Y-28564D01*
X19954Y-29188D01*
X19953Y-29865D01*
X20211Y-30490D01*
X20690Y-30969D01*
X21314Y-31228D01*
X21991Y-31229D01*
X22616Y-30971D01*
X23095Y-30492D01*
X23354Y-29868D01*
X23355Y-29191D01*
X23355Y-35096D01*
X23097Y-34471D01*
X22618Y-33992D01*
X21994Y-33733D01*
X21317Y-33732D01*
X20692Y-33990D01*
X20213Y-34469D01*
X19954Y-35093D01*
X19953Y-35770D01*
X20211Y-36395D01*
X20690Y-36874D01*
X21314Y-37133D01*
X21991Y-37134D01*
X22616Y-36876D01*
X23095Y-36397D01*
X23354Y-35773D01*
X23355Y-35096D01*
X23355Y-41002D01*
X23097Y-40377D01*
X22618Y-39898D01*
X21994Y-39639D01*
X21317Y-39638D01*
X20692Y-39896D01*
X20213Y-40375D01*
X19954Y-40999D01*
X19953Y-41676D01*
X20211Y-42301D01*
X20690Y-42780D01*
X21314Y-43039D01*
X21991Y-43040D01*
X22616Y-42782D01*
X23095Y-42303D01*
X23354Y-41679D01*
X23355Y-41002D01*
X23355Y-47049D01*
X19569Y-47049D01*
X19569Y-44464D01*
X19569Y-44119D01*
X19569Y-20842D01*
X19569Y-20497D01*
X19437Y-20178D01*
X19193Y-19934D01*
X18874Y-19801D01*
X18529Y-19801D01*
X18210Y-19933D01*
X17966Y-20177D01*
X17833Y-20496D01*
X17833Y-20841D01*
X17965Y-21160D01*
X18209Y-21404D01*
X18528Y-21537D01*
X18873Y-21537D01*
X19192Y-21405D01*
X19436Y-21161D01*
X19569Y-20842D01*
X19569Y-44119D01*
X19437Y-43800D01*
X19193Y-43556D01*
X18874Y-43423D01*
X18529Y-43423D01*
X18210Y-43555D01*
X17966Y-43799D01*
X17833Y-44118D01*
X17833Y-44463D01*
X17965Y-44782D01*
X18209Y-45026D01*
X18528Y-45159D01*
X18873Y-45159D01*
X19192Y-45027D01*
X19436Y-44783D01*
X19569Y-44464D01*
X19569Y-47049D01*
X15156Y-47049D01*
X15156Y-19486D01*
X92325Y-19486D01*
X92325Y-47049D01*
X92325Y-47049D01*
G37*
G54D15*
X92325Y-47049D02*
X90435Y-47049D01*
X90435Y-44464D01*
X90435Y-44119D01*
X90435Y-20842D01*
X90435Y-20497D01*
X90303Y-20178D01*
X90059Y-19934D01*
X89740Y-19801D01*
X89395Y-19801D01*
X89076Y-19933D01*
X88832Y-20177D01*
X88699Y-20496D01*
X88699Y-20841D01*
X88831Y-21160D01*
X89075Y-21404D01*
X89394Y-21537D01*
X89739Y-21537D01*
X90058Y-21405D01*
X90302Y-21161D01*
X90435Y-20842D01*
X90435Y-44119D01*
X90303Y-43800D01*
X90059Y-43556D01*
X89740Y-43423D01*
X89395Y-43423D01*
X89076Y-43555D01*
X88832Y-43799D01*
X88699Y-44118D01*
X88699Y-44463D01*
X88831Y-44782D01*
X89075Y-45026D01*
X89394Y-45159D01*
X89739Y-45159D01*
X90058Y-45027D01*
X90302Y-44783D01*
X90435Y-44464D01*
X90435Y-47049D01*
X88315Y-47049D01*
X88315Y-34563D01*
X88315Y-34438D01*
X88267Y-34322D01*
X88180Y-34234D01*
X88180Y-21000D01*
X88166Y-20931D01*
X88127Y-20873D01*
X87815Y-20561D01*
X87815Y-20438D01*
X87767Y-20322D01*
X87679Y-20233D01*
X87563Y-20185D01*
X87438Y-20185D01*
X87322Y-20233D01*
X87233Y-20321D01*
X87185Y-20437D01*
X87185Y-20562D01*
X87233Y-20678D01*
X87321Y-20767D01*
X87437Y-20815D01*
X87561Y-20815D01*
X87820Y-21074D01*
X87820Y-34234D01*
X87815Y-34239D01*
X87815Y-34063D01*
X87815Y-33938D01*
X87767Y-33822D01*
X87680Y-33734D01*
X87680Y-21500D01*
X87666Y-21431D01*
X87627Y-21373D01*
X87315Y-21061D01*
X87315Y-20938D01*
X87267Y-20822D01*
X87179Y-20733D01*
X87063Y-20685D01*
X86938Y-20685D01*
X86822Y-20733D01*
X86733Y-20821D01*
X86685Y-20937D01*
X86685Y-21062D01*
X86733Y-21178D01*
X86821Y-21267D01*
X86937Y-21315D01*
X87061Y-21315D01*
X87320Y-21574D01*
X87320Y-33734D01*
X87233Y-33821D01*
X87185Y-33937D01*
X87185Y-34062D01*
X87233Y-34178D01*
X87321Y-34267D01*
X87437Y-34315D01*
X87562Y-34315D01*
X87678Y-34267D01*
X87767Y-34179D01*
X87815Y-34063D01*
X87815Y-34239D01*
X87733Y-34321D01*
X87685Y-34437D01*
X87685Y-34562D01*
X87733Y-34678D01*
X87821Y-34767D01*
X87937Y-34815D01*
X88062Y-34815D01*
X88178Y-34767D01*
X88267Y-34679D01*
X88315Y-34563D01*
X88315Y-47049D01*
X87045Y-47049D01*
X87045Y-32467D01*
X87030Y-32257D01*
X86979Y-32133D01*
X86949Y-32124D01*
X86949Y-31488D01*
X86949Y-31313D01*
X86949Y-30488D01*
X86949Y-30313D01*
X86949Y-29488D01*
X86949Y-29313D01*
X86949Y-28488D01*
X86949Y-28313D01*
X86949Y-27488D01*
X86949Y-27313D01*
X86949Y-26488D01*
X86949Y-26313D01*
X86949Y-25488D01*
X86949Y-25313D01*
X86882Y-25152D01*
X86759Y-25028D01*
X86598Y-24961D01*
X86423Y-24961D01*
X86262Y-25028D01*
X86138Y-25151D01*
X86071Y-25312D01*
X86071Y-25487D01*
X86138Y-25648D01*
X86261Y-25772D01*
X86422Y-25839D01*
X86597Y-25839D01*
X86758Y-25772D01*
X86882Y-25649D01*
X86949Y-25488D01*
X86949Y-26313D01*
X86882Y-26152D01*
X86759Y-26028D01*
X86598Y-25961D01*
X86423Y-25961D01*
X86262Y-26028D01*
X86138Y-26151D01*
X86071Y-26312D01*
X86071Y-26487D01*
X86138Y-26648D01*
X86261Y-26772D01*
X86422Y-26839D01*
X86597Y-26839D01*
X86758Y-26772D01*
X86882Y-26649D01*
X86949Y-26488D01*
X86949Y-27313D01*
X86882Y-27152D01*
X86759Y-27028D01*
X86598Y-26961D01*
X86423Y-26961D01*
X86262Y-27028D01*
X86138Y-27151D01*
X86071Y-27312D01*
X86071Y-27487D01*
X86138Y-27648D01*
X86261Y-27772D01*
X86422Y-27839D01*
X86597Y-27839D01*
X86758Y-27772D01*
X86882Y-27649D01*
X86949Y-27488D01*
X86949Y-28313D01*
X86882Y-28152D01*
X86759Y-28028D01*
X86598Y-27961D01*
X86423Y-27961D01*
X86262Y-28028D01*
X86138Y-28151D01*
X86071Y-28312D01*
X86071Y-28487D01*
X86138Y-28648D01*
X86261Y-28772D01*
X86422Y-28839D01*
X86597Y-28839D01*
X86758Y-28772D01*
X86882Y-28649D01*
X86949Y-28488D01*
X86949Y-29313D01*
X86882Y-29152D01*
X86759Y-29028D01*
X86598Y-28961D01*
X86423Y-28961D01*
X86262Y-29028D01*
X86138Y-29151D01*
X86071Y-29312D01*
X86071Y-29487D01*
X86138Y-29648D01*
X86261Y-29772D01*
X86422Y-29839D01*
X86597Y-29839D01*
X86758Y-29772D01*
X86882Y-29649D01*
X86949Y-29488D01*
X86949Y-30313D01*
X86882Y-30152D01*
X86759Y-30028D01*
X86598Y-29961D01*
X86423Y-29961D01*
X86262Y-30028D01*
X86138Y-30151D01*
X86071Y-30312D01*
X86071Y-30487D01*
X86138Y-30648D01*
X86261Y-30772D01*
X86422Y-30839D01*
X86597Y-30839D01*
X86758Y-30772D01*
X86882Y-30649D01*
X86949Y-30488D01*
X86949Y-31313D01*
X86882Y-31152D01*
X86759Y-31028D01*
X86598Y-30961D01*
X86423Y-30961D01*
X86262Y-31028D01*
X86138Y-31151D01*
X86071Y-31312D01*
X86071Y-31487D01*
X86138Y-31648D01*
X86261Y-31772D01*
X86422Y-31839D01*
X86597Y-31839D01*
X86758Y-31772D01*
X86882Y-31649D01*
X86949Y-31488D01*
X86949Y-32124D01*
X86889Y-32106D01*
X86804Y-32191D01*
X86804Y-32021D01*
X86777Y-31931D01*
X86577Y-31865D01*
X86367Y-31880D01*
X86243Y-31931D01*
X86216Y-32021D01*
X86510Y-32315D01*
X86804Y-32021D01*
X86804Y-32191D01*
X86595Y-32400D01*
X86889Y-32694D01*
X86979Y-32667D01*
X87045Y-32467D01*
X87045Y-47049D01*
X86804Y-47049D01*
X86804Y-32779D01*
X86510Y-32485D01*
X86425Y-32570D01*
X86425Y-32400D01*
X86131Y-32106D01*
X86041Y-32133D01*
X85975Y-32333D01*
X85990Y-32543D01*
X86041Y-32667D01*
X86131Y-32694D01*
X86425Y-32400D01*
X86425Y-32570D01*
X86216Y-32779D01*
X86243Y-32869D01*
X86443Y-32935D01*
X86653Y-32920D01*
X86777Y-32869D01*
X86804Y-32779D01*
X86804Y-47049D01*
X85949Y-47049D01*
X85949Y-32488D01*
X85949Y-32313D01*
X85949Y-31488D01*
X85949Y-31313D01*
X85949Y-30488D01*
X85949Y-30313D01*
X85949Y-29488D01*
X85949Y-29313D01*
X85949Y-28488D01*
X85949Y-28313D01*
X85949Y-27488D01*
X85949Y-27313D01*
X85949Y-26488D01*
X85949Y-26313D01*
X85949Y-25727D01*
X85949Y-25672D01*
X85949Y-25072D01*
X85949Y-22088D01*
X85949Y-21913D01*
X85882Y-21752D01*
X85759Y-21628D01*
X85598Y-21561D01*
X85423Y-21561D01*
X85262Y-21628D01*
X85138Y-21751D01*
X85071Y-21912D01*
X85071Y-22087D01*
X85138Y-22248D01*
X85261Y-22372D01*
X85422Y-22439D01*
X85597Y-22439D01*
X85758Y-22372D01*
X85882Y-22249D01*
X85949Y-22088D01*
X85949Y-25072D01*
X85928Y-25021D01*
X85888Y-24982D01*
X85837Y-24961D01*
X85782Y-24961D01*
X85182Y-24961D01*
X85131Y-24982D01*
X85092Y-25022D01*
X85071Y-25073D01*
X85071Y-25128D01*
X85071Y-25728D01*
X85092Y-25779D01*
X85132Y-25818D01*
X85183Y-25839D01*
X85238Y-25839D01*
X85838Y-25839D01*
X85889Y-25818D01*
X85928Y-25778D01*
X85949Y-25727D01*
X85949Y-26313D01*
X85882Y-26152D01*
X85759Y-26028D01*
X85598Y-25961D01*
X85423Y-25961D01*
X85262Y-26028D01*
X85138Y-26151D01*
X85071Y-26312D01*
X85071Y-26487D01*
X85138Y-26648D01*
X85261Y-26772D01*
X85422Y-26839D01*
X85597Y-26839D01*
X85758Y-26772D01*
X85882Y-26649D01*
X85949Y-26488D01*
X85949Y-27313D01*
X85882Y-27152D01*
X85759Y-27028D01*
X85598Y-26961D01*
X85423Y-26961D01*
X85262Y-27028D01*
X85138Y-27151D01*
X85071Y-27312D01*
X85071Y-27487D01*
X85138Y-27648D01*
X85261Y-27772D01*
X85422Y-27839D01*
X85597Y-27839D01*
X85758Y-27772D01*
X85882Y-27649D01*
X85949Y-27488D01*
X85949Y-28313D01*
X85882Y-28152D01*
X85759Y-28028D01*
X85598Y-27961D01*
X85423Y-27961D01*
X85262Y-28028D01*
X85138Y-28151D01*
X85071Y-28312D01*
X85071Y-28487D01*
X85138Y-28648D01*
X85261Y-28772D01*
X85422Y-28839D01*
X85597Y-28839D01*
X85758Y-28772D01*
X85882Y-28649D01*
X85949Y-28488D01*
X85949Y-29313D01*
X85882Y-29152D01*
X85759Y-29028D01*
X85598Y-28961D01*
X85423Y-28961D01*
X85262Y-29028D01*
X85138Y-29151D01*
X85071Y-29312D01*
X85071Y-29487D01*
X85138Y-29648D01*
X85261Y-29772D01*
X85422Y-29839D01*
X85597Y-29839D01*
X85758Y-29772D01*
X85882Y-29649D01*
X85949Y-29488D01*
X85949Y-30313D01*
X85882Y-30152D01*
X85759Y-30028D01*
X85598Y-29961D01*
X85423Y-29961D01*
X85262Y-30028D01*
X85138Y-30151D01*
X85071Y-30312D01*
X85071Y-30487D01*
X85138Y-30648D01*
X85261Y-30772D01*
X85422Y-30839D01*
X85597Y-30839D01*
X85758Y-30772D01*
X85882Y-30649D01*
X85949Y-30488D01*
X85949Y-31313D01*
X85882Y-31152D01*
X85759Y-31028D01*
X85598Y-30961D01*
X85423Y-30961D01*
X85262Y-31028D01*
X85138Y-31151D01*
X85071Y-31312D01*
X85071Y-31487D01*
X85138Y-31648D01*
X85261Y-31772D01*
X85422Y-31839D01*
X85597Y-31839D01*
X85758Y-31772D01*
X85882Y-31649D01*
X85949Y-31488D01*
X85949Y-32313D01*
X85882Y-32152D01*
X85759Y-32028D01*
X85598Y-31961D01*
X85423Y-31961D01*
X85262Y-32028D01*
X85138Y-32151D01*
X85071Y-32312D01*
X85071Y-32487D01*
X85138Y-32648D01*
X85261Y-32772D01*
X85422Y-32839D01*
X85597Y-32839D01*
X85758Y-32772D01*
X85882Y-32649D01*
X85949Y-32488D01*
X85949Y-47049D01*
X85919Y-47049D01*
X85919Y-41168D01*
X85919Y-40993D01*
X85852Y-40832D01*
X85729Y-40708D01*
X85568Y-40641D01*
X85393Y-40641D01*
X85232Y-40708D01*
X85108Y-40831D01*
X85041Y-40992D01*
X85041Y-41167D01*
X85108Y-41328D01*
X85231Y-41452D01*
X85392Y-41519D01*
X85567Y-41519D01*
X85728Y-41452D01*
X85852Y-41329D01*
X85919Y-41168D01*
X85919Y-47049D01*
X84949Y-47049D01*
X84949Y-22088D01*
X84949Y-21913D01*
X84882Y-21752D01*
X84759Y-21628D01*
X84598Y-21561D01*
X84423Y-21561D01*
X84262Y-21628D01*
X84138Y-21751D01*
X84071Y-21912D01*
X84071Y-22087D01*
X84138Y-22248D01*
X84261Y-22372D01*
X84422Y-22439D01*
X84597Y-22439D01*
X84758Y-22372D01*
X84882Y-22249D01*
X84949Y-22088D01*
X84949Y-47049D01*
X84919Y-47049D01*
X84919Y-41168D01*
X84919Y-40993D01*
X84852Y-40832D01*
X84815Y-40794D01*
X84815Y-39063D01*
X84815Y-38938D01*
X84767Y-38822D01*
X84680Y-38734D01*
X84680Y-34765D01*
X84767Y-34679D01*
X84815Y-34563D01*
X84815Y-34438D01*
X84767Y-34322D01*
X84680Y-34234D01*
X84680Y-30765D01*
X84767Y-30679D01*
X84815Y-30563D01*
X84815Y-30438D01*
X84767Y-30322D01*
X84680Y-30234D01*
X84680Y-27265D01*
X84767Y-27179D01*
X84815Y-27063D01*
X84815Y-26938D01*
X84767Y-26822D01*
X84680Y-26734D01*
X84680Y-25765D01*
X84767Y-25679D01*
X84815Y-25563D01*
X84815Y-25438D01*
X84767Y-25322D01*
X84680Y-25234D01*
X84680Y-23765D01*
X84767Y-23679D01*
X84815Y-23563D01*
X84815Y-23438D01*
X84767Y-23322D01*
X84679Y-23233D01*
X84563Y-23185D01*
X84438Y-23185D01*
X84322Y-23233D01*
X84233Y-23321D01*
X84185Y-23437D01*
X84185Y-23562D01*
X84233Y-23678D01*
X84320Y-23765D01*
X84320Y-25234D01*
X84233Y-25321D01*
X84185Y-25437D01*
X84185Y-25562D01*
X84233Y-25678D01*
X84320Y-25765D01*
X84320Y-26323D01*
X84278Y-26222D01*
X84190Y-26133D01*
X84180Y-26128D01*
X84180Y-24265D01*
X84267Y-24179D01*
X84315Y-24063D01*
X84315Y-23938D01*
X84267Y-23822D01*
X84179Y-23733D01*
X84063Y-23685D01*
X83949Y-23685D01*
X83949Y-22088D01*
X83949Y-21913D01*
X83882Y-21752D01*
X83759Y-21628D01*
X83598Y-21561D01*
X83423Y-21561D01*
X83262Y-21628D01*
X83138Y-21751D01*
X83071Y-21912D01*
X83071Y-22087D01*
X83138Y-22248D01*
X83261Y-22372D01*
X83422Y-22439D01*
X83597Y-22439D01*
X83758Y-22372D01*
X83882Y-22249D01*
X83949Y-22088D01*
X83949Y-23685D01*
X83938Y-23685D01*
X83822Y-23733D01*
X83733Y-23821D01*
X83685Y-23937D01*
X83685Y-24062D01*
X83733Y-24178D01*
X83820Y-24265D01*
X83820Y-25823D01*
X83778Y-25722D01*
X83690Y-25633D01*
X83680Y-25628D01*
X83680Y-24765D01*
X83767Y-24679D01*
X83815Y-24563D01*
X83815Y-24438D01*
X83767Y-24322D01*
X83679Y-24233D01*
X83563Y-24185D01*
X83438Y-24185D01*
X83322Y-24233D01*
X83233Y-24321D01*
X83185Y-24437D01*
X83185Y-24562D01*
X83233Y-24678D01*
X83320Y-24765D01*
X83320Y-25645D01*
X83244Y-25721D01*
X83196Y-25837D01*
X83196Y-25962D01*
X83244Y-26078D01*
X83320Y-26154D01*
X83320Y-28234D01*
X83233Y-28321D01*
X83185Y-28437D01*
X83185Y-28562D01*
X83233Y-28678D01*
X83320Y-28765D01*
X83320Y-32234D01*
X83233Y-32321D01*
X83185Y-32437D01*
X83185Y-32562D01*
X83233Y-32678D01*
X83320Y-32765D01*
X83320Y-36234D01*
X83233Y-36321D01*
X83185Y-36437D01*
X83185Y-36562D01*
X83233Y-36678D01*
X83321Y-36767D01*
X83437Y-36815D01*
X83562Y-36815D01*
X83678Y-36767D01*
X83767Y-36679D01*
X83815Y-36563D01*
X83815Y-36438D01*
X83767Y-36322D01*
X83680Y-36234D01*
X83680Y-32765D01*
X83767Y-32679D01*
X83815Y-32563D01*
X83815Y-32438D01*
X83767Y-32322D01*
X83680Y-32234D01*
X83680Y-28765D01*
X83767Y-28679D01*
X83815Y-28563D01*
X83815Y-28438D01*
X83767Y-28322D01*
X83680Y-28234D01*
X83680Y-26170D01*
X83689Y-26167D01*
X83778Y-26079D01*
X83820Y-25977D01*
X83820Y-26145D01*
X83744Y-26221D01*
X83696Y-26337D01*
X83696Y-26462D01*
X83744Y-26578D01*
X83820Y-26654D01*
X83820Y-27734D01*
X83733Y-27821D01*
X83685Y-27937D01*
X83685Y-28062D01*
X83733Y-28178D01*
X83820Y-28265D01*
X83820Y-31734D01*
X83733Y-31821D01*
X83685Y-31937D01*
X83685Y-32062D01*
X83733Y-32178D01*
X83820Y-32265D01*
X83820Y-35734D01*
X83733Y-35821D01*
X83685Y-35937D01*
X83685Y-36062D01*
X83733Y-36178D01*
X83821Y-36267D01*
X83937Y-36315D01*
X84062Y-36315D01*
X84178Y-36267D01*
X84267Y-36179D01*
X84315Y-36063D01*
X84315Y-35938D01*
X84267Y-35822D01*
X84180Y-35734D01*
X84180Y-32265D01*
X84267Y-32179D01*
X84315Y-32063D01*
X84315Y-31938D01*
X84267Y-31822D01*
X84180Y-31734D01*
X84180Y-28265D01*
X84267Y-28179D01*
X84315Y-28063D01*
X84315Y-27938D01*
X84267Y-27822D01*
X84180Y-27734D01*
X84180Y-26670D01*
X84189Y-26667D01*
X84278Y-26579D01*
X84320Y-26477D01*
X84320Y-26734D01*
X84233Y-26821D01*
X84185Y-26937D01*
X84185Y-27062D01*
X84233Y-27178D01*
X84320Y-27265D01*
X84320Y-30234D01*
X84233Y-30321D01*
X84185Y-30437D01*
X84185Y-30562D01*
X84233Y-30678D01*
X84320Y-30765D01*
X84320Y-34234D01*
X84233Y-34321D01*
X84185Y-34437D01*
X84185Y-34562D01*
X84233Y-34678D01*
X84320Y-34765D01*
X84320Y-38734D01*
X84233Y-38821D01*
X84185Y-38937D01*
X84185Y-39062D01*
X84233Y-39178D01*
X84321Y-39267D01*
X84437Y-39315D01*
X84562Y-39315D01*
X84678Y-39267D01*
X84767Y-39179D01*
X84815Y-39063D01*
X84815Y-40794D01*
X84729Y-40708D01*
X84568Y-40641D01*
X84393Y-40641D01*
X84232Y-40708D01*
X84108Y-40831D01*
X84041Y-40992D01*
X84041Y-41167D01*
X84108Y-41328D01*
X84231Y-41452D01*
X84392Y-41519D01*
X84567Y-41519D01*
X84728Y-41452D01*
X84852Y-41329D01*
X84919Y-41168D01*
X84919Y-47049D01*
X83919Y-47049D01*
X83919Y-41168D01*
X83919Y-40993D01*
X83852Y-40832D01*
X83729Y-40708D01*
X83568Y-40641D01*
X83393Y-40641D01*
X83315Y-40673D01*
X83315Y-37063D01*
X83315Y-36938D01*
X83267Y-36822D01*
X83180Y-36734D01*
X83180Y-33265D01*
X83267Y-33179D01*
X83315Y-33063D01*
X83315Y-32938D01*
X83267Y-32822D01*
X83180Y-32734D01*
X83180Y-29265D01*
X83267Y-29179D01*
X83315Y-29063D01*
X83315Y-28938D01*
X83267Y-28822D01*
X83180Y-28734D01*
X83180Y-25265D01*
X83267Y-25179D01*
X83315Y-25063D01*
X83315Y-24938D01*
X83267Y-24822D01*
X83179Y-24733D01*
X83063Y-24685D01*
X82949Y-24685D01*
X82949Y-22088D01*
X82949Y-21913D01*
X82882Y-21752D01*
X82759Y-21628D01*
X82598Y-21561D01*
X82423Y-21561D01*
X82262Y-21628D01*
X82138Y-21751D01*
X82071Y-21912D01*
X82071Y-22087D01*
X82138Y-22248D01*
X82261Y-22372D01*
X82422Y-22439D01*
X82597Y-22439D01*
X82758Y-22372D01*
X82882Y-22249D01*
X82949Y-22088D01*
X82949Y-24685D01*
X82938Y-24685D01*
X82822Y-24733D01*
X82733Y-24821D01*
X82685Y-24937D01*
X82685Y-25062D01*
X82733Y-25178D01*
X82820Y-25265D01*
X82820Y-27323D01*
X82778Y-27222D01*
X82690Y-27133D01*
X82680Y-27128D01*
X82680Y-25765D01*
X82767Y-25679D01*
X82815Y-25563D01*
X82815Y-25438D01*
X82767Y-25322D01*
X82679Y-25233D01*
X82563Y-25185D01*
X82438Y-25185D01*
X82322Y-25233D01*
X82233Y-25321D01*
X82185Y-25437D01*
X82185Y-25562D01*
X82233Y-25678D01*
X82320Y-25765D01*
X82320Y-27145D01*
X82244Y-27221D01*
X82196Y-27337D01*
X82196Y-27462D01*
X82244Y-27578D01*
X82320Y-27654D01*
X82320Y-29234D01*
X82233Y-29321D01*
X82185Y-29437D01*
X82185Y-29562D01*
X82233Y-29678D01*
X82320Y-29765D01*
X82320Y-33234D01*
X82233Y-33321D01*
X82185Y-33437D01*
X82185Y-33562D01*
X82233Y-33678D01*
X82320Y-33765D01*
X82320Y-37234D01*
X82315Y-37239D01*
X82315Y-34063D01*
X82315Y-33938D01*
X82267Y-33822D01*
X82180Y-33734D01*
X82180Y-24265D01*
X82267Y-24179D01*
X82315Y-24063D01*
X82315Y-23938D01*
X82267Y-23822D01*
X82179Y-23733D01*
X82063Y-23685D01*
X81949Y-23685D01*
X81949Y-22088D01*
X81949Y-21913D01*
X81882Y-21752D01*
X81759Y-21628D01*
X81598Y-21561D01*
X81423Y-21561D01*
X81262Y-21628D01*
X81138Y-21751D01*
X81071Y-21912D01*
X81071Y-22087D01*
X81138Y-22248D01*
X81261Y-22372D01*
X81422Y-22439D01*
X81597Y-22439D01*
X81758Y-22372D01*
X81882Y-22249D01*
X81949Y-22088D01*
X81949Y-23685D01*
X81938Y-23685D01*
X81822Y-23733D01*
X81733Y-23821D01*
X81685Y-23937D01*
X81685Y-24062D01*
X81733Y-24178D01*
X81820Y-24265D01*
X81820Y-33734D01*
X81733Y-33821D01*
X81685Y-33937D01*
X81685Y-34062D01*
X81733Y-34178D01*
X81821Y-34267D01*
X81937Y-34315D01*
X82062Y-34315D01*
X82178Y-34267D01*
X82267Y-34179D01*
X82315Y-34063D01*
X82315Y-37239D01*
X82233Y-37321D01*
X82185Y-37437D01*
X82185Y-37562D01*
X82233Y-37678D01*
X82321Y-37767D01*
X82437Y-37815D01*
X82562Y-37815D01*
X82678Y-37767D01*
X82767Y-37679D01*
X82815Y-37563D01*
X82815Y-37438D01*
X82767Y-37322D01*
X82680Y-37234D01*
X82680Y-33765D01*
X82767Y-33679D01*
X82815Y-33563D01*
X82815Y-33438D01*
X82767Y-33322D01*
X82680Y-33234D01*
X82680Y-29765D01*
X82767Y-29679D01*
X82815Y-29563D01*
X82815Y-29438D01*
X82767Y-29322D01*
X82680Y-29234D01*
X82680Y-27670D01*
X82689Y-27667D01*
X82778Y-27579D01*
X82820Y-27477D01*
X82820Y-28734D01*
X82733Y-28821D01*
X82685Y-28937D01*
X82685Y-29062D01*
X82733Y-29178D01*
X82820Y-29265D01*
X82820Y-32734D01*
X82733Y-32821D01*
X82685Y-32937D01*
X82685Y-33062D01*
X82733Y-33178D01*
X82820Y-33265D01*
X82820Y-36734D01*
X82733Y-36821D01*
X82685Y-36937D01*
X82685Y-37062D01*
X82733Y-37178D01*
X82821Y-37267D01*
X82937Y-37315D01*
X83062Y-37315D01*
X83178Y-37267D01*
X83267Y-37179D01*
X83315Y-37063D01*
X83315Y-40673D01*
X83232Y-40708D01*
X83108Y-40831D01*
X83041Y-40992D01*
X83041Y-41167D01*
X83108Y-41328D01*
X83231Y-41452D01*
X83392Y-41519D01*
X83567Y-41519D01*
X83728Y-41452D01*
X83852Y-41329D01*
X83919Y-41168D01*
X83919Y-47049D01*
X82919Y-47049D01*
X82919Y-41168D01*
X82919Y-40993D01*
X82852Y-40832D01*
X82729Y-40708D01*
X82568Y-40641D01*
X82393Y-40641D01*
X82232Y-40708D01*
X82108Y-40831D01*
X82041Y-40992D01*
X82041Y-41167D01*
X82108Y-41328D01*
X82231Y-41452D01*
X82392Y-41519D01*
X82567Y-41519D01*
X82728Y-41452D01*
X82852Y-41329D01*
X82919Y-41168D01*
X82919Y-47049D01*
X81919Y-47049D01*
X81919Y-41168D01*
X81919Y-40993D01*
X81852Y-40832D01*
X81815Y-40794D01*
X81815Y-38563D01*
X81815Y-38438D01*
X81767Y-38322D01*
X81680Y-38234D01*
X81680Y-32265D01*
X81767Y-32179D01*
X81815Y-32063D01*
X81815Y-31938D01*
X81767Y-31822D01*
X81679Y-31733D01*
X81563Y-31685D01*
X81438Y-31685D01*
X81322Y-31733D01*
X81233Y-31821D01*
X81191Y-31922D01*
X81191Y-30165D01*
X81278Y-30079D01*
X81326Y-29963D01*
X81326Y-29838D01*
X81278Y-29722D01*
X81190Y-29633D01*
X81074Y-29585D01*
X80949Y-29585D01*
X80949Y-22088D01*
X80949Y-21913D01*
X80882Y-21752D01*
X80759Y-21628D01*
X80598Y-21561D01*
X80423Y-21561D01*
X80262Y-21628D01*
X80138Y-21751D01*
X80071Y-21912D01*
X80071Y-22087D01*
X80138Y-22248D01*
X80261Y-22372D01*
X80422Y-22439D01*
X80597Y-22439D01*
X80758Y-22372D01*
X80882Y-22249D01*
X80949Y-22088D01*
X80949Y-29585D01*
X80833Y-29633D01*
X80744Y-29721D01*
X80696Y-29837D01*
X80696Y-29962D01*
X80744Y-30078D01*
X80831Y-30165D01*
X80831Y-35634D01*
X80744Y-35721D01*
X80696Y-35837D01*
X80696Y-35962D01*
X80744Y-36078D01*
X80832Y-36167D01*
X80948Y-36215D01*
X81073Y-36215D01*
X81189Y-36167D01*
X81278Y-36079D01*
X81320Y-35977D01*
X81320Y-38234D01*
X81233Y-38321D01*
X81185Y-38437D01*
X81185Y-38562D01*
X81233Y-38678D01*
X81321Y-38767D01*
X81437Y-38815D01*
X81562Y-38815D01*
X81678Y-38767D01*
X81767Y-38679D01*
X81815Y-38563D01*
X81815Y-40794D01*
X81729Y-40708D01*
X81568Y-40641D01*
X81393Y-40641D01*
X81232Y-40708D01*
X81108Y-40831D01*
X81041Y-40992D01*
X81041Y-41167D01*
X81108Y-41328D01*
X81231Y-41452D01*
X81392Y-41519D01*
X81567Y-41519D01*
X81728Y-41452D01*
X81852Y-41329D01*
X81919Y-41168D01*
X81919Y-47049D01*
X80919Y-47049D01*
X80919Y-41168D01*
X80919Y-40993D01*
X80852Y-40832D01*
X80729Y-40708D01*
X80568Y-40641D01*
X80393Y-40641D01*
X80232Y-40708D01*
X80108Y-40831D01*
X80041Y-40992D01*
X80041Y-41167D01*
X80108Y-41328D01*
X80231Y-41452D01*
X80392Y-41519D01*
X80567Y-41519D01*
X80728Y-41452D01*
X80852Y-41329D01*
X80919Y-41168D01*
X80919Y-47049D01*
X79949Y-47049D01*
X79949Y-22088D01*
X79949Y-21913D01*
X79882Y-21752D01*
X79759Y-21628D01*
X79598Y-21561D01*
X79423Y-21561D01*
X79262Y-21628D01*
X79138Y-21751D01*
X79071Y-21912D01*
X79071Y-22087D01*
X79138Y-22248D01*
X79261Y-22372D01*
X79422Y-22439D01*
X79597Y-22439D01*
X79758Y-22372D01*
X79882Y-22249D01*
X79949Y-22088D01*
X79949Y-47049D01*
X78949Y-47049D01*
X78949Y-22088D01*
X78949Y-21913D01*
X78882Y-21752D01*
X78759Y-21628D01*
X78598Y-21561D01*
X78423Y-21561D01*
X78262Y-21628D01*
X78138Y-21751D01*
X78071Y-21912D01*
X78071Y-22087D01*
X78138Y-22248D01*
X78261Y-22372D01*
X78422Y-22439D01*
X78597Y-22439D01*
X78758Y-22372D01*
X78882Y-22249D01*
X78949Y-22088D01*
X78949Y-47049D01*
X78929Y-47049D01*
X78929Y-41168D01*
X78929Y-40993D01*
X78862Y-40832D01*
X78739Y-40708D01*
X78578Y-40641D01*
X78403Y-40641D01*
X78242Y-40708D01*
X78118Y-40831D01*
X78051Y-40992D01*
X78051Y-41167D01*
X78118Y-41328D01*
X78241Y-41452D01*
X78402Y-41519D01*
X78577Y-41519D01*
X78738Y-41452D01*
X78862Y-41329D01*
X78929Y-41168D01*
X78929Y-47049D01*
X78025Y-47049D01*
X78025Y-41147D01*
X78010Y-40937D01*
X77959Y-40813D01*
X77869Y-40786D01*
X77784Y-40871D01*
X77784Y-40701D01*
X77757Y-40611D01*
X77557Y-40545D01*
X77439Y-40553D01*
X77439Y-22088D01*
X77439Y-21913D01*
X77372Y-21752D01*
X77249Y-21628D01*
X77088Y-21561D01*
X76913Y-21561D01*
X76752Y-21628D01*
X76628Y-21751D01*
X76561Y-21912D01*
X76561Y-22087D01*
X76628Y-22248D01*
X76751Y-22372D01*
X76912Y-22439D01*
X77087Y-22439D01*
X77248Y-22372D01*
X77372Y-22249D01*
X77439Y-22088D01*
X77439Y-40553D01*
X77347Y-40560D01*
X77223Y-40611D01*
X77196Y-40701D01*
X77490Y-40995D01*
X77784Y-40701D01*
X77784Y-40871D01*
X77575Y-41080D01*
X77869Y-41374D01*
X77959Y-41347D01*
X78025Y-41147D01*
X78025Y-47049D01*
X77784Y-47049D01*
X77784Y-41459D01*
X77490Y-41165D01*
X77405Y-41250D01*
X77405Y-41080D01*
X77111Y-40786D01*
X77021Y-40813D01*
X76993Y-40896D01*
X76959Y-40813D01*
X76869Y-40786D01*
X76784Y-40871D01*
X76575Y-41080D01*
X76869Y-41374D01*
X76959Y-41347D01*
X76986Y-41263D01*
X77021Y-41347D01*
X77111Y-41374D01*
X77405Y-41080D01*
X77405Y-41250D01*
X77196Y-41459D01*
X77223Y-41549D01*
X77423Y-41615D01*
X77633Y-41600D01*
X77757Y-41549D01*
X77784Y-41459D01*
X77784Y-47049D01*
X76784Y-47049D01*
X76784Y-41459D01*
X76518Y-41193D01*
X76490Y-41165D01*
X76405Y-41080D01*
X76490Y-40995D01*
X76518Y-40967D01*
X76784Y-40701D01*
X76757Y-40611D01*
X76557Y-40545D01*
X76439Y-40553D01*
X76439Y-22088D01*
X76439Y-21913D01*
X76372Y-21752D01*
X76249Y-21628D01*
X76088Y-21561D01*
X75913Y-21561D01*
X75752Y-21628D01*
X75628Y-21751D01*
X75561Y-21912D01*
X75561Y-22087D01*
X75628Y-22248D01*
X75751Y-22372D01*
X75912Y-22439D01*
X76087Y-22439D01*
X76248Y-22372D01*
X76372Y-22249D01*
X76439Y-22088D01*
X76439Y-40553D01*
X76347Y-40560D01*
X76223Y-40611D01*
X76209Y-40657D01*
X76173Y-40621D01*
X76164Y-40630D01*
X76164Y-40590D01*
X76150Y-40521D01*
X76111Y-40463D01*
X76111Y-40462D01*
X76006Y-40357D01*
X76006Y-35186D01*
X76093Y-35100D01*
X76141Y-34984D01*
X76141Y-34859D01*
X76093Y-34743D01*
X76005Y-34654D01*
X75889Y-34606D01*
X75764Y-34606D01*
X75648Y-34654D01*
X75559Y-34742D01*
X75511Y-34858D01*
X75511Y-34983D01*
X75559Y-35099D01*
X75646Y-35186D01*
X75646Y-40432D01*
X75660Y-40501D01*
X75699Y-40559D01*
X75804Y-40664D01*
X75804Y-40773D01*
X75739Y-40708D01*
X75578Y-40641D01*
X75403Y-40641D01*
X75242Y-40708D01*
X75219Y-40730D01*
X75219Y-40704D01*
X75363Y-40561D01*
X75363Y-40560D01*
X75402Y-40502D01*
X75415Y-40433D01*
X75416Y-40433D01*
X75416Y-35619D01*
X75503Y-35533D01*
X75551Y-35417D01*
X75551Y-35292D01*
X75503Y-35176D01*
X75439Y-35111D01*
X75439Y-22088D01*
X75439Y-21913D01*
X75372Y-21752D01*
X75249Y-21628D01*
X75088Y-21561D01*
X74913Y-21561D01*
X74752Y-21628D01*
X74628Y-21751D01*
X74561Y-21912D01*
X74561Y-22087D01*
X74628Y-22248D01*
X74751Y-22372D01*
X74912Y-22439D01*
X75087Y-22439D01*
X75248Y-22372D01*
X75372Y-22249D01*
X75439Y-22088D01*
X75439Y-35111D01*
X75415Y-35087D01*
X75299Y-35039D01*
X75174Y-35039D01*
X75119Y-35061D01*
X75119Y-31401D01*
X75119Y-31276D01*
X75071Y-31160D01*
X74983Y-31071D01*
X74867Y-31023D01*
X74742Y-31023D01*
X74626Y-31071D01*
X74537Y-31159D01*
X74489Y-31275D01*
X74489Y-31400D01*
X74537Y-31516D01*
X74624Y-31603D01*
X74624Y-34537D01*
X74536Y-34625D01*
X74527Y-34646D01*
X74527Y-34433D01*
X74527Y-34308D01*
X74479Y-34192D01*
X74392Y-34104D01*
X74392Y-32029D01*
X74479Y-31943D01*
X74527Y-31827D01*
X74527Y-31702D01*
X74479Y-31586D01*
X74439Y-31545D01*
X74439Y-22088D01*
X74439Y-21913D01*
X74372Y-21752D01*
X74249Y-21628D01*
X74088Y-21561D01*
X73913Y-21561D01*
X73752Y-21628D01*
X73628Y-21751D01*
X73561Y-21912D01*
X73561Y-22087D01*
X73628Y-22248D01*
X73751Y-22372D01*
X73912Y-22439D01*
X74087Y-22439D01*
X74248Y-22372D01*
X74372Y-22249D01*
X74439Y-22088D01*
X74439Y-31545D01*
X74391Y-31497D01*
X74275Y-31449D01*
X74150Y-31449D01*
X74034Y-31497D01*
X73945Y-31585D01*
X73897Y-31701D01*
X73897Y-31826D01*
X73945Y-31942D01*
X74032Y-32029D01*
X74032Y-34104D01*
X73945Y-34191D01*
X73937Y-34210D01*
X73937Y-34000D01*
X73937Y-33875D01*
X73889Y-33759D01*
X73802Y-33671D01*
X73802Y-32470D01*
X73889Y-32384D01*
X73937Y-32268D01*
X73937Y-32143D01*
X73889Y-32027D01*
X73801Y-31938D01*
X73685Y-31890D01*
X73560Y-31890D01*
X73444Y-31938D01*
X73439Y-31942D01*
X73439Y-22088D01*
X73439Y-21913D01*
X73372Y-21752D01*
X73249Y-21628D01*
X73088Y-21561D01*
X72913Y-21561D01*
X72752Y-21628D01*
X72628Y-21751D01*
X72561Y-21912D01*
X72561Y-22087D01*
X72628Y-22248D01*
X72751Y-22372D01*
X72912Y-22439D01*
X73087Y-22439D01*
X73248Y-22372D01*
X73372Y-22249D01*
X73439Y-22088D01*
X73439Y-31942D01*
X73355Y-32026D01*
X73307Y-32142D01*
X73307Y-32267D01*
X73355Y-32383D01*
X73442Y-32470D01*
X73442Y-33671D01*
X73355Y-33758D01*
X73346Y-33779D01*
X73346Y-33567D01*
X73346Y-33442D01*
X73298Y-33326D01*
X73211Y-33238D01*
X73211Y-32903D01*
X73298Y-32817D01*
X73346Y-32701D01*
X73346Y-32576D01*
X73298Y-32460D01*
X73210Y-32371D01*
X73094Y-32323D01*
X72969Y-32323D01*
X72853Y-32371D01*
X72764Y-32459D01*
X72716Y-32575D01*
X72716Y-32700D01*
X72764Y-32816D01*
X72851Y-32903D01*
X72851Y-33238D01*
X72764Y-33325D01*
X72716Y-33441D01*
X72716Y-33566D01*
X72764Y-33682D01*
X72852Y-33771D01*
X72968Y-33819D01*
X73093Y-33819D01*
X73209Y-33771D01*
X73298Y-33683D01*
X73346Y-33567D01*
X73346Y-33779D01*
X73307Y-33874D01*
X73307Y-33999D01*
X73355Y-34115D01*
X73443Y-34204D01*
X73559Y-34252D01*
X73684Y-34252D01*
X73800Y-34204D01*
X73889Y-34116D01*
X73937Y-34000D01*
X73937Y-34210D01*
X73897Y-34307D01*
X73897Y-34432D01*
X73945Y-34548D01*
X74033Y-34637D01*
X74149Y-34685D01*
X74274Y-34685D01*
X74390Y-34637D01*
X74479Y-34549D01*
X74527Y-34433D01*
X74527Y-34646D01*
X74488Y-34741D01*
X74488Y-34866D01*
X74536Y-34982D01*
X74624Y-35071D01*
X74740Y-35119D01*
X74865Y-35119D01*
X74981Y-35071D01*
X75070Y-34983D01*
X75118Y-34867D01*
X75118Y-34742D01*
X75070Y-34626D01*
X74984Y-34539D01*
X74984Y-31603D01*
X75071Y-31517D01*
X75119Y-31401D01*
X75119Y-35061D01*
X75058Y-35087D01*
X74969Y-35175D01*
X74921Y-35291D01*
X74921Y-35416D01*
X74969Y-35532D01*
X75056Y-35619D01*
X75056Y-40358D01*
X74960Y-40454D01*
X74960Y-40181D01*
X74960Y-40056D01*
X74912Y-39940D01*
X74825Y-39852D01*
X74825Y-36052D01*
X74912Y-35966D01*
X74960Y-35850D01*
X74960Y-35725D01*
X74912Y-35609D01*
X74824Y-35520D01*
X74708Y-35472D01*
X74583Y-35472D01*
X74467Y-35520D01*
X74378Y-35608D01*
X74330Y-35724D01*
X74330Y-35849D01*
X74378Y-35965D01*
X74465Y-36052D01*
X74465Y-39852D01*
X74378Y-39939D01*
X74370Y-39958D01*
X74370Y-39748D01*
X74370Y-39623D01*
X74322Y-39507D01*
X74235Y-39419D01*
X74235Y-36485D01*
X74322Y-36399D01*
X74370Y-36283D01*
X74370Y-36158D01*
X74322Y-36042D01*
X74234Y-35953D01*
X74118Y-35905D01*
X73993Y-35905D01*
X73877Y-35953D01*
X73788Y-36041D01*
X73740Y-36157D01*
X73740Y-36282D01*
X73788Y-36398D01*
X73875Y-36485D01*
X73875Y-39419D01*
X73788Y-39506D01*
X73779Y-39527D01*
X73779Y-39315D01*
X73779Y-39190D01*
X73731Y-39074D01*
X73644Y-38986D01*
X73644Y-36918D01*
X73731Y-36832D01*
X73779Y-36716D01*
X73779Y-36591D01*
X73731Y-36475D01*
X73643Y-36386D01*
X73527Y-36338D01*
X73402Y-36338D01*
X73286Y-36386D01*
X73197Y-36474D01*
X73149Y-36590D01*
X73149Y-36715D01*
X73197Y-36831D01*
X73284Y-36918D01*
X73284Y-38986D01*
X73197Y-39073D01*
X73189Y-39092D01*
X73189Y-38881D01*
X73189Y-38756D01*
X73141Y-38640D01*
X73054Y-38552D01*
X73054Y-37351D01*
X73141Y-37265D01*
X73189Y-37149D01*
X73189Y-37024D01*
X73141Y-36908D01*
X73053Y-36819D01*
X72937Y-36771D01*
X72812Y-36771D01*
X72696Y-36819D01*
X72607Y-36907D01*
X72598Y-36928D01*
X72598Y-35417D01*
X72598Y-35292D01*
X72550Y-35176D01*
X72463Y-35088D01*
X72463Y-29989D01*
X72550Y-29903D01*
X72598Y-29787D01*
X72598Y-29662D01*
X72550Y-29546D01*
X72462Y-29457D01*
X72439Y-29447D01*
X72439Y-22088D01*
X72439Y-21913D01*
X72372Y-21752D01*
X72249Y-21628D01*
X72088Y-21561D01*
X71913Y-21561D01*
X71752Y-21628D01*
X71628Y-21751D01*
X71561Y-21912D01*
X71561Y-22087D01*
X71628Y-22248D01*
X71751Y-22372D01*
X71912Y-22439D01*
X72087Y-22439D01*
X72248Y-22372D01*
X72372Y-22249D01*
X72439Y-22088D01*
X72439Y-29447D01*
X72346Y-29409D01*
X72221Y-29409D01*
X72105Y-29457D01*
X72016Y-29545D01*
X71968Y-29661D01*
X71968Y-29786D01*
X72016Y-29902D01*
X72103Y-29989D01*
X72103Y-35088D01*
X72016Y-35175D01*
X71968Y-35291D01*
X71968Y-35416D01*
X72016Y-35532D01*
X72104Y-35621D01*
X72220Y-35669D01*
X72345Y-35669D01*
X72461Y-35621D01*
X72550Y-35533D01*
X72598Y-35417D01*
X72598Y-36928D01*
X72559Y-37023D01*
X72559Y-37148D01*
X72607Y-37264D01*
X72694Y-37351D01*
X72694Y-38552D01*
X72607Y-38639D01*
X72598Y-38660D01*
X72598Y-38448D01*
X72598Y-38323D01*
X72550Y-38207D01*
X72463Y-38119D01*
X72463Y-37784D01*
X72550Y-37698D01*
X72598Y-37582D01*
X72598Y-37457D01*
X72550Y-37341D01*
X72462Y-37252D01*
X72346Y-37204D01*
X72221Y-37204D01*
X72105Y-37252D01*
X72016Y-37340D01*
X71968Y-37456D01*
X71968Y-37581D01*
X72016Y-37697D01*
X72103Y-37784D01*
X72103Y-38119D01*
X72016Y-38206D01*
X71968Y-38322D01*
X71968Y-38447D01*
X72016Y-38563D01*
X72104Y-38652D01*
X72220Y-38700D01*
X72345Y-38700D01*
X72461Y-38652D01*
X72550Y-38564D01*
X72598Y-38448D01*
X72598Y-38660D01*
X72559Y-38755D01*
X72559Y-38880D01*
X72607Y-38996D01*
X72695Y-39085D01*
X72811Y-39133D01*
X72936Y-39133D01*
X73052Y-39085D01*
X73141Y-38997D01*
X73189Y-38881D01*
X73189Y-39092D01*
X73149Y-39189D01*
X73149Y-39314D01*
X73197Y-39430D01*
X73285Y-39519D01*
X73401Y-39567D01*
X73526Y-39567D01*
X73642Y-39519D01*
X73731Y-39431D01*
X73779Y-39315D01*
X73779Y-39527D01*
X73740Y-39622D01*
X73740Y-39747D01*
X73788Y-39863D01*
X73876Y-39952D01*
X73992Y-40000D01*
X74117Y-40000D01*
X74233Y-39952D01*
X74322Y-39864D01*
X74370Y-39748D01*
X74370Y-39958D01*
X74330Y-40055D01*
X74330Y-40180D01*
X74378Y-40296D01*
X74466Y-40385D01*
X74582Y-40433D01*
X74707Y-40433D01*
X74823Y-40385D01*
X74912Y-40297D01*
X74960Y-40181D01*
X74960Y-40454D01*
X74912Y-40503D01*
X74873Y-40561D01*
X74859Y-40630D01*
X74859Y-40828D01*
X74739Y-40708D01*
X74578Y-40641D01*
X74403Y-40641D01*
X74242Y-40708D01*
X74118Y-40831D01*
X74051Y-40992D01*
X74051Y-41167D01*
X74118Y-41328D01*
X74241Y-41452D01*
X74402Y-41519D01*
X74577Y-41519D01*
X74738Y-41452D01*
X74859Y-41331D01*
X74859Y-41771D01*
X74873Y-41840D01*
X74912Y-41898D01*
X75056Y-42042D01*
X75056Y-43749D01*
X74969Y-43836D01*
X74921Y-43952D01*
X74921Y-44077D01*
X74969Y-44193D01*
X75057Y-44282D01*
X75173Y-44330D01*
X75298Y-44330D01*
X75414Y-44282D01*
X75503Y-44194D01*
X75551Y-44078D01*
X75551Y-43953D01*
X75503Y-43837D01*
X75416Y-43749D01*
X75416Y-41968D01*
X75402Y-41899D01*
X75363Y-41841D01*
X75363Y-41840D01*
X75219Y-41696D01*
X75219Y-41429D01*
X75241Y-41452D01*
X75402Y-41519D01*
X75577Y-41519D01*
X75738Y-41452D01*
X75804Y-41386D01*
X75804Y-41850D01*
X75818Y-41919D01*
X75857Y-41977D01*
X76237Y-42357D01*
X76237Y-45009D01*
X76150Y-45096D01*
X76102Y-45212D01*
X76102Y-45337D01*
X76150Y-45453D01*
X76238Y-45542D01*
X76354Y-45590D01*
X76479Y-45590D01*
X76595Y-45542D01*
X76684Y-45454D01*
X76732Y-45338D01*
X76732Y-45213D01*
X76684Y-45097D01*
X76597Y-45009D01*
X76597Y-42283D01*
X76583Y-42214D01*
X76544Y-42156D01*
X76544Y-42155D01*
X76164Y-41775D01*
X76164Y-41530D01*
X76173Y-41539D01*
X76209Y-41502D01*
X76223Y-41549D01*
X76423Y-41615D01*
X76633Y-41600D01*
X76757Y-41549D01*
X76784Y-41459D01*
X76784Y-47049D01*
X76732Y-47049D01*
X73929Y-47049D01*
X73929Y-41168D01*
X73929Y-40993D01*
X73862Y-40832D01*
X73739Y-40708D01*
X73578Y-40641D01*
X73403Y-40641D01*
X73242Y-40708D01*
X73118Y-40831D01*
X73051Y-40992D01*
X73051Y-41167D01*
X73118Y-41328D01*
X73241Y-41452D01*
X73402Y-41519D01*
X73577Y-41519D01*
X73738Y-41452D01*
X73862Y-41329D01*
X73929Y-41168D01*
X73929Y-47049D01*
X72929Y-47049D01*
X72929Y-41168D01*
X72929Y-40993D01*
X72862Y-40832D01*
X72739Y-40708D01*
X72578Y-40641D01*
X72403Y-40641D01*
X72242Y-40708D01*
X72118Y-40831D01*
X72051Y-40992D01*
X72051Y-41167D01*
X72118Y-41328D01*
X72241Y-41452D01*
X72402Y-41519D01*
X72577Y-41519D01*
X72738Y-41452D01*
X72862Y-41329D01*
X72929Y-41168D01*
X72929Y-47049D01*
X71930Y-47049D01*
X71930Y-30381D01*
X71930Y-30256D01*
X71882Y-30140D01*
X71794Y-30051D01*
X71678Y-30003D01*
X71553Y-30003D01*
X71535Y-30010D01*
X71535Y-22067D01*
X71520Y-21857D01*
X71469Y-21733D01*
X71379Y-21706D01*
X71294Y-21791D01*
X71294Y-21621D01*
X71267Y-21531D01*
X71067Y-21465D01*
X70857Y-21480D01*
X70733Y-21531D01*
X70706Y-21621D01*
X71000Y-21915D01*
X71294Y-21621D01*
X71294Y-21791D01*
X71085Y-22000D01*
X71379Y-22294D01*
X71469Y-22267D01*
X71535Y-22067D01*
X71535Y-30010D01*
X71437Y-30051D01*
X71348Y-30139D01*
X71300Y-30255D01*
X71300Y-30380D01*
X71348Y-30496D01*
X71435Y-30583D01*
X71435Y-35441D01*
X71347Y-35529D01*
X71339Y-35548D01*
X71339Y-31043D01*
X71339Y-30918D01*
X71294Y-30809D01*
X71294Y-22379D01*
X71000Y-22085D01*
X70915Y-22170D01*
X70915Y-22000D01*
X70621Y-21706D01*
X70531Y-21733D01*
X70465Y-21933D01*
X70480Y-22143D01*
X70531Y-22267D01*
X70621Y-22294D01*
X70915Y-22000D01*
X70915Y-22170D01*
X70706Y-22379D01*
X70733Y-22469D01*
X70933Y-22535D01*
X71143Y-22520D01*
X71267Y-22469D01*
X71294Y-22379D01*
X71294Y-30809D01*
X71291Y-30802D01*
X71203Y-30713D01*
X71087Y-30665D01*
X70962Y-30665D01*
X70846Y-30713D01*
X70757Y-30801D01*
X70709Y-30917D01*
X70709Y-31042D01*
X70757Y-31158D01*
X70844Y-31245D01*
X70844Y-36111D01*
X70756Y-36199D01*
X70708Y-36315D01*
X70708Y-36440D01*
X70756Y-36556D01*
X70844Y-36645D01*
X70960Y-36693D01*
X71085Y-36693D01*
X71201Y-36645D01*
X71290Y-36557D01*
X71338Y-36441D01*
X71338Y-36316D01*
X71290Y-36200D01*
X71204Y-36113D01*
X71204Y-31245D01*
X71291Y-31159D01*
X71339Y-31043D01*
X71339Y-35548D01*
X71299Y-35645D01*
X71299Y-35770D01*
X71347Y-35886D01*
X71435Y-35975D01*
X71551Y-36023D01*
X71676Y-36023D01*
X71792Y-35975D01*
X71881Y-35887D01*
X71929Y-35771D01*
X71929Y-35646D01*
X71881Y-35530D01*
X71795Y-35443D01*
X71795Y-30583D01*
X71882Y-30497D01*
X71930Y-30381D01*
X71930Y-47049D01*
X71929Y-47049D01*
X71929Y-41168D01*
X71929Y-40993D01*
X71862Y-40832D01*
X71739Y-40708D01*
X71578Y-40641D01*
X71403Y-40641D01*
X71242Y-40708D01*
X71118Y-40831D01*
X71051Y-40992D01*
X71051Y-41167D01*
X71118Y-41328D01*
X71241Y-41452D01*
X71402Y-41519D01*
X71577Y-41519D01*
X71738Y-41452D01*
X71862Y-41329D01*
X71929Y-41168D01*
X71929Y-47049D01*
X70599Y-47049D01*
X70599Y-32143D01*
X70439Y-31755D01*
X70439Y-22088D01*
X70439Y-21913D01*
X70372Y-21752D01*
X70249Y-21628D01*
X70088Y-21561D01*
X69913Y-21561D01*
X69752Y-21628D01*
X69628Y-21751D01*
X69561Y-21912D01*
X69561Y-22087D01*
X69628Y-22248D01*
X69751Y-22372D01*
X69912Y-22439D01*
X70087Y-22439D01*
X70248Y-22372D01*
X70372Y-22249D01*
X70439Y-22088D01*
X70439Y-31755D01*
X70341Y-31518D01*
X69862Y-31039D01*
X69439Y-30863D01*
X69439Y-22088D01*
X69439Y-21913D01*
X69372Y-21752D01*
X69249Y-21628D01*
X69088Y-21561D01*
X68913Y-21561D01*
X68752Y-21628D01*
X68628Y-21751D01*
X68561Y-21912D01*
X68561Y-22087D01*
X68628Y-22248D01*
X68751Y-22372D01*
X68912Y-22439D01*
X69087Y-22439D01*
X69248Y-22372D01*
X69372Y-22249D01*
X69439Y-22088D01*
X69439Y-30863D01*
X69238Y-30780D01*
X68561Y-30779D01*
X68439Y-30829D01*
X68439Y-22088D01*
X68439Y-21913D01*
X68372Y-21752D01*
X68249Y-21628D01*
X68088Y-21561D01*
X67913Y-21561D01*
X67752Y-21628D01*
X67628Y-21751D01*
X67561Y-21912D01*
X67561Y-22087D01*
X67628Y-22248D01*
X67751Y-22372D01*
X67912Y-22439D01*
X68087Y-22439D01*
X68248Y-22372D01*
X68372Y-22249D01*
X68439Y-22088D01*
X68439Y-30829D01*
X67936Y-31037D01*
X67457Y-31516D01*
X67198Y-32140D01*
X67197Y-32817D01*
X67455Y-33442D01*
X67934Y-33921D01*
X68558Y-34180D01*
X69235Y-34181D01*
X69860Y-33923D01*
X70339Y-33444D01*
X70598Y-32820D01*
X70599Y-32143D01*
X70599Y-47049D01*
X65945Y-47049D01*
X65945Y-23528D01*
X65945Y-23403D01*
X65897Y-23287D01*
X65810Y-23199D01*
X65810Y-20344D01*
X65897Y-20258D01*
X65945Y-20142D01*
X65945Y-20017D01*
X65897Y-19901D01*
X65809Y-19812D01*
X65693Y-19764D01*
X65568Y-19764D01*
X65452Y-19812D01*
X65363Y-19900D01*
X65315Y-20016D01*
X65315Y-20141D01*
X65363Y-20257D01*
X65450Y-20344D01*
X65450Y-21144D01*
X65424Y-21082D01*
X65336Y-20993D01*
X65220Y-20945D01*
X65095Y-20945D01*
X64979Y-20993D01*
X64890Y-21081D01*
X64842Y-21197D01*
X64842Y-21322D01*
X64890Y-21438D01*
X64977Y-21525D01*
X64977Y-23592D01*
X64890Y-23679D01*
X64842Y-23795D01*
X64842Y-23920D01*
X64890Y-24036D01*
X64978Y-24125D01*
X65094Y-24173D01*
X65219Y-24173D01*
X65335Y-24125D01*
X65424Y-24037D01*
X65472Y-23921D01*
X65472Y-23796D01*
X65441Y-23722D01*
X65451Y-23732D01*
X65567Y-23780D01*
X65692Y-23780D01*
X65808Y-23732D01*
X65897Y-23644D01*
X65945Y-23528D01*
X65945Y-47049D01*
X64693Y-47049D01*
X64693Y-41002D01*
X64693Y-35096D01*
X64693Y-29191D01*
X64693Y-23285D01*
X64435Y-22660D01*
X63956Y-22181D01*
X63332Y-21922D01*
X62655Y-21921D01*
X62030Y-22179D01*
X61551Y-22658D01*
X61292Y-23282D01*
X61291Y-23959D01*
X61549Y-24584D01*
X62028Y-25063D01*
X62652Y-25322D01*
X63329Y-25323D01*
X63954Y-25065D01*
X64433Y-24586D01*
X64692Y-23962D01*
X64693Y-23285D01*
X64693Y-29191D01*
X64435Y-28566D01*
X63956Y-28087D01*
X63332Y-27828D01*
X62655Y-27827D01*
X62030Y-28085D01*
X61551Y-28564D01*
X61292Y-29188D01*
X61291Y-29865D01*
X61549Y-30490D01*
X62028Y-30969D01*
X62652Y-31228D01*
X63329Y-31229D01*
X63954Y-30971D01*
X64433Y-30492D01*
X64692Y-29868D01*
X64693Y-29191D01*
X64693Y-35096D01*
X64435Y-34471D01*
X63956Y-33992D01*
X63332Y-33733D01*
X62655Y-33732D01*
X62030Y-33990D01*
X61551Y-34469D01*
X61292Y-35093D01*
X61291Y-35770D01*
X61549Y-36395D01*
X62028Y-36874D01*
X62652Y-37133D01*
X63329Y-37134D01*
X63954Y-36876D01*
X64433Y-36397D01*
X64692Y-35773D01*
X64693Y-35096D01*
X64693Y-41002D01*
X64435Y-40377D01*
X63956Y-39898D01*
X63332Y-39639D01*
X62655Y-39638D01*
X62030Y-39896D01*
X61551Y-40375D01*
X61292Y-40999D01*
X61291Y-41676D01*
X61549Y-42301D01*
X62028Y-42780D01*
X62652Y-43039D01*
X63329Y-43040D01*
X63954Y-42782D01*
X64433Y-42303D01*
X64692Y-41679D01*
X64693Y-41002D01*
X64693Y-47049D01*
X60907Y-47049D01*
X60907Y-44464D01*
X60907Y-44119D01*
X60907Y-20842D01*
X60907Y-20497D01*
X60775Y-20178D01*
X60531Y-19934D01*
X60212Y-19801D01*
X59867Y-19801D01*
X59548Y-19933D01*
X59304Y-20177D01*
X59171Y-20496D01*
X59171Y-20841D01*
X59303Y-21160D01*
X59547Y-21404D01*
X59866Y-21537D01*
X60211Y-21537D01*
X60530Y-21405D01*
X60774Y-21161D01*
X60907Y-20842D01*
X60907Y-44119D01*
X60775Y-43800D01*
X60531Y-43556D01*
X60212Y-43423D01*
X60197Y-43423D01*
X60197Y-39591D01*
X60197Y-39466D01*
X60197Y-26008D01*
X60197Y-25883D01*
X60149Y-25767D01*
X60062Y-25679D01*
X60062Y-22942D01*
X60149Y-22856D01*
X60197Y-22740D01*
X60197Y-22615D01*
X60149Y-22499D01*
X60061Y-22410D01*
X59945Y-22362D01*
X59820Y-22362D01*
X59704Y-22410D01*
X59615Y-22498D01*
X59567Y-22614D01*
X59567Y-22739D01*
X59615Y-22855D01*
X59702Y-22942D01*
X59702Y-25679D01*
X59615Y-25766D01*
X59567Y-25882D01*
X59567Y-25945D01*
X59558Y-25924D01*
X59471Y-25836D01*
X59471Y-23375D01*
X59558Y-23289D01*
X59606Y-23173D01*
X59606Y-23048D01*
X59558Y-22932D01*
X59470Y-22843D01*
X59354Y-22795D01*
X59229Y-22795D01*
X59113Y-22843D01*
X59024Y-22931D01*
X58976Y-23047D01*
X58976Y-23172D01*
X59024Y-23288D01*
X59111Y-23375D01*
X59111Y-25836D01*
X59024Y-25923D01*
X58976Y-26039D01*
X58976Y-26164D01*
X59024Y-26280D01*
X59112Y-26369D01*
X59228Y-26417D01*
X59353Y-26417D01*
X59469Y-26369D01*
X59558Y-26281D01*
X59606Y-26165D01*
X59606Y-26101D01*
X59615Y-26123D01*
X59703Y-26212D01*
X59819Y-26260D01*
X59944Y-26260D01*
X60060Y-26212D01*
X60149Y-26124D01*
X60197Y-26008D01*
X60197Y-39466D01*
X60149Y-39350D01*
X60061Y-39261D01*
X59945Y-39213D01*
X59820Y-39213D01*
X59704Y-39261D01*
X59615Y-39349D01*
X59567Y-39465D01*
X59567Y-39590D01*
X59615Y-39706D01*
X59702Y-39793D01*
X59702Y-42040D01*
X59665Y-42056D01*
X59576Y-42144D01*
X59528Y-42260D01*
X59528Y-42385D01*
X59576Y-42501D01*
X59664Y-42590D01*
X59780Y-42638D01*
X59905Y-42638D01*
X60021Y-42590D01*
X60110Y-42502D01*
X60158Y-42386D01*
X60158Y-42261D01*
X60110Y-42145D01*
X60062Y-42096D01*
X60062Y-39793D01*
X60149Y-39707D01*
X60197Y-39591D01*
X60197Y-43423D01*
X59867Y-43423D01*
X59548Y-43555D01*
X59449Y-43654D01*
X59449Y-42346D01*
X59449Y-42221D01*
X59401Y-42105D01*
X59314Y-42017D01*
X59314Y-39556D01*
X59401Y-39470D01*
X59449Y-39354D01*
X59449Y-39229D01*
X59401Y-39113D01*
X59313Y-39024D01*
X59197Y-38976D01*
X59072Y-38976D01*
X58956Y-39024D01*
X58867Y-39112D01*
X58819Y-39228D01*
X58819Y-39353D01*
X58867Y-39469D01*
X58954Y-39556D01*
X58954Y-42017D01*
X58867Y-42104D01*
X58819Y-42220D01*
X58819Y-42345D01*
X58867Y-42461D01*
X58955Y-42550D01*
X59071Y-42598D01*
X59196Y-42598D01*
X59312Y-42550D01*
X59401Y-42462D01*
X59449Y-42346D01*
X59449Y-43654D01*
X59304Y-43799D01*
X59171Y-44118D01*
X59171Y-44463D01*
X59303Y-44782D01*
X59547Y-45026D01*
X59866Y-45159D01*
X60211Y-45159D01*
X60530Y-45027D01*
X60774Y-44783D01*
X60907Y-44464D01*
X60907Y-47049D01*
X58788Y-47049D01*
X58788Y-41002D01*
X58788Y-35096D01*
X58788Y-29191D01*
X58788Y-23285D01*
X58530Y-22660D01*
X58051Y-22181D01*
X57427Y-21922D01*
X56750Y-21921D01*
X56125Y-22179D01*
X55646Y-22658D01*
X55387Y-23282D01*
X55386Y-23959D01*
X55644Y-24584D01*
X56123Y-25063D01*
X56747Y-25322D01*
X57424Y-25323D01*
X58049Y-25065D01*
X58528Y-24586D01*
X58787Y-23962D01*
X58788Y-23285D01*
X58788Y-29191D01*
X58530Y-28566D01*
X58051Y-28087D01*
X57427Y-27828D01*
X56750Y-27827D01*
X56125Y-28085D01*
X55646Y-28564D01*
X55387Y-29188D01*
X55386Y-29865D01*
X55644Y-30490D01*
X56123Y-30969D01*
X56747Y-31228D01*
X57424Y-31229D01*
X58049Y-30971D01*
X58528Y-30492D01*
X58787Y-29868D01*
X58788Y-29191D01*
X58788Y-35096D01*
X58530Y-34471D01*
X58051Y-33992D01*
X57427Y-33733D01*
X56750Y-33732D01*
X56125Y-33990D01*
X55646Y-34469D01*
X55387Y-35093D01*
X55386Y-35770D01*
X55644Y-36395D01*
X56123Y-36874D01*
X56747Y-37133D01*
X57424Y-37134D01*
X58049Y-36876D01*
X58528Y-36397D01*
X58787Y-35773D01*
X58788Y-35096D01*
X58788Y-41002D01*
X58530Y-40377D01*
X58051Y-39898D01*
X57427Y-39639D01*
X56750Y-39638D01*
X56125Y-39896D01*
X55646Y-40375D01*
X55387Y-40999D01*
X55386Y-41676D01*
X55644Y-42301D01*
X56123Y-42780D01*
X56747Y-43039D01*
X57424Y-43040D01*
X58049Y-42782D01*
X58528Y-42303D01*
X58787Y-41679D01*
X58788Y-41002D01*
X58788Y-47049D01*
X54488Y-47049D01*
X54488Y-45339D01*
X54488Y-45214D01*
X54440Y-45098D01*
X54353Y-45010D01*
X54353Y-39320D01*
X54440Y-39234D01*
X54488Y-39118D01*
X54488Y-38993D01*
X54440Y-38877D01*
X54409Y-38845D01*
X54409Y-26362D01*
X54409Y-26237D01*
X54361Y-26121D01*
X54274Y-26033D01*
X54274Y-20344D01*
X54361Y-20258D01*
X54409Y-20142D01*
X54409Y-20017D01*
X54361Y-19901D01*
X54273Y-19812D01*
X54157Y-19764D01*
X54032Y-19764D01*
X53916Y-19812D01*
X53827Y-19900D01*
X53779Y-20016D01*
X53779Y-20141D01*
X53827Y-20257D01*
X53914Y-20344D01*
X53914Y-26033D01*
X53827Y-26120D01*
X53779Y-26236D01*
X53779Y-26361D01*
X53827Y-26477D01*
X53915Y-26566D01*
X54031Y-26614D01*
X54156Y-26614D01*
X54272Y-26566D01*
X54361Y-26478D01*
X54409Y-26362D01*
X54409Y-38845D01*
X54352Y-38788D01*
X54236Y-38740D01*
X54111Y-38740D01*
X53995Y-38788D01*
X53906Y-38876D01*
X53858Y-38992D01*
X53858Y-39117D01*
X53906Y-39233D01*
X53993Y-39320D01*
X53993Y-45010D01*
X53906Y-45097D01*
X53858Y-45213D01*
X53858Y-45338D01*
X53906Y-45454D01*
X53994Y-45543D01*
X54110Y-45591D01*
X54235Y-45591D01*
X54351Y-45543D01*
X54440Y-45455D01*
X54488Y-45339D01*
X54488Y-47049D01*
X53661Y-47049D01*
X53661Y-26441D01*
X53661Y-26316D01*
X53613Y-26200D01*
X53526Y-26112D01*
X53526Y-21525D01*
X53613Y-21439D01*
X53661Y-21323D01*
X53661Y-21198D01*
X53613Y-21082D01*
X53525Y-20993D01*
X53409Y-20945D01*
X53284Y-20945D01*
X53168Y-20993D01*
X53079Y-21081D01*
X53031Y-21197D01*
X53031Y-21322D01*
X53079Y-21438D01*
X53166Y-21525D01*
X53166Y-26112D01*
X53079Y-26199D01*
X53031Y-26315D01*
X53031Y-26440D01*
X53079Y-26556D01*
X53167Y-26645D01*
X53283Y-26693D01*
X53408Y-26693D01*
X53524Y-26645D01*
X53613Y-26557D01*
X53661Y-26441D01*
X53661Y-47049D01*
X53543Y-47049D01*
X53543Y-44157D01*
X53543Y-44032D01*
X53495Y-43916D01*
X53408Y-43828D01*
X53408Y-39045D01*
X53495Y-38959D01*
X53543Y-38843D01*
X53543Y-38718D01*
X53495Y-38602D01*
X53407Y-38513D01*
X53291Y-38465D01*
X53166Y-38465D01*
X53050Y-38513D01*
X52961Y-38601D01*
X52913Y-38717D01*
X52913Y-38842D01*
X52961Y-38958D01*
X53048Y-39045D01*
X53048Y-43828D01*
X52961Y-43915D01*
X52913Y-44031D01*
X52913Y-44156D01*
X52961Y-44272D01*
X53049Y-44361D01*
X53165Y-44409D01*
X53290Y-44409D01*
X53406Y-44361D01*
X53495Y-44273D01*
X53543Y-44157D01*
X53543Y-47049D01*
X52882Y-47049D01*
X52882Y-41002D01*
X52882Y-35096D01*
X52882Y-29191D01*
X52882Y-23285D01*
X52624Y-22660D01*
X52145Y-22181D01*
X51521Y-21922D01*
X50844Y-21921D01*
X50219Y-22179D01*
X49740Y-22658D01*
X49481Y-23282D01*
X49480Y-23959D01*
X49738Y-24584D01*
X50217Y-25063D01*
X50841Y-25322D01*
X51518Y-25323D01*
X52143Y-25065D01*
X52622Y-24586D01*
X52881Y-23962D01*
X52882Y-23285D01*
X52882Y-29191D01*
X52624Y-28566D01*
X52145Y-28087D01*
X51521Y-27828D01*
X50844Y-27827D01*
X50219Y-28085D01*
X49740Y-28564D01*
X49481Y-29188D01*
X49480Y-29865D01*
X49738Y-30490D01*
X50217Y-30969D01*
X50841Y-31228D01*
X51518Y-31229D01*
X52143Y-30971D01*
X52622Y-30492D01*
X52881Y-29868D01*
X52882Y-29191D01*
X52882Y-35096D01*
X52624Y-34471D01*
X52145Y-33992D01*
X51521Y-33733D01*
X50844Y-33732D01*
X50219Y-33990D01*
X49740Y-34469D01*
X49481Y-35093D01*
X49480Y-35770D01*
X49738Y-36395D01*
X50217Y-36874D01*
X50841Y-37133D01*
X51518Y-37134D01*
X52143Y-36876D01*
X52622Y-36397D01*
X52881Y-35773D01*
X52882Y-35096D01*
X52882Y-41002D01*
X52624Y-40377D01*
X52145Y-39898D01*
X51521Y-39639D01*
X50844Y-39638D01*
X50219Y-39896D01*
X49740Y-40375D01*
X49481Y-40999D01*
X49480Y-41676D01*
X49738Y-42301D01*
X50217Y-42780D01*
X50841Y-43039D01*
X51518Y-43040D01*
X52143Y-42782D01*
X52622Y-42303D01*
X52881Y-41679D01*
X52882Y-41002D01*
X52882Y-47049D01*
X48622Y-47049D01*
X48622Y-45339D01*
X48622Y-45214D01*
X48574Y-45098D01*
X48487Y-45010D01*
X48487Y-38848D01*
X48574Y-38762D01*
X48622Y-38646D01*
X48622Y-38521D01*
X48574Y-38405D01*
X48543Y-38373D01*
X48543Y-26717D01*
X48543Y-26592D01*
X48495Y-26476D01*
X48408Y-26388D01*
X48408Y-20344D01*
X48495Y-20258D01*
X48543Y-20142D01*
X48543Y-20017D01*
X48495Y-19901D01*
X48407Y-19812D01*
X48291Y-19764D01*
X48166Y-19764D01*
X48050Y-19812D01*
X47961Y-19900D01*
X47913Y-20016D01*
X47913Y-20141D01*
X47961Y-20257D01*
X48048Y-20344D01*
X48048Y-26388D01*
X47961Y-26475D01*
X47913Y-26591D01*
X47913Y-26716D01*
X47961Y-26832D01*
X48049Y-26921D01*
X48165Y-26969D01*
X48290Y-26969D01*
X48406Y-26921D01*
X48495Y-26833D01*
X48543Y-26717D01*
X48543Y-38373D01*
X48486Y-38316D01*
X48370Y-38268D01*
X48245Y-38268D01*
X48129Y-38316D01*
X48040Y-38404D01*
X47992Y-38520D01*
X47992Y-38645D01*
X48040Y-38761D01*
X48127Y-38848D01*
X48127Y-45010D01*
X48040Y-45097D01*
X47992Y-45213D01*
X47992Y-45338D01*
X48040Y-45454D01*
X48128Y-45543D01*
X48244Y-45591D01*
X48369Y-45591D01*
X48485Y-45543D01*
X48574Y-45455D01*
X48622Y-45339D01*
X48622Y-47049D01*
X47756Y-47049D01*
X47756Y-26913D01*
X47756Y-26788D01*
X47708Y-26672D01*
X47621Y-26584D01*
X47621Y-21525D01*
X47708Y-21439D01*
X47756Y-21323D01*
X47756Y-21198D01*
X47708Y-21082D01*
X47620Y-20993D01*
X47504Y-20945D01*
X47379Y-20945D01*
X47263Y-20993D01*
X47174Y-21081D01*
X47126Y-21197D01*
X47126Y-21322D01*
X47174Y-21438D01*
X47261Y-21525D01*
X47261Y-26584D01*
X47174Y-26671D01*
X47126Y-26787D01*
X47126Y-26912D01*
X47174Y-27028D01*
X47262Y-27117D01*
X47378Y-27165D01*
X47503Y-27165D01*
X47619Y-27117D01*
X47708Y-27029D01*
X47756Y-26913D01*
X47756Y-47049D01*
X47677Y-47049D01*
X47677Y-44118D01*
X47677Y-43993D01*
X47629Y-43877D01*
X47542Y-43789D01*
X47542Y-38651D01*
X47629Y-38565D01*
X47677Y-38449D01*
X47677Y-38324D01*
X47629Y-38208D01*
X47541Y-38119D01*
X47425Y-38071D01*
X47300Y-38071D01*
X47184Y-38119D01*
X47095Y-38207D01*
X47047Y-38323D01*
X47047Y-38448D01*
X47095Y-38564D01*
X47182Y-38651D01*
X47182Y-43789D01*
X47095Y-43876D01*
X47047Y-43992D01*
X47047Y-44117D01*
X47095Y-44233D01*
X47183Y-44322D01*
X47299Y-44370D01*
X47424Y-44370D01*
X47540Y-44322D01*
X47629Y-44234D01*
X47677Y-44118D01*
X47677Y-47049D01*
X46977Y-47049D01*
X46977Y-41002D01*
X46977Y-35096D01*
X46977Y-29191D01*
X46977Y-23285D01*
X46719Y-22660D01*
X46240Y-22181D01*
X45616Y-21922D01*
X44939Y-21921D01*
X44314Y-22179D01*
X43835Y-22658D01*
X43576Y-23282D01*
X43575Y-23959D01*
X43833Y-24584D01*
X44312Y-25063D01*
X44936Y-25322D01*
X45613Y-25323D01*
X46238Y-25065D01*
X46717Y-24586D01*
X46976Y-23962D01*
X46977Y-23285D01*
X46977Y-29191D01*
X46719Y-28566D01*
X46240Y-28087D01*
X45616Y-27828D01*
X44939Y-27827D01*
X44314Y-28085D01*
X43835Y-28564D01*
X43576Y-29188D01*
X43575Y-29865D01*
X43833Y-30490D01*
X44312Y-30969D01*
X44936Y-31228D01*
X45613Y-31229D01*
X46238Y-30971D01*
X46717Y-30492D01*
X46976Y-29868D01*
X46977Y-29191D01*
X46977Y-35096D01*
X46719Y-34471D01*
X46240Y-33992D01*
X45616Y-33733D01*
X44939Y-33732D01*
X44314Y-33990D01*
X43835Y-34469D01*
X43576Y-35093D01*
X43575Y-35770D01*
X43833Y-36395D01*
X44312Y-36874D01*
X44936Y-37133D01*
X45613Y-37134D01*
X46238Y-36876D01*
X46717Y-36397D01*
X46976Y-35773D01*
X46977Y-35096D01*
X46977Y-41002D01*
X46719Y-40377D01*
X46240Y-39898D01*
X45616Y-39639D01*
X44939Y-39638D01*
X44314Y-39896D01*
X43835Y-40375D01*
X43576Y-40999D01*
X43575Y-41676D01*
X43833Y-42301D01*
X44312Y-42780D01*
X44936Y-43039D01*
X45613Y-43040D01*
X46238Y-42782D01*
X46717Y-42303D01*
X46976Y-41679D01*
X46977Y-41002D01*
X46977Y-47049D01*
X43191Y-47049D01*
X43191Y-44464D01*
X43191Y-44119D01*
X43191Y-20842D01*
X43191Y-20497D01*
X43059Y-20178D01*
X42815Y-19934D01*
X42496Y-19801D01*
X42151Y-19801D01*
X41832Y-19933D01*
X41588Y-20177D01*
X41455Y-20496D01*
X41455Y-20841D01*
X41587Y-21160D01*
X41831Y-21404D01*
X42150Y-21537D01*
X42495Y-21537D01*
X42814Y-21405D01*
X43058Y-21161D01*
X43191Y-20842D01*
X43191Y-44119D01*
X43059Y-43800D01*
X42815Y-43556D01*
X42559Y-43449D01*
X42559Y-27110D01*
X42559Y-26985D01*
X42511Y-26869D01*
X42424Y-26781D01*
X42424Y-22982D01*
X42511Y-22896D01*
X42559Y-22780D01*
X42559Y-22655D01*
X42511Y-22539D01*
X42423Y-22450D01*
X42307Y-22402D01*
X42182Y-22402D01*
X42066Y-22450D01*
X41977Y-22538D01*
X41929Y-22654D01*
X41929Y-22779D01*
X41977Y-22895D01*
X42064Y-22982D01*
X42064Y-26781D01*
X41977Y-26868D01*
X41929Y-26984D01*
X41929Y-27109D01*
X41977Y-27225D01*
X42065Y-27314D01*
X42181Y-27362D01*
X42306Y-27362D01*
X42422Y-27314D01*
X42511Y-27226D01*
X42559Y-27110D01*
X42559Y-43449D01*
X42496Y-43423D01*
X42480Y-43423D01*
X42480Y-42268D01*
X42480Y-42143D01*
X42432Y-42027D01*
X42345Y-41939D01*
X42345Y-38415D01*
X42432Y-38329D01*
X42480Y-38213D01*
X42480Y-38088D01*
X42432Y-37972D01*
X42344Y-37883D01*
X42228Y-37835D01*
X42103Y-37835D01*
X41987Y-37883D01*
X41898Y-37971D01*
X41850Y-38087D01*
X41850Y-38212D01*
X41898Y-38328D01*
X41985Y-38415D01*
X41985Y-41939D01*
X41898Y-42026D01*
X41850Y-42142D01*
X41850Y-42143D01*
X41802Y-42027D01*
X41715Y-41939D01*
X41715Y-38218D01*
X41802Y-38132D01*
X41850Y-38016D01*
X41850Y-37891D01*
X41850Y-27386D01*
X41850Y-27261D01*
X41802Y-27145D01*
X41715Y-27057D01*
X41715Y-22982D01*
X41802Y-22896D01*
X41850Y-22780D01*
X41850Y-22655D01*
X41802Y-22539D01*
X41714Y-22450D01*
X41598Y-22402D01*
X41473Y-22402D01*
X41357Y-22450D01*
X41268Y-22538D01*
X41220Y-22654D01*
X41220Y-22779D01*
X41268Y-22895D01*
X41355Y-22982D01*
X41355Y-27057D01*
X41268Y-27144D01*
X41220Y-27260D01*
X41220Y-27385D01*
X41268Y-27501D01*
X41356Y-27590D01*
X41472Y-27638D01*
X41597Y-27638D01*
X41713Y-27590D01*
X41802Y-27502D01*
X41850Y-27386D01*
X41850Y-37891D01*
X41802Y-37775D01*
X41714Y-37686D01*
X41598Y-37638D01*
X41473Y-37638D01*
X41357Y-37686D01*
X41268Y-37774D01*
X41220Y-37890D01*
X41220Y-38015D01*
X41268Y-38131D01*
X41355Y-38218D01*
X41355Y-41939D01*
X41268Y-42026D01*
X41220Y-42142D01*
X41220Y-42267D01*
X41268Y-42383D01*
X41356Y-42472D01*
X41472Y-42520D01*
X41597Y-42520D01*
X41713Y-42472D01*
X41802Y-42384D01*
X41850Y-42268D01*
X41898Y-42383D01*
X41986Y-42472D01*
X42102Y-42520D01*
X42227Y-42520D01*
X42343Y-42472D01*
X42432Y-42384D01*
X42480Y-42268D01*
X42480Y-43423D01*
X42151Y-43423D01*
X41832Y-43555D01*
X41588Y-43799D01*
X41455Y-44118D01*
X41455Y-44463D01*
X41587Y-44782D01*
X41831Y-45026D01*
X42150Y-45159D01*
X42495Y-45159D01*
X42814Y-45027D01*
X43058Y-44783D01*
X43191Y-44464D01*
X43191Y-47049D01*
X41071Y-47049D01*
X41071Y-41002D01*
X41071Y-35096D01*
X41071Y-29191D01*
X41071Y-23285D01*
X40813Y-22660D01*
X40334Y-22181D01*
X39710Y-21922D01*
X39033Y-21921D01*
X38408Y-22179D01*
X37929Y-22658D01*
X37670Y-23282D01*
X37669Y-23959D01*
X37927Y-24584D01*
X38406Y-25063D01*
X39030Y-25322D01*
X39707Y-25323D01*
X40332Y-25065D01*
X40811Y-24586D01*
X41070Y-23962D01*
X41071Y-23285D01*
X41071Y-29191D01*
X40813Y-28566D01*
X40334Y-28087D01*
X39710Y-27828D01*
X39033Y-27827D01*
X38408Y-28085D01*
X37929Y-28564D01*
X37670Y-29188D01*
X37669Y-29865D01*
X37927Y-30490D01*
X38406Y-30969D01*
X39030Y-31228D01*
X39707Y-31229D01*
X40332Y-30971D01*
X40811Y-30492D01*
X41070Y-29868D01*
X41071Y-29191D01*
X41071Y-35096D01*
X40813Y-34471D01*
X40334Y-33992D01*
X39710Y-33733D01*
X39033Y-33732D01*
X38408Y-33990D01*
X37929Y-34469D01*
X37670Y-35093D01*
X37669Y-35770D01*
X37927Y-36395D01*
X38406Y-36874D01*
X39030Y-37133D01*
X39707Y-37134D01*
X40332Y-36876D01*
X40811Y-36397D01*
X41070Y-35773D01*
X41071Y-35096D01*
X41071Y-41002D01*
X40813Y-40377D01*
X40334Y-39898D01*
X39710Y-39639D01*
X39033Y-39638D01*
X38408Y-39896D01*
X37929Y-40375D01*
X37670Y-40999D01*
X37669Y-41676D01*
X37927Y-42301D01*
X38406Y-42780D01*
X39030Y-43039D01*
X39707Y-43040D01*
X40332Y-42782D01*
X40811Y-42303D01*
X41070Y-41679D01*
X41071Y-41002D01*
X41071Y-47049D01*
X36890Y-47049D01*
X36890Y-45339D01*
X36890Y-45214D01*
X36842Y-45098D01*
X36755Y-45010D01*
X36755Y-37863D01*
X36842Y-37777D01*
X36890Y-37661D01*
X36890Y-37536D01*
X36842Y-37420D01*
X36754Y-37331D01*
X36638Y-37283D01*
X36535Y-37283D01*
X36535Y-27780D01*
X36535Y-27655D01*
X36487Y-27539D01*
X36440Y-27491D01*
X36440Y-26496D01*
X36440Y-26378D01*
X36440Y-20304D01*
X36487Y-20258D01*
X36535Y-20142D01*
X36535Y-20017D01*
X36487Y-19901D01*
X36399Y-19812D01*
X36283Y-19764D01*
X36158Y-19764D01*
X36042Y-19812D01*
X35953Y-19900D01*
X35905Y-20016D01*
X35905Y-20141D01*
X35953Y-20257D01*
X36041Y-20346D01*
X36080Y-20362D01*
X36080Y-26378D01*
X36080Y-26496D01*
X36080Y-27434D01*
X36042Y-27450D01*
X35953Y-27538D01*
X35905Y-27654D01*
X35905Y-27779D01*
X35953Y-27895D01*
X36041Y-27984D01*
X36157Y-28032D01*
X36282Y-28032D01*
X36398Y-27984D01*
X36487Y-27896D01*
X36535Y-27780D01*
X36535Y-37283D01*
X36513Y-37283D01*
X36397Y-37331D01*
X36308Y-37419D01*
X36260Y-37535D01*
X36260Y-37660D01*
X36308Y-37776D01*
X36395Y-37863D01*
X36395Y-45010D01*
X36308Y-45097D01*
X36260Y-45213D01*
X36260Y-45338D01*
X36308Y-45454D01*
X36396Y-45543D01*
X36512Y-45591D01*
X36637Y-45591D01*
X36753Y-45543D01*
X36842Y-45455D01*
X36890Y-45339D01*
X36890Y-47049D01*
X35945Y-47049D01*
X35945Y-31165D01*
X35945Y-31040D01*
X35897Y-30924D01*
X35810Y-30836D01*
X35810Y-21525D01*
X35897Y-21439D01*
X35945Y-21323D01*
X35945Y-21198D01*
X35897Y-21082D01*
X35809Y-20993D01*
X35693Y-20945D01*
X35568Y-20945D01*
X35452Y-20993D01*
X35363Y-21081D01*
X35315Y-21197D01*
X35315Y-21322D01*
X35363Y-21438D01*
X35450Y-21525D01*
X35450Y-30836D01*
X35363Y-30923D01*
X35315Y-31039D01*
X35315Y-31164D01*
X35363Y-31280D01*
X35451Y-31369D01*
X35567Y-31417D01*
X35692Y-31417D01*
X35808Y-31369D01*
X35897Y-31281D01*
X35945Y-31165D01*
X35945Y-47049D01*
X35906Y-47049D01*
X35906Y-44157D01*
X35906Y-44032D01*
X35858Y-43916D01*
X35771Y-43828D01*
X35771Y-33730D01*
X35858Y-33644D01*
X35906Y-33528D01*
X35906Y-33403D01*
X35858Y-33287D01*
X35770Y-33198D01*
X35654Y-33150D01*
X35529Y-33150D01*
X35413Y-33198D01*
X35324Y-33286D01*
X35276Y-33402D01*
X35276Y-33527D01*
X35324Y-33643D01*
X35411Y-33730D01*
X35411Y-43828D01*
X35324Y-43915D01*
X35276Y-44031D01*
X35276Y-44156D01*
X35324Y-44272D01*
X35412Y-44361D01*
X35528Y-44409D01*
X35653Y-44409D01*
X35769Y-44361D01*
X35858Y-44273D01*
X35906Y-44157D01*
X35906Y-47049D01*
X35166Y-47049D01*
X35166Y-41002D01*
X35166Y-35096D01*
X35166Y-29191D01*
X35166Y-23285D01*
X34908Y-22660D01*
X34429Y-22181D01*
X33805Y-21922D01*
X33128Y-21921D01*
X32503Y-22179D01*
X32024Y-22658D01*
X31765Y-23282D01*
X31764Y-23959D01*
X32022Y-24584D01*
X32501Y-25063D01*
X33125Y-25322D01*
X33802Y-25323D01*
X34427Y-25065D01*
X34906Y-24586D01*
X35165Y-23962D01*
X35166Y-23285D01*
X35166Y-29191D01*
X34908Y-28566D01*
X34429Y-28087D01*
X33805Y-27828D01*
X33128Y-27827D01*
X32503Y-28085D01*
X32024Y-28564D01*
X31765Y-29188D01*
X31764Y-29865D01*
X32022Y-30490D01*
X32501Y-30969D01*
X33125Y-31228D01*
X33802Y-31229D01*
X34427Y-30971D01*
X34906Y-30492D01*
X35165Y-29868D01*
X35166Y-29191D01*
X35166Y-35096D01*
X34908Y-34471D01*
X34429Y-33992D01*
X33805Y-33733D01*
X33128Y-33732D01*
X32503Y-33990D01*
X32024Y-34469D01*
X31765Y-35093D01*
X31764Y-35770D01*
X32022Y-36395D01*
X32501Y-36874D01*
X33125Y-37133D01*
X33802Y-37134D01*
X34427Y-36876D01*
X34906Y-36397D01*
X35165Y-35773D01*
X35166Y-35096D01*
X35166Y-41002D01*
X34908Y-40377D01*
X34429Y-39898D01*
X33805Y-39639D01*
X33128Y-39638D01*
X32503Y-39896D01*
X32024Y-40375D01*
X31765Y-40999D01*
X31764Y-41676D01*
X32022Y-42301D01*
X32501Y-42780D01*
X33125Y-43039D01*
X33802Y-43040D01*
X34427Y-42782D01*
X34906Y-42303D01*
X35165Y-41679D01*
X35166Y-41002D01*
X35166Y-47049D01*
X30827Y-47049D01*
X30827Y-45339D01*
X30827Y-45214D01*
X30779Y-45098D01*
X30692Y-45010D01*
X30692Y-33572D01*
X30779Y-33486D01*
X30827Y-33370D01*
X30827Y-33245D01*
X30779Y-33129D01*
X30691Y-33040D01*
X30669Y-33030D01*
X30669Y-31323D01*
X30669Y-31198D01*
X30621Y-31082D01*
X30534Y-30994D01*
X30534Y-20344D01*
X30621Y-20258D01*
X30669Y-20142D01*
X30669Y-20017D01*
X30621Y-19901D01*
X30533Y-19812D01*
X30417Y-19764D01*
X30292Y-19764D01*
X30176Y-19812D01*
X30087Y-19900D01*
X30039Y-20016D01*
X30039Y-20141D01*
X30087Y-20257D01*
X30174Y-20344D01*
X30174Y-30994D01*
X30087Y-31081D01*
X30079Y-31100D01*
X30079Y-21283D01*
X30079Y-21158D01*
X30031Y-21042D01*
X29943Y-20953D01*
X29827Y-20905D01*
X29702Y-20905D01*
X29586Y-20953D01*
X29497Y-21041D01*
X29449Y-21157D01*
X29449Y-21282D01*
X29497Y-21398D01*
X29544Y-21445D01*
X29544Y-31191D01*
X29457Y-31278D01*
X29409Y-31394D01*
X29409Y-31519D01*
X29457Y-31635D01*
X29545Y-31724D01*
X29661Y-31772D01*
X29786Y-31772D01*
X29902Y-31724D01*
X29991Y-31636D01*
X30039Y-31520D01*
X30039Y-31395D01*
X29991Y-31279D01*
X29904Y-31191D01*
X29904Y-21502D01*
X29942Y-21487D01*
X30031Y-21399D01*
X30079Y-21283D01*
X30079Y-31100D01*
X30039Y-31197D01*
X30039Y-31322D01*
X30087Y-31438D01*
X30175Y-31527D01*
X30291Y-31575D01*
X30416Y-31575D01*
X30532Y-31527D01*
X30621Y-31439D01*
X30669Y-31323D01*
X30669Y-33030D01*
X30575Y-32992D01*
X30450Y-32992D01*
X30334Y-33040D01*
X30245Y-33128D01*
X30197Y-33244D01*
X30197Y-33369D01*
X30245Y-33485D01*
X30332Y-33572D01*
X30332Y-45010D01*
X30245Y-45097D01*
X30197Y-45213D01*
X30197Y-45338D01*
X30245Y-45454D01*
X30333Y-45543D01*
X30449Y-45591D01*
X30574Y-45591D01*
X30690Y-45543D01*
X30779Y-45455D01*
X30827Y-45339D01*
X30827Y-47049D01*
X30039Y-47049D01*
X30039Y-44157D01*
X30039Y-44032D01*
X29991Y-43916D01*
X29904Y-43828D01*
X29904Y-33415D01*
X29991Y-33329D01*
X30039Y-33213D01*
X30039Y-33088D01*
X29991Y-32972D01*
X29903Y-32883D01*
X29787Y-32835D01*
X29662Y-32835D01*
X29546Y-32883D01*
X29457Y-32971D01*
X29409Y-33087D01*
X29409Y-33212D01*
X29457Y-33328D01*
X29544Y-33415D01*
X29544Y-43828D01*
X29457Y-43915D01*
X29409Y-44031D01*
X29409Y-44156D01*
X29457Y-44272D01*
X29545Y-44361D01*
X29661Y-44409D01*
X29786Y-44409D01*
X29902Y-44361D01*
X29991Y-44273D01*
X30039Y-44157D01*
X30039Y-47049D01*
X29260Y-47049D01*
X29260Y-41002D01*
X29260Y-35096D01*
X29260Y-29191D01*
X29260Y-23285D01*
X29002Y-22660D01*
X28523Y-22181D01*
X27899Y-21922D01*
X27222Y-21921D01*
X26597Y-22179D01*
X26118Y-22658D01*
X25859Y-23282D01*
X25858Y-23959D01*
X26116Y-24584D01*
X26595Y-25063D01*
X27219Y-25322D01*
X27896Y-25323D01*
X28521Y-25065D01*
X29000Y-24586D01*
X29259Y-23962D01*
X29260Y-23285D01*
X29260Y-29191D01*
X29002Y-28566D01*
X28523Y-28087D01*
X27899Y-27828D01*
X27222Y-27827D01*
X26597Y-28085D01*
X26118Y-28564D01*
X25859Y-29188D01*
X25858Y-29865D01*
X26116Y-30490D01*
X26595Y-30969D01*
X27219Y-31228D01*
X27896Y-31229D01*
X28521Y-30971D01*
X29000Y-30492D01*
X29259Y-29868D01*
X29260Y-29191D01*
X29260Y-35096D01*
X29002Y-34471D01*
X28523Y-33992D01*
X27899Y-33733D01*
X27222Y-33732D01*
X26597Y-33990D01*
X26118Y-34469D01*
X25859Y-35093D01*
X25858Y-35770D01*
X26116Y-36395D01*
X26595Y-36874D01*
X27219Y-37133D01*
X27896Y-37134D01*
X28521Y-36876D01*
X29000Y-36397D01*
X29259Y-35773D01*
X29260Y-35096D01*
X29260Y-41002D01*
X29002Y-40377D01*
X28523Y-39898D01*
X27899Y-39639D01*
X27222Y-39638D01*
X26597Y-39896D01*
X26118Y-40375D01*
X25859Y-40999D01*
X25858Y-41676D01*
X26116Y-42301D01*
X26595Y-42780D01*
X27219Y-43039D01*
X27896Y-43040D01*
X28521Y-42782D01*
X29000Y-42303D01*
X29259Y-41679D01*
X29260Y-41002D01*
X29260Y-47049D01*
X24803Y-47049D01*
X24803Y-20142D01*
X24803Y-20017D01*
X24755Y-19901D01*
X24667Y-19812D01*
X24551Y-19764D01*
X24426Y-19764D01*
X24310Y-19812D01*
X24221Y-19900D01*
X24173Y-20016D01*
X24173Y-20141D01*
X24221Y-20257D01*
X24308Y-20344D01*
X24308Y-31410D01*
X24271Y-31426D01*
X24182Y-31514D01*
X24134Y-31630D01*
X24134Y-31755D01*
X24182Y-31871D01*
X24270Y-31960D01*
X24386Y-32008D01*
X24511Y-32008D01*
X24627Y-31960D01*
X24716Y-31872D01*
X24764Y-31756D01*
X24764Y-31631D01*
X24716Y-31515D01*
X24668Y-31466D01*
X24668Y-20344D01*
X24755Y-20258D01*
X24803Y-20142D01*
X24803Y-47049D01*
X24685Y-47049D01*
X24685Y-33094D01*
X24685Y-32969D01*
X24637Y-32853D01*
X24549Y-32764D01*
X24433Y-32716D01*
X24308Y-32716D01*
X24192Y-32764D01*
X24134Y-32821D01*
X24134Y-32346D01*
X24134Y-32221D01*
X24086Y-32105D01*
X23999Y-32017D01*
X23999Y-21466D01*
X24047Y-21419D01*
X24095Y-21303D01*
X24095Y-21178D01*
X24047Y-21062D01*
X23959Y-20973D01*
X23843Y-20925D01*
X23718Y-20925D01*
X23602Y-20973D01*
X23513Y-21061D01*
X23465Y-21177D01*
X23465Y-21302D01*
X23513Y-21418D01*
X23601Y-21507D01*
X23639Y-21522D01*
X23639Y-32017D01*
X23552Y-32104D01*
X23504Y-32220D01*
X23504Y-32345D01*
X23552Y-32461D01*
X23613Y-32523D01*
X23602Y-32528D01*
X23513Y-32616D01*
X23465Y-32732D01*
X23465Y-32857D01*
X23513Y-32973D01*
X23600Y-33060D01*
X23600Y-43828D01*
X23513Y-43915D01*
X23465Y-44031D01*
X23465Y-44156D01*
X23513Y-44272D01*
X23601Y-44361D01*
X23717Y-44409D01*
X23842Y-44409D01*
X23958Y-44361D01*
X24047Y-44273D01*
X24095Y-44157D01*
X24095Y-44032D01*
X24047Y-43916D01*
X23960Y-43828D01*
X23960Y-33060D01*
X24047Y-32974D01*
X24095Y-32858D01*
X24095Y-32733D01*
X24047Y-32617D01*
X23985Y-32554D01*
X23997Y-32550D01*
X24086Y-32462D01*
X24134Y-32346D01*
X24134Y-32821D01*
X24103Y-32852D01*
X24055Y-32968D01*
X24055Y-33093D01*
X24103Y-33209D01*
X24190Y-33296D01*
X24190Y-44993D01*
X24153Y-45009D01*
X24064Y-45097D01*
X24016Y-45213D01*
X24016Y-45338D01*
X24064Y-45454D01*
X24152Y-45543D01*
X24268Y-45591D01*
X24393Y-45591D01*
X24509Y-45543D01*
X24598Y-45455D01*
X24646Y-45339D01*
X24646Y-45214D01*
X24598Y-45098D01*
X24550Y-45049D01*
X24550Y-33296D01*
X24637Y-33210D01*
X24685Y-33094D01*
X24685Y-47049D01*
X23355Y-47049D01*
X23355Y-41002D01*
X23355Y-35096D01*
X23355Y-29191D01*
X23355Y-23285D01*
X23097Y-22660D01*
X22618Y-22181D01*
X21994Y-21922D01*
X21317Y-21921D01*
X20692Y-22179D01*
X20213Y-22658D01*
X19954Y-23282D01*
X19953Y-23959D01*
X20211Y-24584D01*
X20690Y-25063D01*
X21314Y-25322D01*
X21991Y-25323D01*
X22616Y-25065D01*
X23095Y-24586D01*
X23354Y-23962D01*
X23355Y-23285D01*
X23355Y-29191D01*
X23097Y-28566D01*
X22618Y-28087D01*
X21994Y-27828D01*
X21317Y-27827D01*
X20692Y-28085D01*
X20213Y-28564D01*
X19954Y-29188D01*
X19953Y-29865D01*
X20211Y-30490D01*
X20690Y-30969D01*
X21314Y-31228D01*
X21991Y-31229D01*
X22616Y-30971D01*
X23095Y-30492D01*
X23354Y-29868D01*
X23355Y-29191D01*
X23355Y-35096D01*
X23097Y-34471D01*
X22618Y-33992D01*
X21994Y-33733D01*
X21317Y-33732D01*
X20692Y-33990D01*
X20213Y-34469D01*
X19954Y-35093D01*
X19953Y-35770D01*
X20211Y-36395D01*
X20690Y-36874D01*
X21314Y-37133D01*
X21991Y-37134D01*
X22616Y-36876D01*
X23095Y-36397D01*
X23354Y-35773D01*
X23355Y-35096D01*
X23355Y-41002D01*
X23097Y-40377D01*
X22618Y-39898D01*
X21994Y-39639D01*
X21317Y-39638D01*
X20692Y-39896D01*
X20213Y-40375D01*
X19954Y-40999D01*
X19953Y-41676D01*
X20211Y-42301D01*
X20690Y-42780D01*
X21314Y-43039D01*
X21991Y-43040D01*
X22616Y-42782D01*
X23095Y-42303D01*
X23354Y-41679D01*
X23355Y-41002D01*
X23355Y-47049D01*
X19569Y-47049D01*
X19569Y-44464D01*
X19569Y-44119D01*
X19569Y-20842D01*
X19569Y-20497D01*
X19437Y-20178D01*
X19193Y-19934D01*
X18874Y-19801D01*
X18529Y-19801D01*
X18210Y-19933D01*
X17966Y-20177D01*
X17833Y-20496D01*
X17833Y-20841D01*
X17965Y-21160D01*
X18209Y-21404D01*
X18528Y-21537D01*
X18873Y-21537D01*
X19192Y-21405D01*
X19436Y-21161D01*
X19569Y-20842D01*
X19569Y-44119D01*
X19437Y-43800D01*
X19193Y-43556D01*
X18874Y-43423D01*
X18529Y-43423D01*
X18210Y-43555D01*
X17966Y-43799D01*
X17833Y-44118D01*
X17833Y-44463D01*
X17965Y-44782D01*
X18209Y-45026D01*
X18528Y-45159D01*
X18873Y-45159D01*
X19192Y-45027D01*
X19436Y-44783D01*
X19569Y-44464D01*
X19569Y-47049D01*
X15156Y-47049D01*
X15156Y-19486D01*
X92325Y-19486D01*
X92325Y-47049D01*
M02*
