M48
INCH,TZ
T1C0.142
T2C0.312
%
G90
G05
T1
X018701Y-020669
X018701Y-044291
X042323Y-020669
X042323Y-044291
X060039Y-020669
X060039Y-044291
X089567Y-020669
X089567Y-044291
T2
X021654Y-023622
X021654Y-029528
X021654Y-035433
X021654Y-041339
X027559Y-023622
X027559Y-029528
X027559Y-035433
X027559Y-041339
X033465Y-023622
X033465Y-029528
X033465Y-035433
X033465Y-041339
X039370Y-023622
X039370Y-029528
X039370Y-035433
X039370Y-041339
X045276Y-023622
X045276Y-029528
X045276Y-035433
X045276Y-041339
X051181Y-023622
X051181Y-029528
X051181Y-035433
X051181Y-041339
X057087Y-023622
X057087Y-029528
X057087Y-035433
X057087Y-041339
X062992Y-023622
X062992Y-029528
X062992Y-035433
X062992Y-041339
X068898Y-032480
T0
M30
