M48
INCH,TZ
T1C0.025
T2C0.032
T3C0.039
T4C0.040
T5C0.055
%
G90
G05
T1
X016000Y-043400
X016500Y-042900
X017000Y-043400
X017875Y-023000
X017875Y-043400
X019600Y-023600
X019600Y-039000
X019600Y-039500
X019600Y-041300
X023650Y-023000
X023650Y-024650
X023650Y-026000
X023650Y-029525
X023650Y-033850
X023650Y-035433
X023650Y-040000
X023650Y-043425
X025500Y-023600
X025500Y-037000
X025500Y-037500
X025500Y-041300
X029575Y-040000
X029600Y-023000
X029600Y-026025
X029600Y-029528
X029600Y-033850
X029600Y-035425
X029600Y-043425
X031400Y-023600
X031400Y-034200
X031400Y-034700
X031400Y-041300
X035475Y-029525
X035475Y-040000
X035525Y-023000
X035525Y-026000
X035525Y-033850
X035525Y-035475
X035525Y-043400
X037300Y-023600
X037300Y-033000
X037300Y-033500
X037300Y-041300
X041225Y-029575
X041250Y-023000
X041250Y-035450
X041250Y-040000
X041250Y-043400
X041275Y-026000
X043100Y-031000
X043100Y-031500
X043200Y-023600
X043200Y-041300
X047200Y-023000
X047225Y-026050
X047225Y-029575
X047225Y-035450
X047225Y-040000
X047225Y-043400
X049100Y-023600
X049100Y-028300
X049100Y-028800
X049100Y-041300
X053125Y-026000
X053125Y-035433
X053150Y-023000
X053150Y-029550
X053150Y-040000
X053150Y-043400
X055000Y-023600
X055000Y-027000
X055000Y-027500
X055000Y-041300
X059125Y-023000
X059125Y-026000
X059150Y-029528
X059150Y-035450
X059150Y-040000
X059150Y-043450
X060900Y-023600
X060900Y-025000
X060900Y-025500
X060900Y-041300
X064000Y-025975
X064000Y-029525
X064000Y-035500
X064000Y-040000
X064000Y-043400
X064025Y-024650
X064050Y-022825
X066200Y-032500
X066200Y-042900
X067250Y-029500
X067250Y-035500
X067250Y-040000
X067250Y-043500
X072750Y-029500
X072750Y-035500
T2
X016000Y-023000
T3
X068000Y-022000
X069000Y-022000
X070000Y-022000
X071000Y-022000
X071490Y-041080
X072000Y-022000
X072490Y-041080
X073000Y-022000
X073490Y-041080
X074000Y-022000
X074490Y-041080
X075000Y-022000
X075490Y-041080
X076000Y-022000
X076490Y-041080
X077000Y-022000
X077490Y-041080
X078490Y-041080
X078510Y-022000
X079510Y-022000
X080480Y-041080
X080510Y-022000
X081480Y-041080
X081510Y-022000
X082480Y-041080
X082510Y-022000
X083480Y-041080
X083510Y-022000
X084480Y-041080
X084510Y-022000
X085480Y-041080
X085510Y-022000
X085510Y-030400
X085510Y-031400
X085510Y-032400
X086510Y-030400
X086510Y-031400
X086510Y-032400
T4
X016000Y-024000
X016000Y-025000
X016000Y-026000
X016000Y-027000
X016000Y-028000
X016000Y-029000
X016000Y-030000
X016000Y-031000
X016000Y-032000
X016000Y-033000
X016000Y-034000
X016000Y-035000
X016000Y-036000
X016000Y-037000
X016000Y-038000
X016000Y-039000
X016000Y-040000
X016000Y-041000
X016000Y-042000
X017000Y-023000
X017000Y-024000
X017000Y-025000
X017000Y-026000
X017000Y-027000
X017000Y-028000
X017000Y-029000
X017000Y-030000
X017000Y-031000
X017000Y-032000
X017000Y-033000
X017000Y-034000
X017000Y-035000
X017000Y-036000
X017000Y-037000
X017000Y-038000
X017000Y-039000
X017000Y-040000
X017000Y-041000
X017000Y-042000
X085510Y-025400
X085510Y-026400
X085510Y-027400
X085510Y-028400
X085510Y-029400
X086510Y-025400
X086510Y-026400
X086510Y-027400
X086510Y-028400
X086510Y-029400
T5
X021654Y-023622
X021654Y-029528
X021654Y-035433
X021654Y-041339
X027559Y-023622
X027559Y-029528
X027559Y-035433
X027559Y-041339
X033465Y-023622
X033465Y-029528
X033465Y-035433
X033465Y-041339
X039370Y-023622
X039370Y-029528
X039370Y-035433
X039370Y-041339
X045276Y-023622
X045276Y-029528
X045276Y-035433
X045276Y-041339
X051181Y-023622
X051181Y-029528
X051181Y-035433
X051181Y-041339
X057087Y-023622
X057087Y-029528
X057087Y-035433
X057087Y-041339
X062992Y-023622
X062992Y-029528
X062992Y-035433
X062992Y-041339
X068898Y-032480
T0
M30
